<?xml version="1.0" encoding="UTF-8"?><svg id="Layer_1" xmlns="http://www.w3.org/2000/svg" xmlns:xlink="http://www.w3.org/1999/xlink" viewBox="0 0 339.91 237.73"><defs><style>.cls-1{fill:url(#linear-gradient-2);}.cls-2{fill:#5c5854;}.cls-3{fill:url(#linear-gradient-6);}.cls-4{fill:url(#linear-gradient-11);}.cls-5{fill:#3d2e21;}.cls-6{fill:url(#linear-gradient-10);}.cls-7{fill:#e0ddda;}.cls-8{fill:url(#linear-gradient-5);}.cls-9{fill:none;}.cls-10{fill:url(#linear-gradient-7);}.cls-11{fill:url(#linear-gradient-9);}.cls-12{fill:url(#linear-gradient-3);}.cls-13{fill:url(#linear-gradient);}.cls-14{fill:#e8e6e4;}.cls-15{fill:url(#linear-gradient-4);}.cls-16{fill:url(#linear-gradient-8);}.cls-17{fill:#5e5b56;}.cls-18{fill:url(#linear-gradient-12);}</style><linearGradient id="linear-gradient" x1="197.69" y1="198.72" x2="197.69" y2="48.98" gradientUnits="userSpaceOnUse"><stop offset="0" stop-color="#842c1c"/><stop offset=".34" stop-color="#aa2e1f"/><stop offset=".78" stop-color="#d53123"/><stop offset="1" stop-color="#e63325"/></linearGradient><linearGradient id="linear-gradient-2" x1="110.13" y1="198.72" x2="110.13" y2="48.98" xlink:href="#linear-gradient"/><linearGradient id="linear-gradient-3" x1="205.34" y1="198.72" x2="205.34" y2="48.98" xlink:href="#linear-gradient"/><linearGradient id="linear-gradient-4" x1="242.9" x2="242.9" y2="48.98" xlink:href="#linear-gradient"/><linearGradient id="linear-gradient-5" x1="97.48" x2="97.48" y2="48.98" xlink:href="#linear-gradient"/><linearGradient id="linear-gradient-6" x1="477.61" y1="111.38" x2="331.11" y2="-35.13" gradientTransform="translate(-99.01 -193.59) rotate(45)" gradientUnits="userSpaceOnUse"><stop offset="0" stop-color="#b8b1a8"/><stop offset=".64" stop-color="#d6d3cf"/><stop offset="1" stop-color="#e3e2e0"/></linearGradient><linearGradient id="linear-gradient-7" x1="170.41" x2="170.41" y2="48.98" xlink:href="#linear-gradient"/><linearGradient id="linear-gradient-8" x1="485.01" y1="103.98" x2="338.5" y2="-42.52" xlink:href="#linear-gradient-6"/><linearGradient id="linear-gradient-9" x1="115.99" x2="115.99" y2="48.98" xlink:href="#linear-gradient"/><linearGradient id="linear-gradient-10" x1="446.53" y1="142.47" x2="300.02" y2="-4.04" xlink:href="#linear-gradient-6"/><linearGradient id="linear-gradient-11" x1="170.19" y1="198.72" x2="170.19" y2="48.98" xlink:href="#linear-gradient"/><linearGradient id="linear-gradient-12" x1="222.88" y1="171.9" x2="113.26" y2="62.29" gradientTransform="matrix(1, 0, 0, 1, 0, 0)" xlink:href="#linear-gradient-6"/></defs><rect class="cls-9" x="184.02" y="10.55" width="0" height="43.58" transform="translate(22.62 126.46) rotate(-40.22)"/><rect class="cls-9" x="164.35" y="210.8" width="31.66" height="0"/><polygon class="cls-13" points="190.4 198.72 204.99 181.45 190.4 198.72 190.4 198.72"/><polygon class="cls-1" points="137.9 53.62 82.36 119.3 126.16 171.09 82.36 119.3 137.9 53.62"/><polygon class="cls-12" points="212.59 66.13 198.09 48.98 198.09 48.98 212.59 66.13"/><polygon class="cls-15" points="290.16 48.98 203.33 48.98 260.6 116.71 262.79 119.3 260.6 121.88 195.63 198.72 290.16 198.72 290.16 48.98"/><polygon class="cls-8" points="77.12 119.3 79.3 116.71 136.58 48.98 50.68 48.98 50.68 198.72 144.27 198.72 79.3 121.88 77.12 119.3"/><polygon class="cls-3" points="169.95 222.72 149.62 198.72 149.51 198.72 169.95 222.89 170.4 198.72 170.4 198.72 169.95 222.72"/><polygon class="cls-10" points="170.4 198.72 170.42 197.62 170.4 198.72 170.4 198.72"/><polygon class="cls-16" points="170.4 198.72 170.42 197.62 170.4 198.72 170.4 198.72"/><polygon class="cls-11" points="149.62 198.72 82.36 119.3 126.16 171.09 149.51 198.72 149.62 198.72"/><polygon class="cls-6" points="149.62 198.72 82.36 119.3 126.16 171.09 149.51 198.72 149.62 198.72"/><polygon class="cls-4" points="105.15 119.3 170.42 197.62 235.22 119.3 176.75 48.98 163.21 48.98 105.15 119.3"/><polygon class="cls-18" points="176.75 48.98 169.95 40.8 163.21 48.98 105.15 119.3 170.42 197.62 235.22 119.3 176.75 48.98"/><path class="cls-5" d="M260.6,116.71l-57.27-67.74-30.32-35.86-3.05-3.61-3.05,3.61-30.32,35.86-57.28,67.74-2.18,2.58,2.18,2.58,64.97,76.84,22.63,26.76,3.05,3.61,3.05-3.61,22.63-26.76,64.97-76.84,2.18-2.58-2.18-2.58Zm-55.61,64.74l-14.6,17.26-20.44,24.18-20.44-24.18-23.36-27.62-43.8-51.8,55.54-65.68,3.92-4.64,28.14-33.28h0s28.14,33.28,28.14,33.28l14.5,17.15,44.95,53.17-52.56,62.16Z"/><rect class="cls-5" x="159.73" y="194.97" width="0" height="31.66"/><polygon class="cls-5" points="126.16 171.09 149.51 198.72 149.51 198.72 126.16 171.09"/><polygon class="cls-14" points="141.82 48.98 137.9 53.62 82.36 119.3 105.15 119.3 163.21 48.98 169.95 40.8 169.95 15.7 141.82 48.98"/><rect class="cls-14" x="134.1" y="32.34" width="43.58" height="0"/><polygon class="cls-14" points="141.82 48.98 137.9 53.62 141.82 48.98 141.82 48.98"/><polygon class="cls-7" points="212.59 66.13 198.09 48.98 169.95 15.7 169.95 40.8 176.75 48.98 235.22 119.3 257.55 119.3 212.59 66.13"/><polygon class="cls-7" points="257.55 119.3 212.59 66.13 257.55 119.3 257.55 119.3"/><polygon class="cls-2" points="105.15 119.3 82.36 119.3 149.62 198.72 169.95 222.72 170.4 198.72 170.42 197.62 105.15 119.3"/><polygon class="cls-17" points="235.22 119.3 170.42 197.62 170.4 198.72 169.95 222.89 169.95 222.89 190.4 198.72 204.99 181.45 257.55 119.3 235.22 119.3"/><polygon class="cls-17" points="204.99 181.45 257.55 119.3 257.55 119.3 204.99 181.45"/></svg>