<?xml version="1.0" encoding="UTF-8" standalone="no"?>
<!-- Created with Inkscape (http://www.inkscape.org/) -->

<svg
   xmlns:dc="http://purl.org/dc/elements/1.1/"
   xmlns:cc="http://creativecommons.org/ns#"
   xmlns:rdf="http://www.w3.org/1999/02/22-rdf-syntax-ns#"
   xmlns:svg="http://www.w3.org/2000/svg"
   xmlns="http://www.w3.org/2000/svg"
   xmlns:sodipodi="http://sodipodi.sourceforge.net/DTD/sodipodi-0.dtd"
   xmlns:inkscape="http://www.inkscape.org/namespaces/inkscape"
   width="280"
   height="280"
   viewBox="0 0 74.083336 74.08333"
   version="1.1"
   id="svg8"
   inkscape:version="0.92.3 (2405546, 2018-03-11)"
   sodipodi:docname="gear.svg"
   inkscape:export-filename="D:\dagor4\enlisted\prog\updater\gear.png"
   inkscape:export-xdpi="61.714287"
   inkscape:export-ydpi="61.714287">
  <defs
     id="defs2" />
  <sodipodi:namedview
     id="base"
     pagecolor="#ffffff"
     bordercolor="#666666"
     borderopacity="1.0"
     inkscape:pageopacity="0.0"
     inkscape:pageshadow="2"
     inkscape:zoom="0.98994949"
     inkscape:cx="-19.257062"
     inkscape:cy="54.12222"
     inkscape:document-units="mm"
     inkscape:current-layer="layer1"
     showgrid="false"
     inkscape:window-width="1920"
     inkscape:window-height="1147"
     inkscape:window-x="-8"
     inkscape:window-y="-8"
     inkscape:window-maximized="1"
     fit-margin-top="0"
     fit-margin-left="0"
     fit-margin-right="0"
     fit-margin-bottom="0"
     units="px" />
  <metadata
     id="metadata5">
    <rdf:RDF>
      <cc:Work
         rdf:about="">
        <dc:format>image/svg+xml</dc:format>
        <dc:type
           rdf:resource="http://purl.org/dc/dcmitype/StillImage" />
        <dc:title></dc:title>
      </cc:Work>
    </rdf:RDF>
  </metadata>
  <g
     inkscape:label="Layer 1"
     inkscape:groupmode="layer"
     id="layer1"
     transform="translate(-69.598447,-109.81852)">
    <path
       style="opacity:1;fill:#ffffff;fill-opacity:1;stroke:#ececec;stroke-width:0.5;stroke-miterlimit:4;stroke-dasharray:none"
       d="m 106.63986,111.70833 a 35.151787,35.151787 0 0 0 -3.3967,0.19895 l -0.34054,8.85528 a 26.390939,26.390939 0 0 0 -6.08232,1.61488 l -4.709789,-7.47809 a 35.151787,35.151787 0 0 0 -5.883878,3.39772 l 4.118094,7.81193 a 26.390939,26.390939 0 0 0 -4.434872,4.46691 l -7.846549,-4.13618 a 35.151787,35.151787 0 0 0 -3.391525,5.88594 l 7.49205,4.71858 a 26.390939,26.390939 0 0 0 -1.615921,6.07818 l -8.889897,0.3421 a 35.151787,35.151787 0 0 0 -0.1695,3.39566 35.151787,35.151787 0 0 0 0.198437,3.39669 l 8.855274,0.34055 a 26.390939,26.390939 0 0 0 1.615405,6.08231 l -7.478614,4.71031 a 35.151787,35.151787 0 0 0 3.397726,5.88388 l 7.812445,-4.1181 a 26.390939,26.390939 0 0 0 4.46691,4.43488 l -4.1367,7.84654 a 35.151787,35.151787 0 0 0 5.885947,3.39101 l 4.718574,-7.49205 a 26.390939,26.390939 0 0 0 6.078183,1.61644 l 0.3421,8.88938 a 35.151787,35.151787 0 0 0 3.39566,0.17002 35.151787,35.151787 0 0 0 3.39669,-0.19844 l 0.34106,-8.85527 a 26.390939,26.390939 0 0 0 6.08232,-1.61592 l 4.7103,7.47861 a 35.151787,35.151787 0 0 0 5.88337,-3.39773 l -4.1181,-7.81193 a 26.390939,26.390939 0 0 0 4.43487,-4.46691 l 7.84655,4.1367 a 35.151787,35.151787 0 0 0 3.39153,-5.88594 l -7.49257,-4.71858 a 26.390939,26.390939 0 0 0 1.61644,-6.0787 l 8.88938,-0.34209 a 35.151787,35.151787 0 0 0 0.17001,-3.39566 35.151787,35.151787 0 0 0 -0.19843,-3.39669 l -8.85528,-0.34055 a 26.390939,26.390939 0 0 0 -1.61592,-6.08232 l 7.47861,-4.7103 a 35.151787,35.151787 0 0 0 -3.3972,-5.88337 l -7.81193,4.1181 a 26.390939,26.390939 0 0 0 -4.46743,-4.43487 l 4.1367,-7.84707 a 35.151787,35.151787 0 0 0 -5.88594,-3.39101 l -4.71858,7.49205 a 26.390939,26.390939 0 0 0 -6.0787,-1.61644 l -0.3421,-8.88938 a 35.151787,35.151787 0 0 0 -3.39565,-0.17001 z m 0,23.39185 a 11.759859,11.759859 0 0 1 11.76,11.76001 11.759859,11.759859 0 0 1 -11.76,11.76 11.759859,11.759859 0 0 1 -11.759493,-11.76 11.759859,11.759859 0 0 1 11.759493,-11.76001 z"
       id="path815"
       inkscape:connector-curvature="0" />
  </g>
</svg>
