<?xml version="1.0" encoding="UTF-8"?><svg id="Layer_1" xmlns="http://www.w3.org/2000/svg" viewBox="0 0 31.42 24.33"><defs><style>.cls-1{fill:#fff;}</style></defs><path class="cls-1" d="m11.79,15.02l6.93-4.53-.67-1.18,11.95-7.22-.52-.77-12.64,7.33-.64-1.24-4.58,2.9-.4-.65-3.77,2.19.76,1.89-2.96,2.01,1.16,2.78,1.74-1.13v2.26l2.96-.12v1.11l-10.09,1.14v1.54h25.58v-1.54l-12.18-1.38v-1.01l3.54-.15v-2.07h-.64v-1.78l-5.51-.38Zm6.51,1.16h.64v3.74l8.64.98v3.43H0v-3.43l7.13-.81v-.84l-.19.13-1,.66-1.63-3.89-.32-.75,2.97-2.02-.78-1.95,5.36-3.11.38.62,4.66-2.94.5.97.16.3L29.78,0l1.63,2.41-12.02,7.26.65,1.15-5.22,3.41,3.47.24v1.71Z"/></svg>