<?xml version="1.0" encoding="UTF-8"?><svg id="Layer_1" xmlns="http://www.w3.org/2000/svg" viewBox="0 0 46.11 58.13"><defs><style>.cls-1{fill:#fff;fill-rule:evenodd;}</style></defs><path class="cls-1" d="m9.63,57.91l16-15.02,3.77,2.79c.76.43,1.66-.1,2.56-.83l.3.29-4.88,5.06c.23.52.85.88,1.57.14,1.29-1.44,2.47-2.97,3.55-4.57l.12.12c.1.1.27.1.37,0,0,0,0,0,0,0l.32-.3.12.12c.05.06.15.06.2,0,0,0,0,0,0,0l.02-.02.02-.02c.06-.06.06-.15,0-.2,0,0,0,0,0,0l-.12-.12.3-.32c.1-.1.1-.27,0-.37,0,0,0,0,0,0l-.12-.12c1.6-1.07,3.13-2.26,4.57-3.55.74-.72.38-1.34-.14-1.57l-5.06,4.88-.29-.3c.73-.91,1.27-1.8.83-2.56l-2.79-3.77,15.02-16c1.37-1.36-3.93-5.21-5.11-5.17-.07.03-.14.07-.2.11l-1.31.94-16.41,12.02h0c-3.41-2.74-6.99-5.25-10.72-7.53l3.66-7.12.2-.38c-.05-.14-.11-.27-.18-.4-.27-.45-.65-.83-1.09-1.12-.51-.37-1.05-.7-1.61-.99l-5.7,4.27.3,2.61-1.68-1.45-.29.32-.32.29,1.45,1.68-2.61-.3L0,25.12c.29.56.62,1.1.99,1.61.28.45.67.82,1.12,1.09.13.07.26.13.4.18l.38-.2,7.12-3.66c2.28,3.73,4.79,7.31,7.53,10.72h0s-12.02,16.42-12.02,16.42l-.94,1.31c-.04.06-.08.13-.11.2-.05,1.18,3.81,6.48,5.17,5.11Z"/><polygon class="cls-1" points="25.22 25.38 15.31 20.15 22.67 19.01 16.69 8.36 25.44 11.25 27.2 0 32.94 12.96 44 5.98 40.36 15.6 33.39 20.41 35.42 14.67 32.09 19.12 29.45 14.97 29.34 20.1 24.56 21.62 29.11 22.5 25.22 25.38"/></svg>