<?xml version="1.0" encoding="UTF-8"?><svg id="Layer_1" xmlns="http://www.w3.org/2000/svg" viewBox="0 0 68.13 50.34"><defs><style>.cls-1,.cls-2{fill:#fff;}.cls-2{fill-rule:evenodd;}</style></defs><polygon class="cls-2" points="18.42 31.3 6.82 32.93 12.99 26.85 .52 26.15 10.59 21.22 0 10.02 18.55 14.13 24.22 0 27.87 11.44 35.47 1.75 35.53 15.48 39.93 13.82 35.76 19.78 31.28 21.36 31.11 16.72 27.2 19.44 24.4 16.21 24.06 20.85 18.21 18.96 22.51 23.08 18.05 23.08 21.5 25.45 18.39 27.2 21.34 28.22 18.42 31.3"/><polygon class="cls-1" points="37.27 42.71 44.27 42.42 44.27 38.41 43.01 38.41 43.01 34.96 32.11 34.22 45.82 25.44 44.5 23.15 68.13 9.15 67.1 7.66 42.09 21.89 40.83 19.48 31.76 25.1 30.96 23.84 23.5 28.08 25 31.75 19.14 35.65 21.44 41.04 24.88 38.84 24.88 43.22 30.73 42.98 30.73 45.14 10.77 47.35 10.77 50.34 61.36 50.34 61.36 47.35 37.27 44.68 37.27 42.71"/></svg>