<svg xmlns="http://www.w3.org/2000/svg" width="48" height="58" viewBox="0 0 48 58">
  <defs>
    <style>
      .cls-1 {
        fill: #fff;
        fill-rule: evenodd;
      }
    </style>
  </defs>
  <path class="cls-1" d="M45.686,20.089s-6.162,3.705-6.162,10.59S47.1,41.6,47.1,41.6,41.248,56.778,34.7,57c-6.042.2-5.107-2.151-9.71-2.223s-4.887,1.99-9.255,2.414C11.568,57.6,1.157,48.226.437,32.233s11.826-18.4,13.48-18.407c4.747-.024,7.361,2.486,9.856,2.51,3.5,0.034,4.407-2.526,10.308-2.63A13.094,13.094,0,0,1,45.686,20.089ZM23.124,13.945a11.352,11.352,0,0,0,9.255-4.16A11.018,11.018,0,0,0,35.016.175,12.766,12.766,0,0,0,25.81,5,11.948,11.948,0,0,0,23.124,13.945Z"/>
</svg>
