<?xml version="1.0" encoding="UTF-8"?><svg id="Layer_1" xmlns="http://www.w3.org/2000/svg" viewBox="0 0 30 16.03"><defs><style>.cls-1{fill:#fff;}</style></defs><path class="cls-1" d="m0,6.19l4.8-2.2.12-.06.14-.02,1.81-.25V1.24l2.48-1.24h8.24v.92s0,.54,0,.54h5.38l.05,2.69h-.45l.7,1.4,6.73,3.14-4.29,2.22c.02.14.03.28.04.42v.18c0,2.37-1.92,4.3-4.29,4.3-2.16,0-3.95-1.59-4.25-3.67h-7.19c-.3,2.08-2.09,3.67-4.25,3.67-2.32,0-4.21-1.84-4.29-4.15l-.64-.06-.84-.08v-5.34Zm7.79-1.72l-2.6.35L.92,6.78v3.91l1.55.14c-.05.22-.07.45-.07.69,0,1.86,1.51,3.37,3.37,3.37,1.86,0,3.37-1.51,3.37-3.37,0-.1,0-.2-.01-.3h8.97c0,.1-.01.2-.01.3,0,1.86,1.51,3.37,3.37,3.37,1.86,0,3.37-1.51,3.37-3.37,0-.38-.06-.75-.18-1.09l3.26-1.69-5.33-2.49-.89-1.78h-5.03v-1.24h5.42l-.02-.85h-5.4V.92h-7.11l-1.78.89v2.66Z"/></svg>