<?xml version="1.0" encoding="UTF-8"?><svg id="Layer_1" xmlns="http://www.w3.org/2000/svg" viewBox="0 0 30 16.03"><defs><style>.cls-1{fill:#fff;}</style></defs><path class="cls-1" d="m16.67,2.38h5.4l.02.85h-5.42v1.24h5.03l.89,1.78,5.33,2.49-3.26,1.69c.12.34.18.71.18,1.09,0,1.86-1.51,3.37-3.37,3.37-1.86,0-3.37-1.51-3.37-3.37,0-.1,0-.2.01-.3h-8.97c0,.1.01.2.01.3,0,1.86-1.51,3.37-3.37,3.37-1.86,0-3.37-1.51-3.37-3.37,0-.24.02-.47.07-.69l-1.55-.14v-3.91l4.26-1.95,2.6-.35V1.81l1.78-.89h7.1v1.46Z"/></svg>