<svg xmlns="http://www.w3.org/2000/svg" width="113" height="113" viewBox="0 0 113 113">
  <defs>
    <style>
      .cls-1 {
        fill: #fff;
        fill-rule: evenodd;
      }
    </style>
  </defs>
  <path class="cls-1" d="M47.249,75.995L36.661,65.464a2.474,2.474,0,0,0,.529-0.318Q44.8,57.592,52.408,50.034a2.043,2.043,0,0,1,.883-0.487c1.983-.524,3.977-1.005,5.96-1.527a1.855,1.855,0,0,0,.781-0.447c1.029-.995,2.032-2.015,3.029-3.011l5.259,5.307c-0.51.49-1.063,1.111-1.706,1.62a6.107,6.107,0,0,0-2.238,3.9c-0.264,1.439-.684,2.849-1.059,4.266a1.585,1.585,0,0,1-.377.691q-7.7,7.713-15.416,15.406C47.431,75.846,47.326,75.928,47.249,75.995ZM45.715,31.447l4.267,4.218c-0.92.9-1.844,1.836-2.8,2.739a3.288,3.288,0,0,0-.879,1.394c-0.589,1.755-1.216,3.5-1.842,5.241a1.74,1.74,0,0,1-.372.635Q36.3,53.459,28.5,61.229a0.477,0.477,0,0,1-.08.065L20.03,52.938c0.047-.052.164-0.194,0.295-0.325q7.639-7.608,15.287-15.207a2.31,2.31,0,0,1,.821-0.5c1.782-.646,3.579-1.251,5.358-1.905a2.984,2.984,0,0,0,1.008-.636C43.8,33.4,44.772,32.4,45.715,31.447Zm31.41,31.321,4.223,4.162c-0.988.984-2,1.967-2.977,2.978a2.678,2.678,0,0,0-.578.906c-0.674,1.828-1.311,3.668-1.974,5.5a1.754,1.754,0,0,1-.373.636Q67.678,84.715,59.9,92.464a1.262,1.262,0,0,1-.135.11l-8.347-8.313c0.089-.094.226-0.247,0.372-0.392q7.575-7.546,15.159-15.084a2.608,2.608,0,0,1,.912-0.57c1.815-.668,3.644-1.3,5.46-1.962a2.392,2.392,0,0,0,.816-0.513C75.148,64.759,76.138,63.753,77.126,62.768Zm7.16-35.755,1.727,1.742c-0.8,1.095-1.614,2.216-2.434,3.334q-3.244,4.424-6.494,8.844a7,7,0,0,1-.676.794q-2.566,2.572-5.145,5.131c-0.136.135-.278,0.263-0.375,0.354l-5.2-5.18c1-.971,2.127-1.954,3.119-3.058,2.54-2.827,5.721-4.852,8.741-7.079,2.074-1.529,4.165-3.034,6.249-4.549C83.957,27.233,84.117,27.129,84.286,27.013ZM48.355,28.89c1.239-1.206,2.587-2.406,3.8-3.728,2.12-2.306,4.755-3.954,7.23-5.808,1.519-1.137,3.061-2.243,4.594-3.361,0.169-.123.345-0.238,0.533-0.368l1.35,1.448L61.54,22.958c-0.275.374-.57,0.735-0.821,1.124-2.214,3.439-5.322,6.069-8.151,8.951-0.025.026-.068,0.035-0.046,0.024Zm47.5,18.049,1.4,1.409c-0.866,1.18-1.756,2.393-2.647,3.6-1.089,1.481-2.233,2.925-3.255,4.451a46.263,46.263,0,0,1-5.677,6.2c-0.592.61-1.174,1.229-1.718,1.8l-4.2-4.183c1.025-1.006,2.159-2.008,3.164-3.125,2.66-2.955,6.019-5.037,9.157-7.4C93.327,48.758,94.606,47.849,95.854,46.939ZM41.873,81.132L31.649,70.945l3.1-3.073L45.008,78.079ZM26.044,63.484l-2.97,2.963-8.2-8.136,3.032-2.956ZM46.287,89.559l2.963-2.952,8.173,8.114-3.042,2.9Z"/>
</svg>
