<?xml version="1.0" encoding="UTF-8"?><svg id="Layer_1" xmlns="http://www.w3.org/2000/svg" viewBox="0 0 30 15.27"><defs><style>.cls-1{fill:#fff;}</style></defs><path class="cls-1" d="m26.48,5.09l-.45.6h-5.74l-.91-1.21h-3.02L11.53.86l-1.06.75,2.72,3.47-3.62.6v1.81l3.17.76-.6,1.36-7.25,2.11-1.96-.6H.96l.45,2.87,10.72-1.81,1.82-1.18s0,.08,0,.12c0,1.83,1.49,3.32,3.32,3.32,1.83,0,3.32-1.49,3.32-3.32,0-1.22-.66-2.29-1.65-2.87h.89l.45-1.21h6.19l2.42.45v-2.42h-2.42Zm3.24,3.41l-3.31-.62h-5.55l-.25.68-.03.08c.53.69.84,1.56.84,2.5,0,2.22-1.74,4.03-3.93,4.14h-.21c-1.85,0-3.41-1.2-3.95-2.87l-.88.57-.17.03L.73,14.94l-.73-4.64h3.05l.12.04,1.73.53,6.64-1.94.05-.11-2.84-.68v-3.16l2.95-.49-2.39-3.06L11.54-.16l5.09,3.82h3.16l.91,1.21h4.92l.45-.6h3.65v4.23Z"/></svg>