<?xml version="1.0" encoding="UTF-8"?><svg id="Layer_1" xmlns="http://www.w3.org/2000/svg" viewBox="0 0 24 24"><defs><style>.cls-1{fill:#fff;}</style></defs><path class="cls-1" d="m14.28,3.51h0s.02,0,.03.01c-.01,0-.02,0-.03-.01Z"/><path class="cls-1" d="m7.61,4.41s0,0,0,0c0,0,0,0,0,0Z"/><path class="cls-1" d="m17.31,5.04s0,0,0,0c0,0,0,0,0,0Z"/><path class="cls-1" d="m18.87,6.63s.02.02.03.04c0-.01-.02-.02-.03-.04Z"/><polygon class="cls-1" points="20.35 9.72 20.35 9.71 20.35 9.72 20.35 9.72"/><path class="cls-1" d="m16.35,4.39s.05.03.07.04c-.02-.01-.05-.03-.07-.04Z"/><path class="cls-1" d="m12,3.2c-.24,0-.47.01-.7.04.23-.02.46-.04.7-.04h0Z"/><path class="cls-1" d="m13.28,3.29c-.07-.01-.14-.01-.21-.02.07,0,.14.02.21.03h0Z"/><path class="cls-1" d="m12.44,3.21h-.44c.23-.01.46,0,.68.02-.08,0-.16-.02-.24-.02Z"/><path class="cls-1" d="m18.2,12.3c0,.1-.02.19-.03.29.01-.09.02-.19.03-.29Z"/><path class="cls-1" d="m5.95,13.23c-.08-.33-.12-.66-.15-1,.02.34.07.68.15,1Z"/><path class="cls-1" d="m17.59,9.11c.09.2.18.4.25.6-.07-.21-.16-.41-.25-.6Z"/><path class="cls-1" d="m17.59,9.1c-.68-1.39-1.86-2.49-3.31-3.06h0c1.45.57,2.63,1.67,3.31,3.06Z"/><path class="cls-1" d="m13.28,5.73c-.28-.06-.57-.09-.87-.11.29.02.58.06.87.12h0Z"/><path class="cls-1" d="m5.11,6.65s0,0,0,0c0,0,0,0,0,0Z"/><path class="cls-1" d="m15.36,17.05c-.33.21-.69.4-1.06.55.37-.15.73-.33,1.06-.55Z"/><path class="cls-1" d="m18.12,10.74c.06.35.1.71.1,1.08,0-.37-.04-.73-.1-1.08Z"/><path class="cls-1" d="m18.12,12.88c-.02.11-.04.22-.06.32.02-.11.04-.21.06-.32Z"/><path class="cls-1" d="m17.22,18.66s-.03.02-.04.03c.01-.01.03-.02.04-.03Z"/><path class="cls-1" d="m19.36,16.27s0,0,0,.01c0,0,0,0,0-.01Z"/><path class="cls-1" d="m12.7,20.4c-.23.02-.46.04-.7.04.24,0,.47-.01.7-.04Z"/><path class="cls-1" d="m14.28,20.12s.01,0,.02,0c0,0-.01,0-.02,0h0Z"/><path class="cls-1" d="m13.28,20.33h0s-.01,0-.02,0c0,0,.01,0,.02,0Z"/><path class="cls-1" d="m16.31,19.27s0,0,0,0c0,0,0,0,0,0Z"/><path class="cls-1" d="m2.45,10.72h-1.45v2.57h1.51c-.07-.48-.12-.97-.12-1.47,0-.37.03-.74.07-1.1Z"/><path class="cls-1" d="m13.28,2.3v-1.3h-2.57v1.3c.42-.06.85-.1,1.28-.1s.86.04,1.28.1Z"/><path class="cls-1" d="m20.48,13.28s0-.04,0-.06c0,.02,0,.04,0,.06h0Z"/><path class="cls-1" d="m10.71,21.34v1.66h2.57v-1.66c-.42.06-.85.1-1.28.1s-.86-.04-1.28-.1Z"/><polygon class="cls-1" points="3.38 11.82 3.38 11.82 3.38 11.82 3.38 11.82"/><path class="cls-1" d="m3.39,12.26c0,.06.02.11.02.17-.01-.2-.03-.41-.03-.62v.44Z"/><path class="cls-1" d="m11.56,20.42h.44s0,.01,0,.01c-.22,0-.44-.02-.66-.03.07,0,.14.02.21.02Z"/><path class="cls-1" d="m3.51,13.28h0s0-.05-.01-.07c0,.02,0,.05,0,.07Z"/><polygon class="cls-1" points="3.65 9.72 3.65 9.72 3.65 9.72 3.65 9.72"/><path class="cls-1" d="m4.65,16.3s-.02-.03-.03-.04c0,.01.02.03.03.04Z"/><path class="cls-1" d="m6.82,18.69s-.03-.02-.05-.03c.02.01.03.02.05.03Z"/><path class="cls-1" d="m9.71,20.12h0s0,0-.01,0c0,0,0,0,.01,0Z"/><path class="cls-1" d="m10.71,20.34c.06,0,.12.01.18.02-.06,0-.12-.02-.18-.03h0Z"/><path class="cls-1" d="m7.7,19.27s0,0,0,0c0,0,0,0,0,0Z"/><path class="cls-1" d="m12,5.6h0s0,0,0,0c-.44,0-.87.05-1.28.13h0c.41-.09.84-.13,1.28-.13Z"/><path class="cls-1" d="m14.28,7.14v2.58h2.49c-.5-1.13-1.39-2.03-2.49-2.58Z"/><path class="cls-1" d="m7.23,9.72h2.49v-2.57c-1.1.54-1.99,1.45-2.49,2.57Z"/><path class="cls-1" d="m9.71,16.49v-2.21h-2.29c.52.96,1.31,1.73,2.29,2.21Z"/><path class="cls-1" d="m9.07,10.72h-2.17c-.08.35-.12.72-.12,1.1,0,.51.1,1,.23,1.47h2.05v-2.57Z"/><path class="cls-1" d="m9.71,6.03h0c-1.66.66-2.96,2-3.57,3.68h0c.6-1.68,1.91-3.03,3.57-3.68Z"/><path class="cls-1" d="m14.93,10.72v2.57h2.05c.14-.47.23-.95.23-1.47,0-.38-.04-.74-.12-1.1h-2.17Z"/><path class="cls-1" d="m14.28,16.49c.98-.48,1.78-1.25,2.29-2.21h-2.29v2.21Z"/><path class="cls-1" d="m15.38,17.04c1.02-.66,1.84-1.62,2.33-2.75h0c-.49,1.13-1.3,2.09-2.33,2.75Z"/><rect class="cls-1" x="10.07" y="10.07" width="3.87" height="3.87"/><path class="cls-1" d="m13.28,6.77c-.41-.1-.84-.18-1.28-.18-.45,0-.87.07-1.28.18v2.29h2.57v-2.29Z"/><path class="cls-1" d="m10.71,16.86c.41.11.84.18,1.28.18s.87-.07,1.28-.18v-1.93h-2.57v1.93Z"/><path class="cls-1" d="m6.3,14.28h0c.65,1.51,1.89,2.71,3.43,3.32v-.02c-1.53-.61-2.77-1.79-3.42-3.3Z"/><path class="cls-1" d="m21.62,11.82c0,.5-.05.99-.12,1.47h1.51v-2.57h-1.45c.04.36.07.73.07,1.1Z"/><path class="cls-1" d="m5.78,11.77s0,.03,0,.04c0,0,0,0,0,0h0s0-.03,0-.05Z"/><path class="cls-1" d="m5.88,10.72c-.03.18-.06.36-.07.54.02-.18.04-.36.07-.54h0Z"/><path class="cls-1" d="m10.71,17.9c.27.06.54.09.82.11-.28-.02-.55-.07-.82-.12h0Z"/><path class="cls-1" d="m20.62,11.82c0,.2-.02.4-.03.6,0-.05.02-.11.02-.16v-.44s.01,0,.01,0c0,0,0,0,0,0Z"/><path class="cls-1" d="m12,18.04h0s0,0,0,0c.44,0,.87-.05,1.28-.13h0c-.41.09-.84.13-1.28.13Z"/><path class="cls-1" d="m21.38,9.72c-.79-3.56-3.56-6.37-7.1-7.23V0h-4.57v2.48c-3.53.86-6.3,3.67-7.1,7.23H0v4.57h2.71c.9,3.39,3.59,6.03,7,6.87v2.85h4.57v-2.85c3.41-.83,6.11-3.48,7-6.87h2.72v-4.57h-2.62ZM1,13.28v-2.57h1.45c-.04.36-.07.73-.07,1.1,0,.5.05.99.12,1.47h-1.51ZM10.71,1h2.57v1.3c-.42-.06-.85-.1-1.28-.1s-.86.04-1.28.1v-1.3Zm2.57,22h-2.57v-1.66c.42.06.85.1,1.28.1s.86-.04,1.28-.1v1.66Zm7.32-10.74c0,.05-.01.11-.02.16-.02.27-.05.54-.09.81,0,.02,0,.04,0,.06h0c-.19,1.08-.57,2.09-1.12,2.99,0,0,0,0,0,.01-.56.92-1.28,1.72-2.14,2.37-.01.01-.03.02-.04.03-.28.21-.57.4-.87.58,0,0,0,0,0,0-.62.36-1.29.64-2,.84,0,0-.01,0-.02,0h0c-.33.09-.66.16-1,.21h0s-.01,0-.02,0c-.19.03-.37.05-.56.07-.23.02-.46.04-.7.04,0,0,0,0,0,0h-.44c-.07-.02-.14-.03-.21-.03-.15-.01-.3-.03-.45-.05-.06,0-.12,0-.18-.02h0c-.34-.06-.67-.13-1-.22h0s0,0-.01,0c-.71-.2-1.38-.48-2-.84,0,0,0,0,0,0-.3-.18-.6-.37-.87-.58-.02-.01-.03-.02-.05-.03-.85-.65-1.57-1.45-2.12-2.36,0-.01-.02-.03-.03-.04-.54-.9-.92-1.9-1.11-2.98h0s0-.05,0-.07c-.04-.26-.07-.51-.09-.77,0-.06-.02-.11-.02-.17v-.44s-.01,0-.01,0h0s0,0,0,0c0-.73.1-1.43.27-2.1h0s0,0,0,0c.28-1.13.78-2.16,1.46-3.06,0,0,0,0,0,0,.68-.9,1.52-1.66,2.49-2.24,0,0,0,0,0,0,.93-.55,1.98-.93,3.1-1.1h0c.19-.03.39-.05.59-.07.23-.02.46-.04.7-.04h.44c.08.01.16.03.24.03.13.01.26.02.39.04.07,0,.14.01.21.02h0c.34.06.67.13,1,.22h0s.02,0,.03,0c.72.2,1.4.49,2.04.86.02.01.05.03.07.04.31.18.6.39.88.61,0,0,0,0,0,0,.58.46,1.11.99,1.55,1.59,0,.01.02.02.03.04.67.9,1.17,1.92,1.45,3.04,0,0,0,0,0,0h0c.17.67.27,1.37.27,2.09,0,0,0,0,0,0v.44Zm2.38,1.02h-1.51c.07-.48.12-.97.12-1.47,0-.37-.03-.74-.07-1.1h1.45v2.57Z"/><path class="cls-1" d="m17.59,9.11s0,0,0-.01c-.68-1.39-1.86-2.49-3.31-3.06h0c-.32-.13-.65-.23-1-.3h0c-.28-.05-.57-.09-.87-.11-.14,0-.27-.02-.41-.02h0c-.44,0-.87.05-1.28.13h0c-.35.07-.68.18-1,.3h0c-1.66.66-2.96,2-3.57,3.68h0c-.12.32-.21.66-.27,1h0c-.03.18-.06.36-.07.54-.02.17-.03.34-.03.52,0,.01,0,.03,0,.04h0c0,.14.01.27.02.41.02.34.07.68.15,1,.08.36.2.72.34,1.06h0c.65,1.51,1.89,2.69,3.42,3.3v.02c.32.13.65.23,1,.3h0c.27.04.54.09.82.11.15.01.31.02.47.02h0c.44,0,.87-.05,1.28-.14h0c.35-.07.69-.18,1.02-.31.37-.15.73-.33,1.06-.55,0,0,.01,0,.02-.01,1.02-.66,1.84-1.62,2.33-2.75h0c.15-.35.27-.71.35-1.08.02-.11.04-.21.06-.32.02-.1.03-.19.04-.29.01-.09.02-.19.03-.29.01-.16.02-.32.02-.49h0s0,0,0,0c0-.37-.04-.73-.1-1.08-.06-.35-.15-.7-.27-1.03-.07-.21-.16-.41-.25-.6Zm-10.82,2.71c0-.38.04-.74.12-1.1h2.17v2.57h-2.05c-.14-.47-.23-.95-.23-1.47Zm2.94,4.67c-.98-.48-1.77-1.25-2.29-2.21h2.29v2.21Zm0-6.77h-2.49c.5-1.13,1.39-2.03,2.49-2.57v2.57Zm4.57-2.58c1.1.54,2,1.45,2.49,2.58h-2.49v-2.58Zm-3.57-.37c.41-.11.84-.18,1.28-.18.45,0,.87.07,1.28.18v2.29h-2.57v-2.29Zm2.57,10.09c-.41.1-.84.18-1.28.18s-.87-.07-1.28-.18v-1.93h2.57v1.93Zm.65-2.93h-3.87v-3.87h3.87v3.87Zm.35,2.56v-2.21h2.29c-.52.96-1.31,1.73-2.29,2.21Zm2.7-3.21h-2.05v-2.57h2.17c.08.35.12.72.12,1.1,0,.51-.1,1-.23,1.47Z"/><path class="cls-1" d="m4.65,16.3c.56.91,1.28,1.71,2.12,2.36-.85-.65-1.57-1.45-2.12-2.36Z"/><path class="cls-1" d="m9.7,20.11c-.71-.2-1.38-.48-2-.84.62.36,1.29.64,2,.84Z"/><path class="cls-1" d="m7.7,19.27c-.3-.18-.6-.37-.87-.58.28.21.57.41.87.58Z"/><path class="cls-1" d="m6.29,14.28c-.15-.34-.26-.69-.34-1.06,0,.02,0,.04,0,.06h-2.44c.18,1.07.57,2.08,1.11,2.98-.37-.61-.67-1.27-.88-1.98h2.54Z"/><path class="cls-1" d="m17.18,18.69c-.28.21-.57.4-.87.58.3-.18.59-.37.87-.58Z"/><path class="cls-1" d="m18.06,13.2c-.09.37-.2.74-.35,1.08h2.54c-.21.71-.51,1.37-.88,1.99.55-.9.93-1.91,1.12-2.99h-2.44s0-.05.02-.08Z"/><path class="cls-1" d="m20.59,12.42c-.02.27-.05.54-.09.81.04-.27.08-.53.09-.81Z"/><path class="cls-1" d="m13.26,20.33c-.19.03-.37.05-.56.07.19-.02.38-.04.56-.07Z"/><path class="cls-1" d="m17.22,18.66c.85-.65,1.58-1.46,2.14-2.37-.56.92-1.28,1.72-2.14,2.37Z"/><path class="cls-1" d="m14.3,17.59c-.33.13-.66.24-1.02.31v2.42c.34-.05.67-.12,1-.21v-2.52s.01,0,.02,0Z"/><polygon class="cls-1" points="12 20.43 12 20.43 12 20.43 12 20.43"/><path class="cls-1" d="m11.34,20.4c-.15-.01-.3-.03-.45-.05.15.02.3.03.45.05Z"/><path class="cls-1" d="m5.88,10.72c.06-.34.15-.68.27-1h-2.5c-.17.67-.27,1.37-.27,2.1,0-.37.03-.74.08-1.1h2.42Z"/><path class="cls-1" d="m9.71,17.6v2.52c.33.09.66.16,1,.21v-2.42c-.35-.07-.68-.18-1-.3Z"/><path class="cls-1" d="m16.3,19.28c-.62.36-1.29.64-2,.84.71-.2,1.37-.48,2-.84Z"/><path class="cls-1" d="m16.42,4.43c.31.18.6.39.88.61-.28-.22-.58-.42-.88-.61Z"/><path class="cls-1" d="m18.17,12.59c-.01.1-.03.19-.04.29.02-.1.03-.19.04-.29Z"/><path class="cls-1" d="m15.38,17.04s-.01,0-.02.01c0,0,.01,0,.02-.01Z"/><polygon class="cls-1" points="18.22 11.82 18.22 11.82 18.22 11.82 18.22 11.82"/><path class="cls-1" d="m18.9,6.67c.67.9,1.17,1.92,1.45,3.04-.28-1.12-.78-2.15-1.45-3.04Z"/><path class="cls-1" d="m18.21,12.14v-.32c0,.16,0,.33-.02.49,0-.06.01-.11.02-.17Z"/><path class="cls-1" d="m3.51,13.21c-.04-.25-.07-.51-.09-.77.02.26.05.52.09.77Z"/><path class="cls-1" d="m12.32,5.6h-.32c.14,0,.28,0,.41.01-.03,0-.06-.01-.1-.01Z"/><path class="cls-1" d="m11.68,18.03h.32c-.16,0-.31,0-.47-.02.05,0,.1.01.15.02Z"/><path class="cls-1" d="m5.79,12.14s.01.06.01.09c0-.13-.02-.27-.02-.4v.32Z"/><path class="cls-1" d="m5.78,11.77c0-.18.01-.35.03-.52-.02.17-.02.34-.03.52Z"/><path class="cls-1" d="m17.59,9.1s0,0,0,.01c0,0,0,0,0-.01Z"/><path class="cls-1" d="m14.28,6.03v-2.52c-.33-.09-.66-.16-1-.21v2.42c.35.07.68.18,1,.3Z"/><path class="cls-1" d="m9.71,6.03c.32-.13.65-.23,1-.3v-2.42c-1.12.17-2.16.55-3.1,1.1.65-.38,1.35-.69,2.1-.89v2.52Z"/><path class="cls-1" d="m3.65,9.72c.28-1.13.79-2.16,1.46-3.06-.68.9-1.18,1.94-1.46,3.06Z"/><path class="cls-1" d="m7.61,4.41c-.97.58-1.82,1.34-2.49,2.24.68-.9,1.52-1.66,2.49-2.24Z"/><path class="cls-1" d="m18.87,6.63c-.45-.59-.97-1.13-1.55-1.59.58.46,1.11.99,1.55,1.59Z"/><path class="cls-1" d="m12.68,3.23c.13.01.26.02.39.04-.13-.02-.26-.03-.39-.04Z"/><path class="cls-1" d="m17.85,9.71c.12.33.21.67.27,1.03,0,0,0-.01,0-.02h2.42c.05.36.08.72.08,1.09,0-.72-.1-1.42-.27-2.09h-2.5s0,0,0,0Z"/><path class="cls-1" d="m14.32,3.52c.72.2,1.4.49,2.04.86-.63-.37-1.31-.66-2.04-.86Z"/><path class="cls-1" d="m10.71,3.31c.19-.03.39-.05.59-.07-.2.02-.39.04-.59.07Z"/></svg>