<svg xmlns="http://www.w3.org/2000/svg" width="24" height="24" style="isolation:isolate"><path fill="#FFF" d="M10.715 14.93h2.57V23h-2.57v-8.07ZM10.715 1h2.57v8.07h-2.57V1ZM14.935 13.28v-2.57h8.07v2.57h-8.07ZM.995 13.28v-2.57h8.07v2.57H.995ZM17.705 14.28a6.247 6.247 0 0 1-2.33 2.75s-.01 0-.02.01c-.33.21-.69.4-1.06.55h-.02v2.52h.02c.71-.2 1.38-.48 2-.84.3-.18.59-.37.87-.58.01-.01.03-.02.04-.03a8.8 8.8 0 0 0 2.14-2.37v-.01c.37-.62.67-1.28.88-1.99h-2.54l.02-.01ZM17.585 9.1v.01c.09.2.18.4.25.6h2.5a8.468 8.468 0 0 0-1.45-3.04c0-.01-.02-.02-.03-.04-.45-.59-.97-1.13-1.55-1.59-.28-.22-.58-.42-.88-.61-.02-.01-.05-.03-.07-.04-.63-.37-1.31-.66-2.04-.86h-.03v2.52c1.45.57 2.63 1.67 3.31 3.06l-.01-.01ZM9.715 6.03V3.51c-.74.2-1.45.51-2.1.89-.97.58-1.82 1.34-2.49 2.24-.68.9-1.18 1.94-1.46 3.06h2.5c.6-1.68 1.91-3.03 3.57-3.68l-.02.01ZM6.285 14.28h-2.54c.21.7.51 1.36.88 1.98 0 .01.02.03.03.04.56.91 1.28 1.71 2.12 2.36.02.01.03.02.05.03.28.21.57.41.87.58.62.36 1.3.64 2 .84h.01v-2.52a6.238 6.238 0 0 1-3.43-3.32l.01.01Z"/></svg>