<svg xmlns="http://www.w3.org/2000/svg" width="24" height="24" style="isolation:isolate"><path fill="#FFF" d="M13.026 1.014v.021l.054.032c.042.032.117.107.234.192.235.171.651.427 1.281.683 1.27.512 3.447 1.035 6.936.939l1.014-.032.086 1.014-1.068.085c1.046-.085 1.068-.085 1.068-.085v.203c0 .117.01.288.021.501.011.427.021 1.046 0 1.782-.053 1.484-.235 3.522-.768 5.71-1.046 4.332-3.522 9.444-9.253 11.706h-.021l-.021.022-.267.096-.342.117-.341-.117-.267-.096h-.021l-.021-.022c-5.72-2.294-8.175-7.406-9.221-11.738-.522-2.177-.704-4.216-.757-5.71a23.63 23.63 0 0 1 0-1.782c0-.213.01-.384.021-.501v-.192l1.067.085-1.067-.085.085-1.014 1.014.032c3.479.107 5.645-.427 6.905-.939.629-.256 1.035-.502 1.27-.672.117-.086.192-.15.234-.193.011-.01.022-.021.032-.021l.022-.021.032-.032L11.98 0l1.046 1.014Zm-1.312.736S9.643 4.151 2.44 3.927c0 0-1.206 14.652 9.274 18.803l.266.085.267-.085c10.533-4.151 9.316-18.803 9.316-18.803-7.224.214-9.305-2.177-9.316-2.188l-.267-.256-.266.256v.011Z"/></svg>