<?xml version="1.0" encoding="UTF-8"?><svg id="Layer_1" xmlns="http://www.w3.org/2000/svg" viewBox="0 0 38.15 37.72"><defs><style>.cls-1{fill:#fff;}</style></defs><path class="cls-1" d="m3.74,24.66h14.38v1.22c0,1.38-1.12,2.49-2.49,2.49H6.23c-1.38,0-2.49-1.12-2.49-2.49v-1.22h0Z" transform="translate(21.95 .04) rotate(45)"/><rect class="cls-1" x="4.5" y="27.12" width="3.96" height="7.68" transform="translate(23.79 4.48) rotate(45)"/><path class="cls-1" d="m-.7,33.55h5.48v.98c0,1.51-1.23,2.74-2.74,2.74h0c-1.51,0-2.74-1.23-2.74-2.74v-.98h0Z" transform="translate(25.63 8.93) rotate(45)"/><polygon class="cls-1" points="15.33 27.42 10.03 22.11 27.97 4.17 37.44 0 33.27 9.48 15.33 27.42"/><path class="cls-1" d="m20.05,24.66h14.38v1.22c0,1.38-1.12,2.49-2.49,2.49h-9.39c-1.38,0-2.49-1.12-2.49-2.49v-1.22h0Z" transform="translate(-10.77 27.03) rotate(-45)"/><rect class="cls-1" x="29.7" y="27.12" width="3.96" height="7.68" transform="translate(-12.61 31.47) rotate(-45)"/><path class="cls-1" d="m33.39,33.55h5.48v.98c0,1.51-1.23,2.74-2.74,2.74h0c-1.51,0-2.74-1.23-2.74-2.74v-.98h0Z" transform="translate(-14.45 35.92) rotate(-45)"/><g><polygon class="cls-1" points="10.2 4.17 .72 0 4.9 9.48 13.27 17.85 18.57 12.54 10.2 4.17"/><rect class="cls-1" x="20.14" y="20.9" width="7.5" height="4.53" transform="translate(-9.38 23.67) rotate(-45)"/></g></svg>