<?xml version="1.0" encoding="UTF-8"?><svg id="Layer_1" xmlns="http://www.w3.org/2000/svg" viewBox="0 0 47.35 55.27"><defs><style>.cls-1{fill:#fff;}</style></defs><polygon class="cls-1" points="32.2 3.91 30.26 0 17.87 0 15.93 3.91 0 3.91 0 10.37 47.35 10.37 47.35 3.91 32.2 3.91"/><path class="cls-1" d="m3.13,13.89l3,36.68c0,2.59,2.1,4.7,4.7,4.7h25.99c2.59,0,4.7-2.1,4.7-4.7l3-36.68H3.13Zm16.43,32.09c0,1.62-1.31,2.93-2.93,2.93s-2.93-1.31-2.93-2.93v-23.67c0-1.62,1.31-2.93,2.93-2.93s2.93,1.31,2.93,2.93v23.67Zm14.09,0c0,1.62-1.31,2.93-2.94,2.93s-2.93-1.31-2.93-2.93v-23.67c0-1.62,1.31-2.93,2.93-2.93s2.94,1.31,2.94,2.93v23.67Z"/></svg>