<?xml version="1.0" encoding="utf-8"?>
<!-- Generator: Adobe Illustrator 27.3.1, SVG Export Plug-In . SVG Version: 6.00 Build 0)  -->
<svg version="1.1" id="Layer_1" xmlns="http://www.w3.org/2000/svg" xmlns:xlink="http://www.w3.org/1999/xlink" x="0px" y="0px"
	 viewBox="0 0 100 100" style="enable-background:new 0 0 100 100;" xml:space="preserve">
<path style="fill:#FFFFFF;" d="M73.8,32.7h4l-5.1,51.1H27.1L22,32.7h4l4.8,47.1h38.3L73.8,32.7z M77.9,25.7v4h-56v-4h16.5v-2.8
	c0-3.6,2.9-6.5,6.5-6.5h10.3c3.6,0,6.5,2.9,6.5,6.5v2.8H77.9z M42.4,25.7h15.3v-2.8c0-1.4-1.1-2.5-2.5-2.5H44.9
	c-1.4,0-2.5,1.1-2.5,2.5V25.7z M37.8,36v40.1h4V36H37.8z M48,36v40.1h4V36H48z M58.3,36v40.1h4V36H58.3z"/>
</svg>
