<svg id="Layer_1" data-name="Layer 1" xmlns="http://www.w3.org/2000/svg" viewBox="0 0 28 32.38"><defs><style>.cls-1{fill:#fff;}</style></defs><polygon class="cls-1" points="1 11.88 1 18.83 14 8.24 27 18.83 27 11.88 14 1.29 1 11.88"/><path d="M14,0,0,11.41v9.53L14,9.53,28,20.94V11.41ZM27.5,19.88,14,8.88.5,19.88V11.64L14,.64l13.5,11Z"/><path d="M.5,11.64v8.24L14,8.88l13.5,11V11.64L14,.64ZM27,18.83,14,8.24,1,18.83V11.88L14,1.29,27,11.88Z"/><polygon class="cls-1" points="1 23.33 1 30.28 14 19.68 27 30.28 27 23.33 14 12.73 1 23.33"/><path d="M14,11.45,0,22.85v9.53L14,21,28,32.38V22.85ZM27.5,31.33,14,20.33.5,31.33V23.09l13.5-11,13.5,11Z"/><path d="M.5,23.09v8.24l13.5-11,13.5,11V23.09L14,12.09ZM27,30.28,14,19.68,1,30.28v-7l13-10.6,13,10.6Z"/></svg>