<?xml version="1.0" encoding="UTF-8"?><svg id="Layer_1" xmlns="http://www.w3.org/2000/svg" viewBox="0 0 51.17 63.53"><defs><style>.cls-1{fill:#fff;}</style></defs><path class="cls-1" d="m28.22,62.21s-12.09,3.31-19.87-.58C.58,57.75,0,50.7,0,50.7c0,0,5.61-5.47,14.11-1.73,8.49,3.74,14.11,13.24,14.11,13.24Z"/><path class="cls-1" d="m10.8,17.13s6.39,9.51,5.29,17.38c-1.1,7.87-7.05,10.42-7.05,10.42,0,0-6.37-3.27-5.6-11.72s7.36-16.08,7.36-16.08Z"/><path class="cls-1" d="m42.19,44.63s-8.79,6.42-16.3,5.67-10.15-6.3-10.15-6.3c0,0,2.87-6.17,10.91-5.76,8.05.42,15.54,6.39,15.54,6.39Z"/><path class="cls-1" d="m51.17,25.26s-5.41,6.99-11.43,8.1c-6.03,1.11-9.34-2.62-9.34-2.62,0,0,.84-5.46,7.21-6.96,6.37-1.5,13.56,1.47,13.56,1.47Z"/><path class="cls-1" d="m39.41,0s3.08,8.29.83,13.99c-2.25,5.7-7.17,6.54-7.17,6.54,0,0-4.19-3.6-2.09-9.8S39.41,0,39.41,0Z"/><path class="cls-1" d="m23.67,8.45s5.91,7.99,5.27,14.85c-.64,6.86-5.69,9.31-5.69,9.31,0,0-5.65-2.58-5.32-9.93.33-7.35,5.74-14.22,5.74-14.22Z"/></svg>