<?xml version="1.0" encoding="utf-8"?>
<!-- Generator: Adobe Illustrator 25.3.1, SVG Export Plug-In . SVG Version: 6.00 Build 0)  -->
<svg version="1.1" id="Layer_1" xmlns="http://www.w3.org/2000/svg" xmlns:xlink="http://www.w3.org/1999/xlink" x="0px" y="0px"
	 viewBox="0 0 57.3 57.3" style="enable-background:new 0 0 57.3 57.3;" xml:space="preserve">
<style type="text/css">
	.st0{fill:#FFFFFF;}
	.st1{fill:#382A2A;}
</style>
<path class="st0" d="M-54.5-44.3l-30,28h-4l30-28H-54.5z"/>
<path class="st0" d="M-34.5-44.3l-30,28h-4l30-28H-34.5z"/>
<path class="st0" d="M-44.5-44.3l-30,28h-4l30-28H-44.5z"/>
<path class="st0" d="M-74.5-44.3l-30,28h-4l30-28H-74.5z"/>
<path class="st0" d="M-84.5-44.3l-30,28h-4l30-28H-84.5z"/>
<path class="st0" d="M-64.5-44.3l-30,28h-4l30-28H-64.5z"/>
<g>
	<polygon class="st0" points="152.7,56.7 147,51 108.2,12.2 104.9,15.4 180.9,91.4 184.1,88.1 	"/>
</g>
<rect x="98" y="42.3" transform="matrix(-0.7071 -0.7071 0.7071 -0.7071 227.3595 183.414)" class="st0" width="107.4" height="4.6"/>
<rect x="105.1" y="35.2" transform="matrix(-0.7071 -0.7071 0.7071 -0.7071 244.6255 176.2621)" class="st0" width="107.4" height="4.6"/>
<rect x="112.3" y="28" transform="matrix(-0.7071 -0.7071 0.7071 -0.7071 261.8916 169.1103)" class="st0" width="107.4" height="4.6"/>
<rect x="119.4" y="20.9" transform="matrix(-0.7071 -0.7071 0.7071 -0.7071 279.1577 161.9584)" class="st0" width="107.4" height="4.6"/>
<rect x="126.6" y="13.7" transform="matrix(-0.7071 -0.7071 0.7071 -0.7071 296.4238 154.8066)" class="st0" width="107.4" height="4.6"/>
<rect x="133.7" y="6.6" transform="matrix(-0.7071 -0.7071 0.7071 -0.7071 313.6899 147.6547)" class="st0" width="107.4" height="4.6"/>
<rect x="141" y="-0.7" transform="matrix(-0.7071 -0.7071 0.7071 -0.7071 331.1413 140.4261)" class="st0" width="107.4" height="4.6"/>
<rect x="148.1" y="-7.8" transform="matrix(-0.7071 -0.7071 0.7071 -0.7071 348.4074 133.2743)" class="st0" width="107.4" height="4.6"/>
<polygon class="st1" points="152.7,0.1 146.9,0.1 146.9,5.9 146.9,51.7 146.9,57.5 152.7,57.5 204.3,57.5 204.3,0.1 "/>
<g>
	<polygon class="st0" points="57.3,57.3 57.1,57.3 57.3,57.1 	"/>
	<polygon class="st0" points="57.1,50.8 57.3,50.7 57.3,51.5 57.3,57.1 57.1,57.3 51.5,57.3 50.7,57.3 51.5,56.5 	"/>
	<polygon class="st0" points="57.3,42.9 42.9,57.3 36.4,57.3 57.3,36.4 	"/>
	<polygon class="st0" points="57.3,28.6 28.6,57.3 22.2,57.3 57.3,22.2 	"/>
	<polygon class="st0" points="57.3,14.3 14.3,57.3 7.9,57.3 57.3,7.9 	"/>
	<polygon class="st0" points="51.5,0 57.3,0 57.3,0.1 0.1,57.3 0,57.3 0,50.9 50.9,0 	"/>
	<polygon class="st0" points="43.1,0 0,43.1 0,36.6 36.6,0 	"/>
	<polygon class="st0" points="28.8,0 0,28.8 0,22.3 22.3,0 	"/>
	<polygon class="st0" points="14.4,0 0,14.4 0,7.9 7.9,0 	"/>
	<polygon class="st0" points="0,0 0.1,0 0,0.1 	"/>
</g>
</svg>
