<svg xmlns="http://www.w3.org/2000/svg" width="109" height="98" viewBox="0 0 109 98">
  <defs>
    <style>
      .cls-1 {
        fill: #fff;
        fill-rule: evenodd;
      }
    </style>
  </defs>
  <path class="cls-1" d="M58.38,83.06H46.137V76.283H58.38V83.06Zm0,14.94H46.137V84.985H58.38V98ZM97.573,83.06H85.33V76.283H97.573V83.06ZM83.328,93.071H60.151V87.757H83.328v5.314Zm0-7.624H60.151V74.511h-9.7l1.81-6.392H91.875l1.694,6.392H83.328V85.447ZM97.573,98H85.33V84.985H97.573V98Zm-40.5-31.513H87.332V63.114l6.237-2v-1L108.584,55.1l-0.77-2.156L92.645,57.723l-1.194-1.309-6.506,1.232-0.77-1.958H77.014l-0.539-2.74H67.928L67,55.689H62.538ZM86.947,14.371H72.7v-4.7H71.239v4.7H60.228V4.206L57.071,0.432,53.914,4.206V14.371H42.9v-4.7H41.44v4.7H27.2a2.8,2.8,0,0,0-1.617,2.7,5.844,5.844,0,0,0,4.312,5.545c3.08,1,19.712,6.007,19.712,6.007s2.31,0.308,3,1.155a7.991,7.991,0,0,1,1.078,2.7l0.77,11.937s-7.546,1.848-8.162,2.464-0.847,2.233-.308,2.618,2.156,0,2.156,0H66s1.617,0.385,2.156,0,0.308-2-.308-2.618-8.162-2.464-8.162-2.464l0.77-11.937a7.993,7.993,0,0,1,1.078-2.7c0.693-.847,3-1.155,3-1.155s16.632-5.006,19.712-6.007a5.844,5.844,0,0,0,4.312-5.545A2.8,2.8,0,0,0,86.947,14.371ZM10.3,70.342l0.057,0.1c0.913-.207,1.835-0.377,2.736-0.627a58.592,58.592,0,0,0,8.535-3.4c1.957-.891,3.932-1.741,5.9-2.606a4.812,4.812,0,0,1,4.045.044c0.941,0.418,1.891.818,2.819,1.265a68.033,68.033,0,0,0,10.96,4.388c1.009,0.285,2.028.538,3.106,0.823-0.059-.143-0.079-0.2-0.108-0.26q-1.9-3.582-3.776-7.176a0.434,0.434,0,0,0-.465-0.242c-1.317.006-2.635,0-3.952,0.009a0.438,0.438,0,0,1-.484-0.31C39,60.82,38.308,59.3,37.637,57.768a0.411,0.411,0,0,0-.455-0.3c-0.679.018-1.36,0.006-2.05,0.006V53.564h2.554V53.106c0-1.573-.028-3.146.014-4.717a1.4,1.4,0,0,0-.657-1.371,9.422,9.422,0,0,0-2.435-1.476c-0.475-.148-0.967-0.236-1.46-0.353V39.922h0.437c1.162,0,2.321.006,3.487-.006a1.161,1.161,0,0,0,.542-0.143c1.285-.737,2.563-1.489,3.843-2.237,0.092-.053.178-0.119,0.266-0.18L41.7,37.287H35.123C35.115,37.127,35.1,37,35.1,36.875c-0.008-1.36.006-1.4-1.325-1.828-1.037-.332-2.112-0.542-3.235-0.823V28.876H28.573v5.457c-0.289.035-.533,0.061-0.775,0.093a8.811,8.811,0,0,0-3.488,1.054,0.553,0.553,0,0,0-.313.559C24.019,36.447,24,36.857,24,37.3h-6.65l-0.06.1a0.687,0.687,0,0,1,.145.055c1.181,0.785,2.358,1.577,3.545,2.353a0.916,0.916,0,0,0,.472.109c1.072,0.009,2.144,0,3.216,0h1.272v5.323A6.95,6.95,0,0,0,21.65,47.3a0.9,0.9,0,0,0-.236.563c-0.018,1.766-.01,3.532-0.01,5.3v0.425h2.583v3.869c-0.148.031-.273,0.065-0.4,0.081-1.113.139-2.231,0.247-3.338,0.423a1.72,1.72,0,0,1-1.2-.248c-1.231-.7-2.476-1.38-3.717-2.066-1.217-.673-2.434-1.347-3.68-2.032l-0.766,1.36c0.153,0.1.269,0.177,0.389,0.249L18.5,59.557c0.85,0.509.852,0.509,0.565,1.45-0.238.782-.481,1.556-0.73,2.359L6.168,56.71l-0.754,1.4,8.321,4.9-1.467,3.155L0.761,59.8,0,61.162l11.449,6.8ZM39.5,69.2a60.55,60.55,0,0,0-7.569-3.109,7.1,7.1,0,0,0-4.737.034c-1.037.388-2.1,0.706-3.115,1.148-3.836,1.675-7.649,3.4-11.483,5.081A32.067,32.067,0,0,1,5.23,74.922c0.08,0.108.148,0.217,0.227,0.313l9.559,11.773c0.5,0.611.956,1.253,1.5,1.816a1.084,1.084,0,0,1,.317.891c-0.018.511,0,1.023,0,1.544H42.261c0-.692-0.017-1.362.01-2.028a1.118,1.118,0,0,1,.217-0.617l1.84-2.269V74.588h4.2l0.335-1.062C45.728,72.109,42.616,70.648,39.5,69.2Z"/>
</svg>
