<?xml version="1.0" encoding="UTF-8"?><svg id="Layer_1" xmlns="http://www.w3.org/2000/svg" viewBox="0 0 196.66 182.98"><defs><style>.cls-1{fill:#fff;}</style></defs><path class="cls-1" d="m136.57,130.11l-9.58-5c1.4-5.6,1.91-11.3,1.6-16.91l10.22-3.21c2.9-.91,4.51-4,3.6-6.9l-4.99-15.91c-.91-2.9-4-4.51-6.9-3.6l-10.09,3.17c-2.93-4.86-6.62-9.31-10.98-13.17l4.88-9.34c1.41-2.69.36-6.02-2.33-7.43l-14.78-7.72c-2.69-1.41-6.02-.36-7.43,2.33l-4.88,9.34c-5.66-1.37-11.42-1.85-17.08-1.48l-3.17-10.09c-.91-2.9-4-4.51-6.9-3.6l-15.91,4.99c-2.9.91-4.51,4-3.6,6.9l3.21,10.22c-4.79,2.95-9.17,6.63-12.97,10.97l-9.58-5c-2.69-1.41-6.02-.36-7.43,2.33l-7.72,14.78c-1.41,2.69-.36,6.02,2.33,7.43l9.72,5.08c-1.31,5.55-1.75,11.18-1.39,16.73l-10.56,3.31c-2.9.91-4.51,4-3.6,6.9l4.99,15.91c.91,2.9,4,4.51,6.9,3.6l10.69-3.36c2.89,4.69,6.47,8.99,10.7,12.73l-5.2,9.96c-1.41,2.7-.36,6.02,2.33,7.43l14.78,7.72c2.69,1.41,6.02.36,7.43-2.33l5.2-9.96c5.49,1.33,11.07,1.81,16.56,1.5l3.35,10.69c.91,2.9,4,4.51,6.9,3.6l15.91-4.99c2.9-.91,4.51-4,3.6-6.9l-3.32-10.56c4.76-2.87,9.13-6.46,12.94-10.7l9.72,5.08c2.69,1.41,6.02.36,7.43-2.33l7.72-14.78c1.41-2.7.36-6.02-2.33-7.43Zm-79.2,8.28c-14.94-7.8-20.72-26.24-12.92-41.17,7.8-14.94,26.24-20.72,41.17-12.92,14.94,7.8,20.72,26.24,12.92,41.17-7.8,14.94-26.24,20.72-41.17,12.92Z"/><path class="cls-1" d="m193.64,38.27l-6.44-.53c-.53-3.41-1.57-6.67-3.05-9.69l4.88-4.14c1.39-1.18,1.56-3.25.38-4.64l-6.44-7.61c-1.18-1.39-3.25-1.56-4.64-.38l-4.82,4.09c-2.74-2-5.81-3.59-9.11-4.71l.52-6.28c.15-1.81-1.2-3.4-3.01-3.55L151.98.01c-1.81-.15-3.4,1.2-3.55,3.01l-.52,6.28c-3.44.56-6.72,1.63-9.75,3.15l-4.09-4.82c-1.18-1.39-3.25-1.56-4.64-.38l-7.61,6.44c-1.39,1.18-1.56,3.25-.38,4.64l4.14,4.88c-1.95,2.74-3.51,5.78-4.6,9.06l-6.44-.53c-1.81-.15-3.4,1.2-3.55,3.01l-.82,9.93c-.15,1.81,1.2,3.4,3.01,3.55l6.54.54c.57,3.36,1.63,6.57,3.12,9.54l-5.05,4.28c-1.39,1.18-1.56,3.25-.38,4.64l6.44,7.61c1.18,1.39,3.25,1.56,4.64.38l5.11-4.33c2.68,1.91,5.65,3.45,8.85,4.53l-.55,6.7c-.15,1.81,1.2,3.4,3.01,3.55l9.93.82c1.81.15,3.4-1.2,3.55-3.01l.55-6.7c3.33-.54,6.52-1.57,9.48-3.02l4.33,5.11c1.18,1.39,3.25,1.56,4.64.38l7.61-6.44c1.39-1.18,1.56-3.25.38-4.64l-4.28-5.05c1.95-2.69,3.53-5.68,4.64-8.9l6.54.54c1.81.15,3.4-1.2,3.55-3.01l.82-9.93c.15-1.81-1.2-3.4-3.01-3.55Zm-41.71,22.95c-10.04-.83-17.51-9.64-16.68-19.68s9.64-17.51,19.68-16.68c10.04.83,17.51,9.64,16.68,19.68s-9.64,17.51-19.68,16.68Z"/></svg>