<svg width="42" height="42" viewBox="0 0 42 42" fill="none" xmlns="http://www.w3.org/2000/svg">
<path d="M38.2969 2.29297L39.7109 3.70697L31.7109 11.707L30.2969 10.293L38.2969 2.29297ZM3.71088 39.707L2.29688 38.293L10.2969 30.293L11.7109 31.707L3.71088 39.707ZM39.7109 38.293L38.2969 39.707L30.2969 31.707L31.7109 30.293L39.7109 38.293ZM2.29688 3.70697L3.71088 2.29297L11.7109 10.293L10.2969 11.707L2.29688 3.70697Z" stroke="black" stroke-opacity="0.5" stroke-width="2" stroke-miterlimit="3" stroke-linejoin="round"/>
<path d="M19 21C19 19.896 19.896 19 21 19C22.104 19 23 19.896 23 21C23 22.104 22.104 23 21 23C19.896 23 19 22.104 19 21Z" stroke="black" stroke-opacity="0.5" stroke-width="2" stroke-miterlimit="3" stroke-linejoin="round"/>
<path fill-rule="evenodd" clip-rule="evenodd" d="M38.2969 2.29297L39.7109 3.70697L31.7109 11.707L30.2969 10.293L38.2969 2.29297ZM3.71088 39.707L2.29688 38.293L10.2969 30.293L11.7109 31.707L3.71088 39.707ZM39.7109 38.293L38.2969 39.707L30.2969 31.707L31.7109 30.293L39.7109 38.293ZM2.29688 3.70697L3.71088 2.29297L11.7109 10.293L10.2969 11.707L2.29688 3.70697Z" fill="white"/>
<path d="M19 21C19 19.896 19.896 19 21 19C22.104 19 23 19.896 23 21C23 22.104 22.104 23 21 23C19.896 23 19 22.104 19 21Z" fill="white"/>
</svg>
