<svg width="84" height="52" viewBox="0 0 84 52" fill="none" xmlns="http://www.w3.org/2000/svg">
<g clip-path="url(#clip0_4256_40292)">
<path fill-rule="evenodd" clip-rule="evenodd" d="M9 0H84V19L9 18.5782V0Z" fill="#F5F5F5"/>
<path fill-rule="evenodd" clip-rule="evenodd" d="M84 34.7727H32.76V51H0V0H32.76V17H84V34.7727ZM20.4836 8.38254H23.5381V10.1382H20.4836V8.38254ZM19.3097 8.37018H19.5281C19.717 8.37018 19.8982 8.44449 20.0319 8.57677C20.1656 8.70906 20.2408 8.8885 20.241 9.07568V9.49141C20.2408 9.67859 20.1656 9.85803 20.0319 9.99032C19.8982 10.1226 19.717 10.1969 19.5281 10.1969H19.0921C18.9544 10.1965 18.8199 10.1566 18.7047 10.082C18.5895 10.0074 18.4986 9.90129 18.4431 9.77655H18.2801L18.2684 9.792V9.77655H18.082V10.8182C18.0816 11.1771 17.9722 11.5276 17.768 11.8241C17.5638 12.1205 17.2742 12.3492 16.9369 12.4803C16.9291 12.4803 16.9244 12.4888 16.9159 12.4927C16.8784 12.5089 16.8246 12.5135 16.784 12.5275C16.7231 12.547 16.6611 12.5632 16.5984 12.5761C15.3715 12.842 12.9324 12.2964 11.6938 11.9155C10.3412 11.4997 10.4582 11.2455 10.4582 11.2455C10.4582 10.853 11.647 10.7602 11.647 10.7602L15.2506 10.5284C15.3482 10.5221 15.4398 10.4793 15.5068 10.4085C15.5737 10.3378 15.6109 10.2444 15.6109 10.1475V9.77577H15.3824V9.79123L15.3707 9.77577H15.1718C15.1162 9.90052 15.0254 10.0066 14.9102 10.0812C14.795 10.1559 14.6604 10.1958 14.5228 10.1961H14.0868C13.898 10.1959 13.717 10.1215 13.5835 9.98927C13.45 9.85701 13.3749 9.67768 13.3747 9.49064V9.07491C13.3749 8.88786 13.45 8.70853 13.5835 8.57627C13.717 8.44401 13.898 8.36961 14.0868 8.36941H14.3442C13.2266 6.77655 12.351 5.02988 11.7452 3.18518C11.7452 3.18518 11.6119 2.68986 12.7475 3.97027C13.7302 5.35285 14.6108 6.80394 15.3824 8.31223V8.74341H15.6109V6.85795H16.0009C16.2023 6.60625 16.3472 6.31489 16.426 6.00332V4.35277C16.2899 4.31811 16.1677 4.24306 16.0758 4.13769C15.984 4.03231 15.9268 3.90164 15.912 3.76318C15.9506 3.55327 16.0695 3.36621 16.2438 3.24097C16.4182 3.11573 16.6346 3.06198 16.848 3.09091C17.061 3.06192 17.2772 3.11535 17.4515 3.24012C17.6258 3.36488 17.7449 3.55138 17.784 3.76086C17.7683 3.90362 17.7083 4.03804 17.6124 4.14569C17.5164 4.25333 17.3892 4.32891 17.2481 4.36205V6.00332C17.327 6.31487 17.4719 6.60621 17.6732 6.85795H18.0874V8.74418H18.2738V8.313C19.044 6.80487 19.923 5.35378 20.904 3.97105C22.0397 2.69064 21.9063 3.18595 21.9063 3.18595C21.301 5.03016 20.4262 6.77731 19.3097 8.37018ZM14.7584 9.07568C14.7584 9.0142 14.7337 8.95524 14.6898 8.91176C14.646 8.86829 14.5864 8.84386 14.5244 8.84386H14.0868C14.0247 8.84386 13.9652 8.86829 13.9213 8.91176C13.8775 8.95524 13.8528 9.0142 13.8528 9.07568V9.49141C13.8528 9.55289 13.8775 9.61186 13.9213 9.65533C13.9652 9.6988 14.0247 9.72323 14.0868 9.72323H14.522C14.5528 9.72323 14.5832 9.71723 14.6116 9.70558C14.64 9.69393 14.6658 9.67686 14.6875 9.65533C14.7092 9.6338 14.7265 9.60825 14.7382 9.58012C14.75 9.552 14.756 9.52185 14.756 9.49141V9.07491L14.7584 9.07568ZM18.8565 9.49141C18.8565 9.55289 18.8812 9.61186 18.925 9.65533C18.9689 9.6988 19.0284 9.72323 19.0905 9.72323H19.5257C19.5878 9.72323 19.6473 9.6988 19.6912 9.65533C19.7351 9.61186 19.7597 9.55289 19.7597 9.49141V9.07491C19.7597 9.01343 19.7351 8.95446 19.6912 8.91099C19.6473 8.86751 19.5878 8.84309 19.5257 8.84309H19.0921C19.03 8.84309 18.9705 8.86751 18.9266 8.91099C18.8827 8.95446 18.8581 9.01343 18.8581 9.07491V9.49064L18.8565 9.49141ZM13.1859 10.1382H10.1314V8.38254H13.182V10.1382H13.1859ZM15.2841 13.0251C15.2841 13.0251 11.1805 17.1824 9.9918 16.3478L14.118 12.8172C14.4935 12.951 14.889 13.0213 15.288 13.0251H15.2841ZM18.362 11.6628C20.0582 13.3326 21.8555 14.8985 23.744 16.3517C23.744 16.3517 23.6044 16.6755 22.6715 16.398C21.7386 16.1206 19.0577 13.811 17.7052 12.4486C17.8644 12.3707 18.0052 12.2604 18.1184 12.1248C18.2316 11.9892 18.3146 11.8323 18.362 11.6628Z" fill="#CE1126"/>
<path d="M84.0006 34H32.7344V51H84.0006V34Z" fill="#009249"/>
</g>
<defs>
<clipPath id="clip0_4256_40292">
<rect width="84" height="51.33" fill="white"/>
</clipPath>
</defs>
</svg>
