<?xml version="1.0" encoding="UTF-8"?><svg id="Layer_1" xmlns="http://www.w3.org/2000/svg" viewBox="0 0 84 51.33"><defs><style>.cls-1{fill:#c70606;}.cls-2,.cls-3{fill:#ffc438;}.cls-4{fill:#e3e3e3;}.cls-4,.cls-5,.cls-6,.cls-7,.cls-3,.cls-8{fill-rule:evenodd;}.cls-5{fill:#c81329;}.cls-6{fill:#20ab2d;}.cls-9{fill:#001e6c;}.cls-7,.cls-10{fill:#3c3c3c;}.cls-8{fill:#e20909;}.cls-11{fill:#d70505;}.cls-12{fill:#2f46d0;}</style></defs><path class="cls-1" d="m0,0h84v51.33H0V0Z"/><path class="cls-7" d="m59.39,38.76c-3.77,0-9.49-6.65-9.49-9.16v-14.05h18.99v14.05c0,2.62-5.3,9.16-9.49,9.16Z"/><path class="cls-4" d="m51.3,16.96h16.17v12.35c0,2.3-4.52,8.05-8.09,8.05-3.21,0-8.09-5.84-8.09-8.05,0,0,0-12.35,0-12.35Z"/><path class="cls-12" d="m51.3,23.29h16.17v6.33h-16.17v-6.33Z"/><path class="cls-3" d="m65.43,26.61v-1.63h1.1v1.63h-1.1Zm-2.2.55h1.1v1.63h-1.1v-1.63Zm-2.2-2.18h1.1v1.63h-1.1v-1.63Z"/><path class="cls-2" d="m59.74,16.96h7.73v6.33h-7.73v-6.33Z"/><path class="cls-11" d="m51.3,16.96h8.44v6.33h-8.44v-6.33Z"/><path class="cls-3" d="m52.25,22.25v-.98h6.04v.98h-6.04Zm0-2.95h6.04v.98h-6.04v-.98Zm0-1.96h6.04v.98h-6.04v-.98Z"/><path class="cls-8" d="m64.66,20.48v.7h.22v1.07h-2.75v-1.07h1.12v-1.41h-1.12v-1.88h.42v1.18h.7v-1.18h1.63v2.58s-.22,0-.22,0Z"/><path class="cls-3" d="m58.29,24.43l-3.47,4.48c-.6-.89-1.09-1.85-1.47-2.85,0-.03,0-.05,0-.08-.27-.43-1.24-2-.63-2,.58.1,1.12.35,1.56.74,1.3-.39,2.67-.49,4.02-.3Zm-2.77.97c-.57.26,0,1.41,0,1.41l1.41-1.41c-.46-.15-.95-.15-1.41,0Z"/><path class="cls-6" d="m62.52,34.24c-.49.98-1.49,1.6-2.58,1.6v1.13h-1.1v-1.13c-1.09,0-2.09-.62-2.58-1.6h-1.82v-1.63h2.75v1.63h-.3c.45.64,1.17,1.04,1.95,1.08v-2.17h-1.1v-2.72h3.3v2.72h-1.1v2.17c.78-.04,1.5-.43,1.95-1.08h-.3v-1.63h2.75v1.63h-1.82Z"/><path class="cls-10" d="m59.04,16.26h.7v13.36h-.7v-13.36Z"/><path class="cls-9" d="m0,0h35.16v23.21H0V0Z"/><path class="cls-4" d="m35.16,23.21h-5.53l-11.95-8.42-11.9,8.42H0v-2.95l12.7-8.98L0,2.32V0h6.71l10.98,7.74L28.63,0h6.52v2.43l-12.48,8.83,12.48,8.8v3.15Z"/><path class="cls-5" d="m31.75,23.21l-13.2-9.33,2.03-1.44,14.57,10.3v.47h-3.41ZM35.16.67L3.29,23.21H0v-.55L32.03,0h3.13v.67Zm-18.7,8.84l-2.03,1.44L0,.75v-.75h3.01l13.44,9.51Z"/><path class="cls-4" d="m35.16,14.77h-14.06v8.44h-7.03v-8.44H0v-6.33h14.06V0h7.03v8.44h14.06v6.33Z"/><path class="cls-5" d="m35.16,13.36h-15.47v9.85h-4.22v-9.85H0v-3.52h15.47V0h4.22v9.85h15.47s0,3.52,0,3.52Z"/></svg>