<?xml version="1.0" encoding="UTF-8"?><svg id="Layer_1" xmlns="http://www.w3.org/2000/svg" viewBox="0 0 84 51.33"><defs><style>.cls-1{fill:#fff;}.cls-1,.cls-2{fill-rule:evenodd;}.cls-2{fill:#ff161f;}</style></defs><g><polygon class="cls-2" points="0 0 0 51.33 21 51.33 21 0 0 0 0 0"/><polygon class="cls-1" points="21 0 21 51.33 63 51.33 63 0 21 0 21 0"/><polygon class="cls-2" points="84 0 63 0 63 51.33 84 51.33 84 0 84 0"/></g><path class="cls-2" d="m42,39.72h.5l-.16-6.47.46-.39c2.07.24,3.93.46,6,.71l-.52-1.77c-.08-.31.03-.65.27-.84l6.02-5.01-1.25-.6c-.55-.2-.39-.51-.2-1.27l.92-3.42-3.49.75c-.34.05-.57-.17-.62-.38l-.45-1.61-2.77,3.17c-.39.51-1.19.51-.94-.67l1.18-6.42-1.58.84c-.45.25-.89.29-1.14-.16l-2.22-4.18-2.23,4.18c-.25.45-.69.41-1.14.16l-1.58-.84,1.18,6.42c.25,1.18-.55,1.18-.94.67l-2.77-3.17-.45,1.61c-.05.21-.28.43-.62.38l-3.5-.75.92,3.42c.2.76.35,1.07-.2,1.28l-1.25.6,6.02,5.01c.24.19.36.53.28.84l-.53,1.77c2.07-.25,3.93-.46,6-.71l.46.39-.16,6.47h.5Z"/></svg>