<?xml version="1.0" encoding="UTF-8"?><svg id="Layer_1" xmlns="http://www.w3.org/2000/svg" viewBox="0 0 84 51.33"><defs><style>.cls-1{fill:#da1f26;}.cls-2{fill:#ec1c26;}.cls-3{fill:#ec1c24;}.cls-4{fill:#fdcd07;}.cls-5{fill:#ebeff8;}.cls-6{fill:#231f20;}.cls-7{fill:#ffd200;}</style></defs><path d="m0,0v17.11h84V0S0,0,0,0Z"/><path class="cls-1" d="m84,17.12H0v17.11h84v-17.11Z"/><path class="cls-4" d="m0,34.22v17.11h84v-17.11H0Z"/><path class="cls-7" d="m32.03,14.98c-.6-.17-.92-.62-.96-1.36,1.69,1.42,4.35-1.92,5.92,1.55-.85,1.73-2.54,1.55-3.14.56-.33.29-.49.8-.41,1.39h7.54c.08-.27.16-.6.2-.93-.44.01-.88-.03-1.31-.12-.13-.03-.26-.07-.38-.12-.11-.04-.21-.1-.3-.17l-.17-.14.21.02c.14.01.29.03.42.05-.51-.2-.87-.42-1.07-.68-.02-.02-.02-.04-.02-.07.02-.03.05-.05.08-.03.54.26,1.19.45,1.92.57.14.02.29.05.44.06.04,0,.08,0,.11.01-.2-.48-.46-.72-.72-.82-.11-.05-.23-.07-.35-.07-.11,0-.22.02-.31.06-.14.05-.24.14-.27.21l-.04.11-.06-.09c-.38-.52-.54-.98-.52-1.34,0-.23.08-.42.2-.57.14-.15.32-.26.53-.29.35-.08.8,0,1.32.22.24-.35.85.03,1.22.23.48.25,1.69.62,2.35.62-.26.25-.57.44-.91.55.13.4.34,1.23.53,2.75h6.47c.08-.59-.08-1.1-.41-1.39-.6.99-2.29,1.18-3.14-.56,1.57-3.46,4.23-.12,5.92-1.55-.04.74-.36,1.19-.96,1.36.43.42.68,1.13.76,2.13h1.11v-4.97h-23.66v4.97h1.11c.08-1,.33-1.71.76-2.13,0,0,.01-.02.01-.02Zm12.98,19.24h1.34l-1.34-1.25v1.25Zm6.04-13.33v13.33h.36v-13.65c-.12.11-.24.22-.36.32Zm-18.48-.32v13.65h.36v-13.33c-.13-.11-.25-.22-.36-.32Zm17.15,1.21c-.12.06-.24.12-.36.18v11.06l-1.33-1.12v-9.43c-.12.04-.24.07-.36.11v9.02l-1.33-1.12v-7.61c-.12.02-.24.04-.36.06v7.25l-1.33-1.12v-5.99l-.36.02c-.14,1.71-.41,3.55-.75,5.4l3.46,3.78-1.09-.14,1.52,2.08h.78c.41-.2.89-.44,1.05-.57.1-.08.17-.13.23-.14.05-.01.1-.01.13,0,.04.02.06.05.08.08,0,.02.01.03.01.05.17.06.31.19.4.35.03.07.05.15.06.23h.6l-1.06-.89v-11.56h0Z"/><path class="cls-7" d="m44.38,20.64c4.32-.27,5.97-2.11,6.17-3.52h-6.47c.1.76.19,1.68.26,2.82.02.23.02.47.03.71h0Zm-4.77,0c0-.24.02-.48.03-.71.06-.93.85-1.86,1.15-2.35.07-.11.13-.28.19-.47h-7.54c.2,1.4,1.86,3.25,6.17,3.52h0Zm13.13-2.86v16.46h.92c.11-.52.17-1.04.17-1.57v-15.54h-1.11c.02.2.02.42.02.65Zm-21.5,0c0-.23,0-.45.02-.65h-1.11v15.54c0,.57.06,1.09.17,1.57h.92v-16.46Zm6.4,16.45h1.33v-1.25l-1.33,1.25Zm5.8,0h1.42l-1.49-2.37c-.03.79,0,1.58.07,2.37h0Zm-2.85-2.37l-1.49,2.37h1.42c.07-.79.09-1.58.07-2.37h0Zm-6.33,1.8s0-.04.01-.05c.01-.04.04-.07.08-.08.04-.01.09-.01.13,0,.06.02.14.06.23.14.16.13.64.38,1.05.57h.78l1.52-2.08-1.09.14,3.46-3.78c-.34-1.83-.62-3.68-.75-5.4-.12,0-.23-.01-.35-.02v5.99l-1.33,1.12v-7.25c-.12-.01-.24-.04-.36-.06v7.61l-1.33,1.12v-9.01c-.12-.04-.24-.07-.36-.11v9.43l-1.33,1.12v-11.06c-.13-.06-.25-.12-.36-.18v11.55l-1.06.89h.61c.01-.08.03-.16.06-.23.08-.16.23-.29.4-.35Zm13.95.57h-.78l.2.27c.09-.05.33-.14.58-.27Z"/><path class="cls-7" d="m36.37,34.49l.2-.27h-.78c.26.12.49.23.58.27Z"/><path class="cls-7" d="m37.68,40.05c1.89.64,3.58,1.21,4.32,2.26.74-1.05,2.43-1.62,4.32-2.26,3.02-1.03,6.55-2.23,7.34-5.83h-.92v1.65l-1.33-1.12v-.53h-.36v.22l-.26-.22h-.6c.04.17.05.36.03.6v.2s-.11-.17-.11-.17c-.12-.23-.24-.38-.36-.48.02.11.03.17-.05.23-.07.05-.19.06-.44.1-.36.05-.88.2-1.13.26.35.2,1.31.76,1.45.86.06.05.2.1.33.15.18.08.36.14.38.22.01.05,0,.08-.06.11,0,.03.02.07.02.11,0,.08,0,.18-.03.28-.07.25-.26.54-.52.79l-.14.13.04-.19c.04-.18.05-.35.05-.51,0-.09-.01-.17-.04-.26-.02.04-.04.07-.06.11-.03.06-.05.11-.09.14-.08.06-.19.02-.38-.24-.29-.4-1.08-.97-1.34-1.16-.02.24-.03.85.07,1.42.01.11.04.2.05.28.04.19.05.29.02.34-.02.05-.06.06-.11.06.03.15-.01.3-.12.4-.14.14-.41.26-.78.35l-.17.05.1-.14c.2-.26.31-.48.35-.68,0-.02,0-.04,0-.05-.11,0-.17,0-.21.01-.03,0-.06.02-.1.02-.08,0-.1-.05-.1-.12,0-.09.06-.23.11-.37.02-.05.05-.11.05-.15.05-.15.05-1.2.06-1.5-.21.07-.79.26-.98.45-.14.15-.28.14-.39.08-.05-.03-.1-.08-.14-.13-.05.12-.06.25-.05.38,0,.1.02.19.05.29l.05.14-.13-.07c-.06-.03-.12-.07-.17-.11-.14-.11-.25-.26-.31-.43-.07-.2-.05-.41.05-.6-.02-.01-.04-.03-.06-.05-.02-.02-.03-.04-.04-.06-.01-.05,0-.09.05-.13.04-.03.08-.06.13-.08.14-.05.35-.09.57-.09.33,0,1.09-.16,1.38-.22l-.6-.56h-1.34v.22l-.14-.22h-1.42c.27,2.75,1.28,3.98,3.01,3.68-.69,1.4-1.75,1.64-3.2.74l-1.27,1.55-1.27-1.55c-1.45.91-2.51.66-3.2-.74,1.74.29,2.73-.94,3.01-3.68h-1.42l-.14.22v-.22h-1.33l-.6.56c.29.06,1.05.22,1.38.22.23,0,.44.04.57.09.05.02.09.04.12.08.04.04.06.08.05.13,0,.02-.02.05-.04.06-.02.02-.04.03-.06.05.1.18.11.4.05.6-.06.17-.17.32-.31.43-.05.04-.11.08-.17.11l-.13.07.05-.14s.03-.1.04-.15c.03-.17.02-.35-.04-.52-.04.05-.09.09-.14.13-.11.07-.24.07-.39-.08-.19-.2-.77-.38-.98-.45,0,.3,0,1.35.06,1.5.02.05.04.1.05.15.05.13.11.28.11.37,0,.08-.03.12-.1.12-.04,0-.07,0-.1-.01-.05,0-.1-.02-.21-.02,0,.02,0,.04,0,.05.04.2.15.42.35.68l.11.14-.17-.05c-.37-.1-.64-.21-.79-.35-.11-.1-.16-.26-.12-.4-.05,0-.09,0-.11-.06-.03-.06-.01-.15.02-.34.01-.08.03-.17.05-.28.09-.57.08-1.19.07-1.42-.26.19-1.05.76-1.34,1.16-.2.27-.3.31-.38.24-.04-.03-.06-.08-.09-.14-.02-.04-.04-.08-.06-.11-.02.08-.03.17-.04.26,0,.16,0,.33.05.51l.04.19-.14-.13c-.27-.24-.45-.54-.52-.79-.03-.1-.04-.19-.03-.28,0-.04,0-.07.02-.11-.06-.02-.08-.06-.06-.1.02-.08.2-.14.38-.22.14-.05.27-.11.33-.15.14-.1,1.1-.66,1.45-.86-.24-.08-.76-.22-1.12-.26-.25-.03-.38-.05-.44-.1-.08-.05-.07-.12-.05-.23-.12.1-.23.26-.35.48l-.1.17v-.2c-.04-.24-.01-.43.01-.6h-.61l-.26.23v-.23h-.36v.53l-1.33,1.12v-1.65h-.92c.79,3.59,4.33,4.8,7.34,5.83h0s0,0,0,0Z"/><path class="cls-6" d="m30.16,12.14h23.67v4.97h.24v-5.22h-24.15v5.22h.24v-4.97Z"/><path class="cls-6" d="m53.83,32.65c0,.57-.06,1.09-.17,1.57h.25c.1-.48.16-1,.16-1.57v-15.54h-.24s0,15.54,0,15.54Zm-23.75,1.57h.25c-.11-.52-.17-1.04-.17-1.57v-15.54h-.24v15.54c0,.57.06,1.09.16,1.57Zm16.23,5.83c-1.89.64-3.58,1.21-4.32,2.26-.74-1.05-2.43-1.62-4.32-2.26-3.02-1.03-6.55-2.23-7.34-5.83h-.25c.79,3.77,4.42,5,7.52,6.06,1.94.66,3.66,1.25,4.29,2.32l.11.17.11-.17c.63-1.08,2.35-1.66,4.29-2.32,3.1-1.06,6.73-2.29,7.52-6.06h-.25c-.79,3.59-4.33,4.8-7.34,5.83Zm-12.47-24.32c.6.99,2.29,1.18,3.14-.56-1.57-3.46-4.23-.12-5.92-1.55.04.74.36,1.19.96,1.36-.43.42-.68,1.13-.76,2.13h2.16c-.08-.59.08-1.1.41-1.39,0,0,0,0,0,0Zm9.71-1.36c.34-.11.66-.3.91-.55-.66,0-1.87-.37-2.36-.62-.38-.2-.98-.58-1.22-.23-.52-.23-.97-.29-1.32-.22-.2.04-.39.14-.53.29-.13.16-.21.36-.2.57-.01.37.15.83.52,1.34l.06.09.04-.11c.03-.08.13-.15.27-.21.1-.03.2-.05.31-.06.11,0,.23.01.35.07.26.11.52.35.72.82-.04,0-.08,0-.11-.02-.15-.02-.29-.04-.44-.06-.73-.11-1.37-.31-1.92-.57-.03-.01-.07,0-.08.03,0,.02,0,.05.01.07.2.26.57.48,1.07.68-.14-.02-.28-.03-.41-.05l-.21-.02.17.14c.08.07.18.12.3.17.11.05.24.09.38.12.43.1.87.14,1.31.12-.04.31-.11.62-.2.93h3.11c-.2-1.52-.41-2.35-.53-2.75,0,0-.02.02-.02.02Zm-4.66.82c.48.2,1.03.35,1.64.44.14.02.29.05.45.06h0s-.08.02-.12.03c-.19.03-.44.05-.75.03-.54-.16-.94-.35-1.22-.56,0,0,0,0,0,0Zm2.76.8c-.2.13-1.09.13-1.77-.04-.12-.03-.25-.06-.36-.11,0,0-.01,0-.02,0,.61.06,1.07.06,1.38.01.07-.01.13-.03.2-.05.06-.02.11-.04.15-.07l.05-.03-.02-.05c-.21-.59-.53-.88-.83-1.01-.13-.05-.26-.08-.4-.08-.13,0-.25.03-.35.07-.11.04-.21.11-.29.2-.32-.46-.45-.88-.45-1.19,0-.2.07-.36.17-.49.1-.13.26-.21.46-.26.41-.08.87.04,1.25.2-.04.12-.05.24-.05.36,0,.94.86,1.68.92,2.43,0,.05-.01.09-.05.11,0,0,0,0,0,0Zm-.33-1.74c-.54-.25-.36-1.05-.24-.93.03.03.09.08.17.12-.17.11-.18.32-.05.62.02-.2.15-.37.32-.45.15.08.28.15.28.15-.24.12-.4.29-.48.5,0,0,0,0,0,0Zm10.64.73c.6-.17.92-.62.96-1.36-1.69,1.42-4.35-1.92-5.92,1.55.85,1.73,2.54,1.55,3.14.56.33.29.49.8.41,1.39h2.16c-.08-1-.33-1.71-.76-2.13,0,0,0,0,0,0Z"/><path class="cls-6" d="m33.98,34.05c.06-.12.17-.22.29-.27v.06c0,.1.02.23,0,.35-.02,0-.02.02-.04.03h.14c.01-.13.01-.26,0-.39,0-.05,0-.09,0-.12,0-.02,0-.05,0-.06,0,0,0-.01.01-.01h.05s.11.05.2.12c.14.11.49.3.85.47h.28c-.41-.2-.89-.44-1.05-.57-.1-.08-.17-.13-.23-.14-.05-.01-.1-.01-.13,0-.04.02-.06.05-.08.08,0,.02-.02.03-.02.05-.17.06-.31.19-.4.35-.03.07-.05.15-.06.23h.11c.01-.06.03-.12.05-.17,0,0,0,0,0,0Z"/><path class="cls-6" d="m52.72,17.12h-2.16c-.2,1.4-1.86,3.25-6.17,3.52,0-.24-.02-.48-.03-.71-.06-.94-.15-1.88-.26-2.82h-3.11c-.05.16-.11.32-.19.47-.3.49-1.09,1.42-1.15,2.35-.02.23-.02.47-.03.71-4.32-.27-5.97-2.11-6.17-3.52h-2.16c-.01.2-.02.42-.02.65v16.45h1.33v-13.65c.11.11.23.22.36.32v13.33h.26l1.06-.89v-11.55c.11.06.23.12.36.18v11.06l1.33-1.12v-9.43c.12.04.24.08.36.11v9.01l1.33-1.12v-7.61c.12.02.24.04.36.06v7.25l1.33-1.12v-5.99l.35.02c.14,1.71.42,3.56.75,5.4l-3.46,3.78,1.09-.14-1.52,2.08h.15l1.54-2.1.73-.09v.78l-1.51,1.41h.18l1.33-1.25v1.25h.14l1.49-2.37c.02.89,0,1.68-.07,2.37h2.91c-.07-.79-.09-1.58-.07-2.37l1.49,2.37h.14v-1.25l1.34,1.25h.18l-1.51-1.41v-.78l.73.09,1.54,2.1h.15l-1.52-2.08,1.09.14-3.46-3.78c.34-1.84.62-3.68.75-5.4.12,0,.23-.01.35-.02v5.99l1.33,1.12v-7.25c.12-.02.24-.04.36-.06v7.61l1.33,1.12v-9.02c.12-.04.24-.07.36-.11v9.43l1.33,1.12v-11.06c.13-.06.25-.12.36-.18v11.55l1.06.89h.26v-13.33c.13-.1.25-.22.36-.32v13.65h1.33v-16.46c0-.23,0-.45-.02-.65h-.02Z"/><path class="cls-6" d="m49.73,33.65s0-.04-.01-.05c-.01-.04-.04-.07-.08-.08-.04-.01-.09-.01-.13,0-.06.02-.14.06-.23.14-.16.13-.64.38-1.05.57h.28c.35-.17.71-.35.85-.47.06-.05.12-.09.2-.12.02,0,.04,0,.05,0h.02s0,.05,0,.08c0,.03,0,.08,0,.12,0,.11-.02.25,0,.39h.14s-.02-.02-.04-.03c-.02-.13,0-.26,0-.35v-.06c.13.05.23.15.29.27.02.05.04.11.05.17h.11c-.02-.08-.03-.17-.06-.23-.08-.16-.2-.27-.4-.35h.01Zm-12.2,4.26c.69,1.4,1.75,1.65,3.2.74l1.27,1.55,1.27-1.55c1.45.91,2.51.66,3.2-.74-1.74.29-2.73-.94-3.01-3.68h-2.91c-.27,2.75-1.28,3.98-3.01,3.68Zm-1.75-3.68h-.28c.43.21.85.4.86.4l.05.02.03-.04.28-.38h-.15l-.2.27c-.09-.05-.33-.14-.58-.27h0Z"/><path class="cls-6" d="m47.6,34.64l.05-.02s.43-.19.86-.4h-.28c-.26.12-.49.23-.58.27l-.2-.27h-.15l.28.38.03.04h0Zm-14.66-.2l.26-.23h-.26v.23Zm-1.69,1.42l1.33-1.12v-.53h-1.33v1.65Zm7.73-1.42l.14-.23h-.14v.23Zm12.08,0v-.23h-.26l.26.23Z"/><path class="cls-6" d="m50.11,34.61c-.09-.15-.22-.29-.36-.39h-.14s0,.08.01.11c.02.1.04.14.02.16-.04.03-.16.05-.38.08-.49.06-1.28.31-1.28.31l-.14.05.12.07s1.38.8,1.56.93c.08.05.22.1.35.17.11.05.22.08.27.11h-.02c-.17.06-.39.14-.56.31-.06.06-.09.14-.12.2-.02.05-.04.08-.05.09-.02.02-.08-.03-.21-.22-.37-.51-1.46-1.25-1.46-1.25l-.08-.06v.11s-.07.81.05,1.56c.02.11.04.2.05.28.03.16.05.24.04.26l-.13-.02c-.05,0-.11-.02-.2-.03-.36-.05-.46-.02-.54,0-.02,0-.04,0-.05,0,0-.07.05-.2.1-.32.02-.06.05-.11.06-.16.06-.2.07-1.62.07-1.62v-.08l-.08.02s-.86.25-1.11.51c-.1.1-.17.1-.24.06-.08-.05-.15-.15-.2-.23-.08-.12-.2-.17-.31-.22-.07-.03-.14-.05-.18-.1h0s.06-.04.09-.05c.12-.05.32-.08.53-.08.43,0,1.52-.25,1.52-.25l.11-.02-.08-.08-.58-.54h-.18l.6.56c-.29.06-1.05.22-1.38.22-.2,0-.39.03-.57.09-.05.02-.09.04-.13.08-.04.04-.06.08-.05.13,0,.02.01.05.04.06.02.02.04.03.06.05-.1.18-.11.4-.05.6.06.17.17.33.31.43.05.05.11.08.17.11l.13.07-.05-.14s-.03-.1-.04-.15c0-.05-.01-.1-.01-.14,0-.13.01-.25.05-.38.04.05.09.09.14.13.11.07.24.07.39-.08.19-.2.77-.38.98-.45,0,.3,0,1.35-.06,1.5-.02.05-.04.1-.05.15-.05.13-.11.28-.11.37,0,.08.03.12.1.12.04,0,.07,0,.1-.01.05,0,.1-.02.21-.01,0,.01,0,.04,0,.05-.04.2-.15.41-.35.68l-.11.14.17-.05c.37-.1.64-.21.78-.35.11-.1.16-.25.12-.4.05,0,.09,0,.11-.06.03-.06.01-.15-.02-.34-.02-.09-.03-.19-.05-.28-.09-.57-.08-1.19-.07-1.42.26.19,1.05.76,1.34,1.16.2.27.3.31.38.24.04-.03.06-.08.09-.14.02-.04.04-.08.06-.11.06.25.05.51,0,.76l-.04.19.14-.13c.27-.24.45-.54.52-.78.03-.09.04-.19.03-.28,0-.04,0-.07-.02-.11.06-.02.08-.06.06-.11-.02-.08-.2-.14-.38-.22-.14-.05-.27-.11-.33-.15-.15-.1-1.1-.66-1.45-.86.24-.08.76-.22,1.12-.26.25-.03.38-.05.45-.1.08-.05.07-.12.05-.23.12.1.23.26.35.48l.1.17.02-.2c.02-.24,0-.43-.03-.6h-.11c.03.11.05.24.04.39l-.03-.03Zm-4.82,1.73s-.02,0-.03,0c-.12-.1-.22-.23-.27-.38-.05-.14-.05-.32.04-.5.02,0,.04.01.05.02.1.04.2.08.26.17,0,0,.02.02.02.03-.07.16-.1.33-.09.5,0,.05,0,.11.02.16Zm2.26,1.56c-.11.1-.29.2-.56.28.14-.22.23-.42.26-.59,0-.02,0-.05,0-.07.05,0,.11,0,.17.02.08,0,.14.02.19.03.04.13.01.24-.08.33Zm2.57-1.25c-.07.22-.19.43-.35.6.01-.12.02-.24.01-.35,0-.12-.03-.23-.06-.35.13-.11.28-.16.42-.2,0,.02.02.05.02.08,0,.07,0,.14-.02.23h0Zm-5.1-2.2v-.23h-.14l.14.23Zm-8.13.32l-.08.08.11.02s1.09.25,1.52.25c.21,0,.41.03.53.08.04.02.07.03.09.05h0c-.05.05-.11.08-.18.1-.11.05-.23.1-.31.22-.06.09-.13.19-.2.23-.07.04-.15.04-.24-.06-.25-.26-1.11-.51-1.11-.51l-.08-.02v.08s0,1.43.06,1.62c.01.05.04.1.06.16.05.12.1.25.1.32-.02,0-.04,0-.05,0-.08-.02-.18-.04-.54,0-.08,0-.14.02-.2.03l-.13.02s0-.1.03-.26c.01-.08.03-.17.05-.28.12-.75.06-1.55.06-1.56v-.11l-.09.06s-1.09.75-1.46,1.25c-.14.2-.2.23-.22.22-.02-.01-.03-.05-.05-.09-.03-.06-.06-.14-.12-.2-.17-.17-.38-.24-.56-.3h-.01c.06-.03.17-.08.27-.12.12-.04.24-.1.35-.17.18-.12,1.56-.92,1.56-.93l.12-.07-.14-.05s-.79-.25-1.28-.31c-.23-.03-.35-.05-.38-.08-.02-.01,0-.06.01-.16,0-.04,0-.08.02-.11h-.14c-.12.08-.24.2-.36.39,0-.15,0-.28.04-.39h-.11c-.04.2-.05.4-.03.6v.2s.11-.17.11-.17c.12-.23.24-.38.35-.48-.02.11-.03.17.05.23.07.05.19.06.44.1.35.05.88.2,1.12.26-.35.2-1.31.76-1.45.86-.06.05-.2.1-.33.15-.18.08-.36.14-.38.22-.02.05,0,.08.06.11,0,.04-.02.07-.02.11,0,.09,0,.19.03.28.07.25.26.54.52.78l.14.13-.04-.19c-.04-.17-.05-.34-.05-.51,0-.09.01-.17.04-.26.02.04.05.08.06.11.03.06.05.11.09.14.08.06.19.02.38-.24.29-.4,1.08-.97,1.34-1.16.02.24.03.85-.07,1.42-.02.11-.04.2-.05.28-.04.19-.05.29-.02.34.02.05.06.06.11.06-.03.15.01.3.12.4.14.14.41.26.79.35l.17.05-.11-.14c-.2-.26-.31-.48-.35-.68,0-.02,0-.04,0-.05.11,0,.17,0,.21.01.03,0,.06.02.1.02.08,0,.1-.05.1-.12,0-.09-.06-.23-.11-.37-.02-.05-.04-.1-.05-.15-.05-.15-.05-1.2-.06-1.5.21.07.79.26.98.45.14.15.28.14.39.08.05-.03.1-.08.14-.13.04.12.06.25.05.38,0,.1-.02.19-.05.29l-.05.14.13-.07c.06-.03.12-.07.17-.11.14-.11.26-.26.31-.43.07-.2.05-.41-.05-.6.02-.01.04-.03.06-.05.01-.02.03-.04.04-.06.01-.05,0-.09-.05-.13-.03-.03-.08-.06-.12-.08-.18-.06-.38-.09-.57-.09-.33,0-1.09-.16-1.38-.22l.6-.56h-.18l-.58.54-.02.04h0Zm-2.65,2.46c-.16-.17-.28-.37-.36-.6-.02-.08-.03-.16-.02-.23,0-.03,0-.05.02-.08.14.05.29.1.41.2-.03.11-.05.23-.06.35,0,.11,0,.23.01.35h0Zm2.78.94c-.26-.08-.45-.17-.56-.28-.09-.09-.11-.2-.08-.33.05,0,.11-.02.19-.03.07,0,.12-.02.17-.02,0,.02,0,.05,0,.07.03.17.12.37.26.59h0Zm2-2.22c-.05.15-.15.28-.27.38,0,0-.02.02-.03.02,0-.07.02-.12.02-.17,0-.17-.02-.34-.09-.5,0,0,.01-.02.02-.03.06-.09.16-.14.26-.17.01,0,.04-.02.05-.02.08.15.09.33.04.5Zm12.4-1.21l1.33,1.12v-1.65h-1.33v.53Z"/><path class="cls-5" d="m41.21,14.06c-.13-.3-.11-.51.05-.62-.06-.03-.12-.07-.17-.12-.12-.12-.3.68.24.93.08-.2.24-.37.48-.5,0,0-.13-.07-.28-.15-.18.09-.3.26-.32.45,0,0,0,0,0,0Z"/><path class="cls-3" d="m40.87,15.71s.08-.01.12-.02h0c-.15-.02-.29-.04-.45-.06-.61-.1-1.15-.24-1.64-.44.27.21.68.4,1.22.56.31.01.56,0,.75-.03Z"/><path class="cls-3" d="m40.84,13.08c-.38-.17-.83-.29-1.25-.2-.18.03-.34.12-.46.26-.11.14-.18.31-.17.49,0,.33.13.73.45,1.19.08-.09.18-.15.29-.2.1-.04.22-.07.35-.07s.26.02.4.08c.31.13.62.42.83,1.01l.02.05-.05.02s-.1.05-.15.07c-.06.02-.13.04-.2.05-.32.05-.78.05-1.38-.02,0,0,.01,0,.02,0,.11.05.23.08.36.11.68.17,1.56.17,1.77.04.03-.02.05-.06.05-.11-.06-.76-.92-1.5-.92-2.43,0-.15.02-.27.05-.36,0,0,0,.02,0,.02Zm-1.92,22.4c-.1.04-.2.08-.26.17,0,0-.02.02-.02.03.07.16.1.32.09.5,0,.05,0,.11-.02.16,0,0,.02,0,.03,0,.12-.1.22-.23.27-.38.05-.14.05-.32-.04-.5-.02,0-.04.01-.05.02Zm-2.18,2.03s-.11,0-.17.01c-.08,0-.14.02-.19.03-.04.13-.01.24.08.33.11.11.29.2.56.28-.14-.22-.23-.42-.26-.59,0-.02,0-.05,0-.07Zm-2.87-1.19s-.02.05-.02.08c0,.07,0,.14.02.23.05.19.17.4.36.6-.02-.12-.02-.23-.02-.35,0-.12.03-.23.06-.35-.13-.11-.28-.16-.42-.2h0Zm.41-2.48v-.06c-.13.05-.23.15-.29.27-.02.05-.04.11-.05.17h.33s.02-.02.04-.03c.02-.13,0-.26,0-.36h0Z"/><path class="cls-3" d="m33.9,34.61c.12-.19.24-.31.36-.39h-.33c-.03.11-.05.24-.04.39Zm.75-.86c-.06-.05-.12-.09-.2-.12-.02,0-.04,0-.05,0h-.02s0,.05,0,.08c0,.03,0,.08,0,.12.02.11.02.25,0,.39h1.1c-.35-.17-.71-.35-.85-.47Zm4.33-.94v-.78l-.73.1-1.53,2.09h.76l1.51-1.41Z"/><path class="cls-3" d="m36.4,34.64l-.05-.02s-.43-.19-.86-.4h-1.1s0,.08-.01.11c-.02.1-.04.14-.02.16.04.03.16.05.38.08.49.06,1.28.31,1.28.31l.14.05-.12.07s-1.38.8-1.56.93c-.08.05-.22.1-.35.17-.11.05-.22.08-.27.11h.02c.17.06.39.14.56.31.06.06.09.14.12.2.02.05.04.08.05.09.02.02.08-.03.22-.22.37-.51,1.46-1.25,1.46-1.25l.08-.06v.11s.07.81-.05,1.56c-.02.11-.04.2-.05.28-.03.16-.05.24-.03.26l.13-.02c.05,0,.11-.02.2-.03.35-.05.46-.02.54,0,.02,0,.04,0,.05,0,0-.07-.05-.2-.1-.32-.02-.06-.05-.11-.06-.16-.06-.2-.06-1.62-.06-1.62v-.08l.08.02s.86.25,1.11.51c.1.1.17.1.24.06.08-.05.15-.15.2-.23.08-.12.2-.17.31-.22.07-.03.14-.05.18-.1h0s-.06-.04-.09-.05c-.17-.06-.35-.08-.53-.08-.43,0-1.52-.25-1.52-.25l-.11-.02.08-.08.58-.54h-.76l-.28.38-.03.04.02-.03h0Z"/><path class="cls-2" d="m45.33,35.66c-.06-.09-.16-.14-.26-.17-.01,0-.04-.02-.05-.02-.08.15-.09.33-.04.5.05.15.15.28.27.38,0,0,.02.02.03.02,0-.07-.02-.12-.02-.17,0-.17.02-.34.09-.5,0,0-.01-.02-.02-.03Zm2.29,1.91c-.05,0-.11-.02-.19-.03-.07,0-.12-.02-.17-.02,0,.02,0,.05,0,.07-.03.17-.12.37-.26.59.26-.08.45-.17.56-.28.09-.09.11-.2.08-.33h0Zm2.1-1.04c.03.11.05.23.06.35,0,.11,0,.23-.02.35.18-.2.3-.41.36-.6.02-.08.03-.16.02-.23,0-.03,0-.05-.02-.08-.14.05-.29.1-.41.2h0Zm.3-2.48c-.06-.12-.16-.21-.29-.27v.06c0,.1-.02.23,0,.35.01,0,.02.02.04.03h.32c-.02-.06-.03-.12-.05-.17,0,0-.01,0-.01,0Z"/><path class="cls-2" d="m50.11,34.61c0-.15,0-.28-.04-.39h-.32c.12.08.24.2.36.39Zm-4.35-2.48l-.73-.1v.78l1.51,1.41h.76s-1.53-2.09-1.53-2.09Zm3.85,1.7s0-.09,0-.12c0-.02,0-.05,0-.06,0,0,0-.01-.02-.01h-.05c-.07.03-.14.07-.2.12-.14.11-.49.3-.85.47h1.1c-.01-.13-.01-.26,0-.39Z"/><path class="cls-2" d="m47.2,34.85l-.11.02s-1.09.25-1.52.25c-.21,0-.41.03-.53.08-.03.01-.06.03-.09.05h0c.05.05.11.08.18.1.11.05.23.1.31.22.06.09.13.19.2.23.07.04.15.04.24-.06.26-.26,1.11-.51,1.11-.51l.08-.02v.08s0,1.43-.07,1.62c-.01.05-.04.1-.06.16-.05.12-.1.25-.1.32.02,0,.04,0,.05,0,.08-.02.18-.04.54,0,.08,0,.14.02.2.03.08.02.13.02.13.02,0-.02,0-.1-.04-.26-.02-.09-.03-.19-.05-.28-.12-.75-.06-1.55-.06-1.56v-.11l.09.06s1.09.75,1.46,1.25c.14.2.2.23.21.22.01-.02.03-.05.05-.09.03-.06.06-.14.12-.2.17-.17.38-.24.56-.3h.02c-.06-.03-.17-.08-.27-.12-.12-.04-.24-.1-.35-.17-.18-.12-1.56-.92-1.56-.93l-.12-.07.14-.05s.79-.25,1.28-.31c.23-.03.35-.05.38-.08.02-.01,0-.06-.02-.16,0-.04,0-.08-.01-.11h-1.1c-.43.21-.85.4-.86.4l-.05.02-.03-.04-.28-.38h-.76l.58.54.08.08.05.03h0Z"/></svg>