<svg xmlns="http://www.w3.org/2000/svg" width="84" height="66"><path fill="#FFF" d="M0 0h84v66H0V0Z"/>
<path fill="#BE0026" d="M84 5.11 39.898 29.623 73.144 0h-12.56L37.985 27.811 51.566 0h-7.858l-8.205 26.855L37.446 0h-6.495l1.888 26.892L24.284 0h-7.302l13.416 27.931L7.772 0H0v3.592l28.536 26.211L0 14.659v8.472l27.553 9.094L0 29.493v7.172l27.598-1.837L0 43.522v8.447l28.659-14.75L0 61.721V66h7.573l23-26.968L16.591 66h7.812l8.648-26.012L31.103 66h6.145L35.72 39.947 43.655 66h7.859L38.168 38.91 61.191 66h12.454L40.023 37.039 84 61.004V49.196L40.998 34.617 84 38.105v-9.928l-43.039 3.836L84 18.274V5.11Z"/><circle fill="#BE0026" cx="34" cy="33" r="16"/></svg>
