<svg xmlns="http://www.w3.org/2000/svg" width="84" height="66"><path fill="red" d="M0 0h84v66H0z"/><path fill="#000095" d="M16 15h52v36H16z"/><path fill="#FFF" fill-rule="evenodd" d="m47.436 28.072 5.823-1.568-4.275 4.265c-.317-1-.845-1.92-1.548-2.697Zm-3.2-2.052 4.265-4.275-1.568 5.823a7.31 7.31 0 0 0-2.699-1.548h.002Zm-3.784-.214 1.546-5.808 1.548 5.8a7.149 7.149 0 0 0-3.095.009l.001-.001Zm-4.954-4.062 4.265 4.275a7.296 7.296 0 0 0-2.7 1.547l-1.565-5.822Zm-.484 9.024-4.275-4.265 5.822 1.568a7.299 7.299 0 0 0-1.548 2.698l.001-.001Zm-.383 2.236c.001.52.058 1.039.168 1.547l-5.8-1.547 5.8-1.548a7.337 7.337 0 0 0-.169 1.55l.001-.002Zm1.93 4.934-5.823 1.568 4.275-4.265a7.34 7.34 0 0 0 1.547 2.698l.001-.001Zm3.2 2.051-4.265 4.275 1.568-5.822a7.335 7.335 0 0 0 2.698 1.549l-.001-.002Zm3.784.214-1.548 5.8-1.549-5.8a7.178 7.178 0 0 0 3.098.002l-.001-.002Zm4.954 4.062-4.265-4.275a7.34 7.34 0 0 0 2.7-1.547l1.565 5.822Zm-6.5-4.759a6.5 6.5 0 1 1 .005-13.003 6.5 6.5 0 0 1-.007 13.004l.002-.001Zm6.985-4.265 4.275 4.265-5.823-1.567a7.33 7.33 0 0 0 1.548-2.697v-.001Zm6.017-2.236-5.8 1.548a7.172 7.172 0 0 0 0-3.1l5.8 1.552Z"/></svg>