<?xml version="1.0" encoding="UTF-8"?><svg id="Layer_1" xmlns="http://www.w3.org/2000/svg" viewBox="0 0 84 51.33"><defs><style>.cls-1{fill:#fff;fill-rule:evenodd;}.cls-2{fill:#000095;}.cls-3{fill:red;}</style></defs><path class="cls-3" d="m0,0h84v51.92H0V0Z"/><path class="cls-2" d="m21.55,11.8h40.91v28.32H21.55V11.8Z"/><path class="cls-1" d="m46.28,22.08l4.58-1.23-3.36,3.36c-.25-.79-.66-1.51-1.22-2.12Zm-2.52-1.61l3.36-3.36-1.23,4.58c-.61-.55-1.34-.97-2.12-1.22h0Zm-2.98-.17l1.22-4.57,1.22,4.56c-.8-.18-1.63-.17-2.43,0,0,0,0,0,0,0Zm-3.9-3.2l3.36,3.36c-.79.25-1.51.66-2.12,1.22l-1.23-4.58Zm-.38,7.1l-3.36-3.36,4.58,1.23c-.55.61-.97,1.34-1.22,2.12,0,0,0,0,0,0Zm-.3,1.76c0,.41.05.82.13,1.22l-4.56-1.22,4.56-1.22c-.09.4-.13.81-.13,1.22h0Zm1.52,3.88l-4.58,1.23,3.36-3.36c.25.79.66,1.51,1.22,2.12h0Zm2.52,1.61l-3.36,3.36,1.23-4.58c.61.55,1.34.97,2.12,1.22,0,0,0,0,0,0Zm2.98.17l-1.22,4.56-1.22-4.56c.8.18,1.63.18,2.44,0h0Zm3.9,3.19l-3.36-3.36c.79-.25,1.51-.66,2.12-1.22,0,0,1.23,4.58,1.23,4.58Zm-5.11-3.74c-2.82,0-5.11-2.29-5.11-5.12s2.29-5.11,5.12-5.11h0c2.83,0,5.11,2.29,5.11,5.12,0,2.83-2.29,5.11-5.12,5.11h0Zm5.5-3.36l3.36,3.36-4.58-1.23c.55-.61.97-1.34,1.22-2.12,0,0,0,0,0,0Zm4.73-1.76l-4.56,1.22c.18-.8.18-1.64,0-2.44l4.56,1.22Z"/></svg>