<svg xmlns="http://www.w3.org/2000/svg" width="84" height="66"><path d="M0-.01v22h84v-22H0Z"/><path fill="#DA1F26" d="M84 22H0v22h84V22Z"/><path fill="#FDCD07" d="M0 44v22h84V44H0Z"/><path fill="#FFD200" d="M29.183 19.256c-.776-.213-1.184-.795-1.232-1.747 2.174 1.825 5.59-2.465 7.609 1.99-1.087 2.223-3.261 1.99-4.038.718-.427.369-.63 1.029-.524 1.786h9.697c.106-.349.203-.767.262-1.194a6.822 6.822 0 0 1-1.689-.155 3.723 3.723 0 0 1-.495-.155 1.592 1.592 0 0 1-.388-.214l-.224-.174.272.029c.185.019.369.039.534.058-.66-.252-1.116-.544-1.378-.874a.093.093 0 0 1-.02-.087c.02-.039.068-.058.107-.039.699.34 1.524.583 2.465.738.185.029.369.058.563.078a.73.73 0 0 1 .146.019c-.252-.612-.592-.922-.932-1.058a1.117 1.117 0 0 0-.456-.087c-.146 0-.282.029-.398.077-.184.068-.311.175-.349.272l-.049.136-.078-.117c-.485-.669-.689-1.261-.669-1.727 0-.291.106-.544.262-.728a1.24 1.24 0 0 1 .679-.379c.447-.097 1.029-.009 1.699.282.31-.456 1.087.039 1.572.291.621.32 2.174.796 3.028.796a2.854 2.854 0 0 1-1.174.708c.165.515.437 1.582.679 3.533h8.318c.107-.757-.097-1.417-.524-1.786-.776 1.272-2.95 1.515-4.038-.718 2.019-4.445 5.436-.155 7.61-1.989-.049.951-.466 1.533-1.233 1.747.553.543.874 1.455.971 2.737h1.427v-6.397H26.767v6.397h1.426c.097-1.282.418-2.194.971-2.737l.019-.03ZM45.878 43.997h1.717l-1.717-1.611v1.611ZM53.642 26.856v17.141h.466V26.439a9.773 9.773 0 0 1-.466.417ZM29.882 26.439v17.558h.466V26.856c-.165-.136-.32-.281-.466-.417ZM51.934 28.001a9.63 9.63 0 0 1-.466.233v14.22l-1.708-1.437V28.894a8.184 8.184 0 0 1-.466.136v11.599l-1.708-1.437v-9.783c-.156.029-.311.048-.466.077v9.318l-1.708-1.436v-7.697l-.457.029c-.174 2.203-.533 4.571-.96 6.94l4.445 4.862-1.398-.174 1.961 2.669h1c.524-.253 1.145-.563 1.349-.728.126-.107.223-.165.301-.185.067-.019.126-.019.165 0 .048.02.077.059.097.107 0 .02.019.039.019.068a.937.937 0 0 1 .514.447c.039.087.059.194.078.3h.777l-1.369-1.145v-14.86Z"/><path fill="#FFD200" d="M45.062 26.526c5.552-.349 7.678-2.717 7.94-4.523h-8.318c.126.971.242 2.165.339 3.621.02.291.03.601.039.912v-.01ZM38.928 26.526c0-.31.02-.611.039-.912.078-1.194 1.087-2.388 1.475-3.019.088-.145.165-.359.243-.601h-9.696c.262 1.805 2.387 4.173 7.939 4.522v.01ZM55.816 22.838v21.168H57a9.323 9.323 0 0 0 .214-2.018V22.003h-1.427c.02.262.029.544.029.835ZM28.174 22.838c0-.301.01-.573.029-.835h-1.427v19.985c0 .737.078 1.397.214 2.018h1.184V22.838ZM36.405 43.997h1.708v-1.602l-1.708 1.602ZM43.868 43.997h1.825l-1.922-3.048a24.88 24.88 0 0 0 .088 3.048h.009ZM40.209 40.949l-1.921 3.048h1.824a24.88 24.88 0 0 0 .088-3.048h.009ZM32.066 43.259s.01-.048.019-.068a.182.182 0 0 1 .098-.107.244.244 0 0 1 .165 0c.077.02.174.078.3.185.204.165.825.485 1.35.728h.999l1.961-2.669-1.408.174 4.446-4.862c-.437-2.359-.796-4.737-.961-6.94-.155 0-.301-.019-.456-.029v7.697l-1.709 1.436v-9.318c-.155-.019-.31-.048-.465-.077v9.783l-1.709 1.437V29.04c-.155-.049-.31-.087-.466-.136v12.123l-1.708 1.436V28.244c-.165-.078-.32-.155-.466-.233v14.85l-1.368 1.145h.786a1.33 1.33 0 0 1 .078-.3.908.908 0 0 1 .514-.447ZM50.003 43.997h-1l.252.349c.117-.058.418-.184.748-.349Z"/><path fill="#FFD200" d="m34.755 44.346.252-.349h-1c.33.155.631.291.748.349Z"/><path fill="#FFD200" d="M36.443 51.49c2.427.825 4.601 1.562 5.552 2.911.951-1.349 3.125-2.086 5.552-2.911 3.882-1.32 8.425-2.873 9.444-7.493h-1.184v2.116l-1.709-1.437v-.679h-.465v.281l-.34-.281h-.777c.049.213.059.466.039.767l-.019.252-.126-.223c-.156-.292-.311-.495-.457-.622.03.146.039.224-.058.301-.087.059-.242.078-.572.127-.457.058-1.126.252-1.447.339.447.253 1.679.971 1.864 1.107.078.058.252.126.427.194.233.097.466.184.495.281.019.059 0 .107-.078.136.01.039.02.088.029.136.01.107 0 .233-.038.359-.088.32-.33.699-.67 1.01l-.175.165.049-.243c.048-.233.068-.447.058-.65 0-.117-.019-.224-.049-.33a1.018 1.018 0 0 0-.077.145c-.039.078-.068.136-.117.175-.106.078-.242.029-.495-.311-.378-.514-1.388-1.252-1.727-1.494-.02.31-.039 1.096.087 1.824.019.146.049.262.058.359.049.243.068.369.029.437-.029.058-.077.078-.145.078a.539.539 0 0 1-.156.514c-.184.185-.524.34-1.009.456l-.213.059.135-.185c.253-.33.398-.621.447-.873 0-.02 0-.049.01-.068-.146 0-.214 0-.272.019-.039 0-.078.02-.126.02-.097 0-.127-.059-.127-.156 0-.116.078-.301.136-.475.029-.068.059-.136.068-.194.068-.194.068-1.544.078-1.932-.272.088-1.019.34-1.262.583-.184.194-.359.184-.505.097a.742.742 0 0 1-.184-.165c-.058.155-.078.32-.068.485a1.26 1.26 0 0 0 .068.369l.058.184-.165-.087a1.141 1.141 0 0 1-.223-.146 1.15 1.15 0 0 1-.398-.553.978.978 0 0 1 .058-.767c-.029-.019-.048-.039-.077-.058-.02-.029-.039-.049-.049-.078-.019-.058 0-.116.058-.165a.525.525 0 0 1 .165-.097c.175-.068.447-.116.738-.116.427 0 1.407-.204 1.776-.282l-.767-.718h-1.717v.282l-.175-.282h-1.825c.35 3.533 1.64 5.115 3.873 4.737-.883 1.795-2.252 2.115-4.116.951l-1.63 1.989-1.631-1.989c-1.863 1.164-3.232.844-4.115-.951 2.232.378 3.514-1.204 3.873-4.737h-1.825l-.175.282v-.282h-1.708l-.767.718c.369.078 1.349.282 1.776.282.292 0 .563.048.738.116a.383.383 0 0 1 .155.097c.049.049.078.107.059.165 0 .029-.02.059-.049.078a.479.479 0 0 1-.078.058.979.979 0 0 1 .059.767 1.226 1.226 0 0 1-.398.553 1.119 1.119 0 0 1-.224.146l-.165.087.059-.184c.019-.059.039-.126.048-.194a1.402 1.402 0 0 0-.048-.67.745.745 0 0 1-.185.165c-.145.087-.31.087-.504-.097-.243-.253-.99-.495-1.262-.583 0 .389.01 1.738.077 1.932.02.058.049.126.068.194.068.165.136.359.136.476 0 .097-.039.155-.126.155-.048 0-.087 0-.126-.019-.058-.01-.126-.03-.272-.02 0 .02 0 .049.01.068.048.252.194.534.446.874l.136.184-.213-.058c-.476-.126-.825-.272-1.01-.456a.536.536 0 0 1-.155-.515c-.068 0-.116-.01-.146-.077-.038-.078-.019-.195.03-.437.019-.097.038-.214.058-.359.116-.738.097-1.524.087-1.825-.34.243-1.349.971-1.728 1.495-.252.349-.388.398-.495.31-.048-.039-.077-.107-.116-.174a.677.677 0 0 0-.078-.146c-.029.107-.038.213-.048.33-.01.204 0 .427.058.65l.049.243-.175-.165c-.35-.311-.582-.689-.67-1.01-.039-.126-.048-.242-.039-.359 0-.048.01-.087.029-.136-.077-.029-.097-.077-.077-.135.029-.097.262-.185.495-.282.175-.068.349-.136.427-.194.184-.126 1.417-.844 1.863-1.106-.31-.098-.98-.282-1.446-.34-.32-.039-.485-.058-.572-.126-.097-.068-.088-.156-.059-.301-.155.126-.301.33-.456.621l-.126.223-.019-.252c-.03-.311 0-.553.038-.767h-.786l-.339.291v-.291h-.466v.679l-1.709 1.437v-2.116h-1.184c1.019 4.62 5.562 6.173 9.444 7.493l-.01.01Z"/><path fill="#231F20" d="M26.776 15.607h30.438v6.396h.311v-6.716H26.466v6.716h.31v-6.396Z"/><path fill="#231F20" d="M57.214 41.978c0 .738-.078 1.398-.214 2.019h.321c.126-.621.204-1.281.204-2.019V21.994h-.311v19.984ZM26.679 43.997H27a9.325 9.325 0 0 1-.214-2.019V21.994h-.311v19.984c0 .728.078 1.398.204 2.019ZM47.547 51.49c-2.427.825-4.601 1.562-5.552 2.911-.951-1.349-3.125-2.086-5.552-2.911-3.882-1.32-8.424-2.873-9.443-7.493h-.321c1.01 4.843 5.678 6.435 9.667 7.794 2.495.844 4.708 1.601 5.513 2.979l.136.224.136-.224c.815-1.388 3.028-2.135 5.513-2.979 3.989-1.359 8.658-2.951 9.667-7.794h-.32c-1.019 4.62-5.562 6.173-9.444 7.493ZM31.513 20.217c.776 1.272 2.95 1.514 4.037-.718-2.018-4.445-5.435-.155-7.609-1.99.049.952.466 1.534 1.233 1.747-.554.544-.874 1.456-.971 2.738h2.776c-.107-.758.097-1.418.524-1.786l.01.009ZM44.004 18.47a2.97 2.97 0 0 0 1.175-.708c-.854 0-2.407-.476-3.029-.796-.485-.252-1.261-.747-1.572-.291-.67-.291-1.252-.369-1.698-.282a1.2 1.2 0 0 0-.68.379 1.095 1.095 0 0 0-.262.728c-.019.475.194 1.067.67 1.727l.077.117.049-.136c.039-.097.165-.194.349-.272a1.58 1.58 0 0 1 .398-.077c.146 0 .301.019.456.087.33.136.67.456.932 1.058a.723.723 0 0 1-.145-.02 9.557 9.557 0 0 1-.563-.077c-.942-.146-1.767-.398-2.466-.738-.038-.019-.087 0-.106.039-.01.029 0 .068.019.087.262.33.728.621 1.378.874a31.4 31.4 0 0 0-.533-.058l-.272-.03.223.175c.107.088.233.155.388.214.146.058.311.116.495.155a6.025 6.025 0 0 0 1.689.155 7.713 7.713 0 0 1-.262 1.194h3.999c-.253-1.951-.524-3.018-.68-3.533l-.029.029Zm-5.988 1.049c.621.252 1.32.446 2.106.572.184.029.378.058.573.078h.009s-.097.029-.155.039c-.243.038-.563.058-.961.038-.689-.203-1.213-.446-1.572-.718v-.009Zm3.552 1.028c-.262.165-1.398.165-2.271-.048a2.668 2.668 0 0 1-.466-.146c-.01 0-.019 0-.029-.009.786.077 1.378.077 1.776.019a3.29 3.29 0 0 0 .252-.058c.078-.029.146-.049.195-.088l.058-.038-.02-.068c-.271-.757-.679-1.136-1.067-1.301a1.42 1.42 0 0 0-.515-.097c-.165 0-.32.039-.446.087a.838.838 0 0 0-.369.253c-.408-.592-.582-1.126-.573-1.534 0-.252.088-.466.224-.631.135-.165.339-.272.592-.33.533-.107 1.116.049 1.601.262a1.478 1.478 0 0 0-.068.466c0 1.204 1.107 2.155 1.184 3.125 0 .068-.019.117-.058.146v-.01Zm-.427-2.232c-.699-.32-.466-1.349-.311-1.194.039.039.117.097.214.155-.214.146-.233.408-.058.796a.743.743 0 0 1 .417-.582c.194.107.359.194.359.194-.31.155-.514.369-.621.641v-.01ZM54.817 19.256c.776-.213 1.184-.795 1.232-1.747-2.174 1.825-5.59-2.465-7.609 1.99 1.087 2.223 3.261 1.99 4.038.718.427.369.63 1.029.524 1.786h2.776c-.098-1.281-.418-2.193-.971-2.737l.01-.01Z"/><path fill="#231F20" d="M31.688 43.774a.782.782 0 0 1 .378-.35v.078c.01.126.029.291.01.456-.02 0-.029.029-.049.039h.185a3.025 3.025 0 0 0 0-.505c0-.058-.01-.116-.01-.155 0-.029 0-.058.01-.078 0-.01 0-.019.019-.019h.058c.059.019.136.068.253.155.174.146.631.388 1.087.602h.359c-.524-.253-1.145-.563-1.349-.728-.126-.107-.224-.165-.301-.185-.068-.019-.126-.019-.165 0a.177.177 0 0 0-.097.107c0 .02-.02.039-.02.068a.944.944 0 0 0-.514.447c-.039.087-.058.194-.078.3h.146c.019-.077.039-.155.068-.223l.01-.009Z"/><path fill="#231F20" d="M55.787 22.003h-2.776c-.262 1.806-2.387 4.174-7.939 4.523 0-.31-.02-.611-.039-.912a58.7 58.7 0 0 0-.34-3.62h-3.998a3.11 3.11 0 0 1-.243.601c-.388.631-1.398 1.825-1.475 3.019-.02.301-.029.602-.039.912-5.552-.349-7.678-2.717-7.94-4.523h-2.776c-.019.262-.029.544-.029.835v21.159h1.709V26.439c.145.136.3.281.465.417v17.141h.34l1.369-1.146v-14.85c.145.078.301.156.466.233v14.22l1.708-1.437V28.894c.155.049.31.097.466.136v11.589l1.708-1.436v-9.784c.155.029.311.049.466.078v9.317l1.708-1.436v-7.697l.456.029c.175 2.204.534 4.572.961 6.94l-4.445 4.863 1.407-.175-1.96 2.669h.194l1.98-2.698.941-.117v1l-1.941 1.815h.233l1.708-1.601v1.601h.175l1.922-3.048c.029 1.146 0 2.155-.088 3.048h3.747a24.873 24.873 0 0 1-.088-3.048l1.922 3.048h.175v-1.611l1.718 1.611h.233l-1.941-1.815v-1l.941.117 1.98 2.698h.194l-1.96-2.669 1.397.175-4.445-4.863c.437-2.368.796-4.736.961-6.94.155 0 .301-.019.456-.029v7.697l1.708 1.436v-9.317c.156-.02.311-.049.466-.078v9.784l1.708 1.436V29.021c.156-.049.311-.088.466-.136v12.122l1.708 1.437V28.225c.165-.078.321-.156.466-.233v14.85l1.369 1.145h.34V26.846c.165-.135.32-.281.465-.417v17.558h1.709V22.819c0-.301-.01-.573-.029-.835l-.02.019Z"/><path fill="#231F20" d="M51.934 43.259s-.01-.048-.019-.068a.183.183 0 0 0-.097-.107.247.247 0 0 0-.166 0c-.077.02-.174.078-.3.185-.204.165-.825.485-1.349.728h.359c.456-.223.912-.456 1.087-.602a.863.863 0 0 1 .252-.155c.029-.01.049-.01.058 0l.02.019c0 .02.009.049.009.078 0 .039 0 .097-.009.155-.01.136-.02.32 0 .505h.184s-.029-.029-.048-.039c-.02-.165 0-.33.009-.456v-.078a.686.686 0 0 1 .369.35c.029.067.049.145.068.223h.146c-.02-.107-.039-.214-.078-.301-.097-.204-.262-.35-.514-.447l.019.01ZM36.249 48.733c.884 1.796 2.252 2.116 4.116.951l1.63 1.99 1.631-1.99c1.863 1.165 3.232.845 4.115-.951-2.232.379-3.513-1.203-3.873-4.736h-3.746c-.349 3.533-1.64 5.115-3.873 4.736ZM33.998 43.997h-.36c.554.272 1.097.514 1.107.514l.058.029.039-.048.359-.495h-.194l-.252.349c-.117-.058-.418-.184-.748-.349h-.009Z"/><path fill="#231F20" d="m49.197 44.54.058-.029s.553-.242 1.107-.514h-.359c-.33.155-.631.291-.748.349l-.252-.349h-.194l.359.495.039.048h-.01ZM30.348 44.288l.34-.291h-.34v.291ZM28.174 46.113l1.708-1.437v-.679h-1.708v2.116ZM38.113 44.288l.184-.291h-.184v.291ZM53.642 44.288v-.291h-.339l.339.291Z"/><path fill="#231F20" d="M52.429 44.501a1.711 1.711 0 0 0-.466-.504h-.184c0 .048 0 .097.019.145.029.127.049.185.02.204-.049.039-.204.058-.495.097-.631.078-1.641.398-1.641.398l-.174.058.155.088s1.776 1.029 2.009 1.194c.097.068.281.135.456.213.136.058.282.107.35.146h-.02c-.223.077-.505.174-.718.398-.078.077-.117.174-.155.252-.03.058-.049.107-.068.116-.029.02-.097-.038-.272-.281-.476-.65-1.883-1.601-1.883-1.611l-.107-.078v.136s-.087 1.039.068 2.009c.02.146.049.262.058.359.039.204.059.311.049.33l-.165-.029c-.068-.01-.146-.029-.252-.039-.457-.058-.593-.029-.69-.009-.029 0-.048 0-.068.009 0-.087.068-.252.127-.407.029-.078.058-.146.077-.204.078-.252.088-2.087.088-2.087v-.107l-.097.029s-1.107.321-1.427.66c-.126.127-.223.127-.311.078-.107-.058-.194-.194-.262-.301-.107-.155-.252-.223-.398-.281-.087-.039-.174-.068-.233-.126h.01a.31.31 0 0 1 .116-.059c.156-.058.408-.106.68-.106.553 0 1.951-.321 1.96-.321l.146-.029-.107-.107-.747-.698h-.233l.767.718c-.369.077-1.349.281-1.776.281a2.17 2.17 0 0 0-.738.117.525.525 0 0 0-.165.097c-.049.048-.078.107-.058.165 0 .029.019.058.048.077.02.02.049.039.078.059a.972.972 0 0 0-.058.766c.077.224.223.418.398.554.067.058.145.106.223.145l.165.088-.058-.185a1.1 1.1 0 0 1-.049-.194 1.148 1.148 0 0 1-.019-.184c0-.165.019-.321.068-.486a.706.706 0 0 0 .184.165c.146.088.311.088.505-.097.242-.252.99-.495 1.261-.582 0 .388-.009 1.737-.077 1.931-.02.059-.049.127-.068.195-.068.165-.136.359-.136.475 0 .097.039.155.126.155.049 0 .088 0 .126-.019.059-.01.127-.029.272-.019 0 .019 0 .048-.01.068-.048.252-.194.533-.446.873l-.136.185.214-.059c.475-.126.825-.271 1.009-.456a.531.531 0 0 0 .155-.514c.068 0 .117-.01.146-.078.039-.078.019-.194-.029-.437a5.499 5.499 0 0 1-.059-.359c-.116-.737-.097-1.524-.087-1.825.34.243 1.349.971 1.728 1.495.252.35.388.398.495.311.048-.039.077-.107.116-.175a.752.752 0 0 1 .078-.146 2.167 2.167 0 0 1-.01.981l-.048.242.174-.165c.35-.31.583-.689.67-1.009a.92.92 0 0 0 .039-.359.35.35 0 0 0-.029-.136c.077-.029.097-.078.077-.136-.029-.097-.262-.184-.495-.281-.174-.068-.349-.136-.427-.194-.194-.127-1.417-.845-1.863-1.107.31-.097.98-.281 1.446-.34.32-.038.485-.058.573-.126.097-.068.087-.155.058-.301.155.126.301.33.456.621l.126.224.02-.253c.029-.31 0-.553-.039-.766h-.146c.039.145.058.31.049.504l-.039-.039Zm-6.202 2.223s-.029 0-.039-.01a1.1 1.1 0 0 1-.349-.485c-.068-.184-.059-.408.048-.64.02.009.049.019.068.029.126.048.252.106.33.223 0 .01.02.029.029.039a1.445 1.445 0 0 0-.116.64c0 .068.01.136.029.204Zm2.902 2c-.136.135-.379.252-.718.359.184-.282.301-.534.339-.757 0-.03 0-.059.01-.088.058 0 .136.01.223.02.097.009.175.029.243.038.049.165.019.311-.097.428Zm3.31-1.612a1.96 1.96 0 0 1-.456.767c.019-.155.029-.31.019-.446a2.272 2.272 0 0 0-.078-.447c.165-.136.359-.204.534-.262.01.029.02.058.02.097 0 .088 0 .185-.03.291h-.009ZM45.878 44.288v-.291h-.185l.185.291ZM35.424 44.705l-.106.107.145.029s1.407.32 1.961.32c.271 0 .524.039.679.107.049.02.087.039.117.058h.009a.584.584 0 0 1-.233.127c-.145.058-.291.126-.398.281-.077.117-.165.243-.262.301-.087.049-.194.049-.31-.078-.321-.33-1.427-.65-1.427-.66l-.097-.029v.107s0 1.834.078 2.087c.019.058.048.126.077.204.058.155.126.32.126.407-.029 0-.048 0-.068-.009-.097-.02-.233-.049-.689.009-.097.01-.184.029-.252.039l-.165.029c-.01-.029 0-.126.039-.33.019-.097.039-.213.058-.359.155-.961.078-1.999.078-2.009v-.136l-.117.078s-1.407.961-1.883 1.611c-.184.252-.252.301-.281.281-.02-.019-.039-.068-.068-.116-.039-.078-.078-.175-.155-.252-.214-.224-.495-.311-.719-.389h-.019c.078-.039.213-.097.349-.155a2.53 2.53 0 0 0 .456-.214c.233-.155 2.01-1.184 2.01-1.193l.155-.088-.175-.058s-1.019-.32-1.64-.398c-.301-.039-.447-.058-.495-.097-.029-.019 0-.078.019-.204.01-.048 0-.097.02-.145h-.185c-.155.097-.31.262-.466.504 0-.194.01-.359.049-.504h-.146a2.71 2.71 0 0 0-.038.766l.019.253.126-.223c.155-.292.311-.495.456-.622-.029.146-.038.224.059.301.087.058.242.078.572.126.456.059 1.126.253 1.446.34-.446.252-1.679.971-1.863 1.107-.078.058-.252.126-.427.194-.233.097-.466.184-.495.281-.02.058 0 .107.077.136a5.804 5.804 0 0 0-.029.136.958.958 0 0 0 .039.359c.088.32.33.699.67 1.009l.175.165-.049-.242a2.582 2.582 0 0 1-.058-.65c0-.117.019-.224.048-.33.029.048.059.097.078.145.039.078.068.136.116.175.107.077.243.029.495-.311.379-.514 1.388-1.252 1.728-1.494.02.31.039 1.096-.087 1.824-.02.146-.049.262-.058.359-.049.243-.068.369-.03.437.03.058.078.078.146.078a.54.54 0 0 0 .155.514c.185.185.524.34 1.01.456l.213.059-.136-.185c-.252-.33-.398-.621-.446-.873 0-.02 0-.049-.01-.068.146 0 .214 0 .272.019.039 0 .078.02.126.02.097 0 .126-.059.126-.156 0-.116-.077-.301-.136-.475a.963.963 0 0 1-.068-.194c-.058-.195-.067-1.544-.077-1.932.272.087 1.019.34 1.262.582.184.195.359.185.504.097a.726.726 0 0 0 .185-.165 1.2 1.2 0 0 1 .068.486 1.293 1.293 0 0 1-.068.369l-.059.184.165-.087c.078-.039.156-.088.224-.146.174-.136.33-.33.398-.553a.983.983 0 0 0-.059-.767c.029-.019.049-.039.078-.058.019-.029.039-.049.049-.078.019-.058 0-.116-.059-.165a.469.469 0 0 0-.155-.097 2.172 2.172 0 0 0-.738-.116c-.427 0-1.407-.204-1.776-.282l.767-.718h-.233l-.747.699-.02.048Zm-3.406 3.164a1.956 1.956 0 0 1-.457-.766c-.029-.107-.038-.204-.029-.292 0-.038.01-.067.02-.097.174.059.368.127.533.262a2.36 2.36 0 0 0-.077.447c0 .146 0 .291.019.446h-.009Zm3.571 1.204c-.339-.097-.582-.214-.718-.359-.116-.117-.146-.253-.097-.418.068-.009.146-.029.243-.038.087-.01.155-.02.223-.02 0 .029 0 .058.01.088.038.223.155.475.339.757v-.01Zm2.572-2.844a1.1 1.1 0 0 1-.349.485c-.01 0-.029.02-.039.03.01-.088.02-.156.029-.224a1.445 1.445 0 0 0-.116-.64c0-.01.019-.029.029-.039.078-.117.204-.175.33-.223.019-.01.048-.02.068-.029a.83.83 0 0 1 .048.64ZM54.108 44.676l1.708 1.437v-2.116h-1.708v.679Z"/><path fill="#EBEFF8" d="M40.986 18.072c-.165-.388-.146-.65.058-.796a1.219 1.219 0 0 1-.214-.155c-.155-.155-.388.874.311 1.194.107-.262.311-.476.621-.641 0 0-.165-.087-.359-.194a.759.759 0 0 0-.417.583v.009Z"/><path fill="#EC1C24" d="M40.549 20.198c.058-.01.107-.019.155-.029h-.009c-.195-.02-.379-.049-.573-.078-.786-.126-1.485-.31-2.106-.572.349.271.873.514 1.572.718.398.019.718 0 .961-.039Z"/><path fill="#EC1C24" d="M40.51 16.811c-.495-.214-1.067-.379-1.601-.262a.99.99 0 0 0-.592.33.975.975 0 0 0-.224.63c-.009.418.165.942.573 1.534a.994.994 0 0 1 .369-.252c.126-.049.281-.088.446-.088.165 0 .34.029.515.097.398.165.796.544 1.067 1.301l.02.068-.058.029a4.142 4.142 0 0 1-.195.087c-.077.02-.165.049-.252.059-.408.067-1 .058-1.776-.02.01 0 .019 0 .029.01.136.058.301.107.466.145.873.214 2.009.214 2.271.049.039-.029.058-.078.058-.146-.077-.98-1.184-1.931-1.184-3.125 0-.194.02-.349.068-.466v.02ZM38.045 45.618c-.126.048-.252.106-.33.223 0 .01-.02.029-.029.039.087.204.126.417.116.64a.718.718 0 0 1-.029.204s.029 0 .039-.01a1.1 1.1 0 0 0 .349-.485c.068-.184.059-.408-.048-.64-.02.009-.049.019-.068.029ZM35.24 48.229c-.058 0-.136.009-.223.019-.097.01-.175.029-.243.039-.049.165-.019.31.097.427.136.136.379.252.718.359-.184-.282-.301-.534-.339-.757 0-.029 0-.058-.01-.087ZM31.552 46.705s-.02.058-.02.097c0 .087 0 .184.029.291.068.243.224.514.457.767a2.298 2.298 0 0 1-.02-.447c.01-.155.039-.301.078-.446-.165-.136-.359-.204-.534-.262h.01ZM32.076 43.511v-.077a.741.741 0 0 0-.379.349c-.029.068-.048.146-.068.223h.418s.029-.029.048-.038c.02-.165 0-.33-.01-.457h-.009Z"/><path fill="#EC1C24" d="M31.581 44.501c.155-.242.31-.397.466-.504h-.418c-.039.145-.058.31-.048.504ZM32.551 43.395a.863.863 0 0 0-.252-.155c-.029-.01-.049-.01-.058 0l-.02.019c0 .02-.009.049-.009.078 0 .039 0 .097.009.155.02.136.02.32 0 .505h1.417c-.456-.223-.912-.456-1.087-.602ZM38.113 42.182v-1l-.942.126-1.97 2.689h.971l1.941-1.815Z"/><path fill="#EC1C24" d="m34.803 44.54-.058-.029s-.553-.242-1.107-.514h-1.417c0 .048 0 .097-.019.145-.029.127-.049.185-.02.204.049.039.204.058.495.097.631.078 1.641.398 1.641.398l.174.058-.155.088s-1.776 1.029-2.009 1.194c-.097.068-.281.135-.456.213-.136.058-.282.107-.35.146h.02c.223.077.505.174.718.398.078.077.117.174.155.252.03.058.049.107.068.116.03.02.097-.038.282-.281.475-.65 1.873-1.601 1.883-1.611l.107-.078v.136s.087 1.039-.068 2.009c-.02.146-.049.262-.059.359-.038.204-.058.311-.038.33l.165-.029c.068-.01.145-.029.252-.039.456-.058.592-.029.689-.009.029 0 .049 0 .068.009 0-.087-.068-.252-.126-.407-.029-.078-.058-.146-.078-.204-.078-.252-.078-2.087-.078-2.087v-.107l.098.029s1.106.321 1.426.66c.127.127.224.127.311.078.107-.058.194-.194.262-.301.107-.155.252-.223.398-.281.087-.039.175-.068.233-.126h-.01a.31.31 0 0 0-.116-.059 2.087 2.087 0 0 0-.68-.106c-.553 0-1.951-.321-1.96-.321l-.146-.029.107-.107.747-.698h-.98l-.359.495-.039.048.029-.039Z"/><path fill="#EC1C26" d="M46.285 45.841c-.077-.117-.204-.175-.33-.223-.019-.01-.048-.02-.068-.029a.83.83 0 0 0-.048.64 1.1 1.1 0 0 0 .349.485c.01 0 .029.02.039.03-.01-.088-.02-.156-.029-.224-.01-.223.029-.436.116-.64 0-.01-.019-.029-.029-.039ZM49.226 48.296c-.068-.009-.146-.029-.243-.038-.087-.01-.155-.02-.223-.02 0 .029 0 .058-.01.088-.038.223-.155.475-.339.757.339-.097.582-.214.718-.359.116-.117.146-.253.097-.418v-.01ZM51.924 46.967c.039.145.068.291.078.446 0 .146 0 .291-.02.447.233-.253.389-.524.457-.767.029-.107.038-.204.029-.291 0-.039-.01-.068-.02-.097-.174.058-.368.126-.533.262h.009ZM52.313 43.774a.811.811 0 0 0-.369-.35v.078c-.01.126-.029.291-.01.456.019 0 .029.029.049.039h.417c-.02-.078-.039-.156-.068-.223h-.019Z"/><path fill="#EC1C26" d="M52.429 44.501c0-.194-.01-.359-.049-.504h-.417c.155.097.311.262.466.504ZM46.829 41.308l-.942-.126v1l1.941 1.815h.971l-1.97-2.689ZM51.779 43.492c0-.058.009-.116.009-.155 0-.029 0-.058-.009-.078 0-.01-.01-.019-.02-.019h-.058a1.016 1.016 0 0 0-.252.155c-.175.146-.631.388-1.087.602h1.417a2.824 2.824 0 0 1 0-.505Z"/><path fill="#EC1C26" d="m48.692 44.802-.145.029s-1.408.321-1.961.321c-.272 0-.524.039-.679.107a.577.577 0 0 0-.117.058h-.01a.61.61 0 0 0 .233.126c.146.058.292.126.398.281.078.117.165.243.262.301.088.049.195.049.311-.077.33-.33 1.427-.651 1.427-.66l.097-.029v.106s0 1.835-.088 2.087c-.019.058-.048.126-.077.204-.058.155-.126.32-.126.408.029 0 .048 0 .068-.01.097-.02.233-.049.689.01.097.009.184.029.252.038.107.02.165.029.165.029.01-.029 0-.126-.048-.33a5.499 5.499 0 0 1-.059-.359c-.155-.961-.077-1.999-.077-2.009v-.136l.116.078s1.407.961 1.883 1.611c.184.253.252.301.272.282.019-.02.039-.068.068-.117.039-.077.077-.175.155-.252.214-.223.495-.311.718-.388h.02c-.078-.039-.214-.097-.35-.156a2.57 2.57 0 0 1-.456-.213c-.233-.156-2.009-1.184-2.009-1.194l-.155-.087.174-.059s1.02-.32 1.641-.398c.301-.038.446-.058.495-.097.029-.019 0-.077-.02-.203-.009-.049 0-.098-.019-.146h-1.417c-.553.272-1.097.514-1.107.514l-.058.029-.039-.048-.359-.495h-.98l.747.699.107.107.058.038Z"/></svg>