<svg xmlns="http://www.w3.org/2000/svg" width="100" height="100"><path d="M0 16h100v68H0z" fill="#FFF"/><path d="m44.9 46.625 34.378-30.631H66.406L42.987 44.813l14.075-28.82h-8.043l-8.514 27.864 2.016-27.863h-6.638l1.958 27.9-8.875-27.9H21.5l13.9 28.939-23.442-28.939L1 16H0l33.538 30.805L0 29.007v9.475l32.555 10.745L0 46v8l32.6-2.17L0 62.1v9.446l33.661-17.325L0 83v1l11.716.01 23.859-27.976L21.071 84.01h8l8.982-27.02-2.023 27.02h6.28l-1.588-27.061 8.242 27.061h8.049L43.17 55.912l23.881 28.1h12.768L45.025 54.041 100 84V69.927L46 51.619 100 56V44.2l-54.037 4.815 54.042-17.25L100 16Z" fill="#BE0026"/><circle cx="39" cy="50" r="16" fill="#BE0026"/></svg>