<?xml version="1.0" encoding="UTF-8"?><svg id="Layer_1" xmlns="http://www.w3.org/2000/svg" viewBox="0 0 84 51.33"><defs><style>.cls-1{fill:#fff;}.cls-2{fill:#e30a17;}</style></defs><rect class="cls-2" y="0" width="84" height="51.33"/><g><path class="cls-1" d="m32.37,35.93c-5.67,0-10.27-4.6-10.27-10.27s4.6-10.27,10.27-10.27c3.03,0,5.76,1.32,7.64,3.41-2.27-3.59-6.28-5.98-10.85-5.98-7.09,0-12.83,5.75-12.83,12.83s5.75,12.83,12.83,12.83c4.57,0,8.58-2.39,10.85-5.98-1.88,2.09-4.61,3.41-7.64,3.41Z"/><polygon class="cls-1" points="46.39 23.34 50.83 21.9 48.09 25.67 50.83 29.44 46.39 28 43.65 31.77 43.65 27.11 39.22 25.67 43.65 24.23 43.65 19.56 46.39 23.34"/></g></svg>