<?xml version="1.0" encoding="UTF-8"?><svg id="Layer_1" xmlns="http://www.w3.org/2000/svg" viewBox="0 0 84 51.33"><defs><style>.cls-1{fill:#fff;}.cls-1,.cls-2,.cls-3,.cls-4{fill-rule:evenodd;}.cls-2{fill:#0b0204;}.cls-3{fill:#00843f;}.cls-4{fill:#e21936;}</style></defs><polygon class="cls-2" points="0 -.23 84 -.23 84 16.96 34.37 16.96 0 -.23 0 -.23"/><polygon class="cls-3" points="34.37 34.15 84 34.15 84 51.33 0 51.33 34.37 34.15 34.37 34.15"/><polygon class="cls-4" points="0 -.23 51.56 25.55 0 51.33 0 -.23 0 -.23"/><path class="cls-1" d="m34.37,16.96l17.19,8.59-17.19,8.59h49.63v-17.19h-49.63Zm-15.58,8.23l1.26-1.93-2.15.8-.72-2.19-.72,2.19-2.15-.8,1.26,1.93-1.97,1.19,2.29.21-.3,2.29,1.59-1.66,1.59,1.66-.3-2.29,2.29-.21-1.97-1.19Z"/></svg>