<svg xmlns="http://www.w3.org/2000/svg" width="84" height="66"><clipPath id="b"><path fill="#FFF" d="M0 0h84v66H0z"/></clipPath><g clip-path="url(#b)"><path fill="#C00" d="M0 0h84v66H0z"/><path fill="#FFD700" fill-rule="evenodd" d="m27.285 32.132 1.838 1.939c.244.441.14.992-.246 1.315a1.37 1.37 0 0 1-1.397.492l-2.041-2.153a8.934 8.934 0 0 1-4.531 1.657 11.1 11.1 0 0 1-8.424-3.323l-2.089 3a1.381 1.381 0 0 1-1.889 0 1.462 1.462 0 0 1-.082-2.135l2.752-2.267q-.312-.373-.617-.772l.986-.822c.216.254.447.494.694.719l.374-.308.982.981-.194.277a11.794 11.794 0 0 0 7.012 2.269 6.043 6.043 0 0 0 3.255-1.141l-8.063-8.501-2.5 2.414-2.958-2.955 5.257-4.846 3.781.162.904.903-2.729 2.632 8.079 8.517c1.499-1.945 2.288-4.858 1.056-8.602-2.185-6.641-13.143-6.366-14.293-5.668 0 0 1.483-1.314 6.078-1.396 4.596-.082 10.55 2.852 11.582 9.199a9.81 9.81 0 0 1-2.577 8.413Z"/><path fill="#FFD700" fill-rule="evenodd" d="m19.845 5.623.505 1.557.145.447h2.106l-1.324.962-.379.276.144.447.506 1.556-1.324-.962-.379-.276-.38.276-1.324.962.506-1.556.145-.447-.38-.276-1.324-.962h2.106l.145-.447.506-1.557Zm0-2.093-1.116 3.45h-3.631l2.934 2.131-1.121 3.449 2.935-2.131 2.934 2.131-1.12-3.449 2.934-2.131h-3.629l-1.12-3.449V3.53Z"/></g></svg>