<?xml version="1.0" encoding="UTF-8"?><svg id="Britain" xmlns="http://www.w3.org/2000/svg" viewBox="0 0 100 100"><defs><style>.cls-1{fill:#da1f26;}.cls-2{fill:#ec1c26;}.cls-3{fill:#ec1c24;}.cls-4{fill:#fdcd07;}.cls-5{fill:#ebeff8;}.cls-6{fill:#231f20;}.cls-7{fill:#ffd200;}</style></defs><polygon points="0 16 0 38.67 34 38.67 34 31.92 34 31.75 34.16 31.75 65.84 31.75 66 31.75 66 31.92 66 38.67 100 38.67 100 16 0 16"/><path class="cls-1" d="m34,59.25v-20.59H0v22.67h34.22c-.13-.64-.21-1.32-.21-2.08Z"/><path class="cls-1" d="m66,59.25c0,.75-.08,1.44-.21,2.08h34.22v-22.67h-34v20.59Z"/><path class="cls-4" d="m55.82,69.36c-2.57.87-4.85,1.65-5.68,3.07l-.14.23-.14-.23c-.84-1.43-3.12-2.2-5.68-3.07-4.11-1.4-8.92-3.04-9.96-8.03H0v22.67h100v-22.67h-34.22c-1.04,4.99-5.85,6.63-9.96,8.03Z"/><path class="cls-7" d="m36.8,35.84c-.8-.22-1.22-.82-1.27-1.8,2.24,1.88,5.76-2.54,7.84,2.05-1.12,2.29-3.36,2.05-4.16.74-.44.38-.65,1.06-.54,1.84h9.99c.11-.36.21-.79.27-1.23-.51.02-1.18-.03-1.74-.16-.18-.04-.35-.1-.51-.16-.16-.06-.29-.14-.4-.22h0s-.23-.18-.23-.18l.28.03c.19.02.38.04.55.06-.68-.26-1.15-.56-1.42-.9-.02-.02-.03-.06-.02-.09.02-.04.07-.06.11-.04.72.35,1.57.6,2.54.76.19.03.38.06.58.08.05,0,.1.01.15.02-.26-.63-.61-.95-.96-1.09-.16-.07-.32-.09-.47-.09-.15,0-.29.03-.41.08-.19.07-.32.18-.36.28l-.05.14-.08-.12c-.5-.69-.71-1.3-.69-1.78,0-.3.11-.56.27-.75.17-.19.41-.33.7-.39.46-.1,1.06-.01,1.75.29.32-.47,1.12.04,1.62.3.64.33,2.24.82,3.12.82-.37.38-.83.61-1.21.73.17.53.45,1.63.7,3.64h8.57c.11-.78-.1-1.46-.54-1.84-.8,1.31-3.04,1.56-4.16-.74,2.08-4.58,5.6-.16,7.84-2.05-.05.98-.48,1.58-1.27,1.8.57.56.9,1.5,1,2.82h1.47v-6.59h-31.35v6.59h1.47c.1-1.32.43-2.26,1-2.82Z"/><polygon class="cls-7" points="54 61.33 55.77 61.33 54 59.67 54 61.33"/><path class="cls-7" d="m62,43.67v17.66h.48v-18.09c-.15.14-.31.29-.48.43Z"/><path class="cls-7" d="m37.52,43.24v18.09h.48v-17.66c-.17-.14-.33-.29-.48-.43Z"/><path class="cls-7" d="m60.24,44.85c-.15.08-.31.16-.48.24v14.65l-1.76-1.48v-12.49c-.16.05-.32.1-.48.14v11.95l-1.76-1.48v-10.08c-.16.03-.32.05-.48.08v9.6l-1.76-1.48v-7.93c-.15.01-.31.02-.47.03-.18,2.27-.55,4.71-.99,7.15l4.58,5.01-1.44-.18,2.02,2.75h1.03c.54-.26,1.18-.58,1.39-.75.13-.11.23-.17.31-.19.07-.02.13-.02.17,0,.05.02.08.06.1.11,0,.02.02.04.02.07.25.1.42.25.53.46.04.09.06.2.08.31h.8l-1.41-1.18v-15.3Z"/><path class="cls-7" d="m53.16,43.33c5.72-.36,7.91-2.8,8.18-4.66h-8.57c.13,1,.25,2.23.35,3.73.02.3.03.62.04.94Z"/><path class="cls-7" d="m46.84,43.33c0-.32.02-.63.04-.94.08-1.23,1.12-2.46,1.52-3.11.09-.15.17-.37.25-.62h-9.99c.27,1.86,2.46,4.3,8.18,4.66Z"/><path class="cls-7" d="m64.24,39.53v21.81h1.22c.14-.64.22-1.32.22-2.08v-20.59h-1.47c.02.27.03.56.03.86Z"/><path class="cls-7" d="m35.76,39.53c0-.31.01-.59.03-.86h-1.47v20.59c0,.76.08,1.44.22,2.08h1.22v-21.8Z"/><polygon class="cls-7" points="44.24 61.33 46 61.33 46 59.68 44.24 61.33"/><path class="cls-7" d="m51.93,61.33h1.88l-1.98-3.14c-.03,1.18,0,2.22.09,3.14Z"/><path class="cls-7" d="m48.16,58.19l-1.98,3.14h1.88c.09-.92.12-1.96.09-3.14Z"/><path class="cls-7" d="m39.77,60.57s.01-.05.02-.07c.02-.05.05-.09.1-.11.05-.02.1-.02.17,0,.08.02.18.08.31.19.21.17.85.5,1.39.75h1.03l2.02-2.75-1.45.18,4.58-5.01c-.45-2.43-.82-4.88-.99-7.15-.16,0-.31-.02-.47-.03v7.93l-1.76,1.48v-9.6c-.16-.02-.32-.05-.48-.08v10.08l-1.76,1.48v-11.94c-.16-.05-.32-.09-.48-.14v12.49l-1.76,1.48v-14.65c-.17-.08-.33-.16-.48-.24v15.3l-1.41,1.18h.81c.02-.11.04-.22.08-.31.11-.21.27-.36.53-.46Z"/><path class="cls-7" d="m58.25,61.33h-1.03l.26.36c.12-.06.43-.19.77-.36Z"/><path class="cls-7" d="m42.54,61.69l.26-.36h-1.03c.34.16.65.3.77.36Z"/><path class="cls-7" d="m44.28,69.05c2.5.85,4.74,1.61,5.72,3,.98-1.39,3.22-2.15,5.72-3,4-1.36,8.68-2.96,9.73-7.72h-1.22v2.18l-1.76-1.48v-.7h-.48v.29l-.35-.29h-.8c.05.22.06.48.04.79l-.02.26-.13-.23c-.16-.3-.32-.51-.47-.64.03.15.04.23-.06.31-.09.06-.25.08-.59.13h0c-.47.06-1.16.26-1.49.35.46.26,1.73,1,1.92,1.14h0c.08.06.26.13.44.2.24.1.48.19.51.29.02.06,0,.11-.08.14.01.04.02.09.03.14.01.11,0,.24-.04.37-.09.33-.34.72-.69,1.04l-.18.17.05-.25c.05-.24.07-.46.06-.67,0-.12-.02-.23-.05-.34-.03.05-.06.1-.08.15-.04.08-.07.14-.12.18-.11.08-.25.03-.51-.32-.39-.53-1.43-1.29-1.78-1.54-.02.32-.04,1.13.09,1.88.02.15.05.27.06.37.05.25.07.38.03.45-.03.06-.08.08-.15.08.04.2-.01.38-.16.53-.19.19-.54.35-1.04.47l-.22.06.14-.19c.26-.34.41-.64.46-.9,0-.02,0-.05.01-.07-.15,0-.22,0-.28.02-.04,0-.08.02-.13.02h0c-.1,0-.13-.06-.13-.16,0-.12.08-.31.14-.49.03-.07.06-.14.07-.2h0c.07-.2.07-1.59.08-1.99-.28.09-1.05.35-1.3.6-.19.2-.37.19-.52.1h0c-.07-.04-.13-.1-.19-.17-.06.16-.08.33-.07.5,0,.06.01.13.02.19.01.06.03.13.05.19h0s.06.19.06.19l-.17-.09c-.08-.04-.16-.09-.23-.15-.18-.14-.34-.34-.41-.57-.08-.23-.08-.5.06-.79-.03-.02-.05-.04-.08-.06-.02-.03-.04-.05-.05-.08-.02-.06,0-.12.06-.17.04-.04.1-.07.17-.1.18-.07.46-.12.76-.12h0c.44,0,1.45-.21,1.83-.29l-.79-.74h-1.77v.29l-.18-.29h-1.88c.36,3.64,1.69,5.27,3.99,4.88-.91,1.85-2.32,2.18-4.24.98l-1.68,2.05-1.68-2.05c-1.92,1.2-3.33.87-4.24-.98,2.3.39,3.62-1.24,3.99-4.88h-1.88l-.18.29v-.29h-1.76l-.79.74c.38.08,1.39.29,1.83.29h0c.3,0,.58.05.76.12.07.03.13.06.16.1.05.05.08.11.06.17,0,.03-.02.06-.05.08-.02.02-.05.04-.08.06.14.28.14.55.06.79-.08.23-.23.43-.41.57-.07.06-.15.11-.23.15l-.17.09.06-.19h0c.02-.06.04-.13.05-.2.01-.06.02-.13.02-.19,0-.17-.01-.33-.07-.5-.06.07-.12.13-.19.17h0c-.15.09-.32.09-.52-.1-.25-.26-1.02-.51-1.3-.6,0,.4.01,1.79.08,1.99h0c.02.06.05.13.07.2.07.17.14.37.14.49,0,.1-.04.16-.13.16h0c-.05,0-.09,0-.13-.02-.06-.01-.13-.03-.28-.02,0,.02,0,.05.01.07.05.26.2.55.46.9l.14.19-.22-.06c-.49-.13-.85-.28-1.04-.47-.15-.15-.2-.32-.16-.53-.07,0-.12-.01-.15-.08-.04-.08-.02-.2.03-.45.02-.1.04-.22.06-.37.12-.76.1-1.57.09-1.88-.35.25-1.39,1-1.78,1.54-.26.36-.4.41-.51.32-.05-.04-.08-.11-.12-.18-.02-.05-.05-.11-.08-.15-.03.11-.04.22-.05.34-.01.21,0,.44.06.67l.05.25-.18-.17c-.36-.32-.6-.71-.69-1.04-.04-.13-.05-.25-.04-.37,0-.05.01-.09.03-.14-.08-.03-.1-.08-.08-.14.03-.1.27-.19.51-.29.18-.07.36-.14.44-.2h0c.19-.13,1.46-.87,1.92-1.14-.32-.1-1.01-.29-1.49-.35h0c-.33-.04-.5-.06-.59-.13-.1-.07-.09-.16-.06-.31-.16.13-.31.34-.47.64l-.13.23-.02-.26c-.03-.32,0-.57.04-.79h-.81l-.35.3v-.3h-.48v.7l-1.76,1.48v-2.18h-1.22c1.05,4.76,5.73,6.36,9.73,7.72Z"/><polygon class="cls-6" points="34.32 32.08 65.68 32.08 65.68 38.67 66 38.67 66 31.92 66 31.75 65.84 31.75 34.16 31.75 34 31.75 34 31.92 34 38.67 34.32 38.67 34.32 32.08"/><path class="cls-6" d="m65.68,59.25c0,.76-.08,1.44-.22,2.08h.33c.13-.64.21-1.32.21-2.08v-20.59h-.32v20.59Z"/><path class="cls-6" d="m34.22,61.33h.33c-.14-.64-.22-1.32-.22-2.08v-20.59h-.32v20.59c0,.75.08,1.44.21,2.08Z"/><path class="cls-6" d="m55.72,69.05c-2.5.85-4.74,1.61-5.72,3-.98-1.39-3.22-2.15-5.72-3-4-1.36-8.68-2.96-9.73-7.72h-.33c1.04,4.99,5.85,6.63,9.96,8.03,2.57.87,4.85,1.65,5.68,3.07l.14.23.14-.23c.84-1.43,3.12-2.2,5.68-3.07,4.11-1.4,8.92-3.04,9.96-8.03h-.33c-1.05,4.76-5.73,6.36-9.73,7.72Z"/><path class="cls-6" d="m39.2,36.83c.8,1.31,3.04,1.56,4.16-.74-2.08-4.58-5.6-.16-7.84-2.05.05.98.48,1.58,1.27,1.8-.57.56-.9,1.5-1,2.82h2.86c-.11-.78.1-1.46.54-1.84Z"/><path class="cls-6" d="m52.07,35.03c.38-.12.84-.36,1.21-.73-.88,0-2.48-.49-3.12-.82-.5-.26-1.3-.77-1.62-.3-.69-.3-1.29-.38-1.75-.29-.3.06-.53.2-.7.39-.17.2-.27.45-.27.75-.02.49.2,1.1.69,1.78l.08.12.05-.14c.04-.1.17-.2.36-.28.12-.04.26-.07.41-.08.15,0,.31.02.47.09.34.14.69.47.96,1.09-.05,0-.1-.01-.15-.02-.2-.02-.39-.05-.58-.08-.97-.15-1.82-.41-2.54-.76-.04-.02-.09,0-.11.04-.01.03,0,.07.02.09.27.34.75.64,1.42.9-.17-.02-.36-.04-.55-.06l-.28-.03.23.18h0s0,0,0,0c.11.09.24.16.4.22.15.06.32.12.51.16.56.14,1.23.19,1.74.16-.06.44-.16.87-.27,1.23h4.12c-.26-2.01-.54-3.11-.7-3.64Zm-6.17,1.08c.64.26,1.36.46,2.17.59.19.03.39.06.59.08h.01s-.1.03-.16.04c-.25.04-.58.06-.99.04-.71-.21-1.25-.46-1.62-.74Zm3.66,1.06c-.27.17-1.44.17-2.34-.05-.18-.04-.34-.09-.48-.15-.01,0-.02,0-.03-.01.81.08,1.42.08,1.83.02.1-.02.19-.04.26-.06.08-.03.15-.05.2-.09h0s.06-.04.06-.04l-.02-.07c-.28-.78-.7-1.17-1.1-1.34-.18-.07-.36-.1-.53-.1-.17,0-.33.04-.46.09-.17.06-.3.16-.38.26-.42-.61-.6-1.16-.59-1.58,0-.26.09-.48.23-.65.14-.17.35-.28.61-.34.55-.11,1.15.05,1.65.27-.04.12-.07.28-.07.48,0,1.24,1.14,2.22,1.22,3.22,0,.07-.02.12-.06.15Zm-.44-2.3c-.72-.33-.48-1.39-.32-1.23.04.04.12.1.22.16-.22.15-.24.42-.06.82.04-.27.18-.47.43-.6.2.11.37.2.37.2-.32.16-.53.38-.64.66Z"/><path class="cls-6" d="m63.21,35.84c.8-.22,1.22-.82,1.27-1.8-2.24,1.88-5.76-2.54-7.84,2.05,1.12,2.29,3.36,2.05,4.16.74.44.38.65,1.06.54,1.84h2.86c-.1-1.32-.43-2.26-1-2.82Z"/><path class="cls-6" d="m39.38,61.1c.08-.15.2-.27.39-.36,0,.03,0,.05,0,.08.01.13.03.3.01.47-.02,0-.03.03-.05.04h.19c.02-.19.01-.38,0-.52,0-.06-.01-.12-.01-.16,0-.03,0-.06.01-.08,0-.01,0-.02.02-.02.01,0,.03,0,.06,0,.06.02.14.07.26.16.18.15.65.4,1.12.62h.37c-.54-.26-1.18-.58-1.39-.75-.13-.11-.23-.17-.31-.19-.07-.02-.13-.02-.17,0-.05.02-.08.06-.1.11,0,.02-.02.04-.02.07-.25.1-.42.25-.53.46-.04.09-.06.2-.08.31h.15c.02-.08.04-.16.07-.23Z"/><path class="cls-6" d="m64.21,38.67h-2.86c-.27,1.86-2.46,4.3-8.18,4.66,0-.32-.02-.63-.04-.94-.1-1.5-.22-2.72-.35-3.73h-4.12c-.08.25-.16.47-.25.62-.4.65-1.44,1.88-1.52,3.11-.02.31-.03.62-.04.94-5.72-.36-7.91-2.8-8.18-4.66h-2.86c-.02.27-.03.56-.03.86v21.8h1.76v-18.09c.15.14.31.29.48.43v17.66h.35l1.41-1.18v-15.3c.15.08.31.16.48.24v14.65l1.76-1.48v-12.49c.16.05.32.1.48.14v11.94l1.76-1.48v-10.08c.16.03.32.05.48.08v9.6l1.76-1.48v-7.93c.15.01.31.02.47.03.18,2.27.55,4.71.99,7.15l-4.58,5.01,1.45-.18-2.02,2.75h.2l2.04-2.78.97-.12v1.03l-2,1.87h.24l1.76-1.65v1.65h.18l1.98-3.14c.03,1.18,0,2.22-.09,3.14h3.86c-.09-.92-.12-1.96-.09-3.14l1.98,3.14h.18v-1.66l1.77,1.66h.24l-2-1.87v-1.03l.97.12,2.04,2.78h.2l-2.02-2.75,1.44.18-4.58-5.01c.45-2.44.82-4.88.99-7.15.16,0,.31-.02.47-.03v7.93l1.76,1.48v-9.6c.16-.02.32-.05.48-.08v10.08l1.76,1.48v-11.95c.16-.05.32-.09.48-.14v12.49l1.76,1.48v-14.65c.17-.08.33-.16.48-.24v15.3l1.41,1.18h.35v-17.66c.17-.14.33-.29.48-.43v18.09h1.76v-21.81c0-.31-.01-.59-.03-.86Z"/><path class="cls-6" d="m60.24,60.57s-.01-.05-.02-.07c-.02-.05-.05-.09-.1-.11-.05-.02-.1-.02-.17,0-.08.02-.18.08-.31.19-.21.17-.85.5-1.39.75h.37c.47-.23.94-.47,1.12-.62.11-.09.2-.14.26-.16.03-.01.05-.01.06,0,0,0,.01.01.02.02,0,.02.01.05.01.08,0,.04,0,.1-.01.16-.01.14-.02.33,0,.52h.19s-.03-.03-.05-.04c-.02-.17,0-.34.01-.47,0-.03,0-.05,0-.08.18.08.31.2.38.36.03.07.05.15.07.23h.15c-.02-.11-.04-.22-.08-.31-.1-.21-.27-.36-.53-.46Z"/><path class="cls-6" d="m44.08,66.21c.91,1.85,2.32,2.18,4.24.98l1.68,2.05,1.68-2.05c1.92,1.2,3.33.87,4.24-.98-2.3.39-3.62-1.24-3.99-4.88h-3.86c-.36,3.64-1.69,5.27-3.99,4.88Z"/><path class="cls-6" d="m41.76,61.33h-.37c.57.28,1.13.53,1.14.53l.06.03.04-.05.37-.51h-.2l-.26.36c-.12-.06-.43-.19-.77-.36Z"/><path class="cls-6" d="m57.42,61.89l.06-.03s.57-.25,1.14-.53h-.37c-.34.16-.65.3-.77.36l-.26-.36h-.2l.37.51.04.05Z"/><polygon class="cls-6" points="38 61.63 38.35 61.33 38 61.33 38 61.63"/><polygon class="cls-6" points="35.76 63.51 37.52 62.03 37.52 61.33 35.76 61.33 35.76 63.51"/><polygon class="cls-6" points="46 61.63 46.19 61.33 46 61.33 46 61.63"/><polygon class="cls-6" points="62 61.63 62 61.33 61.65 61.33 62 61.63"/><path class="cls-6" d="m60.75,61.85c-.16-.25-.32-.41-.48-.52h-.19c0,.05,0,.1.02.15h0s0,0,0,0c.03.13.05.19.02.21-.05.04-.21.06-.51.1h0c-.65.08-1.69.41-1.69.41l-.18.06.16.09s1.83,1.06,2.07,1.23h0c.1.07.29.14.47.22.14.06.29.11.36.15h-.02c-.23.08-.52.18-.74.41h0c-.08.08-.12.18-.16.26-.03.06-.05.11-.07.12-.03.02-.1-.04-.28-.29-.49-.67-1.94-1.65-1.94-1.66l-.11-.08v.14s-.09,1.07.07,2.07c.02.15.05.27.06.37.04.21.06.32.05.34,0,0-.05-.01-.17-.03-.07-.01-.15-.03-.26-.04-.47-.06-.61-.03-.71-.01-.03,0-.05,0-.07.01,0-.09.07-.26.13-.42.03-.08.06-.15.08-.21h0c.08-.26.09-2.15.09-2.15v-.11l-.1.03s-1.14.33-1.47.68c-.13.13-.23.13-.32.08h0c-.11-.06-.2-.2-.27-.31-.11-.16-.26-.23-.41-.29-.09-.04-.18-.07-.24-.13,0,0,0,0,0,0,0,0,0,0,.01,0,.02-.02.06-.04.12-.06.16-.06.42-.11.7-.11h0c.57,0,2.01-.33,2.02-.33l.15-.03-.11-.11-.77-.72h-.24l.79.74c-.38.08-1.39.29-1.83.29h0c-.3,0-.58.05-.76.12-.07.03-.13.06-.17.1-.05.05-.08.11-.06.17,0,.03.02.06.05.08.02.02.05.04.08.06-.14.28-.14.55-.06.79.08.23.23.43.41.57.07.06.15.11.23.15l.17.09-.06-.19h0c-.02-.06-.04-.13-.05-.2-.01-.06-.02-.13-.02-.19,0-.17.02-.33.07-.5.06.07.12.13.19.17h0c.15.09.32.09.52-.1.25-.26,1.02-.51,1.3-.6,0,.4-.01,1.79-.08,1.99h0c-.02.06-.05.13-.07.2-.07.17-.14.37-.14.49,0,.1.04.16.13.16h0c.05,0,.09,0,.13-.02.06-.01.13-.03.28-.02,0,.02,0,.05-.01.07-.05.26-.2.55-.46.9l-.14.19.22-.06c.49-.13.85-.28,1.04-.47.15-.15.2-.32.16-.53.07,0,.12-.01.15-.08.04-.08.02-.2-.03-.45-.02-.1-.04-.22-.06-.37-.12-.76-.1-1.57-.09-1.88.35.25,1.39,1,1.78,1.54.26.36.4.41.51.32.05-.04.08-.11.12-.18.02-.05.05-.11.08-.15.03.11.04.22.05.34.01.21,0,.44-.06.67l-.05.25.18-.17c.36-.32.6-.71.69-1.04.04-.13.05-.25.04-.37,0-.05-.01-.09-.03-.14.08-.03.1-.08.08-.14-.03-.1-.27-.19-.51-.29-.18-.07-.36-.14-.44-.2h0c-.2-.13-1.46-.87-1.92-1.14.32-.1,1.01-.29,1.49-.35h0c.33-.04.5-.06.59-.13.1-.07.09-.16.06-.31.16.13.31.34.47.64l.13.23.02-.26c.03-.32,0-.57-.04-.79h-.15c.04.15.06.32.05.52Zm-6.39,2.29h0s-.03,0-.04-.01c-.16-.13-.29-.3-.36-.5-.07-.19-.06-.42.05-.66.02.01.05.02.07.03.13.05.26.11.34.23,0,.01.02.03.03.04-.09.21-.13.43-.12.66,0,.07.01.14.03.21Zm2.99,2.06c-.14.14-.39.26-.74.37.19-.29.31-.55.35-.78,0-.03,0-.06.01-.09.06,0,.14.01.23.02.1.01.18.03.25.04h0c.05.17.02.32-.1.44Zm3.41-1.66c-.07.25-.23.53-.47.79.02-.16.03-.32.02-.46-.01-.16-.04-.31-.08-.46.17-.14.37-.21.55-.27.01.03.02.06.02.1,0,.09,0,.19-.03.3Z"/><polygon class="cls-6" points="54 61.63 54 61.33 53.81 61.33 54 61.63"/><path class="cls-6" d="m43.23,62.06l-.11.11.15.03s1.45.33,2.02.33h0c.28,0,.54.04.7.11.05.02.09.04.12.06,0,0,.01,0,.01,0,0,0,0,0,0,0-.06.06-.15.1-.24.13-.15.06-.3.13-.41.29-.08.12-.17.25-.27.31-.09.05-.2.05-.32-.08-.33-.34-1.47-.67-1.47-.68l-.1-.03v.11s0,1.89.08,2.15h0c.02.06.05.13.08.21.06.16.13.33.13.42-.03,0-.05,0-.07-.01-.1-.02-.24-.05-.71.01-.1.01-.19.03-.26.04-.11.02-.17.03-.17.03-.01-.03,0-.13.04-.34.02-.1.04-.22.06-.37.16-.99.08-2.06.08-2.07v-.14s-.12.08-.12.08c0,0-1.45.99-1.94,1.66-.19.26-.26.31-.29.29-.02-.02-.04-.07-.07-.12-.04-.08-.08-.18-.16-.26h0s0,0,0,0c-.22-.23-.51-.32-.74-.4h-.02c.08-.04.22-.1.36-.16.18-.07.37-.15.47-.22h0c.24-.16,2.07-1.22,2.07-1.23l.16-.09-.18-.06s-1.05-.33-1.69-.41h0c-.31-.04-.46-.06-.51-.1-.03-.02,0-.08.02-.21h0c.01-.05,0-.1.02-.15h-.19c-.16.1-.32.27-.48.52,0-.2.01-.37.05-.52h-.15c-.05.22-.06.48-.04.79l.02.26.13-.23c.16-.3.32-.51.47-.64-.03.15-.04.23.06.31.09.06.25.08.59.13h0c.47.06,1.16.26,1.49.35-.46.26-1.73,1-1.92,1.14h0c-.08.06-.26.13-.44.2-.24.1-.48.19-.51.29-.02.06,0,.11.08.14-.01.04-.02.09-.03.14-.01.11,0,.24.04.37.09.33.34.72.69,1.04l.18.17-.05-.25c-.05-.24-.07-.46-.06-.67,0-.12.02-.23.05-.34.03.05.06.1.08.15.04.08.07.14.12.18.11.08.25.03.51-.32.39-.53,1.43-1.29,1.78-1.54.02.32.04,1.13-.09,1.88-.02.15-.05.27-.06.37-.05.25-.07.38-.03.45.03.06.08.08.15.08-.04.2.01.38.16.53.19.19.54.35,1.04.47l.22.06-.14-.19c-.26-.34-.41-.64-.46-.9,0-.02,0-.05-.01-.07.15,0,.22,0,.28.02.04,0,.08.02.13.02h0c.1,0,.13-.06.13-.16,0-.12-.08-.31-.14-.49-.03-.07-.06-.14-.07-.2h0c-.06-.2-.07-1.59-.08-1.99.28.09,1.05.35,1.3.6.19.2.37.19.52.1h0c.07-.04.13-.1.19-.17.06.16.08.33.07.5,0,.06-.01.13-.02.19-.01.06-.03.13-.05.19h0s-.06.19-.06.19l.17-.09c.08-.04.16-.09.23-.15.18-.14.34-.34.41-.57.08-.23.08-.5-.06-.79.03-.02.05-.04.08-.06.02-.03.04-.05.05-.08.02-.06,0-.12-.06-.17-.04-.04-.09-.07-.16-.1-.18-.07-.46-.12-.76-.12h0c-.44,0-1.45-.21-1.83-.29l.79-.74h-.24l-.77.72Zm-3.51,3.26c-.24-.26-.4-.54-.47-.79-.03-.11-.04-.21-.03-.3,0-.04.01-.07.02-.1.18.06.38.13.55.27-.04.15-.07.3-.08.46,0,.15,0,.3.02.46Zm3.68,1.24c-.35-.1-.6-.22-.74-.37-.12-.12-.15-.26-.1-.43h0c.07-.01.15-.03.25-.04.09-.01.16-.02.23-.02,0,.03,0,.06.01.09.04.23.16.49.35.78Zm2.65-2.93c-.07.2-.2.37-.36.5-.01,0-.03.02-.04.03h0c.01-.09.02-.16.03-.23.01-.23-.03-.45-.12-.66,0-.01.02-.03.03-.04.08-.12.21-.18.34-.23.02-.01.05-.02.07-.03.11.24.12.46.05.66Z"/><polygon class="cls-6" points="62.48 62.03 64.24 63.51 64.24 61.33 62.48 61.33 62.48 62.03"/><path class="cls-5" d="m48.96,34.62c-.17-.4-.15-.67.06-.82-.1-.06-.18-.12-.22-.16-.16-.16-.4.9.32,1.23.11-.27.32-.49.64-.66,0,0-.17-.09-.37-.2-.25.13-.39.34-.43.6Z"/><path class="cls-3" d="m48.51,36.81c.06-.01.11-.02.16-.03h-.01c-.2-.02-.39-.05-.59-.08-.81-.13-1.53-.32-2.17-.59.36.28.9.53,1.62.74.41.02.74,0,.99-.04Z"/><path class="cls-3" d="m48.47,33.32c-.51-.22-1.1-.39-1.65-.27-.26.05-.47.17-.61.34-.14.17-.23.39-.23.65-.01.43.17.97.59,1.58.08-.1.22-.19.38-.26.13-.05.29-.09.46-.09.17,0,.35.03.53.1.41.17.82.56,1.1,1.34l.02.07-.06.03h0c-.06.03-.13.06-.2.09-.08.02-.17.05-.26.06-.42.07-1.03.06-1.83-.02.01,0,.02,0,.03.01.14.06.31.11.48.15.9.22,2.07.22,2.34.05.04-.03.06-.08.06-.15-.08-1.01-1.22-1.99-1.22-3.22,0-.2.02-.36.07-.48Z"/><path class="cls-3" d="m45.93,63c-.13.05-.26.11-.34.23,0,.01-.02.03-.03.04.09.21.13.43.12.66,0,.07-.01.14-.03.21h0s.03,0,.04-.01c.16-.13.29-.3.36-.5.07-.19.06-.42-.05-.66-.02.01-.05.02-.07.03Z"/><path class="cls-3" d="m43.04,65.69c-.06,0-.14.01-.23.02-.1.01-.18.03-.25.04h0c-.05.17-.02.32.1.44.14.14.39.26.74.37-.19-.29-.31-.55-.35-.78,0-.03,0-.06-.01-.09Z"/><path class="cls-3" d="m39.24,64.12s-.02.06-.02.1c0,.09,0,.19.03.3.07.25.23.53.47.79-.02-.16-.03-.32-.02-.46.01-.16.04-.31.08-.46-.17-.14-.37-.21-.55-.27Z"/><path class="cls-3" d="m39.78,60.83s0-.05,0-.08c-.18.08-.31.2-.39.36-.03.07-.05.15-.07.23h.43s.03-.03.05-.04c.02-.17,0-.34-.01-.47Z"/><path class="cls-3" d="m39.27,61.85c.16-.25.32-.41.48-.52h-.43c-.04.15-.06.32-.05.52Z"/><path class="cls-3" d="m40.27,60.71c-.11-.09-.2-.14-.26-.16-.03-.01-.05-.01-.06,0,0,0-.01.01-.02.02,0,.02-.01.05-.01.08,0,.04,0,.1.01.16.02.14.02.33,0,.52h1.46c-.47-.23-.94-.47-1.12-.62Z"/><polygon class="cls-3" points="46 59.46 46 58.43 45.03 58.56 43 61.33 44 61.33 46 59.46"/><path class="cls-3" d="m42.59,61.89l-.06-.03s-.57-.25-1.14-.53h-1.46c0,.05,0,.1-.02.15h0s0,0,0,0c-.03.13-.05.19-.02.21.05.04.21.06.51.1h0c.65.08,1.69.41,1.69.41l.18.06-.16.09s-1.83,1.06-2.07,1.23h0c-.1.07-.29.14-.47.22-.14.06-.29.11-.36.15h.02c.23.08.52.18.74.41h0c.08.08.12.18.16.26.03.06.05.11.07.12.03.02.1-.04.29-.29.49-.67,1.93-1.65,1.94-1.66l.11-.08v.14s.09,1.07-.07,2.07c-.02.15-.05.27-.06.37-.04.21-.06.32-.04.34,0,0,.05-.01.17-.03.07-.01.15-.03.26-.04.47-.06.61-.03.71-.01.03,0,.05,0,.07.01,0-.09-.07-.26-.13-.42-.03-.08-.06-.15-.08-.21h0s0,0,0,0c-.08-.26-.08-2.15-.08-2.15v-.11l.1.03s1.14.33,1.47.68c.13.13.23.13.32.08.11-.06.2-.2.27-.31.11-.16.26-.23.41-.29.09-.04.18-.07.24-.13,0,0,0,0,0,0,0,0,0,0-.01,0-.02-.02-.06-.04-.12-.06-.16-.06-.42-.11-.7-.11h0c-.57,0-2.01-.33-2.02-.33l-.15-.03.11-.11.77-.72h-1.01l-.37.51-.04.05Z"/><path class="cls-2" d="m54.42,63.23c-.08-.12-.21-.18-.34-.23-.02-.01-.05-.02-.07-.03-.11.24-.12.46-.05.66.07.2.2.37.36.5.01,0,.03.02.04.03h0c-.01-.09-.02-.16-.03-.23-.01-.23.03-.45.12-.66,0-.01-.02-.03-.03-.04Z"/><path class="cls-2" d="m57.45,65.76c-.07-.01-.15-.03-.25-.04-.09-.01-.16-.02-.23-.02,0,.03,0,.06-.01.09-.04.23-.16.49-.35.78.35-.1.6-.22.74-.37.12-.12.15-.26.1-.43h0Z"/><path class="cls-2" d="m60.23,64.39c.04.15.07.3.08.46,0,.15,0,.3-.02.46.24-.26.4-.54.47-.79.03-.11.04-.21.03-.3,0-.04-.01-.07-.02-.1-.18.06-.38.13-.55.27Z"/><path class="cls-2" d="m60.63,61.1c-.08-.15-.2-.27-.38-.36,0,.03,0,.05,0,.08-.01.13-.03.3-.01.47.02,0,.03.03.05.04h.43c-.02-.08-.04-.16-.07-.23Z"/><path class="cls-2" d="m60.75,61.85c0-.2-.01-.37-.05-.52h-.43c.16.1.32.27.48.52Z"/><polygon class="cls-2" points="54.98 58.56 54.01 58.43 54.01 59.46 56.01 61.33 57.01 61.33 54.98 58.56"/><path class="cls-2" d="m60.08,60.81c0-.06.01-.12.01-.16,0-.03,0-.06-.01-.08,0-.01-.01-.02-.02-.02-.01,0-.03,0-.06,0-.06.02-.14.07-.26.16-.18.15-.65.4-1.12.62h1.46c-.02-.19-.01-.38,0-.52Z"/><path class="cls-2" d="m56.9,62.16l-.15.03s-1.45.33-2.02.33h0c-.28,0-.54.04-.7.11-.05.02-.09.04-.12.06,0,0-.01,0-.01,0,0,0,0,0,0,0,.06.06.15.1.24.13.15.06.3.13.41.29.08.12.17.25.27.31h0c.09.05.2.05.32-.08.34-.34,1.47-.67,1.47-.68l.1-.03v.11s0,1.89-.09,2.15h0c-.02.06-.05.13-.08.21-.06.16-.13.33-.13.42.03,0,.05,0,.07-.01.1-.02.24-.05.71.01.1.01.19.03.26.04.11.02.17.03.17.03.01-.03,0-.13-.05-.34-.02-.1-.04-.22-.06-.37-.16-.99-.08-2.06-.08-2.07v-.14s.12.08.12.08c0,0,1.45.99,1.94,1.66.19.26.26.31.28.29.02-.02.04-.07.07-.12.04-.08.08-.18.16-.26h0s0,0,0,0c.22-.23.51-.32.74-.4h.02c-.08-.04-.22-.1-.36-.16-.18-.07-.37-.15-.47-.22h0c-.24-.16-2.07-1.22-2.07-1.23l-.16-.09.18-.06s1.05-.33,1.69-.41h0c.31-.04.46-.06.51-.1.03-.02,0-.08-.02-.21h0c-.01-.05,0-.1-.02-.15h-1.46c-.57.28-1.13.53-1.14.53l-.06.03-.04-.05-.37-.51h-1.01l.77.72.11.11Z"/></svg>