<svg xmlns="http://www.w3.org/2000/svg" width="84" height="66"><clipPath id="b"><path fill="#FFF" d="M0 0h84v66H0z"/></clipPath><g clip-path="url(#b)"><path fill="#DE2910" d="M0 0h84v66H0z"/><path fill="#FFDE00" fill-rule="evenodd" d="m27.335 33.47-8.531-6.248-8.554 6.211 3.305-10.044L5 17.234h10.573l3.265-10.078 3.229 10.072h10.574l-8.578 6.179 3.272 10.063Zm16.857-22.107-1.781-3.022-3.42.773 2.322-2.628-1.792-3.012 3.216 1.396 2.312-2.636-.336 3.491 3.221 1.386-3.422.759-.32 3.493Zm7.704 9.66-.48-3.474-3.455-.604 3.156-1.529-.493-3.467 2.429 2.528 3.151-1.542-1.654 3.092 2.44 2.519-3.453-.619-1.641 3.096Zm-1.83 13.722.96-3.373-2.92-1.942 3.505-.13.946-3.377 1.207 3.293 3.505-.145-2.759 2.167 1.219 3.288-2.913-1.955-2.75 2.174Zm-10.968 8.256 2.199-2.733-1.931-2.923 3.278 1.246 2.189-2.744-.172 3.503 3.281 1.23-3.384.919L44.403 45l-1.924-2.932-3.381.933Z"/></g></svg>