<?xml version="1.0" encoding="UTF-8"?><svg id="Layer_1" xmlns="http://www.w3.org/2000/svg" viewBox="0 0 84 51.33"><defs><style>.cls-1{fill:#013362;}.cls-2{fill:#e72a2e;}.cls-3{fill:#ededed;}</style></defs><g><rect class="cls-2" y="0" width="23.05" height="20.22"/><rect class="cls-2" y="31.12" width="23.05" height="20.22"/><rect class="cls-2" x="33.94" y="0" width="50.06" height="20.22"/><rect class="cls-2" x="33.94" y="31.12" width="50.06" height="20.22"/></g><rect class="cls-1" x="1.03" y="22.27" width="24.07" height="0"/><rect class="cls-1" x="1.03" y="29.06" width="24.07" height="0"/><rect class="cls-1" x="31.89" y="29.06" width="51.08" height="0"/><rect class="cls-1" x="31.89" y="22.27" width="51.08" height="0"/><g><polygon class="cls-3" points="23.05 20.22 0 20.22 0 22.27 1.03 22.27 1.03 22.27 25.1 22.27 25.1 0 23.05 0 23.05 20.22"/><polygon class="cls-3" points="33.94 20.22 33.94 0 31.89 0 31.89 22.27 82.97 22.27 82.97 22.27 84 22.27 84 20.22 33.94 20.22"/><polygon class="cls-3" points="82.97 29.06 31.89 29.06 31.89 51.33 33.94 51.33 33.94 31.12 84 31.12 84 29.06 82.97 29.06 82.97 29.06"/><polygon class="cls-3" points="1.03 29.06 0 29.06 0 31.12 23.05 31.12 23.05 51.33 25.1 51.33 25.1 29.06 1.03 29.06 1.03 29.06"/></g><polygon class="cls-1" points="84 22.27 84 29.06 31.89 29.06 31.89 51.33 25.1 51.33 25.1 29.06 0 29.06 0 22.27 25.1 22.27 25.1 0 31.89 0 31.89 22.27 84 22.27"/></svg>