<?xml version="1.0" encoding="UTF-8"?><svg id="Layer_1" xmlns="http://www.w3.org/2000/svg" viewBox="0 0 84 51.33"><defs><style>.cls-1,.cls-2,.cls-3,.cls-4,.cls-5,.cls-6,.cls-7,.cls-8,.cls-9,.cls-10{stroke:#000;}.cls-1,.cls-2,.cls-3,.cls-4,.cls-6,.cls-8,.cls-9{stroke-miterlimit:3;}.cls-1,.cls-2,.cls-4,.cls-6,.cls-7,.cls-9,.cls-10{stroke-width:.04px;}.cls-1,.cls-3,.cls-11,.cls-4,.cls-12,.cls-13,.cls-8,.cls-9,.cls-14{fill-rule:evenodd;}.cls-1,.cls-3,.cls-11,.cls-4,.cls-6,.cls-7,.cls-8,.cls-15{fill:#e1cc68;}.cls-1,.cls-3,.cls-5,.cls-7,.cls-8,.cls-10{stroke-linecap:round;}.cls-2,.cls-5,.cls-10{fill:none;}.cls-16{fill:#fff;}.cls-17,.cls-12,.cls-9{fill:#ce2b37;}.cls-3{stroke-width:.04px;}.cls-18{fill:#009246;}.cls-5{stroke-width:.04px;}.cls-5,.cls-7,.cls-10{stroke-linejoin:round;}.cls-19{fill:#d2232c;}.cls-20{isolation:isolate;opacity:.33;}.cls-21{fill:#007cc3;}.cls-13{fill:#4b61d1;}.cls-22{fill:#5a6e42;}.cls-8{stroke-width:.05px;}</style></defs><path class="cls-18" d="m0,0h27.04v51.33H0V0Z"/><path class="cls-16" d="m27.04,0h29.92v51.33h-29.92V0Z"/><path class="cls-17" d="m56.96,0h27.04v51.33h-27.04V0Z"/><path class="cls-19" d="m32.77,21.14h17.98v21.49h-17.98v-21.49Z"/><path class="cls-16" d="m40.37,21.14h2.78v21.49h-2.78v-21.49Z"/><path class="cls-16" d="m50.75,30.11v2.78h-17.98v-2.78h17.98Z"/><path class="cls-13" d="m29.4,18.92s1.12.97,1.12,2.91v18.22c0,2.7,2.03,4.17,4.12,4.17h5.49c1.38,0,1.63,1.17,1.63,1.17,0,0,.24-1.17,1.63-1.17h5.49c2.09,0,4.12-1.47,4.12-4.17v-18.22c0-1.94,1.12-2.91,1.12-2.91h-24.71Zm3.71,2.57h17.29v17.95c0,1.17-.46,2.08-1.88,2.08h-5.21c-1.07,0-1.55.76-1.55.76,0,0-.48-.76-1.55-.76h-5.21c-1.43,0-1.88-.91-1.88-2.08v-17.95Z"/><path class="cls-12" d="m36.02,8.88c-.58.4-1.1.81-1.5,1.21l.1,1.38,1.26,1.64.68.79h10.18l.79-1.2,1.24-1.41v-1.44c-.53-.36-1.07-.71-1.66-1.04-.49-.06-.95-.09-1.33-.08-.44-.18-.89-.36-1.47-.51-.38.11-.76.22-1.07.36-.52-.08-.97-.2-1.62-.22-.57.07-1.14.14-1.78.14-.51-.07-1.02-.15-1.6-.19l-1.02.6c-.36-.02-.67-.05-1.19-.04Z"/><path class="cls-2" d="m36.02,8.88c-.58.4-1.1.81-1.5,1.21l.1,1.38,1.26,1.64.68.79h10.18l.79-1.2,1.24-1.41v-1.44c-.53-.36-1.07-.71-1.66-1.04-.49-.06-.95-.09-1.33-.08-.44-.18-.89-.36-1.47-.51-.38.11-.76.22-1.07.36-.52-.08-.97-.2-1.62-.22-.57.07-1.14.14-1.78.14-.51-.07-1.02-.15-1.6-.19l-1.02.6c-.36-.02-.67-.05-1.19-.04Z"/><path class="cls-6" d="m39.92,6.88c-1.75,1.01-3.38-.16-5.29.25-.89.19-1.82.94-1.66,2.4.07.64.79,1.74,1.83,2.18l.26-.21c-.77-.6-1.3-1.34-1.35-1.99-.04-.53.04-1.47,1.38-1.79,1.11-.27,2.42.21,3.6.13,1.5-.09,2.83-1.24,2.95-1.5l-.5-.36c-.36.31-.77.64-1.22.9Z"/><path class="cls-2" d="m41.14,6.18l.26.18c-.04.05-.07.09-.17.19-.16.14-.38.31-.64.47-.52.32-1.21.62-1.92.66-1.12.07-2.45-.42-3.62-.13-.71.17-1.11.52-1.31.9-.2.38-.21.78-.19,1.06.05.67.56,1.37,1.26,1.97l-.03.03c-.45-.21-.84-.55-1.13-.92-.3-.39-.49-.81-.52-1.08-.08-.69.11-1.19.4-1.55.3-.36.72-.58,1.13-.67.91-.19,1.77-.01,2.65.1.87.12,1.77.16,2.69-.37.42-.24.8-.55,1.14-.84Z"/><path class="cls-16" d="m35.69,7.02c0,.21.17.39.39.39s.39-.17.39-.39-.17-.39-.39-.39-.39.17-.39.39Z"/><path class="cls-10" d="m35.69,7.02c0,.21.17.39.39.39s.39-.17.39-.39-.17-.39-.39-.39-.39.17-.39.39Z"/><path class="cls-16" d="m33.95,7.25c0,.21.17.39.39.39s.39-.17.39-.39-.17-.39-.39-.39-.39.17-.39.39Z"/><path class="cls-10" d="m33.95,7.25c0,.21.17.39.39.39s.39-.17.39-.39-.17-.39-.39-.39-.39.17-.39.39Z"/><path class="cls-16" d="m33.21,7.69c0,.21.17.39.39.39s.39-.17.39-.39-.17-.39-.39-.39-.39.17-.39.39Z"/><path class="cls-10" d="m33.21,7.69c0,.21.17.39.39.39s.39-.17.39-.39-.17-.39-.39-.39-.39.17-.39.39Z"/><path class="cls-16" d="m32.75,8.42c0,.21.17.39.39.39s.39-.17.39-.39-.17-.39-.39-.39-.39.17-.39.39Z"/><path class="cls-10" d="m32.75,8.42c0,.21.17.39.39.39s.39-.17.39-.39-.17-.39-.39-.39-.39.17-.39.39Z"/><path class="cls-10" d="m32.75,8.42c0,.21.17.39.39.39s.39-.17.39-.39-.17-.39-.39-.39-.39.17-.39.39Z"/><path class="cls-16" d="m32.67,10.1c0,.21.17.39.39.39s.39-.17.39-.39-.17-.39-.39-.39-.39.17-.39.39Z"/><path class="cls-10" d="m32.67,10.1c0,.21.17.39.39.39s.39-.17.39-.39-.17-.39-.39-.39-.39.17-.39.39Z"/><path class="cls-16" d="m33.07,10.86c0,.21.17.39.39.39s.39-.17.39-.39-.17-.39-.39-.39-.39.17-.39.39Z"/><path class="cls-10" d="m33.07,10.86c0,.21.17.39.39.39s.39-.17.39-.39-.17-.39-.39-.39-.39.17-.39.39Z"/><path class="cls-16" d="m34.8,7.04c0,.21.17.39.39.39s.39-.17.39-.39-.17-.39-.39-.39-.39.17-.39.39Z"/><path class="cls-10" d="m34.8,7.04c0,.21.17.39.39.39s.39-.17.39-.39-.17-.39-.39-.39-.39.17-.39.39Z"/><path class="cls-16" d="m32.55,9.25c0,.21.17.39.39.39s.39-.17.39-.39-.17-.39-.39-.39-.39.17-.39.39Z"/><path class="cls-10" d="m32.55,9.25c0,.21.17.39.39.39s.39-.17.39-.39-.17-.39-.39-.39-.39.17-.39.39Z"/><path class="cls-6" d="m43.38,6.88c1.75,1.01,3.38-.16,5.29.25.89.19,1.82.94,1.66,2.4-.07.64-.79,1.74-1.83,2.18l-.26-.21c.77-.6,1.3-1.34,1.35-1.99.04-.53-.04-1.47-1.38-1.79-1.11-.27-2.42.21-3.6.13-1.5-.09-2.83-1.24-2.95-1.5l.5-.36c.36.31.77.64,1.22.9Z"/><path class="cls-2" d="m42.16,6.18l-.26.18c.04.05.07.09.17.19.16.14.38.31.64.47.52.32,1.21.62,1.92.66,1.12.07,2.45-.42,3.62-.13.71.17,1.11.52,1.31.9.2.38.21.78.19,1.06-.05.67-.56,1.37-1.26,1.97l.03.03c.45-.21.84-.55,1.13-.92.3-.39.49-.81.52-1.08.08-.69-.11-1.19-.4-1.55-.3-.36-.72-.58-1.13-.67-.91-.19-1.77-.01-2.65.1-.87.12-1.77.16-2.69-.37-.42-.24-.8-.55-1.14-.84Z"/><path class="cls-16" d="m47.61,7.02c0,.21-.17.39-.39.39s-.39-.17-.39-.39.17-.39.39-.39.39.17.39.39Z"/><path class="cls-10" d="m47.61,7.02c0,.21-.17.39-.39.39s-.39-.17-.39-.39.17-.39.39-.39.39.17.39.39Z"/><path class="cls-16" d="m49.35,7.25c0,.21-.17.39-.39.39s-.39-.17-.39-.39.17-.39.39-.39.39.17.39.39Z"/><path class="cls-10" d="m49.35,7.25c0,.21-.17.39-.39.39s-.39-.17-.39-.39.17-.39.39-.39.39.17.39.39Z"/><path class="cls-16" d="m50.09,7.69c0,.21-.17.39-.39.39s-.39-.17-.39-.39.17-.39.39-.39.39.17.39.39Z"/><path class="cls-10" d="m50.09,7.69c0,.21-.17.39-.39.39s-.39-.17-.39-.39.17-.39.39-.39.39.17.39.39Z"/><path class="cls-16" d="m50.55,8.42c0,.21-.17.39-.39.39s-.39-.17-.39-.39.17-.39.39-.39.39.17.39.39Z"/><path class="cls-10" d="m50.55,8.42c0,.21-.17.39-.39.39s-.39-.17-.39-.39.17-.39.39-.39.39.17.39.39Z"/><path class="cls-10" d="m50.55,8.42c0,.21-.17.39-.39.39s-.39-.17-.39-.39.17-.39.39-.39.39.17.39.39Z"/><path class="cls-16" d="m50.62,10.1c0,.21-.17.39-.39.39s-.39-.17-.39-.39.17-.39.39-.39.39.17.39.39Z"/><path class="cls-10" d="m50.62,10.1c0,.21-.17.39-.39.39s-.39-.17-.39-.39.17-.39.39-.39.39.17.39.39Z"/><path class="cls-16" d="m50.23,10.86c0,.21-.17.39-.39.39s-.39-.17-.39-.39.17-.39.39-.39.39.17.39.39Z"/><path class="cls-10" d="m50.23,10.86c0,.21-.17.39-.39.39s-.39-.17-.39-.39.17-.39.39-.39.39.17.39.39Z"/><path class="cls-16" d="m48.5,7.04c0,.21-.17.39-.39.39s-.39-.17-.39-.39.17-.39.39-.39.39.17.39.39Z"/><path class="cls-10" d="m48.5,7.04c0,.21-.17.39-.39.39s-.39-.17-.39-.39.17-.39.39-.39.39.17.39.39Z"/><path class="cls-16" d="m50.75,9.25c0,.21-.17.39-.39.39s-.39-.17-.39-.39.17-.39.39-.39.39.17.39.39Z"/><path class="cls-10" d="m50.75,9.25c0,.21-.17.39-.39.39s-.39-.17-.39-.39.17-.39.39-.39.39.17.39.39Z"/><path class="cls-4" d="m43.44,13.28h.06c.09-1.2-.46-1.53.16-1.99.52.57-.08.79-.22,1.99Z"/><path class="cls-4" d="m39.86,13.28h-.06c-.09-1.2.46-1.53-.16-1.99-.52.57.08.79.22,1.99Z"/><path class="cls-4" d="m46.16,13.79l.06.02c.34-1.16-.13-1.6.57-1.92.39.66-.24.75-.63,1.9Z"/><path class="cls-4" d="m36.81,13.05l.1-.03s.3-.82-.4-1.14c-.39.66.3,1.17.3,1.17Z"/><path class="cls-7" d="m41.65,12.53c-.2.5-.6.73-.99.73-.35,0-.7-.2-.89-.52-.15.37-.41.57-.7.6-.29.04-.59-.09-.83-.32-.09.28-.32.46-.57.49-.24.03-.51-.06-.72-.25-.05.23-.19.4-.37.48-.17.08-.37.08-.54,0h0c0,.11-.05.32-.05.32-.13.1-.07.11.05.18,0,0,.13.11.18.25.05.15.12.6.1.75-.02.15-.17.35-.17.35,0,0,0,.05.02.14h11.01c0-.08,0-.14,0-.14,0,0-.15-.19-.17-.35-.02-.15.05-.61.1-.75.05-.14.18-.25.18-.25l.05-.18s-.05-.21-.05-.32h0c-.18.08-.37.08-.54,0-.18-.08-.32-.26-.37-.48-.21.19-.48.28-.72.25-.26-.03-.48-.21-.57-.49-.24.23-.54.35-.83.32-.29-.03-.55-.24-.7-.6-.19.32-.53.51-.89.52-.39,0-.79-.23-.99-.73Z"/><path class="cls-3" d="m46.69,14.59s.07.02.11.04c.02,0,.03.03.03.05,0,.03,0,.05-.02.07-.01.02-.03.02-.05,0-.14-.08-.37-.02-.59.07-.15.06-.29.13-.41.16-.03,0-.06.02-.09.02-.01,0-.03,0-.04,0-.01,0-.03,0-.04,0,0,0-.02,0-.03,0,0,0-.02,0-.03,0,0,0-.02,0-.02-.01-.01,0-.02-.01-.03-.02,0,0,0,0-.01,0,0,0,0,0,0,0,0,0,0,0-.01-.01,0,0,0,0,0,0,0,0-.01-.01-.02-.02,0,0-.01-.01-.02-.02-.01-.01-.02-.03-.03-.04,0,0,0,0,0,0,0,0,0-.01-.01-.02,0-.01-.01-.02-.02-.03,0-.01-.01-.03-.02-.04,0-.01,0-.02-.01-.03,0,0,0,0,0,0,0,0,0,0,0,0,0,0,0-.02,0-.03-.01-.06-.01-.11,0-.17,0-.03.01-.05.03-.06.02-.01.03,0,.05,0,.01.02.02.04.02.06,0,.06,0,.12.03.17,0,0,0,.02.01.02,0,0,0,0,0,0,0,0,0,0,0,.01,0,0,0,.01,0,.01,0,0,0,0,0,0,0,0,.01.02.02.02,0,0,.01.01.02.02,0,0,0,0,0,0,0,0,.02.01.02.02,0,0,.02.01.03.02,0,0,0,0,0,0,0,0,.01,0,.02,0,0,0,.02,0,.03,0,.01,0,.02,0,.03,0,0,0,0,0,0,0,0,0,.01,0,.02,0,0,0,.01,0,.02,0,.01,0,.03,0,.04,0,.02,0,.03,0,.05-.01.11-.03.24-.09.37-.15.17-.07.35-.13.5-.12.01,0,.03,0,.04,0Z"/><path class="cls-3" d="m46,14.76s.07-.03.1-.04c-.02-.04-.03-.08-.05-.11,0-.02-.02-.05-.03-.08-.02-.04-.03-.08-.06-.12,0,0,0,0,0,0-.06-.12-.15-.24-.28-.26-.19-.03-.36.15-.39.38,0,0,0,.02,0,.02.03.01.06.02.09.02,0,0,0-.02,0-.03.02-.14.13-.28.27-.25.07.01.13.09.19.17,0,.02.02.03.03.05,0,0,0,0,0,.01,0,0,0,0,0,0,0,.02.02.04.03.05,0,0,0,0,0,0,.02.04.03.08.04.11,0,.02.02.05.03.08Z"/><path class="cls-8" d="m46.72,14.74s0-.1,0-.15c-.03-.16-.13-.3-.27-.32-.12-.02-.29.06-.47.14,0,0,0,0,0,0,.02.04.04.08.06.12.17-.07.31-.13.39-.12.08.01.15.08.18.17.02.05.03.11.03.15,0,0,0,.02,0,.03-.02.14-.13.28-.27.25-.07-.01-.13-.08-.18-.17-.04.01-.07.03-.11.05.06.12.15.24.27.26.19.03.36-.15.39-.38,0,0,0-.02,0-.02Zm-1.38-.04c.17.04.36-.03.54-.11.01,0,.03-.01.04-.02-.02-.04-.04-.08-.06-.12,0,0,0,0,0,0-.22.09-.44.16-.6.07-.02-.01-.04,0-.05,0-.01.02-.02.04-.02.07,0,.03.01.05.03.05.04.02.07.03.11.04Z"/><path class="cls-9" d="m36.15,15.74c-.18-.15,2.7-.76,5.5-.77,2.88,0,5.68.61,5.5.77-.36.3-2.75.86-5.5.86s-5.13-.56-5.5-.86Z"/><path class="cls-3" d="m36.62,14.59s-.07.02-.11.04c-.02,0-.03.03-.03.05,0,.03,0,.05.02.07.01.02.03.02.05,0,.14-.08.37-.02.59.07.15.06.29.13.41.16.03,0,.06.02.09.02.01,0,.03,0,.04,0,.01,0,.03,0,.04,0,0,0,.02,0,.03,0,0,0,.02,0,.03,0,0,0,.02,0,.02-.01.01,0,.02-.01.03-.02,0,0,0,0,.01,0,0,0,0,0,0,0,0,0,0,0,.01-.01,0,0,0,0,0,0,0,0,.01-.01.02-.02,0,0,.01-.01.02-.02.01-.01.02-.03.03-.04,0,0,0,0,0,0,0,0,0-.01.01-.02,0-.01.01-.02.02-.03,0-.01.01-.03.02-.04,0-.01,0-.02.01-.03,0,0,0,0,0,0,0,0,0,0,0,0,0,0,0-.02,0-.03.01-.06.01-.11,0-.17,0-.03-.01-.05-.03-.06-.02-.01-.03,0-.05,0-.01.02-.02.04-.02.06,0,.06,0,.12-.03.17,0,0,0,.02-.01.02,0,0,0,0,0,0,0,0,0,0,0,.01,0,0,0,.01,0,.01,0,0,0,0,0,0,0,0-.01.02-.02.02,0,0-.01.01-.02.02,0,0,0,0,0,0,0,0-.02.01-.02.02,0,0-.02.01-.03.02,0,0,0,0,0,0,0,0-.01,0-.02,0,0,0-.02,0-.03,0-.01,0-.02,0-.03,0,0,0,0,0,0,0,0,0-.01,0-.02,0,0,0-.01,0-.02,0-.01,0-.03,0-.04,0-.02,0-.03,0-.05-.01-.11-.03-.24-.09-.37-.15-.17-.07-.35-.13-.5-.12-.01,0-.03,0-.04,0Z"/><path class="cls-3" d="m37.31,14.76s-.07-.03-.1-.04c.02-.04.03-.08.05-.11,0-.02.02-.05.03-.08.02-.04.03-.08.06-.12,0,0,0,0,0,0,.06-.12.15-.24.28-.26.19-.03.36.15.39.38,0,0,0,.02,0,.02-.03.01-.06.02-.09.02,0,0,0-.02,0-.03-.02-.14-.13-.28-.27-.25-.07.01-.13.09-.19.17,0,.02-.02.03-.03.05,0,0,0,0,0,.01,0,0,0,0,0,0,0,.02-.02.04-.03.05,0,0,0,0,0,0-.02.04-.03.08-.04.11,0,.02-.02.05-.03.08Z"/><path class="cls-8" d="m36.59,14.74s0-.1,0-.15c.03-.16.13-.3.27-.32.12-.02.29.06.47.14,0,0,0,0,0,0-.02.04-.04.08-.06.12-.17-.07-.31-.13-.39-.12-.08.01-.15.08-.18.17-.02.05-.03.11-.03.15,0,0,0,.02,0,.03.02.14.13.28.27.25.07-.01.13-.08.18-.17.04.01.07.03.11.05-.06.12-.15.24-.27.26-.19.03-.36-.15-.39-.38,0,0,0-.02,0-.02Zm1.38-.04c-.17.04-.36-.03-.54-.11-.01,0-.03-.01-.04-.02.02-.04.04-.08.06-.12,0,0,0,0,0,0,.22.09.44.16.6.07.02-.01.04,0,.05,0,.01.02.02.04.02.07,0,.03-.01.05-.03.05-.04.02-.07.03-.11.04Z"/><path class="cls-11" d="m41.57,14.87c-1.09,0-2.22.1-3.19.23-1.01.13-1.81.29-2.2.45-.06.02-.09.09-.07.15.02.06.09.09.15.07.34-.13,1.16-.3,2.15-.43.98-.13,2.14-.23,3.23-.23s2.26.1,3.23.23c1,.13,1.81.3,2.15.43.06.02.13,0,.15-.07.02-.06,0-.13-.07-.15-.39-.15-1.2-.31-2.2-.45-.96-.13-2.1-.23-3.19-.23h-.15Z"/><path class="cls-11" d="m41.52,13.4c-2.14.03-4.61.36-5.53.65-.04.01-.07.04-.08.08,0,.04,0,.09.04.11.03.03.08.04.12.02.87-.28,3.45-.64,5.59-.64s4.72.36,5.6.64c.04.02.09,0,.12-.02.03-.03.05-.07.04-.11,0-.04-.04-.07-.08-.08-.92-.29-3.39-.62-5.53-.65-.04,0-.09,0-.13,0-.04,0-.09,0-.13,0Z"/><path class="cls-11" d="m41.61,11.89s-.09.27-.1.32c-.14.6-.5.81-.85.81-.35,0-.7-.24-.79-.65-.01-.05-.06-.09-.11-.09-.05,0-.1.04-.11.09-.1.51-.34.7-.6.73-.26.03-.57-.12-.78-.4-.03-.04-.08-.06-.12-.04-.05.01-.08.06-.08.1-.02.33-.2.48-.42.51-.22.03-.5-.09-.69-.36-.03-.04-.08-.06-.13-.04-.05.02-.08.07-.08.12.02.29-.1.47-.26.54-.09.04-.2.05-.3.02h0c-.16-.08-.27-.28-.36-.42l-.05.05c.07.11.14.21.18.32,0,.01.01.03.02.04.02.05.03.11.04.19.18.09.38.09.56.01.18-.08.32-.26.37-.48.21.19.48.28.72.25.26-.03.48-.21.57-.49.24.23.54.35.83.32.29-.03.55-.24.7-.6.19.32.53.51.89.52.39,0,.79-.23.99-.73.2.5.6.73.99.73.35,0,.7-.2.89-.52.15.37.41.57.7.6.29.04.59-.09.83-.32.09.28.32.46.57.49.24.03.51-.06.72-.25.05.23.19.4.37.48.17.08.38.08.56-.01.01-.08.02-.14.04-.2,0,0,0,0,0,0,0-.01,0-.02.01-.03.04-.1.12-.21.18-.32l-.05-.05c-.09.14-.19.35-.36.42h0c-.1.04-.21.03-.3-.02-.16-.07-.29-.25-.26-.54,0-.05-.03-.1-.08-.12-.05-.02-.1,0-.13.04-.19.28-.47.39-.69.36-.22-.03-.4-.18-.42-.51,0-.05-.04-.09-.08-.1-.05-.01-.1,0-.12.04-.21.28-.52.43-.78.4-.26-.03-.5-.23-.6-.73,0-.05-.06-.09-.11-.09-.05,0-.1.04-.11.09-.09.4-.44.64-.79.65-.35,0-.71-.22-.85-.82-.01-.05-.05-.31-.1-.31h-.07Z"/><path class="cls-11" d="m41.73,11.61l-.03-.02c-.4.56-.24.87-.66.93-.08-.42.27-.36.68-.91Z"/><path class="cls-14" d="m41.7,11.56l.05.04h-.01c-.05.08-.1.14-.15.19-.08.14-.12.26-.16.36-.01.03-.02.06-.04.09-.03.08-.06.14-.12.19-.05.05-.13.08-.23.09h-.02s0-.01,0-.01c-.02-.11-.01-.18.02-.25.03-.07.08-.12.15-.17.02-.02.05-.04.08-.06.08-.07.19-.14.29-.26.03-.06.07-.13.12-.2h.01Zm-.19.3c-.08.08-.16.14-.22.19-.03.02-.05.04-.08.06-.06.05-.11.1-.14.16-.02.05-.03.12-.02.21.09-.01.15-.04.2-.08.05-.04.08-.1.11-.18.01-.03.02-.06.03-.09.03-.08.06-.17.11-.27Z"/><path class="cls-11" d="m41.57,11.61l.03-.02c.4.56.24.87.66.93.08-.42-.27-.36-.68-.91Z"/><path class="cls-14" d="m41.6,11.56h.01c.05.08.09.15.12.21.11.12.21.19.29.26.03.02.05.04.08.06.06.05.12.1.15.17.03.07.04.14.02.25v.02s-.02,0-.02,0c-.11-.01-.18-.04-.23-.09-.05-.05-.09-.11-.12-.19-.01-.03-.02-.06-.04-.09-.04-.1-.08-.22-.16-.36-.05-.05-.1-.11-.15-.18h-.01s.05-.05.05-.05Zm.19.31c.05.1.08.19.11.27.01.03.02.06.03.09.03.08.06.14.11.18.04.04.1.07.2.08.02-.09,0-.16-.02-.21-.03-.06-.07-.1-.14-.16-.02-.02-.05-.04-.08-.06-.06-.05-.14-.11-.22-.19Z"/><path class="cls-11" d="m41.9,11.19l.02.02c.48-.49.37-.82.79-.81.01.42-.32.31-.81.79Z"/><path class="cls-14" d="m42.08,11.05c-.04.06-.09.11-.15.17h-.01s-.05-.03-.05-.03h.01c.06-.07.12-.12.17-.16.1-.13.16-.24.21-.33.02-.03.03-.06.05-.09.04-.07.09-.13.15-.17.06-.04.14-.06.25-.06h.02s0,.02,0,.02c0,.11-.02.18-.06.25-.04.06-.1.1-.17.15-.03.02-.06.03-.09.05-.09.05-.21.11-.33.21Zm.07-.09c.09-.06.18-.11.25-.15.03-.02.06-.03.09-.05.07-.04.12-.08.16-.13.03-.05.05-.11.05-.21-.09,0-.16.02-.21.05-.05.03-.09.09-.13.16-.02.03-.03.05-.05.09-.04.07-.09.15-.15.25Z"/><path class="cls-11" d="m41.4,11.19l-.02.02c-.48-.49-.37-.82-.79-.81-.01.42.32.31.81.79Z"/><path class="cls-14" d="m41.24,11.03c.06.04.11.09.17.15h.01s-.05.06-.05.06h-.01c-.06-.07-.11-.13-.15-.19-.13-.1-.24-.16-.33-.21-.03-.02-.06-.03-.09-.05-.07-.04-.13-.09-.17-.15-.04-.06-.06-.14-.06-.25v-.02s.02,0,.02,0c.11,0,.18.02.25.06.06.04.1.1.15.17.02.03.03.06.05.09.05.09.11.21.21.33Zm-.09-.07c-.06-.09-.11-.18-.15-.25-.02-.03-.03-.06-.05-.09-.04-.07-.08-.12-.13-.16-.05-.03-.11-.05-.21-.05,0,.09.02.16.05.21.03.05.09.09.16.13.03.02.05.03.09.05.07.04.15.09.25.15Z"/><path class="cls-11" d="m41.14,6.38s-.51.58-1.45.7c-.9.12-2.25-.33-2.43.99-.09.71.61,1.68.76,1.78-.29.21-.38.58-.49.81-.26-.19-.64-.32-.96-.35.16-.33-.46-1.57-.46-2.06,0-1.01.67-1.52,1.44-1.72.63-.16,1.17-.06,1.76-.06s1.6-.58,1.6-.58l.23.48Z"/><path class="cls-14" d="m40.92,5.87l.24.51h0s-.01,0-.01,0c.01.01.01.01.01.01h0s0,0,0,0h0s0,0,0,0c0,0,0,0,0,0,0,0-.01.01-.02.02-.02.02-.04.04-.07.07-.06.06-.16.13-.28.21-.25.16-.61.34-1.09.4-.22.03-.46.02-.71.02,0,0-.02,0-.03,0-.26,0-.51,0-.75.02-.23.03-.44.1-.61.25-.16.14-.28.36-.32.69-.05.35.1.77.29,1.11.09.17.19.32.27.44.04.06.08.11.11.14.03.04.06.06.08.07h.02s-.02.03-.02.03c-.14.1-.24.24-.31.39-.04.07-.07.15-.09.22,0,.01,0,.02-.01.04-.02.06-.04.11-.07.16v.02s-.03-.01-.03-.01c-.26-.19-.64-.32-.95-.34h-.03s.01-.02.01-.02c.02-.04.03-.09.02-.16,0-.06-.01-.14-.03-.23-.04-.17-.1-.37-.16-.58-.02-.05-.03-.1-.05-.15-.05-.16-.1-.31-.14-.45-.06-.19-.09-.36-.09-.49,0-.51.17-.89.43-1.18.27-.28.63-.46,1.02-.56.32-.08.61-.1.9-.09.12,0,.25,0,.37.02.02,0,.04,0,.06,0,.14,0,.29.01.44.01.29,0,.69-.14,1.01-.29.16-.07.31-.15.41-.2.05-.03.09-.05.12-.07.01,0,.03-.01.03-.02,0,0,0,0,0,0h0s0,0,0,0t0,.01h0s.02-.02.02-.02Zm-.02.05s-.02,0-.03.02c-.03.02-.07.04-.12.07-.1.05-.25.13-.41.2-.32.15-.73.29-1.03.29-.15,0-.3,0-.44-.01-.02,0-.04,0-.06,0-.12,0-.25-.01-.37-.02-.29,0-.58,0-.89.09-.38.1-.74.27-1,.55-.26.27-.42.65-.42,1.15,0,.12.04.29.09.48.04.14.09.3.14.45.02.05.03.1.05.15.07.21.13.41.16.58.02.09.03.16.03.23,0,.06,0,.11-.02.15.31.03.67.16.93.34.02-.04.04-.09.06-.14,0-.01,0-.02.01-.04.03-.07.06-.15.1-.22.07-.14.16-.28.3-.39-.02-.02-.04-.04-.06-.07-.03-.04-.07-.09-.12-.15-.09-.12-.18-.27-.28-.44-.18-.34-.34-.77-.29-1.13.04-.33.16-.56.33-.71.17-.15.39-.22.62-.26.24-.03.5-.03.75-.02,0,0,.02,0,.03,0,.25,0,.49.01.71-.02.47-.06.83-.23,1.07-.39.12-.08.21-.15.28-.21.03-.03.05-.05.07-.07,0,0,.01-.01.02-.02l-.22-.45Z"/><path class="cls-14" d="m40.85,6.09l.12.25h0c-.16.15-.59.5-1.29.59-.19.02-.42.02-.65.02-.02,0-.04,0-.06,0-.26,0-.52,0-.78.03-.25.04-.5.11-.69.29-.19.17-.33.43-.37.79-.05.41.11.85.3,1.21.09.18.2.34.29.46.03.04.05.07.08.1,0,0,0,.01.01.02h0s-.01.02-.01.02c-.18.19-.26.4-.33.57v.02s-.03,0-.03,0c-.21-.12-.45-.2-.69-.24h-.01s0-.02,0-.02c0-.09-.01-.18-.03-.29-.04-.18-.1-.38-.17-.59-.07-.21-.14-.42-.19-.61-.05-.19-.09-.34-.09-.44,0-.48.15-.81.39-1.07.24-.25.57-.42.94-.51.3-.08.58-.09.86-.08.12,0,.24,0,.36.01.02,0,.05,0,.07,0,.14,0,.29.01.44.01.35,0,.75-.15,1.08-.3.18-.08.33-.16.44-.21h.02Zm-.02.04c-.11.06-.25.13-.42.21-.33.15-.74.31-1.1.31-.15,0-.3,0-.45-.01-.02,0-.05,0-.07,0-.12,0-.24-.01-.36-.01-.28,0-.55,0-.85.08-.36.09-.69.26-.92.5-.23.25-.38.57-.38,1.04,0,.09.04.24.09.43.05.19.12.4.19.61.07.21.13.41.17.6.02.1.04.19.03.28.23.04.46.12.67.23.07-.17.15-.38.32-.56,0,0,0,0,0,0-.02-.03-.05-.06-.08-.1-.09-.12-.19-.28-.29-.46-.19-.36-.36-.8-.31-1.23.05-.36.18-.63.38-.81.2-.18.45-.26.71-.29.26-.04.53-.03.78-.03.02,0,.04,0,.06,0,.24,0,.46,0,.65-.02.68-.09,1.1-.41,1.26-.56l-.09-.2Z"/><path class="cls-16" d="m36.63,9.39c0,.21.17.39.39.39s.39-.17.39-.39-.17-.39-.39-.39-.39.17-.39.39Z"/><path class="cls-14" d="m37.01,9.02c.2,0,.37.17.37.37s-.17.37-.37.37-.37-.17-.37-.37.17-.37.37-.37Zm.41.37c0-.22-.18-.41-.41-.41s-.41.18-.41.41.18.41.41.41.41-.18.41-.41Z"/><path class="cls-16" d="m36.35,8.58c0,.21.17.39.39.39s.39-.17.39-.39-.17-.39-.39-.39-.39.17-.39.39Z"/><path class="cls-14" d="m36.74,8.21c.2,0,.37.17.37.37s-.17.37-.37.37-.37-.17-.37-.37.17-.37.37-.37Zm.41.37c0-.22-.18-.41-.41-.41s-.41.18-.41.41.18.41.41.41.41-.18.41-.41Z"/><path class="cls-16" d="m38.7,6.41c0,.21.17.39.39.39s.39-.17.39-.39-.17-.39-.39-.39-.39.17-.39.39Z"/><path class="cls-14" d="m39.09,6.04c.2,0,.37.17.37.37s-.17.37-.37.37-.37-.17-.37-.37.17-.37.37-.37Zm.41.37c0-.22-.18-.41-.41-.41s-.41.18-.41.41.18.41.41.41.41-.18.41-.41Z"/><path class="cls-16" d="m37.8,6.48c0,.21.17.39.39.39s.39-.17.39-.39-.17-.39-.39-.39-.39.17-.39.39Z"/><path class="cls-14" d="m38.19,6.11c.2,0,.37.17.37.37s-.17.37-.37.37-.37-.17-.37-.37.17-.37.37-.37Zm.41.37c0-.22-.18-.41-.41-.41s-.41.18-.41.41.18.41.41.41.41-.18.41-.41Z"/><path class="cls-16" d="m36.97,6.66c0,.21.17.39.39.39s.39-.17.39-.39-.17-.39-.39-.39-.39.17-.39.39Z"/><path class="cls-14" d="m37.35,6.29c.2,0,.37.17.37.37s-.17.37-.37.37-.37-.17-.37-.37.17-.37.37-.37Zm.41.37c0-.22-.18-.41-.41-.41s-.41.18-.41.41.18.41.41.41.41-.18.41-.41Z"/><path class="cls-16" d="m36.37,7.09c0,.21.17.39.39.39s.39-.17.39-.39-.17-.39-.39-.39-.39.17-.39.39Z"/><path class="cls-14" d="m36.75,6.71c.2,0,.37.17.37.37s-.17.37-.37.37-.37-.17-.37-.37.17-.37.37-.37Zm.41.37c0-.22-.18-.41-.41-.41s-.41.18-.41.41.18.41.41.41.41-.18.41-.41Z"/><path class="cls-16" d="m39.59,6.24c0,.21.17.39.39.39s.39-.17.39-.39-.17-.39-.39-.39-.39.17-.39.39Z"/><path class="cls-14" d="m39.98,5.87c.2,0,.37.17.37.37s-.17.37-.37.37-.37-.17-.37-.37.17-.37.37-.37Zm.41.37c0-.22-.18-.41-.41-.41s-.41.18-.41.41.18.41.41.41.41-.18.41-.41Z"/><path class="cls-16" d="m36.2,7.78c0,.21.17.39.39.39s.39-.17.39-.39-.17-.39-.39-.39-.39.17-.39.39Z"/><path class="cls-14" d="m36.59,7.41c.2,0,.37.17.37.37s-.17.37-.37.37-.37-.17-.37-.37.17-.37.37-.37Zm.41.37c0-.22-.18-.41-.41-.41s-.41.18-.41.41.18.41.41.41.41-.18.41-.41Z"/><path class="cls-11" d="m42.16,6.38s.51.58,1.45.7c.9.12,2.25-.33,2.43.99.09.71-.61,1.68-.76,1.78.29.21.38.58.49.81.26-.19.64-.32.96-.35-.16-.33.46-1.57.46-2.06,0-1.01-.67-1.52-1.44-1.72-.63-.16-1.17-.06-1.76-.06s-1.6-.58-1.6-.58l-.23.48Z"/><path class="cls-14" d="m42.4,5.88h0,0s0,0,0,0c0,0,0,0,0,0,0,0,.02.01.03.02.03.02.07.04.12.07.1.05.25.13.41.2.32.15.72.29,1.01.29.15,0,.29,0,.44-.01.02,0,.04,0,.06,0,.12,0,.25-.01.37-.02.29,0,.58,0,.9.09.39.1.75.28,1.02.56.27.28.43.66.43,1.18,0,.13-.04.3-.09.49-.04.14-.09.3-.14.45-.02.05-.03.1-.05.15-.07.21-.13.41-.16.58-.02.08-.03.16-.03.23,0,.07,0,.12.02.16v.02s-.01,0-.01,0c-.31.02-.7.16-.95.34h-.02s0,0,0,0c-.02-.05-.04-.1-.07-.16,0-.01,0-.02-.01-.04-.03-.07-.06-.14-.09-.22-.07-.15-.17-.29-.31-.39h-.02s.02-.03.02-.03c.02-.01.04-.04.08-.07.03-.04.07-.09.11-.14.08-.12.18-.27.27-.44.18-.34.33-.76.29-1.11-.04-.33-.16-.54-.32-.69-.16-.14-.37-.21-.61-.25-.23-.03-.49-.03-.75-.02,0,0-.02,0-.03,0-.25,0-.49.01-.71-.02-.47-.06-.84-.24-1.09-.4-.12-.08-.22-.16-.28-.21-.03-.03-.06-.05-.07-.07,0,0-.01-.01-.02-.02,0,0,0,0,0,0h0s0,0,0,0h0s0,0,.01-.01h-.01s0,0,0,0l.24-.51h.02Zm-.22.5s0,0,.02.02c.02.02.04.04.07.07.06.06.15.13.28.21.24.16.6.33,1.07.39.22.03.46.02.71.02,0,0,.02,0,.03,0,.26,0,.52,0,.75.02.24.03.45.11.62.26.17.15.29.37.33.71.05.36-.11.79-.29,1.13-.09.17-.19.33-.28.44-.04.06-.08.11-.12.15-.02.03-.05.05-.06.07.14.1.23.25.3.39.04.07.07.15.1.22,0,.01,0,.02.01.04.02.05.04.1.06.14.26-.18.62-.31.93-.34-.01-.04-.02-.09-.02-.15,0-.07.01-.15.03-.23.04-.17.1-.37.16-.58.02-.05.03-.1.05-.15.05-.16.1-.31.14-.45.06-.19.09-.36.09-.48,0-.5-.17-.88-.42-1.15-.26-.27-.62-.45-1-.55-.31-.08-.6-.1-.89-.09-.12,0-.25,0-.37.02-.02,0-.04,0-.06,0-.14,0-.29.01-.44.01-.3,0-.7-.15-1.03-.29-.16-.07-.31-.15-.41-.2-.05-.03-.09-.05-.12-.07-.01,0-.02-.01-.03-.02l-.22.45Z"/><path class="cls-14" d="m42.45,6.09h.02c.11.07.25.14.44.22.33.15.73.3,1.08.3.15,0,.3,0,.44-.01.02,0,.05,0,.07,0,.12,0,.24-.01.36-.01.28,0,.56,0,.86.08.37.1.7.26.94.51.24.25.39.59.39,1.07,0,.09-.04.25-.09.44-.05.19-.12.4-.19.61-.07.21-.13.41-.17.59-.02.1-.04.2-.03.29h0s-.01.02-.01.02c-.24.04-.48.12-.69.24h-.02s0-.01,0-.01c-.07-.18-.15-.39-.33-.57h-.01s0-.02,0-.02c0,0,0-.01.01-.02.02-.03.05-.06.08-.1.09-.12.19-.28.29-.46.19-.36.36-.79.3-1.21-.05-.36-.18-.62-.37-.79-.19-.17-.44-.25-.69-.29-.25-.04-.52-.03-.78-.03-.02,0-.04,0-.06,0-.24,0-.46,0-.65-.02-.7-.09-1.13-.43-1.29-.58h0s.12-.26.12-.26Zm.02.05l-.09.2c.16.15.58.47,1.26.56.19.02.41.02.65.02.02,0,.04,0,.06,0,.26,0,.53,0,.78.03.26.04.51.12.71.29.2.18.34.45.38.81.06.42-.12.87-.31,1.23-.1.18-.2.34-.29.46-.03.04-.06.07-.08.1,0,0,0,0,0,0,.17.18.25.39.32.56.21-.11.44-.19.67-.23,0-.09.01-.18.03-.28.04-.18.1-.39.17-.6.07-.21.14-.42.19-.61.05-.19.09-.34.09-.43,0-.47-.15-.8-.38-1.04-.23-.25-.56-.41-.92-.5-.29-.08-.57-.09-.85-.08-.12,0-.24,0-.36.01-.02,0-.05,0-.07,0-.14,0-.29.01-.45.01-.35,0-.76-.16-1.1-.31-.18-.08-.32-.15-.42-.21Z"/><path class="cls-16" d="m46.67,9.39c0,.21-.17.39-.39.39s-.39-.17-.39-.39.17-.39.39-.39.39.17.39.39Z"/><path class="cls-14" d="m46.28,9.02c-.2,0-.37.17-.37.37s.17.37.37.37.37-.17.37-.37-.17-.37-.37-.37Zm-.41.37c0-.22.18-.41.41-.41s.41.18.41.41-.18.41-.41.41-.41-.18-.41-.41Z"/><path class="cls-16" d="m46.95,8.58c0,.21-.17.39-.39.39s-.39-.17-.39-.39.17-.39.39-.39.39.17.39.39Z"/><path class="cls-14" d="m46.56,8.21c-.2,0-.37.17-.37.37s.17.37.37.37.37-.17.37-.37-.17-.37-.37-.37Zm-.41.37c0-.22.18-.41.41-.41s.41.18.41.41-.18.41-.41.41-.41-.18-.41-.41Z"/><path class="cls-16" d="m44.59,6.41c0,.21-.17.39-.39.39s-.39-.17-.39-.39.17-.39.39-.39.39.17.39.39Z"/><path class="cls-14" d="m44.21,6.04c-.2,0-.37.17-.37.37s.17.37.37.37.37-.17.37-.37-.17-.37-.37-.37Zm-.41.37c0-.22.18-.41.41-.41s.41.18.41.41-.18.41-.41.41-.41-.18-.41-.41Z"/><path class="cls-16" d="m45.5,6.48c0,.21-.17.39-.39.39s-.39-.17-.39-.39.17-.39.39-.39.39.17.39.39Z"/><path class="cls-14" d="m45.11,6.11c-.21,0-.38.17-.38.38s.17.38.38.38.38-.17.38-.38-.17-.38-.38-.38Zm-.4.38c0-.22.18-.4.4-.4s.4.18.4.4-.18.4-.4.4-.4-.18-.4-.4Z"/><path class="cls-14" d="m45.11,6.11c-.2,0-.37.17-.37.37s.17.37.37.37.37-.17.37-.37-.17-.37-.37-.37Zm-.41.37c0-.22.18-.41.41-.41s.41.18.41.41-.18.41-.41.41-.41-.18-.41-.41Z"/><path class="cls-16" d="m46.33,6.66c0,.21-.17.39-.39.39s-.39-.17-.39-.39.17-.39.39-.39.39.17.39.39Z"/><path class="cls-14" d="m45.95,6.29c-.2,0-.37.17-.37.37s.17.37.37.37.37-.17.37-.37-.17-.37-.37-.37Zm-.41.37c0-.22.18-.41.41-.41s.41.18.41.41-.18.41-.41.41-.41-.18-.41-.41Z"/><path class="cls-16" d="m46.93,7.09c0,.21-.17.39-.39.39s-.39-.17-.39-.39.17-.39.39-.39.39.17.39.39Z"/><path class="cls-14" d="m46.54,6.71c-.2,0-.37.17-.37.37s.17.37.37.37.37-.17.37-.37-.17-.37-.37-.37Zm-.41.37c0-.22.18-.41.41-.41s.41.18.41.41-.18.41-.41.41-.41-.18-.41-.41Z"/><path class="cls-16" d="m43.71,6.24c0,.21-.17.39-.39.39s-.39-.17-.39-.39.17-.39.39-.39.39.17.39.39Z"/><path class="cls-14" d="m43.32,5.87c-.2,0-.37.17-.37.37s.17.37.37.37.37-.17.37-.37-.17-.37-.37-.37Zm-.41.37c0-.22.18-.41.41-.41s.41.18.41.41-.18.41-.41.41-.41-.18-.41-.41Z"/><path class="cls-16" d="m47.09,7.78c0,.21-.17.39-.39.39s-.39-.17-.39-.39.17-.39.39-.39.39.17.39.39Z"/><path class="cls-14" d="m46.71,7.41c-.2,0-.37.17-.37.37s.17.37.37.37.37-.17.37-.37-.17-.37-.37-.37Zm-.41.37c0-.22.18-.41.41-.41s.41.18.41.41-.18.41-.41.41-.41-.18-.41-.41Z"/><path class="cls-15" d="m41.65,2.63c-.16,0-.29.13-.29.3,0,.07.02.13.06.17-.04-.05-.11-.09-.19-.09-.13,0-.24.11-.24.24s.11.24.24.24c.09,0,.16-.05.21-.12v.45h-.56c.07-.04.12-.12.12-.21,0-.13-.11-.24-.24-.24s-.24.11-.24.24c0,.07.03.14.09.19-.05-.04-.11-.06-.17-.06-.16,0-.3.13-.3.3s.13.29.3.29c.07,0,.13-.02.17-.06-.05.04-.09.11-.09.19,0,.13.11.24.24.24s.24-.11.24-.24c0-.09-.05-.16-.12-.21h.56v1.65h.43v-1.65h.56c-.07.04-.12.12-.12.21,0,.13.11.24.24.24s.24-.11.24-.24c0-.07-.03-.14-.09-.19.05.04.11.06.17.06.16,0,.3-.13.3-.29s-.13-.3-.3-.3c-.07,0-.13.02-.17.06.05-.04.09-.11.09-.19,0-.13-.11-.24-.24-.24s-.24.11-.24.24c0,.09.05.16.12.21h-.56v-.45c.04.07.12.12.21.12.13,0,.24-.11.24-.24s-.11-.24-.24-.24c-.07,0-.14.03-.19.09.04-.05.06-.11.06-.17,0-.16-.13-.3-.3-.3Z"/><path class="cls-14" d="m41.34,2.93c0-.17.14-.31.31-.31s.31.14.31.31c0,.04,0,.07-.02.1.04-.02.08-.03.13-.03.14,0,.26.12.26.26s-.12.26-.26.26c-.08,0-.14-.03-.19-.08v.38h.49c-.05-.05-.08-.11-.08-.19,0-.14.12-.26.26-.26s.26.12.26.26c0,.05-.01.09-.03.13.03-.01.07-.02.1-.02.17,0,.31.14.31.31s-.14.31-.31.31c-.04,0-.07,0-.1-.02.02.04.03.08.03.13,0,.14-.12.26-.26.26s-.26-.12-.26-.26c0-.08.03-.14.08-.19h-.49v1.63s0,.02-.02.02h-.43s-.02,0-.02-.02v-1.63h-.49c.05.05.08.11.08.19,0,.14-.12.26-.26.26s-.26-.12-.26-.26c0-.05.01-.09.03-.13-.03.01-.07.02-.1.02-.17,0-.31-.14-.31-.31s.14-.31.31-.31c.04,0,.07,0,.1.02-.02-.04-.03-.08-.03-.13,0-.14.12-.26.26-.26s.26.12.26.26c0,.08-.03.14-.08.19h.49v-.38c-.05.05-.11.08-.19.08-.14,0-.26-.12-.26-.26s.12-.26.26-.26c.05,0,.09.01.13.03-.01-.03-.02-.07-.02-.1Zm.31-.28c-.15,0-.28.12-.28.28,0,.06.02.12.05.16,0,0,0,.02,0,.02,0,0-.02,0-.02,0-.04-.05-.1-.08-.17-.08-.12,0-.22.1-.22.22s.1.22.22.22c.08,0,.15-.04.19-.11,0,0,.01,0,.02,0,0,0,.01,0,.01.02v.45s0,.02-.02.02h-.56s-.01,0-.02-.01c0,0,0-.02,0-.02.07-.04.11-.11.11-.19,0-.12-.1-.22-.22-.22s-.22.1-.22.22c0,.07.03.13.08.17,0,0,0,.02,0,.02,0,0-.02,0-.02,0-.05-.03-.1-.05-.16-.05-.15,0-.28.13-.28.28s.12.28.28.28c.06,0,.12-.02.16-.05,0,0,.02,0,.02,0,0,0,0,.02,0,.02-.05.04-.08.1-.08.17,0,.12.1.22.22.22s.22-.1.22-.22c0-.08-.04-.15-.11-.19,0,0,0-.01,0-.02,0,0,0-.01.02-.01h.56s.02,0,.02.02v1.63h.4v-1.63s0-.02.02-.02h.56s.01,0,.02.01c0,0,0,.02,0,.02-.07.04-.11.11-.11.19,0,.12.1.22.22.22s.22-.1.22-.22c0-.07-.03-.13-.08-.17,0,0,0-.02,0-.02,0,0,.02,0,.02,0,.05.03.1.05.16.05.15,0,.28-.12.28-.28s-.13-.28-.28-.28c-.06,0-.12.02-.16.05,0,0-.02,0-.02,0,0,0,0-.02,0-.02.05-.04.08-.1.08-.17,0-.12-.1-.22-.22-.22s-.22.1-.22.22c0,.08.04.15.11.19,0,0,0,.01,0,.02,0,0,0,.01-.02.01h-.56s-.02,0-.02-.02v-.45s0-.01.01-.02c0,0,.02,0,.02,0,.04.07.11.11.19.11.12,0,.22-.1.22-.22s-.1-.22-.22-.22c-.07,0-.13.03-.17.08,0,0-.02,0-.02,0,0,0,0-.02,0-.02.03-.05.05-.1.05-.16,0-.15-.13-.28-.28-.28Z"/><path class="cls-15" d="m42.65,5.82c0,.56-.45,1.01-1.01,1.01s-1.01-.45-1.01-1.01.45-1.01,1.01-1.01,1.01.45,1.01,1.01Z"/><path class="cls-16" d="m41.78,5.73c0,.07-.06.14-.14.14s-.14-.06-.14-.14.06-.14.14-.14.14.06.14.14Z"/><path class="cls-14" d="m41.65,5.61c-.07,0-.12.05-.12.12s.05.12.12.12.12-.05.12-.12-.05-.12-.12-.12Zm-.15.12c0-.08.07-.15.15-.15s.15.07.15.15-.07.15-.15.15-.15-.07-.15-.15Z"/><path class="cls-14" d="m41.65,4.83c-.55,0-.99.44-.99.99s.44.99.99.99.99-.44.99-.99-.44-.99-.99-.99Zm-1.02.99c0-.57.46-1.02,1.02-1.02s1.02.46,1.02,1.02-.46,1.02-1.02,1.02-1.02-.46-1.02-1.02Z"/><path class="cls-16" d="m40.78,5.85c0,.07-.06.14-.14.14s-.14-.06-.14-.14.06-.14.14-.14.14.06.14.14Z"/><path class="cls-14" d="m40.65,5.73c-.07,0-.12.05-.12.12s.05.12.12.12.12-.05.12-.12-.05-.12-.12-.12Zm-.15.12c0-.08.07-.15.15-.15s.15.07.15.15-.07.15-.15.15-.15-.07-.15-.15Z"/><path class="cls-16" d="m40.97,5.8c0,.07-.06.14-.14.14s-.14-.06-.14-.14.06-.14.14-.14.14.06.14.14Z"/><path class="cls-14" d="m40.84,5.69c-.07,0-.12.05-.12.12s.05.12.12.12.12-.05.12-.12-.05-.12-.12-.12Zm-.15.12c0-.08.07-.15.15-.15s.15.07.15.15-.07.15-.15.15-.15-.07-.15-.15Z"/><path class="cls-16" d="m41.22,5.76c0,.07-.06.14-.14.14s-.14-.06-.14-.14.06-.14.14-.14.14.06.14.14Z"/><path class="cls-14" d="m41.09,5.65c-.07,0-.12.05-.12.12s.05.12.12.12.12-.05.12-.12-.05-.12-.12-.12Zm-.15.12c0-.08.07-.15.15-.15s.15.07.15.15-.07.15-.15.15-.15-.07-.15-.15Z"/><path class="cls-16" d="m41.49,5.74c0,.07-.06.14-.14.14s-.14-.06-.14-.14.06-.14.14-.14.14.06.14.14Z"/><path class="cls-14" d="m41.35,5.62c-.07,0-.12.05-.12.12s.05.12.12.12.12-.05.12-.12-.05-.12-.12-.12Zm-.15.12c0-.08.07-.15.15-.15s.15.07.15.15-.07.15-.15.15-.15-.07-.15-.15Z"/><path class="cls-16" d="m42.52,5.85c0,.07.06.14.14.14s.14-.06.14-.14-.06-.14-.14-.14-.14.06-.14.14Z"/><path class="cls-14" d="m42.65,5.73c.07,0,.12.05.12.12s-.05.12-.12.12-.12-.05-.12-.12.05-.12.12-.12Zm.15.12c0-.08-.07-.15-.15-.15s-.15.07-.15.15.07.15.15.15.15-.07.15-.15Z"/><path class="cls-16" d="m42.33,5.8c0,.07.06.14.14.14s.14-.06.14-.14-.06-.14-.14-.14-.14.06-.14.14Z"/><path class="cls-14" d="m42.46,5.69c.07,0,.12.05.12.12s-.05.12-.12.12-.12-.05-.12-.12.05-.12.12-.12Zm.15.12c0-.08-.07-.15-.15-.15s-.15.07-.15.15.07.15.15.15.15-.07.15-.15Z"/><path class="cls-16" d="m42.08,5.76c0,.07.06.14.14.14s.14-.06.14-.14-.06-.14-.14-.14-.14.06-.14.14Z"/><path class="cls-14" d="m42.21,5.65c.07,0,.12.05.12.12s-.05.12-.12.12-.12-.05-.12-.12.05-.12.12-.12Zm.15.12c0-.08-.07-.15-.15-.15s-.15.07-.15.15.07.15.15.15.15-.07.15-.15Z"/><path class="cls-16" d="m41.81,5.74c0,.07.06.14.14.14s.14-.06.14-.14-.06-.14-.14-.14-.14.06-.14.14Z"/><path class="cls-14" d="m41.95,5.62c.07,0,.12.05.12.12s-.05.12-.12.12-.12-.05-.12-.12.05-.12.12-.12Zm.15.12c0-.08-.07-.15-.15-.15s-.15.07-.15.15.07.15.15.15.15-.07.15-.15Z"/><path class="cls-16" d="m41.78,4.8c0,.07-.06.14-.14.14s-.14-.06-.14-.14.06-.14.14-.14.14.06.14.14Z"/><path class="cls-14" d="m41.65,4.68c-.07,0-.12.05-.12.12s.05.12.12.12.12-.05.12-.12-.05-.12-.12-.12Zm-.15.12c0-.08.07-.15.15-.15s.15.07.15.15-.07.15-.15.15-.15-.07-.15-.15Z"/><path class="cls-16" d="m41.78,4.97c0,.07-.06.14-.14.14s-.14-.06-.14-.14.06-.14.14-.14.14.06.14.14Z"/><path class="cls-14" d="m41.65,4.85c-.07,0-.12.05-.12.12s.05.12.12.12.12-.05.12-.12-.05-.12-.12-.12Zm-.15.12c0-.08.07-.15.15-.15s.15.07.15.15-.07.15-.15.15-.15-.07-.15-.15Z"/><path class="cls-16" d="m41.78,5.18c0,.07-.06.14-.14.14s-.14-.06-.14-.14.06-.14.14-.14.14.06.14.14Z"/><path class="cls-14" d="m41.65,5.07c-.07,0-.12.05-.12.12s.05.12.12.12.12-.05.12-.12-.05-.12-.12-.12Zm-.15.12c0-.08.07-.15.15-.15s.15.07.15.15-.07.15-.15.15-.15-.07-.15-.15Z"/><path class="cls-16" d="m41.78,5.43c0,.07-.06.14-.14.14s-.14-.06-.14-.14.06-.14.14-.14.14.06.14.14Z"/><path class="cls-14" d="m41.65,5.32c-.07,0-.12.05-.12.12s.05.12.12.12.12-.05.12-.12-.05-.12-.12-.12Zm-.15.12c0-.08.07-.15.15-.15s.15.07.15.15-.07.15-.15.15-.15-.07-.15-.15Z"/><path class="cls-11" d="m40.46,5.71l-.15.17c.66,1.61.86,4.44.86,5.74h.96c0-1.3.2-4.13.86-5.74l-.15-.17c-.26.45-.69.57-1.19.57s-.93-.12-1.19-.57Z"/><path class="cls-14" d="m40.46,5.68v.02c.26.44.69.57,1.19.57s.92-.12,1.17-.57v-.02s.19.2.19.2h0c-.33.81-.55,1.92-.68,2.99-.13,1.07-.18,2.1-.18,2.75v.02h-.99v-.02c0-.65-.05-1.68-.18-2.75-.13-1.07-.35-2.18-.68-2.98h0s.17-.21.17-.21Zm2.38.06c-.26.44-.7.56-1.19.56s-.93-.12-1.19-.56l-.13.15c.33.8.55,1.91.68,2.98.13,1.06.18,2.09.18,2.74h.92c0-.65.05-1.68.18-2.74.13-1.07.35-2.18.68-2.98l-.13-.15Z"/><path class="cls-16" d="m41.26,6.29c0,.21.17.39.39.39s.39-.17.39-.39-.17-.39-.39-.39-.39.17-.39.39Z"/><path class="cls-14" d="m41.65,5.92c.2,0,.37.17.37.37s-.17.37-.37.37-.37-.17-.37-.37.17-.37.37-.37Zm.41.37c0-.22-.18-.41-.41-.41s-.41.18-.41.41.18.41.41.41.41-.18.41-.41Z"/><path class="cls-14" d="m41.97,11.6c0-2.01.22-4.12.85-5.89h.03c-.63,1.78-.85,3.88-.85,5.89h-.03Z"/><path class="cls-14" d="m41.3,11.6c0-2.01-.22-4.11-.85-5.88h.03c.63,1.76.85,3.87.85,5.88h-.03Z"/><path class="cls-14" d="m41.65,5.92c.2,0,.37.17.37.37s-.17.37-.37.37-.37-.17-.37-.37.17-.37.37-.37Zm.41.37c0-.22-.18-.41-.41-.41s-.41.18-.41.41.18.41.41.41.41-.18.41-.41Z"/><path class="cls-16" d="m41.26,6.85c0,.21.17.39.39.39s.39-.17.39-.39-.17-.39-.39-.39-.39.17-.39.39Z"/><path class="cls-14" d="m41.65,6.48c.2,0,.37.17.37.37s-.17.37-.37.37-.37-.17-.37-.37.17-.37.37-.37Zm.41.37c0-.22-.18-.41-.41-.41s-.41.18-.41.41.18.41.41.41.41-.18.41-.41Z"/><path class="cls-14" d="m41.65,6.48c.2,0,.37.17.37.37s-.17.37-.37.37-.37-.17-.37-.37.17-.37.37-.37Zm.41.37c0-.22-.18-.41-.41-.41s-.41.18-.41.41.18.41.41.41.41-.18.41-.41Z"/><path class="cls-16" d="m41.26,7.52c0,.21.17.39.39.39s.39-.17.39-.39-.17-.39-.39-.39-.39.17-.39.39Z"/><path class="cls-14" d="m41.65,7.15c.2,0,.37.17.37.37s-.17.37-.37.37-.37-.17-.37-.37.17-.37.37-.37Zm.41.37c0-.22-.18-.41-.41-.41s-.41.18-.41.41.18.41.41.41.41-.18.41-.41Z"/><path class="cls-14" d="m41.65,7.15c.2,0,.37.17.37.37s-.17.37-.37.37-.37-.17-.37-.37.17-.37.37-.37Zm.41.37c0-.22-.18-.41-.41-.41s-.41.18-.41.41.18.41.41.41.41-.18.41-.41Z"/><path class="cls-16" d="m41.26,8.28c0,.21.17.39.39.39s.39-.17.39-.39-.17-.39-.39-.39-.39.17-.39.39Z"/><path class="cls-14" d="m41.65,7.91c.2,0,.37.17.37.37s-.17.37-.37.37-.37-.17-.37-.37.17-.37.37-.37Zm.41.37c0-.22-.18-.41-.41-.41s-.41.18-.41.41.18.41.41.41.41-.18.41-.41Z"/><path class="cls-14" d="m41.65,7.91c.2,0,.37.17.37.37s-.17.37-.37.37-.37-.17-.37-.37.17-.37.37-.37Zm.41.37c0-.22-.18-.41-.41-.41s-.41.18-.41.41.18.41.41.41.41-.18.41-.41Z"/><path class="cls-16" d="m41.26,9.1c0,.21.17.39.39.39s.39-.17.39-.39-.17-.39-.39-.39-.39.17-.39.39Z"/><path class="cls-14" d="m41.65,8.73c.2,0,.37.17.37.37s-.17.37-.37.37-.37-.17-.37-.37.17-.37.37-.37Zm.41.37c0-.22-.18-.41-.41-.41s-.41.18-.41.41.18.41.41.41.41-.18.41-.41Z"/><path class="cls-14" d="m41.65,8.73c.2,0,.37.17.37.37s-.17.37-.37.37-.37-.17-.37-.37.17-.37.37-.37Zm.41.37c0-.22-.18-.41-.41-.41s-.41.18-.41.41.18.41.41.41.41-.18.41-.41Z"/><path class="cls-11" d="m40.97,10.43c0-.19.07-.29.12-.35.04-.06.11-.11.22-.11.09,0,.24.06.34.06.11,0,.25-.06.35-.06.1,0,.18.06.22.11.04.07.12.16.12.35s-.07.35-.15.45c-.08.1-.15.16-.21.19-.05.03-.22.02-.32.02s-.26.01-.32-.02c-.06-.03-.13-.08-.21-.19-.08-.11-.15-.26-.15-.45Z"/><path class="cls-10" d="m41.63,10.28c0,.3-.05.61-.21.79"/><path class="cls-10" d="m41.67,10.28c0,.3.05.61.21.79"/><path class="cls-10" d="m42.23,10.22s-.07-.17-.18-.17c-.14,0-.14.23-.4.23s-.26-.23-.4-.23c-.11,0-.18.17-.18.17"/><path class="cls-10" d="m40.97,10.43c0-.19.07-.29.12-.35.04-.06.11-.11.22-.11.09,0,.24.06.34.06.11,0,.25-.06.35-.06.1,0,.18.06.22.11.04.07.12.16.12.35s-.07.35-.15.45c-.08.1-.15.16-.21.19-.05.03-.22.02-.32.02s-.26.01-.32-.02c-.06-.03-.13-.08-.21-.19-.08-.11-.15-.26-.15-.45Z"/><path class="cls-11" d="m42.55,10.85c.17,0,.26.07.32.12.05.04.1.11.1.22,0,.09-.05.24-.05.34,0,.11.05.25.05.35,0,.1-.05.18-.1.22-.06.04-.15.12-.32.12s-.32-.07-.41-.15c-.09-.08-.14-.15-.17-.21-.02-.05-.01-.22-.01-.32s-.01-.26.01-.32c.03-.06.08-.13.17-.21.1-.08.24-.15.41-.15Z"/><path class="cls-10" d="m42.68,11.51c-.27,0-.55-.05-.72-.21"/><path class="cls-10" d="m42.68,11.54c-.27,0-.55.05-.72.21"/><path class="cls-10" d="m42.73,12.11s.16-.07.16-.18c0-.14-.21-.14-.21-.4s.21-.26.21-.4c0-.11-.16-.18-.16-.18"/><path class="cls-10" d="m42.55,10.85c.17,0,.26.07.32.12.05.04.1.11.1.22,0,.09-.05.24-.05.34,0,.11.05.25.05.35,0,.1-.05.18-.1.22-.06.04-.15.12-.32.12s-.32-.07-.41-.15c-.09-.08-.14-.15-.17-.21-.02-.05-.01-.22-.01-.32s-.01-.26.01-.32c.03-.06.08-.13.17-.21.1-.08.24-.15.41-.15Z"/><path class="cls-11" d="m40.75,10.85c-.17,0-.26.07-.32.12-.05.04-.1.11-.1.22,0,.09.05.24.05.34,0,.11-.05.25-.05.35,0,.1.05.18.1.22.06.04.15.12.32.12s.32-.07.41-.15c.09-.08.14-.15.17-.21.02-.05.01-.22.01-.32s.01-.26-.01-.32c-.03-.06-.08-.13-.17-.21-.1-.08-.24-.15-.41-.15Z"/><path class="cls-10" d="m40.62,11.51c.27,0,.55-.05.72-.21"/><path class="cls-10" d="m40.62,11.54c.27,0,.55.05.72.21"/><path class="cls-10" d="m40.56,12.11s-.16-.07-.16-.18c0-.14.21-.14.21-.4s-.21-.26-.21-.4c0-.11.16-.18.16-.18"/><path class="cls-10" d="m40.75,10.85c-.17,0-.26.07-.32.12-.05.04-.1.11-.1.22,0,.09.05.24.05.34,0,.11-.05.25-.05.35,0,.1.05.18.1.22.06.04.15.12.32.12s.32-.07.41-.15c.09-.08.14-.15.17-.21.02-.05.01-.22.01-.32,0-.1.01-.26-.01-.32-.03-.06-.08-.13-.17-.21-.1-.08-.24-.15-.41-.15Z"/><path class="cls-10" d="m41.61,11.89s-.09.27-.1.32c-.14.6-.5.81-.85.81-.35,0-.7-.24-.79-.65-.01-.05-.06-.09-.11-.09-.05,0-.1.04-.11.09-.1.51-.34.7-.6.73-.26.03-.57-.12-.78-.4-.03-.04-.08-.06-.12-.04-.05.01-.08.06-.08.1-.02.33-.2.48-.42.51-.22.03-.5-.09-.69-.36-.03-.04-.08-.06-.13-.04-.05.02-.08.07-.08.12.02.29-.1.47-.26.54-.09.04-.2.06-.3.02-.16-.07-.26-.27-.35-.42l-.05.05c.14.17.2.34.24.55.18.09.38.09.56.01.18-.08.32-.26.37-.48.21.19.48.28.72.25.26-.03.48-.21.57-.49.24.23.54.35.83.32.29-.03.55-.24.7-.6.19.32.53.51.89.52.39,0,.79-.23.99-.73.2.5.6.73.99.73.35,0,.7-.2.89-.52.15.37.41.57.7.6.29.04.59-.09.83-.32.09.28.32.46.57.49.24.03.51-.06.72-.25.05.23.19.4.37.48.17.08.38.08.56-.01.02-.21.13-.38.24-.55l-.05-.05c-.09.14-.19.34-.36.42-.08.04-.2.02-.29-.02-.16-.07-.29-.25-.26-.54,0-.05-.03-.1-.08-.12-.05-.02-.1,0-.13.04-.19.28-.47.39-.69.36-.22-.03-.4-.18-.42-.51,0-.05-.04-.09-.08-.1-.05-.01-.1,0-.12.04-.21.28-.52.43-.78.4-.26-.03-.5-.23-.6-.73,0-.05-.06-.09-.11-.09-.05,0-.1.04-.11.09-.09.4-.44.64-.79.65-.35,0-.71-.22-.85-.82-.01-.05-.05-.31-.1-.31h-.07Z"/><path class="cls-7" d="m42.2,11.51c0,.3-.25.55-.55.55s-.55-.25-.55-.55.25-.55.55-.55.55.25.55.55Z"/><path class="cls-16" d="m42.09,11.51c0,.24-.2.44-.44.44s-.44-.2-.44-.44.2-.44.44-.44.44.2.44.44Z"/><path class="cls-10" d="m42.09,11.51c0,.24-.2.44-.44.44s-.44-.2-.44-.44.2-.44.44-.44.44.2.44.44Z"/><path class="cls-11" d="m48.42,11.29s-.08.02-.11.04c-.06.04-.15.1-.25.26-.1.16-.16.31-.17.43-.02.11,0,.18,0,.23.01.04.1.08.15.12.03.02.06.04.09.06,0,0,0,0,0,0,0,0,.01-.01.02-.02h0s0,0,0,0c0,0,.03-.01.07-.05.04-.04.1-.1.15-.19.09-.16.17-.34.21-.41.07.03.17-.14.25-.1,0-.15-.16-.13-.21-.17-.05-.04-.1-.13-.14-.16-.02-.01-.04-.02-.06-.02Z"/><path class="cls-4" d="m47.8,12.82v-.02c-.51.34-.6.65-.84.56.19-.37.33-.21.84-.54Z"/><path class="cls-4" d="m47.87,12.37h-.02c.03-.56.26-.8.05-.93-.24.35,0,.37-.02.93Z"/><path class="cls-10" d="m48.57,11.73c-.2-.08-.06-.3-.13-.35-.05-.03-.19.09-.19.09"/><path class="cls-10" d="m48.42,11.29s-.08.02-.11.04c-.06.04-.15.1-.25.26-.1.16-.16.31-.17.43-.02.11,0,.18,0,.23.01.04.1.08.15.12.03.02.06.04.09.06,0,0,0,0,0,0,0,0,.01-.01.02-.02h0s0,0,0,0c0,0,.03-.01.07-.05.04-.04.1-.1.15-.19.09-.16.17-.34.21-.41.07.03.17-.14.25-.1,0-.15-.16-.13-.21-.17-.05-.04-.1-.13-.14-.16-.02-.01-.04-.02-.06-.02Z"/><path class="cls-11" d="m47.73,11.86c-.09-.06-.17-.02-.22,0-.04.01-.11.06-.17.15-.05.08-.1.22-.16.31-.06.09-.16.19-.21.27-.06.09-.07.17-.07.22,0,.06.01.14.1.2.09.06.2.05.29.01.09-.03.15-.08.2-.12.04-.04.13-.18.18-.26.06-.09.15-.22.17-.27.02-.06.03-.14.03-.23,0-.1-.04-.2-.13-.26Z"/><path class="cls-10" d="m47.33,12.4c.13.09.31.14.47.06"/><path class="cls-10" d="m47.31,12.43c.13.09.25.22.25.41"/><path class="cls-10" d="m46.97,12.88s-.04-.11.02-.2c.08-.12.18-.04.33-.27.15-.22.03-.29.11-.41.06-.09.18-.1.18-.1"/><path class="cls-10" d="m47.73,11.86c-.09-.06-.17-.02-.22,0-.04.01-.11.06-.17.15-.05.08-.1.22-.16.31-.06.09-.16.19-.21.27-.06.09-.07.17-.07.22,0,.06.01.14.1.2.09.06.2.05.29.01.09-.03.15-.08.2-.12.04-.04.13-.18.18-.26.06-.09.15-.22.17-.27.02-.06.03-.14.03-.23,0-.1-.04-.2-.13-.26Z"/><path class="cls-15" d="m48.04,12.23c-.13,0-.31.13-.44.34-.16.25-.2.52-.08.6,0,0,.01,0,.02.01h0s0-.02,0-.02h0s.03-.02.04-.03c0-.01.01-.03,0-.06v-.02s.02,0,.02,0c.08-.03.18-.12.27-.24.09-.12.16-.26.18-.36v-.02h.02s.04-.01.05-.03h0s0,0,0,0c0,0,0,0,.02-.01,0-.05-.03-.1-.07-.12-.02-.01-.05-.02-.08-.02Z"/><path class="cls-10" d="m48.04,12.23c-.13,0-.31.13-.44.34-.16.25-.2.52-.08.6,0,0,.01,0,.02.01.07,0,.09-.08.07-.13l.48-.62s.09-.02.1-.06c0-.05-.03-.1-.07-.12-.02-.01-.05-.02-.08-.02Z"/><path class="cls-11" d="m34.88,11.29s.08.02.11.04c.06.04.15.1.25.26.1.16.16.31.17.43.02.11,0,.18,0,.23-.01.04-.1.08-.15.12-.03.02-.06.04-.09.06,0,0,0,0,0,0,0,0-.01-.01-.02-.02h0s0,0,0,0c0,0-.03-.01-.07-.05-.04-.04-.1-.1-.15-.19-.09-.16-.17-.34-.21-.41-.07.03-.17-.14-.25-.1,0-.15.16-.13.21-.17.05-.04.1-.13.14-.16.02-.01.04-.02.06-.02Z"/><path class="cls-4" d="m35.49,12.82v-.02c.51.34.6.65.84.56-.19-.37-.33-.21-.84-.54Z"/><path class="cls-4" d="m35.43,12.37h.02c-.03-.56-.26-.8-.05-.93.24.35,0,.37.02.93Z"/><path class="cls-10" d="m34.72,11.73c.2-.08.06-.3.13-.35.05-.03.19.09.19.09"/><path class="cls-10" d="m34.87,11.29s.08.02.11.04c.06.04.15.1.25.26.1.16.16.31.17.43.02.11,0,.18,0,.23-.01.04-.1.08-.15.12-.03.02-.06.04-.09.06,0,0,0,0,0,0,0,0-.01-.01-.02-.02h0s0,0,0,0c0,0-.03-.01-.07-.05-.04-.04-.1-.1-.15-.19-.09-.16-.17-.34-.21-.41-.07.03-.17-.14-.25-.1,0-.15.16-.13.21-.17.05-.04.1-.13.14-.16.02-.01.04-.02.06-.02Z"/><path class="cls-11" d="m35.57,11.86c.09-.06.17-.02.22,0,.04.01.11.06.17.15.05.08.1.22.16.31.06.09.16.19.21.27.06.09.07.17.07.22,0,.06-.01.14-.1.2-.09.06-.2.05-.29.01-.09-.03-.15-.08-.2-.12-.04-.04-.13-.18-.18-.26-.06-.09-.15-.22-.17-.27-.02-.06-.03-.14-.03-.23,0-.1.04-.2.13-.26Z"/><path class="cls-10" d="m35.96,12.4c-.13.09-.31.14-.47.06"/><path class="cls-10" d="m35.98,12.43c-.13.09-.25.22-.25.41"/><path class="cls-10" d="m36.33,12.88s.04-.11-.02-.2c-.08-.12-.18-.04-.33-.27-.15-.22-.03-.29-.11-.41-.06-.09-.18-.1-.18-.1"/><path class="cls-10" d="m35.57,11.86c.09-.06.17-.02.22,0,.04.01.11.06.17.15.05.08.1.22.16.31.06.09.16.19.21.27.06.09.07.17.07.22,0,.06-.01.14-.1.2-.09.06-.2.05-.29.01-.09-.03-.15-.08-.2-.12-.04-.04-.13-.18-.18-.26-.06-.09-.15-.22-.17-.27-.02-.06-.03-.14-.03-.23,0-.1.04-.2.13-.26Z"/><path class="cls-15" d="m35.26,12.23c.13,0,.31.13.44.34.16.25.2.52.08.6,0,0-.01,0-.02.01h0s0-.02,0-.02h-.01s-.03-.02-.04-.03c0-.01-.01-.03,0-.06v-.02s-.02,0-.02,0c-.08-.03-.18-.12-.27-.24-.09-.12-.16-.26-.18-.36v-.02h-.02s-.04-.01-.05-.03h0s0,0,0,0c0,0,0,0-.02-.01,0-.05.03-.1.07-.12.02-.01.05-.02.08-.02Z"/><path class="cls-10" d="m35.26,12.23c.13,0,.31.13.44.34.16.25.2.52.08.6,0,0-.01,0-.02.01-.07,0-.09-.08-.07-.13l-.48-.62s-.09-.02-.1-.06c0-.05.03-.1.07-.12.02-.01.05-.02.08-.02Z"/><path class="cls-16" d="m40,11.9c0,.17-.13.3-.3.3s-.3-.13-.3-.3.13-.3.3-.3.3.13.3.3Z"/><path class="cls-5" d="m40,11.9c0,.17-.13.3-.3.3s-.3-.13-.3-.3.13-.3.3-.3.3.13.3.3Z"/><path class="cls-16" d="m43.9,11.9c0,.17-.13.3-.3.3s-.3-.13-.3-.3.13-.3.3-.3.3.13.3.3Z"/><path class="cls-5" d="m43.9,11.9c0,.17-.13.3-.3.3s-.3-.13-.3-.3.13-.3.3-.3.3.13.3.3Z"/><path class="cls-16" d="m36.97,12.44c0,.17-.13.3-.3.3s-.3-.13-.3-.3.13-.3.3-.3.3.13.3.3Z"/><path class="cls-5" d="m36.97,12.44c0,.17-.13.3-.3.3s-.3-.13-.3-.3.13-.3.3-.3.3.13.3.3Z"/><path class="cls-16" d="m46.93,12.44c0,.17-.13.3-.3.3s-.3-.13-.3-.3.13-.3.3-.3.3.13.3.3Z"/><path class="cls-5" d="m46.93,12.44c0,.17-.13.3-.3.3s-.3-.13-.3-.3.13-.3.3-.3.3.13.3.3Z"/><path class="cls-16" d="m46.39,11.67c0,.11.09.21.21.21s.21-.09.21-.21-.09-.21-.21-.21-.21.09-.21.21Z"/><path class="cls-10" d="m46.39,11.67c0,.11.09.21.21.21s.21-.09.21-.21-.09-.21-.21-.21-.21.09-.21.21Z"/><path class="cls-6" d="m46.26,10.6c-.14.18-.27.36-.38.56.23.02.46,0,.69-.01-.09.32-.19.64-.28.96-.18-.14-.37-.28-.57-.39-.02.23,0,.46.01.69-.32-.09-.64-.19-.96-.28.14-.18.28-.37.39-.57-.23-.02-.46,0-.69.01.09-.32.19-.64.28-.96.18.14.37.28.57.39.02-.23,0-.46-.01-.69.32.09.64.19.96.28,0,0,0,0,0,.01Z"/><path class="cls-1" d="m39.16,14.2c-.05,0-.1.02-.15.03-.02,0-.04.03-.05.05,0,.03,0,.05.02.07.02.02.04.02.07.01.2-.07.51,0,.8.11.19.07.38.15.54.19.04.01.08.02.12.02.02,0,.04,0,.06,0,.02,0,.04,0,.06,0,.01,0,.02,0,.04,0,.01,0,.02,0,.04,0,.01,0,.02,0,.03,0,.02,0,.03-.01.05-.02,0,0,.01,0,.02,0,0,0,0,0,.01,0,0,0,.01,0,.02-.01,0,0,0,0,0,0,0,0,.02-.01.03-.02.01,0,.02-.01.03-.02.02-.01.03-.03.04-.04,0,0,0,0,0,0,0,0,.01-.01.02-.02,0-.01.02-.02.03-.03,0-.01.02-.03.02-.04,0-.01.01-.02.02-.03,0,0,0,0,0,0,0,0,0,0,0,0,0,0,0-.02.01-.03.02-.05.03-.11.03-.17,0-.03-.01-.05-.04-.06-.02-.01-.05,0-.07,0s-.03.04-.03.06c0,.06-.01.12-.05.17,0,0-.01.02-.02.02,0,0,0,0,0,0,0,0,0,0-.01.01,0,0,0,0-.01.01,0,0,0,0,0,0,0,0-.02.01-.03.02,0,0-.02.01-.02.02,0,0,0,0,0,0-.01,0-.02.01-.03.02-.01,0-.02.01-.04.01,0,0,0,0-.01,0,0,0-.02,0-.03,0-.01,0-.03,0-.04,0-.01,0-.03,0-.05,0,0,0,0,0-.01,0,0,0-.02,0-.03,0,0,0-.02,0-.03,0-.02,0-.03,0-.05-.01-.02,0-.05-.01-.07-.02-.14-.04-.32-.11-.49-.17-.22-.08-.46-.16-.68-.15-.02,0-.04,0-.05,0Z"/><path class="cls-1" d="m40.09,14.42s-.09-.03-.13-.05c.03-.04.05-.08.07-.11.01-.02.03-.05.05-.07.02-.04.05-.08.09-.12,0,0,0,0,0,0,.1-.12.23-.23.4-.24.26-.02.48.17.49.4,0,0,0,.02,0,.02-.04,0-.08.01-.13.01,0,0,0-.02,0-.03,0-.14-.16-.29-.35-.27-.1,0-.19.08-.27.16-.01.02-.03.03-.04.05,0,0,0,0,0,.01,0,0,0,0,0,0-.01.02-.03.03-.04.05,0,0,0,0,0,0-.03.04-.05.07-.07.1-.01.02-.03.05-.05.08Z"/><path class="cls-1" d="m39.11,14.35s0-.1.03-.15c.06-.16.21-.29.4-.3.17-.01.39.08.63.17,0,0,0,0,0,0-.03.04-.06.08-.09.12-.22-.08-.42-.15-.53-.15-.12,0-.21.07-.26.15-.03.05-.05.11-.05.14,0,0,0,.02,0,.03,0,.14.16.29.35.27.1,0,.19-.07.27-.15.05.02.1.03.14.05-.1.12-.23.23-.4.24-.26.02-.48-.17-.49-.4,0,0,0-.02,0-.02Zm1.89.05c-.23.02-.49-.06-.73-.15-.02,0-.04-.01-.06-.02.03-.04.06-.08.1-.11,0,0,0,0,0,0,.29.11.59.19.81.11.02,0,.05,0,.07.01.02.02.03.04.02.07,0,.03-.02.05-.05.05-.05.02-.1.03-.16.04Z"/><path class="cls-1" d="m44.13,14.2c.05,0,.1.02.15.03.02,0,.04.03.05.05s0,.05-.02.07c-.02.02-.04.02-.07.01-.2-.07-.51,0-.8.11-.19.07-.38.15-.54.19-.04.01-.08.02-.12.02-.02,0-.04,0-.06,0-.02,0-.04,0-.06,0-.01,0-.02,0-.04,0-.01,0-.02,0-.04,0-.01,0-.02,0-.03,0-.02,0-.03-.01-.05-.02,0,0-.01,0-.02,0,0,0,0,0-.01,0,0,0-.01,0-.02-.01,0,0,0,0,0,0,0,0-.02-.01-.03-.02-.01,0-.02-.01-.03-.02-.02-.01-.03-.03-.04-.04,0,0,0,0,0,0,0,0-.01-.01-.02-.02,0-.01-.02-.02-.03-.03,0-.01-.02-.03-.02-.04,0-.01-.01-.02-.02-.03,0,0,0,0,0,0,0,0,0,0,0,0,0,0,0-.02-.01-.03-.02-.05-.03-.11-.03-.17,0-.03.01-.05.04-.06.02-.01.05,0,.07,0,.02.01.03.04.03.06,0,.06.01.12.05.17,0,0,.01.02.02.02,0,0,0,0,0,0,0,0,0,0,.01.01,0,0,0,0,.01.01,0,0,0,0,0,0,0,0,.02.01.03.02,0,0,.02.01.02.02,0,0,0,0,0,0,.01,0,.02.01.03.02.01,0,.02.01.04.01,0,0,0,0,.01,0,0,0,.02,0,.03,0,.01,0,.03,0,.04,0,.01,0,.03,0,.05,0,0,0,0,0,.01,0,0,0,.02,0,.03,0,0,0,.02,0,.03,0,.02,0,.03,0,.05-.01.02,0,.05-.01.07-.02.14-.04.32-.11.49-.17.22-.08.46-.16.68-.15.02,0,.04,0,.05,0Z"/><path class="cls-1" d="m43.21,14.42s.09-.03.13-.05c-.03-.04-.05-.08-.07-.11-.01-.02-.03-.05-.05-.07-.02-.04-.05-.08-.09-.12,0,0,0,0,0,0-.1-.12-.23-.23-.4-.24-.26-.02-.48.17-.49.4,0,0,0,.02,0,.02.04,0,.08.01.13.01,0,0,0-.02,0-.03,0-.14.16-.29.35-.27.1,0,.19.08.27.16.01.02.03.03.04.05,0,0,0,0,0,.01,0,0,0,0,0,0,.01.02.03.03.04.05,0,0,0,0,0,0,.03.04.05.07.07.1.01.02.03.05.05.08Z"/><path class="cls-1" d="m44.19,14.35s0-.1-.03-.15c-.06-.16-.21-.29-.4-.3-.17-.01-.39.08-.63.17,0,0,0,0,0,0,.03.04.06.08.09.12.22-.08.42-.15.53-.15.12,0,.21.07.26.15.03.05.05.11.05.14,0,0,0,.02,0,.03,0,.14-.16.29-.35.27-.1,0-.19-.07-.27-.15-.05.02-.1.03-.14.05.1.12.23.23.4.24.26.02.48-.17.49-.4,0,0,0-.02,0-.02Zm-1.89.05c.23.02.49-.06.73-.15.02,0,.04-.01.06-.02-.03-.04-.06-.08-.1-.11,0,0,0,0,0,0-.29.11-.59.19-.81.11-.02,0-.05,0-.07.01-.02.02-.03.04-.02.07,0,.03.02.05.05.05.05.02.1.03.16.04Z"/><path class="cls-21" d="m41.96,14.24c0,.17-.14.31-.31.31s-.31-.14-.31-.31.14-.31.31-.31.31.14.31.31Z"/><path class="cls-10" d="m41.96,14.24c0,.17-.14.31-.31.31s-.31-.14-.31-.31.14-.31.31-.31.31.14.31.31Z"/><path class="cls-16" d="m41.75,13.82c0,.06-.05.1-.1.1s-.1-.05-.1-.1.05-.1.1-.1.1.05.1.1Z"/><path class="cls-10" d="m41.75,13.82c0,.06-.05.1-.1.1s-.1-.05-.1-.1.05-.1.1-.1.1.05.1.1Z"/><path class="cls-16" d="m41.75,14.67c0,.06-.05.1-.1.1s-.1-.05-.1-.1.05-.1.1-.1.1.05.1.1Z"/><path class="cls-10" d="m41.75,14.67c0,.06-.05.1-.1.1s-.1-.05-.1-.1.05-.1.1-.1.1.05.1.1Z"/><path class="cls-16" d="m41.23,14.14c.06,0,.1.05.1.1s-.05.1-.1.1-.1-.05-.1-.1.05-.1.1-.1Z"/><path class="cls-10" d="m41.23,14.14c.06,0,.1.05.1.1s-.05.1-.1.1-.1-.05-.1-.1.05-.1.1-.1Z"/><path class="cls-16" d="m42.07,14.14c.06,0,.1.05.1.1s-.05.1-.1.1-.1-.05-.1-.1.05-.1.1-.1Z"/><path class="cls-10" d="m42.07,14.14c.06,0,.1.05.1.1s-.05.1-.1.1-.1-.05-.1-.1.05-.1.1-.1Z"/><path class="cls-22" d="m41.53,13.83s.01.11-.04.14c-.05.03-.11.01-.14-.04-.03-.05-.01-.11.04-.14.05-.03.11-.01.14.04Z"/><path class="cls-10" d="m41.53,13.83s.01.11-.04.14c-.05.03-.11.01-.14-.04-.03-.05-.01-.11.04-.14.05-.03.11-.01.14.04Z"/><path class="cls-22" d="m41.95,14.56s.01.11-.04.14c-.05.03-.11.01-.14-.04-.03-.05-.01-.11.04-.14.05-.03.11-.01.14.04Z"/><path class="cls-10" d="m41.95,14.56s.01.11-.04.14c-.05.03-.11.01-.14-.04-.03-.05-.01-.11.04-.14.05-.03.11-.01.14.04Z"/><path class="cls-22" d="m41.23,14.37s.11-.01.14.04c.03.05.01.11-.04.14-.05.03-.11.01-.14-.04-.03-.05-.01-.11.04-.14Z"/><path class="cls-10" d="m41.23,14.37s.11-.01.14.04c.03.05.01.11-.04.14-.05.03-.11.01-.14-.04-.03-.05-.01-.11.04-.14Z"/><path class="cls-22" d="m41.96,13.95s.11-.01.14.04c.03.05.01.11-.04.14-.05.03-.11.01-.14-.04-.03-.05-.01-.11.04-.14Z"/><path class="cls-10" d="m41.96,13.95s.11-.01.14.04c.03.05.01.11-.04.14-.05.03-.11.01-.14-.04-.03-.05-.01-.11.04-.14Z"/><path class="cls-17" d="m41.33,13.95s.07.09.04.14c-.03.05-.09.07-.14.04-.05-.03-.07-.09-.04-.14.03-.05.09-.07.14-.04Z"/><path class="cls-10" d="m41.33,13.95s.07.09.04.14c-.03.05-.09.07-.14.04-.05-.03-.07-.09-.04-.14.03-.05.09-.07.14-.04Z"/><path class="cls-17" d="m42.07,14.37s.07.09.04.14c-.03.05-.09.07-.14.04-.05-.03-.07-.09-.04-.14.03-.05.09-.07.14-.04Z"/><path class="cls-10" d="m42.07,14.37s.07.09.04.14c-.03.05-.09.07-.14.04-.05-.03-.07-.09-.04-.14.03-.05.09-.07.14-.04Z"/><path class="cls-17" d="m41.35,14.56s.09-.07.14-.04c.05.03.07.09.04.14-.03.05-.09.07-.14.04-.05-.03-.07-.09-.04-.14Z"/><path class="cls-10" d="m41.35,14.56s.09-.07.14-.04c.05.03.07.09.04.14-.03.05-.09.07-.14.04-.05-.03-.07-.09-.04-.14Z"/><path class="cls-17" d="m41.77,13.83s.09-.07.14-.04c.05.03.07.09.04.14-.03.05-.09.07-.14.04-.05-.03-.07-.09-.04-.14Z"/><path class="cls-10" d="m41.77,13.83s.09-.07.14-.04c.05.03.07.09.04.14-.03.05-.09.07-.14.04-.05-.03-.07-.09-.04-.14Z"/><path class="cls-21" d="m45.02,14.51c-.03.13-.17.21-.3.18-.13-.03-.21-.17-.18-.3.03-.13.17-.21.3-.18.13.03.21.17.18.3Z"/><path class="cls-10" d="m45.02,14.51c-.03.13-.17.21-.3.18-.13-.03-.21-.17-.18-.3.03-.13.17-.21.3-.18.13.03.21.17.18.3Z"/><path class="cls-16" d="m44.95,14.14s-.06.07-.1.06c-.04-.01-.07-.06-.06-.1.01-.04.06-.07.1-.06.04.01.07.06.06.1Z"/><path class="cls-10" d="m44.95,14.14s-.06.07-.1.06c-.04-.01-.07-.06-.06-.1.01-.04.06-.07.1-.06.04.01.07.06.06.1Z"/><path class="cls-16" d="m44.78,14.8s-.06.07-.1.06c-.04-.01-.07-.06-.06-.1.01-.04.06-.07.1-.06.04.01.07.06.06.1Z"/><path class="cls-10" d="m44.78,14.8s-.06.07-.1.06c-.04-.01-.07-.06-.06-.1.01-.04.06-.07.1-.06.04.01.07.06.06.1Z"/><path class="cls-16" d="m44.47,14.28s.07.06.06.1c-.01.04-.06.07-.1.06-.04-.01-.07-.06-.06-.1.01-.04.06-.07.1-.06Z"/><path class="cls-10" d="m44.47,14.28s.07.06.06.1c-.01.04-.06.07-.1.06-.04-.01-.07-.06-.06-.1.01-.04.06-.07.1-.06Z"/><path class="cls-16" d="m45.13,14.45s.07.06.06.1c-.01.04-.06.07-.1.06-.04-.01-.07-.06-.06-.1.01-.04.06-.07.1-.06Z"/><path class="cls-10" d="m45.13,14.45s.07.06.06.1c-.01.04-.06.07-.1.06-.04-.01-.07-.06-.06-.1.01-.04.06-.07.1-.06Z"/><path class="cls-22" d="m44.77,14.1s-.01.09-.06.1c-.04.01-.09-.01-.1-.06-.01-.04.01-.09.06-.1.04-.01.09.01.1.06Z"/><path class="cls-10" d="m44.77,14.1s-.01.09-.06.1c-.04.01-.09-.01-.1-.06-.01-.04.01-.09.06-.1.04-.01.09.01.1.06Z"/><path class="cls-22" d="m44.95,14.75s-.01.09-.06.1-.09-.01-.1-.06c-.01-.04.01-.09.06-.1.04-.01.09.01.1.06Z"/><path class="cls-10" d="m44.95,14.75s-.01.09-.06.1-.09-.01-.1-.06c-.01-.04.01-.09.06-.1.04-.01.09.01.1.06Z"/><path class="cls-22" d="m44.43,14.46s.09.01.1.06c.01.04-.01.09-.06.1-.04.01-.09-.01-.1-.06-.01-.04.01-.09.06-.1Z"/><path class="cls-10" d="m44.43,14.46s.09.01.1.06c.01.04-.01.09-.06.1-.04.01-.09-.01-.1-.06-.01-.04.01-.09.06-.1Z"/><path class="cls-22" d="m45.09,14.28s.09.01.1.06c.01.04-.01.09-.06.1s-.09-.01-.1-.06c-.01-.04.01-.09.06-.1Z"/><path class="cls-10" d="m45.09,14.28s.09.01.1.06c.01.04-.01.09-.06.1s-.09-.01-.1-.06c-.01-.04.01-.09.06-.1Z"/><path class="cls-17" d="m44.6,14.15s.03.08,0,.12c-.03.03-.08.03-.12,0-.03-.03-.03-.08,0-.12.03-.03.08-.03.12,0Z"/><path class="cls-10" d="m44.6,14.15s.03.08,0,.12c-.03.03-.08.03-.12,0-.03-.03-.03-.08,0-.12.03-.03.08-.03.12,0Z"/><path class="cls-17" d="m45.08,14.63s.03.08,0,.12c-.03.03-.08.03-.12,0-.03-.03-.03-.08,0-.12.03-.03.08-.03.12,0Z"/><path class="cls-10" d="m45.08,14.63s.03.08,0,.12c-.03.03-.08.03-.12,0-.03-.03-.03-.08,0-.12.03-.03.08-.03.12,0Z"/><path class="cls-17" d="m44.49,14.63s.08-.03.12,0c.03.03.03.08,0,.12-.03.03-.08.03-.12,0-.03-.03-.03-.08,0-.12Z"/><path class="cls-10" d="m44.49,14.63s.08-.03.12,0c.03.03.03.08,0,.12-.03.03-.08.03-.12,0-.03-.03-.03-.08,0-.12Z"/><path class="cls-17" d="m44.96,14.15s.08-.03.12,0c.03.03.03.08,0,.12-.03.03-.08.03-.12,0-.03-.03-.03-.08,0-.12Z"/><path class="cls-10" d="m44.96,14.15s.08-.03.12,0c.03.03.03.08,0,.12-.03.03-.08.03-.12,0-.03-.03-.03-.08,0-.12Z"/><path class="cls-21" d="m38.31,14.46c.01.13.13.22.26.21.13-.01.22-.13.21-.26-.01-.13-.13-.22-.26-.21-.13.01-.22.13-.21.26Z"/><path class="cls-20" d="m38.78,14.44c0,.12-.09.22-.21.23-.12.01-.23-.07-.25-.19.08,0,.15.01.23,0,.08,0,.16-.02.23-.05Z"/><path class="cls-10" d="m38.31,14.46c.01.13.13.22.26.21.13-.01.22-.13.21-.26-.01-.13-.13-.22-.26-.21-.13.01-.22.13-.21.26Z"/><path class="cls-16" d="m38.44,14.12s.04.07.09.07c.04,0,.07-.04.07-.09,0-.04-.04-.07-.09-.07-.04,0-.07.04-.07.09Z"/><path class="cls-20" d="m38.59,14.12s-.03.07-.07.08-.08-.02-.08-.06c.03,0,.05,0,.08,0,.03,0,.05,0,.08-.02Z"/><path class="cls-10" d="m38.44,14.12s.04.07.09.07c.04,0,.07-.04.07-.09,0-.04-.04-.07-.09-.07-.04,0-.07.04-.07.09Z"/><path class="cls-16" d="m38.5,14.77s.04.07.09.07c.04,0,.07-.04.07-.09,0-.04-.04-.07-.09-.07-.04,0-.07.04-.07.09Z"/><path class="cls-20" d="m38.65,14.76s-.03.07-.07.08c-.04,0-.08-.02-.08-.06.03,0,.05,0,.08,0,.03,0,.05,0,.08-.02Z"/><path class="cls-10" d="m38.5,14.77s.04.07.09.07c.04,0,.07-.04.07-.09,0-.04-.04-.07-.09-.07-.04,0-.07.04-.07.09Z"/><path class="cls-16" d="m38.86,14.33s-.07.04-.07.09c0,.04.04.07.09.07.04,0,.07-.04.07-.09,0-.04-.04-.07-.09-.07Z"/><path class="cls-20" d="m38.95,14.4s-.03.07-.07.08c-.04,0-.08-.02-.08-.06.03,0,.05,0,.08,0,.03,0,.05,0,.08-.02Z"/><path class="cls-10" d="m38.86,14.33s-.07.04-.07.09c0,.04.04.07.09.07.04,0,.07-.04.07-.09,0-.04-.04-.07-.09-.07Z"/><path class="cls-16" d="m38.22,14.39s-.07.04-.07.09c0,.04.04.07.09.07.04,0,.07-.04.07-.09,0-.04-.04-.07-.09-.07Z"/><path class="cls-20" d="m38.29,14.46s-.03.07-.07.08c-.04,0-.08-.02-.08-.06.03,0,.05,0,.08,0,.03,0,.05,0,.08-.02Z"/><path class="cls-10" d="m38.22,14.39s-.07.04-.07.09c0,.04.04.07.09.07.04,0,.07-.04.07-.09,0-.04-.04-.07-.09-.07Z"/><path class="cls-17" d="m38.61,14.11s0,.09.04.1c.04.02.09,0,.1-.04.02-.04,0-.09-.04-.1-.04-.02-.09,0-.1.04Z"/><path class="cls-20" d="m38.75,14.14s-.03.07-.07.08c-.04,0-.08-.02-.08-.06.03,0,.05,0,.08,0,.03,0,.05,0,.08-.02Z"/><path class="cls-10" d="m38.61,14.11s0,.09.04.1c.04.02.09,0,.1-.04.02-.04,0-.09-.04-.1-.04-.02-.09,0-.1.04Z"/><path class="cls-17" d="m38.34,14.7s0,.09.04.1c.04.02.09,0,.1-.04.02-.04,0-.09-.04-.1-.04-.02-.09,0-.1.04Z"/><path class="cls-20" d="m38.48,14.73s-.03.07-.07.08c-.04,0-.08-.02-.08-.06.03,0,.05,0,.08,0,.03,0,.05,0,.08-.02Z"/><path class="cls-10" d="m38.34,14.7s0,.09.04.1c.04.02.09,0,.1-.04.02-.04,0-.09-.04-.1-.04-.02-.09,0-.1.04Z"/><path class="cls-17" d="m38.87,14.5s-.09,0-.1.04c-.02.04,0,.09.04.1.04.02.09,0,.1-.04.02-.04,0-.09-.04-.1Z"/><path class="cls-20" d="m38.92,14.56s-.03.07-.07.08c-.04,0-.08-.02-.08-.06.03,0,.05,0,.08,0,.03,0,.05,0,.08-.02Z"/><path class="cls-10" d="m38.87,14.5s-.09,0-.1.04c-.02.04,0,.09.04.1.04.02.09,0,.1-.04.02-.04,0-.09-.04-.1Z"/><path class="cls-17" d="m38.28,14.23s-.09,0-.1.04c-.02.04,0,.09.04.1.04.02.09,0,.1-.04.02-.04,0-.09-.04-.1Z"/><path class="cls-20" d="m38.33,14.3s-.03.07-.07.08c-.04,0-.08-.02-.08-.06.03,0,.05,0,.08,0,.03,0,.05,0,.08-.02Z"/><path class="cls-10" d="m38.28,14.23s-.09,0-.1.04c-.02.04,0,.09.04.1.04.02.09,0,.1-.04.02-.04,0-.09-.04-.1Z"/><path class="cls-22" d="m38.76,14.19s-.04.07-.02.11c.02.04.07.04.11.02.04-.03.04-.07.02-.11-.02-.03-.07-.04-.11-.02Z"/><path class="cls-20" d="m38.88,14.24s-.03.07-.07.08c-.04,0-.08-.02-.08-.06.03,0,.05,0,.08,0,.03,0,.05,0,.08-.02Z"/><path class="cls-10" d="m38.76,14.19s-.04.07-.02.11c.02.04.07.04.11.02.04-.03.04-.07.02-.11-.02-.03-.07-.04-.11-.02Z"/><path class="cls-22" d="m38.24,14.56s-.04.07-.02.11c.03.04.07.04.11.02.04-.03.04-.07.02-.11-.02-.04-.07-.04-.11-.02Z"/><path class="cls-20" d="m38.35,14.62s-.03.07-.07.08-.08-.02-.08-.06c.03,0,.05,0,.08,0,.03,0,.05,0,.08-.02Z"/><path class="cls-10" d="m38.24,14.56s-.04.07-.02.11c.03.04.07.04.11.02.04-.03.04-.07.02-.11-.02-.04-.07-.04-.11-.02Z"/><path class="cls-22" d="m38.79,14.65s-.07-.04-.11-.02c-.04.02-.04.07-.02.11.03.04.07.04.11.02.04-.03.04-.07.02-.11Z"/><path class="cls-20" d="m38.81,14.69s-.03.07-.07.08c-.04,0-.08-.02-.08-.06.03,0,.05,0,.08,0,.03,0,.05,0,.08-.02Z"/><path class="cls-10" d="m38.79,14.65s-.07-.04-.11-.02c-.04.02-.04.07-.02.11.03.04.07.04.11.02.04-.03.04-.07.02-.11Z"/><path class="cls-22" d="m38.42,14.13s-.07-.04-.11-.02c-.04.03-.04.07-.02.11.03.03.07.04.11.02.03-.02.04-.07.02-.11Z"/><path class="cls-20" d="m38.43,14.17s-.03.07-.07.08c-.04,0-.08-.02-.08-.06.03,0,.05,0,.08,0,.03,0,.05,0,.08-.02Z"/><path class="cls-14" d="m38.39,14.22s-.07.01-.08-.01c-.02-.03-.01-.07.01-.08s.07-.01.08.01c.02.03.01.07-.01.08Zm-.11,0s.09.05.13.02c.04-.03.05-.09.02-.13s-.09-.05-.13-.02c-.04.03-.05.09-.02.13Z"/><path class="cls-14" d="m41.56,13.38s.06,0,.09,0h0s.05,0,.08,0c.02,0,.04,0,.06,0v.02s0-.02,0-.02h0c2.14.03,4.61.36,5.54.65,0,0,0,0,0,0v.02s0-.02,0-.02c0,0,0,0,0,0,.05.01.08.05.1.1.01.05,0,.1-.04.13h-.01s.01,0,.01,0c-.04.03-.09.04-.13.02,0,0,0,0,0,0v-.02s0,.02,0,.02c0,0,0,0,0,0-.43-.14-1.3-.3-2.32-.42-1.02-.13-2.2-.22-3.27-.22s-2.25.09-3.27.22c-1.02.13-1.88.29-2.32.42,0,0,0,0,0,0v-.02s0,.02,0,.02c0,0,0,0,0,0-.05.02-.1,0-.13-.02h0s-.05-.08-.04-.13c.01-.05.05-.08.1-.1,0,0,0,0,0,0v.02s0-.02,0-.02c0,0,0,0,0,0,.92-.29,3.4-.63,5.53-.65h0s0,0,0,0c.01,0,.03,0,.04,0Zm0,.03s-.03,0-.04,0c-2.14.03-4.61.36-5.53.65,0,0,0,0,0,0-.04,0-.06.04-.07.07h0s0,.07.03.1c.03.02.07.03.1.02,0,0,0,0,0,0,.44-.14,1.3-.3,2.32-.43,1.02-.13,2.2-.22,3.28-.22s2.26.09,3.28.22c1.02.13,1.89.29,2.32.43,0,0,0,0,0,0,.03.01.07,0,.1-.02.03-.02.04-.06.03-.1,0-.04-.04-.06-.07-.07,0,0,0,0,0,0-.92-.29-3.39-.62-5.53-.65h0s-.04,0-.06,0c-.03,0-.05,0-.08,0h0v-.02s0,.02,0,.02h0s-.06,0-.09,0Zm-5.66.72h0s0,0,0,0Z"/><path class="cls-14" d="m38.38,15.08c.96-.13,2.1-.23,3.19-.23h.15c1.09,0,2.23.1,3.19.23,1.01.13,1.81.29,2.21.45.07.03.1.1.08.17-.03.07-.1.1-.17.08h0c-.34-.13-1.15-.3-2.15-.43-.98-.13-2.13-.23-3.23-.23s-2.26.1-3.23.23c-1,.13-1.81.3-2.15.43h0c-.07.03-.15,0-.17-.08-.03-.07,0-.15.08-.17.39-.15,1.2-.31,2.21-.45Zm3.19-.19c-1.09,0-2.22.1-3.18.23-1.01.13-1.81.29-2.2.44h0c-.05.02-.08.08-.06.13h-.01s.01,0,.01,0c.02.05.08.08.13.06.34-.13,1.16-.3,2.16-.44.98-.13,2.14-.23,3.24-.23s2.26.1,3.24.23c1,.13,1.81.3,2.16.44.05.02.11,0,.13-.06.02-.05,0-.11-.06-.13h0c-.39-.15-1.2-.31-2.2-.44-.96-.13-2.1-.23-3.18-.23h-.15Z"/><path class="cls-16" d="m36.9,11.67c0,.11-.09.21-.21.21s-.21-.09-.21-.21.09-.21.21-.21.21.09.21.21Z"/><path class="cls-14" d="m36.7,11.48c-.1,0-.19.08-.19.19s.08.19.19.19.19-.08.19-.19-.08-.19-.19-.19Zm-.22.19c0-.12.1-.22.22-.22s.22.1.22.22-.1.22-.22.22-.22-.1-.22-.22Z"/><path class="cls-15" d="m37.05,10.59c.14.18.27.36.38.56-.23.02-.46,0-.69-.01.09.32.19.64.28.96.18-.14.37-.28.57-.39.02.23,0,.46-.01.69.32-.09.64-.19.96-.28-.14-.18-.28-.37-.39-.57.23-.02.46,0,.69.01-.09-.32-.19-.64-.28-.96-.18.14-.37.28-.57.39-.02-.23,0-.46.01-.69-.32.09-.64.19-.96.28,0,0,0,0,0,.01Z"/><path class="cls-14" d="m38.02,10.27v.03c-.02.22-.04.44-.02.66.19-.1.37-.23.54-.37l.02-.02.3,1.01h-.03c-.22-.02-.44-.04-.66-.02.1.19.24.37.37.54l.02.02-1.01.3v-.03c.02-.22.04-.44.02-.66-.19.1-.37.24-.54.37l-.02.02-.3-1.01h.03c.22.02.44.04.66.02-.1-.19-.23-.36-.36-.53h0s0,0,0,0c0,0,0,0,0,0v-.02s.99-.3.99-.3Zm-.95.32c.13.18.27.36.37.55v.02s-.01,0-.01,0c-.22.02-.45,0-.67-.01l.27.91c.17-.14.35-.27.55-.37h.02s0,.01,0,.01c.02.22.01.45-.01.67l.91-.27c-.14-.17-.27-.35-.37-.55v-.02s.01,0,.01,0c.22-.02.45,0,.67.01l-.27-.91c-.17.14-.35.27-.55.37h-.02s0-.01,0-.01c-.02-.22,0-.45.01-.67l-.91.27Z"/><path class="cls-17" d="m38.69,11.42c-.16-.01-.43-.03-.71.02.11.25.27.47.37.6l-.64.19c.01-.16.03-.43-.02-.71-.26.11-.48.27-.6.37l-.19-.64c.16.01.43.02.71-.02-.11-.25-.27-.47-.37-.6l.64-.19c-.01.16-.03.43.02.71.26-.11.48-.27.6-.37l.19.64Z"/><path class="cls-14" d="m37.89,10.42v.02c-.01.16-.03.42.02.68.24-.11.46-.26.58-.36l.02-.02.2.69h-.03c-.16-.01-.42-.03-.68.02.11.24.26.45.36.58l.02.02-.69.2v-.03c.01-.16.03-.42-.02-.68-.24.11-.46.26-.58.36l-.02.02-.2-.69h.02c.16.01.42.03.68-.02-.11-.24-.26-.45-.36-.58l-.02-.02.69-.2Zm-.63.22c.1.13.25.34.35.59v.02s-.01,0-.01,0c-.26.05-.52.04-.69.02l.18.59c.13-.1.34-.25.59-.35h.02s0,.01,0,.01c.05.26.04.52.02.69l.59-.18c-.1-.13-.25-.34-.35-.59v-.02s.01,0,.01,0c.26-.05.52-.04.69-.02l-.18-.59c-.13.1-.34.25-.59.35h-.02s0-.01,0-.01c-.05-.26-.04-.52-.02-.69l-.59.18Z"/><path class="cls-16" d="m37.67,10.64l.18.58.5-.15.06.18-.5.15.18.58-.18.06-.18-.58-.5.15-.06-.18.5-.15-.18-.58.18-.06Z"/><path class="cls-14" d="m37.68,10.62l.18.58.5-.15.07.22-.5.15.18.58-.22.07-.18-.58-.5.15-.07-.22.5-.15-.18-.58.22-.07Zm-.17.09l.18.58-.5.15.05.15.5-.15.18.58.15-.05-.18-.58.5-.15-.05-.15-.5.15-.18-.58-.15.05Z"/><path class="cls-17" d="m44.62,11.43c.16-.01.43-.02.71.02-.11.25-.27.47-.37.6l.64.19c-.01-.16-.03-.43.02-.71.26.11.48.27.6.37l.19-.64c-.16.01-.43.02-.71-.02.11-.25.27-.47.37-.6l-.64-.19c.01.16.03.43-.02.71-.26-.11-.48-.27-.6-.37l-.19.64Z"/><path class="cls-14" d="m45.41,10.43l.69.2-.02.02c-.1.13-.25.34-.36.58.26.04.52.03.68.02h.02s-.2.69-.2.69l-.02-.02c-.13-.1-.34-.25-.58-.36-.04.26-.03.52-.02.68v.02s-.69-.2-.69-.2l.02-.02c.1-.13.25-.34.36-.58-.26-.04-.52-.03-.68-.02h-.03s.2-.69.2-.69l.02.02c.13.1.34.25.58.36.04-.26.03-.52.02-.68v-.03Zm.04.05c.01.16.02.42-.02.69v.02s-.02,0-.02,0c-.24-.1-.46-.25-.59-.35l-.18.59c.16-.01.42-.02.69.02h.02s0,.02,0,.02c-.1.24-.25.46-.35.59l.59.18c-.01-.16-.02-.42.02-.69v-.02s.02,0,.02,0c.24.1.46.25.59.35l.18-.59c-.16.01-.42.02-.69-.02h-.02s0-.02,0-.02c.1-.24.25-.46.35-.59l-.59-.18Z"/><path class="cls-16" d="m45.63,10.65l-.18.58-.5-.15-.06.18.5.15-.18.58.18.06.18-.58.5.15.06-.18-.5-.15.18-.58-.18-.06Z"/><path class="cls-14" d="m45.62,10.62l.22.07-.18.58.5.15-.07.22-.5-.15-.18.58-.22-.07.18-.58-.5-.15.07-.22.5.15.18-.58Zm.02.04l-.18.58-.5-.15-.05.15.5.15-.18.58.15.05.18-.58.5.15.05-.15-.5-.15.18-.58-.15-.05Z"/><path class="cls-21" d="m38.84,14.4c.02.17-.09.32-.25.34-.16.02-.31-.1-.33-.27-.02-.17.09-.32.25-.34.16-.02.31.1.33.27Z"/><path class="cls-14" d="m38.51,14.15c-.15.02-.26.16-.24.32.02.16.16.27.31.25.15-.02.26-.16.24-.32-.02-.16-.16-.27-.31-.25Zm-.27.33c-.02-.18.1-.34.27-.36.17-.02.33.11.35.28.02.18-.1.34-.27.36-.17.02-.33-.11-.35-.28Z"/><path class="cls-16" d="m38.59,14.01c0,.06-.03.11-.08.11-.05,0-.1-.03-.11-.09,0-.06.03-.11.08-.11.05,0,.1.03.11.09Z"/><path class="cls-14" d="m38.48,13.94s-.08.05-.07.09c0,.05.05.08.09.07.04,0,.08-.05.07-.09,0-.05-.05-.08-.09-.07Zm-.1.1c0-.06.04-.12.1-.13.06,0,.12.04.13.1,0,.06-.04.12-.1.13-.06,0-.12-.04-.13-.1Z"/><path class="cls-16" d="m38.7,14.85c0,.06-.03.11-.08.11s-.1-.03-.11-.09c0-.06.03-.11.08-.11.05,0,.1.03.11.09Z"/><path class="cls-14" d="m38.59,14.78s-.08.05-.07.09c0,.05.05.08.09.07.04,0,.08-.05.07-.09,0-.05-.05-.08-.09-.07Zm-.1.1c0-.06.04-.12.1-.13.06,0,.12.04.13.1,0,.06-.04.12-.1.13-.06,0-.12-.04-.13-.1Z"/><path class="cls-16" d="m38.13,14.39c.05,0,.1.03.11.09,0,.06-.03.11-.08.11-.05,0-.1-.03-.11-.09,0-.06.03-.11.08-.11Z"/><path class="cls-14" d="m38.06,14.5s.05.08.09.07c.04,0,.08-.05.07-.09,0-.05-.05-.08-.09-.07-.04,0-.08.05-.07.09Zm.1.11c-.06,0-.12-.04-.13-.1,0-.06.04-.12.1-.13.06,0,.12.04.13.1,0,.06-.04.13-.1.13Z"/><path class="cls-16" d="m38.94,14.29c.05,0,.1.03.11.09,0,.06-.03.11-.08.11-.05,0-.1-.03-.11-.09,0-.06.03-.11.08-.11Z"/><path class="cls-14" d="m38.87,14.4s.05.08.09.07c.04,0,.08-.05.07-.09,0-.05-.05-.08-.09-.07-.04,0-.08.05-.07.09Zm.1.11c-.06,0-.12-.04-.13-.1,0-.06.04-.12.1-.13.06,0,.12.04.13.1,0,.06-.04.12-.1.13Z"/><path class="cls-22" d="m38.38,14.04s.03.11-.02.14c-.04.03-.1.02-.14-.02-.03-.05-.03-.11.02-.14s.1-.02.14.02Z"/><path class="cls-14" d="m38.25,14.04s-.04.08-.01.12c.03.04.08.04.11.02s.04-.08.01-.12c-.03-.04-.08-.04-.11-.02Zm-.04.14c-.04-.05-.03-.13.02-.17.05-.04.12-.03.16.02.04.05.03.13-.02.17-.05.04-.12.03-.16-.02Z"/><path class="cls-22" d="m38.87,14.72s.03.11-.02.14c-.04.03-.1.02-.14-.02-.03-.05-.03-.11.02-.14.04-.03.1-.02.14.02Z"/><path class="cls-14" d="m38.74,14.71s-.04.08-.01.12c.03.04.08.04.11.02.04-.03.04-.08.01-.12-.03-.04-.08-.04-.11-.02Zm-.04.14c-.04-.05-.03-.13.02-.17.05-.04.12-.03.16.02s.03.13-.02.17c-.05.04-.12.03-.16-.02Z"/><path class="cls-22" d="m38.17,14.61s.1-.02.14.02.03.11-.02.14c-.04.03-.1.02-.14-.02s-.03-.11.02-.14Z"/><path class="cls-14" d="m38.16,14.75s.08.04.11.02c.04-.03.04-.08.01-.12-.03-.04-.08-.04-.11-.02-.04.03-.04.08-.01.12Zm.13.04c-.05.04-.12.03-.16-.02-.04-.05-.03-.13.02-.17.05-.04.12-.03.16.02.04.05.03.13-.02.17Z"/><path class="cls-22" d="m38.81,14.11s.1-.02.14.02c.03.05.03.11-.02.14-.04.03-.1.02-.14-.02-.03-.05-.03-.11.02-.14Z"/><path class="cls-14" d="m38.8,14.24s.08.04.11.02c.04-.03.04-.08.01-.12-.03-.04-.08-.04-.11-.02-.04.03-.04.08-.01.12Zm.13.04c-.05.04-.12.03-.16-.02-.04-.05-.03-.13.02-.17.05-.04.12-.03.16.02.04.05.03.13-.02.17Z"/><path class="cls-17" d="m38.21,14.18c.05.02.07.08.05.13-.02.05-.08.08-.13.05-.05-.02-.07-.08-.05-.13.02-.05.08-.08.13-.05Z"/><path class="cls-14" d="m38.1,14.24s0,.09.04.11c.04.02.09,0,.11-.04s0-.09-.04-.11c-.04-.02-.09,0-.11.04Zm.03.14c-.06-.03-.09-.1-.06-.16.02-.06.09-.09.15-.06.06.03.09.1.06.16-.02.06-.09.09-.15.06Z"/><path class="cls-17" d="m38.96,14.51c.05.02.07.08.05.13-.02.05-.08.08-.13.05-.05-.02-.07-.08-.05-.13.02-.05.08-.08.13-.05Z"/><path class="cls-14" d="m38.85,14.57s0,.09.04.11c.04.02.09,0,.11-.04s0-.09-.04-.11c-.04-.02-.09,0-.11.04Zm.03.14c-.06-.03-.09-.1-.06-.16.02-.06.09-.09.15-.06.06.03.09.1.06.16-.02.06-.09.09-.15.06Z"/><path class="cls-17" d="m38.3,14.79c.02-.05.08-.08.13-.05.05.02.07.08.05.13-.02.05-.08.08-.13.05-.05-.02-.07-.08-.05-.13Z"/><path class="cls-14" d="m38.36,14.91s.09,0,.11-.04c.02-.04,0-.09-.04-.11-.04-.02-.09,0-.11.04s0,.09.04.11Zm.14-.03c-.02.06-.09.09-.15.06-.06-.03-.09-.1-.06-.16.02-.06.09-.09.15-.06.06.03.09.1.06.16Z"/><path class="cls-17" d="m38.61,14.01c.02-.05.08-.08.13-.05.05.02.07.08.05.13-.02.05-.08.08-.13.05-.05-.02-.07-.08-.05-.13Z"/><path class="cls-14" d="m38.67,14.13s.09,0,.11-.04,0-.09-.04-.11c-.04-.02-.09,0-.11.04-.02.04,0,.09.04.11Zm.14-.03c-.02.06-.09.09-.15.06-.06-.03-.09-.1-.06-.16.02-.06.09-.09.15-.06.06.03.09.1.06.16Z"/><path class="cls-21" d="m36.41,14.85c.02.17-.06.32-.17.33-.11.01-.22-.11-.24-.28-.02-.17.06-.32.17-.33.11-.01.22.11.24.28Z"/><path class="cls-14" d="m36.05,14.68c-.03.06-.04.13-.03.21,0,.08.04.15.08.2.04.05.09.07.14.07.05,0,.09-.04.12-.1.03-.06.04-.13.03-.21,0-.08-.04-.15-.08-.2-.04-.05-.09-.07-.14-.07-.05,0-.09.04-.12.1Zm-.03-.02c.03-.06.08-.11.15-.12.06,0,.13.02.17.08.05.05.08.13.09.22.01.09,0,.17-.04.23-.03.06-.08.11-.15.12-.06,0-.13-.02-.17-.08-.05-.05-.08-.13-.09-.22-.01-.09,0-.17.04-.23Z"/><path class="cls-16" d="m36.23,14.45c0,.06-.02.11-.06.11-.04,0-.07-.04-.08-.09,0-.06.02-.11.06-.11.04,0,.07.04.08.09Z"/><path class="cls-14" d="m36.12,14.4s-.01.04,0,.06.01.05.02.06c.01.01.03.02.04.02.01,0,.02,0,.03-.03,0-.02.01-.04,0-.06,0-.02-.01-.05-.02-.06-.01-.01-.03-.02-.04-.02-.01,0-.02,0-.03.03Zm-.03-.02s.03-.04.06-.04.05.01.07.03c.02.02.03.05.03.08,0,.03,0,.06-.01.08-.01.02-.03.04-.06.04-.03,0-.05,0-.07-.03-.02-.02-.03-.05-.03-.08,0-.03,0-.06.01-.08Z"/><path class="cls-16" d="m36.33,15.28c0,.06-.02.11-.06.11-.04,0-.07-.04-.08-.09,0-.06.02-.11.06-.11.04,0,.07.04.08.09Z"/><path class="cls-14" d="m36.22,15.23s-.01.04,0,.06.01.05.02.06c.01.01.03.02.04.02.01,0,.02,0,.03-.03,0-.02.01-.04,0-.06s-.01-.05-.02-.06c-.01-.01-.03-.02-.04-.02-.01,0-.02,0-.03.03Zm-.03-.02s.03-.04.06-.04c.03,0,.05,0,.07.03.02.02.03.05.03.08,0,.03,0,.06-.01.08-.01.02-.03.04-.06.04-.03,0-.05-.01-.07-.03-.02-.02-.03-.05-.03-.08,0-.03,0-.06.01-.08Z"/><path class="cls-16" d="m36.48,14.74s.07.04.08.09c0,.06-.02.11-.06.11-.04,0-.07-.04-.08-.09,0-.06.02-.11.06-.11Z"/><path class="cls-14" d="m36.46,14.91s.03.02.04.02c.01,0,.02,0,.03-.03,0-.02.01-.04,0-.06,0-.03-.01-.05-.02-.06-.01-.01-.03-.02-.04-.02-.01,0-.02,0-.03.03,0,.02-.01.04,0,.06,0,.03.01.05.02.06Zm-.03.02s-.03-.05-.03-.08c0-.03,0-.06.01-.08.01-.02.03-.04.06-.04.03,0,.05.01.07.03.02.02.03.05.03.08,0,.03,0,.06-.01.08-.01.02-.03.04-.06.04s-.05-.01-.07-.03Z"/><path class="cls-22" d="m36.45,15.16s.02.11,0,.14c-.03.03-.07.02-.1-.03-.02-.05-.02-.11,0-.14.03-.03.07-.02.1.03Z"/><path class="cls-14" d="m36.36,15.15s-.03.07,0,.11c.02.04.06.05.08.02.02-.02.03-.07,0-.11-.02-.04-.06-.05-.08-.02Zm-.03.14c-.03-.05-.03-.13.01-.17.04-.04.09-.02.12.03.03.05.03.13-.01.17-.04.04-.09.02-.12-.03Z"/><path class="cls-22" d="m36.38,14.55s.07-.02.1.03c.02.05.02.11,0,.14-.03.03-.07.02-.1-.03-.02-.05-.02-.11,0-.14Z"/><path class="cls-14" d="m36.39,14.68s.06.05.08.02c.02-.02.03-.07,0-.11-.02-.04-.06-.05-.08-.02-.02.02-.03.07,0,.11Zm.09.05s-.09.02-.12-.03c-.03-.05-.03-.13.01-.17.04-.04.09-.02.12.03.03.05.03.13-.01.17Z"/><path class="cls-17" d="m36.5,14.96s.05.08.04.14c-.01.05-.05.07-.09.05-.04-.02-.05-.08-.04-.14.01-.05.05-.07.09-.05Z"/><path class="cls-14" d="m36.43,15.02s0,.09.03.11c.03.02.06,0,.07-.04s0-.09-.03-.11c-.03-.02-.06,0-.07.04Zm.02.14s-.07-.11-.05-.16c.01-.06.06-.09.11-.06.05.03.07.11.05.16-.01.06-.06.09-.11.06Z"/><path class="cls-17" d="m36.24,14.45c.01-.05.05-.07.09-.05.04.02.05.08.04.14-.01.05-.05.07-.09.05-.04-.02-.05-.08-.04-.14Z"/><path class="cls-14" d="m36.29,14.57s.06,0,.07-.04c.01-.04,0-.09-.03-.11-.03-.02-.06,0-.07.04-.01.04,0,.09.03.11Zm.1-.02c-.01.06-.06.09-.11.06-.05-.03-.07-.11-.05-.16.01-.06.06-.09.11-.06.05.03.07.11.05.16Z"/><path class="cls-21" d="m46.88,14.85c-.02.17.06.32.17.33.11.01.22-.11.24-.28.02-.17-.06-.32-.17-.33-.11-.01-.22.11-.24.28Z"/><path class="cls-14" d="m47.25,14.68c.03.06.04.13.03.21,0,.08-.04.15-.08.2-.04.05-.09.07-.14.07-.05,0-.09-.04-.12-.1-.03-.06-.04-.13-.03-.21,0-.08.04-.15.08-.2.04-.05.09-.07.14-.07.05,0,.09.04.12.1Zm.03-.02c-.03-.06-.08-.11-.15-.12-.06,0-.13.02-.17.08-.05.05-.08.13-.09.22-.01.09,0,.17.04.23.03.06.08.11.15.12.06,0,.13-.02.17-.08.05-.05.08-.13.09-.22.01-.09,0-.17-.04-.23Z"/><path class="cls-16" d="m47.07,14.45c0,.06.02.11.06.11.04,0,.07-.04.08-.09,0-.06-.02-.11-.06-.11-.04,0-.07.04-.08.09Z"/><path class="cls-14" d="m47.18,14.4s.01.04,0,.06c0,.03-.01.05-.02.06-.01.01-.03.02-.04.02-.01,0-.02,0-.03-.03,0-.02-.01-.04,0-.06,0-.03.01-.05.02-.06.01-.01.03-.02.04-.02.01,0,.02,0,.03.03Zm.03-.02s-.03-.04-.06-.04c-.03,0-.05.01-.07.03-.02.02-.03.05-.03.08,0,.03,0,.06.01.08.01.02.03.04.06.04s.05,0,.07-.03c.02-.02.03-.05.03-.08,0-.03,0-.06-.01-.08Z"/><path class="cls-16" d="m46.97,15.28c0,.06.02.11.06.11.04,0,.07-.04.08-.09,0-.06-.02-.11-.06-.11-.04,0-.07.04-.08.09Z"/><path class="cls-14" d="m47.08,15.23s.01.04,0,.06c0,.02-.01.05-.02.06-.01.01-.03.02-.04.02-.01,0-.02,0-.03-.03,0-.02-.01-.04,0-.06,0-.03.01-.05.02-.06.01-.01.03-.02.04-.02.01,0,.02,0,.03.03Zm.03-.02s-.03-.04-.06-.04-.05,0-.07.03c-.02.02-.03.05-.03.08,0,.03,0,.06.01.08.01.02.03.04.06.04s.05-.01.07-.03c.02-.02.03-.05.03-.08,0-.03,0-.06-.01-.08Z"/><path class="cls-16" d="m46.82,14.74s-.07.04-.08.09c0,.06.02.11.06.11.04,0,.07-.04.08-.09,0-.06-.02-.11-.06-.11Z"/><path class="cls-14" d="m46.83,14.91s-.03.02-.04.02c-.01,0-.02,0-.03-.03,0-.02-.01-.04,0-.06,0-.03.01-.05.02-.06.01-.01.03-.02.04-.02.01,0,.02,0,.03.03,0,.02.01.04,0,.06,0,.03-.01.05-.02.06Zm.03.02s.03-.05.03-.08c0-.03,0-.06-.01-.08-.01-.02-.03-.04-.06-.04-.03,0-.05.01-.07.03-.02.02-.03.05-.03.08,0,.03,0,.06.01.08.01.02.03.04.06.04s.05-.01.07-.03Z"/><path class="cls-17" d="m46.85,15.16s-.02.11,0,.14c.03.03.07.02.1-.03.02-.05.02-.11,0-.14-.03-.03-.07-.02-.1.03Z"/><path class="cls-14" d="m46.94,15.15s.03.07,0,.11c-.02.04-.06.05-.08.02-.02-.02-.03-.07,0-.11.02-.04.06-.05.08-.02Zm.03.14c.03-.05.03-.13-.01-.17-.04-.04-.09-.02-.12.03-.03.05-.03.13.01.17.04.04.09.02.12-.03Z"/><path class="cls-17" d="m46.92,14.55s-.07-.02-.1.03c-.02.05-.02.11,0,.14.03.03.07.02.1-.03.02-.05.02-.11,0-.14Z"/><path class="cls-14" d="m46.91,14.68s-.06.05-.08.02c-.02-.02-.03-.07,0-.11.02-.04.06-.05.08-.02.02.02.03.07,0,.11Zm-.09.05s.09.02.12-.03c.03-.05.03-.13-.01-.17-.04-.04-.09-.02-.12.03-.03.05-.03.13.01.17Z"/><path class="cls-22" d="m46.8,14.96s-.05.08-.04.14c.01.05.05.07.09.05.04-.02.05-.08.04-.14-.01-.05-.05-.07-.09-.05Z"/><path class="cls-14" d="m46.87,15.02s0,.09-.03.11c-.03.02-.06,0-.07-.04-.01-.04,0-.09.03-.11.03-.02.06,0,.07.04Zm-.02.14s.07-.11.05-.16c-.01-.06-.06-.09-.11-.06-.05.03-.07.11-.05.16.01.06.06.09.11.06Z"/><path class="cls-17" d="m47.06,14.45c-.01-.05-.05-.07-.09-.05-.04.02-.05.08-.04.14.01.05.05.07.09.05.04-.02.05-.08.04-.14Z"/><path class="cls-22" d="m47.06,14.45c-.01-.05-.05-.07-.09-.05-.04.02-.05.08-.04.14.01.05.05.07.09.05.04-.02.05-.08.04-.14Z"/><path class="cls-14" d="m47.01,14.57s-.06,0-.07-.04c-.01-.04,0-.09.03-.11.03-.02.06,0,.07.04.01.04,0,.09-.03.11Zm-.1-.02c.01.06.06.09.11.06.05-.03.07-.11.05-.16-.01-.06-.06-.09-.11-.06-.05.03-.07.11-.05.16Z"/><path class="cls-16" d="m35.29,12.36s-.04,0-.06.02c-.02.01-.04.04-.04.07-.06.26.15.67.48.63.09-.06.07-.26-.05-.45-.1-.16-.23-.26-.33-.26Z"/><path class="cls-14" d="m35.29,12.38s-.03,0-.05.01h0s-.03.03-.04.06c-.03.12,0,.29.09.41.08.13.21.21.37.2.03-.02.05-.08.04-.16,0-.08-.04-.17-.1-.27-.05-.08-.11-.14-.16-.19-.06-.04-.11-.07-.15-.07Zm-.07-.02s.04-.02.07-.02h0c.05,0,.11.03.17.08.06.05.12.11.17.19.06.1.1.2.11.28,0,.08,0,.16-.06.19,0,0,0,0,0,0-.18.02-.32-.08-.4-.21-.09-.13-.13-.31-.1-.44h0s0,0,0,0c0-.03.02-.06.05-.08"/><path class="cls-16" d="m48.01,12.36s.04,0,.06.02c.02.01.04.04.04.07.06.26-.15.67-.48.63-.09-.06-.07-.26.05-.45.1-.16.23-.26.33-.26Z"/><path class="cls-14" d="m48.01,12.38s.03,0,.05.01h0s.03.03.04.06c.03.12,0,.29-.09.41-.08.13-.21.21-.37.2-.03-.02-.05-.08-.04-.16,0-.08.04-.17.1-.27.05-.08.11-.14.16-.19.06-.04.11-.07.15-.07Zm.07-.02s-.04-.02-.07-.02h0c-.05,0-.11.03-.17.08-.06.05-.12.11-.17.19-.06.1-.1.2-.11.28,0,.08,0,.16.06.19,0,0,0,0,0,0,.18.02.32-.08.4-.21.09-.13.13-.31.1-.44h0s0,0,0,0c0-.03-.02-.06-.05-.08"/><path class="cls-16" d="m38.28,12.48c0,.11-.09.21-.21.21s-.21-.09-.21-.21.09-.21.21-.21.21.09.21.21Z"/><path class="cls-14" d="m38.07,12.29c-.1,0-.19.08-.19.19s.08.19.19.19.19-.08.19-.19-.08-.19-.19-.19Zm-.22.19c0-.12.1-.22.22-.22s.22.1.22.22-.1.22-.22.22-.22-.1-.22-.22Z"/><path class="cls-16" d="m37.62,10.24c0,.11-.09.21-.21.21s-.21-.09-.21-.21.09-.21.21-.21.21.09.21.21Z"/><path class="cls-14" d="m37.42,10.05c-.1,0-.19.08-.19.19s.08.19.19.19.19-.08.19-.19-.08-.19-.19-.19Zm-.22.19c0-.12.1-.22.22-.22s.22.1.22.22-.1.22-.22.22-.22-.1-.22-.22Z"/><path class="cls-16" d="m39.06,11.01c0,.11-.09.21-.21.21s-.21-.09-.21-.21.09-.21.21-.21.21.09.21.21Z"/><path class="cls-14" d="m38.86,10.82c-.1,0-.19.08-.19.19s.08.19.19.19.19-.08.19-.19-.08-.19-.19-.19Zm-.22.19c0-.12.1-.22.22-.22s.22.1.22.22-.1.22-.22.22-.22-.1-.22-.22Z"/><path class="cls-16" d="m45.02,12.48c0,.11.09.21.21.21s.21-.09.21-.21-.09-.21-.21-.21-.21.09-.21.21Z"/><path class="cls-14" d="m45.23,12.29c.1,0,.19.08.19.19s-.08.19-.19.19-.19-.08-.19-.19.08-.19.19-.19Zm.22.19c0-.12-.1-.22-.22-.22s-.22.1-.22.22.1.22.22.22.22-.1.22-.22Z"/><path class="cls-16" d="m45.67,10.24c0,.11.09.21.21.21s.21-.09.21-.21-.09-.21-.21-.21-.21.09-.21.21Z"/><path class="cls-14" d="m45.88,10.05c.1,0,.19.08.19.19s-.08.19-.19.19-.19-.08-.19-.19.08-.19.19-.19Zm.22.19c0-.12-.1-.22-.22-.22s-.22.1-.22.22.1.22.22.22.22-.1.22-.22Z"/><path class="cls-16" d="m44.24,11.01c0,.11.09.21.21.21s.21-.09.21-.21-.09-.21-.21-.21-.21.09-.21.21Z"/><path class="cls-14" d="m44.44,10.82c.1,0,.19.08.19.19s-.08.19-.19.19-.19-.08-.19-.19.08-.19.19-.19Zm.22.19c0-.12-.1-.22-.22-.22s-.22.1-.22.22.1.22.22.22.22-.1.22-.22Z"/></svg>