<?xml version="1.0" encoding="UTF-8"?><svg id="Layer_1" xmlns="http://www.w3.org/2000/svg" viewBox="0 0 84 51.33"><defs><style>.cls-1{fill:#fff;}.cls-2{fill:#0c58b5;fill-rule:evenodd;}</style></defs><path class="cls-1" d="m0,0h84v51.33H0V0Z"/><path class="cls-2" d="m48.23,25.67l3.11-5.44h-6.23l-3.11-5.44-3.11,5.44h-6.23l3.11,5.44-3.11,5.44h6.23l3.11,5.44,3.11-5.44h6.23s-3.11-5.44-3.11-5.44Zm.38-3.85l-1.29,2.26-1.29-2.26h2.58,0Zm-2.2,3.85l-2.2,3.85h-4.4l-2.2-3.85,2.2-3.85h4.4l2.2,3.85Zm-4.4-7.69l1.29,2.26h-2.58s1.29-2.26,1.29-2.26Zm-6.61,3.85h2.58l-1.29,2.26-1.29-2.26Zm0,7.69l1.29-2.26,1.29,2.26h-2.58Zm6.61,3.85l-1.29-2.25h2.58l-1.29,2.25Zm5.32-6.1l1.29,2.26h-2.58s1.29-2.26,1.29-2.26ZM0,39.67h84v8.56H0v-8.56ZM0,3.11h84v8.56H0V3.11Z"/></svg>