<svg xmlns="http://www.w3.org/2000/svg" width="84" height="66"><path fill="#DB242A" d="M0 0h84v66H0z"/><path fill="#FFF" d="M22 12.502A22.088 22.088 0 0 0 9.502 25H0v16h9.502A22.088 22.088 0 0 0 22 53.498V66h16V53.498A22.088 22.088 0 0 0 50.498 41H84V25H50.498A22.088 22.088 0 0 0 38 12.502V0H22v12.502Z"/><path fill-rule="evenodd" d="M48.764 36H84v-6H48.764a19.137 19.137 0 0 1 0 6ZM27 51.764V66h6V51.764a19.137 19.137 0 0 1-6 0ZM11.236 30H0v6h11.236a19.137 19.137 0 0 1 0-6ZM27 14.236V0h6v14.236a19.137 19.137 0 0 0-6 0ZM11.612 28.202H0V27h10.917A20.066 20.066 0 0 1 24 13.917V0h1v14.666a19.049 19.049 0 0 0-13.388 13.536Zm36.776 0H84V27H49.083A20.066 20.066 0 0 0 36 13.917V0h-1v14.666a19.049 19.049 0 0 1 13.388 13.536ZM35 51.334V66h1V52.083A20.066 20.066 0 0 0 49.083 39H84v-1.202H48.388A19.049 19.049 0 0 1 35 51.334ZM11.612 37.798H0V39h10.917A20.066 20.066 0 0 0 24 52.083V66h1V51.334a19.049 19.049 0 0 1-13.388-13.536ZM12 33c0-9.934 8.066-18 18-18s18 8.066 18 18-8.066 18-18 18-18-8.066-18-18Zm1 0c0-9.383 7.617-17 17-17s17 7.617 17 17-7.617 17-17 17-17-7.617-17-17Z"/><path d="M25.176 20c3.227.054 6.453.086 9.681.08-1.787 3.448-2.808 7.292-3.097 11.176 3.889-.297 7.732-1.302 11.24-3.054-.055 3.23-.014 6.461-.065 9.691-3.461-1.778-7.288-2.876-11.162-3.075.279 3.884 1.271 7.743 3.088 11.177-3.243.008-6.487.009-9.73-.019 1.744-3.459 2.849-7.266 3.084-11.158-3.888.169-7.705 1.29-11.212 2.988-.017-3.239.054-6.478.023-9.717 3.484 1.779 7.312 2.861 11.203 3.099-.245-3.886-1.249-7.753-3.053-11.188Z"/></svg>