<svg xmlns="http://www.w3.org/2000/svg" width="84" height="66"><path fill="#001E6C" d="M0 0h84v66H0z"/><path fill="#FFF" d="M5.716 0H0v14.204L28.408 33 0 51.796V66h5.716L42 41.993 78.284 66H84V51.796L55.592 33 84 14.204V0h-5.716L42 24.007 5.716 0Z"/><path fill="#C81329" fill-rule="evenodd" d="M.6 66 32 45.216V43h-7.522L0 59.202V66h.6ZM0 10.798 18.435 23h10.87L0 3.603v7.195ZM83.4 0 52 20.784V23h7.522L84 6.798V0h-.6Zm.6 55.202L65.565 43h-10.87L84 62.397v-7.195Z"/><path fill="#FFF" fill-rule="evenodd" d="M84 43H52v23H32V43H0V23h32V0h20v23h32v20Z"/><path fill="#C81329" fill-rule="evenodd" d="M84 39H48v27H36V39H0V27h36V0h12v27h36v12Z"/></svg>