<?xml version="1.0" encoding="UTF-8"?><svg id="Layer_1" xmlns="http://www.w3.org/2000/svg" viewBox="0 0 84 51.33"><defs><style>.cls-1{fill:#de2910;}.cls-2{fill:#ffde00;fill-rule:evenodd;}</style></defs><path class="cls-1" d="m0,0h84v51.33H0V0Z"/><path class="cls-2" d="m21.26,26.03l-6.64-4.86-6.65,4.83,2.57-7.81-6.65-4.79h8.22l2.54-7.84,2.51,7.83h8.22l-6.67,4.81s2.54,7.83,2.54,7.83Zm13.11-17.19l-1.39-2.35-2.66.6,1.81-2.04-1.39-2.34,2.5,1.09,1.8-2.05-.26,2.72,2.51,1.08-2.66.59s-.25,2.72-.25,2.72Zm5.99,7.51l-.37-2.7-2.69-.47,2.45-1.19-.38-2.7,1.89,1.97,2.45-1.2-1.29,2.4,1.9,1.96-2.69-.48s-1.28,2.41-1.28,2.41Zm-1.42,10.67l.75-2.62-2.27-1.51,2.73-.1.74-2.63.94,2.56,2.73-.11-2.15,1.69.95,2.56-2.27-1.52s-2.14,1.69-2.14,1.69Zm-8.53,6.42l1.71-2.13-1.5-2.27,2.55.97,1.7-2.13-.13,2.72,2.55.96-2.63.71-.12,2.72-1.5-2.28s-2.63.73-2.63.73Z"/></svg>