<?xml version="1.0" encoding="UTF-8"?><svg id="Layer_1" xmlns="http://www.w3.org/2000/svg" viewBox="0 0 84 51.33"><defs><style>.cls-1{fill:#fff;}.cls-2{fill:#d21d10;}.cls-3{fill:#10467f;}</style></defs><rect class="cls-3" width="84" height="51.33"/><g><polygon class="cls-1" points="21.62 25.77 22.92 25.77 22.92 17.38 39.26 17.38 39.26 15.4 21.62 15.4 21.62 25.77"/><polygon class="cls-1" points=".07 15.4 .07 17.38 16.43 17.38 16.43 25.77 17.71 25.77 17.71 15.4 .07 15.4"/><polygon class="cls-1" points="22.92 8.87 22.92 .05 21.62 .05 21.62 10.43 39.26 10.43 39.26 8.87 22.92 8.87"/><polygon class="cls-1" points="17.71 .05 16.43 .05 16.43 8.87 .07 8.87 .07 10.43 17.71 10.43 17.71 .05"/><polygon class="cls-2" points="21.62 .05 17.71 .05 17.71 10.43 .07 10.43 .07 15.4 17.71 15.4 17.71 25.77 21.62 25.77 21.62 15.4 39.26 15.4 39.26 10.43 21.62 10.43 21.62 .05"/></g><g><polygon class="cls-1" points="20.56 33.5 21.78 36.59 24.95 35.62 23.3 38.49 26.04 40.37 22.76 40.87 23 44.17 20.56 41.92 18.13 44.17 18.37 40.87 15.09 40.37 17.83 38.49 16.18 35.62 19.35 36.59 20.56 33.5"/><polygon class="cls-1" points="60.14 39.14 60.79 40.79 62.49 40.27 61.6 41.81 63.07 42.82 61.31 43.08 61.44 44.86 60.14 43.65 58.83 44.86 58.96 43.08 57.21 42.82 58.67 41.81 57.79 40.27 59.49 40.79 60.14 39.14"/><polygon class="cls-1" points="51.44 18.36 52.09 20.02 53.79 19.5 52.91 21.04 54.37 22.04 52.62 22.31 52.75 24.08 51.44 22.88 50.14 24.08 50.27 22.31 48.51 22.04 49.97 21.04 49.09 19.5 50.79 20.02 51.44 18.36"/><polygon class="cls-1" points="60.14 7.31 60.79 8.96 62.49 8.44 61.6 9.98 63.07 10.98 61.31 11.25 61.44 13.03 60.14 11.82 58.83 13.03 58.96 11.25 57.21 10.98 58.67 9.98 57.79 8.44 59.49 8.96 60.14 7.31"/><polygon class="cls-1" points="69.01 17.56 69.67 19.21 71.37 18.69 70.48 20.23 71.95 21.23 70.19 21.5 70.32 23.28 69.01 22.07 67.71 23.28 67.84 21.5 66.08 21.23 67.55 20.23 66.66 18.69 68.36 19.21 69.01 17.56"/><polygon class="cls-1" points="65.65 26.17 66.2 27.29 67.44 27.47 66.55 28.34 66.76 29.57 65.65 28.99 64.55 29.57 64.76 28.34 63.86 27.47 65.1 27.29 65.65 26.17"/></g><g><polygon class="cls-1" points="16.43 8.87 16.43 7.92 4.14 .05 .07 .05 .07 .39 13.33 8.87 16.43 8.87"/><polygon class="cls-2" points=".07 .39 .07 2.16 10.55 8.87 13.33 8.87 .07 .39"/><polygon class="cls-3" points=".07 8.87 8.79 8.87 .07 3.29 .07 8.87"/><polygon class="cls-3" points="16.43 .05 4.14 .05 16.43 7.92 16.43 .05"/><polygon class="cls-1" points=".07 3.29 8.79 8.87 10.55 8.87 .07 2.16 .07 3.29"/><polygon class="cls-3" points="22.92 .05 22.92 8.09 35.15 .05 22.92 .05"/><polygon class="cls-2" points="39.26 .05 36.62 .05 23.21 8.87 26.01 8.87 39.26 .15 39.26 .05"/><polygon class="cls-1" points="39.26 .15 26.01 8.87 30.65 8.87 39.26 3.21 39.26 .15"/><polygon class="cls-3" points="39.26 3.21 30.65 8.87 39.26 8.87 39.26 3.21"/><polygon class="cls-1" points="35.15 .05 22.92 8.09 22.92 8.87 23.21 8.87 36.62 .05 35.15 .05"/><polygon class="cls-3" points=".07 17.38 .07 22.93 8.76 17.38 .07 17.38"/><polygon class="cls-1" points="8.76 17.38 .07 22.93 .07 25.77 .17 25.77 13.3 17.38 8.76 17.38"/><polygon class="cls-2" points="13.3 17.38 .17 25.77 3.01 25.77 16.14 17.38 13.3 17.38"/><polygon class="cls-1" points="16.14 17.38 3.01 25.77 4.7 25.77 16.43 18.28 16.43 17.38 16.14 17.38"/><polygon class="cls-3" points="16.43 25.77 16.43 18.28 4.7 25.77 16.43 25.77"/><polygon class="cls-1" points="39.26 22.9 30.64 17.38 28.88 17.38 39.26 24.02 39.26 22.9"/><polygon class="cls-2" points="28.88 17.38 26.17 17.38 39.26 25.76 39.26 24.02 28.88 17.38"/><polygon class="cls-1" points="22.92 17.38 22.92 18.16 34.82 25.77 39.26 25.77 39.26 25.76 26.17 17.38 22.92 17.38"/><polygon class="cls-3" points="22.92 25.77 34.82 25.77 22.92 18.16 22.92 25.77"/><polygon class="cls-3" points="39.26 17.38 30.64 17.38 39.26 22.9 39.26 17.38"/></g></svg>