<?xml version="1.0" encoding="UTF-8"?><svg id="Layer_1" xmlns="http://www.w3.org/2000/svg" viewBox="0 0 84 51.33"><defs><style>.cls-1{fill:#fff;}.cls-2{fill:#ce1126;}.cls-3{fill:#007a3d;}</style></defs><rect class="cls-2" width="84" height="17.22"/><rect class="cls-1" y="17.06" width="84" height="17.22"/><rect y="34.27" width="84" height="17.22"/><polygon class="cls-3" points="13.26 31.83 17.22 28.97 21.2 31.83 19.66 27.15 23.71 24.26 18.78 24.26 17.19 19.51 15.76 24.25 10.73 24.21 14.79 27.16 13.26 31.83"/><polygon class="cls-3" points="38.96 31.83 42.92 28.97 46.91 31.83 45.37 27.15 49.41 24.26 44.49 24.26 42.89 19.51 41.46 24.25 36.43 24.21 40.49 27.16 38.96 31.83"/><polygon class="cls-3" points="64.2 31.83 68.16 28.97 72.15 31.83 70.61 27.15 74.65 24.26 69.73 24.26 68.13 19.51 66.7 24.25 61.67 24.21 65.73 27.16 64.2 31.83"/></svg>