<svg xmlns="http://www.w3.org/2000/svg" width="84" height="66"><path fill="#FFF" d="M0 0h84v66H0z"/><path fill="#B22234" fill-rule="evenodd" d="M0 40.615v5.077h84v-5.077H0Zm0 10.154v5.077h84v-5.077H0Zm0 10.154V66h84v-5.077H0Zm0-25.385h84v-5.076H50v5.076H0Zm50-10.153h34v-5.077H50v5.077Zm0-10.154h34v-5.077H50v5.077ZM50 0h34v5.077H50V0Z"/><path fill="#3C3B6E" d="M0 0h50v35.538H0z"/><path fill="#FFF" fill-rule="evenodd" d="m5.758 2.732-1.254.956.479 1.547-1.254-.955-1.254.956.48-1.548-1.254-.956h1.552l.479-1.547.478 1.547h1.553m6.077 0-1.254.956.479 1.547-1.259-.955-1.251.955.478-1.547-1.255-.956h1.553l.479-1.547.478 1.547h1.553m6.077 0-1.254.956.479 1.547-1.26-.955-1.254.956.478-1.547-1.254-.956h1.553l.479-1.547.478 1.547h1.553m6.077 0-1.254.956.472 1.546-1.251-.955-1.254.956.478-1.547-1.254-.956h1.553l.479-1.547.472 1.546h1.553m6.077 0-1.254.956.479 1.547-1.253-.955-1.254.956.478-1.547-1.254-.956h1.553l.478-1.547.479 1.547h1.553m6.077 0-1.254.956.478 1.547-1.258-.956-1.254.956.479-1.547-1.254-.956h1.553l.478-1.547.479 1.547h1.553m6.077 0-1.254.956.478 1.547-1.258-.956-1.254.956.479-1.547-1.256-.957h1.553l.478-1.547.479 1.547h1.553m6.077 0-1.254.956.478 1.547-1.256-.955-1.254.956.479-1.547-1.254-.956h1.553l.478-1.547.479 1.547h1.552M5.762 8.557l-1.254.956.475 1.545-1.254-.955-1.254.956.48-1.547-1.254-.956h1.552l.479-1.547.478 1.547h1.553m6.077 0-1.254.956.479 1.546-1.259-.955-1.251.955.478-1.546-1.255-.956h1.553l.479-1.547.478 1.547h1.553m6.077 0-1.254.956.479 1.546-1.26-.955-1.254.956.478-1.546-1.254-.956h1.553l.479-1.547.478 1.547h1.553m6.077 0-1.254.956.472 1.545-1.251-.955-1.254.956.478-1.546-1.254-.956h1.553l.479-1.547.472 1.546h1.553m6.077 0-1.254.956.479 1.546-1.253-.955-1.254.956.478-1.546-1.254-.956h1.553l.478-1.547.479 1.547h1.553m6.077 0-1.254.956.478 1.546-1.258-.956-1.254.956.479-1.546-1.254-.956h1.553l.478-1.547.479 1.547h1.553m6.077 0-1.254.956.478 1.546-1.258-.956-1.254.956.479-1.546-1.256-.957h1.553l.478-1.547.479 1.547h1.553m6.077 0-1.254.956.478 1.546-1.256-.955-1.254.956.479-1.546-1.254-.956h1.553l.478-1.547.479 1.547h1.552M5.762 14.38l-1.254.956.475 1.546-1.254-.955-1.254.956.48-1.548-1.254-.956h1.552l.479-1.547.478 1.547h1.553m6.077 0-1.254.956.479 1.547-1.259-.955-1.251.955.478-1.547-1.255-.956h1.553l.479-1.547.478 1.547h1.553m6.077 0-1.254.956.479 1.547-1.26-.955-1.254.956.478-1.547-1.254-.956h1.553l.479-1.547.478 1.547h1.553m6.077 0-1.254.956.472 1.546-1.251-.955-1.254.956.478-1.547-1.254-.956h1.553l.479-1.547.472 1.546h1.553m6.077 0-1.254.956.479 1.547-1.253-.955-1.254.956.478-1.547-1.254-.956h1.553l.478-1.547.479 1.547h1.553m6.077 0-1.254.956.478 1.547-1.258-.956-1.254.956.479-1.547-1.254-.956h1.553l.478-1.547.479 1.547h1.553m6.077 0-1.254.956.478 1.547-1.258-.956-1.254.956.479-1.547-1.256-.957h1.553l.478-1.547.479 1.547h1.553m6.077 0-1.254.956.478 1.547-1.256-.955-1.254.956.479-1.547-1.254-.956h1.553l.478-1.547.479 1.547h1.552M5.762 20.204l-1.254.956.475 1.545-1.254-.955-1.254.956.48-1.547-1.254-.956h1.552l.479-1.546.478 1.546h1.553m6.077 0-1.254.956.479 1.546-1.259-.955-1.251.955.478-1.546-1.255-.956h1.553l.479-1.546.478 1.546h1.553m6.077 0-1.254.956.479 1.546-1.26-.955-1.254.956.478-1.546-1.254-.956h1.553l.479-1.546.478 1.546h1.553m6.077 0-1.254.956.472 1.545-1.251-.955-1.254.956.478-1.546-1.254-.956h1.553l.479-1.546.472 1.545h1.553m6.077 0-1.254.956.479 1.546-1.253-.955-1.254.956.478-1.546-1.254-.956h1.553l.478-1.546.479 1.546h1.553m6.077 0-1.254.956.478 1.546-1.258-.956-1.254.956.479-1.546-1.254-.956h1.553l.478-1.546.479 1.546h1.553m6.077 0-1.254.956.478 1.546-1.258-.956-1.254.956.479-1.546-1.256-.957h1.553l.478-1.546.479 1.546h1.553m6.077 0-1.254.956.478 1.546-1.256-.955-1.254.956.479-1.546-1.254-.956h1.553l.478-1.546.479 1.546h1.552M5.762 26.027l-1.254.957.475 1.545-1.254-.955-1.254.956.48-1.547-1.254-.956h1.552l.479-1.547.478 1.547h1.553m6.077 0-1.254.956.479 1.546-1.259-.955-1.251.955.478-1.546-1.255-.956h1.553l.479-1.547.478 1.547h1.553m6.077 0-1.254.956.479 1.546-1.26-.955-1.254.956.478-1.546-1.254-.957h1.553l.479-1.546.478 1.546h1.553m6.077 0-1.254.957.472 1.545-1.251-.955-1.254.956.478-1.546-1.254-.957h1.553l.479-1.546.472 1.546h1.553m6.077 0-1.254.956.479 1.546-1.253-.955-1.254.956.478-1.546-1.254-.957h1.553l.478-1.546.479 1.546h1.553m6.077 0-1.254.957.478 1.546-1.258-.956-1.254.956.479-1.546-1.254-.957h1.553l.478-1.546.479 1.546h1.553m6.077 0-1.254.957.478 1.546-1.258-.956-1.254.956.479-1.546-1.256-.957h1.553l.478-1.547.479 1.547h1.553m6.077 0-1.254.956.478 1.546-1.256-.955-1.254.956.479-1.546-1.254-.957h1.553l.478-1.546.479 1.546h1.552M5.762 31.851l-1.254.956.475 1.545-1.254-.955-1.254.956.48-1.547-1.254-.956h1.552l.479-1.546.478 1.546h1.553m6.077 0-1.254.956.479 1.546-1.259-.955-1.251.955.478-1.546-1.255-.956h1.553l.479-1.546.478 1.546h1.553m6.077 0-1.254.956.479 1.546-1.26-.955-1.254.956.478-1.546-1.254-.956h1.553l.479-1.546.478 1.546h1.553m6.077 0-1.254.956.472 1.545-1.251-.955-1.254.956.478-1.546-1.254-.956h1.553l.479-1.546.472 1.545h1.553m6.077 0-1.254.956.479 1.546-1.253-.955-1.254.956.478-1.546-1.254-.956h1.553l.478-1.546.479 1.546h1.553m6.077 0-1.254.956.478 1.546-1.258-.956-1.254.956.479-1.546-1.254-.956h1.553l.478-1.546.479 1.546h1.553m6.077 0-1.254.956.478 1.546-1.258-.956-1.254.956.479-1.546-1.256-.957h1.553l.478-1.546.479 1.546h1.553m6.077 0-1.254.956.478 1.546-1.256-.955-1.254.956.479-1.546-1.254-.956h1.553l.478-1.546.479 1.546h1.552"/></svg>