<?xml version="1.0" encoding="UTF-8"?><svg id="Layer_1" xmlns="http://www.w3.org/2000/svg" viewBox="0 0 84 51.33"><defs><style>.cls-1{fill:#c00;}.cls-2{fill:gold;fill-rule:evenodd;}</style></defs><path class="cls-1" d="m0,.26h84v51.33H0V.26Z"/><path class="cls-2" d="m21.22,25.25l1.43,1.51c.19.34.11.77-.19,1.02-.26.33-.68.48-1.09.38l-1.59-1.67c-1.03.74-2.25,1.19-3.52,1.29-2.45.11-4.83-.83-6.55-2.58l-1.62,2.33c-.41.39-1.06.39-1.47,0-.48-.41-.53-1.13-.12-1.6.02-.02.03-.04.05-.06l2.14-1.76c-.16-.19-.32-.39-.48-.6l.77-.64c.17.2.35.38.54.56l.29-.24.76.76-.15.22c1.58,1.16,3.49,1.77,5.45,1.76.91-.04,1.79-.35,2.53-.89l-6.27-6.61-1.94,1.88-2.3-2.3,4.09-3.77,2.94.13.7.7-2.12,2.05,6.28,6.62c1.17-1.51,1.78-3.78.82-6.69-1.7-5.17-10.22-4.95-11.12-4.41,0,0,1.15-1.02,4.73-1.09,3.57-.06,8.21,2.22,9.01,7.15.4,2.38-.34,4.8-2,6.54Z"/><path class="cls-2" d="m15.43,4.63l.39,1.21.11.35h1.64l-1.03.75-.29.21.11.35.39,1.21-1.03-.75-.29-.21-.3.21-1.03.75.39-1.21.11-.35-.3-.21-1.03-.75h1.64l.11-.35s.39-1.21.39-1.21Zm0-1.63l-.87,2.68h-2.82l2.28,1.66-.87,2.68,2.28-1.66,2.28,1.66-.87-2.68,2.28-1.66h-2.82l-.87-2.68s0,0,0,0Z"/></svg>