<?xml version="1.0" encoding="UTF-8"?><svg id="Layer_1" xmlns="http://www.w3.org/2000/svg" viewBox="0 0 84 66"><defs><style>.cls-1{fill:#1f191a;}.cls-2{fill:#fff;}.cls-3{fill:#e6042d;}.cls-4{fill:#00317b;}</style></defs><rect class="cls-2" width="84" height="66"/><g><g><path class="cls-3" d="m42.31,16.22c-6.58,0-12.26,3.81-14.97,9.35-.61,2.38-.95,6.69,3.4,9.56,6.27,4.15,11.01-1.42,11.88-2.97.87-1.55,5.02-4.41,10.05-2.25,4.85,2.09,5.55,7.38,3.86,11.59,1.54-2.52,2.42-5.48,2.42-8.65,0-9.19-7.45-16.63-16.64-16.63Z"/><path class="cls-4" d="m52.68,29.91c-5.02-2.16-9.18.7-10.05,2.25-.87,1.55-5.61,7.12-11.88,2.97-4.34-2.87-4.01-7.18-3.4-9.56-1.08,2.2-1.68,4.67-1.68,7.29,0,9.19,7.45,16.63,16.64,16.63,6.02,0,11.3-3.2,14.22-7.99,1.69-4.22,1-9.5-3.86-11.59Z"/></g><g><rect class="cls-1" x="4.99" y="12.25" width="16.65" height="2.7" transform="translate(-5.42 16.97) rotate(-55.81)"/><rect class="cls-1" x="8.45" y="14.56" width="16.65" height="2.7" transform="translate(-5.81 20.85) rotate(-55.81)"/><rect class="cls-1" x="11.99" y="16.87" width="16.65" height="2.7" transform="translate(-6.17 24.78) rotate(-55.81)"/></g><g><rect class="cls-1" x="60.3" y="10.71" width="2.7" height="7.6" transform="translate(2.37 36.79) rotate(-33.84)"/><rect class="cls-1" x="65.25" y="18.22" width="2.7" height="7.6" transform="translate(-.98 40.82) rotate(-33.84)"/><rect class="cls-1" x="66.25" y="7.59" width="2.7" height="16.65" transform="translate(2.59 40.34) rotate(-33.84)"/><rect class="cls-1" x="67.24" y="5.93" width="2.7" height="7.76" transform="translate(6.16 39.86) rotate(-33.84)"/><rect class="cls-1" x="72.2" y="13.55" width="2.7" height="7.61" transform="translate(2.8 43.9) rotate(-33.84)"/></g><g><rect class="cls-1" x="12" y="43.89" width="2.7" height="16.36" transform="translate(-26.74 16.26) rotate(-33.84)"/><rect class="cls-1" x="18.96" y="39.25" width="2.7" height="16.36" transform="translate(-22.97 19.35) rotate(-33.84)"/><rect class="cls-1" x="12.97" y="42.07" width="2.7" height="7.76" transform="translate(-23.16 15.76) rotate(-33.84)"/><rect class="cls-1" x="17.94" y="49.69" width="2.7" height="7.61" transform="translate(-26.52 19.8) rotate(-33.84)"/></g><g><polygon class="cls-1" points="58.21 53.59 60.45 55.11 64.76 48.76 62.51 47.28 58.21 53.59"/><polygon class="cls-1" points="69.81 41.34 67.58 39.82 63.31 46.1 65.56 47.59 69.81 41.34"/><polygon class="cls-1" points="73.27 43.65 71.04 42.13 66.78 48.39 69.04 49.87 73.27 43.65"/><polygon class="cls-1" points="61.67 55.9 63.91 57.42 68.24 51.05 65.98 49.56 61.67 55.9"/><polygon class="cls-1" points="76.81 45.95 74.58 44.44 70.31 50.71 72.56 52.2 76.81 45.95"/><polygon class="cls-1" points="65.21 58.21 67.45 59.72 71.76 53.37 69.51 51.89 65.21 58.21"/></g></g></svg>