<?xml version="1.0" encoding="UTF-8"?><svg id="Layer_1" xmlns="http://www.w3.org/2000/svg" viewBox="0 0 84 66"><defs><style>.cls-1{fill:#fff;}.cls-2{fill:#53aedf;}.cls-3{fill:#ffb30e;}.cls-4{fill:#983107;}</style></defs><rect class="cls-2" width="84" height="66"/><rect class="cls-1" y="17.19" width="84" height="31.89"/><g><g><g><path class="cls-3" d="m42.48,20.21c-.21.27-.34,7.09-.34,7.82h.79s.06-7.28-.2-7.85c-.12-.25-.25.03-.25.03Z"/><path class="cls-4" d="m42.97,28.09h-.88v-.05c0-.4.12-7.56.35-7.85,0,0,.07-.15.17-.15.06,0,.11.04.15.13.26.58.21,7.58.2,7.88v.05Zm-.79-.09h.7c0-.62.05-7.25-.2-7.79-.02-.05-.05-.08-.07-.08-.03,0-.08.06-.1.11-.19.26-.33,6.71-.34,7.76Z"/></g><polygon class="cls-4" points="42.48 28.02 42.52 23.33 42.6 28.01 42.48 28.02"/></g><g><g><path class="cls-3" d="m37.59,21.31c-.09.33,2.45,6.63,2.74,7.3l.72-.33s-2.78-6.69-3.24-7.1c-.21-.18-.22.13-.22.13Z"/><path class="cls-4" d="m40.31,28.67l-.02-.04c-.15-.36-2.84-6.97-2.74-7.33,0-.07.04-.22.15-.22.04,0,.09.02.14.07.47.42,3.14,6.85,3.26,7.12l.02.04-.81.37Zm-2.61-7.5s-.06.1-.06.14c-.08.32,2.31,6.28,2.72,7.24l.64-.29c-.24-.57-2.79-6.66-3.22-7.04-.04-.04-.07-.04-.08-.04Z"/></g><polygon class="cls-4" points="40.64 28.45 38.85 24.14 40.74 28.39 40.64 28.45"/></g><g><g><path class="cls-3" d="m47.42,21.31c-.3.16-3.08,6.34-3.37,7.02l.72.33s2.9-6.64,2.88-7.27c-.02-.28-.24-.08-.24-.08Z"/><path class="cls-4" d="m44.8,28.71l-.81-.37.02-.04c.16-.36,3.06-6.87,3.39-7.04,0,0,.08-.07.17-.07.05,0,.13.02.14.19.01.64-2.77,7.02-2.89,7.29l-.02.04Zm-.69-.42l.64.29c.25-.57,2.87-6.62,2.86-7.21,0-.07-.02-.1-.05-.1-.04,0-.1.04-.12.06-.28.16-2.92,6-3.34,6.96Z"/></g><polygon class="cls-4" points="44.38 28.45 46.25 24.17 44.49 28.49 44.38 28.45"/></g><g><g><path class="cls-3" d="m51.31,23.98c-.33.03-5.09,4.75-5.6,5.27l.56.58s5.03-5.09,5.24-5.69c.08-.27-.2-.16-.2-.16Z"/><path class="cls-4" d="m46.27,29.9l-.62-.65.03-.03c.27-.28,5.25-5.24,5.63-5.29,0,0,.05-.02.11-.02.07,0,.11.03.13.06.03.04.03.11,0,.19-.21.6-5.04,5.5-5.25,5.71l-.03.03Zm-.49-.65l.5.51c.43-.43,5-5.09,5.2-5.64.02-.05.02-.09,0-.1-.01-.01-.04-.02-.05-.02-.04,0-.09.02-.09.02-.32.04-4.83,4.49-5.55,5.23Z"/></g><polygon class="cls-4" points="45.97 29.49 49.22 26.2 46.06 29.57 45.97 29.49"/></g><g><g><path class="cls-3" d="m45.29,20.54c-.21,0-.89.39-.91,1.25-.02.86-.16,1.8-.25,2.1-.09.3-.63,1.63-.79,2.39-.16.74-.16,1.77-.16,1.77l.75.2s.16-1.19.15-1.56c-.01-.37.5-2.01.63-2.34.18-.48.17-1.25.12-1.76-.05-.51-.28-1,.03-1.33.3-.32.73-.7.43-.71Z"/><path class="cls-4" d="m43.97,28.31l-.83-.22v-.04s0-1.05.16-1.78c.12-.54.42-1.36.61-1.9.08-.23.15-.41.18-.5.09-.29.22-1.23.24-2.09.02-.84.68-1.3.95-1.3.08,0,.13.03.15.07.04.11-.11.27-.38.55-.05.06-.11.11-.16.17-.21.23-.15.53-.09.88.03.13.05.27.06.41.02.28.09,1.22-.13,1.78-.13.36-.63,1.97-.62,2.32.01.37-.14,1.52-.15,1.57v.05Zm-.75-.29l.67.18c.03-.23.15-1.19.14-1.51-.01-.38.5-2.03.63-2.36.21-.55.14-1.47.12-1.74-.01-.14-.04-.27-.06-.4-.07-.36-.13-.7.11-.96.05-.05.11-.11.16-.17.14-.15.38-.39.36-.45,0,0-.01-.01-.06-.01h0c-.2,0-.84.38-.86,1.21-.02.87-.16,1.81-.25,2.11-.03.09-.09.27-.18.5-.2.54-.5,1.35-.61,1.88-.14.65-.16,1.53-.16,1.72Z"/></g><path class="cls-4" d="m43.54,28.1s-.03-.7.01-1.07c0,0,.03-1.18.65-2.34.24-.48.27-.76.3-.92,0,0-.06.51-.26.97-.2.46-.56,1.02-.63,2.74l.02.68-.1-.07Z"/></g><g><g><path class="cls-3" d="m49.74,22.64c-.19-.09-.96,0-1.31.79-.34.78-.82,1.59-1.02,1.83-.2.24-1.19,1.25-1.63,1.88-.42.62-.81,1.56-.81,1.56l.62.48s.6-1.04.72-1.38c.13-.35,1.22-1.65,1.46-1.9.34-.37.63-1.08.78-1.57.15-.49.12-1.03.53-1.21.4-.18.93-.35.66-.48Z"/><path class="cls-4" d="m45.6,29.26l-.69-.54v-.03s.41-.96.83-1.57c.31-.45.89-1.08,1.28-1.5.16-.18.29-.32.35-.39.19-.23.67-1.04,1.01-1.82.29-.67.88-.84,1.18-.84.08,0,.14.01.19.03.07.03.1.08.1.12,0,.12-.2.21-.55.35-.07.03-.14.06-.21.09-.28.12-.34.43-.41.78-.03.13-.05.27-.1.41-.08.26-.38,1.16-.79,1.59-.26.27-1.32,1.55-1.45,1.89-.13.35-.7,1.35-.73,1.39l-.03.04Zm-.57-.57l.55.43c.12-.2.58-1.03.7-1.33.13-.36,1.23-1.66,1.47-1.92.4-.42.69-1.3.77-1.55.04-.13.07-.27.09-.4.07-.36.14-.7.46-.84.07-.03.14-.06.21-.09.19-.08.49-.21.5-.27,0,0,0-.02-.05-.04-.17-.08-.91,0-1.25.76-.35.79-.83,1.6-1.02,1.84-.06.07-.19.21-.35.39-.39.42-.97,1.05-1.27,1.49-.37.54-.72,1.35-.8,1.52Z"/></g><path class="cls-4" d="m45.28,28.9s.23-.65.41-.98c0,0,.48-1.08,1.48-1.89.4-.34.54-.6.62-.72,0,0-.24.45-.6.79-.36.35-.9.71-1.61,2.27l-.24.64-.07-.1Z"/></g><g><g><path class="cls-3" d="m54.09,28.35c-.32-.11-6.53,2.16-7.2,2.42l.28.77s6.61-2.5,7.04-2.95c.18-.21-.11-.23-.11-.23Z"/><path class="cls-4" d="m47.14,31.6l-.31-.85.04-.02c.57-.22,6.6-2.42,7.19-2.42.02,0,.03,0,.05,0,0,0,.16.02.2.12.02.06,0,.12-.06.19-.43.46-6.79,2.86-7.06,2.96l-.04.02Zm-.19-.8l.25.68c.56-.21,6.58-2.5,6.98-2.92.04-.04.05-.08.04-.1-.01-.03-.09-.05-.13-.06-.01,0-.01,0-.03,0-.54,0-6.19,2.05-7.11,2.4Z"/></g><polygon class="cls-4" points="47.02 31.1 51.29 29.49 47.08 31.21 47.02 31.1"/></g><g><g><path class="cls-3" d="m55,33.09c-.26-.22-6.85-.36-7.57-.36v.82s7.04.07,7.59-.2c.24-.13-.03-.26-.03-.26Z"/><path class="cls-4" d="m49.34,33.6h0c-1.08,0-1.89,0-1.9,0h-.04s0-.91,0-.91h.04c.38,0,7.31.13,7.59.37,0,0,.14.07.14.18,0,.06-.04.11-.12.16-.36.18-3.31.21-5.72.21Zm-1.85-.1c.18,0,.92,0,1.85,0,3.39,0,5.41-.07,5.68-.2.05-.02.07-.05.07-.07,0-.04-.06-.08-.1-.1-.25-.2-6.49-.35-7.5-.35v.73Z"/></g><polygon class="cls-4" points="47.46 33.09 52 33.13 47.47 33.21 47.46 33.09"/></g><g><g><path class="cls-3" d="m53.1,26.28c-.14-.16-.89-.38-1.5.2-.61.58-1.35,1.14-1.62,1.28-.27.14-1.57.68-2.21,1.09-.62.4-1.34,1.12-1.34,1.12l.39.69s.94-.72,1.18-.99c.25-.27,1.74-1.03,2.06-1.17.45-.2.98-.75,1.3-1.14.32-.39.49-.9.94-.91.43,0,.99.05.79-.18Z"/><path class="cls-4" d="m46.81,30.73l-.43-.77.03-.03s.73-.73,1.34-1.12c.45-.29,1.23-.64,1.74-.87.22-.1.39-.18.47-.22.26-.14,1-.69,1.61-1.28.34-.32.7-.39.95-.39.29,0,.53.1.62.19.05.06.07.11.05.15-.04.09-.2.11-.45.11-.06,0-.12,0-.19,0-.06,0-.13,0-.19,0h-.03c-.31,0-.47.26-.67.55-.07.11-.15.23-.24.34-.17.21-.78.92-1.32,1.15-.34.15-1.8.91-2.04,1.16-.25.27-1.15.96-1.19.99l-.04.03Zm-.32-.75l.35.62c.18-.14.92-.72,1.14-.95.26-.28,1.75-1.04,2.07-1.18.52-.23,1.12-.92,1.29-1.13.09-.1.16-.22.24-.33.2-.3.39-.59.74-.59h.03c.06,0,.13,0,.19,0,.06,0,.13,0,.19,0,.32,0,.37-.04.37-.05,0,0,0-.02-.03-.05-.06-.07-.27-.16-.55-.16-.23,0-.57.06-.89.37-.61.59-1.36,1.15-1.63,1.29-.08.04-.26.12-.47.22-.51.23-1.28.58-1.73.87-.54.35-1.17.96-1.3,1.09Z"/></g><path class="cls-4" d="m46.66,30.27s.46-.51.74-.74c0,0,.84-.8,2.07-1.16.49-.16.72-.34.84-.42,0,0-.39.32-.85.49-.46.17-1.1.3-2.33,1.45l-.46.49-.02-.12Z"/></g><g><g><path class="cls-3" d="m54.76,31.04c-.07-.2-.68-.71-1.46-.42-.78.29-1.67.51-1.98.53-.3.02-1.7,0-2.44.11-.72.12-1.65.49-1.65.49l.1.79s1.13-.28,1.46-.43c.33-.15,1.99-.25,2.34-.25.49,0,1.19-.3,1.63-.52.44-.23.79-.63,1.21-.45.4.17.89.45.79.15Z"/><path class="cls-4" d="m47.29,32.61l-.11-.88h.03s.94-.39,1.66-.51c.53-.09,1.37-.1,1.93-.1.24,0,.42,0,.51-.01.29-.02,1.19-.23,1.97-.53.16-.06.33-.09.49-.09.55,0,.96.35,1.02.54.02.06.02.11,0,.15-.02.03-.05.05-.1.05h0c-.12,0-.32-.09-.54-.19-.07-.03-.14-.06-.21-.09-.06-.03-.13-.04-.19-.04-.21,0-.41.14-.63.28-.11.07-.23.15-.35.21-.24.12-1.07.53-1.65.53-.37,0-2,.11-2.32.25-.33.15-1.42.42-1.47.43h-.05Zm-.01-.81l.09.71c.22-.06,1.12-.29,1.41-.42.34-.15,2.01-.26,2.35-.26.57,0,1.38-.4,1.61-.52.12-.06.23-.14.34-.21.23-.15.44-.3.68-.3.08,0,.15.02.23.05.07.03.14.06.21.09.2.09.41.19.5.19.02,0,.03,0,.03,0,0,0,0-.02,0-.06-.04-.13-.4-.47-.94-.47-.15,0-.31.03-.46.09-.79.29-1.69.51-1.99.53-.09,0-.28,0-.52.01-.56,0-1.4.02-1.92.1-.63.1-1.44.41-1.61.48Z"/></g><path class="cls-4" d="m47.32,32.12s.61-.29.96-.38c0,0,1.08-.4,2.34-.23.51.05.79-.02.93-.04,0,0-.48.13-.97.11-.49-.02-1.12-.17-2.69.4l-.61.27.03-.12Z"/></g><g><g><path class="cls-3" d="m54.05,38.2c-.15-.31-6.15-3.14-6.81-3.43l-.31.75s6.44,2.95,7.05,2.93c.27-.02.07-.25.07-.25Z"/><path class="cls-4" d="m53.97,38.49c-.65,0-6.8-2.81-7.06-2.93l-.04-.02.35-.84.04.02c.35.16,6.66,3.11,6.83,3.45,0,0,.1.13.06.22-.02.06-.08.09-.18.09h0Zm-6.98-3c.55.25,6.38,2.91,6.98,2.91v.05-.05c.06,0,.09-.02.1-.04.01-.03-.02-.1-.06-.14-.15-.29-5.82-2.98-6.75-3.4l-.28.67Z"/></g><polygon class="cls-4" points="47.13 35.1 51.28 37 47.09 35.22 47.13 35.1"/></g><g><g><path class="cls-3" d="m54.73,35.96c0-.22-.39-.91-1.22-.93-.83-.02-1.74-.15-2.03-.24-.29-.09-1.58-.64-2.32-.8-.71-.16-1.71-.15-1.71-.15l-.18.78s1.16.16,1.51.14c.36-.01,1.95.5,2.27.63.46.18,1.21.16,1.7.11.49-.05.96-.3,1.29.03.31.31.68.75.69.44Z"/><path class="cls-4" d="m54.67,36.11h0c-.11,0-.26-.15-.49-.39-.05-.06-.11-.11-.16-.16-.1-.1-.23-.15-.4-.15-.14,0-.29.03-.46.07-.13.03-.26.06-.4.07-.15.02-.39.03-.66.03-.31,0-.75-.03-1.07-.15-.33-.13-1.86-.63-2.24-.63h-.01c-.36.01-1.48-.13-1.52-.14h-.05s.21-.87.21-.87h.03c.11,0,1.04,0,1.72.16.52.12,1.31.42,1.84.62.22.09.4.15.48.18.28.09,1.19.22,2.02.24.38,0,.73.16.99.44.18.2.28.42.27.54,0,.13-.07.15-.11.15Zm-1.05-.8c.19,0,.34.06.46.18.05.05.11.11.16.16.16.16.36.37.43.37.02,0,.02-.05.02-.06,0-.08-.06-.27-.25-.47-.17-.18-.46-.4-.92-.41-.84-.02-1.75-.15-2.04-.24-.09-.03-.27-.1-.49-.18-.52-.2-1.31-.5-1.83-.62-.63-.14-1.49-.15-1.67-.15l-.16.69c.22.03,1.14.15,1.46.13h.02c.4,0,1.96.51,2.27.63.24.1.6.15,1.03.15.26,0,.5-.02.65-.03.13-.01.26-.04.39-.07.17-.04.32-.07.47-.07Z"/></g><path class="cls-4" d="m47.41,34.2s.67-.04,1.03,0c0,0,1.14.03,2.27.66.46.24.74.27.89.31,0,0-.49-.05-.94-.26-.45-.21-.99-.57-2.65-.63l-.66.03.07-.1Z"/></g><g><g><path class="cls-3" d="m51.38,42.18c-.04-.34-4.67-5.2-5.18-5.71l-.55.59s5,5.13,5.58,5.33c.26.08.16-.21.16-.21Z"/><path class="cls-4" d="m51.3,42.45s-.06,0-.09-.02c-.58-.21-5.39-5.14-5.59-5.35l-.03-.03.61-.65.03.03c.27.28,5.15,5.36,5.19,5.74,0,0,.05.14,0,.22-.02.02-.05.05-.11.05Zm-5.59-5.4c.43.44,4.99,5.1,5.53,5.29.02,0,.05.01.07.01.03,0,.04-.01.04-.02.02-.03,0-.1,0-.14-.05-.33-4.42-4.93-5.14-5.66l-.49.52Z"/></g><polygon class="cls-4" points="45.97 36.74 49.19 40.04 45.89 36.83 45.97 36.74"/></g><g><g><path class="cls-3" d="m47.25,45.16c.1-.33-2.29-6.69-2.56-7.37l-.73.31s2.62,6.76,3.07,7.18c.21.18.22-.13.22-.13Z"/><path class="cls-4" d="m47.14,45.39h0s-.09-.02-.14-.07c-.46-.43-2.98-6.93-3.09-7.2l-.02-.04.81-.35.02.04c.15.37,2.67,7.04,2.57,7.4,0,.07-.04.22-.15.22Zm-3.13-7.26c.22.58,2.63,6.73,3.05,7.12.04.04.07.05.08.05.04,0,.06-.1.06-.14.08-.32-2.16-6.34-2.54-7.31l-.65.28Z"/></g><polygon class="cls-4" points="44.37 37.94 46.06 42.3 44.27 38 44.37 37.94"/></g><g><g><path class="cls-3" d="m49.24,44.04c.15-.15.34-.93-.24-1.54-.58-.61-1.14-1.36-1.29-1.64-.15-.28-.7-1.6-1.12-2.25-.4-.63-1.12-1.35-1.12-1.35l-.66.42s.72.94.99,1.19c.27.25,1.06,1.77,1.2,2.09.21.46.76.99,1.14,1.31.39.32.89.48.91.95.02.45-.02,1.02.2.81Z"/><path class="cls-4" d="m49.16,44.14h0c-.15,0-.15-.28-.16-.67,0-.08,0-.16,0-.23-.01-.32-.26-.48-.56-.68-.11-.07-.23-.15-.33-.24-.21-.17-.91-.78-1.16-1.33-.16-.35-.93-1.83-1.19-2.07-.27-.25-.97-1.16-1-1.2l-.03-.04.73-.47.03.03s.72.73,1.13,1.35c.3.46.66,1.25.9,1.77.1.22.18.4.23.48.14.27.7,1.02,1.29,1.63.27.28.42.65.41,1.03,0,.28-.09.5-.17.58-.04.04-.08.06-.11.06Zm-4.29-6.43c.14.18.72.93.95,1.15.28.26,1.07,1.78,1.21,2.1.24.53.93,1.13,1.13,1.29.1.09.22.16.33.23.3.2.58.39.6.75,0,.08,0,.16,0,.23,0,.17,0,.58.07.58,0,0,.02,0,.05-.03.05-.05.14-.24.14-.52,0-.25-.06-.62-.38-.96-.59-.62-1.15-1.37-1.3-1.65-.04-.08-.13-.26-.23-.48-.24-.52-.6-1.31-.89-1.76-.36-.55-.96-1.18-1.09-1.31l-.58.38Z"/></g><path class="cls-4" d="m45.18,37.51s.51.46.74.75c0,0,.8.84,1.18,2.11.17.5.35.73.43.86,0,0-.32-.39-.5-.87-.18-.47-.32-1.12-1.47-2.36l-.49-.46.12-.03Z"/></g><g><g><path class="cls-3" d="m52.76,40.58c.09-.2-.01-1-.77-1.35-.76-.35-1.54-.84-1.78-1.04s-1.22-1.22-1.83-1.67c-.6-.43-1.52-.83-1.52-.83l-.46.64s1.01.61,1.34.74c.34.13,1.6,1.25,1.85,1.49.36.35,1.05.64,1.53.79s1,.11,1.18.54c.17.41.34.96.47.68Z"/><path class="cls-4" d="m52.68,40.71c-.11,0-.2-.21-.35-.57-.03-.07-.06-.15-.09-.21-.12-.29-.42-.35-.75-.42-.13-.03-.26-.05-.39-.1-.26-.08-1.12-.38-1.54-.8-.27-.26-1.51-1.36-1.84-1.48-.34-.13-1.31-.72-1.35-.74l-.04-.03.51-.71h.03s.93.42,1.53.85c.44.32,1.05.92,1.46,1.31.17.17.31.3.38.36.23.2,1.01.68,1.77,1.03.35.16.61.45.74.8.09.26.1.5.05.61-.03.07-.07.11-.12.11Zm-6.22-4.39c.2.12,1,.6,1.29.71.35.14,1.62,1.26,1.87,1.5.41.41,1.26.7,1.51.78.13.04.26.07.39.09.35.07.68.14.82.47.03.07.06.14.09.22.08.19.2.51.26.51,0,0,.02,0,.04-.05.03-.07.04-.27-.05-.53-.09-.24-.28-.56-.7-.75-.76-.35-1.56-.85-1.79-1.05-.07-.06-.21-.2-.38-.36-.41-.4-1.02-.99-1.45-1.3-.52-.38-1.31-.74-1.48-.81l-.41.57Z"/></g><path class="cls-4" d="m46.68,36.02s.63.23.95.42c0,0,1.04.48,1.84,1.52.33.41.58.55.7.64,0,0-.43-.25-.77-.62-.34-.37-.7-.93-2.2-1.65l-.62-.24.1-.07Z"/></g><g><g><path class="cls-3" d="m42.7,46.04c.21-.27.3-7.09.3-7.83h-.79s-.02,7.29.24,7.86c.12.25.25-.03.25-.03Z"/><path class="cls-4" d="m42.56,46.22h0c-.06,0-.11-.04-.15-.13-.27-.58-.25-7.58-.25-7.87v-.05s.88,0,.88,0v.05c0,.4-.08,7.56-.31,7.86,0,0-.07.15-.17.15Zm-.31-7.96c0,.62,0,7.25.24,7.79.02.05.05.08.07.08.03,0,.08-.06.1-.11.19-.26.3-6.71.29-7.76h-.7Z"/></g><polygon class="cls-4" points="42.65 38.24 42.64 42.93 42.54 38.25 42.65 38.24"/></g><g><g><path class="cls-3" d="m39.88,45.82c.21,0,.88-.41.89-1.26.01-.86.13-1.8.22-2.1.09-.3.61-1.64.76-2.4.15-.74.14-1.77.14-1.77l-.75-.19s-.14,1.2-.13,1.57c.02.37-.48,2.02-.6,2.35-.17.48-.15,1.25-.1,1.76.05.51.29.99-.02,1.33-.3.33-.72.71-.42.71Z"/><path class="cls-4" d="m39.88,45.87h0c-.08,0-.12-.03-.14-.07-.04-.11.1-.27.37-.55.05-.06.11-.11.16-.17.21-.23.15-.53.07-.88-.03-.13-.06-.27-.07-.41-.03-.28-.1-1.22.1-1.78.13-.36.61-1.97.59-2.33-.02-.37.12-1.53.13-1.57v-.05s.84.21.84.21v.04s0,1.04-.14,1.78c-.11.54-.4,1.36-.59,1.91-.08.23-.15.41-.17.5-.08.29-.21,1.23-.22,2.09-.01.9-.72,1.31-.93,1.31Zm1.29-7.71c-.03.23-.13,1.19-.12,1.51.02.39-.48,2.03-.6,2.37-.2.55-.13,1.47-.1,1.74.01.14.04.27.07.4.07.36.14.7-.1.97-.05.06-.1.11-.16.17-.14.15-.37.39-.35.45,0,0,.01.01.06.01v.05s0-.05,0-.05c.17,0,.83-.38.84-1.22.01-.87.14-1.81.22-2.11.03-.09.09-.27.17-.51.19-.54.48-1.36.59-1.89.13-.65.14-1.54.14-1.72l-.67-.17Z"/></g><path class="cls-4" d="m41.53,38.24s.04.69,0,1.07c0,0-.02,1.18-.62,2.35-.23.48-.26.77-.29.92,0,0,.05-.51.24-.98.2-.47.55-1.03.59-2.74l-.03-.68.1.07Z"/></g><g><g><path class="cls-3" d="m44.64,45.95c.2-.07.68-.71.39-1.51-.29-.8-.51-1.73-.53-2.04-.03-.31-.01-1.76-.14-2.52-.12-.74-.49-1.7-.49-1.7l-.77.11s.29,1.17.43,1.51c.15.34.27,2.06.27,2.41,0,.51.3,1.23.53,1.68.23.46.62.81.45,1.25-.16.41-.42.93-.14.82Z"/><path class="cls-4" d="m44.57,46.01h0s-.07-.02-.09-.04c-.06-.09.02-.3.16-.64.03-.07.06-.14.09-.21.11-.29-.05-.55-.24-.85-.07-.11-.15-.23-.21-.36-.12-.25-.52-1.1-.53-1.7,0-.38-.13-2.07-.27-2.39-.15-.34-.42-1.47-.43-1.51v-.05s.84-.12.84-.12v.03s.39.97.51,1.71c.09.54.11,1.42.12,2,0,.25,0,.44.02.53.03.3.24,1.22.53,2.03.13.37.12.77-.03,1.11-.11.25-.28.42-.38.46-.03.01-.06.02-.08.02Zm-1.42-7.69c.06.23.29,1.16.42,1.45.15.35.27,2.07.27,2.43,0,.59.4,1.42.52,1.66.06.12.13.24.21.35.2.31.38.6.25.94-.03.07-.06.14-.09.22-.08.2-.21.5-.17.55,0,0,0,0,.01,0h0s.02,0,.05-.01c.07-.03.22-.16.33-.41.1-.23.19-.59.03-1.04-.29-.81-.51-1.74-.54-2.05,0-.1-.01-.29-.02-.54-.01-.58-.03-1.45-.12-1.98-.11-.65-.41-1.48-.48-1.66l-.68.1Z"/></g><path class="cls-4" d="m43.51,38.27s.28.63.38.99c0,0,.4,1.11.25,2.42-.05.53.03.81.05.97,0,0-.13-.49-.11-1,.02-.51.15-1.16-.41-2.78l-.27-.62.12.03Z"/></g><g><g><path class="cls-3" d="m37.68,45.13c.29-.16,3.01-6.38,3.29-7.05l-.73-.32s-2.83,6.67-2.81,7.3c.02.28.24.08.24.08Z"/><path class="cls-4" d="m37.54,45.25h0s-.13-.02-.14-.19c-.02-.64,2.69-7.05,2.81-7.32l.02-.04.81.36-.02.04c-.15.37-2.98,6.9-3.31,7.08,0,0-.09.08-.17.08Zm2.73-7.43c-.24.57-2.8,6.65-2.78,7.24,0,.07.02.1.05.1.04,0,.1-.04.12-.06.28-.16,2.86-6.03,3.26-7l-.65-.29Z"/></g><polygon class="cls-4" points="40.65 37.95 38.83 42.25 40.54 37.92 40.65 37.95"/></g><g><g><path class="cls-3" d="m33.89,42.39c.33-.03,5.1-4.74,5.61-5.26l-.56-.58s-5.04,5.08-5.25,5.68c-.08.27.2.16.2.16Z"/><path class="cls-4" d="m33.78,42.46h0c-.07,0-.11-.03-.13-.06-.03-.04-.03-.11,0-.19.21-.6,5.06-5.49,5.26-5.7l.03-.03.62.65-.03.03c-.27.28-5.26,5.23-5.64,5.27,0,0-.05.02-.11.02Zm5.16-5.84c-.43.43-5.01,5.07-5.21,5.63-.02.05-.02.09,0,.1.01.01.04.02.05.02h0s.09-.02.09-.02c.32-.04,4.84-4.48,5.56-5.22l-.49-.52Z"/></g><polygon class="cls-4" points="39.24 36.89 35.99 40.17 39.15 36.81 39.24 36.89"/></g><g><g><path class="cls-3" d="m35.31,43.75c.19.09.96,0,1.31-.77.35-.78.84-1.58,1.03-1.82.2-.24,1.2-1.24,1.65-1.87.43-.61.83-1.56.83-1.56l-.61-.49s-.6,1.03-.74,1.37c-.13.34-1.23,1.64-1.48,1.89-.35.36-.64,1.08-.79,1.56-.16.49-.13,1.03-.54,1.21-.4.17-.94.34-.66.47Z"/><path class="cls-4" d="m35.49,43.83h0c-.08,0-.15-.01-.19-.03-.07-.03-.1-.08-.1-.13,0-.12.2-.2.56-.35.07-.03.14-.06.21-.09.28-.12.35-.42.42-.77.03-.13.06-.27.1-.41.08-.26.39-1.15.8-1.58.26-.27,1.34-1.54,1.47-1.87.13-.34.72-1.34.74-1.38l.03-.04.68.54v.03s-.42.96-.85,1.56c-.31.45-.9,1.07-1.3,1.49-.17.18-.3.31-.35.38-.19.23-.68,1.03-1.03,1.81-.3.66-.88.83-1.18.83Zm4.05-6.52c-.12.2-.59,1.03-.71,1.32-.14.36-1.24,1.65-1.49,1.9-.4.42-.7,1.29-.78,1.55-.04.13-.07.27-.1.4-.08.36-.15.7-.47.84-.07.03-.14.06-.21.09-.19.07-.5.2-.5.26,0,0,0,.02.05.04.03.02.09.03.16.03.28,0,.82-.16,1.1-.78.35-.78.85-1.6,1.04-1.83.06-.07.19-.21.36-.39.39-.41.98-1.04,1.29-1.48.38-.54.74-1.34.81-1.51l-.55-.44Z"/></g><path class="cls-4" d="m39.82,37.54s-.24.65-.42.97c0,0-.49,1.07-1.5,1.88-.4.34-.54.59-.63.72,0,0,.25-.44.61-.79.36-.34.91-.7,1.63-2.25l.24-.64.07.11Z"/></g><g><g><path class="cls-3" d="m31.96,40.2c.14.16.9.36,1.5-.23.6-.59,1.33-1.16,1.6-1.31.27-.15,1.55-.7,2.19-1.13.61-.41,1.32-1.14,1.32-1.14l-.4-.69s-.92.73-1.17,1.01c-.24.27-1.72,1.07-2.04,1.21-.45.21-.97.77-1.28,1.16-.31.4-.48.91-.93.92-.43.01-.99-.03-.78.19Z"/><path class="cls-4" d="m32.52,40.41h0c-.28,0-.51-.09-.6-.18-.05-.06-.07-.11-.05-.15.05-.11.26-.11.64-.11.08,0,.15,0,.22,0,.31,0,.47-.27.66-.56.07-.11.15-.23.24-.34.17-.21.77-.93,1.3-1.18.34-.16,1.79-.94,2.02-1.2.24-.27,1.14-.98,1.17-1.01l.04-.03.44.76-.02.03s-.71.74-1.32,1.15c-.45.3-1.22.66-1.73.9-.22.1-.39.18-.46.23-.26.14-.99.71-1.59,1.31-.34.34-.71.41-.96.41Zm5.63-4.64c-.18.14-.91.74-1.12.97-.25.28-1.73,1.08-2.05,1.22-.52.24-1.1.94-1.27,1.15-.08.11-.16.22-.23.33-.2.31-.38.6-.73.61-.07,0-.15,0-.23,0-.2,0-.53,0-.56.06,0,0,0,.02.03.05.06.06.26.15.53.15h0c.23,0,.58-.07.9-.38.6-.6,1.35-1.17,1.61-1.32.08-.05.25-.13.47-.23.51-.24,1.27-.6,1.72-.9.54-.36,1.15-.98,1.28-1.11l-.36-.61Z"/></g><path class="cls-4" d="m38.34,36.1s-.45.52-.73.75c0,0-.83.82-2.05,1.19-.49.17-.71.35-.84.43,0,0,.39-.32.84-.51.46-.18,1.09-.32,2.3-1.49l.45-.5.02.12Z"/></g><g><g><path class="cls-3" d="m31.14,38.38c.32.09,6.4-2.56,7.05-2.86l-.32-.75s-6.46,2.9-6.86,3.38c-.17.22.13.23.13.23Z"/><path class="cls-4" d="m31.16,38.43h0s-.02,0-.03,0c0,0-.16,0-.2-.1-.02-.06,0-.12.05-.2.4-.48,6.61-3.28,6.87-3.39l.04-.02.36.83-.04.02c-.57.26-6.53,2.87-7.05,2.87Zm6.68-3.6c-.55.25-6.43,2.9-6.8,3.35-.03.04-.05.08-.04.1.01.03.09.05.13.05h.02c.47,0,6.05-2.42,6.97-2.84l-.29-.66Z"/></g><polygon class="cls-4" points="38.03 35.2 33.87 37.07 37.97 35.1 38.03 35.2"/></g><g><g><path class="cls-3" d="m29.93,33.4c.26.21,6.85.26,7.57.25v-.82s-7.05.03-7.6.31c-.24.13.03.26.03.26Z"/><path class="cls-4" d="m37.21,33.69c-.07,0-7.02-.02-7.31-.26,0,0-.14-.07-.15-.18,0-.06.04-.11.12-.16.56-.28,7.32-.31,7.61-.32h.04s.01.91.01.91h-.04c-.06,0-.16,0-.29,0Zm.23-.82c-.6,0-7.01.05-7.53.31-.05.03-.07.05-.07.08,0,.04.06.08.1.1.23.18,5.22.25,7.26.25.1,0,.18,0,.24,0v-.73Z"/></g><polygon class="cls-4" points="37.48 33.29 32.94 33.31 37.46 33.17 37.48 33.29"/></g><g><g><path class="cls-3" d="m30.28,30.16c-.01.22.36.92,1.19.97.83.04,1.73.2,2.02.3.29.1,1.56.69,2.29.87.71.18,1.71.21,1.71.21l.21-.77s-1.15-.19-1.51-.19c-.36,0-1.93-.57-2.25-.7-.46-.2-1.21-.2-1.7-.17-.49.03-.97.27-1.29-.07-.3-.32-.66-.77-.67-.46Z"/><path class="cls-4" d="m37.52,32.56h-.03s-1.01-.03-1.72-.21c-.52-.13-1.3-.46-1.82-.68-.22-.09-.39-.17-.48-.19-.28-.1-1.18-.26-2.01-.3-.38-.02-.73-.19-.97-.47-.18-.21-.26-.43-.26-.55,0-.13.07-.15.11-.15.11,0,.25.16.48.41.05.06.1.11.16.17.11.11.24.16.42.16.13,0,.28-.03.43-.05.13-.02.27-.05.4-.06.15-.01.31-.02.46-.02.37,0,.9.03,1.26.19.34.15,1.88.7,2.23.7h.01c.37,0,1.46.18,1.51.19h.05s-.23.86-.23.86Zm-7.18-2.46s-.02.04-.02.06c0,.08.06.27.23.48.16.19.45.42.91.44.84.04,1.75.21,2.03.31.09.03.26.1.48.2.52.22,1.3.55,1.81.68.62.16,1.48.2,1.66.21l.19-.69c-.22-.04-1.13-.18-1.44-.18v-.05s-.01.05-.01.05c-.38,0-1.95-.57-2.26-.71-.35-.15-.85-.18-1.22-.18-.15,0-.31,0-.46.02-.13,0-.26.03-.39.06-.16.03-.3.05-.44.05-.21,0-.36-.06-.49-.19-.05-.05-.1-.11-.16-.17-.15-.17-.35-.38-.42-.38Z"/></g><path class="cls-4" d="m37.54,32.14s-.67.02-1.03-.04c0,0-1.14-.06-2.25-.73-.45-.25-.73-.3-.88-.33,0,0,.49.07.93.29.44.22.97.6,2.63.71h.66s-.07.1-.07.1Z"/></g><g><g><path class="cls-3" d="m30.89,28.29c.16.3,6.18,3.08,6.84,3.36l.31-.75s-6.46-2.89-7.07-2.86c-.27.02-.07.25-.07.25Z"/><path class="cls-4" d="m37.76,31.71l-.04-.02c-.35-.15-6.69-3.05-6.86-3.39,0,0-.11-.12-.07-.22.02-.06.08-.09.17-.1h.01c.66,0,6.82,2.75,7.08,2.87l.04.02-.34.84Zm-6.78-3.63c-.06,0-.1.02-.1.04-.01.03.03.1.06.14.16.29,5.85,2.92,6.78,3.33l.27-.67c-.55-.24-6.39-2.84-7.01-2.84Z"/></g><polygon class="cls-4" points="37.85 31.31 33.68 29.45 37.88 31.2 37.85 31.31"/></g><g><g><path class="cls-3" d="m30.17,35.39c.07.2.68.71,1.46.41.78-.29,1.67-.51,1.98-.53.3-.02,1.7,0,2.44-.12.72-.12,1.65-.49,1.65-.49l-.1-.79s-1.13.29-1.46.43c-.33.15-1.99.26-2.33.26-.49,0-1.19.3-1.63.53-.44.23-.79.64-1.21.46-.4-.17-.89-.45-.79-.15Z"/><path class="cls-4" d="m31.15,35.93c-.55,0-.96-.35-1.02-.53-.02-.06-.02-.11,0-.15.02-.03.06-.05.1-.05.12,0,.32.09.54.19.07.03.14.06.21.09.06.03.13.04.19.04.21,0,.41-.14.63-.28.11-.07.23-.15.35-.21.24-.12,1.06-.53,1.65-.53.37,0,2-.11,2.32-.25.33-.15,1.42-.42,1.47-.44h.05s.11.87.11.87h-.03s-.94.39-1.66.51c-.53.09-1.37.1-1.93.11-.24,0-.42,0-.51.01-.29.02-1.18.24-1.96.53-.16.06-.33.09-.49.09Zm-.92-.63s-.03,0-.03,0c0,0,0,.02,0,.06.04.13.4.47.94.47.15,0,.31-.03.46-.09.79-.3,1.69-.51,1.99-.54.09,0,.28,0,.52-.01.56,0,1.4-.02,1.92-.1.63-.1,1.44-.41,1.61-.48l-.09-.71c-.22.06-1.12.29-1.41.42-.34.15-2.01.26-2.35.26-.57,0-1.37.4-1.61.52-.12.06-.23.14-.34.21-.23.15-.45.3-.68.3-.08,0-.15-.02-.23-.05-.07-.03-.14-.06-.21-.09-.2-.09-.41-.18-.5-.18Z"/></g><path class="cls-4" d="m37.6,34.29s-.61.29-.96.38c0,0-1.08.4-2.34.23-.51-.05-.79.02-.93.05,0,0,.48-.13.97-.11.49.02,1.12.16,2.69-.4l.61-.27-.03.12Z"/></g><g><g><path class="cls-3" d="m40.53,20.42c-.2.07-.68.7-.4,1.51.28.81.49,1.73.52,2.04.02.31,0,1.76.12,2.53.12.74.48,1.71.48,1.71l.77-.1s-.28-1.17-.42-1.51c-.14-.34-.25-2.06-.25-2.41,0-.51-.29-1.23-.51-1.68-.22-.46-.62-.82-.44-1.25.16-.41.43-.92.14-.82Z"/><path class="cls-4" d="m41.22,28.25v-.03s-.38-.97-.49-1.72c-.09-.54-.1-1.42-.1-2,0-.24,0-.44-.01-.53-.02-.31-.23-1.23-.52-2.03-.13-.37-.12-.77.04-1.11.11-.25.28-.42.39-.46.1-.03.15,0,.17.03.06.09-.02.3-.17.64-.03.07-.06.14-.09.21-.12.29.05.55.23.85.07.11.15.23.21.36.12.25.51,1.1.52,1.71,0,.38.11,2.07.25,2.4.14.34.41,1.47.42,1.52v.05s-.84.11-.84.11Zm-.62-7.8s-.02,0-.05.01c-.07.03-.22.16-.33.41-.1.23-.19.59-.04,1.04.29.81.5,1.75.52,2.06,0,.1,0,.29.01.54,0,.58.02,1.45.1,1.98.1.65.4,1.49.46,1.66l.68-.09c-.05-.23-.28-1.16-.41-1.45-.15-.35-.25-2.08-.26-2.43,0-.58-.39-1.42-.51-1.66-.06-.12-.13-.24-.2-.35-.19-.31-.38-.6-.24-.94.03-.07.06-.14.09-.22.08-.2.21-.49.17-.55,0,0,0,0-.01,0Z"/></g><path class="cls-4" d="m41.6,28.11s-.28-.63-.37-1c0,0-.39-1.11-.23-2.42.05-.53-.02-.81-.05-.97,0,0,.13.5.11,1-.02.51-.16,1.16.39,2.78l.26.63-.12-.03Z"/></g><g><g><path class="cls-3" d="m33.72,23.98c.03.34,4.52,5.33,5.02,5.86l.57-.57s-4.86-5.27-5.43-5.5c-.26-.09-.16.2-.16.2Z"/><path class="cls-4" d="m38.74,29.91l-.03-.03c-.27-.29-5-5.51-5.03-5.89,0,0-.04-.14.01-.22.02-.04.09-.07.21-.03.58.23,5.25,5.29,5.45,5.51l.03.03-.63.63Zm-4.94-6.1s-.03.01-.04.01c-.02.03,0,.11,0,.14.04.33,4.28,5.06,4.98,5.81l.5-.51c-.41-.45-4.85-5.24-5.38-5.45-.03,0-.05-.01-.07-.01Z"/></g><polygon class="cls-4" points="38.97 29.58 35.84 26.18 39.05 29.49 38.97 29.58"/></g><g><g><path class="cls-3" d="m35.9,22.19c-.16.14-.37.92.19,1.55.56.63,1.1,1.4,1.23,1.68.14.28.65,1.62,1.04,2.29.38.64,1.07,1.39,1.07,1.39l.67-.4s-.69-.97-.95-1.23c-.26-.26-.99-1.8-1.13-2.13-.19-.47-.72-1.02-1.1-1.35-.38-.33-.87-.51-.87-.98,0-.45.06-1.02-.17-.81Z"/><path class="cls-4" d="m39.44,29.16l-.02-.03s-.7-.75-1.08-1.39c-.28-.47-.61-1.27-.84-1.81-.09-.22-.17-.4-.21-.48-.13-.27-.67-1.04-1.23-1.67-.26-.29-.39-.66-.37-1.04.01-.28.1-.5.19-.58.07-.07.14-.07.18-.03.07.08.07.29.07.64,0,.08,0,.16,0,.23,0,.32.25.49.53.7.11.08.22.16.33.25.2.18.88.81,1.11,1.37.14.35.87,1.87,1.12,2.12.26.26.92,1.2.95,1.24l.03.04-.75.44Zm-3.45-6.96s-.02,0-.05.03c-.05.05-.14.23-.16.51-.01.25.04.62.35.97.57.64,1.1,1.42,1.24,1.69.04.09.12.26.21.49.22.53.55,1.33.83,1.79.34.56.92,1.21,1.04,1.35l.6-.35c-.14-.19-.69-.96-.91-1.18-.27-.27-1-1.82-1.14-2.15-.22-.54-.89-1.16-1.08-1.34-.1-.09-.21-.17-.32-.24-.29-.21-.57-.41-.57-.77,0-.08,0-.16,0-.24,0-.23.01-.52-.04-.57,0,0,0,0,0,0Z"/></g><path class="cls-4" d="m39.73,28.88s-.49-.47-.71-.77c0,0-.77-.87-1.11-2.15-.15-.51-.32-.74-.4-.88,0,0,.3.41.47.88.17.48.28,1.14,1.39,2.42l.48.47-.12.02Z"/></g><g><g><path class="cls-3" d="m32.38,25.64c-.09.19-.02,1,.73,1.37.75.37,1.52.89,1.75,1.09.23.21,1.18,1.26,1.78,1.73.58.45,1.49.88,1.49.88l.48-.63s-.99-.64-1.32-.78c-.33-.14-1.57-1.3-1.81-1.55-.35-.36-1.03-.67-1.5-.84-.47-.17-.99-.15-1.16-.58-.16-.42-.31-.97-.45-.69Z"/><path class="cls-4" d="m38.15,30.77h-.03s-.92-.45-1.5-.9c-.43-.33-1.02-.95-1.42-1.36-.17-.17-.3-.31-.37-.37-.22-.2-.99-.71-1.74-1.09-.34-.17-.6-.47-.72-.83-.09-.26-.08-.5-.03-.61.01-.03.05-.1.12-.1.12,0,.2.21.33.58.03.07.05.15.08.22.11.29.4.36.74.44.13.03.26.06.39.11.25.09,1.11.42,1.52.85.26.27,1.47,1.41,1.79,1.54.33.14,1.29.76,1.33.79l.04.03-.54.7Zm-5.69-5.16s-.02,0-.04.05c-.03.07-.05.27.04.54.08.24.26.57.67.77.75.38,1.53.9,1.76,1.1.07.06.2.2.37.38.39.41.99,1.03,1.41,1.35.51.4,1.29.78,1.45.86l.43-.56c-.19-.12-.98-.63-1.27-.75-.34-.15-1.58-1.31-1.82-1.56-.4-.42-1.24-.74-1.48-.83-.13-.04-.26-.08-.38-.11-.35-.08-.68-.16-.81-.5-.03-.07-.05-.15-.08-.22-.07-.19-.19-.52-.25-.52Z"/></g><path class="cls-4" d="m38.32,30.39s-.63-.25-.94-.45c0,0-1.03-.52-1.8-1.58-.32-.42-.56-.57-.68-.66,0,0,.43.26.75.64.33.38.67.95,2.15,1.72l.61.26-.1.07Z"/></g><g><path class="cls-3" d="m47.46,33.16c0,2.84-2.23,5.14-4.97,5.14s-4.97-2.3-4.97-5.14,2.23-5.14,4.97-5.14,4.97,2.3,4.97,5.14Z"/><path class="cls-4" d="m42.48,38.36c-2.77,0-5.02-2.33-5.02-5.19s2.25-5.19,5.02-5.19,5.02,2.33,5.02,5.19-2.25,5.19-5.02,5.19Zm0-10.29c-2.72,0-4.93,2.29-4.93,5.1s2.21,5.1,4.93,5.1,4.93-2.29,4.93-5.1-2.21-5.1-4.93-5.1Z"/></g><path class="cls-4" d="m44.13,31.12c-.65,0-1.15.56-1.29,1.12-.15.56.16,1.22.24,1.33.08.12.44.44.56.54.12.11-.1.32-.2.38-.1.05-.39.02-.45,0-.06-.03-.36.07-.38.07-.02,0-.32-.1-.38-.07-.06.03-.36.06-.45,0-.1-.05-.32-.27-.2-.38.12-.11.48-.43.56-.54.08-.12.38-.77.24-1.33-.15-.56-.64-1.12-1.29-1.12s-1.24.52-1.41.84c0,0,.61-.69,1.42-.61.82.08,1.2.55,1.25.94.06.39-.04,1.12-.32,1.35-.28.24-.65.49-.51.67.13.18.32.26.46.26s.19-.06.28-.02c.09.04.2.1.35.1h0s0,0,0,0,0,0,0,0h0c.15,0,.26-.06.35-.1.1-.04.15.02.28.02s.32-.08.46-.26c.13-.18-.23-.43-.51-.67-.28-.24-.38-.96-.32-1.35.06-.39.44-.86,1.25-.94.82-.08,1.42.61,1.42.61-.17-.32-.76-.84-1.41-.84Z"/><path class="cls-4" d="m39.71,32.37s.55-.66,1.21-.66,1.05.44,1.12.64c0,0-.5-.54-1.15-.54s-1.18.57-1.18.57Z"/><path class="cls-4" d="m40.07,32.28s0,.85.94.85.95-.66.95-.66c0,0-.19.57-.99.57s-.89-.67-.91-.75Z"/><path class="cls-4" d="m41.17,32.48c0,.16-.12.28-.27.28s-.27-.13-.27-.28.12-.28.27-.28.27.13.27.28Z"/><path class="cls-4" d="m39.98,32.31s1.19-.73,2,.06c0,0-.96-.62-2-.06Z"/><path class="cls-4" d="m45.49,32.37s-.55-.66-1.21-.66-1.05.44-1.12.64c0,0,.5-.54,1.15-.54s1.18.57,1.18.57Z"/><path class="cls-4" d="m45.13,32.28s0,.85-.94.85-.95-.66-.95-.66c0,0,.19.57.99.57s.88-.67.91-.75Z"/><path class="cls-4" d="m44.03,32.48c0,.16.12.28.27.28s.27-.13.27-.28-.12-.28-.27-.28-.27.13-.27.28Z"/><path class="cls-4" d="m45.22,32.31s-1.19-.73-2,.06c0,0,.97-.62,2-.06Z"/><path class="cls-4" d="m43,35.39c-.12-.04-.43.03-.43.03,0,0-.31-.07-.43-.03-.12.04-.64.09-.64.09.07.06.56,0,.64-.03.08-.03.43.1.43.1,0,0,.35-.13.43-.1.08.03.56.09.64.03,0,0-.52-.05-.64-.09Z"/><path class="cls-4" d="m43.23,34.99c-.07-.09-.36-.24-.48-.1-.12.14-.13.15-.2.15s-.08,0-.2-.15c-.12-.14-.41.02-.48.1-.07.08-.53.44-.53.44.16,0,.69-.46.81-.51.13-.05.39.27.4.28h0s0,0,0,0h0s0,0,0,0c0,0,.27-.33.39-.28.13.05.65.51.81.51,0,0-.46-.36-.53-.44Z"/><path class="cls-4" d="m43.44,35.57c-.07,0-.26.17-.36.25-.08.07-.27.18-.33.22-.03,0-.07-.01-.11-.01h-.18s-.08,0-.12.02c-.06-.03-.25-.15-.33-.22-.1-.08-.29-.25-.36-.25s-.28-.03-.31-.07c0,0,.1.12.24.12s.23.13.28.2c.05.06.28.22.46.24-.35.11-.46.61-.46.61.28-.63.65-.53.69-.52h0s0,0,0,0c0,0,0,0,0,0h0s.41-.12.69.52c0,0-.11-.5-.46-.61.17-.02.4-.17.44-.24.05-.07.14-.2.28-.2s.24-.12.24-.12c-.03.04-.25.07-.31.07Z"/></g></svg>