<?xml version="1.0" encoding="UTF-8"?><svg id="Layer_1" xmlns="http://www.w3.org/2000/svg" viewBox="0 0 84 51.33"><defs><style>.cls-1{fill:#fff;}.cls-2{fill:#db242a;}.cls-3{fill-rule:evenodd;}</style></defs><path class="cls-2" d="m0,.02h84v51.31H0V.02Z"/><path class="cls-1" d="m17.1,9.74c-4.45,1.75-7.97,5.27-9.72,9.72H0v12.44h7.39c1.75,4.45,5.27,7.97,9.72,9.72v9.72h12.44v-9.72c4.45-1.75,7.97-5.27,9.72-9.72h44.74v-12.44h-44.74c-1.75-4.45-5.27-7.97-9.72-9.72V.02h-12.44v9.72Z"/><path class="cls-3" d="m37.91,28.01h46.09v-4.66h-46.09c.25,1.55.25,3.12,0,4.66Zm-16.92,12.26v11.07h4.66v-11.07c-1.55.25-3.12.25-4.66,0Zm-12.26-16.92H0v4.66h8.74c-.25-1.55-.25-3.12,0-4.66Zm12.26-12.26V.02h4.66v11.07c-1.55-.25-3.12-.25-4.66,0Zm-11.96,10.86H0v-.93h8.49c1.53-4.84,5.33-8.64,10.17-10.17V.02h.78v11.4c-5.1,1.4-9.07,5.41-10.41,10.52Zm28.59,0h46.38v-.93h-45.84c-1.53-4.84-5.33-8.64-10.17-10.17V.02h-.78v11.4c5.1,1.4,9.07,5.41,10.41,10.52Zm-10.41,17.99v11.4h.78v-10.82c4.84-1.53,8.64-5.33,10.17-10.17h45.84v-.93h-46.38c-1.34,5.11-5.31,9.13-10.41,10.52Zm-18.18-10.52H0v.93h8.49c1.53,4.84,5.33,8.64,10.17,10.17v10.82h.78v-11.4c-5.1-1.4-9.07-5.41-10.41-10.52Zm.3-3.73c0-7.72,6.27-13.99,13.99-13.99s13.99,6.27,13.99,13.99-6.27,13.99-13.99,13.99-13.99-6.27-13.99-13.99Zm.78,0c0-7.3,5.92-13.22,13.22-13.22s13.22,5.92,13.22,13.22-5.92,13.22-13.22,13.22-13.22-5.92-13.22-13.22Z"/><path d="m19.57,15.57c2.51.04,5.02.07,7.53.06-1.39,2.68-2.18,5.67-2.41,8.69,3.02-.23,6.01-1.01,8.74-2.37-.04,2.51-.01,5.02-.05,7.53-2.69-1.38-5.67-2.24-8.68-2.39.22,3.02.99,6.02,2.4,8.69-2.52,0-5.04,0-7.57-.01,1.36-2.69,2.22-5.65,2.4-8.68-3.02.13-5.99,1-8.72,2.32-.01-2.52.04-5.04.02-7.55,2.71,1.38,5.69,2.22,8.71,2.41-.19-3.02-.97-6.03-2.37-8.7Z"/></svg>