<?xml version="1.0" encoding="UTF-8"?><svg id="Layer_1" xmlns="http://www.w3.org/2000/svg" viewBox="0 0 84 51.33"><defs><style>.cls-1,.cls-2{fill:#fff;}.cls-3{fill:#3c3b6e;}.cls-2,.cls-4{fill-rule:evenodd;}.cls-4{fill:#b22234;}</style></defs><path class="cls-1" d="m-.11,0h84.11v51.33H-.11V0Z"/><path class="cls-4" d="m-.11,31.59v3.95h84.11v-3.95H-.11Zm0,7.9v3.95h84.11v-3.95H-.11Zm0,7.9v3.95h84.11v-3.95H-.11ZM-.11,27.64h84.11v-3.95h-45.23v3.95H-.11Zm38.89-7.9h45.23v-3.95h-45.23v3.95Zm0-7.9h45.23v-3.95h-45.23v3.95Zm0-11.85h45.23v3.95h-45.23V0Z"/><path class="cls-3" d="m-.11,0h38.89v27.64H-.11V0Z"/><path class="cls-2" d="m4.36,2.12l-.98.74.37,1.2-.98-.74-.98.74.37-1.2-.98-.74h1.21l.37-1.2.37,1.2h1.21m4.73,0l-.98.74.37,1.2-.98-.74-.97.74.37-1.2-.98-.74h1.21l.37-1.2.37,1.2h1.21m4.73,0l-.98.74.37,1.2-.98-.74-.98.74.37-1.2-.98-.74h1.21l.37-1.2.37,1.2h1.21m4.73,0l-.98.74.37,1.2-.97-.74-.98.74.37-1.2-.98-.74h1.21l.37-1.2.37,1.2h1.21m4.73,0l-.98.74.37,1.2-.97-.74-.98.74.37-1.2-.98-.74h1.21l.37-1.2.37,1.2h1.21m4.73,0l-.98.74.37,1.2-.98-.74-.98.74.37-1.2-.98-.74h1.21l.37-1.2.37,1.2h1.21m4.73,0l-.98.74.37,1.2-.98-.74-.98.74.37-1.2-.98-.74h1.21l.37-1.2.37,1.2h1.21m4.73,0l-.98.74.37,1.2-.98-.74-.98.74.37-1.2-.98-.74h1.21l.37-1.2.37,1.2h1.21M4.37,6.66l-.98.74.37,1.2-.98-.74-.98.74.37-1.2-.98-.74h1.21l.37-1.2.37,1.2h1.21m4.73,0l-.98.74.37,1.2-.98-.74-.97.74.37-1.2-.98-.74h1.21l.37-1.2.37,1.2h1.21m4.73,0l-.98.74.37,1.2-.98-.74-.98.74.37-1.2-.98-.74h1.21l.37-1.2.37,1.2h1.21m4.73,0l-.98.74.37,1.2-.97-.74-.98.74.37-1.2-.98-.74h1.21l.37-1.2.37,1.2h1.21m4.73,0l-.98.74.37,1.2-.97-.74-.98.74.37-1.2-.98-.74h1.21l.37-1.2.37,1.2h1.21m4.73,0l-.98.74.37,1.2-.98-.74-.98.74.37-1.2-.98-.74h1.21l.37-1.2.37,1.2h1.21m4.73,0l-.98.74.37,1.2-.98-.74-.98.74.37-1.2-.98-.74h1.21l.37-1.2.37,1.2h1.21m4.73,0l-.98.74.37,1.2-.98-.74-.98.74.37-1.2-.98-.74h1.21l.37-1.2.37,1.2h1.21M4.37,11.18l-.98.74.37,1.2-.98-.74-.98.74.37-1.2-.98-.74h1.21l.37-1.2.37,1.2h1.21m4.73,0l-.98.74.37,1.2-.98-.74-.97.74.37-1.2-.98-.74h1.21l.37-1.2.37,1.2h1.21m4.73,0l-.98.74.37,1.2-.98-.74-.98.74.37-1.2-.98-.74h1.21l.37-1.2.37,1.2h1.21m4.73,0l-.98.74.37,1.2-.97-.74-.98.74.37-1.2-.98-.74h1.21l.37-1.2.37,1.2h1.21m4.73,0l-.98.74.37,1.2-.97-.74-.98.74.37-1.2-.98-.74h1.21l.37-1.2.37,1.2h1.21m4.73,0l-.98.74.37,1.2-.98-.74-.98.74.37-1.2-.98-.74h1.21l.37-1.2.37,1.2h1.21m4.73,0l-.98.74.37,1.2-.98-.74-.98.74.37-1.2-.98-.74h1.21l.37-1.2.37,1.2h1.21m4.73,0l-.98.74.37,1.2-.98-.74-.98.74.37-1.2-.98-.74h1.21l.37-1.2.37,1.2h1.21M4.37,15.71l-.98.74.37,1.2-.98-.74-.98.74.37-1.2-.98-.74h1.21l.37-1.2.37,1.2h1.21m4.73,0l-.98.74.37,1.2-.98-.74-.97.74.37-1.2-.98-.74h1.21l.37-1.2.37,1.2h1.21m4.73,0l-.98.74.37,1.2-.98-.74-.98.74.37-1.2-.98-.74h1.21l.37-1.2.37,1.2h1.21m4.73,0l-.98.74.37,1.2-.97-.74-.98.74.37-1.2-.98-.74h1.21l.37-1.2.37,1.2h1.21m4.73,0l-.98.74.37,1.2-.97-.74-.98.74.37-1.2-.98-.74h1.21l.37-1.2.37,1.2h1.21m4.73,0l-.98.74.37,1.2-.98-.74-.98.74.37-1.2-.98-.74h1.21l.37-1.2.37,1.2h1.21m4.73,0l-.98.74.37,1.2-.98-.74-.98.74.37-1.2-.98-.74h1.21l.37-1.2.37,1.2h1.21m4.73,0l-.98.74.37,1.2-.98-.74-.98.74.37-1.2-.98-.74h1.21l.37-1.2.37,1.2h1.21M4.37,20.24l-.98.74.37,1.2-.98-.74-.98.74.37-1.2-.98-.74h1.21l.37-1.2.37,1.2h1.21m4.73,0l-.98.74.37,1.2-.98-.74-.97.74.37-1.2-.98-.74h1.21l.37-1.2.37,1.2h1.21m4.73,0l-.98.74.37,1.2-.98-.74-.98.74.37-1.2-.98-.74h1.21l.37-1.2.37,1.2h1.21m4.73,0l-.98.74.37,1.2-.97-.74-.98.74.37-1.2-.98-.74h1.21l.37-1.2.37,1.2h1.21m4.73,0l-.98.74.37,1.2-.97-.74-.98.74.37-1.2-.98-.74h1.21l.37-1.2.37,1.2h1.21m4.73,0l-.98.74.37,1.2-.98-.74-.98.74.37-1.2-.98-.74h1.21l.37-1.2.37,1.2h1.21m4.73,0l-.98.74.37,1.2-.98-.74-.98.74.37-1.2-.98-.74h1.21l.37-1.2.37,1.2h1.21m4.73,0l-.98.74.37,1.2-.98-.74-.98.74.37-1.2-.98-.74h1.21l.37-1.2.37,1.2h1.21M4.37,24.77l-.98.74.37,1.2-.98-.74-.98.74.37-1.2-.98-.74h1.21l.37-1.2.37,1.2h1.21m4.73,0l-.98.74.37,1.2-.98-.74-.97.74.37-1.2-.98-.74h1.21l.37-1.2.37,1.2h1.21m4.73,0l-.98.74.37,1.2-.98-.74-.98.74.37-1.2-.98-.74h1.21l.37-1.2.37,1.2h1.21m4.73,0l-.98.74.37,1.2-.97-.74-.98.74.37-1.2-.98-.74h1.21l.37-1.2.37,1.2h1.21m4.73,0l-.98.74.37,1.2-.97-.74-.98.74.37-1.2-.98-.74h1.21l.37-1.2.37,1.2h1.21m4.73,0l-.98.74.37,1.2-.98-.74-.98.74.37-1.2-.98-.74h1.21l.37-1.2.37,1.2h1.21m4.73,0l-.98.74.37,1.2-.98-.74-.98.74.37-1.2-.98-.74h1.21l.37-1.2.37,1.2h1.21m4.73,0l-.98.74.37,1.2-.98-.74-.98.74.37-1.2-.98-.74h1.21l.37-1.2.37,1.2h1.21"/></svg>