<svg xmlns="http://www.w3.org/2000/svg" width="84" height="66"><path fill="#FFF" d="M0 0h84v66H0z"/><path fill="#0C58B5" fill-rule="evenodd" d="m50.01 32.998 4-7h-8.008l-4-6.99-4 6.995H29.99l4.001 7-4.001 6.995h8.012l4 6.994 4-6.994h8.007l-3.999-7Zm.486-4.946-1.658 2.9-1.658-2.9h3.317-.001Zm-2.832 4.946-2.832 4.946h-5.661l-2.831-4.946 2.831-4.946h5.662l2.831 4.946Zm-5.662-9.892 1.658 2.9h-3.316l1.658-2.9Zm-8.493 4.946h3.317l-1.658 2.9-1.659-2.9Zm0 9.892 1.658-2.9 1.658 2.9h-3.316Zm8.493 4.946-1.658-2.892h3.317l-1.659 2.892Zm6.835-7.843 1.658 2.9h-3.316l1.658-2.9ZM0 51h84v11H0V51ZM0 4h84v11H0V4Z"/></svg>