<?xml version="1.0" encoding="UTF-8"?><svg id="Layer_1" xmlns="http://www.w3.org/2000/svg" viewBox="0 0 84 51.33"><defs><style>.cls-1{fill:#fff;}.cls-2{fill:#003e15;}</style></defs><rect class="cls-2" x="20.55" y=".02" width="63.45" height="51.31"/><rect class="cls-1" x="0" y="-.02" width="20.91" height="51.36"/><path class="cls-1" d="m55.83,34.78c-6.56,0-11.88-5.36-11.88-11.98,0-3.79,1.74-7.17,4.47-9.36-5.04,1.79-8.66,6.64-8.66,12.34,0,7.22,5.81,13.08,12.97,13.08,5.42,0,10.06-3.35,12-8.11-2.18,2.48-5.35,4.04-8.89,4.04Z"/><polygon class="cls-1" points="62.89 22.13 59.72 21.41 58.13 24.26 57.82 21 54.64 20.34 57.61 19.04 57.24 15.78 59.39 18.24 62.33 16.89 60.69 19.71 62.89 22.13"/></svg>