<?xml version="1.0" encoding="UTF-8"?><svg id="Layer_1" xmlns="http://www.w3.org/2000/svg" viewBox="0 0 84 51.33"><defs><style>.cls-1{fill:#fff;}.cls-2{fill:#004da5;}.cls-3{fill:#ff1620;}</style></defs><rect class="cls-1" y=".07" width="84" height="17.26"/><rect class="cls-3" y="34.19" width="84" height="17.14"/><rect class="cls-2" y="17.33" width="84" height="16.86"/><path class="cls-3" d="m36.88,12.57h-20.2s-1.33,12.92.25,16.48c1.59,3.57,4.16,7.4,9.87,9.87h0c5.72-2.47,8.23-6.3,9.82-9.87,1.59-3.57.25-16.48.25-16.48Z"/><path class="cls-1" d="m25.32,13.97h2.85s-.53,2.05-.53,3.89v10.59h-1.7v-10.62s-.3-3.19-.61-3.86Z"/><path class="cls-1" d="m21.68,17.15v3.26s1.01-.67,2.53-.67h2.33v-1.84h-2.33s-1.99-.29-2.53-.75Z"/><path class="cls-1" d="m31.86,17.15v3.26s-1.01-.67-2.53-.67h-2.33v-1.84h2.33s1.99-.29,2.53-.75Z"/><path class="cls-1" d="m20.58,21.77v3.26s1.01-.67,2.53-.67h2.84v-1.84h-2.84s-1.99-.29-2.53-.75Z"/><path class="cls-1" d="m32.91,21.77v3.26s-1.01-.67-2.53-.67h-2.82v-1.84h2.82s1.99-.29,2.53-.75Z"/><path class="cls-2" d="m26.81,38.92h0c4.23-1.82,6.7-4.39,8.35-7.05-.81-1.36-1.81-2.17-2.89-2.17-.8,0-1.56.44-2.22,1.22-.86-1.76-1.99-2.83-3.24-2.83s-2.37,1.05-3.22,2.78c-.66-.75-1.4-1.18-2.19-1.18-1.1,0-2.12.84-2.93,2.24,1.66,2.63,4.16,5.17,8.34,6.98Z"/><path class="cls-1" d="m26.91,39.41h-.19l-.09-.04c-2.7-1.16-4.87-2.68-6.65-4.64-1.39-1.53-2.49-3.27-3.47-5.48-1.62-3.65-.35-16.2-.29-16.74l.05-.44h21.05l.04.44c.06.53,1.33,13.09-.29,16.74-1.48,3.32-3.96,7.48-10.06,10.11l-.09.04Zm-9.79-26.35c-.21,2.27-1.1,12.75.26,15.8,1.39,3.12,3.71,7.01,9.44,9.54,5.67-2.51,7.99-6.41,9.38-9.54,1.36-3.05.47-13.53.26-15.8h-19.33Z"/></svg>