<?xml version="1.0" encoding="UTF-8"?><svg id="Layer_1" xmlns="http://www.w3.org/2000/svg" viewBox="0 0 84 51.33"><defs><style>.cls-1{fill:#fff;}.cls-2{fill:#53aedf;}.cls-3{fill:#ffb30e;}.cls-4{fill:#983107;}</style></defs><rect class="cls-2" width="84" height="51.33"/><rect class="cls-1" y="13.37" width="84" height="24.8"/><g><g><g><path class="cls-3" d="m42.37,15.72c-.16.21-.26,5.51-.26,6.08h.61s.05-5.66-.16-6.11c-.09-.19-.19.02-.19.02Z"/><path class="cls-4" d="m42.75,21.85h-.68v-.04c0-.31.09-5.88.27-6.11,0,0,.05-.12.13-.12.05,0,.09.03.12.1.2.45.16,5.9.16,6.13v.04h0Zm-.61-.08h.54c0-.48.04-5.64-.16-6.06-.02-.04-.04-.06-.05-.06-.02,0-.06.05-.08.09-.15.2-.26,5.22-.26,6.04h0Z"/></g><polygon class="cls-4" points="42.37 21.79 42.4 18.15 42.47 21.79 42.37 21.79"/></g><g><g><path class="cls-3" d="m38.57,16.57c-.07.26,1.91,5.16,2.13,5.68l.56-.26s-2.16-5.2-2.52-5.52c-.16-.14-.17.1-.17.1Z"/><path class="cls-4" d="m40.69,22.3l-.02-.03c-.12-.28-2.21-5.42-2.13-5.7,0-.05.03-.17.12-.17.03,0,.07.02.11.05.37.33,2.44,5.33,2.54,5.54l.02.03-.63.29h0Zm-2.03-5.84s-.05.08-.05.11c-.06.25,1.8,4.88,2.12,5.63l.5-.23c-.19-.44-2.17-5.18-2.5-5.48-.03-.03-.05-.03-.06-.03h0Z"/></g><polygon class="cls-4" points="40.94 22.13 39.55 18.78 41.02 22.08 40.94 22.13"/></g><g><g><path class="cls-3" d="m46.22,16.57c-.23.12-2.4,4.93-2.62,5.46l.56.26s2.26-5.16,2.24-5.65c-.02-.22-.19-.06-.19-.06h0Z"/><path class="cls-4" d="m44.18,22.33l-.63-.29.02-.03c.12-.28,2.38-5.34,2.64-5.48,0,0,.06-.05.13-.05.04,0,.1.02.11.15,0,.5-2.15,5.46-2.25,5.67,0,0-.02.03-.02.03Zm-.54-.33l.5.23c.19-.44,2.23-5.15,2.22-5.61,0-.05-.02-.08-.04-.08-.03,0-.08.03-.09.05-.22.12-2.27,4.67-2.6,5.41h0Z"/></g><polygon class="cls-4" points="43.85 22.13 45.31 18.8 43.94 22.16 43.85 22.13"/></g><g><g><path class="cls-3" d="m49.24,18.65c-.26.02-3.96,3.69-4.36,4.1l.44.45s3.91-3.96,4.08-4.43c.06-.21-.16-.12-.16-.12Z"/><path class="cls-4" d="m45.32,23.26l-.48-.51.02-.02c.21-.22,4.08-4.08,4.38-4.11,0,0,.04-.02.09-.02.05,0,.09.02.1.05.02.03.02.09,0,.15-.16.47-3.92,4.28-4.08,4.44,0,0-.02.02-.02.02Zm-.38-.51l.39.4c.33-.33,3.89-3.96,4.04-4.39.02-.04.02-.07,0-.08,0,0-.03-.02-.04-.02-.03,0-.07.02-.07.02-.25.03-3.76,3.49-4.32,4.07h0Z"/></g><polygon class="cls-4" points="45.09 22.94 47.62 20.38 45.16 23 45.09 22.94"/></g><g><g><path class="cls-3" d="m44.56,15.98c-.16,0-.69.3-.71.97s-.12,1.4-.19,1.63c-.07.23-.49,1.27-.61,1.86-.12.58-.12,1.38-.12,1.38l.58.16s.12-.93.12-1.21c0-.29.39-1.56.49-1.82.14-.37.13-.97.09-1.37s-.22-.78.02-1.03c.23-.25.57-.54.33-.55h0Z"/><path class="cls-4" d="m43.53,22.02l-.65-.17v-.03s0-.82.12-1.38c.09-.42.33-1.06.47-1.48.06-.18.12-.32.14-.39.07-.23.17-.96.19-1.63.02-.65.53-1.01.74-1.01.06,0,.1.02.12.05.03.09-.09.21-.3.43-.04.05-.09.09-.12.13-.16.18-.12.41-.07.68.02.1.04.21.05.32.02.22.07.95-.1,1.38-.1.28-.49,1.53-.48,1.8,0,.29-.11,1.18-.12,1.22v.06Zm-.58-.23l.52.14c.02-.18.12-.93.11-1.17,0-.3.39-1.58.49-1.84.16-.43.11-1.14.09-1.35,0-.11-.03-.21-.05-.31-.05-.28-.1-.54.09-.75.04-.04.09-.09.12-.13.11-.12.3-.3.28-.35,0,0,0,0-.05,0h0c-.16,0-.65.3-.67.94-.02.68-.12,1.41-.19,1.64-.02.07-.07.21-.14.39-.16.42-.39,1.05-.47,1.46-.11.51-.12,1.19-.12,1.34h0Z"/></g><path class="cls-4" d="m43.2,21.86s-.02-.54,0-.83c0,0,.02-.92.51-1.82.19-.37.21-.59.23-.72,0,0-.05.4-.2.75-.16.36-.44.79-.49,2.13l.02.53-.08-.05h0Z"/></g><g><g><path class="cls-3" d="m48.02,17.61c-.15-.07-.75,0-1.02.61-.26.61-.64,1.24-.79,1.42s-.93.97-1.27,1.46c-.33.48-.63,1.21-.63,1.21l.48.37s.47-.81.56-1.07c.1-.27.95-1.28,1.14-1.48.26-.29.49-.84.61-1.22.12-.38.09-.8.41-.94.31-.14.72-.27.51-.37Z"/><path class="cls-4" d="m44.8,22.76l-.54-.42v-.02s.32-.75.65-1.22c.24-.35.69-.84,1-1.17.12-.14.23-.25.27-.3.15-.18.52-.81.79-1.42.23-.52.68-.65.92-.65.06,0,.11,0,.15.02.05.02.08.06.08.09,0,.09-.16.16-.43.27-.05.02-.11.05-.16.07-.22.09-.26.33-.32.61-.02.1-.04.21-.08.32-.06.2-.3.9-.61,1.24-.2.21-1.03,1.21-1.13,1.47-.1.27-.54,1.05-.57,1.08l-.02.03h.02Zm-.44-.44l.43.33c.09-.16.45-.8.54-1.03.1-.28.96-1.29,1.14-1.49.31-.33.54-1.01.6-1.21.03-.1.05-.21.07-.31.05-.28.11-.54.36-.65.05-.02.11-.05.16-.07.15-.06.38-.16.39-.21,0,0,0-.02-.04-.03-.13-.06-.71,0-.97.59-.27.61-.65,1.24-.79,1.43-.05.05-.15.16-.27.3-.3.33-.75.82-.99,1.16-.29.42-.56,1.05-.62,1.18h0Z"/></g><path class="cls-4" d="m44.55,22.48s.18-.51.32-.76c0,0,.37-.84,1.15-1.47.31-.26.42-.47.48-.56,0,0-.19.35-.47.61-.28.27-.7.55-1.25,1.77l-.19.5-.05-.08h0Z"/></g><g><g><path class="cls-3" d="m51.4,22.05c-.25-.09-5.08,1.68-5.6,1.88l.22.6s5.14-1.94,5.48-2.29c.14-.16-.09-.18-.09-.18h0Z"/><path class="cls-4" d="m46,24.58l-.24-.66.03-.02c.44-.17,5.13-1.88,5.59-1.88h.04s.12.02.16.09c.02.05,0,.09-.05.15-.33.36-5.28,2.22-5.49,2.3l-.03.02h0Zm-.15-.62l.19.53c.44-.16,5.12-1.94,5.43-2.27.03-.03.04-.06.03-.08,0-.02-.07-.04-.1-.05h-.02c-.42,0-4.81,1.59-5.53,1.87Z"/></g><polygon class="cls-4" points="45.9 24.19 49.23 22.94 45.95 24.27 45.9 24.19"/></g><g><g><path class="cls-3" d="m52.11,25.74c-.2-.17-5.33-.28-5.89-.28v.64s5.48.05,5.9-.16c.19-.1-.02-.2-.02-.2h0Z"/><path class="cls-4" d="m47.71,26.13h-1.51v-.71h.03c.3,0,5.69.1,5.9.29,0,0,.11.05.11.14,0,.05-.03.09-.09.12-.28.14-2.57.16-4.45.16h0Zm-1.44-.09h1.44c2.64,0,4.21-.05,4.42-.16.04-.02.05-.04.05-.05,0-.03-.05-.06-.08-.08-.19-.16-5.05-.27-5.83-.27v.57h0Z"/></g><polygon class="cls-4" points="46.25 25.74 49.78 25.77 46.25 25.83 46.25 25.74"/></g><g><g><path class="cls-3" d="m50.63,20.44c-.11-.12-.69-.3-1.17.16s-1.05.89-1.26,1c-.21.11-1.22.53-1.72.85-.48.31-1.04.87-1.04.87l.3.54s.73-.56.92-.77c.19-.21,1.35-.8,1.6-.91.35-.16.76-.58,1.01-.89s.38-.7.73-.71c.33,0,.77.04.61-.14h0Z"/><path class="cls-4" d="m45.74,23.9l-.33-.6.02-.02s.57-.57,1.04-.87c.35-.23.96-.5,1.35-.68.17-.08.3-.14.37-.17.2-.11.78-.54,1.25-1,.26-.25.54-.3.74-.3.23,0,.41.08.48.15.04.05.05.09.04.12-.03.07-.16.09-.35.09h-.32c-.24,0-.37.2-.52.43-.05.09-.12.18-.19.26-.13.16-.61.72-1.03.89-.26.12-1.4.71-1.59.9-.19.21-.89.75-.93.77l-.03.02h-.02Zm-.25-.58l.27.48c.14-.11.72-.56.89-.74.2-.22,1.36-.81,1.61-.92.4-.18.87-.72,1-.88.07-.08.12-.17.19-.26.16-.23.3-.46.58-.46h.32c.25,0,.29-.03.29-.04,0,0,0-.02-.02-.04-.05-.05-.21-.12-.43-.12-.18,0-.44.05-.69.29-.47.46-1.06.89-1.27,1-.06.03-.2.09-.37.17-.4.18-1,.45-1.35.68-.42.27-.91.75-1.01.85v-.02Z"/></g><path class="cls-4" d="m45.62,23.54s.36-.4.58-.58c0,0,.65-.62,1.61-.9.38-.12.56-.26.65-.33,0,0-.3.25-.66.38s-.86.23-1.81,1.13l-.36.38-.02-.09h0Z"/></g><g><g><path class="cls-3" d="m51.92,24.14c-.05-.16-.53-.55-1.14-.33-.61.23-1.3.4-1.54.41-.23.02-1.32,0-1.9.09-.56.09-1.28.38-1.28.38l.08.61s.88-.22,1.14-.33c.26-.12,1.55-.19,1.82-.19.38,0,.93-.23,1.27-.4.34-.18.61-.49.94-.35.31.13.69.35.61.12Z"/><path class="cls-4" d="m46.11,25.36l-.09-.68h.02s.73-.3,1.29-.4c.41-.07,1.07-.08,1.5-.08.19,0,.33,0,.4,0,.23-.02.93-.18,1.53-.41.12-.05.26-.07.38-.07.43,0,.75.27.79.42.02.05.02.09,0,.12-.02.02-.04.04-.08.04h0c-.09,0-.25-.07-.42-.15-.05-.02-.11-.05-.16-.07-.05-.02-.1-.03-.15-.03-.16,0-.32.11-.49.22-.09.05-.18.12-.27.16-.19.09-.83.41-1.28.41-.29,0-1.56.09-1.8.19-.26.12-1.1.33-1.14.33h-.04,0Zm0-.63l.07.55c.17-.05.87-.23,1.1-.33.26-.12,1.56-.2,1.83-.2.44,0,1.07-.31,1.25-.4.09-.05.18-.11.26-.16.18-.12.34-.23.53-.23.06,0,.12.02.18.04.05.02.11.05.16.07.16.07.32.15.39.15h.02v-.05c-.03-.1-.31-.37-.73-.37-.12,0-.24.02-.36.07-.61.23-1.31.4-1.55.41-.07,0-.22,0-.4,0-.44,0-1.09.02-1.49.08-.49.08-1.12.32-1.25.37h0Z"/></g><path class="cls-4" d="m46.14,24.98s.47-.23.75-.3c0,0,.84-.31,1.82-.18.4.04.61-.02.72-.03,0,0-.37.1-.75.09-.38-.02-.87-.13-2.09.31l-.47.21.02-.09h0Z"/></g><g><g><path class="cls-3" d="m51.37,29.71c-.12-.24-4.78-2.44-5.3-2.67l-.24.58s5.01,2.29,5.48,2.28c.21-.02.05-.19.05-.19Z"/><path class="cls-4" d="m51.31,29.94c-.51,0-5.29-2.19-5.49-2.28l-.03-.02.27-.65.03.02c.27.12,5.18,2.42,5.31,2.68,0,0,.08.1.05.17-.02.05-.06.07-.14.07h0Zm-5.43-2.33c.43.19,4.96,2.26,5.43,2.26v.04-.04s.07-.02.08-.03c0-.02-.02-.08-.05-.11-.12-.23-4.53-2.32-5.25-2.64l-.22.52h0Z"/></g><polygon class="cls-4" points="45.99 27.3 49.22 28.78 45.96 27.39 45.99 27.3"/></g><g><g><path class="cls-3" d="m51.9,27.97c0-.17-.3-.71-.95-.72s-1.35-.12-1.58-.19c-.23-.07-1.23-.5-1.8-.62-.55-.12-1.33-.12-1.33-.12l-.14.61s.9.12,1.17.11c.28,0,1.52.39,1.77.49.36.14.94.12,1.32.09s.75-.23,1,.02c.24.24.53.58.54.34h0Z"/><path class="cls-4" d="m51.85,28.09h0c-.09,0-.2-.12-.38-.3-.04-.05-.09-.09-.12-.12-.08-.08-.18-.12-.31-.12-.11,0-.23.02-.36.05-.1.02-.2.05-.31.05-.12.02-.3.02-.51.02-.24,0-.58-.02-.83-.12-.26-.1-1.45-.49-1.74-.49h0c-.28,0-1.15-.1-1.18-.11h-.04l.16-.68h.02c.09,0,.81,0,1.34.12.4.09,1.02.33,1.43.48.17.07.31.12.37.14.22.07.93.17,1.57.19.3,0,.57.12.77.34.14.16.22.33.21.42,0,.1-.05.12-.09.12h0Zm-.82-.63c.15,0,.26.05.36.14l.12.12c.12.12.28.29.33.29.02,0,.02-.04.02-.05,0-.06-.05-.21-.19-.37-.13-.14-.36-.31-.72-.32-.65-.02-1.36-.12-1.59-.19-.07-.02-.21-.08-.38-.14-.4-.16-1.02-.39-1.42-.48-.49-.11-1.16-.12-1.3-.12l-.12.54c.17.02.89.12,1.14.1h.02c.31,0,1.52.4,1.77.49.19.08.47.12.8.12.2,0,.39-.02.51-.02.1,0,.2-.03.3-.05.13-.03.25-.05.37-.05h0Z"/></g><path class="cls-4" d="m46.21,26.6s.52-.03.8,0c0,0,.89.02,1.77.51.36.19.58.21.69.24,0,0-.38-.04-.73-.2-.35-.16-.77-.44-2.06-.49l-.51.02.05-.08h0Z"/></g><g><g><path class="cls-3" d="m49.3,32.81c-.03-.26-3.63-4.04-4.03-4.44l-.43.46s3.89,3.99,4.34,4.15c.2.06.12-.16.12-.16h0Z"/><path class="cls-4" d="m49.23,33.02s-.05,0-.07-.02c-.45-.16-4.19-4-4.35-4.16l-.02-.02.47-.51.02.02c.21.22,4.01,4.17,4.04,4.46,0,0,.04.11,0,.17-.02.02-.04.04-.09.04h0Zm-4.35-4.19c.33.34,3.88,3.97,4.3,4.11.02,0,.04,0,.05,0,.02,0,.03,0,.03-.02.02-.02,0-.08,0-.11-.04-.26-3.44-3.83-4-4.4l-.38.4h0Z"/></g><polygon class="cls-4" points="45.09 28.58 47.59 31.14 45.03 28.65 45.09 28.58"/></g><g><g><path class="cls-3" d="m46.08,35.12c.08-.26-1.78-5.2-1.99-5.73l-.57.24s2.04,5.26,2.39,5.58c.16.14.17-.1.17-.1h0Z"/><path class="cls-4" d="m46,35.3h0s-.07-.02-.11-.05c-.36-.33-2.32-5.39-2.4-5.6l-.02-.03.63-.27.02.03c.12.29,2.08,5.48,2,5.76,0,.05-.03.17-.12.17Zm-2.43-5.65c.17.45,2.05,5.23,2.37,5.54.03.03.05.04.06.04.03,0,.05-.08.05-.11.06-.25-1.68-4.93-1.98-5.69,0,0-.51.22-.51.22Z"/></g><polygon class="cls-4" points="43.84 29.51 45.16 32.9 43.77 29.56 43.84 29.51"/></g><g><g><path class="cls-3" d="m47.63,34.25c.12-.12.26-.72-.19-1.2s-.89-1.06-1-1.28-.54-1.24-.87-1.75c-.31-.49-.87-1.05-.87-1.05l-.51.33s.56.73.77.93.82,1.38.93,1.63c.16.36.59.77.89,1.02.3.25.69.37.71.74.02.35-.02.79.16.63h0Z"/><path class="cls-4" d="m47.57,34.33h0c-.12,0-.12-.22-.12-.52v-.18c0-.25-.2-.37-.44-.53-.09-.05-.18-.12-.26-.19-.16-.13-.71-.61-.9-1.03-.12-.27-.72-1.42-.93-1.61-.21-.19-.75-.9-.78-.93l-.02-.03.57-.37.02.02s.56.57.88,1.05c.23.36.51.97.7,1.38.08.17.14.31.18.37.11.21.54.79,1,1.27.21.22.33.51.32.8,0,.22-.07.39-.13.45-.03.03-.06.05-.09.05h0Zm-3.34-5c.11.14.56.72.74.89.22.2.83,1.38.94,1.63.19.41.72.88.88,1,.08.07.17.12.26.18.23.16.45.3.47.58v.18c0,.13,0,.45.05.45,0,0,.02,0,.04-.02.04-.04.11-.19.11-.4,0-.19-.05-.48-.3-.75-.46-.48-.89-1.07-1.01-1.28-.03-.06-.1-.2-.18-.37-.19-.4-.47-1.02-.69-1.37-.28-.43-.75-.92-.85-1.02l-.45.3h0Z"/></g><path class="cls-4" d="m44.47,29.17s.4.36.58.58c0,0,.62.65.92,1.64.13.39.27.57.33.67,0,0-.25-.3-.39-.68-.14-.37-.25-.87-1.14-1.84l-.38-.36.09-.02h0Z"/></g><g><g><path class="cls-3" d="m50.37,31.56c.07-.16,0-.78-.6-1.05-.59-.27-1.2-.65-1.38-.81s-.95-.95-1.42-1.3c-.47-.33-1.18-.65-1.18-.65l-.36.5s.79.47,1.04.58c.26.1,1.24.97,1.44,1.16.28.27.82.5,1.19.61s.78.09.92.42c.13.32.26.75.37.53h0Z"/><path class="cls-4" d="m50.31,31.66c-.09,0-.16-.16-.27-.44-.02-.05-.05-.12-.07-.16-.09-.23-.33-.27-.58-.33-.1-.02-.2-.04-.3-.08-.2-.06-.87-.3-1.2-.62-.21-.2-1.17-1.06-1.43-1.15-.26-.1-1.02-.56-1.05-.58l-.03-.02.4-.55h.02s.72.33,1.19.66c.34.25.82.72,1.14,1.02.13.13.24.23.3.28.18.16.79.53,1.38.8.27.12.47.35.58.62.07.2.08.39.04.47-.02.05-.05.09-.09.09h0Zm-4.84-3.42c.16.09.78.47,1,.55.27.11,1.26.98,1.45,1.17.32.32.98.54,1.17.61.1.03.2.05.3.07.27.05.53.11.64.37.02.05.05.11.07.17.06.15.16.4.2.4,0,0,.02,0,.03-.04.02-.05.03-.21-.04-.41-.07-.19-.22-.44-.54-.58-.59-.27-1.21-.66-1.39-.82-.05-.05-.16-.16-.3-.28-.32-.31-.79-.77-1.13-1.01-.4-.3-1.02-.58-1.15-.63l-.32.44h0Z"/></g><path class="cls-4" d="m45.64,28.02s.49.18.74.33c0,0,.81.37,1.43,1.18.26.32.45.43.54.5,0,0-.33-.19-.6-.48s-.54-.72-1.71-1.28l-.48-.19s.08-.05.08-.05Z"/></g><g><g><path class="cls-3" d="m42.54,35.81c.16-.21.23-5.51.23-6.09h-.61s-.02,5.67.19,6.11c.09.19.19-.02.19-.02Z"/><path class="cls-4" d="m42.44,35.95h0s-.09-.03-.12-.1c-.21-.45-.19-5.9-.19-6.12v-.04h.68v.04c0,.31-.06,5.88-.24,6.11,0,0-.05.12-.13.12h0Zm-.24-6.2c0,.48,0,5.64.19,6.06.02.04.04.06.05.06.02,0,.06-.05.08-.09.15-.2.23-5.22.23-6.04h-.54Z"/></g><polygon class="cls-4" points="42.51 29.74 42.5 33.39 42.42 29.75 42.51 29.74"/></g><g><g><path class="cls-3" d="m40.35,35.64c.16,0,.68-.32.69-.98,0-.67.1-1.4.17-1.63s.47-1.28.59-1.87c.12-.58.11-1.38.11-1.38l-.58-.15s-.11.93-.1,1.22c.02.29-.37,1.57-.47,1.83-.13.37-.12.97-.08,1.37.04.4.23.77-.02,1.03-.23.26-.56.55-.33.55h0Z"/><path class="cls-4" d="m40.35,35.68h0c-.06,0-.09-.02-.11-.05-.03-.09.08-.21.29-.43.04-.05.09-.09.12-.13.16-.18.12-.41.05-.68-.02-.1-.05-.21-.05-.32-.02-.22-.08-.95.08-1.38.1-.28.47-1.53.46-1.81-.02-.29.09-1.19.1-1.22v-.04l.65.16v.03s0,.81-.11,1.38c-.09.42-.31,1.06-.46,1.49-.06.18-.12.32-.13.39-.06.23-.16.96-.17,1.63,0,.7-.56,1.02-.72,1.02v-.02Zm1-6c-.02.18-.1.93-.09,1.17.02.3-.37,1.58-.47,1.84-.16.43-.1,1.14-.08,1.35,0,.11.03.21.05.31.05.28.11.54-.08.75-.04.05-.08.09-.12.13-.11.12-.29.3-.27.35,0,0,0,0,.05,0v.04-.04c.13,0,.65-.3.65-.95,0-.68.11-1.41.17-1.64.02-.07.07-.21.13-.4.15-.42.37-1.06.46-1.47.1-.51.11-1.2.11-1.34l-.52-.13h0Z"/></g><path class="cls-4" d="m41.63,29.74s.03.54,0,.83c0,0-.02.92-.48,1.83-.18.37-.2.6-.23.72,0,0,.04-.4.19-.76.16-.37.43-.8.46-2.13l-.02-.53.08.05h0Z"/></g><g><g><path class="cls-3" d="m44.05,35.74c.16-.05.53-.55.3-1.17s-.4-1.35-.41-1.59c-.02-.24,0-1.37-.11-1.96-.09-.58-.38-1.32-.38-1.32l-.6.09s.23.91.33,1.17c.12.26.21,1.6.21,1.87,0,.4.23.96.41,1.31.18.36.48.63.35.97-.12.32-.33.72-.11.64h0Z"/><path class="cls-4" d="m44,35.79h0s-.05-.02-.07-.03c-.05-.07.02-.23.12-.5.02-.05.05-.11.07-.16.09-.23-.04-.43-.19-.66-.05-.09-.12-.18-.16-.28-.09-.19-.4-.86-.41-1.32,0-.3-.1-1.61-.21-1.86-.12-.26-.33-1.14-.33-1.17v-.04l.65-.09v.02s.3.75.4,1.33c.07.42.09,1.1.09,1.56,0,.19,0,.34.02.41.02.23.19.95.41,1.58.1.29.09.6-.02.86-.09.19-.22.33-.3.36-.02,0-.05.02-.06.02v-.02Zm-1.11-5.98c.05.18.23.9.33,1.13.12.27.21,1.61.21,1.89,0,.46.31,1.1.4,1.29.05.09.1.19.16.27.16.24.3.47.19.73-.02.05-.05.11-.07.17-.06.16-.16.39-.13.43h0s.02,0,.04,0c.05-.02.17-.12.26-.32.08-.18.15-.46.02-.81-.23-.63-.4-1.35-.42-1.59,0-.08,0-.23-.02-.42,0-.45-.02-1.13-.09-1.54-.09-.51-.32-1.15-.37-1.29l-.53.08h0Z"/></g><path class="cls-4" d="m43.17,29.77s.22.49.3.77c0,0,.31.86.19,1.88-.04.41.02.63.04.75,0,0-.1-.38-.09-.78s.12-.9-.32-2.16l-.21-.48.09.02h0Z"/></g><g><g><path class="cls-3" d="m38.64,35.1c.23-.12,2.34-4.96,2.56-5.48l-.57-.25s-2.2,5.19-2.19,5.68c.02.22.19.06.19.06h0Z"/><path class="cls-4" d="m38.53,35.19h0s-.1-.02-.11-.15c-.02-.5,2.09-5.48,2.19-5.69l.02-.03.63.28-.02.03c-.12.29-2.32,5.37-2.57,5.51,0,0-.07.06-.13.06h0Zm2.12-5.79c-.19.44-2.18,5.17-2.16,5.63,0,.05.02.08.04.08.03,0,.08-.03.09-.05.22-.12,2.22-4.69,2.54-5.44l-.51-.23h0Z"/></g><polygon class="cls-4" points="40.95 29.52 39.53 32.86 40.86 29.49 40.95 29.52"/></g><g><g><path class="cls-3" d="m35.69,32.97c.26-.02,3.97-3.69,4.36-4.09l-.44-.45s-3.92,3.95-4.08,4.42c-.06.21.16.12.16.12Z"/><path class="cls-4" d="m35.61,33.02h0c-.05,0-.09-.02-.1-.05-.02-.03-.02-.09,0-.15.16-.47,3.94-4.27,4.09-4.43l.02-.02.48.51-.02.02c-.21.22-4.09,4.07-4.39,4.1,0,0-.04.02-.09.02h0Zm4.01-4.53c-.33.33-3.9,3.94-4.05,4.38-.02.04-.02.07,0,.08,0,0,.03.02.04.02h0l.07-.02c.25-.03,3.76-3.48,4.32-4.06l-.38-.4h0Z"/></g><polygon class="cls-4" points="39.85 28.69 37.33 31.24 39.78 28.63 39.85 28.69"/></g><g><g><path class="cls-3" d="m36.8,34.03c.15.07.75,0,1.02-.6.27-.61.65-1.23.8-1.42.16-.19.93-.96,1.28-1.45.33-.47.65-1.21.65-1.21l-.47-.38s-.47.8-.58,1.07c-.1.26-.96,1.28-1.15,1.47-.27.28-.5.84-.61,1.21-.12.38-.1.8-.42.94-.31.13-.73.26-.51.37h0Z"/><path class="cls-4" d="m36.94,34.09h0c-.06,0-.12,0-.15-.02-.05-.02-.08-.06-.08-.1,0-.09.16-.16.44-.27.05-.02.11-.05.16-.07.22-.09.27-.33.33-.6.02-.1.05-.21.08-.32.06-.2.3-.89.62-1.23.2-.21,1.04-1.2,1.14-1.45.1-.26.56-1.04.58-1.07l.02-.03.53.42v.02s-.33.75-.66,1.21c-.24.35-.7.83-1.01,1.16-.13.14-.23.24-.27.3-.15.18-.53.8-.8,1.41-.23.51-.68.65-.92.65h0Zm3.15-5.06c-.09.16-.46.8-.55,1.03-.11.28-.96,1.28-1.16,1.48-.31.33-.54,1-.61,1.21-.03.1-.05.21-.08.31-.06.28-.12.54-.37.65-.05.02-.11.05-.16.07-.15.05-.39.16-.39.2,0,0,0,.02.04.03.02.02.07.02.12.02.22,0,.64-.12.86-.61.27-.61.66-1.24.81-1.42.05-.05.15-.16.28-.3.3-.32.76-.81,1-1.15.3-.42.58-1.04.63-1.17,0,0-.43-.34-.43-.34Z"/></g><path class="cls-4" d="m40.3,29.2s-.19.51-.33.75c0,0-.38.83-1.17,1.46-.31.26-.42.46-.49.56,0,0,.19-.34.47-.61.28-.26.71-.54,1.27-1.75l.19-.5s.05.09.05.09Z"/></g><g><g><path class="cls-3" d="m34.19,31.27c.11.12.7.28,1.17-.18s1.03-.9,1.24-1.02c.21-.12,1.21-.54,1.7-.88.47-.32,1.03-.89,1.03-.89l-.31-.54s-.72.57-.91.79c-.19.21-1.34.83-1.59.94-.35.16-.75.6-1,.9-.24.31-.37.71-.72.72-.33,0-.77-.02-.61.15h0Z"/><path class="cls-4" d="m34.63,31.43h0c-.22,0-.4-.07-.47-.14-.04-.05-.05-.09-.04-.12.04-.09.2-.09.5-.09h.17c.24,0,.37-.21.51-.44.05-.09.12-.18.19-.26.13-.16.6-.72,1.01-.92.26-.12,1.39-.73,1.57-.93.19-.21.89-.76.91-.79l.03-.02.34.59-.02.02s-.55.58-1.03.89c-.35.23-.95.51-1.35.7-.17.08-.3.14-.36.18-.2.11-.77.55-1.24,1.02-.26.26-.55.32-.75.32v-.02Zm4.38-3.61c-.14.11-.71.58-.87.75-.19.22-1.35.84-1.59.95-.4.19-.86.73-.99.89-.06.09-.12.17-.18.26-.16.24-.3.47-.57.47h-.18c-.16,0-.41,0-.44.05,0,0,0,.02.02.04.05.05.2.12.41.12h0c.18,0,.45-.05.7-.3.47-.47,1.05-.91,1.25-1.03.06-.04.19-.1.37-.18.4-.19.99-.47,1.34-.7.42-.28.89-.76,1-.86l-.28-.47h0Z"/></g><path class="cls-4" d="m39.15,28.08s-.35.4-.57.58c0,0-.65.64-1.59.93-.38.13-.55.27-.65.33,0,0,.3-.25.65-.4.36-.14.85-.25,1.79-1.16l.35-.39.02.09h0Z"/></g><g><g><path class="cls-3" d="m33.55,29.85c.25.07,4.98-1.99,5.48-2.22l-.25-.58s-5.02,2.26-5.34,2.63c-.13.17.1.18.1.18Z"/><path class="cls-4" d="m33.57,29.89h-.02s-.12,0-.16-.08c-.02-.05,0-.09.04-.16.31-.37,5.14-2.55,5.34-2.64l.03-.02.28.65-.03.02c-.44.2-5.08,2.23-5.48,2.23h0Zm5.2-2.81c-.43.19-5,2.26-5.29,2.61-.02.03-.04.06-.03.08,0,.02.07.04.1.04h.02c.37,0,4.71-1.88,5.42-2.21l-.23-.51h0Z"/></g><polygon class="cls-4" points="38.91 27.38 35.68 28.83 38.87 27.3 38.91 27.38"/></g><g><g><path class="cls-3" d="m32.61,25.98c.2.16,5.33.2,5.89.19v-.64s-5.48.02-5.91.24c-.19.1.02.2.02.2Z"/><path class="cls-4" d="m38.27,26.2c-.05,0-5.46-.02-5.69-.2,0,0-.11-.05-.12-.14,0-.05.03-.09.09-.12.44-.22,5.69-.24,5.92-.25h.03v.71s-.02,0-.02,0h-.23,0Zm.18-.63c-.47,0-5.45.04-5.86.24-.04.02-.05.04-.05.06,0,.03.05.06.08.08.18.14,4.06.19,5.65.19h.19v-.57h0Z"/></g><polygon class="cls-4" points="38.48 25.89 34.95 25.91 38.47 25.8 38.48 25.89"/></g><g><g><path class="cls-3" d="m32.88,23.46c0,.17.28.72.93.75.65.03,1.35.16,1.57.23.23.08,1.21.54,1.78.68.55.14,1.33.16,1.33.16l.16-.6s-.89-.15-1.17-.15-1.5-.44-1.75-.54c-.36-.16-.94-.16-1.32-.13-.38.02-.75.21-1-.05-.23-.25-.51-.6-.52-.36h0Z"/><path class="cls-4" d="m38.52,25.32h-.02s-.79-.02-1.34-.16c-.4-.1-1.01-.36-1.42-.53-.17-.07-.3-.13-.37-.15-.22-.08-.92-.2-1.56-.23-.3-.02-.57-.15-.75-.37-.14-.16-.2-.33-.2-.43,0-.1.05-.12.09-.12.09,0,.19.12.37.32.04.05.08.09.12.13.09.09.19.12.33.12.1,0,.22-.02.33-.04.1-.02.21-.04.31-.05.12,0,.24-.02.36-.02.29,0,.7.02.98.15.26.12,1.46.54,1.73.54h0c.29,0,1.14.14,1.17.15h.04s-.18.67-.18.67Zm-5.58-1.91s-.02.03-.02.05c0,.06.05.21.18.37.12.15.35.33.71.34.65.03,1.36.16,1.58.24.07.02.2.08.37.16.4.17,1.01.43,1.41.53.48.12,1.15.16,1.29.16l.15-.54c-.17-.03-.88-.14-1.12-.14v-.04.04c-.3,0-1.52-.44-1.77-.55-.27-.12-.66-.14-.95-.14-.12,0-.24,0-.36.02-.1,0-.2.02-.3.05-.12.02-.23.04-.34.04-.16,0-.28-.05-.38-.15-.04-.04-.08-.09-.12-.13-.12-.13-.27-.3-.33-.3h0Z"/></g><path class="cls-4" d="m38.53,25s-.52.02-.8-.03c0,0-.89-.05-1.75-.57-.35-.19-.57-.23-.68-.26,0,0,.38.05.72.23.34.17.75.47,2.05.55h.51l-.05.08h0Z"/></g><g><g><path class="cls-3" d="m33.36,22c.12.23,4.81,2.4,5.32,2.61l.24-.58s-5.02-2.25-5.5-2.22c-.21.02-.05.19-.05.19h0Z"/><path class="cls-4" d="m38.7,24.66l-.03-.02c-.27-.12-5.2-2.37-5.34-2.64,0,0-.09-.09-.05-.17.02-.05.06-.07.13-.08h0c.51,0,5.3,2.14,5.51,2.23l.03.02-.26.65h0Zm-5.27-2.82s-.08.02-.08.03c0,.02.02.08.05.11.12.23,4.55,2.27,5.27,2.59l.21-.52c-.43-.19-4.97-2.21-5.45-2.21Z"/></g><polygon class="cls-4" points="38.77 24.35 35.53 22.91 38.8 24.27 38.77 24.35"/></g><g><g><path class="cls-3" d="m32.8,27.53c.05.16.53.55,1.14.32.61-.23,1.3-.4,1.54-.41.23-.02,1.32,0,1.9-.09.56-.09,1.28-.38,1.28-.38l-.08-.61s-.88.23-1.14.33c-.26.12-1.55.2-1.81.2-.38,0-.93.23-1.27.41-.34.18-.61.5-.94.36-.31-.13-.69-.35-.61-.12h0Z"/><path class="cls-4" d="m33.56,27.95c-.43,0-.75-.27-.79-.41-.02-.05-.02-.09,0-.12.02-.02.05-.04.08-.04.09,0,.25.07.42.15.05.02.11.05.16.07.05.02.1.03.15.03.16,0,.32-.11.49-.22.09-.05.18-.12.27-.16.19-.09.82-.41,1.28-.41.29,0,1.56-.09,1.8-.19.26-.12,1.1-.33,1.14-.34h.04l.09.68h-.02s-.73.3-1.29.4c-.41.07-1.07.08-1.5.09-.19,0-.33,0-.4,0-.23.02-.92.19-1.52.41-.12.05-.26.07-.38.07h-.02Zm-.72-.49h-.02v.05c.03.1.31.37.73.37.12,0,.24-.02.36-.07.61-.23,1.31-.4,1.55-.42.07,0,.22,0,.4,0,.44,0,1.09-.02,1.49-.08.49-.08,1.12-.32,1.25-.37l-.07-.55c-.17.05-.87.23-1.1.33-.26.12-1.56.2-1.83.2-.44,0-1.07.31-1.25.4-.09.05-.18.11-.26.16-.18.12-.35.23-.53.23-.06,0-.12-.02-.18-.04-.05-.02-.11-.05-.16-.07-.16-.07-.32-.14-.39-.14h0Z"/></g><path class="cls-4" d="m38.58,26.67s-.47.23-.75.3c0,0-.84.31-1.82.18-.4-.04-.61.02-.72.04,0,0,.37-.1.75-.09s.87.12,2.09-.31l.47-.21-.02.09h0Z"/></g><g><g><path class="cls-3" d="m40.86,15.88c-.16.05-.53.54-.31,1.17s.38,1.35.4,1.59c.02.24,0,1.37.09,1.97.09.58.37,1.33.37,1.33l.6-.08s-.22-.91-.33-1.17-.19-1.6-.19-1.87c0-.4-.23-.96-.4-1.31-.17-.36-.48-.64-.34-.97.12-.32.33-.72.11-.64v-.02Z"/><path class="cls-4" d="m41.39,21.97v-.02s-.3-.75-.38-1.34c-.07-.42-.08-1.1-.08-1.56,0-.19,0-.34,0-.41-.02-.24-.18-.96-.4-1.58-.1-.29-.09-.6.03-.86.09-.19.22-.33.3-.36.08-.02.12,0,.13.02.05.07-.02.23-.13.5-.02.05-.05.11-.07.16-.09.23.04.43.18.66.05.09.12.18.16.28.09.19.4.86.4,1.33,0,.3.09,1.61.19,1.87.11.26.32,1.14.33,1.18v.04l-.65.09h0Zm-.48-6.07s-.02,0-.04,0c-.05.02-.17.12-.26.32-.08.18-.15.46-.03.81.23.63.39,1.36.4,1.6,0,.08,0,.23,0,.42,0,.45.02,1.13.08,1.54.08.51.31,1.16.36,1.29l.53-.07c-.04-.18-.22-.9-.32-1.13-.12-.27-.19-1.62-.2-1.89,0-.45-.3-1.1-.4-1.29-.05-.09-.1-.19-.16-.27-.15-.24-.3-.47-.19-.73.02-.05.05-.11.07-.17.06-.16.16-.38.13-.43h0,.02Z"/></g><path class="cls-4" d="m41.69,21.86s-.22-.49-.29-.78c0,0-.3-.86-.18-1.88.04-.41-.02-.63-.04-.75,0,0,.1.39.09.78-.02.4-.12.9.3,2.16l.2.49-.09-.02h0Z"/></g><g><g><path class="cls-3" d="m35.56,18.65c.02.26,3.52,4.15,3.9,4.56l.44-.44s-3.78-4.1-4.22-4.28c-.2-.07-.12.16-.12.16h0Z"/><path class="cls-4" d="m39.46,23.26l-.02-.02c-.21-.23-3.89-4.29-3.91-4.58,0,0-.03-.11,0-.17.02-.03.07-.05.16-.02.45.18,4.08,4.11,4.24,4.29l.02.02-.49.49h0Zm-3.84-4.74s-.02,0-.03,0c-.02.02,0,.09,0,.11.03.26,3.33,3.94,3.87,4.52l.39-.4c-.32-.35-3.77-4.08-4.18-4.24-.02,0-.04,0-.05,0h0Z"/></g><polygon class="cls-4" points="39.64 23.01 37.21 20.36 39.71 22.94 39.64 23.01"/></g><g><g><path class="cls-3" d="m37.26,17.26c-.12.11-.29.72.15,1.21.44.49.86,1.09.96,1.31.11.22.51,1.26.81,1.78.3.5.83,1.08.83,1.08l.52-.31s-.54-.75-.74-.96c-.2-.2-.77-1.4-.88-1.66-.15-.37-.56-.79-.86-1.05-.3-.26-.68-.4-.68-.76s.05-.79-.13-.63h.02Z"/><path class="cls-4" d="m40.01,22.68l-.02-.02s-.54-.58-.84-1.08c-.22-.37-.47-.99-.65-1.41-.07-.17-.13-.31-.16-.37-.1-.21-.52-.81-.96-1.3-.2-.23-.3-.51-.29-.81,0-.22.08-.39.15-.45.05-.05.11-.05.14-.02.05.06.05.23.05.5v.18c0,.25.19.38.41.54.09.06.17.12.26.19.16.14.68.63.86,1.07.11.27.68,1.45.87,1.65.2.2.72.93.74.96l.02.03-.58.34h0Zm-2.68-5.41s-.02,0-.04.02c-.04.04-.11.18-.12.4,0,.19.03.48.27.75.44.5.86,1.1.96,1.31.03.07.09.2.16.38.17.41.43,1.03.65,1.39.26.44.72.94.81,1.05l.47-.27c-.11-.15-.54-.75-.71-.92-.21-.21-.78-1.42-.89-1.67-.17-.42-.69-.9-.84-1.04-.08-.07-.16-.13-.25-.19-.23-.16-.44-.32-.44-.6v-.19c0-.18,0-.4-.03-.44h0Z"/></g><path class="cls-4" d="m40.23,22.46s-.38-.37-.55-.6c0,0-.6-.68-.86-1.67-.12-.4-.25-.58-.31-.68,0,0,.23.32.37.68.13.37.22.89,1.08,1.88l.37.37-.09.02h0Z"/></g><g><g><path class="cls-3" d="m34.52,19.94c-.07.15-.02.78.57,1.07s1.18.69,1.36.85c.18.16.92.98,1.38,1.35.45.35,1.16.68,1.16.68l.37-.49s-.77-.5-1.03-.61c-.26-.11-1.22-1.01-1.41-1.21-.27-.28-.8-.52-1.17-.65s-.77-.12-.9-.45c-.12-.33-.24-.75-.35-.54h0Z"/><path class="cls-4" d="m39.01,23.93h-.02s-.72-.35-1.17-.7c-.33-.26-.79-.74-1.1-1.06-.13-.13-.23-.24-.29-.29-.17-.16-.77-.55-1.35-.85-.26-.13-.47-.37-.56-.65-.07-.2-.06-.39-.02-.47,0-.02.04-.08.09-.08.09,0,.16.16.26.45.02.05.04.12.06.17.09.23.31.28.58.34.1.02.2.05.3.09.19.07.86.33,1.18.66.2.21,1.14,1.1,1.39,1.2.26.11,1,.59,1.03.61l.03.02-.42.54h0Zm-4.43-4.01s-.02,0-.03.04c-.02.05-.04.21.03.42.06.19.2.44.52.6.58.3,1.19.7,1.37.86.05.05.16.16.29.3.3.32.77.8,1.1,1.05.4.31,1,.61,1.13.67l.33-.44c-.15-.09-.76-.49-.99-.58-.26-.12-1.23-1.02-1.42-1.21-.31-.33-.96-.58-1.15-.65-.1-.03-.2-.06-.3-.09-.27-.06-.53-.12-.63-.39-.02-.05-.04-.12-.06-.17-.05-.15-.15-.4-.19-.4Z"/></g><path class="cls-4" d="m39.14,23.64s-.49-.19-.73-.35c0,0-.8-.4-1.4-1.23-.25-.33-.44-.44-.53-.51,0,0,.33.2.58.5.26.3.52.74,1.67,1.34l.47.2-.08.05h0Z"/></g><g><path class="cls-3" d="m46.25,25.79c0,2.21-1.73,4-3.87,4s-3.87-1.79-3.87-4,1.73-4,3.87-4,3.87,1.79,3.87,4Z"/><path class="cls-4" d="m42.37,29.84c-2.15,0-3.9-1.81-3.9-4.04s1.75-4.04,3.9-4.04,3.9,1.81,3.9,4.04-1.75,4.04-3.9,4.04Zm0-8c-2.12,0-3.83,1.78-3.83,3.97s1.72,3.97,3.83,3.97,3.83-1.78,3.83-3.97-1.72-3.97-3.83-3.97Z"/></g><path class="cls-4" d="m43.66,24.2c-.51,0-.89.44-1,.87-.12.44.12.95.19,1.03.06.09.34.34.44.42.09.09-.08.25-.16.3-.08.04-.3.02-.35,0-.05-.02-.28.05-.3.05s-.25-.08-.3-.05-.28.05-.35,0c-.08-.04-.25-.21-.16-.3s.37-.33.44-.42c.06-.09.3-.6.19-1.03-.12-.44-.5-.87-1-.87s-.96.4-1.1.65c0,0,.47-.54,1.1-.47.64.06.93.43.97.73.05.3-.03.87-.25,1.05-.22.19-.51.38-.4.52.1.14.25.2.36.2s.15-.05.22-.02.16.08.27.08h0c.12,0,.2-.05.27-.08.08-.03.12.02.22.02s.25-.06.36-.2c.1-.14-.18-.33-.4-.52-.22-.19-.3-.75-.25-1.05s.34-.67.97-.73c.64-.06,1.1.47,1.1.47-.13-.25-.59-.65-1.1-.65Z"/><path class="cls-4" d="m40.22,25.18s.43-.51.94-.51.82.34.87.5c0,0-.39-.42-.89-.42s-.92.44-.92.44h0Z"/><path class="cls-4" d="m40.5,25.11s0,.66.73.66.74-.51.74-.51c0,0-.15.44-.77.44s-.69-.52-.71-.58h0Z"/><path class="cls-4" d="m41.35,25.26c0,.12-.09.22-.21.22s-.21-.1-.21-.22.09-.22.21-.22.21.1.21.22Z"/><path class="cls-4" d="m40.43,25.13s.93-.57,1.56.05c0,0-.75-.48-1.56-.05Z"/><path class="cls-4" d="m44.71,25.18s-.43-.51-.94-.51-.82.34-.87.5c0,0,.39-.42.89-.42s.92.44.92.44h0Z"/><path class="cls-4" d="m44.43,25.11s0,.66-.73.66-.74-.51-.74-.51c0,0,.15.44.77.44s.68-.52.71-.58h0Z"/><path class="cls-4" d="m43.58,25.26c0,.12.09.22.21.22s.21-.1.21-.22-.09-.22-.21-.22-.21.1-.21.22Z"/><path class="cls-4" d="m44.5,25.13s-.93-.57-1.56.05c0,0,.75-.48,1.56-.05Z"/><path class="cls-4" d="m42.78,27.53c-.09-.03-.33.02-.33.02,0,0-.24-.05-.33-.02s-.5.07-.5.07c.05.05.44,0,.5-.02.06-.02.33.08.33.08,0,0,.27-.1.33-.08.06.02.44.07.5.02,0,0-.4-.04-.5-.07Z"/><path class="cls-4" d="m42.96,27.21c-.05-.07-.28-.19-.37-.08-.09.11-.1.12-.16.12s-.06,0-.16-.12c-.09-.11-.32.02-.37.08-.05.06-.41.34-.41.34.12,0,.54-.36.63-.4.1-.04.3.21.31.22h0s.21-.26.3-.22c.1.04.51.4.63.4,0,0-.36-.28-.41-.34h0Z"/><path class="cls-4" d="m43.12,27.67c-.05,0-.2.13-.28.19-.06.05-.21.14-.26.17-.02,0-.05,0-.09,0h-.14s-.06,0-.09.02c-.05-.02-.19-.12-.26-.17-.08-.06-.23-.19-.28-.19s-.22-.02-.24-.05c0,0,.08.09.19.09s.18.1.22.16c.04.05.22.17.36.19-.27.09-.36.47-.36.47.22-.49.51-.41.54-.4h0s.32-.09.54.4c0,0-.09-.39-.36-.47.13-.02.31-.13.34-.19.04-.05.11-.16.22-.16s.19-.09.19-.09c-.02.03-.19.05-.24.05h0Z"/></g></svg>