<svg xmlns="http://www.w3.org/2000/svg" width="84" height="66"><path fill="#C70606" d="M0 0h84v66H0z"/><path fill="#3C3C3C" fill-rule="evenodd" d="M64.603 49.836c-4.843 0-12.206-8.544-12.206-11.777V20h24.411v18.059c0 3.363-6.82 11.777-12.205 11.777Z"/><path fill="#E3E3E3" fill-rule="evenodd" d="M54.205 21.803H75v15.876c0 2.957-5.811 10.354-10.397 10.354-4.125 0-10.398-7.51-10.398-10.354V21.803Z"/><path fill="#2F46D0" d="M54.205 29.945H75v8.137H54.205z"/><path fill="#FFC438" fill-rule="evenodd" d="M72.373 34.217v-2.102h1.413v2.102h-1.413Zm-2.826.701h1.413v2.102h-1.413v-2.102Zm-2.825-2.803h1.413v2.102h-1.413v-2.102Z"/><path fill="#FFC438" d="M65.055 21.808H75v8.137h-9.945z"/><path fill="#D70505" d="M54.205 21.808h10.849v8.137H54.205z"/><path fill="#FFC438" fill-rule="evenodd" d="M55.421 28.612v-1.266h7.77v1.266h-7.77Zm0-3.789h7.77v1.266h-7.77v-1.266Zm0-2.518h7.77v1.266h-7.77v-1.266Z"/><path fill="#E20909" fill-rule="evenodd" d="M71.384 26.329v.904h.283v1.379h-3.533v-1.379h1.441v-1.808h-1.441v-2.419h.537v1.515h.904v-1.515h2.092v3.323h-.283Z"/><path fill="#FFC438" fill-rule="evenodd" d="m63.191 31.414-4.465 5.764a18.024 18.024 0 0 1-1.893-3.662c-.01-.034 0-.064-.008-.098-.353-.551-1.592-2.569-.811-2.569a4.082 4.082 0 0 1 2.01.951 12.231 12.231 0 0 1 5.167-.386Zm-3.561 1.244c-.734.339 0 1.808 0 1.808l1.808-1.808a2.984 2.984 0 0 0-1.808 0Z"/><path fill="#20AB2D" fill-rule="evenodd" d="M68.625 44.027a3.714 3.714 0 0 1-3.316 2.058v1.447h-1.412v-1.447a3.717 3.717 0 0 1-3.317-2.058h-2.334v-2.102h3.531v2.102h-.389a3.238 3.238 0 0 0 2.509 1.384v-2.786h-1.413v-3.503h4.238v3.503h-1.413v2.786a3.24 3.24 0 0 0 2.509-1.384h-.39v-2.102h3.532v2.102h-2.335Z"/><path fill="#3C3C3C" d="M64.151 20.904h.904v17.178h-.904z"/><path fill="#001E6C" d="M0 0h45.205v29.836H0z"/><path fill="#E3E3E3" fill-rule="evenodd" d="M45.205 29.836h-7.104L22.74 19.011 7.435 29.836H0v-3.798l16.327-11.547L0 2.984V0h8.622l14.123 9.952L36.816 0h8.389v3.122L29.158 14.471 45.205 25.78v4.056Z"/><path fill="#C81329" fill-rule="evenodd" d="m40.826 29.836-16.966-12 2.616-1.85 18.729 13.247v.603h-4.379ZM45.205.857 4.232 29.836H0v-.707L41.185 0h4.02v.857ZM21.156 12.224l-2.615 1.849L0 .961V0h3.873l17.283 12.224Z"/><path fill="#E3E3E3" fill-rule="evenodd" d="M45.205 18.986H27.123v10.85h-9.041v-10.85H0v-8.137h18.082V0h9.041v10.849h18.082v8.137Z"/><path fill="#C81329" fill-rule="evenodd" d="M45.205 17.178h-19.89v12.658H19.89V17.178H0v-4.52h19.89V0h5.425v12.658h19.89v4.52Z"/></svg>