<?xml version="1.0" encoding="UTF-8"?><svg id="Layer_1" xmlns="http://www.w3.org/2000/svg" viewBox="0 0 84 51.33"><defs><style>.cls-1{fill:#fff;}.cls-2{fill:#f92;}.cls-3{fill:#00008b;}.cls-4{fill:#080;}</style></defs><polyline class="cls-2" points="84.01 .04 0 0 0 16.72 84 16.75"/><polyline class="cls-1" points="84 16.75 0 16.72 0 34.4 84 34.43"/><polyline class="cls-4" points="84 34.43 0 34.4 0 51.31 83.99 51.35"/><g><path class="cls-3" d="m42,18.72c-3.76,0-6.81,3.07-6.81,6.85s3.04,6.86,6.8,6.86,6.81-3.07,6.81-6.85c0-3.79-3.04-6.86-6.8-6.86Zm3.88,11.43c-.04-.12-.15-.21-.28-.21-.16,0-.3.13-.3.3,0,.11.06.2.14.25-.28.2-.57.37-.88.52-.02-.15-.14-.27-.29-.27-.16,0-.3.13-.3.3,0,.07.03.14.07.19-.31.11-.63.2-.96.26,0-.02,0-.04,0-.06,0-.17-.13-.3-.3-.3s-.3.13-.3.3c0,.05.01.09.03.13-.17.01-.34.02-.52.02-.16,0-.32,0-.48-.02.02-.04.04-.09.04-.15,0-.17-.13-.3-.3-.3s-.3.13-.3.3c0,.03,0,.05.01.08-.35-.06-.69-.15-1.02-.27.07-.05.12-.14.12-.24,0-.17-.13-.3-.3-.3s-.3.13-.3.3c0,.01,0,.03,0,.04-.31-.14-.6-.31-.88-.5.11-.04.2-.15.2-.28,0-.17-.13-.3-.3-.3s-.29.12-.3.28c-.28-.24-.55-.5-.78-.78.16,0,.28-.14.28-.3s-.13-.3-.3-.3c-.13,0-.24.09-.28.21-.2-.29-.38-.59-.53-.91,0,0,.01,0,.02,0,.16,0,.3-.13.3-.3s-.13-.3-.3-.3c-.09,0-.17.04-.23.11-.12-.33-.21-.68-.28-1.04.03.01.07.02.11.02.16,0,.3-.13.3-.3s-.13-.3-.3-.3c-.07,0-.13.02-.18.06-.01-.17-.02-.35-.02-.52s0-.34.02-.51c.05.03.11.05.17.05.16,0,.3-.13.3-.3s-.13-.3-.3-.3c-.04,0-.07,0-.1.02.06-.36.15-.7.27-1.03.05.07.14.12.23.12.16,0,.3-.13.3-.3s-.13-.3-.3-.3c-.01,0-.02,0-.03,0,.15-.32.33-.63.53-.92.04.11.15.19.28.19.16,0,.3-.13.3-.3,0-.15-.11-.28-.26-.3.22-.26.46-.5.72-.72.03.14.15.24.29.24.16,0,.3-.13.3-.3,0-.12-.07-.22-.17-.27.29-.2.6-.38.92-.54,0,.02,0,.03,0,.05,0,.17.13.3.3.3s.3-.13.3-.3c0-.1-.05-.19-.13-.25.32-.12.66-.21,1.01-.27,0,.01,0,.02,0,.03,0,.17.13.3.3.3s.3-.13.3-.3c0-.04,0-.07-.02-.11.15-.01.31-.02.47-.02.18,0,.35,0,.52.02-.02.04-.02.08-.02.12,0,.17.13.3.3.3s.3-.13.3-.3c0-.01,0-.03,0-.04.34.06.67.15.99.27-.05.05-.08.12-.08.2,0,.17.13.3.3.3s.28-.12.3-.28c.3.15.59.32.86.51-.09.05-.15.15-.15.26,0,.17.13.3.3.3.14,0,.25-.09.29-.22.25.22.49.46.7.71-.12.04-.2.15-.2.28,0,.17.13.3.3.3.1,0,.19-.05.25-.13.19.27.35.56.49.86,0,0,0,0,0,0-.16,0-.3.13-.3.3s.13.3.3.3c.08,0,.16-.04.21-.09.12.33.21.68.27,1.04-.04-.01-.07-.02-.11-.02-.16,0-.3.13-.3.3s.13.3.3.3c.07,0,.13-.02.18-.06.01.16.02.32.02.48,0,.17,0,.35-.02.52-.04-.02-.09-.04-.15-.04-.16,0-.3.13-.3.3s.13.3.3.3c.03,0,.05,0,.07-.01-.06.34-.15.67-.26.99-.05-.06-.13-.1-.22-.1-.16,0-.3.13-.3.3s.13.3.3.3c0,0,0,0,0,0-.14.31-.31.6-.5.87-.05-.08-.15-.14-.25-.14-.16,0-.3.13-.3.3,0,.13.09.25.21.28-.21.25-.44.48-.68.69Z"/><path class="cls-3" d="m42,24.39c-.65,0-1.17.53-1.17,1.18s.52,1.18,1.17,1.18,1.17-.53,1.17-1.18-.52-1.18-1.17-1.18Z"/><polygon class="cls-3" points="42.29 23.19 42.02 19.71 42.02 19.71 41.74 23.19 42.02 24.38 42.02 24.39 42.02 24.39 42.02 24.39 42.02 24.38 42.29 23.19"/><polygon class="cls-3" points="39.63 25.32 36.18 25.6 36.18 25.6 39.63 25.87 40.81 25.6 40.82 25.6 40.82 25.6 40.82 25.6 40.81 25.6 39.63 25.32"/><polygon class="cls-3" points="40.54 23.68 37.9 21.42 37.9 21.42 40.15 24.07 41.18 24.72 41.19 24.73 41.18 24.73 41.19 24.73 41.18 24.72 40.54 23.68"/><polygon class="cls-3" points="40.13 24.16 37 22.67 37 22.67 39.86 24.63 41.02 24.99 41.03 24.99 41.03 24.99 41.03 24.99 41.02 24.98 40.13 24.16"/><polygon class="cls-3" points="39.77 24.69 36.38 24.04 36.38 24.04 39.63 25.22 40.84 25.27 40.86 25.28 40.85 25.27 40.86 25.27 40.84 25.27 39.77 24.69"/><polygon class="cls-3" points="41.06 23.39 39.06 20.55 39.06 20.55 40.59 23.67 41.44 24.55 41.44 24.57 41.44 24.56 41.45 24.56 41.44 24.55 41.06 23.39"/><polygon class="cls-3" points="41.67 23.2 40.56 19.89 40.56 19.89 41.14 23.33 41.69 24.42 41.69 24.43 41.69 24.43 41.7 24.43 41.69 24.42 41.67 23.2"/><polygon class="cls-3" points="44.41 25.32 47.85 25.6 47.85 25.6 44.41 25.88 43.22 25.6 43.21 25.6 43.22 25.6 43.21 25.6 43.22 25.6 44.41 25.32"/><polygon class="cls-3" points="43.5 23.69 46.13 21.43 46.13 21.43 43.88 24.08 42.86 24.73 42.85 24.74 42.85 24.73 42.84 24.73 42.85 24.72 43.5 23.69"/><polygon class="cls-3" points="43.91 24.16 47.04 22.68 47.04 22.68 44.18 24.64 43.01 24.99 43 25 43.01 24.99 43 24.99 43.01 24.99 43.91 24.16"/><polygon class="cls-3" points="44.26 24.69 47.66 24.04 47.66 24.04 44.4 25.22 43.19 25.27 43.18 25.28 43.18 25.27 43.18 25.28 43.19 25.27 44.26 24.69"/><polygon class="cls-3" points="42.97 23.39 44.98 20.55 44.98 20.55 43.44 23.67 42.6 24.55 42.59 24.57 42.59 24.56 42.59 24.57 42.59 24.55 42.97 23.39"/><polygon class="cls-3" points="42.37 23.2 43.47 19.9 43.47 19.9 42.9 23.33 42.34 24.42 42.34 24.43 42.34 24.43 42.34 24.43 42.34 24.42 42.37 23.2"/><polygon class="cls-3" points="42.29 27.97 42.01 31.45 42.01 31.45 41.74 27.97 42.01 26.78 42.01 26.77 42.02 26.78 42.02 26.77 42.02 26.78 42.29 27.97"/><polygon class="cls-3" points="40.53 27.48 37.9 29.74 37.9 29.74 40.15 27.09 41.18 26.44 41.19 26.43 41.18 26.43 41.19 26.43 41.18 26.44 40.53 27.48"/><polygon class="cls-3" points="40.13 27.01 36.99 28.49 36.99 28.48 39.86 26.53 41.02 26.17 41.03 26.17 41.03 26.17 41.03 26.17 41.02 26.18 40.13 27.01"/><polygon class="cls-3" points="39.77 26.47 36.37 27.12 36.37 27.12 39.63 25.94 40.84 25.89 40.86 25.89 40.85 25.89 40.86 25.89 40.84 25.89 39.77 26.47"/><polygon class="cls-3" points="41.06 27.77 39.05 30.61 39.05 30.61 40.59 27.49 41.44 26.61 41.44 26.6 41.44 26.6 41.45 26.6 41.44 26.61 41.06 27.77"/><polygon class="cls-3" points="41.67 27.97 40.56 31.27 40.56 31.27 41.14 27.83 41.69 26.74 41.69 26.73 41.69 26.74 41.7 26.73 41.69 26.74 41.67 27.97"/><polygon class="cls-3" points="43.5 27.48 46.13 29.74 46.13 29.74 43.88 27.09 42.86 26.44 42.85 26.43 42.85 26.43 42.84 26.43 42.85 26.44 43.5 27.48"/><polygon class="cls-3" points="43.9 27.01 47.04 28.49 47.04 28.49 44.18 26.53 43.01 26.17 43 26.17 43.01 26.17 43 26.17 43.01 26.18 43.9 27.01"/><polygon class="cls-3" points="44.26 26.47 47.66 27.12 47.66 27.12 44.4 25.94 43.19 25.89 43.18 25.89 43.18 25.89 43.18 25.89 43.19 25.89 44.26 26.47"/><polygon class="cls-3" points="42.97 27.77 44.98 30.61 44.98 30.61 43.44 27.49 42.6 26.61 42.59 26.6 42.59 26.6 42.59 26.6 42.59 26.61 42.97 27.77"/><polygon class="cls-3" points="42.36 27.97 43.47 31.27 43.47 31.27 42.89 27.83 42.34 26.74 42.34 26.73 42.34 26.74 42.34 26.73 42.34 26.74 42.36 27.97"/></g></svg>