<?xml version="1.0" encoding="UTF-8"?><svg id="Layer_1" xmlns="http://www.w3.org/2000/svg" viewBox="0 0 84 51.33"><defs><style>.cls-1,.cls-2{fill:#fff;}.cls-2,.cls-3{fill-rule:evenodd;}.cls-3{fill:#c81329;}.cls-4{fill:#001e6c;}</style></defs><path class="cls-4" d="m0,0h84v51.33H0V0Z"/><path class="cls-1" d="m13.78,0H0v4.87l31.43,20.79L-.09,46.52l.09,4.82h13.78l28.22-18.67,28.22,18.67h13.78v-4.87l-31.43-20.79,31.43-20.79V0h-13.78l-28.22,18.67L13.78,0Z"/><path class="cls-3" d="m9.8,51.33l24.42-16.17v-1.72h-5.85L1.35,51.33h8.45ZM-.09,2.16l23.76,15.72h8.45L5.1,0H0l-.09,2.16ZM74.2,0l-24.42,16.17v1.72h5.85L82.65,0h-8.45Zm9.8,49.11l-23.67-15.67h-8.45l27.03,17.89h5.1v-2.22Z"/><path class="cls-2" d="m84,33.44h-34.22v17.89h-15.56v-17.89H0v-15.56h34.22V0h15.56v17.89h34.22v15.56Z"/><path class="cls-3" d="m84,30.33h-37.33v21h-9.33v-21H0v-9.33h37.33V0h9.33v21h37.33v9.33Z"/></svg>