<svg xmlns="http://www.w3.org/2000/svg" width="84" height="66"><path fill="#14148E" d="M0 44h84v22H0z"/><path fill="#FFF" d="M0 22h84v22H0z"/><path fill="#E67000" d="M0 0h84v22H0z"/><path fill="#645D55" fill-rule="evenodd" d="M47 38.5v2h-9v-2H24v-11h14v-2h9v2h13v11H47Z"/><path fill="#001E6C" d="M25 28.5h13v9H25z"/><path fill="#E3E3E3" fill-rule="evenodd" d="M38 37.5h-2.043l-4.417-3.265-4.402 3.265H25v-1.145l4.7-3.483L25 29.4v-.9h2.48l4.061 3 4.047-3H38v.942l-4.615 3.424L38 36.277V37.5Z"/><path fill="#C81329" fill-rule="evenodd" d="m36.741 37.5-4.879-3.62.752-.558 5.386 4v.178h-1.259ZM38 28.759 26.217 37.5H25v-.213L36.844 28.5H38v.259Zm-6.916 3.429-.752.558L25 28.79v-.29h1.114l4.97 3.688Z"/><path fill="#E3E3E3" fill-rule="evenodd" d="M38 34.125h-5.2V37.5h-2.6v-3.375H25v-2.25h5.2V28.5h2.6v3.375H38v2.25Z"/><path fill="#C81329" fill-rule="evenodd" d="m38 33.682-5.673-.007V37.5h-1.654v-3.825L25 33.682v-1.364l5.673.007V28.5h1.655v3.825L38 32.318v1.364Z"/><path fill="#003585" d="M47 28.5h12v9H47z"/><path fill="#007B4C" d="M47 28.5h3v9h-3z"/><path fill="#E3E3E3" d="M50 31.5h9v3h-9z"/><path fill="#CF0821" d="M50 28.5h9v3h-9z"/><path fill="#E3E3E3" d="M39 26.5h7v13h-7z"/><path fill="#FF942A" fill-rule="evenodd" d="M43.875 39.5v-13h1.281v13h-1.281Zm-2.018-13h1.286v13h-1.286v-13Zm-2.045 0h1.281v13h-1.28v-13h-.001Z"/><path fill="#CF0821" d="M38.938 26.5h1.281v5.563h-1.281z"/><path fill="#E3E3E3" d="M39.75 26.5h1.281v5.563H39.75z"/><path fill="#003585" d="M40.813 26.5h1.281v5.563h-1.281z"/></svg>