<?xml version="1.0" encoding="UTF-8"?><svg id="Layer_1" xmlns="http://www.w3.org/2000/svg" viewBox="0 0 35.63 35.69"><defs><style>.cls-1{fill:#fff;}.cls-2{fill:#231f20;}</style></defs><g><path class="cls-1" d="M17.69,28.61c-4.9,0-9.4-1.68-11.46-4.28l-.48-.61H29.63l-.48,.61c-2.06,2.6-6.55,4.28-11.46,4.28Z"/><path class="cls-2" d="M28.85,24.1c-1.93,2.44-6.2,4.14-11.16,4.14s-9.23-1.7-11.16-4.14H28.85m1.55-.75H4.98l.96,1.22c2.16,2.73,6.66,4.43,11.75,4.43s9.59-1.7,11.75-4.43l.96-1.22h0Z"/></g><g><rect class="cls-1" x="5.17" y="21.55" width="25.05" height="2.07"/><path class="cls-2" d="M29.84,21.93v1.32H5.54v-1.32H29.84m.75-.75H4.79v2.82H30.59v-2.82h0Z"/></g><g><path class="cls-1" d="M5.05,21.33v-1.23c-2.28-1.32-3.48-2.92-3.48-4.64,0-4.17,7.08-7.44,16.12-7.44s16.12,3.27,16.12,7.44c0,1.72-1.2,3.33-3.48,4.64v1.23H5.05Zm12.64-6.47c-.92,0-1.67,.87-1.67,1.94s.75,1.94,1.67,1.94,1.67-.87,1.67-1.94-.75-1.94-1.67-1.94Z"/><path class="cls-2" d="M17.69,8.4c8.69,0,15.74,3.16,15.74,7.06,0,1.68-1.3,3.22-3.48,4.43v1.07H5.43v-1.07c-2.17-1.21-3.48-2.75-3.48-4.43,0-3.9,7.05-7.06,15.74-7.06m0,10.71c1.13,0,2.05-1.03,2.05-2.31s-.92-2.31-2.05-2.31-2.05,1.03-2.05,2.31,.92,2.31,2.05,2.31m0-11.46C8.44,7.65,1.2,11.08,1.2,15.46c0,1.82,1.2,3.49,3.48,4.86v1.39H30.71v-1.39c2.28-1.37,3.48-3.04,3.48-4.86,0-4.38-7.24-7.81-16.49-7.81h0Zm0,10.71c-.72,0-1.3-.7-1.3-1.56s.58-1.56,1.3-1.56,1.3,.7,1.3,1.56-.58,1.56-1.3,1.56h0Z"/></g></svg>