<?xml version="1.0" encoding="UTF-8"?><svg id="Layer_1" xmlns="http://www.w3.org/2000/svg" viewBox="0 0 35.63 35.69"><defs><style>.cls-1{fill:#fff;}.cls-2{fill:#231f20;}</style></defs><g><g><polygon class="cls-1" points="1.77 19.53 3.87 21.63 5.97 23.73 7.03 22.68 2.83 18.48 1.77 19.53"/><path class="cls-2" d="M2.83,18.48l4.2,4.2-1.06,1.06-2.1-2.1-2.1-2.1,1.06-1.06m0-1.06l-.53,.53-1.06,1.06-.53,.53,.53,.53,2.1,2.1,2.1,2.1,.53,.53,.53-.53,1.06-1.06,.53-.53-.53-.53-4.2-4.2-.53-.53h0Z"/></g><g><path class="cls-1" d="M19.44,8.51l1.53-1.88c1.63-2.04,2.32-3.86,2.24-4.33-.47-.08-2.45,.67-4.23,2.17l-1.98,1.61,1.22,1.22,1.22,1.22Z"/><path class="cls-2" d="M23.13,2.29s.05,0,.08,0c.08,.47-.61,2.29-2.25,4.33l-1.53,1.88-1.22-1.22-1.22-1.22,1.98-1.61c1.69-1.43,3.57-2.17,4.15-2.17m0-.75c-.89,0-2.97,.94-4.63,2.35l-1.97,1.6-.65,.52,.59,.59,1.22,1.22,1.22,1.22,.59,.59,.52-.65,1.53-1.88c1.52-1.9,2.55-4.01,2.4-4.92l-.09-.54-.54-.09c-.06,0-.12-.01-.19-.01h0Z"/></g><g><polygon class="cls-1" points="15.21 14.5 16.16 12.02 18.35 9.83 17.01 8.49 15.68 7.16 13.49 9.35 11.01 10.3 4.01 17.29 8.21 21.49 15.21 14.5"/><path class="cls-2" d="M15.68,7.16l1.34,1.34,1.34,1.34-2.19,2.19-.95,2.48-6.99,6.99-4.2-4.2,6.99-6.99,2.48-.95,2.19-2.19m0-1.06l-.53,.53-2.08,2.08-2.33,.9-.15,.06-.11,.11-6.99,6.99-.53,.53,.53,.53,4.2,4.2,.53,.53,.53-.53,6.99-6.99,.11-.11,.06-.15,.9-2.33,2.07-2.07,.53-.53-.53-.53-1.34-1.34-1.34-1.34-.53-.53h0Z"/></g></g><g><g><polygon class="cls-1" points="7.31 25.07 9.41 27.17 11.51 29.27 12.56 28.21 8.36 24.01 7.31 25.07"/><path class="cls-2" d="M8.36,24.01l4.2,4.2-1.06,1.06-2.1-2.1-2.1-2.1,1.06-1.06m0-1.06l-.53,.53-1.06,1.06-.53,.53,.53,.53,2.1,2.1,2.1,2.1,.53,.53,.53-.53,1.06-1.06,.53-.53-.53-.53-4.2-4.2-.53-.53h0Z"/></g><g><path class="cls-1" d="M24.97,14.04l1.53-1.88c1.63-2.04,2.32-3.86,2.24-4.33-.47-.08-2.45,.67-4.23,2.17l-1.98,1.61,1.22,1.22,1.22,1.22Z"/><path class="cls-2" d="M28.67,7.83s.05,0,.08,0c.08,.47-.61,2.29-2.24,4.33l-1.53,1.88-1.22-1.22-1.22-1.22,1.98-1.61c1.69-1.43,3.57-2.17,4.15-2.17m0-.75c-.89,0-2.97,.94-4.63,2.35l-1.97,1.6-.65,.52,.59,.59,1.22,1.22,1.22,1.22,.59,.59,.52-.65,1.53-1.88c1.52-1.9,2.55-4.01,2.4-4.92l-.09-.54-.54-.09c-.06,0-.12-.01-.19-.01h0Z"/></g><g><polygon class="cls-1" points="20.74 20.03 21.69 17.55 23.88 15.36 22.55 14.03 21.21 12.69 19.02 14.88 16.54 15.83 9.55 22.83 13.75 27.03 20.74 20.03"/><path class="cls-2" d="M21.21,12.69l1.34,1.34,1.34,1.34-2.19,2.19-.95,2.48-6.99,6.99-4.2-4.2,6.99-6.99,2.48-.95,2.19-2.19m0-1.06l-.53,.53-2.08,2.08-2.33,.9-.15,.06-.11,.11-6.99,6.99-.53,.53,.53,.53,4.2,4.2,.53,.53,.53-.53,6.99-6.99,.11-.11,.06-.15,.9-2.33,2.07-2.07,.53-.53-.53-.53-1.34-1.34-1.34-1.34-.53-.53h0Z"/></g></g><g><g><polygon class="cls-1" points="12.73 30.49 14.83 32.59 16.93 34.69 17.99 33.63 13.79 29.43 12.73 30.49"/><path class="cls-2" d="M13.79,29.43l4.2,4.2-1.06,1.06-2.1-2.1-2.1-2.1,1.06-1.06m0-1.06l-.53,.53-1.06,1.06-.53,.53,.53,.53,2.1,2.1,2.1,2.1,.53,.53,.53-.53,1.06-1.06,.53-.53-.53-.53-4.2-4.2-.53-.53h0Z"/></g><g><path class="cls-1" d="M30.39,19.46l1.53-1.88c1.63-2.04,2.32-3.86,2.24-4.33-.47-.08-2.45,.67-4.23,2.17l-1.98,1.61,1.22,1.22,1.22,1.22Z"/><path class="cls-2" d="M34.09,13.25s.05,0,.08,0c.08,.47-.61,2.29-2.24,4.33l-1.53,1.88-1.22-1.22-1.22-1.22,1.98-1.61c1.69-1.43,3.57-2.17,4.15-2.17m0-.75c-.89,0-2.97,.94-4.64,2.35l-1.97,1.6-.65,.52,.59,.59,1.22,1.22,1.22,1.22,.59,.59,.52-.65,1.53-1.88c1.52-1.9,2.55-4.01,2.4-4.92l-.09-.54-.54-.09c-.06,0-.12-.01-.19-.01h0Z"/></g><g><polygon class="cls-1" points="26.16 25.45 27.12 22.97 29.3 20.79 27.97 19.45 26.63 18.11 24.44 20.3 21.96 21.25 14.97 28.25 19.17 32.45 26.16 25.45"/><path class="cls-2" d="M26.63,18.11l1.34,1.34,1.34,1.34-2.19,2.19-.96,2.48-6.99,6.99-4.2-4.2,6.99-6.99,2.48-.95,2.19-2.19m0-1.06l-.53,.53-2.08,2.08-2.33,.9-.15,.06-.11,.11-6.99,6.99-.53,.53,.53,.53,4.2,4.2,.53,.53,.53-.53,6.99-6.99,.11-.11,.06-.15,.9-2.33,2.07-2.07,.53-.53-.53-.53-1.34-1.34-1.34-1.34-.53-.53h0Z"/></g></g></svg>