<?xml version="1.0" encoding="UTF-8"?><svg id="Layer_1" xmlns="http://www.w3.org/2000/svg" viewBox="0 0 35.63 35.69"><defs><style>.cls-1{fill:#fff;}.cls-2{fill:#231f20;}</style></defs><g><rect class="cls-1" x=".63" y="12.91" width="7.96" height="1.58"/><path class="cls-2" d="M8.59,12.91v1.58H.63v-1.58h7.96m.63-.63H0v2.83H9.22v-2.83h0Z"/></g><g><polygon class="cls-1" points="14.43 21.27 8.17 27.51 8.93 28.3 15.2 22.06 14.43 21.27"/><path class="cls-2" d="M14.43,21.27l.77,.79-6.26,6.24-.77-.79,6.26-6.24m0-.89l-.45,.45-6.26,6.24-.44,.44,.43,.44,.77,.79,.44,.46,.45-.45,6.26-6.24,.44-.44-.43-.44-.77-.79-.44-.46h0Z"/></g><g><polygon class="cls-1" points="24.77 21.44 28.13 29.89 29.18 29.46 25.82 21.01 24.77 21.44"/><path class="cls-2" d="M25.82,21.01l3.36,8.45-1.05,.43-3.36-8.44,1.05-.43m.35-.82l-.59,.24-1.05,.43-.57,.24,.23,.58,3.36,8.44,.24,.59,.59-.24,1.05-.43,.57-.24-.23-.58-3.36-8.45-.24-.59h0Z"/></g><g><polygon class="cls-1" points="28.15 23.09 33.75 27.13 34.54 25.97 28.93 21.92 28.15 23.09"/><path class="cls-2" d="M28.93,21.92l5.61,4.05-.78,1.17-5.61-4.05,.78-1.17m-.16-.89l-.36,.54-.78,1.17-.34,.5,.49,.36,5.61,4.05,.53,.38,.36-.54,.78-1.17,.34-.5-.49-.36-5.61-4.05-.53-.38h0Z"/></g><g><rect class="cls-1" x="31.58" y="10.71" width="1.18" height="1.58"/><path class="cls-2" d="M32.76,10.71v1.58h-1.18v-1.58h1.18m.63-.63h-2.43v2.83h2.43v-2.83h0Z"/></g><g><rect class="cls-1" x="31.58" y="15.34" width="1.18" height="1.58"/><path class="cls-2" d="M32.76,15.34v1.58h-1.18v-1.58h1.18m.63-.63h-2.43v2.83h2.43v-2.83h0Z"/></g><g><rect class="cls-1" x="9.27" y="12.63" width="1.66" height="3.01"/><path class="cls-2" d="M10.92,12.63v3.01h-1.66v-3.01h1.66m.63-.63h-2.91v4.26h2.91v-4.26h0Z"/></g><g><rect class="cls-1" x="16.64" y="6.8" width="1.66" height="3.01"/><path class="cls-2" d="M18.3,6.8v3.01h-1.66v-3.01h1.66m.63-.63h-2.91v4.26h2.91V6.18h0Z"/></g><g><rect class="cls-1" x="11.68" y="12.03" width="4.07" height="4.75"/><path class="cls-2" d="M15.75,12.03v4.75h-4.07v-4.75h4.07m.63-.63h-5.33v6.01h5.33v-6.01h0Z"/></g><g><polygon class="cls-1" points="26.99 19.89 30.89 19.89 30.89 18.07 30.89 15.99 30.89 10.69 29.58 10.69 29.58 8.73 27.47 8.73 27.47 10.69 23.61 10.69 23.61 18.07 26.21 18.07 26.99 19.89"/><path class="cls-2" d="M29.58,8.73v1.97h1.31v9.19h-3.9l-.78-1.81h-2.6v-7.38h3.86v-1.97h2.11m.63-.63h-3.36v1.97h-3.86v8.63h2.81l.62,1.44,.16,.38h4.94V10.07h-1.31v-1.97h0Z"/></g><g><rect class="cls-1" x="15.12" y="24.63" width="8.74" height="5.01"/><path class="cls-2" d="M23.86,24.63v5.01H15.12v-5.01h8.74m.63-.63H14.49v6.27h9.99v-6.27h0Z"/></g><g><rect class="cls-1" x="16.64" y="10.69" width="6.11" height="1.34"/><path class="cls-2" d="M22.75,10.69v1.34h-6.11v-1.34h6.11m.63-.63h-7.37v2.59h7.37v-2.59h0Z"/></g><g><rect class="cls-1" x="33.31" y="10.58" width="1.44" height="6.52"/><path class="cls-2" d="M34.75,10.58v6.52h-1.44v-6.52h1.44m.63-.63h-2.7v7.77h2.7v-7.77h0Z"/></g><g><rect class="cls-1" x="16.64" y="13.46" width="6.11" height="1.34"/><path class="cls-2" d="M22.75,13.46v1.34h-6.11v-1.34h6.11m.63-.63h-7.37v2.59h7.37v-2.59h0Z"/></g><g><rect class="cls-1" x="16.64" y="16.35" width="6.11" height="1.34"/><path class="cls-2" d="M22.75,16.35v1.34h-6.11v-1.34h6.11m.63-.63h-7.37v2.59h7.37v-2.59h0Z"/></g><g><rect class="cls-1" x="16.64" y="19.48" width="6.11" height="1.34"/><path class="cls-2" d="M22.75,19.48v1.34h-6.11v-1.34h6.11m.63-.63h-7.37v2.59h7.37v-2.59h0Z"/></g><g><rect class="cls-1" x="16.64" y="22.61" width="6.11" height="1.34"/><path class="cls-2" d="M22.75,22.61v1.34h-6.11v-1.34h6.11m.63-.63h-7.37v2.59h7.37v-2.59h0Z"/></g></svg>