<svg id="Layer_1" data-name="Layer 1" xmlns="http://www.w3.org/2000/svg" xmlns:xlink="http://www.w3.org/1999/xlink" viewBox="0 0 30 30"><defs><style>.cls-1{fill:url(#linear-gradient);}.cls-2{isolation:isolate;fill:url(#linear-gradient-2);}</style><linearGradient id="linear-gradient" x1="-2739.53" y1="654.56" x2="-2739.53" y2="653.54" gradientTransform="matrix(30, 0, 0, -30, 82200.8, 19636.83)" gradientUnits="userSpaceOnUse"><stop offset="0" stop-color="#e4eb9a"/><stop offset="1" stop-color="#f59232"/></linearGradient><linearGradient id="linear-gradient-2" x1="-2726.09" y1="654.17" x2="-2724.79" y2="652.86" gradientTransform="matrix(26.02, 0, 0, -26, 70910.43, 16997.97)" gradientUnits="userSpaceOnUse"><stop offset="0" stop-color="#8a8b5d"/><stop offset="0.21" stop-color="#8f8854"/><stop offset="0.71" stop-color="#7d592a"/><stop offset="1" stop-color="#794b1f"/></linearGradient></defs><g id="Group_27" data-name="Group 27"><circle id="Ellipse_6" data-name="Ellipse 6" class="cls-1" cx="15" cy="15" r="15"/><path id="Path_23" data-name="Path 23" class="cls-2" d="M15,2A13,13,0,0,0,3,10.13a1.19,1.19,0,0,0-.08.2c0,.06-.05.12-.08.19A13.13,13.13,0,0,0,2,15a12.9,12.9,0,0,0,.12,1.76c0,.25.08.52.13.76A12.72,12.72,0,0,0,5,23.32a10.45,10.45,0,0,0,1.31,1.35,1,1,0,0,0,.19.16.37.37,0,0,0,.13.12l.09.08A13,13,0,1,0,15,2ZM16.1,26.17l-.11-.1a5,5,0,0,1-1.31-2.57c0-.21-.09-.42-.13-.64-.26.09-.35.2-.45.64a5.31,5.31,0,0,1-.86-1.63c-.17-.59-.27-1.18-.4-1.77-.21.11-.38.49-.48,1.08a5.34,5.34,0,0,1-.83-4.94,5.75,5.75,0,0,1,3.78-3.37c-.24-.24-.45-.49-.69-.72a7.3,7.3,0,0,0-2.83-1.69A9.16,9.16,0,0,0,8,10.13c-.83.09-1.64.25-2.46.38l.57-.41A14.24,14.24,0,0,1,8.91,8.65a12.4,12.4,0,0,1,2.73-.74,9.92,9.92,0,0,1,3,0A11.48,11.48,0,0,1,19.67,10c.21.15.21.17.06.37a3.89,3.89,0,0,1-1,.85,7.36,7.36,0,0,0-.64-.81A3.5,3.5,0,0,0,16,9.3a6.86,6.86,0,0,0-2.39,0l-1.87.38a.57.57,0,0,0-.13.08,6.27,6.27,0,0,0,3.16,0c-.11.79,0,1.49.84,1.79a1.34,1.34,0,0,0,1.44-.33.88.88,0,0,1,.21.68c0,.18.06.23.22.24A2.48,2.48,0,0,0,18.68,12c.36-.16.7-.33,1.07-.46.57-.2.78.17.73.65,0,.06,0,.11,0,.17a5.13,5.13,0,0,1,.66-.34.4.4,0,0,1,.32,0,7,7,0,0,1,.9.59,2.65,2.65,0,0,1,1.08,2.68,2.13,2.13,0,0,1-.06.35A3.94,3.94,0,0,0,21,14a15.88,15.88,0,0,0-3-.59,4.86,4.86,0,0,0-3.85,1.14,6.25,6.25,0,0,0-1.59,1.77,3.27,3.27,0,0,0-.38,2.25l0,.11a3.9,3.9,0,0,1,2-2.65c-.05.17-.12.33-.17.49A6.91,6.91,0,0,0,13.56,19a5.64,5.64,0,0,0,.93,3.05,1.47,1.47,0,0,0,0-.29,8.16,8.16,0,0,1,.87-3.46,5.48,5.48,0,0,1,2.94-2.76,4.7,4.7,0,0,1,2.26-.28,8.18,8.18,0,0,1,1.46.28A1.66,1.66,0,0,1,23.3,17c.19-.36.41-.7.57-1.07a4.48,4.48,0,0,0,.41-2.13,3.3,3.3,0,0,0-.89-2A5.76,5.76,0,0,0,21,10.31a1,1,0,0,1-.36-.22,13.69,13.69,0,0,0-3.46-2.64,13.07,13.07,0,0,0-3.27-1.19,11.67,11.67,0,0,0-3.68-.2,10.25,10.25,0,0,0-2.78.66A11.22,11.22,0,1,1,16.1,26.18Z"/></g></svg>