<?xml version="1.0" encoding="UTF-8"?>
<svg id="Layer_1" data-name="Layer 1" xmlns="http://www.w3.org/2000/svg" width="41" height="30" xmlns:xlink="http://www.w3.org/1999/xlink" viewBox="0 0 41 30">
  <defs>
    <style>
      .cls-1 {
        fill: url(#linear-gradient);
      }

      .cls-1, .cls-2 {
        fill-rule: evenodd;
        stroke-width: 0px;
      }

      .cls-2 {
        fill: url(#linear-gradient-2);
      }
    </style>
    <linearGradient id="linear-gradient" x1="20.56" y1=".61" x2="20.44" y2="27.83" gradientUnits="userSpaceOnUse">
      <stop offset="0" stop-color="#dde1ed"/>
      <stop offset="1" stop-color="#aab3d0"/>
    </linearGradient>
    <linearGradient id="linear-gradient-2" x1="20.48" y1="3.13" x2="20.52" y2="27.75" gradientUnits="userSpaceOnUse">
      <stop offset=".01" stop-color="#808aa6"/>
      <stop offset="1" stop-color="#1d325e"/>
    </linearGradient>
  </defs>
  <path class="cls-1" d="m41,3.67c0-.97-.39-1.91-1.09-2.6-.7-.69-1.64-1.08-2.63-1.08H3.72c-.99,0-1.93.39-2.63,1.08C.39,1.76,0,2.7,0,3.67v22.66c0,.97.39,1.91,1.09,2.6.7.69,1.64,1.08,2.63,1.08h33.56c.99,0,1.93-.39,2.63-1.08.7-.69,1.09-1.62,1.09-2.6V3.67Z"/>
  <path class="cls-2" d="m19.55,6.83h0s-.01,0,0,0Zm6.22,11.44l2,.14s.93.72.77,1c-.16.27-2.29,1.52-2.86,1.66-.57.14-1.48,0-2.41.18-.94.17-2.98-.93-3.5-1.25-.52-.32-1.3-1.65-1-1.87s2.25,1.56,3.48,2.39c1.23.82,2.48.14,2.86,0,.38-.14.87-.44.87-.44,0,0-.12-.13-.29-.42-.16-.29.07-1.39.07-1.39Zm-6.14-11.72l-.81-1.02c2.7-1.26,2.73-1.35,4.58-1.66.31-.02,1.13.05.75.14-1.27.29-4.37,2.4-4.52,2.54Zm3.2,2.31s-.91-1.09-.64-1.83c.27-.73,1.79-2.79,2.23-2.71.44.08-.94,3.3-1.19,3.77-.25.46-.39.77-.39.77Zm-3.12-2.18s.52.21,1.29,1.11,1.9,2.95,1.93,3.33c.03.38-.14.81-.21,1.59-.08.78,1.83,2.36,3,3.47,1.17,1.11,1.79,1.87,1.79,1.87l-2.07-.42-3-4.02-.29-.62s-.27-1.37-.21-1.94c.05-.57-2.21-4.37-2.21-4.37Zm-1.71,4.02l1.85.15s.46.04.65.4c.49.89.64,1.91.49,1.75,0,0-.15.12-.49-.24-.34-.35-.47-.54-1.07-.46-.45.06-.95-1.51-1.43-1.59Zm-2.92-1.52c0,.13.02.2.02.2-.03-.03-.04-.1-.02-.2Zm0,0c-.06-.77-.15-3.59,1.2-4.85.24-.23.47-.43.67-.6h-1.43c-1.05.85-1.75,1.39-1.96,2.32-2.79-.42-5.93.52-8.01,2.05,1.41-.33,3.34-.81,4.47,0-3.29,1.59-5.07,3.19-5.59,4.78h0s3.77-1.46,3.77-1.46c-1.94,1.89-3.36,4.79-3.77,7.62v3.14c.4-3.3,1.86-4.68,2.45-5.26-.35,4.3,1.6,7.84,7.06,8.67-.24-.09-.56-.27-.91-.59-.77-.71-1.68-2.09-2.2-4.58-.16.89-.42,1.95.14,3.02-3.94-3.63-2.89-10.69,1.69-13.04,1.55,1.32-1.66,5.34-1.66,5.34,1.87-1.12,2.21.28,2.21.28,0,0-1.43.9.21,3.95.07-1.46.97-3.16,3.77-1.43.64,1.53,3.68,3.15,5.07,3.05.42.26-3.29.3-4.71-.9-2.14,2.03-.29,4.32,2.34,5.51h17.27V3.77l-18.95-.03c.01,1.12-.09,3.61-.09,3.61l-1.78,1.66s.99-1.07.46-1.9c-.34-.54-1.59,1.42-1.73,2.09Zm23.93-5.6v22.82c0,.42-.17.83-.48,1.12-.31.3-.72.47-1.16.47H3.64c-.43,0-.85-.17-1.16-.47-.31-.3-.48-.7-.48-1.12V3.59c0-.42.17-.83.48-1.12.31-.3.72-.47,1.16-.47h33.72c.43,0,.85.17,1.16.47.31.3.48.7.48,1.12Z"/>
</svg>