<svg id="Layer_1" data-name="Layer 1" xmlns="http://www.w3.org/2000/svg" xmlns:xlink="http://www.w3.org/1999/xlink" viewBox="0 0 30 30"><defs><style>.cls-1{fill:url(#linear-gradient);}.cls-2{fill:url(#linear-gradient-2);}.cls-3{fill:url(#linear-gradient-3);}.cls-4{fill:url(#linear-gradient-4);}</style><linearGradient id="linear-gradient" x1="-2770.8" y1="654.71" x2="-2770.8" y2="653.14" gradientTransform="matrix(30, 0, 0, -30, 83138.88, 19636.83)" gradientUnits="userSpaceOnUse"><stop offset="0" stop-color="#fff"/><stop offset="1" stop-color="#5b6c75"/></linearGradient><linearGradient id="linear-gradient-2" x1="-2760.38" y1="654.41" x2="-2760.14" y2="653.19" gradientTransform="matrix(27, 0, 0, -27, 74539.93, 17656.64)" gradientUnits="userSpaceOnUse"><stop offset="0" stop-color="#d2d9de"/><stop offset="0.21" stop-color="#c1c8d0"/><stop offset="0.73" stop-color="#7f838c"/><stop offset="1" stop-color="#51505a"/></linearGradient><linearGradient id="linear-gradient-3" x1="-2455.34" y1="633.23" x2="-2454.37" y2="627.42" gradientTransform="matrix(6.96, 0, 0, -5.69, 17106.83, 3590.05)" xlink:href="#linear-gradient-2"/><linearGradient id="linear-gradient-4" x1="-1912.01" y1="569.47" x2="-1909.79" y2="550.38" gradientTransform="matrix(3, 0, 0, -1.74, 5746.56, 975.6)" xlink:href="#linear-gradient-2"/></defs><g id="Group_78" data-name="Group 78"><circle id="Ellipse_5" data-name="Ellipse 5" class="cls-1" cx="15" cy="14.98" r="15"/><g id="Group_11" data-name="Group 11"><path id="Path_20" data-name="Path 20" class="cls-2" d="M15.12,1.6a13.5,13.5,0,1,0,13.5,13.5A13.5,13.5,0,0,0,15.12,1.6Zm3.41,24.65a7.6,7.6,0,0,0-.45-1.07c-.24-.48-.57-.91-.85-1.38a3.44,3.44,0,0,1-.46-2.42.91.91,0,0,1,1-.82l.23.05,1.84.5.18.06a.51.51,0,0,1,.43.59v0c0,.35.13.46.47.39l.35-.07a5,5,0,0,0,1-.34,1.91,1.91,0,0,0,.93-1.7,2.92,2.92,0,0,0,0-.5h-.08l-.21.22c-.23.23-.45.49-.7.7a.89.89,0,0,1-1.07.13,11.56,11.56,0,0,1-1.1-.72A8.24,8.24,0,0,0,17,18.38a1.61,1.61,0,0,1-.29-.09.87.87,0,0,1-.5-.48,1.07,1.07,0,0,0-1.38-.64l-.09,0a2.19,2.19,0,0,0-.9.78c-.32.39-.33.39-.65,0a3.31,3.31,0,0,1-.84-2.83,4.88,4.88,0,0,1,.85-1.85c.31-.44.62-.89.94-1.33L14,11.84a4.32,4.32,0,0,0-2-1,3.78,3.78,0,0,0-1.83,0,4.85,4.85,0,0,0-2,1.14,5.76,5.76,0,0,0-1.54,2.54c-.06.2-.09.4-.14.6l.07.05,2.24-1.33.05.05c-.09.15-.18.3-.26.46-.28.5-.6,1-.83,1.52a5.39,5.39,0,0,0-.41,2,5.24,5.24,0,0,0,.46,2.47,7,7,0,0,0,2.05,2.53,16.92,16.92,0,0,0,3.41,2.06A8.13,8.13,0,0,1,15,26a4.58,4.58,0,0,1,.72.74c-.21,0-.42,0-.64,0a11.11,11.11,0,0,1-1.73-.14,10,10,0,0,0-2-1.58c-.8-.53-1.62-1.05-2.36-1.65a6.3,6.3,0,0,1-2.51-5.16V16.69c0-.07,0-.15,0-.27a2.46,2.46,0,0,0-.3.17A5,5,0,0,0,4.3,19.47a11.32,11.32,0,0,1-.73-2.74c.15-.43.3-.86.47-1.28a11.73,11.73,0,0,1,1.8-3,7.4,7.4,0,0,1,2.45-2c.44-.21.91-.36,1.37-.55l.21-.11,0-.09-2.48.58,0-.07c.36-.2.71-.43,1.08-.59a7.42,7.42,0,0,1,1.21-.39c.4-.09.81-.11,1.21-.17a9.43,9.43,0,0,0-4.68.42,1.56,1.56,0,0,1,.35-.27,9.81,9.81,0,0,1,2.62-1L9.75,8a9.48,9.48,0,0,0-4.37.64c.1-.16.22-.3.33-.46S6,8.06,6.13,8a12.22,12.22,0,0,1,3.25-.93,16.28,16.28,0,0,1,3.42-.16H13v-.1c-.74-.13-1.49-.28-2.24-.39a14.74,14.74,0,0,0-3.32,0H7.39A11.59,11.59,0,0,1,9.39,5a9.75,9.75,0,0,1,1.43.13,16.66,16.66,0,0,1,2.94.82l.46.16A4.64,4.64,0,0,0,11.69,4a7.47,7.47,0,0,1,.93-.24A4.45,4.45,0,0,1,14.89,5a3.43,3.43,0,0,1,.75,1.31,1.37,1.37,0,0,0,.16.32l.06,0s0-.07,0-.1a2.47,2.47,0,0,0-.26-1.1,4.81,4.81,0,0,0-1.25-1.89l-.09-.06.58,0a3.58,3.58,0,0,1,1.05,1.72c.09.31.16.63.24.94a1.87,1.87,0,0,0,.68,1l.8.62,3.51,2.7a.66.66,0,0,0,.19.09l.06-.06a5.35,5.35,0,0,0-.63-.87c-.54-.53-1.11-1-1.7-1.53A5.19,5.19,0,0,1,17.11,5,1,1,0,0,0,17,4.58c-.26-.36-.51-.72-.77-1.07a11.66,11.66,0,0,1,2.31,22.76Z"/><path id="Path_21" data-name="Path 21" class="cls-3" d="M24.55,12.57c-.38-.2-.75-.42-1.14-.61A2.23,2.23,0,0,0,23,11.8a4.8,4.8,0,0,0-.73.33c-.3.18-.29.42,0,.66s.32.3.46.46a.83.83,0,0,1,.24.58,2.25,2.25,0,0,1-1.19,2,5.05,5.05,0,0,1-1.19.4c-.6.15-1.22.25-1.83.38a8.52,8.52,0,0,0-.86.26.58.58,0,0,0-.15.16.64.64,0,0,0,.19.08c.2,0,.4,0,.6,0L22,16.8c.7-.07.83,0,1.16.61,0,0,.06.08.1.08a.16.16,0,0,0,.1-.08,1.05,1.05,0,0,0,.05-.19c.12-.75.24-1.5.35-2.26a3.45,3.45,0,0,1,.36-1.25c.18-.3.33-.61.5-.9C24.68,12.7,24.67,12.63,24.55,12.57Z"/><path id="Path_22" data-name="Path 22" class="cls-4" d="M18.66,11.65a1,1,0,0,1-.11-1.13.38.38,0,0,0-.11-.3.59.59,0,0,0-.3-.21,1,1,0,0,0-.45-.07,6,6,0,0,0-1.34.1,3.94,3.94,0,0,0-.49.14l-.2.07c0,.06.06.17.12.21s.22-.07.36,0a10.35,10.35,0,0,0,2,1.19A4.72,4.72,0,0,0,18.66,11.65Z"/></g></g></svg>