<?xml version="1.0" encoding="UTF-8"?><svg id="Layer_1" xmlns="http://www.w3.org/2000/svg" viewBox="0 0 138.44 178.01"><defs><style>.cls-1{fill:#fff;}</style></defs><path class="cls-1" d="m69.34,16.31s11.22,10.57,22.04,14.87c10.83,4.3,34.89,7.24,34.89,7.24l-.98,65.93s-1.96,26.61-22.3,41.48c-20.35,14.87-34.24,19.57-34.24,19.57,0,0-22.69-7.06-36.59-23.09-20.48-23.61-18.65-37.17-18.65-37.17l-1.3-66.33s21.13-1.76,32.87-6.46,24.26-16.04,24.26-16.04m.15-16.31l-8.21,7.41c-3.07,2.77-12.75,10.63-20.66,13.79-8.22,3.29-24.02,5.19-29.41,5.64l-11.21.94.22,11.25,1.29,65.78c-.28,5.24.92,21.51,21.6,45.35,15.95,18.39,41.02,26.35,42.08,26.68l3.72,1.16,3.69-1.25c.64-.22,15.89-5.47,37.48-21.24,24.55-17.94,27.1-48.97,27.19-50.29l.03-.35v-.35s.98-65.93.98-65.93l.16-10.78-10.71-1.31c-8.72-1.07-25.09-3.77-31.91-6.48-7.06-2.81-15.58-9.95-18.26-12.46l-8.07-7.56h0Z"/><path class="cls-1" d="m94.88,114.52s-18.77,9.78-25.63,9.78-25.63-9.78-25.63-9.78v-37.96h51.26v37.96Z"/><path class="cls-1" d="m87.71,73.24h-7v-16.05c-.43-1.72-2.76-9.02-11.57-9.02s-10.97,7.27-11.37,8.99v16.07h-7v-16.74l.05-.3c.92-5.19,5.94-15.02,18.32-15.02s17.5,9.79,18.5,14.97l.06.33v16.77Z"/></svg>