<?xml version="1.0" encoding="UTF-8"?><svg id="Layer_1" xmlns="http://www.w3.org/2000/svg" viewBox="0 0 35.84 35.87"><defs><style>.cls-1{fill:#fff;}.cls-1,.cls-2{fill-rule:evenodd;}</style></defs><path class="cls-2" d="m17.93,35.84c-.84.16-1.64-.39-1.8-1.23-.02-.11-.03-.22-.03-.34v-.56c-7.29-.86-13.05-6.61-13.92-13.9h-.59c-.87.01-1.58-.68-1.59-1.55,0-.1,0-.21.03-.31-.16-.84.39-1.64,1.23-1.8.11-.02.22-.03.33-.03h.59c.86-7.31,6.62-13.08,13.93-13.93v-.61c-.03-.85.64-1.56,1.49-1.59.11,0,.23,0,.34.03.84-.16,1.64.39,1.8,1.23.02.11.03.22.03.34v.61c7.32.85,13.09,6.63,13.94,13.95h.54c.85-.03,1.56.64,1.59,1.49,0,.11,0,.23-.03.34.16.82-.37,1.61-1.19,1.77-.12.02-.25.03-.37.03h-.54c-.85,7.32-6.63,13.1-13.95,13.95v.56c.03.85-.64,1.56-1.49,1.59-.11,0-.23,0-.34-.03Zm0-11.73c1.44,0,1.83,1.83,1.83,2.91v3.43c5.52-.82,9.86-5.16,10.68-10.68h-3.45c-1.37,0-2.97-.47-2.97-1.8,0-1.44,1.87-1.83,2.97-1.83h3.45c-.82-5.51-5.15-9.84-10.66-10.67v3.44c0,1.1-.39,2.97-1.83,2.97s-1.83-1.87-1.83-2.97v-3.44c-5.51.83-9.83,5.15-10.66,10.66h3.43c1.08,0,2.91.39,2.91,1.83s-1.9,1.86-2.91,1.86h-3.43c.84,5.49,5.15,9.79,10.65,10.62v-3.43c0-1.08.38-2.91,1.83-2.91Zm0-4.27c-1.03,0-1.87-.84-1.87-1.87s.84-1.87,1.87-1.87,1.87.84,1.87,1.87h0c0,1.03-.84,1.87-1.87,1.87h0Z"/><path id="Shape_6_copy_4" class="cls-1" d="m34.23,18.86h-1.35c-.47,7.54-6.48,13.55-14.02,14.03v1.36c0,.38-.13.69-.95.69s-.95-.31-.95-.69v-1.36c-7.51-.48-13.5-6.46-13.99-13.97h-1.39c-.38,0-.69-.16-.69-.98s.31-.95.69-.95h1.39c.48-7.53,6.48-13.53,14.01-14.01v-1.41c0-.38.13-.69.95-.69s.95.31.95.69v1.41c7.53.48,13.54,6.48,14.01,14.02h1.35c.38,0,.69.13.69.95s-.31.92-.69.92Zm-7.26-1.87h4.42c-.47-6.71-5.8-12.05-12.51-12.52v4.42c0,.38-.13,2.09-.95,2.09s-.95-1.71-.95-2.09v-4.42c-6.7.47-12.04,5.8-12.51,12.51h4.41c.38,0,2.03.13,2.03.95s-1.65.98-2.03.98h-4.4c.49,6.69,5.81,12,12.5,12.48v-4.4c0-.38.13-2.03.95-2.03s.95,1.65.95,2.03v4.4c6.71-.47,12.06-5.82,12.52-12.53h-4.42c-.38,0-2.09-.1-2.09-.92s1.71-.95,2.09-.95h0Zm-9.05,1.95c-.55,0-1-.45-1-1s.45-1,1-1,1,.45,1,1-.45,1-1,1Z"/></svg>