<svg xmlns="http://www.w3.org/2000/svg" width="334" height="315" viewBox="0 0 334 315">
  <defs>
    <style>
      .cls-1 {
        fill: #fff;
        fill-rule: evenodd;
      }
    </style>
  </defs>
  <path class="cls-1" d="M238.463,207.109L334,185.605,224.872,155.078l18.346-57.761L194.581,124.6,191.051,0l-45.6,98.07L90.573,26.894l-6.859,88.165L40.607,92.17l23.651,60.01L0,159.68l69.6,32.582L11.023,251.055,94.67,239.176,101.82,315l54.105-61.8,61.215,58.973-9.186-67.626,52.439,9.024Zm-44.571,6.381-20.811-3.569,3.614,26.93-22.167-28.033-30.357,29.221,2.962-35.323L91.7,208.253l25.65-23.292-26.773-8.744,25.511-3.018-9.36-23.89,17.1,9.1-5.577-37.169,26.04,39.1,28.223-47.815-4.682,49.631,19.319-10.888-7.309,23.015,43.3,12.107-37.934,8.61Z"/>
</svg>
