<?xml version="1.0" encoding="UTF-8"?><svg id="Layer_1" xmlns="http://www.w3.org/2000/svg" viewBox="0 0 35.84 35.87"><defs><style>.cls-1{fill:#fff;}</style></defs><path id="Path_2029" class="cls-1" d="m19.66,12.14c-5.83,0-10.56,4.73-10.56,10.56s4.73,10.56,10.56,10.56,10.56-4.73,10.56-10.56h0c0-5.83-4.73-10.56-10.56-10.56m0,16.93c-3.51,0-6.36-2.85-6.36-6.36,0-3.51,2.85-6.36,6.36-6.36,3.51,0,6.36,2.85,6.36,6.36,0,3.51-2.85,6.36-6.36,6.36"/><path id="Path_2030" class="cls-1" d="m22.51,18.47c-.14-.09-.28-.18-.42-.26-.44-.24-.91-.41-1.4-.51-.68-.14-1.38-.14-2.05,0-.49.1-.96.27-1.4.51-.14.08-.28.16-.42.26-1.41.95-2.25,2.53-2.25,4.22,0,.18,0,.35.03.52.03.34.1.67.2.99.05.16.11.32.17.47.52,1.22,1.49,2.19,2.71,2.71.15.06.31.12.47.17.99.31,2.04.31,3.03,0,.16-.05.32-.11.47-.17,1.22-.52,2.19-1.49,2.71-2.71.06-.15.12-.31.17-.47.1-.32.17-.66.2-.99.02-.17.03-.35.03-.52,0-1.69-.84-3.28-2.24-4.22"/><path id="Path_2042" class="cls-1" d="m15.2,1.79l-.48,7.23s-2.19.19-5.62,3.69c-3.8,3.87-4.56,6.36-4.6,6.34l1.99,1.24s2.9-5.76,6.05-7.61c4.51-2.65,9.55-1.57,9.55-1.57l3.94,1.13-6.36-5.05V1.8h-4.46Z"/></svg>