<?xml version="1.0" encoding="UTF-8"?><svg id="Layer_1" xmlns="http://www.w3.org/2000/svg" viewBox="0 0 35.84 35.87"><defs><style>.cls-1{fill:#fff;}</style></defs><path class="cls-1" d="m34.07,26.41c0,1.94-1.4,3.52-3.12,3.52s-3.12-1.58-3.12-3.52,3.12-8.98,3.12-8.98c0,0,3.12,7.04,3.12,8.98Z"/><path class="cls-1" d="m29.74,6.18l-7.44,8.72-.26-.67c-.26-.69-1.03-1.03-1.72-.77l-11.92,4.56c-.69.26-1.03,1.03-.77,1.72l.1.25-1.62-1.17-4.53,1.78,4.81,9.59s3.21-.32,5.06-.62c.35.45.96.63,1.52.42l11.92-4.56c.49-.19.81-.64.85-1.14l5.48-16.97,3.01-1.37-.5-1.31-4.01,1.53ZM3.31,21.22l2.81-1.03,2.23,1.42,2.6,6.81-3.94.6-3.7-7.8Z"/><rect class="cls-1" x="8.36" y="11.56" width="8.31" height="3.53" rx="1.76" ry="1.76" transform="translate(-3.88 5.24) rotate(-20.54)"/></svg>