<?xml version="1.0" encoding="UTF-8"?><svg id="Layer_1" xmlns="http://www.w3.org/2000/svg" viewBox="0 0 35.84 35.87"><defs><style>.cls-1{fill:#fff;}</style></defs><path class="cls-1" d="m20.47,20.31c0-.92-.49-1.72-1.22-2.17-.07-.04-.14-.08-.22-.12-.05-.02-.09-.04-.14-.06-.3-.12-.62-.19-.96-.19s-.64.06-.92.17c-.21.08-.41.19-.6.33-.07.05-.13.1-.19.15-.06.05-.11.11-.17.17-.07.07-.13.15-.19.23-.09.12-.16.24-.22.38-.16.33-.25.71-.25,1.1,0,.66.25,1.26.66,1.71.05.06.11.11.17.17.45.41,1.05.66,1.7.66.33,0,.64-.06.93-.18.06-.02.11-.05.17-.07.07-.04.15-.07.22-.12.73-.44,1.22-1.25,1.22-2.17Z"/><path class="cls-1" d="m17.76,27.54c-1.68,0-3.22-.59-4.43-1.57-.59.47-1.24.94-1.94,1.41,1.68,1.55,3.92,2.5,6.38,2.5s4.77-.98,6.45-2.57c-.7-.47-1.35-.95-1.93-1.42-1.22,1.02-2.8,1.64-4.52,1.64Z"/><path class="cls-1" d="m10.71,20.48c0-2.97,1.84-5.51,4.44-6.55-.13-.73-.23-1.54-.31-2.38-3.76,1.23-6.48,4.77-6.48,8.93,0,.47.04.94.1,1.39.78-.36,1.54-.67,2.26-.93-.01-.15-.02-.31-.02-.47Z"/><path class="cls-1" d="m24.82,20.48c0,.14,0,.27-.01.4.71.25,1.48.56,2.26.91.06-.43.09-.87.09-1.32,0-4.04-2.56-7.49-6.14-8.82-.08.86-.19,1.66-.32,2.4,2.43,1.12,4.12,3.57,4.12,6.41Z"/><path class="cls-1" d="m20.17,8.51c0,3.61-.51,6.73-1.26,8.25,0,0-.66-.1-1.03-.1s-1.02.12-1.02.12c-.75-1.51-1.27-4.64-1.27-8.27,0-5.09,1.02-7.74,2.29-7.74s2.29,2.64,2.29,7.74Z"/><path class="cls-1" d="m27.13,27.95c-3.16-1.75-5.64-3.72-6.6-5.11,0,0,.41-.53.58-.85s.39-.95.39-.95c1.68.07,4.68,1.14,7.85,2.9,4.45,2.47,6.27,4.65,5.66,5.75s-3.42.72-7.88-1.75Z"/><path class="cls-1" d="m8.71,27.95c3.16-1.75,5.64-3.72,6.6-5.11,0,0-.41-.53-.58-.85s-.39-.95-.39-.95c-1.68.07-4.68,1.14-7.85,2.9C2.03,26.42.22,28.6.83,29.7s3.42.72,7.88-1.75Z"/></svg>