<?xml version="1.0" encoding="UTF-8"?><svg id="Layer_1" xmlns="http://www.w3.org/2000/svg" viewBox="0 0 35.84 35.87"><defs><style>.cls-1{fill:#fff;}</style></defs><path class="cls-1" d="m18.32,2.72s-4.96,1.96-4.4,8.1c.44,4.8.98,5.05,1.17,6.61s-.47,2.64-.47,2.64c0,0,.34-.88-.33-2.62s-2.28-3.45-2.28-3.45c0,0,0,2.46-1.48,4.34s-1.93,2.78-1.79,5.64,3.89,7.79,9.22,7.48,6.16-1.84,6.85-2.78c1.05-1.43.85-2.37.85-2.37,0,0-.55.71-1.85,1.03s-2.09.05-2.09.05c0,0,5.06-2.06,5.37-6.31s-2.91-7.65-2.91-7.65c0,0,.24,1.56-.3,2.63-.4.79-1.43,1.16-1.43,1.16,0,0,.44-1.57-.79-4.73-.87-2.23-2.73-3.06-3.55-4.8-1.37-2.9.2-4.96.2-4.96Z"/></svg>