<?xml version="1.0" encoding="UTF-8"?><svg id="Layer_1" xmlns="http://www.w3.org/2000/svg" viewBox="0 0 35.84 35.87"><defs><style>.cls-1{fill:#fff;}.cls-2{fill:#e95e5e;}</style></defs><path class="cls-1" d="m3.92,24.03l.69-.57c.11-.09.5-.39.97-.55,1.29-.42,2.73-.4,3.01-.39l8.27.02-.06-.05,2.37.06,4.54.11h.5s.31.27.31.27l4.16,3.46c.17-.36.32-.83.38-1.43.21-1.94-3.1-2.62-3.1-2.62l-8.4-2.28h.12s0,0,0,0h6.06s2.45-16.32,2.45-16.32c0,0,.29-1.03-1.05-1.87-1.05-.66-2.25-.65-2.25-.65h-2.01s0,0,0,0h-2.22s-.65-.04-1.16.33c-.49.36-1.07,1.18-1.07,1.18L6.89,19.29l-5.49.31v11.77h12.34s1.46.07,2.27-.15c.18-.05.35-.1.52-.14l-11.77-6.57-.84-.47Z"/><path class="cls-2" d="m33.65,31.7l-5.48-4.56-2.7-2.25-1.8-1.5-4.54-.11,5.95,5.06,7.15,6.07.53-.05.55-.06s.23-.03.5-.22c.16-.11.33-.28.48-.52.53-.86-.65-1.86-.65-1.86Z"/><path class="cls-1" d="m21.03,26.53l-3.88-3.24-8.58-.02s-.19,0-.49,0c0,0,0,0-.01,0-.05,0-.09,0-.14,0-.11,0-.24.01-.37.03-.06,0-.13.01-.2.02-.1.01-.21.02-.31.04-.07.01-.14.02-.22.04-.04,0-.07.01-.11.02-.22.04-.44.1-.65.17-.09.03-.18.08-.27.12-.02,0-.03.02-.05.03-.16.1-.28.2-.28.2l7.75,4.33,4.45,2.49,4.62,2.58s1.83,1.14,2.43,1.28c0,0,0,0,0,0,.02,0,.04,0,.06.01,0,0,.02,0,.02,0,.02,0,.03,0,.05,0,0,0,.02,0,.03,0,.02,0,.03,0,.05,0,.01,0,.02,0,.03,0,.02,0,.03,0,.05,0,.01,0,.03,0,.04,0,0,0,.02,0,.03,0,.02,0,.03,0,.05,0,.01,0,.02,0,.03,0,.02,0,.04,0,.05,0,0,0,.02,0,.03,0,.02,0,.05,0,.07,0,0,0,0,0,0,0,.03,0,.06,0,.09,0,0,0,.02,0,.02,0,.02,0,.04,0,.06,0,.01,0,.02,0,.03,0,.02,0,.04,0,.05,0,.01,0,.02,0,.04,0,.02,0,.04,0,.05,0,.01,0,.02,0,.04,0,.02,0,.04,0,.05,0,.01,0,.02,0,.03,0,.03,0,.05,0,.08,0,0,0,0,0,0,0,.03,0,.06,0,.09,0,.01,0,.02,0,.03,0,.02,0,.04,0,.05,0,.01,0,.02,0,.04,0,.02,0,.03,0,.05,0,.01,0,.02,0,.04,0,.02,0,.03,0,.05,0,.01,0,.02,0,.04,0,.02,0,.03,0,.04,0,.01,0,.02,0,.03,0,.02,0,.03,0,.05,0,.02,0,.03,0,.05,0,.02,0,.03,0,.04,0,.01,0,.02,0,.04,0,.01,0,.02,0,.03,0,.01,0,.03,0,.04,0,0,0,.02,0,.02,0,.01,0,.02,0,.04,0,0,0,.02,0,.02,0,.01,0,.02,0,.03,0,0,0,0,0,.01,0,.14,0,.23-.02.23-.02l3.5-.22-6.71-5.61-2.71-2.26Z"/></svg>