<?xml version="1.0" encoding="UTF-8"?><svg id="Layer_1" xmlns="http://www.w3.org/2000/svg" viewBox="0 0 35.84 35.87"><defs><style>.cls-1{fill:#fff;}.cls-2{fill:#e95e5e;}</style></defs><path class="cls-2" d="m26.98,22.55l1.8-17.89s.2-1.01-.74-1.85c-.73-.65-1.57-.65-1.57-.65h-1.62s-3.25,20.39-3.25,20.39h5.37Z"/><path class="cls-1" d="m28.43,24.8l-8.22-2.25h.12s3.25-20.39,3.25-20.39h-2.17s-.64-.04-1.13.33c-.48.36-1.05,1.17-1.05,1.17L7.75,22.09h-3.38v11.61h12.08s1.43.07,2.23-.15c1.93-.54,3.07-.91,3.07-.91l8.47-2.79s1.05-.56,1.25-2.47c.2-1.91-3.04-2.59-3.04-2.59Z"/></svg>