<?xml version="1.0" encoding="UTF-8"?><svg id="Layer_1" xmlns="http://www.w3.org/2000/svg" viewBox="0 0 25.19 25.19"><defs><style>.cls-1{fill:#fff;}</style></defs><path class="cls-1" d="m21.03,0H4.16C1.86,0,0,1.86,0,4.16v16.88c0,2.3,1.86,4.16,4.16,4.16h16.88c2.3,0,4.16-1.86,4.16-4.16V4.16c0-2.3-1.86-4.16-4.16-4.16ZM5.26,7.53c-1.26,0-2.27-1.02-2.27-2.27s1.02-2.27,2.27-2.27,2.27,1.02,2.27,2.27-1.02,2.27-2.27,2.27Zm7.34,7.34c-1.26,0-2.27-1.02-2.27-2.27s1.02-2.27,2.27-2.27,2.27,1.02,2.27,2.27-1.02,2.27-2.27,2.27Zm7.34,7.34c-1.26,0-2.27-1.02-2.27-2.27s1.02-2.27,2.27-2.27,2.27,1.02,2.27,2.27-1.02,2.27-2.27,2.27Z"/></svg>