<?xml version="1.0" encoding="UTF-8"?><svg id="Layer_1" xmlns="http://www.w3.org/2000/svg" viewBox="0 0 37.76 28.96"><defs><style>.cls-1{fill:#fff;}</style></defs><g><path class="cls-1" d="m37.76,0H0v9.39h10.61c1.03-3.6,4.34-6.23,8.27-6.23s7.23,2.63,8.27,6.23h10.61V0Z"/><path class="cls-1" d="m18.88,20.38c-4.43,0-8.08-3.35-8.55-7.66H0v16.24h37.76V12.72h-10.33c-.47,4.31-4.12,7.66-8.55,7.66Z"/></g><path class="cls-1" d="m18.88,5.13c-3.72,0-6.73,3.01-6.73,6.73s3.01,6.73,6.73,6.73,6.73-3.01,6.73-6.73-3.01-6.73-6.73-6.73Zm1.16,6.84v3h-2.25v-2.96c-.79-.4-1.33-1.21-1.33-2.15,0-1.34,1.08-2.42,2.42-2.42s2.42,1.08,2.42,2.42c0,.91-.51,1.7-1.26,2.11Z"/></svg>