<?xml version="1.0" encoding="UTF-8"?><svg id="Layer_1" xmlns="http://www.w3.org/2000/svg" viewBox="0 0 86 95"><defs><style>.cls-1{fill:#fff;}.cls-2{fill:#3b3b3b;}</style></defs><path class="cls-1" d="m14.73,17.99c2.73,4.21,8.32,5.59,12.72,3.05,4.4-2.54,6-8.06,3.72-12.54l11.27-6.51c1.91-1.1,4.36-.45,5.46,1.46l35.5,61.49c1.1,1.91.45,4.36-1.46,5.46l-11.27,6.51c-.08-.15-.15-.29-.24-.44-2.62-4.54-8.43-6.1-12.98-3.48-4.54,2.62-6.1,8.43-3.48,12.98.08.15.17.29.26.43l-11.27,6.51c-1.91,1.1-4.36.45-5.46-1.46L2,29.96c-1.1-1.91-.45-4.36,1.46-5.46l11.27-6.51Z"/><path class="cls-2" d="m20.22,37.78l4.08,3.42,4.52-2.82-2,4.94,4.08,3.42-5.31-.37-2,4.94-1.29-5.17-5.31-.37,4.52-2.82-1.29-5.17Z"/><path class="cls-2" d="m32.94,29.83l4.08,3.42,4.52-2.82-2,4.94,4.08,3.42-5.31-.37-2,4.94-1.29-5.17-5.31-.37,4.52-2.82-1.29-5.17Z"/><path class="cls-2" d="m45.66,21.89l4.08,3.42,4.52-2.82-2,4.94,4.08,3.42-5.31-.37-2,4.94-1.29-5.17-5.31-.37,4.52-2.82-1.29-5.17Z"/><rect class="cls-2" x="26.58" y="43.82" width="42.12" height="25.6" transform="translate(-21.92 31.4) rotate(-30)"/><path class="cls-1" d="m31.87,56l10.02-5.78,1.25,2.16-7.65,4.42,2.29,3.97,7.03-4.06,1.25,2.16-7.03,4.06,2.36,4.09,7.77-4.49,1.25,2.16-10.14,5.86-8.4-14.55Zm12.89-7.44l5.2-3c4.14-2.39,7.13-1.99,8.97,1.19,1.84,3.19.69,5.98-3.45,8.37l-2.83,1.63,2.88,4.99-2.37,1.37-8.4-14.55Zm11.95,2.22c.44-.77.38-1.65-.19-2.63s-1.29-1.47-2.17-1.46c-.88-.01-1.88.31-3.02.97l-2.95,1.7,3.02,5.24,2.95-1.7c1.14-.66,1.92-1.36,2.36-2.11Z"/></svg>