<?xml version="1.0" encoding="UTF-8"?><svg id="Layer_1" xmlns="http://www.w3.org/2000/svg" viewBox="0 0 46 46"><defs><style>.cls-1{fill:#fff;}</style></defs><path class="cls-1" d="m22.36,41.91c-8.6,0-12.96-6.63-13.21-11.12-.24-4.4.48-6.05,2.65-8.5,1.8-2.04.79-6.52.67-7.02l-.36-1.5,1.1,1.05.31.31s2.76,2.6,3.92,5.28c.05.12.07.16.08.18,0,0,.02.03.07.17l.25.61-1.51.02s-.18.19-.21.75c-.02.2,0,.5.35.54h1.58v2.23h-2.25c-.12,0-.17-.02-.23-.02-.12,0-.24.02-.36.05-.17.05-.32.14-.45.26-.29.26-.35.83-.35,1.13v.93l-.15.13c-.71.62-1.16,1.87-1.16,3.2s.46,2.58,1.15,3.2l.15.13v.73c-.04.52.1.99.38,1.37.12.15.63.27,1.18.27h13.08c.34-.03.66-.15.92-.37.07-.08.14-.24.19-.47l.04-.19v-3.06h1.88v2.45l-.23.12c-.22.12-.43.22-.62.32.54-.02,1.11-.09,1.67-.21.09-.02.16-.04.24-.06l.05-.02h.69l.02-.21.26-.11c1.06-.43,1.56-.96,1.62-1.01l.57-.62.2.81c.02.06.36,1.64-1.52,3.91l-.18.21c-1.18,1.45-2.95,3.63-11.63,4.09-.29.02-.58.03-.87.03,0,0,.02.02.02.02Zm11.68-9.39c.04-.76.08-1.49.08-1.92,0-.89-.15-3.26-.21-4.21h-1.79v2.7h-1.88v-2.89c.03-.43-.1-.81-.35-1.12-.07-.05-.19-.13-.31-.17-.1-.04-.21-.04-.31-.04h-.71v-2.2h1.45s.29-.11.29-.56c0-.68-.33-.79-.34-.79l-4.34.02c-.08.04-.22.41-.25.76,0,.3.29.55.38.59h1.54v2.2h-7.94v-2.2h1.36c.11-.08.34-.34.34-.66,0-.37-.12-.56-.18-.62l-2.18-.03.96-.78c.46-.37.58-1.27.57-1.55-.16-1.13-.62-2.03-1.1-2.96-.43-.84-.87-1.7-1.13-2.82-.37-3.54.19-6.12,1.63-7.73,1.37-1.52,3.07-1.63,3.56-1.63h1.95l-1.7.85s-.18.1-.29.44c-.14.46-.2,1.61,1.07,3.99.58,1.09,1.38,1.64,2.23,2.23,1.05.72,2.25,1.54,3.09,3.46.96,2.2,1.53,3.78,1.67,4.74.54-.26,1.24-.71,1.57-1.29.81-1.44.46-3.6.46-3.62l-.22-1.31.97.91c.22.21,5.55,5.28,5.02,11.75-.21,2.53-1.62,4.84-4.2,6.87l-.79.62.06-.99s-.02-.02-.02-.02Zm-18.49.88v-2.21h4.6v2.21h-4.6Zm0-2.51v-2.22h4.6v2.22h-4.6Zm0-2.51v-2.22h4.6v2.22h-4.6Z"/><path d="m23.14,4.13h.05c-.09.04-1.65.85.59,5.07,1.38,2.61,3.88,2.36,5.34,5.7,2.05,4.68,1.66,5.24,1.65,5.25,0,0,1.74-.56,2.42-1.74.91-1.6.51-3.94.51-3.94,0,0,5.44,5.1,4.91,11.46-.23,2.86-2.09,5.05-4.05,6.61.04-.77.08-1.53.08-1.96,0-1.16-.24-4.67-.25-4.69h-2.68v2.72h-1v-2.46c.04-.51-.13-1.02-.46-1.41-.15-.13-.32-.24-.51-.31-.14-.04-.31-.07-.46-.07h-.26v-1.32h1.01c.2-.02.73-.29.74-1.02,0-.94-.54-1.23-.74-1.24l-4.42.02c-.61.02-.69,1.18-.69,1.19,0,.61.56,1.05.76,1.06h1.18v1.32h-7.11v-1.32h1c.2-.02.7-.49.72-1.11.02-.71-.35-1.07-.55-1.09h-1.03c.6-.5.75-1.56.74-1.93-.32-2.34-1.71-3.59-2.26-5.92-.88-8.64,4.17-8.87,4.78-8.87m.06,0h0m-10.37,10.89l.31.31s2.72,2.58,3.85,5.17c.16.37.04.08.15.34h-.85c-.22.04-.6.31-.66,1.19,0,0-.09.92.75,1.01h1.19v1.35h-1.82c-.08,0-.15-.02-.23-.02-.16,0-.33.03-.49.07-.23.07-.45.2-.63.36-.53.49-.49,1.46-.49,1.48v.71c-.77.68-1.31,2.03-1.31,3.56s.54,2.88,1.31,3.56v.53c-.04.59.12,1.18.47,1.65.34.43,1.34.45,1.56.45h13.2c.44-.03.86-.2,1.2-.49.19-.2.29-.47.33-.72h.37c.55,0,1.24-.05,2.05-.23.09-.02.18-.04.26-.06h1.06s0-.13.02-.35c1.23-.5,1.78-1.11,1.79-1.13,0,.02.32,1.42-1.44,3.55-1.17,1.41-2.57,3.7-11.57,4.16-.29.02-.58.02-.85.02-8.43,0-12.63-6.63-12.86-10.77-.23-4.29.45-5.86,2.56-8.24,2.09-2.36.78-7.44.77-7.5m6.85,11.54v1.33h-3.73v-1.33h3.73m0,2.53v1.33h-3.73v-1.33h3.73m0,2.54v1.33h-3.73v-1.33h3.73m12.03,1.02v1.75c-.37.2-.71.37-1,.5v-2.26h1M23.14,3.23h0c-.54,0-2.42.13-3.92,1.79-1.55,1.71-2.14,4.42-1.76,8.07v.06l.02.05c.28,1.18.74,2.08,1.19,2.94.48.94.9,1.75,1.05,2.83,0,.31-.15.94-.4,1.16l-1.11.9-.22-.54c-.04-.1-.06-.16-.09-.21,0-.03-.03-.07-.06-.14-1.21-2.81-4.05-5.46-4.08-5.48l-.29-.28-2.04-2,.52,2.8v.02l.02.04c.12.49,1.09,4.78-.58,6.67-2.18,2.45-3.04,4.23-2.79,8.88.26,4.68,4.81,11.63,13.76,11.63.3,0,.59,0,.9-.03,8.95-.46,10.81-2.76,12.05-4.28l.17-.22c2.01-2.44,1.66-4.15,1.62-4.34l-.39-1.54-1.12,1.12s-.49.53-1.49.94h-.03l1.07-.84c2.7-2.13,4.17-4.57,4.39-7.24.55-6.73-4.96-11.98-5.2-12.19l-1.96-1.83.46,2.64s.33,2.05-.4,3.34c-.19.32-.53.61-.87.83-.22-.89-.69-2.22-1.58-4.26-.9-2.05-2.16-2.91-3.26-3.68-.85-.58-1.57-1.09-2.1-2.09-1.38-2.59-1.16-3.66-.96-3.86l3.35-1.61-3.77-.08h-.07l-.03.03Zm2.74,18.47h3.94s.05.15.05.32c0,.05,0,.1-.02.13h-1.73v3.12h1.16c.06,0,.13,0,.18.03.05.02.1.04.15.08.15.21.23.47.22.73v3.42h2.8v-2.72h.94c.07,1.1.19,3.02.19,3.79,0,.34-.03.97-.08,1.91l-.11,1.81h0v.07h-.34l-.12.04c-.06.02-.13.04-.21.05-.1.02-.19.04-.28.05v-2.77h-2.8v3.49l-.03.13c-.04.15-.07.23-.09.26-.17.13-.39.22-.6.22h-13.11c-.45,0-.8-.07-.91-.13-.19-.27-.29-.63-.26-1v-1.02l-.31-.27c-.61-.54-1.01-1.67-1.01-2.89,0-1.38.51-2.44,1.02-2.89l.31-.27v-1.12c0-.35.08-.71.2-.82.08-.08.18-.13.29-.16.07-.02.14-.04.22-.04h2.95v-3.15h-1.93v-.04c0-.17.04-.29.05-.36h.57l1.33-.02h2.06v.18c0,.08-.04.16-.08.22h-1.63v3.12h8.9v-3.13h-1.87s-.06-.09-.07-.13c0-.11.04-.22.07-.32h0l-.04.04.03.04Zm-5.3,3.97h-5.53v8.19h5.53v-8.19h0Z"/></svg>