<?xml version="1.0" encoding="UTF-8"?><svg id="Layer_1" xmlns="http://www.w3.org/2000/svg" viewBox="0 0 34.33 18"><defs><style>.cls-1{fill:#fff;}</style></defs><path class="cls-1" d="m8.36,11.91c1.41,0,2.61.82,3.18,2.01.57-1.19,1.78-2.01,3.18-2.01h5.82c1.32,0,2.46.73,3.07,1.81.61-1.07,1.75-1.81,3.07-1.81h2.22c.05-.3.09-.6.09-.91v-6c0-.34-.04-.67-.1-.99-.02-.11-.07-.21-.09-.32-.06-.21-.11-.41-.19-.61-.05-.12-.12-.23-.18-.34-.09-.17-.17-.34-.27-.5-.08-.11-.17-.21-.25-.32-.11-.14-.22-.29-.34-.41-.1-.1-.21-.19-.32-.28-.13-.11-.26-.23-.4-.33-.12-.08-.25-.15-.38-.22-.15-.09-.29-.17-.45-.24-.14-.06-.28-.1-.42-.15-.16-.06-.32-.11-.49-.15-.15-.03-.31-.05-.46-.07-.22-.03-.43-.07-.65-.07h-13c-.22,0-.44.04-.65.07-.15.02-.31.03-.46.07-.17.04-.33.1-.49.15-.14.05-.29.09-.42.15-.16.07-.3.16-.45.25-.13.07-.26.14-.37.22-.14.1-.27.22-.4.33-.11.09-.22.18-.32.28-.12.13-.23.27-.34.41-.08.11-.18.21-.25.32-.1.16-.18.33-.27.5-.06.11-.13.22-.18.34-.08.19-.13.4-.19.61-.03.11-.07.21-.09.32-.06.32-.1.65-.1.99v6c0,.31.04.61.09.91h2.27Zm.91-7.91h16v2.18H9.27v-2.18Z"/><path class="cls-1" d="m10.86,14.96c-.01-.06-.03-.11-.05-.16-.03-.1-.05-.21-.09-.3-.02-.06-.06-.12-.09-.17-.04-.08-.08-.17-.13-.25-.04-.06-.08-.11-.12-.16-.06-.07-.11-.14-.17-.21-.05-.05-.1-.09-.15-.14-.07-.06-.13-.12-.21-.17-.06-.04-.12-.07-.17-.11-.08-.05-.16-.09-.24-.13-.06-.03-.13-.05-.19-.08-.09-.03-.17-.06-.26-.08-.07-.02-.14-.03-.21-.04-.13-.02-.26-.04-.4-.04h0s-1.98,0-1.98,0c0,0,0,0,0,0,0,0,0,0,0,0h-3.83c-.14,0-.27.02-.4.04-.07.01-.14.02-.21.04-.09.02-.18.05-.26.08-.07.02-.13.05-.19.08-.08.04-.16.08-.24.13-.06.04-.12.07-.17.11-.07.05-.14.11-.21.17-.05.05-.1.09-.15.14-.06.07-.12.14-.17.21-.04.05-.08.1-.12.16-.05.08-.09.16-.14.25-.03.06-.06.11-.09.17-.04.1-.07.2-.09.3-.01.05-.04.11-.05.16-.03.16-.05.32-.05.49,0,0,0,0,0,0,0,.14.02.28.04.41,0,.06.02.12.03.18.02.1.05.19.09.29.02.05.04.11.06.16.04.1.1.19.16.29.02.04.04.08.07.12.18.25.4.47.65.65.04.03.08.05.12.07.09.06.19.11.28.15.05.02.11.04.16.06.09.03.19.07.29.09.06.01.12.02.18.03.13.02.27.04.41.04h0s5.82,0,5.82,0h0c.14,0,.27-.02.41-.04.06-.01.12-.02.18-.03.1-.02.19-.05.29-.09.05-.02.11-.04.16-.06.1-.04.19-.1.28-.15.04-.03.09-.05.12-.07.13-.09.25-.18.35-.29,0,0,0,0,0,0,.09-.09.16-.18.23-.28.02-.02.04-.04.06-.07.03-.04.05-.09.08-.14.05-.09.1-.17.15-.27.03-.06.04-.12.07-.17.03-.09.06-.18.08-.27,0-.02,0-.04.01-.06h-.1c-.14,0-.26-.04-.4-.06.17.02.33.04.5.05,0-.04.02-.09.02-.13.02-.13.04-.26.04-.4,0-.17-.02-.34-.05-.5Z"/><path class="cls-1" d="m23.04,14.96c-.01-.05-.03-.1-.05-.16-.03-.1-.05-.21-.1-.31-.02-.06-.06-.11-.09-.17-.04-.09-.08-.17-.14-.25-.04-.06-.08-.11-.12-.16-.06-.07-.11-.14-.17-.21-.05-.05-.1-.09-.15-.14-.07-.06-.14-.12-.21-.17-.06-.04-.11-.07-.17-.11-.08-.05-.16-.09-.24-.13-.06-.03-.13-.05-.19-.08-.09-.03-.17-.06-.26-.08-.07-.02-.14-.03-.21-.04-.13-.02-.26-.04-.4-.04h0s-5.82,0-5.82,0h0c-.14,0-.27.02-.4.04-.07.01-.14.02-.21.04-.09.02-.18.05-.26.08-.07.02-.13.05-.19.08-.08.04-.16.08-.24.13-.06.04-.12.07-.17.11-.07.05-.14.11-.21.17-.05.05-.1.09-.15.14-.06.07-.12.14-.17.21-.04.05-.08.1-.12.16-.05.08-.09.16-.14.25-.03.06-.06.11-.09.17-.04.1-.07.2-.09.3-.01.05-.04.11-.05.16-.03.16-.05.32-.05.49,0,0,0,0,0,0,0,.14.02.28.04.41,0,.05.02.09.03.14,0,.02,0,.03,0,.05.02.1.05.19.09.29.02.05.04.11.06.16.04.1.1.19.15.29.02.04.04.08.07.12.03.04.06.07.08.1.16.21.35.4.57.55.04.03.08.05.12.07.09.06.19.11.28.15.05.02.11.04.16.06.09.03.19.07.29.09.06.01.12.02.18.03.13.02.27.04.41.04h0s5.82,0,5.82,0h0c.14,0,.27-.02.41-.04.06-.01.12-.02.18-.03.1-.02.19-.05.29-.09.05-.02.11-.04.16-.06.1-.04.19-.1.28-.15.04-.03.09-.05.12-.07.13-.09.25-.18.35-.29,0,0,0,0,0,0,.08-.08.14-.16.21-.25.03-.03.06-.06.08-.1.03-.04.05-.09.08-.14.05-.09.1-.17.15-.27.03-.06.04-.12.07-.17.03-.09.06-.18.08-.27,0-.02,0-.04.01-.05.01-.05.02-.1.03-.14.02-.13.04-.26.04-.4,0-.17-.02-.34-.05-.5Z"/><path class="cls-1" d="m34.32,15.42c0-.16-.02-.31-.05-.46-.01-.06-.03-.11-.05-.17-.03-.1-.05-.2-.09-.29-.03-.06-.06-.12-.09-.18-.04-.08-.08-.17-.13-.24-.04-.06-.08-.11-.12-.16-.06-.07-.11-.14-.17-.21-.05-.05-.1-.09-.15-.14-.07-.06-.13-.12-.21-.17-.06-.04-.12-.08-.17-.11-.08-.05-.16-.09-.24-.13-.06-.03-.13-.05-.19-.08-.09-.03-.17-.06-.26-.08-.07-.02-.14-.03-.21-.04-.13-.02-.26-.04-.4-.04h-3.16s0,0,0,0c0,0,0,0,0,0h-1.93c-.14,0-.27.02-.4.04-.07.01-.14.02-.21.04-.09.02-.18.05-.26.08-.07.02-.13.05-.19.08-.08.04-.16.08-.24.13-.06.04-.12.07-.17.11-.07.05-.14.11-.21.17-.05.05-.1.09-.15.14-.06.07-.12.14-.17.21-.04.05-.08.1-.12.16-.05.08-.09.16-.14.25-.03.06-.06.11-.09.17-.04.1-.07.2-.09.3-.01.05-.04.11-.05.16-.03.16-.05.32-.05.49,0,0,0,0,0,0,0,.14.02.28.04.41,0,.04.01.08.02.11.15,0,.3-.03.44-.04-.13.02-.26.05-.4.06h-.04s0,.04,0,.05c.02.1.05.19.09.29.02.05.04.11.06.16.04.1.1.19.16.29.02.04.04.08.07.12.02.02.04.04.05.07.17.23.37.43.6.59.04.03.08.05.12.07.09.06.19.11.28.15.05.02.11.04.16.06.09.03.19.07.29.09.06.01.12.02.18.03.13.02.27.04.41.04h0s5.09,0,5.09,0h0c.14,0,.27-.02.41-.04.06-.01.12-.02.18-.04.1-.02.19-.05.28-.09.05-.02.11-.04.16-.06.1-.04.19-.1.28-.15.04-.02.08-.05.12-.07.25-.18.47-.4.65-.65.03-.04.05-.08.07-.12.06-.09.11-.18.15-.28.02-.05.04-.11.06-.16.03-.09.06-.19.09-.28.01-.06.03-.12.04-.18.02-.13.04-.27.04-.4h0s0-.03,0-.04Z"/></svg>