<?xml version="1.0" encoding="UTF-8"?><svg id="Layer_1" xmlns="http://www.w3.org/2000/svg" viewBox="0 0 36.33 20"><defs><style>.cls-1{fill:#fff;}</style></defs><path class="cls-1" d="m32.78,12.91h-1.86c.05-.3.08-.6.08-.91v-6c0-3.31-2.69-6-6-6h-13c-3.31,0-6,2.69-6,6v6c0,.31.03.61.08.91h-2.53c-1.96,0-3.55,1.59-3.55,3.55,0,1.96,1.59,3.54,3.55,3.54h5.82c1.4,0,2.6-.82,3.18-2h.01c.58,1.18,1.78,2,3.18,2h5.82c1.32,0,2.46-.73,3.07-1.81.61,1.07,1.75,1.81,3.07,1.81h5.09c1.96,0,3.54-1.59,3.54-3.54,0-1.96-1.59-3.55-3.54-3.55ZM7,6c0-.34.04-.67.1-.99.02-.11.07-.21.09-.32.06-.21.11-.41.19-.61.05-.12.12-.23.18-.34.09-.17.17-.34.27-.5.08-.11.17-.21.25-.32.11-.14.22-.29.34-.41.1-.1.21-.18.32-.28.13-.11.26-.23.4-.33.12-.08.25-.15.37-.22.15-.09.29-.18.45-.25.14-.06.28-.1.42-.15.16-.06.32-.11.49-.15.15-.03.3-.05.46-.07.22-.03.43-.07.65-.07h13c.22,0,.44.04.65.07.15.02.31.03.46.07.17.04.33.1.49.15.14.05.29.09.42.15.16.07.3.16.45.24.13.07.26.14.38.22.14.1.27.22.4.33.11.09.22.18.32.28.12.13.23.27.34.41.08.11.18.21.25.32.1.16.18.33.27.5.06.11.13.22.18.34.08.19.13.4.19.61.03.11.07.21.09.32.06.32.1.65.1.99v6c0,.31-.04.61-.09.91h-2.22c-1.32,0-2.46.73-3.07,1.81-.61-1.07-1.75-1.81-3.07-1.81h-5.82c-1.41,0-2.61.82-3.18,2.01-.57-1.19-1.78-2.01-3.18-2.01h-2.27c-.05-.3-.09-.6-.09-.91v-6Zm4.16,12.26c-.11.11-.23.2-.35.29-.04.03-.08.05-.12.07-.09.06-.18.11-.28.15-.05.02-.11.04-.16.06-.09.03-.19.07-.29.09-.06.01-.12.02-.18.03-.13.02-.27.04-.41.04h0s-5.82,0-5.82,0h0c-.14,0-.27-.02-.41-.04-.06-.01-.12-.02-.18-.03-.1-.02-.19-.05-.29-.09-.05-.02-.11-.04-.16-.06-.1-.04-.19-.1-.28-.15-.04-.02-.08-.04-.12-.07-.25-.18-.47-.4-.65-.65-.03-.04-.05-.08-.07-.12-.06-.09-.11-.19-.16-.29-.02-.05-.04-.11-.06-.16-.03-.09-.07-.19-.09-.29-.01-.06-.02-.12-.03-.18-.02-.13-.04-.27-.04-.41,0,0,0,0,0,0,0-.17.02-.33.05-.49.01-.06.03-.11.05-.16.03-.1.05-.2.09-.3.02-.06.06-.12.09-.17.04-.08.08-.17.14-.25.04-.06.08-.11.12-.16.06-.07.11-.14.17-.21.05-.05.1-.09.15-.14.07-.06.13-.12.21-.17.06-.04.11-.07.17-.11.08-.05.16-.09.24-.13.06-.03.13-.05.19-.08.09-.03.17-.06.26-.08.07-.02.14-.03.21-.04.13-.02.26-.04.4-.04h0s2.77,0,2.77,0h1.06s0,0,0,0c0,0,0,0,0,0h1.98c.14,0,.27.02.4.04.07.01.14.02.21.04.09.02.18.05.26.08.07.02.13.05.19.08.08.04.16.08.24.13.06.04.12.07.17.11.07.05.14.11.21.17.05.05.1.09.15.14.06.07.12.14.17.21.04.05.09.1.12.16.05.08.09.16.13.25.03.06.06.11.09.17.04.1.07.2.09.3.01.05.04.11.05.16.03.16.05.33.05.5,0,.14-.02.27-.04.4,0,.04-.02.09-.02.13-.17,0-.33-.03-.5-.05.13.02.26.05.4.06h.1s0,.04-.01.06c-.02.09-.05.18-.08.27-.02.06-.04.12-.07.17-.04.09-.09.18-.15.27-.03.04-.05.09-.08.14-.02.02-.04.04-.06.07-.07.1-.15.2-.23.28,0,0,0,0,0,0Zm12.18,0c-.11.11-.23.2-.35.29-.04.03-.08.05-.12.07-.09.06-.18.11-.28.15-.05.02-.11.04-.16.06-.09.03-.19.07-.29.09-.06.01-.12.02-.18.03-.13.02-.27.04-.41.04h0s-5.82,0-5.82,0h0c-.14,0-.27-.02-.41-.04-.06-.01-.12-.02-.18-.03-.1-.02-.19-.05-.29-.09-.05-.02-.11-.04-.16-.06-.1-.04-.19-.1-.28-.15-.04-.02-.08-.04-.12-.07-.22-.15-.4-.34-.57-.55-.03-.03-.06-.07-.08-.1-.03-.04-.05-.08-.07-.12-.06-.09-.11-.19-.15-.29-.02-.05-.04-.11-.06-.16-.03-.09-.07-.19-.09-.29,0-.01,0-.03,0-.05,0-.04-.02-.09-.03-.14-.02-.13-.04-.27-.04-.41,0,0,0,0,0,0,0-.17.02-.33.05-.49.01-.06.03-.11.05-.16.03-.1.05-.21.09-.3.02-.06.06-.11.09-.17.04-.08.08-.17.14-.25.04-.06.08-.11.12-.16.06-.07.11-.14.17-.21.05-.05.1-.09.15-.14.07-.06.14-.12.21-.17.06-.04.11-.07.17-.11.08-.05.16-.09.24-.13.06-.03.13-.05.19-.08.09-.03.17-.06.26-.08.07-.02.14-.03.21-.04.13-.02.26-.04.4-.04h0s5.82,0,5.82,0h0c.14,0,.27.02.4.04.07.01.14.02.21.04.09.02.18.05.26.08.07.02.13.05.19.08.08.04.16.08.24.13.06.04.12.07.17.11.07.05.14.11.21.17.05.05.1.09.15.14.06.07.12.14.17.21.04.05.08.1.12.16.05.08.09.17.14.25.03.06.06.11.09.17.04.1.07.2.1.31.01.05.03.1.05.16.03.16.05.33.05.5,0,.14-.02.27-.04.4,0,.05-.02.1-.03.14,0,.02,0,.04-.01.05-.02.09-.05.18-.08.27-.02.06-.04.12-.07.17-.04.09-.09.18-.15.27-.03.04-.05.09-.08.14-.02.04-.06.07-.08.1-.07.09-.13.17-.21.25,0,0,0,0,0,0Zm11.94-1.39c-.01.06-.02.12-.04.18-.02.1-.05.19-.09.28-.02.05-.04.11-.06.16-.04.1-.1.19-.15.28-.02.04-.05.08-.07.12-.18.25-.4.47-.65.65-.04.03-.08.05-.12.07-.09.06-.18.11-.28.15-.05.02-.11.04-.16.06-.09.03-.19.07-.28.09-.06.01-.12.03-.18.04-.13.02-.27.04-.41.04h0s-5.09,0-5.09,0h0c-.14,0-.27-.02-.41-.04-.06-.01-.12-.02-.18-.03-.1-.02-.19-.05-.29-.09-.05-.02-.11-.04-.16-.06-.1-.04-.19-.1-.28-.15-.04-.02-.08-.04-.12-.07-.22-.15-.4-.34-.56-.55-.01-.01-.02-.03-.03-.04-.02-.02-.04-.04-.05-.07-.03-.04-.05-.08-.07-.12-.06-.09-.11-.19-.16-.29-.02-.05-.04-.11-.06-.16-.03-.09-.07-.19-.09-.29,0-.02,0-.03,0-.05h.04c.14,0,.26-.04.4-.06-.15.02-.29.04-.44.04,0-.04-.02-.08-.02-.11-.02-.13-.04-.27-.04-.41,0,0,0,0,0,0,0-.17.02-.33.05-.49.01-.06.03-.11.05-.16.03-.1.05-.21.09-.3.02-.06.06-.12.09-.17.04-.08.08-.17.14-.25.04-.06.08-.11.12-.16.06-.07.11-.14.17-.21.05-.05.1-.09.15-.14.07-.06.14-.12.21-.17.06-.04.11-.07.17-.11.08-.05.16-.09.24-.13.06-.03.13-.05.19-.08.09-.03.17-.06.26-.08.07-.02.14-.03.21-.04.13-.02.26-.04.4-.04h0s1.93,0,1.93,0c0,0,0,0,0,0,0,0,0,0,0,0h3.16c.14,0,.27.02.4.04.07.01.14.02.21.04.09.02.18.05.26.08.07.02.13.05.19.08.08.04.16.08.24.13.06.04.12.07.17.11.07.05.14.11.21.17.05.05.1.09.15.14.06.07.12.14.17.21.04.05.09.11.12.16.05.08.09.16.13.24.03.06.06.12.09.18.04.09.06.19.09.29.02.06.04.11.05.17.03.15.04.3.05.46,0,.01,0,.02,0,.04h0c0,.14-.02.27-.04.41Z"/><rect class="cls-1" x="10.27" y="5" width="16" height="2.18"/></svg>