<?xml version="1.0" encoding="UTF-8"?><svg id="Layer_1" xmlns="http://www.w3.org/2000/svg" xmlns:xlink="http://www.w3.org/1999/xlink" viewBox="0 0 339.91 237.73"><defs><style>.cls-1{fill:url(#linear-gradient-2);}.cls-2{fill:#edca7e;}.cls-3{fill:url(#linear-gradient-6);}.cls-4{fill:#3d2e21;}.cls-5{fill:#6e5120;}.cls-6{fill:#f0c960;}.cls-7{fill:#cea85b;}.cls-8{fill:url(#linear-gradient-5);}.cls-9{fill:none;}.cls-10{fill:url(#linear-gradient-7);}.cls-11{fill:url(#linear-gradient-3);}.cls-12{fill:url(#linear-gradient);}.cls-13{fill:#fffefc;}.cls-14{fill:url(#linear-gradient-4);}.cls-15{fill:url(#linear-gradient-8);}</style><linearGradient id="linear-gradient" x1="474.21" y1="229.77" x2="327.71" y2="376.28" gradientTransform="translate(-337.84 50.58) rotate(45) scale(1 -1)" gradientUnits="userSpaceOnUse"><stop offset="0" stop-color="#dca127"/><stop offset=".59" stop-color="#e3b146"/><stop offset="1" stop-color="#e7ba57"/></linearGradient><linearGradient id="linear-gradient-2" x1="170.41" y1="38.64" x2="170.41" y2="188.38" gradientTransform="translate(0 237.89) scale(1 -1)" gradientUnits="userSpaceOnUse"><stop offset="0" stop-color="#842c1c"/><stop offset=".34" stop-color="#aa2e1f"/><stop offset=".78" stop-color="#d53123"/><stop offset="1" stop-color="#e63325"/></linearGradient><linearGradient id="linear-gradient-3" x1="481.6" y1="237.17" x2="335.09" y2="383.67" xlink:href="#linear-gradient"/><linearGradient id="linear-gradient-4" x1="170.63" y1="42.2" x2="170.63" y2="178.98" xlink:href="#linear-gradient-2"/><linearGradient id="linear-gradient-5" x1="218.47" y1="75.24" x2="118.95" y2="174.76" gradientTransform="matrix(1, 0, 0, 1, 0, 0)" xlink:href="#linear-gradient"/><linearGradient id="linear-gradient-6" x1="133.42" y1="88.93" x2="135.42" y2="151.58" gradientUnits="userSpaceOnUse"><stop offset="0" stop-color="#fff"/><stop offset="1" stop-color="#b8d2ed"/></linearGradient><linearGradient id="linear-gradient-7" x1="175.25" y1="89.83" x2="176.08" y2="151.5" xlink:href="#linear-gradient-6"/><linearGradient id="linear-gradient-8" x1="218.12" y1="89.94" x2="217.99" y2="151.45" xlink:href="#linear-gradient-6"/></defs><g><g><path class="cls-13" d="m106.95,105.76c-2.35-.44-57.8-11.22-75.06-40.23-15.29-25.69-3.25-46.26-2.74-47.13l1.2-1.99,1.32,1.91c.22.31,21.65,31.23,33.05,43.92,19.43,21.63,49.4,35.65,49.7,35.79l2.29,1.06-9.1,6.79-.65-.12Z"/><path class="cls-4" d="m30.44,19.17s21.57,31.16,33.16,44.07c19.86,22.11,50.18,36.15,50.18,36.15l-6.55,4.89s-56.93-10.76-74.05-39.52c-15.01-25.21-2.74-45.59-2.74-45.59m-.18-5.52l-2.39,3.98c-.54.89-13.02,22.22,2.73,48.67,17.61,29.58,73.7,40.49,76.08,40.94l1.3.24,1.06-.79,6.55-4.89,4.03-3.01-4.57-2.12c-.3-.14-30.01-14.06-49.21-35.43-11.33-12.62-32.71-43.46-32.93-43.77l-2.64-3.82h0Z"/></g><g><path class="cls-13" d="m101.31,124.56c-.33-.01-33.45-1.42-58.78-21.25-14.21-11.13-16.7-30.7-16.8-31.52l-.47-3.92,2.95,2.62c.17.15,17.32,15.24,38.77,25.2,21.52,9.99,40.44,14.92,40.63,14.97l1.85.48-7.21,13.46-.93-.03Z"/><path class="cls-4" d="m27.21,71.61s17.22,15.26,39.13,25.43c21.91,10.17,40.89,15.07,40.89,15.07l-5.87,10.96s-32.67-1.17-57.91-20.93c-13.89-10.87-16.24-30.52-16.24-30.52m-3.92-7.47l.94,7.83c.1.85,2.67,21.02,17.37,32.53,25.71,20.13,58.28,21.52,59.65,21.57l1.87.07.88-1.65,5.87-10.96,1.8-3.37-3.7-.95c-.19-.05-18.99-4.95-40.38-14.88-21.23-9.86-38.24-24.81-38.4-24.96l-5.91-5.23h0Z"/></g><g><path class="cls-13" d="m69.57,135.48c-9.25,0-16.25-.94-20.82-2.81-15.45-6.3-18.96-23.84-19.1-24.59l-.57-2.96,2.71,1.34c.2.1,19.81,9.76,35.8,13.78,11.56,2.91,23.43,3.34,29.48,3.34,2.15,0,3.43-.06,3.44-.06l1.26-.06,1.98,9.05-1.57.25c-.17.03-17.08,2.71-32.61,2.71h0Z"/><path class="cls-4" d="m31.12,107.8s19.76,9.78,36.1,13.89c11.83,2.98,24.02,3.39,29.84,3.39,2.22,0,3.51-.06,3.51-.06l1.37,6.26s-16.78,2.7-32.38,2.7c-7.8,0-15.3-.67-20.25-2.7-14.87-6.07-18.2-23.48-18.2-23.48m-4.08-5.37l1.13,5.93c.15.78,3.82,19.09,20.01,25.69,4.75,1.94,11.94,2.92,21.39,2.92,15.65,0,32.16-2.62,32.85-2.73l3.13-.5-.68-3.1-1.37-6.26-.54-2.47-2.53.11s-1.27.06-3.38.06c-5.98,0-17.71-.43-29.11-3.3-15.84-3.98-35.3-13.57-35.5-13.67l-5.41-2.68h0Z"/></g><g><path class="cls-13" d="m63.57,152.93c-21.62-.41-26.61-18.39-26.66-18.57l-.69-2.6,2.58.79c.17.05,17.38,5.26,32.24,5.26s31.67-5.21,31.83-5.26l.65-.2,6.49,3.96-1.93,1.31c-.93.63-22.94,15.33-43.69,15.33,0,0-.54,0-.81,0Z"/><path class="cls-4" d="m103.32,133.98l3.91,2.39s-22.32,15.07-42.85,15.07c-.26,0-.52,0-.78,0-20.74-.39-25.24-17.46-25.24-17.46,0,0,17.41,5.33,32.67,5.33s32.28-5.33,32.28-5.33m-69.23-4.44l1.37,5.21c.05.2,1.35,4.99,5.47,9.77,3.79,4.4,10.79,9.69,22.61,9.92.28,0,.56,0,.84,0,21.2,0,43.59-14.95,44.53-15.59l3.87-2.61-3.98-2.43-3.91-2.39-1.16-.71-1.3.41c-.17.05-16.78,5.19-31.39,5.19s-31.63-5.14-31.8-5.2l-5.15-1.57h0Z"/></g><g><path class="cls-13" d="m71.33,167.72c-11.31,0-21.9-8.1-22.35-8.45l-3.01-2.33,3.79-.35c.19-.02,19.2-1.77,27.45-3.31,7.99-1.49,26.8-14.87,26.99-15.01l1.03-.74,4.25,4.25-16.68,13.09c-.9,1.02-7.35,8.25-12.5,10.81-2.7,1.35-5.72,2.03-8.98,2.03h0Z"/><path class="cls-4" d="m105.08,139.5l2.15,2.15-15.46,12.13s-6.91,7.96-12.13,10.57c-2.69,1.34-5.51,1.87-8.31,1.87-10.93,0-21.43-8.13-21.43-8.13,0,0,19.17-1.76,27.59-3.33,8.41-1.57,27.59-15.26,27.59-15.26m.32-3.92l-2.07,1.48c-5.18,3.7-20.03,13.57-26.39,14.75-8.18,1.52-27.12,3.27-27.31,3.29l-7.58.7,6.02,4.66c.46.36,11.45,8.76,23.27,8.76,3.49,0,6.74-.74,9.65-2.19,5.24-2.61,11.64-9.69,12.86-11.06l15.24-11.96,2.66-2.09-2.39-2.39-2.15-2.15-1.8-1.8h0Z"/></g><g><path class="cls-13" d="m77.9,176.42c-5.88,0-10.8-1.07-11-1.12l-4.54-1,4.27-1.84c4.9-2.12,18.19-8.19,20.75-10.82,3.29-3.39,17.18-17.48,17.32-17.62l4.11-4.17-1.6,5.63c-.21.75-5.29,18.38-13.11,26-3.36,3.27-8.81,4.93-16.19,4.93h0Z"/><path class="cls-4" d="m105.77,145.07s-5.09,17.9-12.72,25.34c-3.67,3.58-9.79,4.5-15.14,4.5-5.78,0-10.68-1.08-10.68-1.08,0,0,17.9-7.73,21.23-11.15s17.32-17.61,17.32-17.61m6.09-10.44l-8.22,8.34c-.14.14-14.04,14.23-17.33,17.62-2.01,2.07-13.06,7.38-20.27,10.49l-8.53,3.68,9.07,2c.21.05,5.29,1.15,11.33,1.15,7.79,0,13.59-1.8,17.24-5.36,8.11-7.9,13.29-25.9,13.51-26.67l3.2-11.26h0Z"/></g><g><path class="cls-13" d="m84.05,183.71c.12-.12,11.74-12.01,14.55-15.2,2.24-2.55,7.85-13.66,9.82-17.72l1.7-3.5,1.09,3.73c.14.48,3.37,11.87-2.67,22.73-6.12,11.01-22.6,12.45-23.3,12.5l-3.99.32,2.8-2.86Z"/><path class="cls-4" d="m109.78,151.44s3.26,11.14-2.54,21.58c-5.8,10.43-22.11,11.74-22.11,11.74,0,0,11.74-12,14.61-15.26,2.87-3.26,10.04-18.06,10.04-18.06m.69-8.31l-3.39,7c-2.71,5.58-7.7,15.23-9.6,17.38-2.79,3.16-14.38,15.03-14.5,15.14l-5.6,5.73,7.99-.64c.73-.06,17.98-1.57,24.49-13.27,6.34-11.4,2.95-23.38,2.8-23.88l-2.18-7.47h0Z"/></g><g><path class="cls-13" d="m99.73,187.09c.05-.06,4.92-6.24,7.7-11.04,2.68-4.64,3.71-11.9,3.72-11.97l.53-3.82,2.19,3.17c.17.25,4.16,6.18,1.35,15.75-2.33,7.95-10.36,10.24-14.28,10.34l-3.2.08,1.99-2.51Z"/><path class="cls-4" d="m112.65,164.28s3.78,5.48,1.14,14.48c-2.64,9-12.88,9.26-12.88,9.26,0,0,4.96-6.26,7.83-11.22s3.91-12.52,3.91-12.52m-1.92-8.06l-1.05,7.65c-.02.13-1.02,7.07-3.54,11.43-2.72,4.71-7.53,10.8-7.58,10.86l-3.98,5.02,6.4-.16c.51-.01,12.46-.44,15.68-11.42,3.01-10.25-1.36-16.76-1.55-17.03l-4.39-6.35h0Z"/></g><g><path class="cls-13" d="m118.84,191.92l-.46-.5c-.55-.61-.52-.93-.12-4.79.28-2.65.74-7.08.48-8.36-.51-2.54-2.31-9.73-2.33-9.81l-.92-3.68,3.19,2.06c.83.53,8.11,5.38,8.25,11.1.12,4.76-3.85,10.15-5.55,12.45-.25.34-.44.59-.52.73-.29.5-.79.81-1.35.81,0,0-.67,0-.67,0Z"/><path class="cls-4" d="m117.86,168.1s7.43,4.79,7.57,9.88c.13,5.09-5.35,11.48-5.87,12.39-.02.04-.04.06-.05.06-.33,0,1.21-9.94.71-12.45-.52-2.61-2.35-9.88-2.35-9.88m-4.76-6.64l1.85,7.37c.02.07,1.81,7.23,2.32,9.73.21,1.09-.27,5.7-.5,7.91-.44,4.2-.5,4.84.5,5.95l.89.99h1.35c1.09,0,2.07-.56,2.63-1.51.09-.14.25-.35.45-.62,1.79-2.42,5.97-8.1,5.84-13.38-.17-6.49-8.04-11.74-8.94-12.32l-6.39-4.11h0Z"/></g><path class="cls-6" d="m110.02,101.41s-31.01-12.85-50.87-34.96c-11.59-12.91-22.11-29.09-22.11-29.09,0,0-9.59,17.02-3.62,27.39,16.69,29.01,74.05,39.52,74.05,39.52l2.54-2.87Z"/><path class="cls-6" d="m104.73,116.77s-17.4-3.69-39.32-13.86c-21.91-10.17-30.91-19.57-30.91-19.57,0,0-4.49,8.3,9.39,19.17,25.24,19.76,57.91,20.93,57.91,20.93l2.92-6.68Z"/><path class="cls-6" d="m101,128.57s-21.42,2.12-37.76-1.99c-16.34-4.11-28.43-12.13-28.43-12.13,0,0-.72,10.76,14.15,16.83,14.87,6.07,52.63,0,52.63,0l-.59-2.71Z"/><path class="cls-6" d="m106.16,135.39s-22.7,9.68-37.96,9.68-25.3-3.62-25.3-3.62c0,0,4.57,9.98,20.35,9.98,23.25,0,44.57-15.36,44.57-15.36l-1.66-.68Z"/><path class="cls-6" d="m106.06,140.57s-19.43,16.92-27.85,18.49c-8.41,1.57-21.36,3.39-21.36,3.39,0,0,9.33,8.86,22.5,2.28,5.22-2.6,13.26-11.03,13.26-11.03l14.27-12.06-.82-1.08Z"/><path class="cls-6" d="m105.77,145.17s-11.18,18.35-14.51,21.77-10.17,7.87-10.17,7.87c0,0,8.48-.65,11.97-4.3,7.36-7.7,12.72-25.34,12.72-25.34Z"/><path class="cls-6" d="m109.99,151.44s-5.88,16.66-7.83,20.54c-2.75,5.48-7.83,10.71-7.83,10.71,0,0,10.04-3.43,13.11-9.67,5.26-10.72,2.54-21.58,2.54-21.58Z"/><path class="cls-6" d="m112.65,164.28s.7,8.48-2.17,13.43-9.57,10.3-9.57,10.3c0,0,10.24-.26,12.88-9.26s-1.14-14.48-1.14-14.48Z"/><path class="cls-6" d="m119.24,173.32s.54,2.05,1.06,4.65-1.17,13.3-.65,12.39,3.26-3.78,3.13-8.87-3.54-8.18-3.54-8.18Z"/></g><g><g><path class="cls-13" d="m221.55,99.09l2.28-1.06c.3-.14,30.28-14.17,49.7-35.79,11.4-12.69,32.83-43.61,33.05-43.92l1.32-1.91,1.2,1.99c.52.86,12.56,21.44-2.74,47.13-17.27,29.01-72.71,39.78-75.07,40.23l-.65.12-9.1-6.79Z"/><path class="cls-4" d="m307.82,19.17s12.27,20.37-2.74,45.59c-17.12,28.76-74.05,39.52-74.05,39.52l-6.55-4.89s30.33-14.04,50.18-36.15c11.59-12.91,33.16-44.07,33.16-44.07m.18-5.52l-2.64,3.82c-.21.31-21.6,31.16-32.93,43.77-19.2,21.37-48.92,35.29-49.21,35.43l-4.57,2.12,4.03,3.01,6.55,4.89,1.06.79,1.3-.24c2.38-.45,58.47-11.35,76.08-40.94,15.75-26.45,3.27-47.77,2.73-48.67l-2.39-3.98h0Z"/></g><g><path class="cls-13" d="m228.8,111.13l1.85-.48c.19-.05,19.11-4.98,40.63-14.97,21.45-9.96,38.6-25.05,38.77-25.2l2.95-2.62-.47,3.92c-.1.83-2.59,20.4-16.8,31.52-25.33,19.83-58.45,21.24-58.78,21.25l-.93.03-7.21-13.46Z"/><path class="cls-4" d="m311.04,71.61s-2.35,19.65-16.24,30.52c-25.24,19.76-57.91,20.93-57.91,20.93l-5.87-10.96s18.98-4.89,40.89-15.07c21.91-10.17,39.13-25.43,39.13-25.43m3.92-7.48l-5.91,5.23c-.17.15-17.17,15.1-38.4,24.96-21.39,9.93-40.19,14.83-40.38,14.88l-3.7.95,1.8,3.37,5.87,10.96.88,1.65,1.87-.07c1.37-.05,33.94-1.44,59.65-21.57,14.7-11.51,17.27-31.67,17.37-32.53l.94-7.83h0Z"/></g><g><path class="cls-13" d="m268.68,135.48c-15.54,0-32.45-2.69-32.62-2.71l-1.57-.25,1.98-9.05,1.26.06s1.29.06,3.44.06c6.05,0,17.92-.43,29.48-3.34,15.99-4.02,35.6-13.68,35.8-13.78l2.71-1.34-.57,2.96c-.14.74-3.66,18.29-19.1,24.59-4.57,1.86-11.57,2.81-20.82,2.81Z"/><path class="cls-4" d="m307.13,107.8s-3.33,17.41-18.2,23.48c-4.96,2.02-12.46,2.7-20.25,2.7-15.59,0-32.38-2.7-32.38-2.7l1.37-6.26s1.3.06,3.51.06c5.82,0,18.01-.41,29.84-3.39,16.34-4.11,36.1-13.89,36.1-13.89m4.08-5.37l-5.41,2.68c-.19.1-19.67,9.69-35.5,13.67-11.4,2.87-23.13,3.3-29.11,3.3-2.11,0-3.37-.06-3.38-.06l-2.53-.11-.54,2.47-1.37,6.26-.68,3.1,3.13.5c.69.11,17.2,2.73,32.85,2.73,9.44,0,16.64-.98,21.39-2.92,16.19-6.6,19.86-24.92,20.01-25.69l1.13-5.93h0Z"/></g><g><path class="cls-13" d="m273.88,152.94c-20.75,0-42.77-14.7-43.69-15.33l-1.93-1.31,6.48-3.96.65.2c.17.05,16.99,5.26,31.83,5.26s32.06-5.21,32.24-5.26l2.58-.79-.69,2.6c-.05.18-5.04,18.17-26.66,18.57-.27,0-.54,0-.81,0Z"/><path class="cls-4" d="m299.89,133.98s-4.5,17.07-25.24,17.46c-.26,0-.52,0-.78,0-20.53,0-42.85-15.07-42.85-15.07l3.91-2.39s17.02,5.33,32.28,5.33,32.67-5.33,32.67-5.33m4.27-4.44l-5.15,1.57c-.17.05-17.18,5.2-31.8,5.2s-31.22-5.14-31.39-5.19l-1.3-.41-1.16.71-3.91,2.39-3.98,2.43,3.87,2.61c.94.64,23.33,15.59,44.53,15.59.28,0,.56,0,.84,0,11.82-.22,18.82-5.52,22.61-9.92,4.12-4.78,5.42-9.57,5.47-9.77l1.37-5.21h0Z"/></g><g><path class="cls-13" d="m266.92,167.72c-3.26,0-6.28-.68-8.98-2.03-5.14-2.57-11.6-9.79-12.5-10.81l-16.68-13.09,4.25-4.25,1.03.74c.19.13,19,13.52,26.99,15.01,8.25,1.54,27.26,3.29,27.45,3.31l3.79.35-3.01,2.33c-.45.35-11.04,8.45-22.35,8.45Z"/><path class="cls-4" d="m233.17,139.5s19.17,13.7,27.59,15.26c8.41,1.57,27.59,3.33,27.59,3.33,0,0-10.5,8.13-21.43,8.13-2.8,0-5.62-.53-8.31-1.87-5.22-2.6-12.13-10.57-12.13-10.57l-15.46-12.13,2.15-2.15m-.32-3.92l-1.8,1.8-2.15,2.15-2.39,2.39,2.66,2.09,15.24,11.96c1.22,1.37,7.62,8.45,12.86,11.06,2.91,1.45,6.16,2.19,9.65,2.19,11.82,0,22.8-8.4,23.27-8.76l6.02-4.66-7.58-.7c-.19-.02-19.13-1.77-27.31-3.29-6.36-1.18-21.21-11.05-26.39-14.75l-2.07-1.48h0Z"/></g><g><path class="cls-13" d="m260.35,176.42c-7.39,0-12.83-1.66-16.19-4.93-7.83-7.63-12.9-25.25-13.11-26l-1.6-5.63,4.11,4.17c.14.14,14.03,14.23,17.32,17.62,2.56,2.63,15.84,8.7,20.75,10.82l4.27,1.84-4.54,1c-.21.05-5.13,1.12-11.01,1.12Z"/><path class="cls-4" d="m232.49,145.07s13.99,14.18,17.32,17.61c3.33,3.42,21.23,11.15,21.23,11.15,0,0-4.9,1.08-10.68,1.08-5.36,0-11.47-.93-15.14-4.5-7.63-7.43-12.72-25.34-12.72-25.34m-6.09-10.44l3.2,11.26c.22.76,5.4,18.76,13.51,26.67,3.65,3.55,9.45,5.36,17.24,5.36,6.04,0,11.12-1.1,11.33-1.15l9.07-2-8.53-3.68c-7.21-3.11-18.26-8.42-20.27-10.49-3.3-3.39-17.19-17.48-17.33-17.62l-8.22-8.34h0Z"/></g><g><path class="cls-13" d="m253.01,186.25c-.7-.06-17.18-1.49-23.3-12.5-6.04-10.86-2.81-22.25-2.67-22.73l1.09-3.73,1.7,3.5c1.97,4.06,7.58,15.17,9.82,17.72,2.81,3.19,14.44,15.08,14.56,15.2l2.8,2.86-3.99-.32Z"/><path class="cls-4" d="m228.48,151.44s7.17,14.8,10.04,18.06c2.87,3.26,14.61,15.26,14.61,15.26,0,0-16.3-1.3-22.11-11.74-5.8-10.43-2.54-21.58-2.54-21.58m-.69-8.31l-2.18,7.47c-.15.5-3.54,12.48,2.8,23.88,6.51,11.7,23.76,13.21,24.49,13.27l7.99.64-5.6-5.73c-.12-.12-11.72-11.98-14.5-15.14-1.89-2.15-6.89-11.81-9.6-17.38l-3.39-7h0Z"/></g><g><path class="cls-13" d="m237.31,189.52c-3.92-.1-11.95-2.39-14.28-10.34-2.81-9.58,1.17-15.5,1.35-15.75l2.19-3.17.53,3.82c0,.07,1.04,7.34,3.72,11.98,2.78,4.8,7.66,10.98,7.7,11.04l1.99,2.51-3.2-.08Z"/><path class="cls-4" d="m225.61,164.28s1.04,7.57,3.91,12.52,7.83,11.22,7.83,11.22c0,0-10.24-.26-12.88-9.26-2.64-9,1.14-14.48,1.14-14.48m1.92-8.06l-4.39,6.35c-.19.27-4.56,6.77-1.55,17.03,3.22,10.97,15.18,11.4,15.68,11.42l6.4.16-3.98-5.02c-.05-.06-4.86-6.15-7.58-10.86-2.11-3.65-3.27-9.49-3.54-11.43l-1.05-7.65h0Z"/></g><g><path class="cls-13" d="m217.88,191.92l-.49-.81c-.08-.13-.27-.38-.52-.72-1.7-2.3-5.67-7.69-5.54-12.45.15-5.71,7.42-10.57,8.25-11.1l3.19-2.06-.92,3.68c-.02.07-1.82,7.26-2.33,9.81-.26,1.28.21,5.71.48,8.36.4,3.86.43,4.18-.12,4.79l-.45.5h-.68s-.87,0-.87,0Z"/><path class="cls-4" d="m220.39,168.1s-1.83,7.27-2.35,9.88c-.5,2.5,1.04,12.45.71,12.45-.01,0-.03-.02-.05-.06-.52-.91-6-7.3-5.87-12.39.13-5.09,7.57-9.88,7.57-9.88m4.76-6.64l-6.39,4.11c-.9.58-8.77,5.84-8.94,12.32-.14,5.28,4.05,10.96,5.84,13.38.2.27.36.49.45.62.57.95,1.55,1.52,2.63,1.52h1.33l.91-1c1-1.11.93-1.75.5-5.95-.23-2.21-.71-6.82-.5-7.91.5-2.51,2.3-9.66,2.32-9.73l1.85-7.37h0Z"/></g><path class="cls-6" d="m228.23,101.41s31.01-12.85,50.87-34.96c11.59-12.91,22.11-29.09,22.11-29.09,0,0,9.59,17.02,3.62,27.39-16.69,29.01-74.05,39.52-74.05,39.52l-2.54-2.87Z"/><path class="cls-6" d="m233.52,116.77s17.4-3.69,39.32-13.86,30.91-19.57,30.91-19.57c0,0,4.49,8.3-9.39,19.17-25.24,19.76-57.91,20.93-57.91,20.93l-2.92-6.68Z"/><path class="cls-6" d="m237.25,128.57s21.42,2.12,37.76-1.99,28.43-12.13,28.43-12.13c0,0,.72,10.76-14.15,16.83s-52.63,0-52.63,0l.59-2.71Z"/><path class="cls-6" d="m232.1,135.39s22.7,9.68,37.96,9.68,25.3-3.62,25.3-3.62c0,0-4.57,9.98-20.35,9.98-23.25,0-44.57-15.36-44.57-15.36l1.66-.68Z"/><path class="cls-6" d="m232.2,140.57s19.43,16.92,27.85,18.49,21.36,3.39,21.36,3.39c0,0-9.33,8.86-22.5,2.28-5.22-2.6-13.26-11.03-13.26-11.03l-14.27-12.06.82-1.08Z"/><path class="cls-6" d="m232.49,145.17s11.18,18.35,14.51,21.77,10.17,7.87,10.17,7.87c0,0-8.48-.65-11.97-4.3-7.36-7.7-12.72-25.34-12.72-25.34Z"/><path class="cls-6" d="m228.27,151.44s5.88,16.66,7.83,20.54c2.75,5.48,7.83,10.71,7.83,10.71,0,0-10.04-3.43-13.11-9.67-5.26-10.72-2.54-21.58-2.54-21.58Z"/><path class="cls-6" d="m225.61,164.28s-.7,8.48,2.17,13.43,9.57,10.3,9.57,10.3c0,0-10.24-.26-12.88-9.26s1.14-14.48,1.14-14.48Z"/><path class="cls-6" d="m219.01,173.32s-.54,2.05-1.06,4.65,1.17,13.3.65,12.39-3.26-3.78-3.13-8.87,3.54-8.18,3.54-8.18Z"/></g><polygon class="cls-12" points="169.95 223.26 149.62 199.25 149.51 199.25 169.95 223.43 170.4 199.25 170.4 199.25 169.95 223.26"/><polygon class="cls-1" points="170.4 199.25 170.42 198.16 170.4 199.25 170.4 199.25"/><polygon class="cls-11" points="170.4 199.25 170.42 198.16 170.4 199.25 170.4 199.25"/><g><g><rect class="cls-9" x="183.27" y="23.81" height="39.81"/><polygon class="cls-14" points="164.26 58.91 111.23 123.15 170.85 194.69 230.04 123.15 176.63 58.91 164.26 58.91"/><polygon class="cls-8" points="176.63 58.91 170.42 51.45 164.26 58.91 111.23 123.15 170.85 194.69 230.04 123.15 176.63 58.91"/><path class="cls-4" d="m253.22,120.8l-.1-.11s0-.01,0-.02l-2.22-2.62h0l-50-59.14h0l-27.69-32.76-2.8-3.3-2.79,3.3-27.69,32.76h4.79l25.69-30.39,25.7,30.38h0l34.31,40.57h0s19.44,23,19.44,23c0,0,0,0,0,0l.57.67-.87,1.02h0s-19.14,22.63-19.14,22.63l-41.33,48.89-18.68,22.09-18.67-22.09-60.47-71.52c.04.25.08.55.12.86-.04-.28-.07-.56-.12-.85l-.87-1.02.56-.67,53.75-63.56h-4.79l-50.06,59.21s0,0,0,0l-2.15,2.54s0,0,0,0l-.1.12-1.99,2.36,1.99,2.36,1.24,1.47s0,0,0,.01l2.99,3.53s0-.07,0-.11c0,.05,0,.08,0,.1l55.12,65.19,20.67,24.44,2.79,3.3,2.8-3.3,20.66-24.44h0l55.12-65.19h0s2.99-3.53,2.99-3.53c0,0,0,0,0,0l1.23-1.46,1.99-2.36-1.99-2.36Z"/><polygon class="cls-2" points="144.73 58.91 144.72 58.91 90.41 123.15 111.23 123.15 164.25 58.91 164.26 58.91 170.42 51.45 170.42 28.53 144.73 58.91"/><path class="cls-7" d="m230.43,99.49l-34.31-40.57-25.7-30.4h0v22.93l6.21,7.46,53.41,64.23,20.43.05-20-23.66-.04-.04Z"/><path class="cls-5" d="m230.04,123.15l-59.19,71.55-59.62-71.55h-20.82l61.44,72.54,18.57,21.93.41-21.93-.41,22.09h0l18.67-22.09,41.33-48.89,20.01-23.66h-20.41,0Z"/></g><g><g><polygon class="cls-3" points="125.95 151.4 102.06 89.93 118.84 89.93 133.41 130.75 148.05 89.93 164.84 89.93 140.86 151.4 125.95 151.4"/><path d="m162.64,91.43l-22.8,58.47h-12.86l-22.72-58.47h13.53l15.62,43.77,15.7-43.77h13.53m4.39-3h-20.03l-.71,1.99-12.87,35.88-12.8-35.87-.71-1.99h-20.03l1.59,4.09,22.72,58.47.74,1.91h16.97l.74-1.91,22.8-58.47,1.6-4.09h0Z"/></g><g><rect class="cls-10" x="167.9" y="89.93" width="15.53" height="61.47"/><path d="m181.93,91.43v58.47h-12.53v-58.47h12.53m3-3h-18.53v64.47h18.53v-64.47h0Z"/></g><g><path class="cls-15" d="m192.96,151.4v-61.47h23.55c17.73,0,26.73,7.11,26.73,21.13s-8.99,21.13-26.73,21.13h-8.02v19.21h-15.53Zm24.14-33.24c9.18,0,10.36-3.8,10.36-7.1,0-4.98-3.1-7.1-10.36-7.1h-8.61v14.21h8.61Z"/><path d="m216.51,91.43c14.12,0,25.23,4.51,25.23,19.63s-11.11,19.63-25.23,19.63h-9.52v19.21h-12.53v-58.47h22.05m-9.52,28.23h10.11c6.43,0,11.86-1.75,11.86-8.6s-5.43-8.6-11.86-8.6h-10.11v17.21m9.52-31.23h-25.05v64.47h18.53v-19.21h6.52c23.33,0,28.23-12.31,28.23-22.63s-4.9-22.63-28.23-22.63h0Zm-6.52,17.03h7.11c8.18,0,8.86,2.89,8.86,5.6,0,1.96,0,5.6-8.86,5.6h-7.11v-11.21h0Z"/></g></g></g></svg>