<?xml version="1.0" encoding="UTF-8"?><svg id="Layer_1" xmlns="http://www.w3.org/2000/svg" xmlns:xlink="http://www.w3.org/1999/xlink" viewBox="0 0 339.9 237.7"><defs><style>.cls-1{fill:url(#linear-gradient-2);}.cls-2{fill:#0a304c;}.cls-3{fill:#fff;}.cls-4{fill:url(#linear-gradient-17);}.cls-5{fill:url(#linear-gradient-15);}.cls-6{fill:url(#linear-gradient-18);}.cls-7{fill:url(#linear-gradient-14);}.cls-8{fill:url(#linear-gradient-20);}.cls-9{fill:url(#linear-gradient-6);}.cls-10{fill:#17181c;}.cls-11{fill:url(#radial-gradient-5);}.cls-12{fill:url(#radial-gradient-4);}.cls-13{fill:#b1d3ef;}.cls-14{fill:url(#linear-gradient-11);}.cls-15{fill:url(#linear-gradient-10);}.cls-16{fill:url(#radial-gradient);}.cls-17{fill:url(#linear-gradient-16);}.cls-18{fill:url(#linear-gradient-21);}.cls-19{fill:#cea85b;}.cls-20{fill:url(#linear-gradient-5);}.cls-21{fill:url(#radial-gradient-2);}.cls-22{fill:url(#radial-gradient-3);}.cls-23{fill:url(#linear-gradient-7);}.cls-24{fill:url(#linear-gradient-24);}.cls-25{fill:url(#linear-gradient-9);}.cls-26{fill:url(#linear-gradient-22);}.cls-27{fill:url(#linear-gradient-3);}.cls-28{fill:url(#linear-gradient);}.cls-29{fill:url(#linear-gradient-23);}.cls-30{fill:url(#linear-gradient-19);}.cls-31{fill:url(#linear-gradient-4);}.cls-32{fill:#091530;}.cls-33{fill:url(#linear-gradient-8);}.cls-34{fill:url(#linear-gradient-12);}.cls-35{fill:url(#linear-gradient-13);}</style><linearGradient id="linear-gradient" x1="-73.53" y1="4.61" x2="57.69" y2="27.64" gradientTransform="translate(77.73 68.3) rotate(21.6)" gradientUnits="userSpaceOnUse"><stop offset="0" stop-color="#d5e7ff"/><stop offset="1" stop-color="#a5c8f7"/></linearGradient><linearGradient id="linear-gradient-2" x1="-42.07" y1="42.31" x2="64.93" y2="42.31" xlink:href="#linear-gradient"/><linearGradient id="linear-gradient-3" x1="-17.12" y1="69.14" x2="70.92" y2="69.14" xlink:href="#linear-gradient"/><linearGradient id="linear-gradient-4" x1="23.66" y1="84.8" x2="42.88" y2="84.8" xlink:href="#linear-gradient"/><linearGradient id="linear-gradient-5" x1="39.73" y1="86.11" x2="60.83" y2="86.11" xlink:href="#linear-gradient"/><linearGradient id="linear-gradient-6" x1="59.55" y1="92.27" x2="79.76" y2="84.27" xlink:href="#linear-gradient"/><linearGradient id="linear-gradient-7" x1="152.19" y1="-84.74" x2="283.41" y2="-61.7" gradientTransform="translate(507.1 68.3) rotate(158.4) scale(1 -1)" xlink:href="#linear-gradient"/><linearGradient id="linear-gradient-8" x1="183.64" y1="-47.04" x2="290.64" y2="-47.04" gradientTransform="translate(507.1 68.3) rotate(158.4) scale(1 -1)" xlink:href="#linear-gradient"/><linearGradient id="linear-gradient-9" x1="208.59" y1="-20.21" x2="296.63" y2="-20.21" gradientTransform="translate(507.1 68.3) rotate(158.4) scale(1 -1)" xlink:href="#linear-gradient"/><linearGradient id="linear-gradient-10" x1="249.37" y1="-4.54" x2="268.6" y2="-4.54" gradientTransform="translate(507.1 68.3) rotate(158.4) scale(1 -1)" xlink:href="#linear-gradient"/><linearGradient id="linear-gradient-11" x1="265.44" y1="-3.24" x2="286.54" y2="-3.24" gradientTransform="translate(507.1 68.3) rotate(158.4) scale(1 -1)" xlink:href="#linear-gradient"/><linearGradient id="linear-gradient-12" x1="285.27" y1="2.92" x2="305.48" y2="-5.08" gradientTransform="translate(507.1 68.3) rotate(158.4) scale(1 -1)" xlink:href="#linear-gradient"/><linearGradient id="linear-gradient-13" x1="19648.02" y1="1496.14" x2="19579.58" y2="1427.69" gradientTransform="translate(13005.92 14975.48) rotate(-135)" gradientUnits="userSpaceOnUse"><stop offset="0" stop-color="#213669"/><stop offset="1" stop-color="#4967b0"/></linearGradient><linearGradient id="linear-gradient-14" x1="13199.55" y1="11965.69" x2="13262.54" y2="11883.54" gradientTransform="translate(13436.99 12089.67) rotate(-180)" gradientUnits="userSpaceOnUse"><stop offset="0" stop-color="#6289c6"/><stop offset=".34" stop-color="#5b7ebf"/><stop offset="1" stop-color="#516eb4"/></linearGradient><linearGradient id="linear-gradient-15" x1="217.36" y1="11965.69" x2="280.35" y2="11883.54" gradientTransform="translate(-113.59 12089.67) scale(1 -1)" gradientUnits="userSpaceOnUse"><stop offset="0" stop-color="#76bbe7"/><stop offset=".62" stop-color="#6496ce"/><stop offset="1" stop-color="#5d86c4"/></linearGradient><linearGradient id="linear-gradient-16" x1="169.51" y1="111.68" x2="145.68" y2="90.01" gradientUnits="userSpaceOnUse"><stop offset="0" stop-color="#c7d6ed"/><stop offset=".55" stop-color="#e1eaf6"/><stop offset="1" stop-color="#f2f8fc"/></linearGradient><linearGradient id="linear-gradient-17" x1="13282.09" y1="127.26" x2="13323.9" y2="81.45" gradientTransform="translate(13488.81) rotate(-180) scale(1 -1)" gradientUnits="userSpaceOnUse"><stop offset="0" stop-color="#aa92c3"/><stop offset=".34" stop-color="#847eb4"/><stop offset=".78" stop-color="#5967a2"/><stop offset="1" stop-color="#495f9c"/></linearGradient><linearGradient id="linear-gradient-18" x1="13265.23" y1="12369.47" x2="13241.4" y2="12347.81" gradientTransform="translate(13437.6 12500) rotate(-180)" gradientUnits="userSpaceOnUse"><stop offset="0" stop-color="#6054a2"/><stop offset="1" stop-color="#6e58a4"/></linearGradient><linearGradient id="linear-gradient-19" x1="186.38" y1="12385.05" x2="228.18" y2="12339.25" gradientTransform="translate(-51.21 12500) scale(1 -1)" gradientUnits="userSpaceOnUse"><stop offset="0" stop-color="#aa92c3"/><stop offset=".49" stop-color="#9586be"/><stop offset="1" stop-color="#857dba"/></linearGradient><linearGradient id="linear-gradient-20" x1="103.76" y1="118.23" x2="166.75" y2="36.08" gradientUnits="userSpaceOnUse"><stop offset="0" stop-color="#96c5e9"/><stop offset=".41" stop-color="#a4d2ef"/><stop offset="1" stop-color="#b5e1f8"/></linearGradient><linearGradient id="linear-gradient-21" x1="13313.14" y1="118.23" x2="13376.13" y2="36.08" gradientTransform="translate(13550.58) rotate(-180) scale(1 -1)" gradientUnits="userSpaceOnUse"><stop offset="0" stop-color="#76bbe7"/><stop offset=".49" stop-color="#8ad6f4"/><stop offset=".61" stop-color="#7ec1e7"/><stop offset=".86" stop-color="#6696cd"/><stop offset="1" stop-color="#5d86c4"/></linearGradient><radialGradient id="radial-gradient" cx="1902.34" cy="2761.58" fx="1902.34" fy="2761.58" r="46.77" gradientTransform="translate(-2444.3 -234.6) scale(1.37 .11)" gradientUnits="userSpaceOnUse"><stop offset="0" stop-color="#fff"/><stop offset=".1" stop-color="#fff" stop-opacity=".97"/><stop offset=".25" stop-color="#fff" stop-opacity=".9"/><stop offset=".42" stop-color="#fff" stop-opacity=".78"/><stop offset=".61" stop-color="#fff" stop-opacity=".62"/><stop offset=".81" stop-color="#fff" stop-opacity=".41"/><stop offset=".99" stop-color="#fff" stop-opacity=".2"/></radialGradient><radialGradient id="radial-gradient-2" cx="-4102.95" cy="6909.51" fx="-4102.95" fy="6909.51" r="46.77" gradientTransform="translate(1053.21 3633.17) rotate(90.01) scale(.86 .13) skewX(-.46)" gradientUnits="userSpaceOnUse"><stop offset="0" stop-color="#fff" stop-opacity=".4"/><stop offset=".26" stop-color="#fff" stop-opacity=".37"/><stop offset=".62" stop-color="#fff" stop-opacity=".3"/><stop offset=".99" stop-color="#fff" stop-opacity=".2"/></radialGradient><radialGradient id="radial-gradient-3" cx="6991.84" cy="11378.61" fx="6991.84" fy="11378.61" r="46.77" gradientTransform="translate(6280.77 1534.83) rotate(179.99) scale(.86 .13) skewX(.45)" xlink:href="#radial-gradient-2"/><radialGradient id="radial-gradient-4" cx="1409.06" cy="10248.14" fx="1409.06" fy="10248.14" r="46.77" gradientTransform="translate(1363.28 -1754.1) rotate(90) scale(1.3 .12)" xlink:href="#radial-gradient"/><radialGradient id="radial-gradient-5" cx="2045.26" cy="2008.37" fx="2045.26" fy="2008.37" r="21.82" gradientTransform="translate(-2733.73 -2751.29) scale(1.41)" gradientUnits="userSpaceOnUse"><stop offset="0" stop-color="#fff" stop-opacity=".8"/><stop offset=".1" stop-color="#fff" stop-opacity=".77"/><stop offset=".25" stop-color="#fff" stop-opacity=".7"/><stop offset=".42" stop-color="#fff" stop-opacity=".58"/><stop offset=".61" stop-color="#fff" stop-opacity=".42"/><stop offset=".81" stop-color="#fff" stop-opacity=".21"/><stop offset=".99" stop-color="#fff" stop-opacity="0"/></radialGradient><linearGradient id="linear-gradient-22" x1="128.12" y1="692.46" x2="130.22" y2="758.23" gradientTransform="translate(0 -604)" gradientUnits="userSpaceOnUse"><stop offset="0" stop-color="#edefc5"/><stop offset="1" stop-color="#9c452a"/></linearGradient><linearGradient id="linear-gradient-23" x1="169.91" y1="693.41" x2="170.79" y2="758.15" xlink:href="#linear-gradient-22"/><linearGradient id="linear-gradient-24" x1="212.87" y1="693.53" x2="212.74" y2="757.98" xlink:href="#linear-gradient-22"/></defs><g><g><g><path class="cls-3" d="m116.25,123.29l-.71-9.19s.45-1.94-2.38-6.03c-2.83-4.09-8.54-8.15-8.54-8.15L14.62,34.18s9.61,21.51,13.34,28.18c8.94,15.97,17.07,21.71,17.07,21.71l71.21,39.22Z"/><path class="cls-10" d="m14.62,34.18l89.98,65.73s5.71,4.06,8.54,8.15c2.83,4.09,2.38,6.03,2.38,6.03l.71,9.19-71.21-39.22s-8.13-5.74-17.07-21.71c-3.73-6.67-13.34-28.18-13.34-28.18m-7.4-9.15l4.63,10.38c.39.88,9.7,21.72,13.46,28.43,9.17,16.38,17.61,22.45,17.96,22.7l.14.1.15.08,71.21,39.22,4.9,2.7-.43-5.58-.69-8.89c.1-1.31-.22-3.9-2.94-7.82-3.1-4.47-9.02-8.72-9.28-8.89L16.41,31.74l-9.18-6.71h0Z"/></g><g><path class="cls-3" d="m118.13,142.65l-.07-8.8s-.18-2.12-1.81-4.45c-1.54-2.2-6.62-4.37-6.62-4.37L28.16,79.2s1.08,6.09,7.7,16.78c7.54,12.17,20.85,24.48,20.85,24.48l61.41,22.19Z"/><path class="cls-10" d="m28.16,79.2l81.46,45.82s5.08,2.17,6.62,4.37c1.64,2.34,1.81,4.45,1.81,4.45l.07,8.8-61.41-22.19s-13.31-12.31-20.85-24.48c-6.63-10.69-7.7-16.78-7.7-16.78m-4.09-5.77l1.11,6.29c.05.27,1.26,6.79,8.11,17.85,7.67,12.37,20.81,24.59,21.37,25.1l.45.42.58.21,61.41,22.19,4.08,1.48-.03-4.34-.07-8.8v-.11s-.01-.11-.01-.11c-.03-.3-.3-3.02-2.35-5.94-1.85-2.64-6.49-4.8-7.75-5.35L29.64,76.56l-5.57-3.13h0Z"/></g><g><path class="cls-3" d="m119.31,155.92l-.04-5.53s-.01-2.02-.79-3.33c-.67-1.12-3.52-1.55-3.52-1.55l-75.95-25.93s2.18,4.3,10.83,13.43c8.88,9.38,22.02,15.08,22.02,15.08l47.45,7.84Z"/><path class="cls-10" d="m117.04,146.06c.61.24,1.18.57,1.43.99.78,1.31.79,3.33.79,3.33l.04,5.53-47.45-7.84s-13.15-5.7-22.02-15.08c-8.65-9.13-10.83-13.43-10.83-13.43l75.95,25.93s1.09.17,2.09.56m1.11-2.81c-.96-.38-1.96-.59-2.45-.69l-75.72-25.85-7.04-2.4,3.36,6.63c.24.48,2.63,4.95,11.33,14.14,9.2,9.71,22.46,15.53,23.02,15.78l.34.15.37.06,47.45,7.84,3.54.59-.03-3.59-.04-5.53c0-.47-.07-2.94-1.22-4.86-.58-.97-1.53-1.71-2.92-2.26h0Z"/></g><g><path class="cls-3" d="m64.95,164.86s7.92,1.7,14.66-2.47c6.74-4.17,10.35-8.47,10.35-8.47l-10.08-.65s-4.1,1.24-5.93,2.58-9,9-9,9Z"/><path class="cls-10" d="m89.95,153.92s-3.61,4.3-10.35,8.47-14.66,2.47-14.66,2.47c0,0,7.17-7.66,9-9,1.83-1.34,5.93-2.58,5.93-2.58l10.08.65m6.16-2.63l-5.97-.38-10.08-.65-.55-.04-.52.16c-.77.23-4.7,1.47-6.84,3.04-1.96,1.44-8.19,8.06-9.42,9.38l-3.65,3.9,5.22,1.12c.37.08,9.19,1.9,16.88-2.85,7.07-4.38,10.91-8.9,11.07-9.09l3.84-4.58h0Z"/></g><g><path class="cls-3" d="m77.31,177.28s10.63,3.15,18.22-5.3c7.59-8.45,12.72-15.53,12.72-15.53l-15.66-1.85-15.28,22.68Z"/><path class="cls-10" d="m108.25,156.45s-5.14,7.09-12.72,15.53c-7.59,8.45-18.22,5.3-18.22,5.3l15.28-22.68,15.66,1.85m5.47-2.4l-5.12-.6-15.66-1.85-1.83-.22-1.03,1.53-15.28,22.68-2.3,3.42,3.95,1.17c.51.15,12.56,3.58,21.32-6.18,7.6-8.47,12.71-15.49,12.92-15.78l3.03-4.17h0Z"/></g><g><path class="cls-3" d="m110.78,157l-16.12,37.52s12.21-3.92,16.45-7.8c4.24-3.89,11.41-11.71,11.41-11.71l-3.32-17.06-8.42-.95Z"/><path class="cls-10" d="m119.2,157.94l3.32,17.06s-7.17,7.82-11.41,11.71c-4.24,3.89-16.45,7.8-16.45,7.8l16.12-37.52,8.42.95m2.54-2.76l-2.21-.25-8.42-.95-2.23-.25-.89,2.06-16.12,37.52-2.62,6.1,6.32-2.03c1.31-.42,12.97-4.24,17.57-8.45,4.29-3.93,11.3-11.57,11.6-11.89l1.03-1.12-.29-1.5-3.32-17.06-.42-2.18h0Z"/></g></g><g><path class="cls-28" d="m116.25,123.29s-7.66-7.57-10.5-11.66c-2.83-4.09-13.04-12.59-13.04-12.59L14.62,34.18s9.61,21.51,13.34,28.18c8.94,15.97,17.07,21.71,17.07,21.71l71.21,39.22Z"/><path class="cls-1" d="m118.13,142.65s-3.04-3.46-7.65-7.08c-2.11-1.66-8.43-6.3-8.43-6.3L28.16,79.2s1.08,6.09,7.7,16.78c7.54,12.17,20.85,24.48,20.85,24.48l61.41,22.19Z"/><path class="cls-27" d="m119.31,155.92s-2.19-4.07-6.99-6.05c-15-6.19-73.31-30.29-73.31-30.29,0,0,2.18,4.3,10.83,13.43,8.88,9.38,22.02,15.08,22.02,15.08l47.45,7.84Z"/><path class="cls-31" d="m64.95,164.86s7.92,1.7,14.66-2.47c6.74-4.17,10.35-8.47,10.35-8.47l-5.48-.35s-5.67,5.69-7.5,7.04-12.02,4.25-12.02,4.25Z"/><path class="cls-20" d="m77.31,177.28s10.63,3.15,18.22-5.3c7.59-8.45,12.72-15.53,12.72-15.53l-8.05-.95-22.89,21.79Z"/><path class="cls-9" d="m115.22,157.5l-20.57,37.02s12.21-3.92,16.45-7.8c4.24-3.89,11.41-11.71,11.41-11.71l-3.32-17.06-3.98-.45Z"/></g></g><g><g><g><path class="cls-3" d="m225.83,123.29l.71-9.19s-.45-1.94,2.38-6.03c2.83-4.09,8.54-8.15,8.54-8.15l89.98-65.73s-9.61,21.51-13.34,28.18c-8.94,15.97-17.07,21.71-17.07,21.71l-71.21,39.22Z"/><path class="cls-10" d="m327.45,34.18s-9.61,21.51-13.34,28.18c-8.94,15.97-17.07,21.71-17.07,21.71l-71.21,39.22.71-9.19s-.45-1.94,2.38-6.03c2.83-4.09,8.54-8.15,8.54-8.15l89.98-65.73m7.4-9.15l-9.18,6.71-89.95,65.71c-.25.18-6.18,4.42-9.28,8.89-2.72,3.92-3.04,6.51-2.94,7.82l-.69,8.89-.43,5.58,4.9-2.7,71.21-39.22.15-.08.14-.1c.35-.25,8.8-6.32,17.96-22.7,3.76-6.71,13.07-27.54,13.46-28.43l4.63-10.38h0Z"/></g><g><path class="cls-3" d="m223.94,142.65l.07-8.8s.18-2.12,1.81-4.45c1.54-2.2,6.62-4.37,6.62-4.37l81.46-45.82s-1.08,6.09-7.7,16.78c-7.54,12.17-20.85,24.48-20.85,24.48l-61.41,22.19Z"/><path class="cls-10" d="m313.91,79.2s-1.08,6.09-7.7,16.78c-7.54,12.17-20.85,24.48-20.85,24.48l-61.41,22.19.07-8.8s.18-2.12,1.81-4.45c1.54-2.2,6.62-4.37,6.62-4.37l81.46-45.82m4.09-5.77l-5.57,3.13-81.33,45.74c-1.27.55-5.9,2.71-7.75,5.35-2.05,2.92-2.32,5.64-2.35,5.94v.11s-.01.11-.01.11l-.07,8.8-.03,4.34,4.08-1.48,61.41-22.19.58-.21.45-.42c.56-.51,13.69-12.73,21.37-25.1,6.86-11.06,8.06-17.58,8.11-17.85l1.11-6.29h0Z"/></g><g><path class="cls-3" d="m222.76,155.92l.04-5.53s.01-2.02.79-3.33c.67-1.12,3.52-1.55,3.52-1.55l75.95-25.93s-2.18,4.3-10.83,13.43c-8.88,9.38-22.02,15.08-22.02,15.08l-47.45,7.84Z"/><path class="cls-10" d="m225.03,146.06c.99-.39,2.09-.56,2.09-.56l75.95-25.93s-2.18,4.3-10.83,13.43c-8.88,9.38-22.02,15.08-22.02,15.08l-47.45,7.84.04-5.53s.01-2.02.79-3.33c.25-.43.83-.75,1.43-.99m-1.11-2.81c-1.38.55-2.34,1.29-2.92,2.26-1.15,1.92-1.22,4.39-1.22,4.86l-.04,5.53-.03,3.59,3.54-.59,47.45-7.84.37-.06.34-.15c.56-.24,13.82-6.06,23.02-15.78,8.7-9.19,11.08-13.66,11.33-14.14l3.36-6.63-7.04,2.4-75.72,25.85c-.49.09-1.48.3-2.45.69h0Z"/></g><g><path class="cls-3" d="m277.12,164.86s-7.92,1.7-14.66-2.47c-6.74-4.17-10.35-8.47-10.35-8.47l10.08-.65s4.1,1.24,5.93,2.58,9,9,9,9Z"/><path class="cls-10" d="m252.12,153.92l10.08-.65s4.1,1.24,5.93,2.58c1.83,1.34,9,9,9,9,0,0-7.92,1.7-14.66-2.47-6.74-4.17-10.35-8.47-10.35-8.47m-6.16-2.63l3.84,4.58c.16.19,4,4.72,11.07,9.09,7.69,4.76,16.51,2.93,16.88,2.85l5.22-1.12-3.65-3.9c-1.23-1.31-7.46-7.94-9.42-9.38-2.14-1.57-6.07-2.81-6.84-3.04l-.52-.16-.55.04-10.08.65-5.97.38h0Z"/></g><g><path class="cls-3" d="m264.76,177.28s-10.63,3.15-18.22-5.3c-7.59-8.45-12.72-15.53-12.72-15.53l15.66-1.85,15.28,22.68Z"/><path class="cls-10" d="m233.82,156.45l15.66-1.85,15.28,22.68s-10.63,3.15-18.22-5.3c-7.59-8.45-12.72-15.53-12.72-15.53m-5.47-2.4l3.03,4.17c.21.29,5.32,7.31,12.92,15.78,8.76,9.76,20.82,6.33,21.32,6.18l3.95-1.17-2.3-3.42-15.28-22.68-1.03-1.53-1.83.22-15.66,1.85-5.12.6h0Z"/></g><g><path class="cls-3" d="m231.3,157l16.12,37.52s-12.21-3.92-16.45-7.8c-4.24-3.89-11.41-11.71-11.41-11.71l3.32-17.06,8.42-.95Z"/><path class="cls-10" d="m222.88,157.94l8.42-.95,16.12,37.52s-12.21-3.92-16.45-7.8c-4.24-3.89-11.41-11.71-11.41-11.71l3.32-17.06m-2.54-2.76l-.42,2.18-3.32,17.06-.29,1.5,1.03,1.12c.3.32,7.31,7.96,11.6,11.89,4.6,4.21,16.25,8.03,17.57,8.45l6.32,2.03-2.62-6.1-16.12-37.52-.89-2.06-2.23.25-8.42.95-2.21.25h0Z"/></g></g><g><path class="cls-23" d="m225.83,123.29s7.66-7.57,10.5-11.66c2.83-4.09,13.04-12.59,13.04-12.59l78.08-64.87s-9.61,21.51-13.34,28.18c-8.94,15.97-17.07,21.71-17.07,21.71l-71.21,39.22Z"/><path class="cls-33" d="m223.94,142.65s3.04-3.46,7.65-7.08c2.11-1.66,8.43-6.3,8.43-6.3l73.89-50.06s-1.08,6.09-7.7,16.78c-7.54,12.17-20.85,24.48-20.85,24.48l-61.41,22.19Z"/><path class="cls-25" d="m222.76,155.92s2.19-4.07,6.99-6.05c15-6.19,73.31-30.29,73.31-30.29,0,0-2.18,4.3-10.83,13.43-8.88,9.38-22.02,15.08-22.02,15.08l-47.45,7.84Z"/><path class="cls-15" d="m277.12,164.86s-7.92,1.7-14.66-2.47c-6.74-4.17-10.35-8.47-10.35-8.47l5.48-.35s5.67,5.69,7.5,7.04,12.02,4.25,12.02,4.25Z"/><path class="cls-14" d="m264.76,177.28s-10.63,3.15-18.22-5.3c-7.59-8.45-12.72-15.53-12.72-15.53l8.05-.95,22.89,21.79Z"/><path class="cls-34" d="m226.85,157.5l20.57,37.02s-12.21-3.92-16.45-7.8c-4.24-3.89-11.41-11.71-11.41-11.71l3.32-17.06,3.98-.45Z"/></g></g><polygon class="cls-19" points="252.45 121.1 231.59 121.1 170.6 47.76 170.6 24.3 252.45 121.1"/><g><polygon class="cls-13" points="86.23 121.1 170.04 21.98 253.85 121.1 170.04 220.22 86.23 121.1"/><path class="cls-32" d="m170.04,24.3l81.85,96.8-81.85,96.8-81.85-96.8L170.04,24.3m0-4.65l-2.29,2.71-81.85,96.8-1.64,1.94,1.64,1.94,81.85,96.8,2.29,2.71,2.29-2.71,81.85-96.8,1.64-1.94-1.64-1.94L172.33,22.37l-2.29-2.71h0Z"/></g><polygon class="cls-35" points="170.6 24.3 252.45 121.1 170.6 121.1 88.75 121.1 170.6 24.3"/><polygon class="cls-7" points="252.45 121.1 231.15 121.1 170.6 194.45 170.6 217.9 252.45 121.1"/><polygon class="cls-5" points="88.75 121.1 110.05 121.1 170.6 194.45 170.6 217.9 88.75 121.1"/><g><polygon class="cls-17" points="116.47 121.1 170.84 121.1 170.84 55.25 116.47 121.1"/><polygon class="cls-4" points="225.4 121.1 171.04 121.1 171.04 55.25 225.4 121.1"/><polygon class="cls-6" points="225.4 121.1 171.04 121.1 171.04 186.96 225.4 121.1"/><polygon class="cls-30" points="116.47 121.1 170.84 121.1 170.84 186.96 116.47 121.1"/></g><polygon class="cls-8" points="88.75 121.1 110.05 121.1 170.6 47.76 170.6 24.3 88.75 121.1"/><polygon class="cls-18" points="252.45 121.1 231.15 121.1 170.6 47.76 170.6 24.3 252.45 121.1"/><ellipse class="cls-16" cx="160.07" cy="73.45" rx="78.34" ry="2.23"/><ellipse class="cls-21" cx="157.72" cy="73.45" rx="2.6" ry="49" transform="translate(-9.5 121.48) rotate(-41)"/><ellipse class="cls-22" cx="154.85" cy="75.68" rx="49.51" ry="2.57" transform="translate(-13.81 111.2) rotate(-37.94)"/><path class="cls-12" d="m157.72-.76c-1.3,0-2.36,33.23-2.36,74.22s1.06,74.22,2.36,74.22,2.36-33.23,2.36-74.22S159.02-.76,157.72-.76"/><ellipse class="cls-11" cx="157.72" cy="73.45" rx="27.87" ry="33.39"/><g><g><polygon class="cls-26" points="119.57 154.03 94.61 89.53 114.56 89.53 128.1 127.48 141.75 89.53 161.69 89.53 136.63 154.03 119.57 154.03"/><path class="cls-2" d="m159.5,91.03l-23.9,61.5h-15l-23.8-61.5h16.7l14.6,40.9,14.7-40.9h16.7m4.38-3h-23.19l-.71,1.99-11.87,33.02-11.78-33.01-.71-1.99h-23.19l1.58,4.08,23.8,61.5.74,1.92h19.11l.74-1.91,23.9-61.5,1.59-4.09h0Z"/></g><g><rect class="cls-29" x="161.1" y="89.53" width="18.5" height="64.5"/><path class="cls-2" d="m178.1,91.03v61.5h-15.5v-61.5h15.5m3-3h-21.5v67.5h21.5v-67.5h0Z"/></g><g><path class="cls-24" d="m187.7,153.93v-1.4h-1.5v-63h25.1c23.31,0,28.2,12.29,28.2,22.6s-4.89,22.6-28.2,22.6h-6.5v19.2h-17.1Zm24.1-36.1c8.9,0,8.9-3.64,8.9-5.6,0-3.46-1.49-5.6-8.9-5.6h-7.1v11.2h7.1Z"/><path class="cls-2" d="m211.3,91.03c17.7,0,26.7,7.1,26.7,21.1s-9,21.1-26.7,21.1h-8v19.2h-15.6v-61.4h23.6m-8.1,28.3h8.6c9.2,0,10.4-3.8,10.4-7.1,0-5-3.1-7.1-10.4-7.1h-8.6v14.2m-15.5,33.1v.1-.1m23.6-64.4h-26.6v67.4h21.6v-19.2h5c24.55,0,29.7-13.11,29.7-24.1s-5.15-24.1-29.7-24.1h0Zm-5.1,20.1h5.6c7.4,0,7.4,2.18,7.4,4.1,0,1.73,0,4.1-7.4,4.1h-5.6v-8.2h0Z"/></g></g></svg>