<?xml version="1.0" encoding="UTF-8"?><svg id="Layer_1" xmlns="http://www.w3.org/2000/svg" viewBox="0 0 410 430"><defs><style>.cls-1{fill:none;stroke:#fff;stroke-linecap:round;stroke-linejoin:round;stroke-width:16px;}</style></defs><path class="cls-1" d="m253.73,105c7.35-10.19,11.29-22.44,11.27-35,0-33.12-26.88-60-60-60s-60,26.89-60,60c-.02,12.56,3.93,24.81,11.27,35" vector-effect="non-scaling-stroke"/><path class="cls-1" d="m197,420c-15.77-21.96-30.41-41.31-45-65-24.32-39.47-21.42-65.28-39-98-3.81-7.11-7.81-14.11-12-21-5.7-11.81-1.9-25.72,9-33,11.89-7.94,27.95-4.81,36,7l33,55V70c.55-13.99,12-25,26-25s25.45,11.01,26,25v145-42c-.28-14.07,10.93-25.72,25-26,14.42-.28,26.28,11.57,26,26v42-25c-.28-14.07,10.93-25.72,25-26,14.42-.28,26.28,11.57,26,26v41-23c-.83-14.41,10.57-26.72,25-27,14.78-.29,26.85,12.24,26,27,1.14,20.01,0,38.02,0,57,0,68.01-35.02,110.63-34,155" vector-effect="non-scaling-stroke"/></svg>