<svg xmlns="http://www.w3.org/2000/svg" width="410" height="430"><line x1="145" y1="70" x2="10" y2="70" vector-effect="non-scaling-stroke" stroke-width="16" stroke="#FFF" stroke-linejoin="round" stroke-linecap="round" stroke-miterlimit="3"/><path d="M43 37 10 70l33 33" fill="none" vector-effect="non-scaling-stroke" stroke-width="16" stroke="#FFF" stroke-linejoin="round" stroke-linecap="round" stroke-miterlimit="3"/><line x1="265" y1="70" x2="400" y2="70" vector-effect="non-scaling-stroke" stroke-width="16" stroke="#FFF" stroke-linejoin="round" stroke-linecap="round" stroke-miterlimit="3"/><path d="m367 103 33-33-33-33" fill="none" vector-effect="non-scaling-stroke" stroke-width="16" stroke="#FFF" stroke-linejoin="round" stroke-linecap="round" stroke-miterlimit="3"/><path d="M253.726 105A59.705 59.705 0 0 0 265 70c0-33.115-26.885-60-60-60-33.115 0-60 26.885-60 60a59.705 59.705 0 0 0 11.274 35" fill="none" vector-effect="non-scaling-stroke" stroke-width="16" stroke="#FFF" stroke-linejoin="round" stroke-linecap="round" stroke-miterlimit="3"/><path d="M197 420c-15.769-21.964-30.407-41.313-45-65-24.319-39.474-21.422-65.282-39-98a438.983 438.983 0 0 0-12-21c-5.699-11.807-1.904-25.722 9-33 11.889-7.936 27.951-4.812 36 7l33 55V70c.549-13.992 11.998-25 26-25s25.451 11.008 26 25v145-42c-.276-14.074 10.926-25.724 25-26 14.425-.283 26.283 11.575 26 26v42-25c-.276-14.074 10.926-25.724 25-26 14.425-.283 26.283 11.575 26 26v41-23c-.827-14.412 10.567-26.717 25-27 14.784-.289 26.847 12.237 26 27 1.14 20.006 0 38.019 0 57 0 68.012-35.017 110.633-34 155" fill="none" vector-effect="non-scaling-stroke" stroke-width="16" stroke="#FFF" stroke-linejoin="round" stroke-linecap="round" stroke-miterlimit="3"/></svg>