<svg xmlns="http://www.w3.org/2000/svg" width="59" height="62" viewBox="0 0 59 62">
  <defs>
    <style>
      .cls-1 {
        fill: #fff;
        fill-rule: evenodd;
      }
    </style>
  </defs>
  <path class="cls-1" d="M0.024,6.346A5.684,5.684,0,0,1,1.3,2.9,0.416,0.416,0,0,0,1.366,2.82c0.149-.347.309-0.269,0.53-0.047,4.07,4.078,22.9,22.9,28.246,28.24,0.138,0.138.148,0.2,0,.342Q16.058,45.428,1.979,59.509c-0.38.38-.357,0.363-0.689-0.071A6.419,6.419,0,0,1,.191,57.2,6.112,6.112,0,0,1,0,55.589C0.011,50.947-.026,8,0.024,6.346ZM42.561,43.481C40.788,44.42,10.1,60.864,9.112,61.354A5.747,5.747,0,0,1,7.32,61.9a8.234,8.234,0,0,1-1.083.1,9.07,9.07,0,0,1-1.756-.3c-0.208-.041-0.185-0.156-0.035-0.306,4.618-4.607,23.2-23.188,27.874-27.87,0.123-.123.181-0.152,0.32-0.013q4.94,4.95,9.888,9.891A0.287,0.287,0,0,1,42.561,43.481ZM4.306,0.744A5.8,5.8,0,0,1,6.981.4,5.112,5.112,0,0,1,8.854.871c1.358,0.622,33.268,17.78,33.536,17.886,0.187,0.074.194,0.162,0.039,0.317q-4.437,4.42-8.863,8.851c-0.253.253-.523,0.493-0.757,0.764-0.2.236-.329,0.254-0.568,0.014C28.331,24.775,9.753,6.212,4.385.846A0.937,0.937,0,0,1,4.306.744ZM54.82,36.9c-1.429.741-8.641,4.622-9.093,4.887a0.311,0.311,0,0,1-.449-0.058q-5.186-5.195-10.384-10.379c-0.173-.173-0.138-0.262.015-0.414q5.207-5.2,10.4-10.4c0.124-.124.18-0.107,0.33-0.026,2.269,1.223,8.782,4.687,9.737,5.254a5.8,5.8,0,0,1,2.968,5.388A6.685,6.685,0,0,1,54.82,36.9Z"/>
</svg>
