<?xml version="1.0" encoding="UTF-8"?><svg id="Layer_1" xmlns="http://www.w3.org/2000/svg" viewBox="0 0 36.89 17.02"><defs><style>.cls-1{fill:#fff;}</style></defs><path class="cls-1" d="m35.83,4.31l-10.94-.19-.19-.38-3.84-.57-.58-.57h-.96v-.76h-.96l-.77-.95h-2.3l-.19.95-8.25-.19-1.54,4.77h2.5v.57H3.39l-1.92,4.97,5.57,4.19h23.22l5.57-4.58-.38-1.72-3.84-3.06-4.22.19-.96-.96h-1.15l-1.92.96h-1.54l-.77-1.15,3.65-.38.19-.38h10.94v-.76Zm.95,1.72h-4.61l.02.02,4.1,3.27.07.33.51,2.29-6.03,4.95-.26.22H6.72L.32,12.28l2.42-6.25h1.69L6.16.67l8.17.19.19-.94h3.54l.77.95h1.46v.76h.4l.63.63,3.53.53.49.07.15.31,11.3.2v2.66Z"/></svg>