<?xml version="1.0" encoding="UTF-8"?><svg id="Layer_1" xmlns="http://www.w3.org/2000/svg" viewBox="0 0 226.5 89.16"><defs><style>.cls-1{fill:#fff;}</style></defs><path class="cls-1" d="m63.01,67.16c.07.05.13.07.17.07.11,0,.03-.03-.17-.07Z"/><path class="cls-1" d="m35.47,24.08c-2.14-3.15-4.18-5.18-5.38-5.84-1,.54-2.65,2.17-4.45,4.58-.52.69-1.05,1.44-1.58,2.26-3.06,4.21-6.28,12.72-6.97,18.78v45.29h25.98v-45c-.96-6.55-4.01-14.74-6.94-19.08-.22-.35-.45-.68-.67-1.01Z"/><path class="cls-1" d="m218.86,67.16c.07.05.13.07.17.07.11,0,.03-.03-.17-.07Z"/><path class="cls-1" d="m191.32,24.08c-2.14-3.15-4.18-5.18-5.38-5.84-1,.54-2.65,2.17-4.45,4.58-.52.69-1.05,1.44-1.58,2.26-3.06,4.21-6.28,12.72-6.97,18.78v45.29h25.98v-45c-.96-6.55-4.01-14.74-6.94-19.08-.22-.35-.45-.68-.67-1.01Z"/><path class="cls-1" d="m140.49,67.16c.07.05.13.07.17.07.11,0,.03-.03-.17-.07Z"/><path class="cls-1" d="m112.95,24.08c-2.14-3.15-4.18-5.18-5.38-5.84-1,.54-2.65,2.17-4.45,4.58-.52.69-1.05,1.44-1.58,2.26-3.06,4.21-6.28,12.72-6.97,18.78v45.29h25.98v-45c-.96-6.55-4.01-14.74-6.94-19.08-.22-.35-.45-.68-.67-1.01Z"/><path class="cls-1" d="m124.03,38.15l19.68-14.48-20.59,2.94,11.77-13.8-17.65,5.66,8.82-11.77-18.33,9.28-10.63-9.28v10.63l-7.92-8.37,3.39,18.55-17.87-7.92,12.22,19.01h-15.84l14.03,6.79-11.77,11.31,19.06-7.33v-5.5c.72-6.28,4-15.1,7.32-19.69,2.36-3.64,4.93-6.5,6.71-7.47l.96-.52.96.52c1.89,1.03,4.48,3.91,6.77,7.51,3.15,4.68,6.27,13.22,7.25,19.88l.02.14v4.03l18.83,2.77-17.2-12.9Z"/><path class="cls-1" d="m200.91,43.76l.02.14v30l15.99,11.85-11.46-21.01s11.67,1.9,13.4,2.3c-1.96-1.21-16.46-17.91-16.46-17.91l5.77-5.43,18.33-17.65-18.67,6.62,3.39-11.37-11.2,6.11v-15.27l-7.45,10.12c.37.52.73,1.06,1.09,1.62,3.15,4.68,6.27,13.22,7.25,19.88Z"/><path class="cls-1" d="m170.95,43.76v-.23c.72-6.28,4-15.1,7.32-19.69.66-1.02,1.34-1.96,2.01-2.84l-8.76-12.26,2.38,19.01-10.18-4.75,2.38,8.82-20.7-5.09,18.67,14.25-18.67,1.7,18.67,13.92-18.67,19.01,20.36-9.16-4.75,16.29,9.95-9.7v-29.27Z"/><path class="cls-1" d="m41.86,25.56l18.33-6.34-17.87-1.36,7.69-12.22-14.71,7.24v-7.24l-6.11,5.66-7.01-4.53,2.94,6.56-11.54-3.62,3.85,8.6H0l16.52,7.47-12.67,9.05,14.09-2.14c1.3-3.42,2.88-6.61,4.48-8.82,2.36-3.64,4.93-6.5,6.71-7.47l.96-.52.96.52c1.89,1.03,4.48,3.91,6.77,7.51,1.5,2.22,2.98,5.32,4.24,8.67l18.13,2.25-18.33-9.28Z"/></svg>