<?xml version="1.0" encoding="UTF-8"?><svg id="Layer_1" xmlns="http://www.w3.org/2000/svg" viewBox="0 0 231.19 89.16"><defs><style>.cls-1{fill:#fff;}</style></defs><path class="cls-1" d="m67.73,67.16c.07.05.13.07.17.07.11,0,.03-.03-.17-.07Z"/><path class="cls-1" d="m40.19,24.08c-2.14-3.15-4.18-5.18-5.38-5.84-1,.54-2.65,2.17-4.45,4.58-.52.69-1.05,1.44-1.58,2.26-3.06,4.21-6.28,12.72-6.97,18.78v45.29h25.98v-45c-.96-6.55-4.01-14.74-6.94-19.08-.22-.35-.45-.68-.67-1.01Z"/><path class="cls-1" d="m223.58,67.16c.07.05.13.07.17.07.11,0,.03-.03-.17-.07Z"/><path class="cls-1" d="m196.04,24.08c-2.14-3.15-4.18-5.18-5.38-5.84-1,.54-2.65,2.17-4.45,4.58-.52.69-1.05,1.44-1.58,2.26-3.06,4.21-6.28,12.72-6.97,18.78v45.29h25.98v-45c-.96-6.55-4.01-14.74-6.94-19.08-.22-.35-.45-.68-.67-1.01Z"/><path class="cls-1" d="m145.2,67.16c.07.05.13.07.17.07.11,0,.03-.03-.17-.07Z"/><path class="cls-1" d="m117.67,24.08c-2.14-3.15-4.18-5.18-5.38-5.84-1,.54-2.65,2.17-4.45,4.58-.52.69-1.05,1.44-1.58,2.26-3.06,4.21-6.28,12.72-6.97,18.78v45.29h25.98v-45c-.96-6.55-4.01-14.74-6.94-19.08-.22-.35-.45-.68-.67-1.01Z"/><polygon class="cls-1" points="134.94 32.49 125.03 32.36 137.02 43.03 134.94 32.49"/><polygon class="cls-1" points="108.58 -.8 105.42 1.39 111.74 8.92 113.32 7.46 113.32 1.39 108.58 -.8"/><polygon class="cls-1" points="91.68 38.13 83.33 43.94 92.73 49.42 94.81 45.77 91.68 38.13"/><polygon class="cls-1" points="78.13 2.89 76.03 3.42 91.16 12.83 93.47 12.25 90.1 3.35 78.13 2.89"/><polygon class="cls-1" points="134.93 20.1 134.66 23.33 138.34 25.62 146.1 24.43 137.36 19.51 134.93 20.1"/><path class="cls-1" d="m106.33,19.38l-29.48,24.4,22.2-20.74-30.81,7.3,30.88-10.96-21.74-4.71,26.86,1.57L92.12-.8l16.82,14.55,20.61-10.78-14.35,10.72,34.96-4.86-32.61,6.28,28.43,2.24h-23.48l20.69,13.94s-20.32-9.82-29.61-14.52c-1.95-.99-4.06.1-4.06.1l-3.2,2.51Z"/><polygon class="cls-1" points="29.33 .04 19.42 -.09 31.4 10.59 29.33 .04"/><polygon class="cls-1" points="52.9 4.07 50.47 1.09 43.46 7.98 45.03 9.44 51.09 8.96 52.9 4.07"/><polygon class="cls-1" points="1.26 10.33 0 11.45 13.78 12.51 15.16 11.28 9.66 6.37 1.26 10.33"/><path class="cls-1" d="m29.48,19.54l-26.94-3.46,24.85.31L12.22,1.86l19.87,12.04L40.49,1.86l-2.15,11.99,34.96-4.86-32.61,6.28,28.43,2.24s-30.49.91-31.11.4c-2.83-2.35-5.34-.88-5.34-.88l-3.2,2.51Z"/><polygon class="cls-1" points="216 61.68 208.97 54.7 210.16 70.7 216 61.68"/><polygon class="cls-1" points="187.97 0 184.81 2.19 191.13 9.72 192.71 8.27 192.71 2.19 187.97 0"/><polygon class="cls-1" points="165.33 66.88 156.99 72.69 166.38 78.17 168.46 74.52 165.33 66.88"/><polygon class="cls-1" points="158.8 49.75 152.04 45.95 152.06 54.29 155.13 54.5 158.8 49.75"/><polygon class="cls-1" points="157.52 3.69 155.42 4.22 170.55 13.63 172.86 13.05 169.49 4.16 157.52 3.69"/><polygon class="cls-1" points="148.93 33.27 148.89 35.44 159.2 29.18 161.95 20.9 152.49 21.83 148.93 33.27"/><polygon class="cls-1" points="216.43 21.29 216 25.39 220.3 28.17 229.59 26.39 219.34 20.45 216.43 21.29"/><polygon class="cls-1" points="228.42 51.65 231.19 48.6 229.36 43.82 220.82 39.76 225.58 50.61 228.42 51.65"/><path class="cls-1" d="m185.72,20.18l-30.3,48.07,23.02-44.41-32.34,20.74,32.41-24.4-21.74-4.71,26.86,1.57L171.51,0l16.82,14.55,20.61-10.78-14.35,10.72,34.96-4.86-29.97,8.05,31.64,21.25-28.57-14.62,20.15,30.83-26.75-35.46s-2.74-3.03-7.13-2c-.99.23-3.2,2.51-3.2,2.51Z"/></svg>