<?xml version="1.0" encoding="UTF-8"?><svg id="Layer_1" xmlns="http://www.w3.org/2000/svg" viewBox="0 0 180.5 71.1"><defs><style>.cls-1{fill:#fff;}</style></defs><path class="cls-1" d="m25.6,23.5c0-.1-.1-.2-.1-.4-.1-.3-.1-.6-.2-.9,0-.1-.1-.3-.1-.4-.1-.3-.1-.6-.2-.9,0-.1-.1-.3-.1-.4-.1-.3-.2-.6-.2-.8,0-.1-.1-.3-.1-.4-.1-.3-.2-.6-.3-.9,0-.1-.1-.3-.1-.4-.1-.3-.2-.6-.3-.9,0-.1-.1-.3-.1-.4-.1-.3-.2-.6-.3-.9,0-.1-.1-.2-.1-.3-.1-.3-.2-.6-.3-.9,0-.1-.1-.2-.1-.3-.1-.3-.3-.6-.4-.9,0-.1-.1-.2-.1-.3-.1-.3-.3-.6-.4-1,0-.1-.1-.1-.1-.2-.1-.3-.3-.7-.5-1,0,0,0-.1-.1-.1-.2-.3-.3-.7-.5-1v-.1c-.5-1-1.1-2-1.6-2.8C16.9,3.2,14.6.8,13.2.1h0c-.1,0-.1.1-.2.1-1.3.8-3.5,3.2-5.8,6.7-1.7,2.4-3.5,6.1-4.8,9.9v.1c-.4.4-.5.8-.7,1.1q0,.1-.1.2c-.1.3-.2.7-.3,1,0,.1-.1.2-.1.3-.1.3-.2.6-.2.9,0,.1-.1.3-.1.4-.1.3-.1.5-.2.8,0,.2-.1.4-.1.5,0,.2-.1.4-.1.6s-.5,2.8-.5,2.8v45.3h2.5v-.1h21v.1h2.5V25.8s-.3-2-.4-2.3ZM2.5,65.6v-5.1h21.1v5.1H2.5Z"/><path class="cls-1" d="m77.6,23.5c0-.1-.1-.3-.1-.4-.1-.3-.1-.6-.2-.9,0-.1-.1-.3-.1-.4-.1-.3-.1-.6-.2-.8,0-.2-.1-.3-.1-.5-.1-.3-.2-.6-.2-.8,0-.1-.1-.3-.1-.4-.1-.3-.2-.6-.3-.9,0-.1-.1-.3-.1-.4-.1-.3-.2-.6-.3-.9,0-.1-.1-.3-.1-.4-.1-.3-.2-.6-.3-.9,0-.1-.1-.2-.1-.4-.1-.3-.2-.6-.3-.9,0-.1-.1-.2-.1-.3-.1-.3-.2-.6-.4-.9,0-.1-.1-.2-.1-.3-.1-.3-.3-.6-.4-.9,0-.1-.1-.1-.1-.2-.1-.3-.3-.6-.4-1q0-.1-.1-.2c-.2-.3-.3-.7-.5-1v-.1c-.5-1-1.1-2-1.6-2.8-2.4-3.7-4.7-6.1-6.1-6.8h0c-.1,0-.1.1-.2.1-1.3.8-3.5,3.2-5.8,6.7-1.5,2.1-3.1,5.3-4.4,8.7h0c-.1.4-.3.8-.4,1.2q0,.1-.1.2c-.1.3-.2.7-.3,1.1,0,.1-.1.2-.1.3-.1.3-.2.6-.3.9,0,.2-.1.3-.1.5-.1.2-.1.5-.2.7-.1.2-.1.4-.2.6-.1.2-.1.4-.1.6-.1.2-.1.5-.2.7,0,.2-.1.3-.1.4-.1.3-.1.5-.2.8,0,.1-.6,2.2-.6,2.2v45.3h26V26l-.2-1.3s-.1-.9-.2-1.2Zm-2.1,26.6v5.2h-21.1v-5.2h21.1Zm-21.1,15.6v-5.2h21.1v5.2h-21.1Z"/><path class="cls-1" d="m127.9,22.2c0-.1-.1-.3-.1-.4-.1-.3-.1-.6-.2-.8,0-.2-.1-.3-.1-.5-.1-.3-.2-.6-.2-.8,0-.1-.1-.3-.1-.4-.1-.3-.2-.6-.3-.9,0-.1-.1-.3-.1-.4-.1-.3-.2-.6-.3-.9,0-.1-.1-.3-.1-.4-.1-.3-.2-.6-.3-.9,0-.1-.1-.2-.1-.4-.1-.3-.2-.6-.3-.9,0-.1-.1-.2-.1-.3-.1-.3-.2-.6-.4-.9,0-.1-.1-.2-.1-.3-.1-.3-.3-.6-.4-.9,0-.1-.1-.1-.1-.2-.1-.3-.3-.6-.4-1q0-.1-.1-.2c-.2-.3-.3-.7-.5-1v-.1c-.5-1-1.1-2-1.6-2.8-2.4-3.7-4.7-6.1-6.1-6.8h0c-.1,0-.1.1-.2.1-1.3.8-3.5,3.2-5.8,6.7-1.5,2.1-3.1,5.3-4.4,8.7h0c-.1.4-.3.8-.4,1.2q0,.1-.1.2c-.1.3-.2.7-.3,1.1,0,.1-.1.2-.1.3-.1.3-.2.6-.3.9,0,.2-.1.3-.1.5-.1.2-.1.5-.2.7s-.1.4-.2.6c-.1.2-.1.4-.1.6-.1.2-.1.5-.2.7,0,.2-.1.3-.1.4-.1.3-.1.5-.2.8,0,.1-.3,2.2-.3,2.2v45.3h26V26s-.9-3.5-1-3.8Zm-22.8,22.6v-5.2h21.1v5.2h-21.1Zm21.1,5.3v5.2h-21.1v-5.2h21.1Zm-21.1,15.6v-5.2h21.1v5.2h-21.1Z"/><path class="cls-1" d="m179.9,23.5c0-.1-.1-.2-.1-.4-.1-.3-.1-.6-.2-.9,0-.1-.1-.3-.1-.4-.1-.3-.1-.6-.2-.9,0-.1-.1-.3-.1-.4-.1-.3-.2-.6-.2-.8,0-.1-.1-.3-.1-.4-.1-.3-.2-.6-.3-.9,0-.1-.1-.3-.1-.4-.1-.3-.2-.6-.3-.9,0-.1-.1-.3-.1-.4-.1-.3-.2-.6-.3-.9,0-.1-.1-.2-.1-.3-.1-.3-.2-.6-.3-.9,0-.1-.1-.2-.1-.3-.1-.3-.3-.6-.4-.9,0-.1-.1-.2-.1-.3-.1-.3-.3-.6-.4-1,0-.1-.1-.1-.1-.2-.1-.3-.3-.7-.5-1,0,0,0-.1-.1-.1-.2-.3-.3-.7-.5-1v-.1c-.5-1-1.1-2-1.6-2.8-2.4-3.7-4.7-6.1-6.1-6.8h0c-.1,0-.2.1-.3.2-1.3.9-3.5,3.2-5.7,6.7-1.5,2.1-3.1,5.3-4.4,8.7h0c-.1.4-.3.8-.4,1.2q0,.1-.1.2c-.1.3-.2.7-.3,1,0,.1-.1.2-.1.3-.1.3-.2.6-.3.9,0,.2-.1.3-.1.5-.1.2-.1.5-.2.7-.1.2-.1.4-.2.6-.1.2-.1.4-.1.6-.1.2-.1.5-.2.7,0,.2-.1.3-.1.4-.1.3-.1.5-.2.8,0,.1-.3,2.2-.3,2.2v45.3h26V26.1s-.5-2.2-.6-2.6Zm-2.1,10.9h-21.1v-5.2h21.1v5.2Zm-21.1,10.4v-5.2h21.1v5.2h-21.1Zm21.1,5.3v5.2h-21.1v-5.2h21.1Zm-21.1,15.6v-5.2h21.1v5.2h-21.1Z"/></svg>