<?xml version="1.0" encoding="UTF-8"?><svg id="Layer_1" xmlns="http://www.w3.org/2000/svg" viewBox="0 0 180.25 89.16"><defs><style>.cls-1{fill:#fff;}</style></defs><polygon class="cls-1" points="0 88.17 12.99 88.17 25.98 88.17 25.98 82.95 0 82.95 0 88.17"/><path class="cls-1" d="m25.98,43.17c-.96-6.55-4.01-14.74-6.94-19.08-2.37-3.74-4.72-6.12-6.05-6.85-1.28.7-3.65,3.18-6.02,6.85C3.91,28.3.69,36.81,0,42.88v34.86h25.98v-34.56Z"/><polygon class="cls-1" points="51.98 89.23 64.97 89.23 77.96 89.23 77.96 84.01 51.98 84.01 51.98 89.23"/><rect class="cls-1" x="51.98" y="73.58" width="25.98" height="5.22"/><path class="cls-1" d="m77.96,44.23c-.96-6.55-4.01-14.74-6.94-19.08-2.37-3.74-4.72-6.12-6.05-6.85-1.28.7-3.65,3.18-6.02,6.85-3.06,4.21-6.28,12.72-6.97,18.78v24.42h25.98v-24.13Z"/><polygon class="cls-1" points="102.67 89.23 115.66 89.23 128.65 89.23 128.65 84.01 102.67 84.01 102.67 89.23"/><rect class="cls-1" x="102.67" y="63.14" width="25.98" height="5.22"/><rect class="cls-1" x="102.67" y="73.58" width="25.98" height="5.22"/><path class="cls-1" d="m128.65,44.23c-.96-6.55-4.01-14.74-6.94-19.08-2.37-3.74-4.72-6.12-6.05-6.85-1.28.7-3.65,3.18-6.02,6.85-3.06,4.21-6.28,12.72-6.97,18.78v13.99h25.98v-13.69Z"/><polygon class="cls-1" points="154.27 89.23 167.26 89.23 180.25 89.23 180.25 84.01 154.27 84.01 154.27 89.23"/><rect class="cls-1" x="154.27" y="63.14" width="25.98" height="5.22"/><rect class="cls-1" x="154.27" y="52.71" width="25.98" height="5.22"/><rect class="cls-1" x="154.27" y="73.58" width="25.98" height="5.22"/><path class="cls-1" d="m180.25,44.23c-.96-6.55-4.01-14.74-6.94-19.08-2.37-3.74-4.72-6.12-6.05-6.85-1.28.7-3.65,3.18-6.02,6.85-3.06,4.21-6.28,12.72-6.97,18.78v3.55h25.98v-3.26Z"/></svg>