<?xml version="1.0" encoding="UTF-8"?><svg id="Layer_1" xmlns="http://www.w3.org/2000/svg" viewBox="0 0 240.38 26.44"><defs><style>.cls-1{fill:#fff;}</style></defs><path class="cls-1" d="m119.36,2.05c.27,0,.55,0,.82,0,16.71.05,33.38,1.45,49.53,4.17,12.93,2.18,25.55,5.2,37.53,8.99,4.75,1.5,9.02,3,12.78,4.43-4.53-.93-9.69-1.93-15.36-2.92-20.18-3.53-51.23-7.74-84.48-7.74s-64.94,4.21-84.98,7.74c-5.58.98-10.65,1.97-15.1,2.9,3.72-1.43,7.95-2.94,12.65-4.44,11.9-3.81,24.45-6.84,37.31-9.02,16.07-2.72,32.65-4.1,49.29-4.1m0-2.05C45.92,0,0,26.44,0,26.44c0,0,54.79-15.42,120.19-15.42s120.19,15.42,120.19,15.42C240.38,26.44,194.1.2,120.19,0c-.28,0-.55,0-.83,0h0Z"/></svg>