<svg width="26" height="26" viewBox="0 0 26 26" fill="none" xmlns="http://www.w3.org/2000/svg">
<g clip-path="url(#clip0_2461_29582)">
<path fill-rule="evenodd" clip-rule="evenodd" d="M25.434 14.04C25.1882 16.9799 23.9088 19.7377 21.8228 21.8239C19.7369 23.9102 16.9794 25.19 14.0395 25.4363V25.48H13.1067C13.0708 25.48 13.0354 25.4826 12.9995 25.4826C12.9637 25.4826 12.9283 25.48 12.8924 25.48H11.9595V25.4363C9.01967 25.19 6.26213 23.9102 4.17622 21.8239C2.0903 19.7377 0.810901 16.9799 0.565031 14.04H0.519531V13V11.96H0.565291C0.811795 9.02067 2.09144 6.26364 4.17724 4.17798C6.26304 2.09232 9.02017 0.812862 11.9595 0.56656V0.52002H14.0395V0.56656C16.9789 0.812862 19.736 2.09232 21.8218 4.17798C23.9076 6.26364 25.1873 9.02067 25.4338 11.96H25.4795V14.04H25.434ZM14.0395 23.348C16.4264 23.1077 18.6568 22.0498 20.353 20.3535C22.0493 18.6572 23.1072 16.4268 23.3475 14.04H20.1979C19.9729 15.5933 19.2516 17.0322 18.1417 18.1419C17.0318 19.2516 15.5928 19.9726 14.0395 20.1973V23.348ZM11.9595 23.348V20.1973C10.4062 19.9726 8.96723 19.2516 7.85734 18.1419C6.74745 17.0322 6.02618 15.5933 5.80117 14.04H2.65153C2.89188 16.4268 3.94977 18.6572 5.64604 20.3535C7.34231 22.0498 9.57271 23.1077 11.9595 23.348ZM11.9595 2.65202C9.57271 2.89237 7.34231 3.95025 5.64604 5.64653C3.94977 7.3428 2.89188 9.5732 2.65153 11.96H5.80117C6.02618 10.4067 6.74745 8.96788 7.85734 7.85818C8.96723 6.74848 10.4062 6.02745 11.9595 5.8027V2.65202ZM11.9595 8.58002V7.11622C10.7525 7.3296 9.64013 7.90864 8.77299 8.77499C7.90585 9.64134 7.32579 10.7532 7.11131 11.96H8.57953V14.04H7.11131C7.32579 15.2469 7.90585 16.3587 8.77299 17.225C9.64013 18.0914 10.7525 18.6704 11.9595 18.8838V17.42H14.0395V18.8838C15.2466 18.6704 16.3589 18.0914 17.2261 17.225C18.0932 16.3587 18.6733 15.2469 18.8878 14.04H17.4195V11.96H18.8878C18.6733 10.7532 18.0932 9.64134 17.2261 8.77499C16.3589 7.90864 15.2466 7.3296 14.0395 7.11622V8.58002H11.9595ZM14.0395 2.65202V5.8027C15.5928 6.02745 17.0318 6.74848 18.1417 7.85818C19.2516 8.96788 19.9729 10.4067 20.1979 11.96H23.3475C23.1072 9.5732 22.0493 7.3428 20.353 5.64653C18.6568 3.95025 16.4264 2.89237 14.0395 2.65202ZM14.5595 13C14.5595 13.3086 14.468 13.6102 14.2966 13.8667C14.1252 14.1232 13.8816 14.3232 13.5965 14.4413C13.3115 14.5593 12.9978 14.5902 12.6952 14.53C12.3926 14.4699 12.1146 14.3213 11.8964 14.1031C11.6783 13.8849 11.5297 13.607 11.4695 13.3044C11.4093 13.0018 11.4402 12.6881 11.5583 12.403C11.6764 12.118 11.8763 11.8743 12.1328 11.7029C12.3894 11.5315 12.691 11.44 12.9995 11.44C13.4133 11.44 13.8101 11.6044 14.1026 11.8969C14.3952 12.1895 14.5595 12.5863 14.5595 13Z" fill="white"/>
</g>
<defs>
<clipPath id="clip0_2461_29582">
<rect width="26" height="26" fill="white"/>
</clipPath>
</defs>
</svg>
