<svg width="26" height="26" viewBox="0 0 26 26" fill="none" xmlns="http://www.w3.org/2000/svg">
<g clip-path="url(#clip0_2461_29584)">
<path d="M12.3001 10.1066L9.5362 10.0881L6.10156 13.5228L6.85922 15.5475L12.3001 10.1066Z" fill="white"/>
<path d="M10.4531 19.1416L12.4781 19.8992L15.9127 16.4646L15.8942 13.7007L10.4531 19.1416Z" fill="white"/>
<path d="M4.1535 19.1207L2.56608 18.9944L1.49053 20.0702L2.48747 20.7866L1.55472 21.7197L1.32783 22.2143L0.8125 22.7297L1.92948 23.8462L2.15272 24.0697L3.2693 25.1865L3.78462 24.6711L4.27944 24.4445L5.22417 23.4997L6.00072 24.5803L7.07647 23.5046L6.93936 21.7845L18.5707 10.1532L15.8458 7.42847L4.1535 19.1207Z" fill="white"/>
<path d="M24.8992 1.26601C24.885 1.22773 24.8627 1.19296 24.8338 1.1641C24.805 1.13523 24.7702 1.11295 24.7319 1.09878C24.2414 0.92612 23.7273 0.830098 23.2075 0.814095C22.8374 0.793543 22.471 0.89663 22.166 1.10713L16.4727 6.80044L19.1975 9.5253L24.8908 3.83199C25.4863 3.07688 25.0078 1.57696 24.8992 1.26601Z" fill="white"/>
</g>
<defs>
<clipPath id="clip0_2461_29584">
<rect width="26" height="26" fill="white"/>
</clipPath>
</defs>
</svg>
