<?xml version="1.0" encoding="UTF-8"?><svg id="svg8" xmlns="http://www.w3.org/2000/svg" viewBox="0 0 595.46 603.7"><defs><style>.cls-1{fill:#232527;}.cls-2{fill:#cf0a2c;}</style></defs><g id="g11533"><path id="path4250" class="cls-1" d="m182.75,505v56.6c0,16.1-8,24.6-22.5,24.6s-22.6-8.8-22.6-25.3v-55.8h-20v56.5c0,27.8,15.4,43.7,42.4,43.7s42.8-16.2,42.8-44.6v-55.8l-20.1.1Zm73.7,0l-43.5,98.8h20.5l8.4-19.1.6-1.4h45.2l8.9,20.6h21l-43.1-98.2-.4-.6-17.6-.1Zm119.2,0l-22.4,68-21.8-67.9h-21.4l34.4,98.8h16.6l22.5-64.9,22.5,64.9h16.7l34.3-98.8h-20.8l-21.9,67.9-22.4-68h-16.3Zm196.2,0v98.7h19.8v-98.7h-19.8Zm-567.4,0v98.8h20v-40.1h45.3v40.1h20.1v-98.8h-20.1v39.9H24.45v-39.9s-20,0-20,0Zm468.8.1v98.7h74.6v-18h-54.8v-24.5h36.5v-18h-36.5v-20.2h53v-18h-72.8Zm-208.3,24.9l14.3,33.1h-.1l1,2.3h-30.3l1-2.3h0l14.1-33.1Z"/><path id="path4252" class="cls-2" d="m254.15,0c-8,.7-29.4,5.6-29.4,5.6h0c-48.4,12.5-59.9,56.5-59.9,56.5-2.4,7.4-3.4,15-3.8,22.1v9.7c.6,15,4,26.2,4,26.2,16.2,71.8,95.7,189.7,112.8,214.4,1.2,1.2,2.2.8,2.2.8,1.8-.5,1.7-2.3,1.7-2.3h0C308.15,69.8,254.15,0,254.15,0h0Zm87,0s-54.2,69.8-27.9,333.2h0c.2,1.7,1.4,2,1.4,2,1.8.7,2.7-1,2.7-1h0c17.5-25.4,96.6-142.6,112.7-214.1,0,0,8.7-34.6.3-58,0,0-12-44.6-60.5-56.4.1,0-13.8-3.6-28.7-5.7h0ZM91.15,79.1s-46.2,43.8-48.4,90.2h0v7c0,.5.1,1.1.1,1.6,2,37.4,30.2,59.6,30.2,59.6,45.3,44.3,155.2,100.1,180.7,112.8.4.1,1.7.6,2.5-.4,0,0,.4-.3.6-.9v-1.2c0-.1-.1-.1-.1-.2h0C186.85,194.9,91.15,79,91.15,79.1h0Zm412.9,0s-95.4,115.5-165.3,268h0s-.8,1.8.5,2.9c0,0,.4.3.9.4h1c.2-.1.4-.1.5-.2h0c26.2-13,135.3-68.5,180.5-112.5,0,0,28.6-23,30.1-59.9,3.4-51.3-48.2-98.8-48.2-98.7h0Zm85.9,151.6s-155.5,83.5-235.9,137.7h0s-1.5,1-.9,2.7c0,0,.8,1.4,1.9,1.4h0c28.8.1,137.8.2,140.5-.3,0,0,14.1-.6,31.5-7.3,0,0,38.8-12.3,58.9-56.3,0,0,9.2-18.4,9.3-44.3v-1.1c-.1-9.9-1.5-21-5.3-32.5h0Zm-584.7.4c-14.2,43.8,4.9,79.1,4.9,79.2,19.9,41.9,57.7,54.7,57.7,54.7,17.5,7.2,35,7.7,35,7.7,2.7.5,108.8.1,137.2-.1,1.2,0,1.9-1.2,1.9-1.2.1-.1.2-.3.2-.4v-1.1c-.2-.7-.9-1.3-.9-1.3h0C160.95,314.4,5.25,231.1,5.25,231.1h0Zm231.6,154.9l-183,6.4c19.8,35.4,53.3,62.9,88.1,54.4,24-6,78.4-44,96.4-56.8l-.1-.1c1.4-1.3.9-2.3.9-2.3-.4-1.5-2.3-1.5-2.3-1.6h0Zm121.2.1h0c0,.1-1.6.3-2.1,1.5,0,0-.4,1.6.7,2.5h0c17.5,12.6,70.6,49.7,96.2,56.9,0,0,3.9,1.3,10.4,1.6h3.9c17.1-.6,47-9.4,74.1-56l-183.2-6.5Z"/></g></svg>