<svg xmlns="http://www.w3.org/2000/svg" width="44" height="75" viewBox="0 0 44 75">
  <defs>
    <style>
      .cls-1 {
        fill: #fff;
        fill-rule: evenodd;
      }
    </style>
  </defs>
  <path class="cls-1" d="M23.786,74.995H43v-4.1H23.787v4.1Zm15.19-52.622-0.806-9.616C37.238,5.644,34.653.776,33.394,0c-1.259.772-4.077,6.056-4.717,12.4l-0.863,9.973h5.579ZM43,39.181l-3.495-6.665V24.033H27.28v8.485L23.786,39.18V66.307H43ZM0,74.995H19.216v-4.1H0v4.1Zm15.19-52.622-0.806-9.616C13.45,5.644,10.865.776,9.606,0c-1.259.772-4.077,6.056-4.717,12.4L4.026,22.375H9.6Zm4.028,16.808-3.495-6.665V24.033H3.492v8.485L0,39.18V66.307H19.217V39.181Z"/>
</svg>
