<?xml version="1.0" encoding="UTF-8"?><svg id="Layer_1" xmlns="http://www.w3.org/2000/svg" viewBox="0 0 90.26 86.98"><defs><style>.cls-1{fill:#fff;}</style></defs><g><path class="cls-1" d="m49.07,22.46c-1.78-3.74-3.53-6.12-4.53-6.85-.96.7-2.73,3.18-4.51,6.85-2.29,4.21-4.7,12.72-5.21,18.78v45.29h19.45v-45.05h0c-.73-6.54-3-14.7-5.19-19.03Zm2.74,37.99h-14.53v-5.22h14.53v5.22Zm0-10.43h-14.53v-5.22h14.53v5.22Z"/><polygon class="cls-1" points="20.46 83.53 32.87 83.53 33 67.88 20.46 76.4 20.46 83.53"/><polygon class="cls-1" points="30.71 37.15 21.03 42.48 21.03 44.34 21.03 44.79 21.63 44.79 27.75 44.79 32.89 44.79 33.26 44.79 33.26 40.92 34.24 35.21 30.95 37.02 30.71 37.15"/><polygon class="cls-1" points="58.3 44.79 65.99 44.79 68.05 44.79 68.05 44.02 68.05 42.48 63 39.7 59.57 37.81 58.29 37.1 54.84 35.21 55.82 40.92 55.82 44.79 58.3 44.79"/><polygon class="cls-1" points="56.08 67.88 56.21 83.53 68.62 83.53 68.62 76.4 56.08 67.88"/></g><g><path class="cls-1" d="m33,14.24L15.74,4.55l6.62,13.92-14.29.13,11.31,11.83s-16.3.7-18.07.9c-1.76.2,12.85,10.3,12.85,10.3L1.33,50.01l15.98,2.58-12.52,11.22,14.35-4.21-4.83,11.85,18.64-11.24.15-14.26h-13.64l.14-4.61,13.37-7.35.53-1.32c1.89-5.38,4.27-11.83,7.59-16.42.66-1.02,1.79-2.39,2.46-3.26L34.21.62l-1.22,13.63Z"/><path class="cls-1" d="m73.36,52.07l15.42.59-12.52-9.3,11.54-6.56-15.26-.98,15.26-10.55-12.85.72,9.21-15.33-19.39,6.86,3.83-12.96-14.09,11.52V.8l-9.22,12.22c.37.52,2.12,2.56,2.47,3.13,3.15,4.68,4.88,10.75,6.91,17l4.36,2.67,10.4,5.49-.03,4.83-13.98.05v13.4l17.18,9.68-4-8.18,17.27,4.71-12.52-13.73Z"/></g></svg>