<svg width="355" height="256" viewBox="0 0 355 256" fill="none" xmlns="http://www.w3.org/2000/svg">
<g opacity="0.3">
<path d="M176.273 0L354.275 126L176.273 255.5L0 126L176.273 0Z" fill="black" fill-opacity="0.2"/>
<path d="M273.275 73L79.2754 73L176.278 4.00002L273.275 73ZM92.2754 69L260.275 69L176.287 9.59204L92.2754 69Z" fill="white" fill-opacity="0.46"/>
<path d="M196.277 18.5L186.527 18.5L176.277 11.501L165.527 18.5L155.777 18.5L176.275 4L196.277 18.5Z" fill="white"/>
<path d="M79.2754 179L273.275 179L176.273 248L79.2754 179ZM260.275 183L92.2754 183L176.263 242.408L260.275 183Z" fill="white" fill-opacity="0.46"/>
<path d="M156.273 233.5L166.024 233.5L176.274 240.499L187.024 233.5L196.773 233.5L176.275 248L156.273 233.5Z" fill="white"/>
<path d="M347.268 126L273.268 178.998V166.888L182.268 166.888L182.268 85.1102L273.268 85.1102V73L347.268 126ZM277.179 89.7866L186.337 89.7866L186.337 162.212L277.179 162.212L277.179 170.538L339.768 126L277.179 81.5673V89.7866Z" fill="white" fill-opacity="0.46"/>
<path d="M347.268 126L326.268 141V135.5L339.768 126L326.268 116.5V111L347.268 126Z" fill="white"/>
<path d="M5.26758 126L79.2676 73.0016L79.2676 85.1118L170.268 85.1119L170.268 166.89L79.2676 166.89L79.2676 179L5.26758 126ZM75.356 162.213L166.198 162.213L166.198 89.7882L75.356 89.7882L75.356 81.4624L12.7676 126L75.356 170.433L75.356 162.213Z" fill="white" fill-opacity="0.46"/>
<path d="M5.26758 126L26.2676 111L26.2676 116.5L12.7676 126L26.2676 135.5L26.2676 141L5.26758 126Z" fill="white"/>
</g>
</svg>
