<?xml version="1.0" encoding="UTF-8"?><svg id="Layer_1" xmlns="http://www.w3.org/2000/svg" viewBox="0 0 88.13 118.06"><defs><style>.cls-1,.cls-2{fill:#fff;}.cls-2{fill-rule:evenodd;}</style></defs><g><g id="Layer_2"><g><path class="cls-1" d="m62.4,5.14c-.3-1.3-.9-2.4-1.9-3.2-.8-1-2-1.7-3.2-1.9-.6-.1-1.1,0-1.7.1-.7.2-1.3.5-1.8,1l-13.8,13.6,7.4,7.5,13.8-13.7c.5-.5.9-1.1,1.1-1.8.1-.5.2-1.1.1-1.6Z"/><path class="cls-1" d="m37.9,16.84l-17.3,17.2c-2.2,2.6-4.1,5.3-5.8,8.2-.3.5-.6,1-1,1.6l-.5-.5c-1.2-1.2-3.2-1.2-4.4,0L0,52.14l9.8,9.9,8.9-8.8c1.2-1.2,1.2-3.2,0-4.4h0l-.6-.6c.5-.3,1.1-.6,1.6-.9,2.9-1.7,5.7-3.6,8.3-5.8l17.3-17.1-7.4-7.6Zm-21.8,35l-6.6,7-2.3-2.4,9.1-9.2-.2,4.6Z"/></g></g><g><path class="cls-1" d="m87.2,63.24l-11.5-12.4c.3-.4.6-1,.5-1.1-.2-.3-.6-.8-.9-.8-.3.1-.6.3-.9.5l-1.3-1.3,4.3-3.9c.8-.7.8-2,0-2.7l-.4-.4.5-.5.2.2,4.7,4.3c.3-.4.3-1-.1-1.4l-4.2-3.4h-.2l.3-.3c.2-.2.2-.5,0-.7s-.6-.2-.8,0l-.3.2v-.2l-3.8-3.8c-.4-.3-1-.3-1.5-.1l4.7,4.3.2.2-.5.5-.5-.5c-.8-.7-2-.7-2.8,0h0l-4.1,3.6-3.7-4c-.1-.2-.1-.5-.1-.7.8-.9,1.5-1.9,2.2-2.9.6-.8.6-2,0-2.8h0l-.1-.1-.1-.1h0c-.9-.6-2.1-.6-3-.1-1.1.6-2.2,1.2-3.2,2-.3,0-.5-.1-.8-.1l-4.3-3.4,4.1-3.7c.8-.7.8-1.8,0-2.6l-.5-.5.5-.5.2.2,4.7,4.3c.3-.4.3-1-.1-1.4l-4.2-3.4h-.2l.3-.3c.2-.2.2-.5,0-.7h0c-.2-.2-.6-.2-.8,0l-.3.3v-.2l-3.7-3.7c-.4-.3-1-.3-1.5-.1l4.7,4.3.2.2-.5.5-.4-.4c-.8-.8-2.1-.8-3,0l-4.4,3.9-1.5-1.2c.2-.2.4-.5.6-.8,0-.2-.5-.7-.8-.8-.2-.1-.8.2-1.3.4h0l-8,8.8,2.1,2.9,5.6,6.6c.3,1.4,0,2.9-.8,4.1,0,0-5.3,5.3-11.3,12.5l-7.6-6.7c-.6-.5-1.3-.9-2.1-1-1.1-.2-2.2.2-2.9.9-.6.5-.9,1.2-1,1.9-.1.8.2,1.6.7,2.2l6.5,7.6,2.4-.6-3.3,3.6.3.4.1.1.4.3,3.9-3-.7,2.1,8.2,6c.7.5,1.5.7,2.4.7.8-.1,1.5-.4,2.1-.9.8-.7,1.2-1.7,1-2.7-.1-.7-.5-1.4-1-2l-7.2-7.1c7.9-5.5,13.7-10.3,13.7-10.3,1.3-.7,2.9-1,4.5-.7l7.1,5.2,19.2,12c2.5,1.2,4.6.4,5.7-1.3,1-1.6-.6-3.5-.6-3.5Z"/><path class="cls-1" d="m34.4,14.34s-2.1-1.5-4-.5-2.7,2.9-1.5,5.2l1.5,2.1,5.8-5.4-1.8-1.4Z"/></g></g><path class="cls-2" d="m47.7,85.54h-5.6l13.4-16.4,15,16.4h-6.5v10.4s1.4,11.1-5.6,16.7c-15.4,12.2-27.4,0-27.4,0,0,0,10.3,1.8,15.2-4.2,2.1-2.6,1.7-11.6,1.7-11.6l-.2-11.3Z"/></svg>