<svg xmlns="http://www.w3.org/2000/svg" width="44" height="75" viewBox="0 0 44 75">
  <defs>
    <style>
      .cls-1 {
        fill: #fff;
        fill-rule: evenodd;
      }
    </style>
  </defs>
  <path class="cls-1" d="M24.511,74.995H43.987v-4.1H24.511v4.1Zm4.082-52.62h5.654l5.658,0-0.323-3.8H28.926Zm10.495-9.618C38.143,5.644,35.524.776,34.248,0c-1.276.772-4.131,6.056-4.781,12.4l-0.035.4h9.66Zm1.358,19.758V24.033H28.052v8.485L24.511,39.18V66.307H43.988l0-27.126ZM0.008,74.995H19.485v-4.1H0.008v4.1ZM4.09,22.375H9.744l5.658,0-0.323-3.8H4.423Zm10.495-9.618C13.64,5.644,11.021.776,9.745,0c-1.276.772-4.131,6.056-4.781,12.4l-0.035.4h9.66Zm1.358,19.758V24.033H3.549v8.485L0.008,39.18V66.307H19.485l0-27.126Z"/>
</svg>
