<svg id="Layer_2" data-name="Layer 2" xmlns="http://www.w3.org/2000/svg" width="128" height="128" viewBox="0 0 128 128">
  <defs>
    <style>
      .cls-1, .cls-2 {
        fill: #fff;
      }

      .cls-1 {
        fill-rule: evenodd;
      }
    </style>
  </defs>
  <path class="cls-1" d="M71.26166,86.01724a2.17945,2.17945,0,0,0-3.94848-.75363s-7.96582,14.40805-12.28341,18.19807c0,0-.79653.72987-1.24507,1.05014a11.20322,11.20322,0,0,1-15.63111-2.60531A11.4331,11.4331,0,0,1,36.3349,92.984c.31518-1.6091,3.06945-11.56933,5.7477-21.13669l20.06079,16.637a1.25085,1.25085,0,0,0,.80615.30474,1.28026,1.28026,0,0,0,1.08434-1.95855L49.30328,63.05556l-.0099.0085a5.8731,5.8731,0,0,0-4.02216-2.55933c1.24026-4.39589,2.102-7.43422,2.102-7.43422a13.18471,13.18471,0,0,0-3.59482-7.665,15.29974,15.29974,0,0,0-11.00923-4.92,13.33627,13.33627,0,0,0-3.9533.59456,14.40967,14.40967,0,0,0-9.5614,17.8325A14.2481,14.2481,0,0,0,22.614,64.70482c3.76231,4.76956,1.7614,10.28224.29718,13.06755-.35875.59283-.73128,1.17615-1.06881,1.77747l-.02858.03982.00824-.00114c-3.48327,6.21264-5.8175,12.77687-6.35384,17.98848-1.49876,14.56625,10.01865,27.68459,25.72464,29.30052a31.1868,31.1868,0,0,0,3.188.16442c14.36456,0,26.56834-10.04047,27.96485-23.61245A63.06559,63.06559,0,0,0,71.26166,86.01724ZM43.46772,63.18806a2.93156,2.93156,0,1,1-1.98451,3.63912A2.92605,2.92605,0,0,1,43.46772,63.18806ZM33.3044,61.82294a7.38033,7.38033,0,1,1,2.08482-.30167A7.37764,7.37764,0,0,1,33.3044,61.82294Z"/>
  <path class="cls-1" d="M110.35405,32.52044c-28.20778,23.758-35.23713,45.34913-35.23713,45.34913-3.71041-26.57341,8.784-47.15809,13.65732-54.01117a25.53628,25.53628,0,0,1,1.95558-2.41818h0l4.27192-4.272L81.91963,4.0861h41.863V45.949Z"/>
  <g>
    <path class="cls-2" d="M69.04362,58.37085a49.82868,49.82868,0,0,1-7.05249-3.33167,74.49614,74.49614,0,0,1-11.94422-8.48724l-1.61242-1.441a16.90464,16.90464,0,0,1,2.74682,7.4867A3.824,3.824,0,0,1,51.0651,54.118c-.00049.00086-.31213,1.09949-.825,2.91181a59.48012,59.48012,0,0,0,8.06616,4.931A46.15137,46.15137,0,0,0,68.46549,65.814C68.53947,63.25635,68.74161,60.77478,69.04362,58.37085Z"/>
    <path class="cls-2" d="M33.14054,24.16486a12.0978,12.0978,0,0,1-.58643-5.53785,5.1544,5.1544,0,0,1,.49048-1.47638C40.872,16.92969,51.11271,21.053,60.23478,28.9104A53.36225,53.36225,0,0,1,72.339,43.5813c.80713-2.50684,1.69433-4.86853,2.62121-7.067A47.72484,47.72484,0,0,0,65.87,25.29968l.0376.03052c.90479.72961,1.38977,1.12109,1.41626,1.14258.02686.02453.48584.446,1.36084,1.24957.93945.82166,2.15771,2.0506,3.69373,3.61884.96887,1.06317,2.08154,2.29718,3.21545,3.7102q.85547-1.92937,1.73144-3.67218c-.8352-.92822-1.62646-1.774-2.34179-2.53973-1.686-1.66681-3.02246-2.95618-3.9397-3.73017-.91479-.8114-1.40295-1.24444-1.40295-1.24444l-.03052-.02655s-.5116-.42792-1.47107-1.23035c-.94043-.82538-2.39917-1.94079-4.27124-3.34265a64.357,64.357,0,0,0-17.30884-9.09021,28.775,28.775,0,0,0-6.52417-1.30188,15.52092,15.52092,0,0,0-7.76929,1.27985l-1.11.64367a5.59661,5.59661,0,0,0-.91126.63782l-.64965.55615-.32642.27967-.26294.27087-.04565.05841-.09034.11725-.1809.23694a11.21271,11.21271,0,0,0-2.1471,4.20245,18.26374,18.26374,0,0,0,.01587,8.70947,38.06068,38.06068,0,0,0,4.53674,10.87287c.55542-.054,1.11353-.091,1.67517-.091A18.72283,18.72283,0,0,1,43.255,39.962c-1.17773-1.29364-2.32153-2.60639-3.3717-3.96436A40.708,40.708,0,0,1,33.14054,24.16486Z"/>
  </g>
  <g>
    <path class="cls-2" d="M69.60477,19.75c1.24756.99768,1.91639,1.53265,1.95179,1.56085.07714.07147.70556.65332,1.86352,1.72583,1.29395,1.14258,2.92578,2.824,4.97669,5.05316.13037.152.26745.31238.40148.46888.7688-1.40882,1.52247-2.699,2.24183-3.86786-2.00367-2.10126-3.67054-3.73658-4.82141-4.72107-1.252-1.12555-1.9198-1.72583-1.9198-1.72583l-.04432-.03894s-.7102-.58612-2.04126-1.68482c-1.30664-1.12927-3.33923-2.64551-5.98754-4.49164A73.71881,73.71881,0,0,0,56.0756,6.26538,57.93393,57.93393,0,0,0,41.475,1.661a33.491,33.491,0,0,0-9.02075-.32025,21.28265,21.28265,0,0,0-9.666,3.28149,13.20281,13.20281,0,0,0-2.16443,1.642l-.8595.80414-.43152.40393c.1333-.14239-.24267.248-.22351.23529l-.0531.06946-.10584.13977-.2124.28027a28.29171,28.29171,0,0,0-1.64026,2.30957q-.633,1.27112-1.27282,2.55744a24.75778,24.75778,0,0,0-1.37769,11.11236A37.80341,37.80341,0,0,0,17.03837,34.9679a46.60831,46.60831,0,0,0,3.30273,6.851,18.03753,18.03753,0,0,1,5.54431-3.73956,42.85305,42.85305,0,0,1-2.783-5.54,31.59009,31.59009,0,0,1-2.541-8.986,18.91222,18.91222,0,0,1,.65869-8.4375l.81665-1.80206c.30249-.57873.725-1.073,1.06543-1.62189l.13354-.2019.06641-.10138.02454-.03729.30273-.30536.82874-.83582a6.72967,6.72967,0,0,1,1.50659-1.20349,16.30612,16.30612,0,0,1,7.12414-2.6308,28.6137,28.6137,0,0,1,7.7229-.0028,47.69011,47.69011,0,0,1,13.43055,3.921,69.38187,69.38187,0,0,1,9.62231,5.27935C66.39518,17.285,68.34843,18.69281,69.60477,19.75Z"/>
    <path class="cls-2" d="M68.49723,71.11462c-.27918-.06866-.55884-.12316-.8374-.19806a52.44593,52.44593,0,0,1-9.28809-3.301c-.84814-.39612-1.6853-.824-2.51587-1.27l6.0249,9.72382a36.83425,36.83425,0,0,0,4.27613,1.2044q1.4447.32721,2.91186.56025Q68.62986,74.40887,68.49723,71.11462Z"/>
    <path class="cls-2" d="M96.87,54.30646c-1.90918,2.25287-3.61572,4.41833-5.12976,6.468a14.96232,14.96232,0,0,1-1.27868,3.91883,7.305,7.305,0,0,1-.97144,1.64728l-.57617.7677-.261.35815-.05566.05225-.21668.20257c-.56823.5033-1.18347,1.17017-1.72229,1.54755-.33056.1864-.64184.3941-.95727.59643a74.11,74.11,0,0,0-4.02295,7.74646,22.25365,22.25365,0,0,0,6.32055-2.38446c.85767-.57281,1.70057-1.17614,2.51392-1.78485.72656-.59686,1.17029-1.14282,1.764-1.71118l.209-.211.10425-.10528.05225-.05231c-.01929.0246.355-.38556.22058-.24658l.40527-.5719.79541-1.14484a11.9863,11.9863,0,0,0,1.29883-2.40485,21.44765,21.44765,0,0,0,1.76587-9.95031C97.08292,56.11115,96.98856,55.20215,96.87,54.30646Z"/>
  </g>
</svg>
