<?xml version="1.0" encoding="UTF-8"?><svg id="Layer_1" xmlns="http://www.w3.org/2000/svg" viewBox="0 0 90.26 86.98"><defs><style>.cls-1{fill:#fff;}</style></defs><path class="cls-1" d="m55.32,21.37l18.33-6.34-17.87-1.36,7.69-12.22-14.71,7.24V1.46l-6.11,5.66-7.01-4.53,2.94,6.56-11.54-3.62,3.85,8.6H13.46l16.52,7.47-12.67,9.05,17.09-3.01c2.65-9.26,9.21-14.89,9.21-14.89,0,0,5.98,5.56,8.66,14.56l21.38,3.33-18.33-9.28Z"/><g><polygon class="cls-1" points="60.86 76.06 52.95 76.06 54.95 86.98 62.78 86.98 60.86 76.06"/><polygon class="cls-1" points="26.2 76.06 24.2 86.98 32.03 86.98 34.11 76.06 26.2 76.06"/></g><g><polygon class="cls-1" points="50.82 48.53 49.78 48.53 45.21 64.66 41.77 64.66 37.23 48.53 36.28 48.53 36.28 48.5 33.83 48.5 33.83 50.46 33.83 51.52 33.83 64.14 35.83 76.06 33.83 86.98 43.55 86.98 53.27 86.98 51.27 76.06 53.27 64.46 53.27 51.52 53.27 50.46 53.27 48.5 50.82 48.5 50.82 48.53"/><path class="cls-1" d="m53.27,44.86v-2.88c-.72-6.55-3-14.74-5.19-19.08-1.78-3.74-3.53-6.12-4.53-6.85-.96.7-2.73,3.18-4.51,6.85-2.29,4.21-4.7,12.71-5.21,18.78v3.17h19.45Z"/></g></svg>