<?xml version="1.0" encoding="UTF-8"?><svg id="Layer_1" xmlns="http://www.w3.org/2000/svg" viewBox="0 0 270.24 291.15"><defs><style>.cls-1{fill:#fff;}</style></defs><g id="Layer_2"><g><polygon class="cls-1" points="125.66 39.36 92.74 35.35 92.74 116.39 101.5 125.15 125.66 56.89 125.66 39.36"/><rect class="cls-1" x="107.48" y="164.21" width="55.28" height="51.11"/><path class="cls-1" d="m137,272.51c14.37-12.57,23.39-30.16,25.24-49.16h-54.22c1.84,19,10.87,36.58,25.24,49.16,1.09.9,2.66.9,3.75,0h0Z"/><polygon class="cls-1" points="146.05 83.22 146.05 61.04 168.74 125.15 177.5 116.39 177.5 35.35 146.05 39.18 146.05 27.32 136.19 38.27 136.19 131.36 117.04 103.58 107.48 130.75 107.48 156.18 162.76 156.18 162.76 130.75 146.05 83.22"/></g></g><g id="Layer_2-2"><g><polygon class="cls-1" points="38.08 81.99 17.16 79.44 17.16 130.94 22.73 136.51 38.08 93.13 38.08 81.99"/><rect class="cls-1" x="26.53" y="161.33" width="35.12" height="32.48"/><path class="cls-1" d="m45.28,230.14c9.13-7.99,14.86-19.16,16.04-31.24H26.86c1.17,12.07,6.91,23.25,16.04,31.24.69.57,1.69.57,2.38,0h0Z"/><polygon class="cls-1" points="51.03 109.86 51.03 95.77 65.45 136.51 71.02 130.94 71.02 79.44 51.03 81.88 51.03 74.34 44.77 81.3 44.77 140.45 32.6 122.8 26.53 140.06 26.53 156.22 61.65 156.22 61.65 140.06 51.03 109.86"/></g></g><g id="Layer_2-3"><g><polygon class="cls-1" points="220.14 81.99 199.22 79.44 199.22 130.94 204.79 136.51 220.14 93.13 220.14 81.99"/><rect class="cls-1" x="208.59" y="161.33" width="35.12" height="32.48"/><path class="cls-1" d="m227.34,230.14c9.13-7.99,14.86-19.16,16.04-31.24h-34.46c1.17,12.07,6.91,23.25,16.04,31.24.69.57,1.69.57,2.38,0h0Z"/><polygon class="cls-1" points="233.09 109.86 233.09 95.77 247.51 136.51 253.08 130.94 253.08 79.44 233.09 81.88 233.09 74.34 226.83 81.3 226.83 140.45 214.66 122.8 208.59 140.06 208.59 156.22 243.71 156.22 243.71 140.06 233.09 109.86"/></g></g></svg>