<svg xmlns="http://www.w3.org/2000/svg" width="34" height="34"><path d="M5.995 15.2C6.856 9.901 11.459 5.85 17 5.85c3.956 0 7.433 2.065 9.413 5.174l-3.503 2.355 9.126 2.721L33.96 5.95l-3.314 2.228C27.749 3.709 22.717.75 17 .75 8.64.75 1.746 7.077.849 15.2h5.146Z" fill="#FFF"/><path d="M27.965 18.8c-.861 5.299-5.464 9.35-11.005 9.35a11.148 11.148 0 0 1-9.413-5.174l3.503-2.355L1.924 17.9 0 28.05l3.314-2.228c2.897 4.469 7.929 7.428 13.646 7.428 8.36 0 15.254-6.327 16.151-14.45h-5.146Z" fill="#FFF"/></svg>