<svg id="Layer_1" data-name="Layer 1" xmlns="http://www.w3.org/2000/svg" width="128" height="128" viewBox="0 0 128 128">
  <defs>
    <style>
      .cls-1 {
        fill: #fff;
        fill-rule: evenodd;
      }
    </style>
  </defs>
  <path class="cls-1" d="M122.33992,98.30617,83.95156,57.43484l7.13766-9.643c1.10847-1.94929-.26716-4.2303-2.12682-6.55363l.73576-.75906L102.638,52.9359c1.32968-.5929,2.25717-2.17379.36787-4.01941-3.02015-2.86637-4.91274-4.11987-11.68324-9.06392l.29819-.29609a.67207.67207,0,0,0,.00559-.95042l-.00507-.00508-.77766-.80968.31465-.31a.36642.36642,0,0,0,.00951-.5181l-.00934-.00935-.05685-.05547-.05549-.05686a.36657.36657,0,0,0-.51833-.00911l-.00927.00928-.31.31465-.8096-.77766a.6724.6724,0,0,0-.95091-.00433l-.00468.00469-.2961.29835c-4.944-6.77041-6.19736-8.6631-9.06374-11.68314-1.84562-1.88938-3.42669-.96181-4.01959.36771L87.52078,38.30176l-.759.73584c-2.3234-1.85967-4.60439-3.23538-6.55377-2.12673l-9.64277,7.13751L29.69393,5.66025c-3.47627-3.499-13.31893,10.039-13.19948,13.04992a2.89288,2.89288,0,0,0,.28917.50978l2.40869,3.341L49.89357,64.497l-.01456.01491A265.78724,265.78724,0,0,0,30.65054,91.90727L12.4707,82.56667l-.96217-.51058a7.164,7.164,0,0,0-1.0277.47025,8.76552,8.76552,0,0,0-2.85632,2.79018,30.87628,30.87628,0,0,0-2.53767,4.11133l10.9,14.56384,6.65781-.779-3.70354,4.2883.80545.75238.75238.80545,4.28831-3.70355-.779,6.65772,14.56388,10.90011a30.8476,30.8476,0,0,0,4.1113-2.53768,8.76571,8.76571,0,0,0,2.79031-2.85638,7.17012,7.17012,0,0,0,.47016-1.02752l-.51058-.96234L36.09273,97.34939A265.79593,265.79593,0,0,0,63.48818,78.121l.01491-.01456,41.936,30.7013,3.341,2.40862a2.87647,2.87647,0,0,0,.50969.28908C112.30084,111.62492,125.83872,101.78236,122.33992,98.30617Z"/>
</svg>
