<?xml version="1.0" encoding="UTF-8"?><svg id="Layer_1" xmlns="http://www.w3.org/2000/svg" viewBox="0 0 90.26 86.98"><defs><style>.cls-1{fill:#fff;}</style></defs><path class="cls-1" d="m61.76,57.88l19.68-14.48-20.59,2.94,4.33-3.83-7.07-.78,2.47-6.91-8.43,3.31-7.02-6.51-6.89,7.07-8.08-3.87.15,12.42-17.87-7.92,12.22,19.01h-15.84l14.03,6.79-11.77,11.31,19.06-7.33v-5.5c.72-6.28,4-15.1,7.32-19.69,2.36-3.64,4.93-6.5,6.71-7.47l.96-.52.96.52c1.89,1.03,4.48,3.91,6.77,7.51,3.15,4.68,6.27,13.22,7.25,19.88l.02.14v4.03l18.83,2.77-17.2-12.9Z"/><path class="cls-1" d="m58.12,86.98v-24.09h-.19c-1.13-6.33-3.99-13.83-6.75-17.91-2.37-3.74-4.72-6.12-6.05-6.85-1.28.7-3.65,3.18-6.02,6.85-2.92,4.01-5.97,11.92-6.85,17.91h-.12v24.09h25.98Z"/><path class="cls-1" d="m45.42,31.26c-8.29,0-15.03-6.74-15.03-15.03S37.13,1.19,45.42,1.19s15.03,6.74,15.03,15.03-6.74,15.03-15.03,15.03Zm0-26.07c-6.08,0-11.03,4.95-11.03,11.03s4.95,11.03,11.03,11.03,11.03-4.95,11.03-11.03-4.95-11.03-11.03-11.03Z"/><polygon class="cls-1" points="46.96 15.06 46.96 7.13 43.89 7.13 43.89 15.06 43.89 18.13 46.96 18.13 51.59 18.13 51.59 15.06 46.96 15.06"/></svg>