<svg id="Layer_1" data-name="Layer 1" xmlns="http://www.w3.org/2000/svg" viewBox="0 0 90.26 86.98"><defs><style>.cls-1{fill:#fff;}</style></defs><polygon class="cls-1" points="32.06 86.98 45.06 86.98 58.05 86.98 58.05 68.78 32.06 68.78 32.06 86.98"/><path class="cls-1" d="M58.05,42c-1-6.55-4-14.74-6.94-19.08-2.38-3.74-4.73-6.12-6-6.84-1.29.7-3.65,3.17-6,6.84-3.06,4.21-6.28,12.72-7,18.79V54.5h26Z"/><path class="cls-1" d="M60.1,42l0,.14v30h0L76.94,83.88,64.65,63s11.67,1.9,13.4,2.3c-2-1.2-16.46-17.91-16.46-17.91L67.36,42,85.69,24.32,67,30.94l3.39-11.37L59.22,25.68V10.41L51.77,20.53c.36.52.73,1.06,1.09,1.62C56,26.83,59.12,35.37,60.1,42Z"/><path class="cls-1" d="M30.14,42V41.8c.71-6.28,4-15.1,7.31-19.69.66-1,1.33-2,2-2.84L30.71,7l2.37,19L22.9,21.27l2.38,8.82L4.57,25,23.24,39.25,4.57,41,23.24,54.87l-18.67,19,20.37-9.16L20.19,81l10-9.7V42Z"/></svg>