<svg id="Layer_2" data-name="Layer 2" xmlns="http://www.w3.org/2000/svg" width="128" height="128" viewBox="0 0 128 128">
  <defs>
    <style>
      .cls-1, .cls-2 {
        fill: #fff;
      }

      .cls-2 {
        fill-rule: evenodd;
      }
    </style>
  </defs>
  <g>
    <path class="cls-1" d="M39.79747,95.8875c0,5.77783,12.62585,10.46173,28.20044,10.46173,15.57471,0,28.20068-4.6839,28.20068-10.46173,0-5.074-9.73852-9.30322-22.65906-10.25848a8.85473,8.85473,0,0,1-2.23864,2.195,9.123,9.123,0,0,1-5.15918,1.52863c-1.92969,0-4.71961-.45337-9.15784-3.09839C46.88243,87.84569,39.79747,91.5595,39.79747,95.8875ZM69.05015,91.795c5.5282,0,10.00977,1.764,10.00977,3.94s-4.48157,3.93988-10.00977,3.93988c-5.52807,0-10.00952-1.76391-10.00952-3.93988S63.52208,91.795,69.05015,91.795Z"/>
    <path class="cls-1" d="M126.65221,88.44164l-1.95276-3.21344-10.7793,1.60772c-7.657-6.17523-21.85315-10.6383-38.64587-11.71044a21.1348,21.1348,0,0,1-.01563,6.17218c18.41272,1.2406,32.42359,7.50579,32.42359,15.05346,0,8.43933-17.512,15.28076-39.114,15.28076-21.60181,0-39.11377-6.84143-39.11377-15.28076,0-6.0719,9.06543-11.31628,22.19678-13.781-1.94556-1.50428-4.11682-3.33765-6.54395-5.56641-17.85742,3.58911-30.226,11.34125-30.226,20.33258a10.297,10.297,0,0,0,.90442,4.136L1.22215,103.6444l3.4961,2.49115,12.7406-1.84876c6.85107,9.0033,26.63647,15.51312,49.99011,15.51312,3.10571,0,6.14319-.1217,9.10107-.3424l3.04749,5.96081,5.81775-.01416L82.1046,118.9085c21.8977-2.71222,37.91211-11.34034,37.91211-21.57221a11.734,11.734,0,0,0-3.00879-7.49512Z"/>
  </g>
  <g>
    <polygon class="cls-2" points="31.212 9.127 28.147 7.381 12.195 18.222 12.77 21.66 31.212 9.127"/>
    <path class="cls-2" d="M53.44854,37.76647l.0105-.00708-.57373-.84406c-.02112-.03131-.04334-.06652-.06446-.09765-.02111-.03107-.04309-.06085-.06421-.09186l-5.52856-8.13507-22.134,15.04242,5.26318,7.7445c.10767.16236.212.32538.32214.48743.11023.16211.23352.334.349.50018l.29663.43641.00538-.00367C39.94,64.9442,61.96954,86.91124,67.92852,82.8615,73.8875,78.8117,61.57256,50.24267,53.44854,37.76647Z"/>
    <polygon class="cls-2" points="21.466 38.295 43.6 23.252 35.763 11.721 35.763 11.721 35.764 11.72 34.335 10.906 13.355 25.164 13.623 26.767 13.629 26.763 13.629 26.763 21.466 38.295"/>
  </g>
</svg>
