<?xml version="1.0" encoding="UTF-8"?><svg id="Layer_1" xmlns="http://www.w3.org/2000/svg" viewBox="0 0 81.11 80.05"><defs><style>.cls-1{fill:#fff;}</style></defs><g><polygon class="cls-1" points="27.57 80.05 40.56 80.05 53.55 80.05 53.55 74.84 27.57 74.84 27.57 80.05"/><rect class="cls-1" x="27.57" y="53.97" width="25.98" height="5.22"/><rect class="cls-1" x="27.57" y="43.53" width="25.98" height="5.22"/><rect class="cls-1" x="27.57" y="64.4" width="25.98" height="5.22"/><path class="cls-1" d="m53.55,35.05c-.96-6.55-4.01-14.74-6.94-19.08-2.37-3.74-4.72-6.12-6.05-6.85-1.28.7-3.65,3.18-6.02,6.85-3.06,4.21-6.28,12.72-6.97,18.78v3.55h25.98v-3.26Z"/></g><g><path class="cls-1" d="m55.53,35.02l.02.14v30l15.99,11.85-11.46-21.01s11.67,1.9,13.4,2.3c-1.96-1.21-16.46-17.91-16.46-17.91l5.77-5.43,18.33-17.65-18.67,6.62,3.39-11.37-11.2,6.11V3.39l-7.45,10.12c.37.52.73,1.06,1.09,1.62,3.15,4.68,6.27,13.22,7.25,19.88Z"/><path class="cls-1" d="m25.57,35.01v-.23c.72-6.28,4-15.1,7.32-19.69.66-1.02,1.34-1.96,2.01-2.84L26.13,0l2.38,19.01-10.18-4.75,2.38,8.82L0,17.99l18.67,14.25-18.67,1.7,18.67,13.92L0,66.86l20.36-9.16-4.75,16.29,9.95-9.7v-29.27Z"/></g></svg>