<?xml version="1.0" encoding="UTF-8"?><svg id="Layer_1" xmlns="http://www.w3.org/2000/svg" viewBox="0 0 90.26 86.98"><defs><style>.cls-1{fill:#fff;}</style></defs><path class="cls-1" d="m73.54,8.48l-17.65,5.66,8.82-11.77-13,6.64v16.9s1.23,1.63,2.79,6.59c1.57,4.96,2.03,10.37,2.03,10.37l7.07,1.45,16.27,2.39-17.2-12.9,19.68-14.48-20.59,2.94,11.77-13.8Z"/><path class="cls-1" d="m23.44,41.06l-11.77,11.31,19.06-7.33,4.93-1.78s.29-5.12,1.86-10.08c1.57-4.96,2.84-7.53,2.84-7.53l-.03-19.01-4.9-4.28v10.63l-7.92-8.37,3.39,18.55-17.87-7.92,12.22,19.01h-15.84l14.03,6.79Z"/><polygon class="cls-1" points="24.11 83.05 34.9 83.05 35.01 72.89 24.11 76.74 24.11 83.05"/><polygon class="cls-1" points="68 76.74 57.09 72.89 57.21 83.05 68 83.05 68 76.74"/><polygon class="cls-1" points="54.51 79.49 37.59 79.49 37.59 84.71 44.95 84.71 46.05 84.71 54.51 84.71 54.51 79.49"/><rect class="cls-1" x="37.59" y="69.05" width="16.92" height="5.22"/><path class="cls-1" d="m54.51,47.78v-2.88c-.63-5.8-2.61-13.04-4.52-16.88-.08-.17-.16-.44-.24-.61V4.16h-7.26v23.25c-.12.24-.24.36-.36.61-1.99,3.72-4.09,11.25-4.54,16.62v19.2h16.92v-16.06Z"/></svg>