<?xml version="1.0" encoding="UTF-8"?><svg id="Layer_1" xmlns="http://www.w3.org/2000/svg" viewBox="0 0 90.26 86.98"><defs><style>.cls-1{fill:#fff;}</style></defs><path class="cls-1" d="m55.21,44.46v18.06l5.45,3.96,14.01,10.38-11.46-21.01s11.67,1.9,13.4,2.3c-1.96-1.21-16.46-17.91-16.46-17.91l5.77-5.43,18.33-17.65-18.67,6.62,3.39-11.37-11.2,6.11V3.25l-7.45,10.12v12.8s-.07.02,2.73,7.16c2.64,6.73,2.16,11.13,2.16,11.13Z"/><path class="cls-1" d="m23.5,59.58l-4.75,16.29,8.53-8.31,5.85-4.98v-19.17s.54-4.89,1.72-9.19c1.17-4.3,3.23-7.97,3.23-7.97l.1-12-.86-1.1-2.27-3.18L29.27,1.88l2.38,19.01-10.18-4.75,2.38,8.82L3.14,19.87l18.67,14.25-18.67,1.7,18.67,13.92L3.14,68.74l20.36-9.16Z"/><polygon class="cls-1" points="33.33 73.28 22.43 77.13 22.43 83.44 33.22 83.44 33.33 73.28"/><polygon class="cls-1" points="66.32 77.13 55.42 73.28 55.53 83.44 66.32 83.44 66.32 77.13"/><polygon class="cls-1" points="52.83 79.88 35.92 79.88 35.92 85.1 43.27 85.1 44.38 85.1 52.83 85.1 52.83 79.88"/><path class="cls-1" d="m35.92,47.2v27.47h16.92v-29.37c-.63-5.8-2.61-13.04-4.52-16.88-.08-.17-.16-.44-.24-.61V4.55h-7.26v23.25c-.12.24-.24.36-.36.61-1.99,3.72-4.09,11.25-4.54,16.62v2.17Z"/></svg>