<svg xmlns="http://www.w3.org/2000/svg" width="378" height="270" style="isolation:isolate" fill="none">
  <g opacity="0.8">
    <path fill="black" fill-opacity="0.2" d="M188.488 0 378 134.177 189.512 270 0 135.823z"/>
    <path fill="#fff" fill-opacity="0.46" d="m6.996 135.788 74-53.03v12.117h91v81.828h-91v12.117zm70.089 36.236h90.842v-72.47H77.085v-8.33l-62.589 44.564 62.589 44.46zM92.536 197h194l-97.002 69zm181 4h-168l83.988 59.408zM371.004 134.212l-74 53.03v-12.117h-91V93.297h91V81.18zm-70.089-36.236h-90.842v72.47h90.842v8.33l62.589-44.564-62.589-44.46zM285.464 73h-194l97.002-69zm-181-4h168L188.476 9.592z"/>
    <path fill="#fff" d="m6.996 135.788 21-15.009v5.503l-13.5 9.506 13.5 9.506v5.503zM169.535 251.5h9.75l10.25 6.999 10.75-6.999h9.749L189.536 266zM371.004 134.212l-21 15.009v-5.503l13.5-9.506-13.5-9.506v-5.503zM208.465 18.5h-9.75l-10.25-6.999-10.75 6.999h-9.749L188.464 4z"/>
  </g>
</svg>