<?xml version="1.0" encoding="UTF-8"?><svg id="Layer_1" xmlns="http://www.w3.org/2000/svg" viewBox="0 0 90.26 86.98"><defs><style>.cls-1{fill:#fff;}</style></defs><g><path class="cls-1" d="m61.3,45.83l-5.87.03v13.4l17.18,9.68-12.66-15.87s11.67,1.9,13.4,2.3c-1.1-.68-12.06-9.55-12.06-9.55Z"/><g><path class="cls-1" d="m59.05,35.49l3.62-3.46,18.33-17.65-18.67,6.62,3.39-11.37-11.2,6.11V.48l-9.22,12.22c.37.52,2.12,2.56,2.47,3.13,3.15,4.68,4.88,10.75,6.91,17l4.36,2.67Z"/><path class="cls-1" d="m32.96,33.67l.53-1.32c1.89-5.38,4.27-11.83,7.59-16.42.66-1.02,1.79-2.39,2.46-3.26L34.21.29l2.38,19.01-10.18-4.75,2.38,8.82-20.7-5.09,19.41,18.19,5.48-2.8Z"/><polygon class="cls-1" points="29.23 45.62 8.08 59.88 24.19 56.82 17.83 66.01 32.95 59.88 33.09 45.62 29.23 45.62"/></g></g><g><path class="cls-1" d="m49.07,21.92c-1.78-3.74-3.53-6.12-4.53-6.85-.96.7-2.73,3.18-4.51,6.85-2.29,4.21-4.7,12.72-5.21,18.78v45.29h19.45v-45.05h0c-.73-6.54-3-14.7-5.19-19.03Zm2.74,48.42h-14.53v-5.22h14.53v5.22Zm0-10.44h-14.53v-5.22h14.53v5.22Zm0-10.43h-14.53v-5.22h14.53v5.22Z"/><polygon class="cls-1" points="20.46 83 32.87 83 33 67.35 20.46 75.86 20.46 83"/><polygon class="cls-1" points="30.71 36.62 21.03 41.95 21.03 43.81 21.03 44.26 21.63 44.26 27.75 44.26 32.89 44.26 33.26 44.26 33.26 40.39 34.24 34.67 30.95 36.48 30.71 36.62"/><polygon class="cls-1" points="58.3 44.26 65.99 44.26 68.05 44.26 68.05 43.49 68.05 41.95 63 39.17 59.57 37.28 58.29 36.57 54.84 34.67 55.82 40.39 55.82 44.26 58.3 44.26"/><polygon class="cls-1" points="56.08 67.35 56.21 83 68.62 83 68.62 75.86 56.08 67.35"/></g></svg>