<?xml version="1.0" encoding="UTF-8"?><svg id="Layer_1" xmlns="http://www.w3.org/2000/svg" viewBox="0 0 327.92 327.92"><defs><style>.cls-1{fill:#fff;}</style></defs><path class="cls-1" d="m163.96,21.94c-78.43,0-142.02,63.58-142.02,142.02s63.58,142.02,142.02,142.02,142.02-63.58,142.02-142.02S242.4,21.94,163.96,21.94Zm109.45,142.02c0,25.08-8.49,48.21-22.73,66.69l-63.74-63.74-68.21-68.21-21.45-21.45c18.48-14.24,41.61-22.73,66.69-22.73,60.35,0,109.45,49.09,109.45,109.45h0Zm-218.9,0c0-23.09,7.2-44.53,19.45-62.21l72.16,72.16,5.88,5.88,2.09,2.09,6.72,6.72,6.83,6.83,6.72,6.72,6.82,6.82,44.99,44.99c-17.68,12.26-39.12,19.45-62.21,19.45-60.35,0-109.45-49.09-109.45-109.45h0Z"/><polygon class="cls-1" points="156.1 195.41 149.3 188.61 146.21 188.61 146.22 195.39 156.1 195.41"/><polygon class="cls-1" points="146.23 208.97 169.66 208.97 162.84 202.14 146.22 202.14 146.23 208.97"/><polygon class="cls-1" points="187.1 148.59 214.19 121.54 214.17 92.29 200.26 71.71 193.53 71.64 186.75 78.43 187.26 99.29 173.72 112.83 159.17 112.79 145.66 99.28 146.15 78.41 139.35 71.61 132.56 71.67 120.76 89.21 187.03 155.49 187.1 148.59"/><polygon class="cls-1" points="146.23 222.48 183.2 222.5 176.37 215.67 146.24 215.63 146.23 222.48"/><polygon class="cls-1" points="186.84 229.23 146.24 229.22 146.21 242.75 159.77 256.31 159.78 256.31 173.32 256.28 186.85 242.75 186.84 229.23"/></svg>