<svg width="356" height="250" viewBox="0 0 356 250" fill="none" xmlns="http://www.w3.org/2000/svg">
<g opacity="0.3">
<path d="M178 0L356 125L178 250L0 125L178 0Z" fill="black" fill-opacity="0.2"/>
<path d="M348 125L274 178V165.89L183 165.89L183 84.1104L274 84.1104V72L348 125ZM277.912 88.7869L187.069 88.7869L187.069 161.213L277.912 161.213L277.912 169.539L340.5 125L277.912 80.5674V88.7869Z" fill="white" fill-opacity="0.46"/>
<path d="M348 125L327 140.043V134.605L340.5 125L327 115.418V109.961L348 125Z" fill="white"/>
<path d="M8 125L82 178L82 165.89L173 165.89L173 84.1104L82 84.1104L82 72L8 125ZM78.0885 88.7869L168.931 88.7869L168.931 161.213L78.0885 161.213L78.0885 169.539L15.5 125L78.0885 80.5674L78.0885 88.7869Z" fill="white" fill-opacity="0.46"/>
<path d="M8 125L29 140.043V134.605L15.5 125L29 115.418V109.961L8 125Z" fill="white"/>
<path d="M82 178L274 178L177.997 245.992L82 178ZM261.134 181.942L94.866 181.942L177.988 240.482L261.134 181.942Z" fill="white" fill-opacity="0.46"/>
<path d="M158.216 231.994L167.631 231.994L178 239.001L188.371 231.994L197.781 231.994L178 246L158.216 231.994Z" fill="white"/>
<path d="M274 72L82 72L178.003 4.00783L274 72ZM94.866 68.0584L261.134 68.0584L178.012 9.51817L94.866 68.0584Z" fill="white" fill-opacity="0.46"/>
<path d="M197.784 18.0062L188.37 18.0062L178 10.9992L167.629 18.0062L158.219 18.0062L178 4L197.784 18.0062Z" fill="white"/>
</g>
</svg>
