<svg width="82" height="80" viewBox="0 0 82 80" fill="none" xmlns="http://www.w3.org/2000/svg">
<path d="M64.2704 20.9337C64.0008 19.632 63.3078 18.4563 62.2996 17.59C61.4333 16.5819 60.2577 15.8889 58.9561 15.6193C58.3836 15.5497 57.803 15.5892 57.2452 15.7359C56.5326 15.9224 55.8831 16.2967 55.3643 16.8197L41.1797 31.0043L48.8854 38.71L63.07 24.5254C63.593 24.0067 63.9673 23.3571 64.1538 22.6445C64.3004 22.0867 64.34 21.5062 64.2704 20.9337Z" fill="white"/>
<path d="M38.9544 33.2344L21.1526 51.0361C18.9365 53.7187 16.9308 56.5684 15.1533 59.5597C14.832 60.0951 14.5059 60.6382 14.1794 61.1816L13.673 60.6751C13.0705 60.0726 12.2533 59.7341 11.4012 59.7341C10.5491 59.7341 9.73191 60.0726 9.12939 60.6751L0 69.8045L10.1997 80.0041L19.329 70.8748C19.6274 70.5765 19.864 70.2223 20.0255 69.8325C20.187 69.4427 20.2701 69.0249 20.2701 68.603C20.2701 68.181 20.187 67.7633 20.0255 67.3735C19.864 66.9836 19.6274 66.6295 19.329 66.3311L18.713 65.715C19.2564 65.3886 19.7995 65.0624 20.3348 64.7411C23.3261 62.9637 26.1758 60.958 28.8583 58.7419L46.6601 40.9402L38.9544 33.2344ZM16.6195 69.4938L9.82322 76.8082L7.4409 74.2949L16.7658 64.7514L16.6195 69.4938Z" fill="white"/>
<path d="M48.7917 42.9609V59.0645L40.2031 51.8179L48.7917 42.9609Z" fill="white"/>
<path d="M36.4473 31.6888L20.3437 31.6888L27.5903 40.2773L36.4473 31.6888Z" fill="white"/>
<path d="M58.8387 35.3409C58.8387 35.3409 58.8066 35.3432 58.7905 35.3444L59.0449 38.8242C59.0449 38.8242 59.077 38.8219 59.0931 38.8207C66.9521 38.2461 72.8571 31.4096 72.2825 23.5505L68.808 23.8046C69.2413 29.731 64.7704 34.9072 58.844 35.3405L58.8387 35.3409Z" fill="white"/>
<path d="M79.795 23.0003L76.3205 23.2544C77.0534 33.3516 69.4419 42.1697 59.3397 42.9084L59.5938 46.3828C71.6285 45.5029 80.6696 35.0355 79.7896 23.0007L79.795 23.0003Z" fill="white"/>
<path d="M55.5519 11.0419C55.5519 11.0419 55.5841 11.0396 55.6001 11.0384L55.3457 7.55859C55.3457 7.55859 55.3136 7.56094 55.2975 7.56212C47.4385 8.13673 41.5336 14.9733 42.1082 22.8323L45.5826 22.5782C45.1493 16.6519 49.6202 11.4756 55.5466 11.0423L55.5519 11.0419Z" fill="white"/>
<path d="M34.5937 23.3825L38.0681 23.1284C37.3353 13.0312 44.9468 4.21307 55.049 3.47446L54.7949 0C42.7601 0.879919 33.7191 11.3473 34.599 23.3821L34.5937 23.3825Z" fill="white"/>
</svg>
