<svg width="123" height="130" viewBox="0 0 123 130" fill="none" xmlns="http://www.w3.org/2000/svg">
<path d="M61.1982 71.3937C61.5746 69.8856 63.135 68.997 64.624 69.4425C66.1027 69.8852 66.9188 71.4671 66.4229 72.9288L47.1729 129.667C47.1433 129.754 47.0688 129.817 46.9785 129.833C46.7996 129.864 46.6476 129.702 46.6914 129.526L61.1982 71.3937ZM67.1865 48.2404C71.8916 48.2404 75.706 52.0549 75.7061 56.7599C75.7061 61.465 71.8916 65.2794 67.1865 65.2794C65.968 65.2794 64.81 65.0216 63.7617 64.5607L4.0166 124.307L0 120.291L59.6191 60.671C59.0124 59.4995 58.667 58.1703 58.667 56.7599C58.667 52.0549 62.4816 48.2405 67.1865 48.2404ZM71.0967 69.8761C72.5809 69.4489 74.1119 70.3524 74.4561 71.8585L84.4805 115.76C84.5563 116.093 84.288 116.407 83.9482 116.383C83.7451 116.369 83.5714 116.233 83.5068 116.039L69.2676 73.3497C68.7797 71.8859 69.6134 70.3032 71.0967 69.8761ZM77.1992 66.7325C78.273 65.6265 80.0512 65.6336 81.1162 66.7482L121.348 108.853C121.465 108.976 121.368 109.179 121.198 109.165C121.159 109.162 121.122 109.145 121.092 109.119L77.3555 70.6681C76.1883 69.6419 76.117 67.8478 77.1992 66.7325ZM80.1543 60.5128C80.5985 59.0333 82.1984 58.2353 83.6475 58.7706L121.234 72.6622C121.483 72.754 121.532 73.0832 121.321 73.2433C121.241 73.3041 121.137 73.3255 121.039 73.3019L82.0898 63.8868C80.5963 63.5258 79.7125 61.9845 80.1543 60.5128ZM50.1846 57.8517C51.6811 57.4399 53.2052 58.3814 53.5059 59.9034C53.8021 61.4037 52.7875 62.8556 51.2773 63.0929L10.1602 69.547C10.1014 69.5562 10.0413 69.5488 9.98633 69.5265C9.69457 69.408 9.72166 68.9853 10.0264 68.9015L50.1846 57.8517ZM122.421 42.2941C122.52 42.2749 122.623 42.303 122.699 42.3702C122.888 42.5381 122.822 42.8478 122.581 42.924L83.7646 55.2003C82.2964 55.6646 80.7398 54.799 80.3594 53.3068C79.9785 51.8124 80.934 50.3053 82.4482 50.0128L122.421 42.2941ZM9.41406 40.3741L50.6934 49.9288C52.2021 50.2781 53.1024 51.8293 52.6572 53.3126C52.2162 54.7818 50.6347 55.5827 49.1895 55.0685L9.27051 40.8644C9.18628 40.8343 9.12352 40.7626 9.10547 40.6749C9.06799 40.4921 9.23225 40.3323 9.41406 40.3741ZM104.562 25.5167C104.705 25.4201 104.895 25.4334 105.023 25.549C105.189 25.6991 105.19 25.9613 105.024 26.1124L82.0322 47.0665C80.8988 48.0996 79.1337 47.9477 78.1943 46.7365C77.2554 45.5255 77.5364 43.7655 78.8057 42.9083L104.562 25.5167ZM20.2275 10.5548C20.3668 10.4163 20.5898 10.4094 20.7363 10.5402L56.9189 42.8322C58.0673 43.857 58.1307 45.6321 57.0586 46.7365C55.9773 47.8498 54.1833 47.8274 53.1299 46.6876L20.2168 11.0695C20.0813 10.9228 20.086 10.6956 20.2275 10.5548ZM83.0205 12.3019C83.1287 12.0693 83.4417 12.0281 83.6064 12.2247C83.6816 12.3145 83.7067 12.4357 83.6738 12.548L75.0156 42.0167C74.5829 43.4895 72.9883 44.283 71.5527 43.7394C70.121 43.1971 69.4505 41.553 70.0947 40.1642L83.0205 12.3019ZM52.5547 0.115359C52.7206 -0.0780048 53.0323 -0.0187194 53.1133 0.221805L66.4297 39.9669C66.9168 41.4208 66.0901 42.9947 64.6162 43.4191C63.1292 43.8471 61.5979 42.9289 61.2734 41.4152L52.4824 0.399539C52.4609 0.298919 52.4876 0.193753 52.5547 0.115359Z" fill="white"/>
</svg>
