<?xml version="1.0" encoding="UTF-8"?><svg id="Layer_1" xmlns="http://www.w3.org/2000/svg" viewBox="0 0 90.26 86.98"><defs><style>.cls-1{fill:#fff;}</style></defs><g><path class="cls-1" d="m49.62,23.06c-1.78-3.74-3.53-6.12-4.53-6.85-.96.7-2.73,3.18-4.51,6.85-2.29,4.21-4.7,12.72-5.21,18.78v45.29h19.45v-45.05h0c-.73-6.54-3-14.7-5.19-19.03Zm2.74,27.55h-14.53v-5.22h14.53v5.22Z"/><polygon class="cls-1" points="31.25 37.76 21.57 43.09 21.57 44.95 21.57 45.4 22.18 45.4 28.29 45.4 33.44 45.4 33.81 45.4 33.81 41.53 34.79 35.81 31.5 37.62 31.25 37.76"/><polygon class="cls-1" points="58.85 45.4 66.54 45.4 68.6 45.4 68.6 44.63 68.6 43.09 63.55 40.31 60.12 38.42 58.84 37.71 55.39 35.81 56.36 41.53 56.36 45.4 58.85 45.4"/><polygon class="cls-1" points="21.01 84.14 33.41 84.14 33.54 68.49 21.01 77 21.01 84.14"/><polygon class="cls-1" points="56.63 68.49 56.76 84.14 69.16 84.14 69.16 77 56.63 68.49"/></g><path class="cls-1" d="m56.96,20.77l18.33-6.34-17.87-1.36,7.69-12.22-14.71,7.24V.86l-6.11,5.66-7.01-4.53,2.94,6.56-11.54-3.62,3.85,8.6H15.1l16.52,7.47-12.67,9.05,17.09-3.01c2.65-9.26,9.21-14.89,9.21-14.89,0,0,5.98,5.56,8.66,14.56l21.38,3.33-18.33-9.28Z"/></svg>