<svg width="91" height="89" viewBox="0 0 91 89" fill="none" xmlns="http://www.w3.org/2000/svg">
<g clip-path="url(#clip0_3811_29807)">
<path d="M60.0578 48.9441L54.1396 48.9741V62.3772L71.4605 72.0594L58.6967 56.1857C58.6967 56.1857 70.4624 58.0862 72.2066 58.4863C71.0975 57.8061 60.0477 48.9341 60.0477 48.9341L60.0578 48.9441Z" fill="white"/>
<path d="M37.2986 36.2138C38.1496 30.5721 39.5374 22.3939 41.9541 17.2583C42.4142 16.1317 43.2732 14.5726 43.7716 13.5915L32.1856 3.19204L38.1476 21.4164L27.1671 18.6724L31.1964 26.8871L9.73524 25.7953L32.8298 40.9213L37.2986 36.2138Z" fill="white"/>
<path d="M31.6906 48.9341L10.3672 63.1974L26.6093 60.1367L20.1971 69.3388L35.4411 63.1974L35.5822 48.9341H31.6906Z" fill="white"/>
<path d="M44.9209 16.8818C45.5131 17.6124 46.5494 19.9939 47.6035 23.7363L47.6094 23.7266C48.6119 27.0759 49.6408 32.7155 50.2568 38.126L51.3369 39.0762L52.0068 39.6611L53.8008 41.2422L56.4434 43.5674V45.5H50.6836V71.8291L56.4434 80.5537V87.8555H33.4053V80.5537L39.165 71.8291V45.5H33.4053V43.5674L38.4697 39.1094L38.5947 39.001L39.5225 38.1846C40.1008 32.8833 41.1961 27.0103 42.25 23.7363C43.304 20.0642 44.3523 17.5827 44.9209 16.8818Z" fill="white"/>
</g>
<path d="M67.3268 4.88608C63.9749 5.02476 60.7394 6.15428 58.0294 8.13181C55.3194 10.1093 53.2567 12.846 52.1021 15.9959C50.9475 19.1457 50.7529 22.5672 51.5429 25.8276C52.3328 29.0881 54.0718 32.0411 56.54 34.3131C59.0083 36.5852 62.0948 38.0744 65.4094 38.5923C68.7239 39.1102 72.1176 38.6336 75.1613 37.2228C78.205 35.8119 80.762 33.5302 82.5089 30.6662C84.2558 27.8021 85.1142 24.4844 84.9755 21.1325L82.2952 21.2433C82.412 24.0651 81.6893 26.8582 80.2187 29.2693C78.7481 31.6804 76.5955 33.6013 74.0332 34.789C71.4708 35.9767 68.6138 36.3779 65.8235 35.9419C63.0331 35.5059 60.4347 34.2523 58.3569 32.3395C56.279 30.4267 54.815 27.9408 54.15 25.196C53.485 22.4512 53.6488 19.5708 54.6208 16.9191C55.5928 14.2674 57.3293 11.9635 59.6107 10.2988C61.8921 8.63399 64.6159 7.6831 67.4377 7.56636L67.3268 4.88608Z" fill="white"/>
<path d="M85.2027 15.5369C84.3688 13.1926 83.0294 11.0605 81.2793 9.29175C79.5293 7.52299 77.4116 6.1609 75.0763 5.30207L70.7989 16.9329C71.4281 17.1643 71.9986 17.5312 72.47 18.0077C72.9415 18.4842 73.3024 19.0586 73.527 19.6902L85.2027 15.5369Z" fill="white"/>
<path d="M67.7017 10.4357C65.4163 10.5302 63.2103 11.3003 61.3626 12.6487C59.5149 13.997 58.1085 15.8629 57.3213 18.0105C56.534 20.1581 56.4013 22.491 56.9399 24.714C57.4785 26.937 58.6642 28.9504 60.3471 30.4996C62.03 32.0487 64.1344 33.0641 66.3944 33.4172C68.6543 33.7703 70.9682 33.4454 73.0434 32.4834C75.1187 31.5215 76.8621 29.9658 78.0531 28.013C79.2442 26.0602 79.8295 23.7981 79.7349 21.5127L76.7134 21.6378C76.7832 23.3255 76.351 24.9961 75.4713 26.4383C74.5917 27.8804 73.3042 29.0293 71.7716 29.7397C70.239 30.4501 68.5302 30.6901 66.8612 30.4293C65.1923 30.1685 63.6381 29.4187 62.3953 28.2746C61.1525 27.1305 60.2768 25.6436 59.879 24.0019C59.4813 22.3602 59.5793 20.6374 60.1607 19.0513C60.742 17.4653 61.7807 16.0873 63.1452 15.0915C64.5098 14.0958 66.1389 13.5271 67.8267 13.4572L67.7017 10.4357Z" fill="white"/>
<circle cx="68.0267" cy="21.8329" r="2.77577" fill="white"/>
<rect x="67.1602" y="3.59277" width="2.395" height="37.1224" fill="white"/>
<rect x="49.1978" y="23.3516" width="2.395" height="37.1224" transform="rotate(-90 49.1978 23.3516)" fill="white"/>
<defs>
<clipPath id="clip0_3811_29807">
<rect width="91" height="87" fill="white" transform="translate(0 2)"/>
</clipPath>
</defs>
</svg>
