<svg id="Layer_1" data-name="Layer 1" xmlns="http://www.w3.org/2000/svg" viewBox="0 0 90.26 86.98"><defs><style>.cls-1{fill:#fff;}</style></defs><polygon class="cls-1" points="32.14 86.98 45.13 86.98 58.12 86.98 58.12 81.76 32.14 81.76 32.14 86.98"/><rect class="cls-1" x="32.14" y="48.91" width="25.98" height="26.46"/><path class="cls-1" d="M58.12,42c-1-6.55-4-14.74-6.94-19.08-2.37-3.74-4.72-6.12-6-6.84-1.28.7-3.65,3.17-6,6.84-3.06,4.21-6.28,12.72-7,18.79v.83h26Z"/><path class="cls-1" d="M56.9,23.45l18.32-6.33L57.35,15.76,65,3.54,50.33,10.78V3.54L44.23,9.2l-7-4.53,2.94,6.56L28.61,7.61l3.85,8.6H15l16.51,7.47-12.67,9L33,30.59a39.53,39.53,0,0,1,4.48-8.82c2.36-3.64,4.93-6.5,6.71-7.47l1-.52,1,.52c1.89,1,4.48,3.91,6.77,7.51a43.53,43.53,0,0,1,4.23,8.67l18.13,2.25Z"/></svg>