<svg xmlns="http://www.w3.org/2000/svg" width="64" height="69" viewBox="0 0 64 69">
  <defs>
    <style>
      .cls-1 {
        fill: #fff;
        fill-rule: evenodd;
      }
    </style>
  </defs>
  <path class="cls-1" d="M55.052,8.231C49.378,2.668,41.581-.009,31.836.288,7.6,1.017.415,21.06,0,31.556l10.049,0.4c0.1-2.16,1.6-21.125,22.089-21.741,6.831-.2,12.137,1.481,15.773,5.014,6.066,5.894,6.006,15.3,6.005,15.376v0.116a28.576,28.576,0,0,1-2.9,11.318c-3.7,7.274-10.112,10.81-19.617,10.81a16.041,16.041,0,0,1-3.254-.3l6.8-8.937L2.668,39.277,15.636,69l6.183-8.132A22.462,22.462,0,0,0,31.4,62.791c16.8,0,24.831-8.859,28.606-16.29a38.453,38.453,0,0,0,3.972-15.717C63.993,29.728,63.989,16.994,55.052,8.231Z"/>
</svg>
