<?xml version="1.0" encoding="UTF-8"?><svg id="Layer_1" xmlns="http://www.w3.org/2000/svg" viewBox="0 0 90.26 86.98"><defs><style>.cls-1{fill:#fff;}</style></defs><polygon class="cls-1" points="18.88 32.85 39.68 27.92 39.68 10.74 39.65 10.74 39.65 5.36 37.21 3.79 37.38 10.65 28.61 7.73 32.46 16.33 15.04 16.33 31.55 23.8 18.88 32.85"/><polygon class="cls-1" points="57.35 15.88 65.04 3.66 50.58 9.3 50.58 27.59 75.22 32.85 56.9 23.57 75.22 17.23 57.35 15.88"/><polygon class="cls-1" points="53.42 74.36 53.42 69.14 53.42 69.14 36.5 69.14 36.5 69.14 36.5 74.36 36.5 74.36 53.42 74.36 53.42 74.36"/><polygon class="cls-1" points="33.8 83.14 33.92 72.98 23.01 76.83 23.01 83.14 33.8 83.14"/><polygon class="cls-1" points="66.9 83.14 66.9 76.83 56 72.98 56.11 83.14 66.9 83.14"/><polygon class="cls-1" points="53.42 83.75 53.42 79.58 36.5 79.58 36.5 83.75 36.5 84.79 43.85 84.79 44.96 84.79 53.42 84.79 53.42 83.75"/><polygon class="cls-1" points="53.42 63.92 53.42 58.71 36.5 58.71 36.5 63.92 36.5 63.92 53.42 63.92 53.42 63.92"/><path class="cls-1" d="m53.42,48.27v-3.29c-.07-.63-.16-1.27-.26-1.93h0c-.05-.32-.1-.64-.15-.96,0-.03,0-.06-.02-.09-.05-.31-.11-.62-.17-.94,0-.04-.01-.08-.02-.12-.06-.31-.12-.62-.18-.93,0-.04-.02-.08-.03-.12-.06-.31-.13-.63-.2-.94,0-.03-.01-.05-.02-.08-.3-1.36-.64-2.71-1.01-4.01,0,0,0-.01,0-.02-.07-.24-.14-.48-.21-.71-.03-.11-.07-.22-.1-.33-.06-.2-.12-.4-.19-.6-.04-.14-.09-.28-.13-.42-.06-.18-.12-.35-.18-.53-.05-.15-.1-.3-.15-.45-.06-.16-.11-.32-.17-.48-.06-.16-.11-.31-.17-.46-.05-.14-.11-.29-.16-.43-.06-.16-.12-.31-.18-.47-.05-.12-.1-.25-.15-.37-.07-.17-.14-.33-.21-.49-.04-.1-.08-.2-.13-.29-.1-.23-.21-.45-.31-.66,0-.02-.02-.04-.03-.06-.08-.17-.16-.44-.24-.61v-8.62h0v-.15h0V4.25h0s-7.26,0-7.26,0h0v11.78h0v.11h0v11.35c-.12.24-.24.36-.36.61,0,.02-.02.04-.03.06-.11.21-.22.42-.33.65-.04.09-.09.19-.13.29-.07.16-.15.32-.22.49-.05.12-.1.24-.16.37-.07.15-.13.31-.2.47-.06.14-.11.28-.17.43-.06.15-.12.31-.18.46-.06.16-.12.32-.18.48-.05.15-.1.29-.16.44-.06.18-.13.36-.19.55-.04.13-.09.27-.13.4-.07.21-.14.42-.2.63-.03.1-.06.21-.1.32-.08.25-.15.49-.22.74-.01.04-.02.08-.04.13-.18.61-.34,1.23-.5,1.85-.02.09-.05.18-.07.27-.16.63-.31,1.26-.44,1.89,0,.04-.02.08-.03.12-.28,1.32-.52,2.63-.68,3.87,0,.01,0,.03,0,.04h0c-.08.57-.14,1.13-.19,1.67v8.76h16.92v-5.22Z"/></svg>