<svg xmlns="http://www.w3.org/2000/svg" width="128" height="128" viewBox="0 0 128 128">
  <defs>
    <style>
      .cls-1 {
        fill: #fff;
        fill-rule: evenodd;
      }
    </style>
  </defs>
  <path class="cls-1" d="M116.214,63.168a14.437,14.437,0,0,0-8.608-13.182,17.2,17.2,0,0,0-12.252-.13,17.038,17.038,0,0,1,4.674-2.912A16.046,16.046,0,1,0,75.29,64.3a16.059,16.059,0,0,1-8.134-4.223,13,13,0,0,0-.469,6.823L66.9,67.971h3.081a2.345,2.345,0,0,1,2.091,1.279l5.174,10.181a2.316,2.316,0,0,1-.243,2.481c-0.017.022-.04,0.037-0.058,0.058l6.733,2.374-13,19.895a5.348,5.348,0,0,0,1.925.262A14.5,14.5,0,0,0,86.96,92.223a13.353,13.353,0,0,1-.317-6.076,13.5,13.5,0,0,0,1.995,4.873,14.582,14.582,0,0,0,20.437,1.986,14.369,14.369,0,0,0,2.67-19.433A14.352,14.352,0,0,0,116.214,63.168ZM25.007,80.637a24.135,24.135,0,0,0,4.6-1.039q2.4-.779,4.861-1.792t4.809-2.13q2.352-1.117,4.391-2.026T47.3,72.169a8.113,8.113,0,0,1,2.587-.571,9.038,9.038,0,0,1,3.581.961q2.117,0.962,5.1,2.338t6.874,2.909a60.923,60.923,0,0,0,9.016,2.675L69.28,70.3H63.269l-2.98-5.974H57.153V53.053h3.032V45.366q-0.68-.468-1.255-0.935a13.18,13.18,0,0,0-1.229-.883,7.4,7.4,0,0,0-1.437-.7,7.693,7.693,0,0,0-1.882-.389V35.807h5.8V32.794H57.258V30.145a4.618,4.618,0,0,0-1.1-.675,10.668,10.668,0,0,0-1.489-.545,13.321,13.321,0,0,0-1.646-.364q-0.837-.129-1.516-0.182V21.314H48.529v7.065q-0.576.052-1.333,0.156a15.472,15.472,0,0,0-1.594.312,12.623,12.623,0,0,0-1.62.52,5.154,5.154,0,0,0-1.359.779v2.649H34.05l5.07,3.013H45.6v6.649a7.762,7.762,0,0,0-3.554,1.065A17,17,0,0,0,39.7,45.366v7.688h2.979V64.326l-5.488.364L26.837,58.975l-1.045,1.766,11.081,6.6L35.461,71.6,19.728,62.975l-0.994,1.766L29.5,71.079l-1.882,4.1L12.776,66.975l-0.993,1.714,14.792,8.779Zm41.241,24.051L78.27,86.4a10.31,10.31,0,0,1-3.711-.883q-2.2-.883-4.783-2.181t-5.384-2.831q-2.8-1.531-5.436-2.857a52,52,0,0,0-4.992-2.208,11.91,11.91,0,0,0-4.077-.883,10.783,10.783,0,0,0-3.607.857q-2.247.857-4.939,2.156t-5.619,2.805q-2.928,1.507-5.645,2.831T25.06,85.442a11.924,11.924,0,0,1-3.711.961l11.97,18.285h32.93Z"/>
</svg>
