<?xml version="1.0" encoding="UTF-8"?><svg id="Layer_1" xmlns="http://www.w3.org/2000/svg" viewBox="0 0 117.77 99.96"><defs><style>.cls-1{fill:#fff;}</style></defs><g id="Layer_2"><g><path class="cls-1" d="m83.4,6.94c-.3-1.7-1.2-3.2-2.5-4.3-1.1-1.3-2.6-2.2-4.3-2.6-.7-.1-1.5,0-2.2.1-.9.2-1.8.7-2.4,1.4l-18.5,18.2,9.9,10,18.4-18.2c.7-.7,1.2-1.5,1.4-2.4.2-.7.3-1.5.2-2.2Z"/><path class="cls-1" d="m50.6,22.64l-23.2,22.9c-2.9,3.5-5.5,7.1-7.8,11-.4.7-.8,1.4-1.3,2.1l-.7-.7c-1.6-1.6-4.2-1.6-5.9,0L0,69.64l13.1,13.3,11.9-11.8c1.6-1.6,1.6-4.2,0-5.9h0l-.8-.8c.7-.4,1.4-.8,2.1-1.2,3.9-2.3,7.6-4.9,11.1-7.7l23.1-22.9-9.9-10Zm-29.1,46.7l-8.8,9.4-3.1-3.3,12.1-12.3-.2,6.2Z"/></g></g><g><path class="cls-1" d="m116.5,84.64l-15.5-16.6c.4-.5.8-1.3.6-1.5-.3-.4-.9-1-1.2-1-.4.2-.8.4-1.2.7l-1.7-1.8,5.7-5.2c1.1-1,1.1-2.6,0-3.6l-.6-.5.7-.6.2.2,6.5,5.7c.4-.6.4-1.3-.1-1.8l-5.7-4.6h-.2l.5-.4c.3-.3.3-.7,0-.9-.3-.3-.7-.3-1,0l-.5.4v-.2l-5-5.2c-.6-.4-1.4-.5-2-.1l6.3,5.8.2.2-.7.6-.7-.7c-1-.9-2.7-1-3.7,0h0l-5.4,4.9-5-5.4c-.1-.3-.1-.6-.2-.9,1.1-1.2,2-2.5,2.9-3.9.8-1.1.8-2.6-.1-3.7h0l-.1-.1-.1-.1h0c-1.2-.8-2.8-.8-4.1-.1-1.5.8-2.9,1.6-4.2,2.6-.3,0-.7-.1-1-.2l-5.7-4.6,5.4-4.9c1-.9,1-2.5,0-3.4l-.7-.7.7-.6.2.2,6.3,5.8c.4-.6.4-1.3-.1-1.8l-5.7-4.6h-.2l.5-.4c.3-.3.3-.7,0-.9h0c-.3-.3-.7-.3-1,0l-.5.4v-.2l-5-5.2c-.6-.4-1.4-.5-2-.1l6.3,5.8.2.2-.7.6-.6-.5c-1.1-1-2.9-1-4,0l-5.7,5.2-1.9-1.6c.3-.3.6-.7.8-1.1,0-.3-.7-.9-1.1-1.1-.3-.1-1.1.2-1.7.6h0l-10.8,11.7,2.8,3.9,7.5,8.8c.4,1.9,0,3.8-1,5.5,0,0-7,7.1-15.1,16.7l-10.2-8.9c-.8-.7-1.8-1.1-2.8-1.3-1.5-.2-2.9.2-3.9,1.2-.8.7-1.2,1.6-1.4,2.6-.1,1,.2,2.1,1,2.9l8.7,10.2,3.1-.8-4.4,4.8.4.5.2.2.5.3,5.3-4-.9,2.9,11,8.1c.9.7,2,1,3.1.9s2.1-.5,2.8-1.2c1.1-.9,1.6-2.3,1.4-3.6-.2-1-.7-1.9-1.4-2.6l-9.6-9.4c10.5-7.3,18.3-13.7,18.3-13.7,1.8-1,3.9-1.3,6-.9l9.5,6.9,25.6,16.1c3.4,1.5,6.2.6,7.7-1.8,1.4-2.5-.8-5.1-.8-5.1Z"/><path class="cls-1" d="m46,19.24s-2.7-2-5.3-.6c-2.5,1.3-3.6,3.9-2,7l2,2.8,7.7-7.2-2.4-2Z"/></g></svg>