<?xml version="1.0" encoding="UTF-8"?><svg id="Layer_1" xmlns="http://www.w3.org/2000/svg" viewBox="0 0 90.26 86.98"><defs><style>.cls-1,.cls-2{fill:#fff;}.cls-2{fill-rule:evenodd;}</style></defs><g><circle class="cls-1" cx="45.83" cy="22.86" r="6.4"/><g><path class="cls-1" d="m54.16,13.74c4.99,4.99,5,13.1.04,18.1l2.93,2.93c6.59-6.63,6.58-17.35-.04-23.97h0s-2.93,2.93-2.93,2.93h0Z"/><path class="cls-1" d="m60.58,7.32c8.52,8.52,8.52,22.39,0,30.91h0l2.93,2.93h0c10.15-10.15,10.16-26.62,0-36.77h0s-2.93,2.93-2.93,2.93h0Z"/><path class="cls-1" d="m36.02,13.74s.03-.02.04-.04l-2.93-2.93s-.03.03-.04.04c-6.63,6.63-6.63,17.38,0,24.01l2.93-2.93c-5-5-5-13.14,0-18.14Z"/><path class="cls-1" d="m26.74,41.16l2.93-2.93c-8.52-8.52-8.52-22.39,0-30.91l-2.93-2.93c-10.15,10.15-10.16,26.62,0,36.77Z"/></g></g><path class="cls-2" d="m50.89,54.88h9.29l-.27-3.12h-8.75l-.27,3.12Zm8.62-7.9c-.78-5.84-2.93-9.84-3.97-10.47-1.05.63-3.39,4.97-3.92,10.18l-.03.33h7.93v-.04Zm1.11,16.22v-6.96h-10.17v6.97l-2.91,5.47v18.31h15.99v-18.31l-2.91-5.47Zm-29.85-8.32h9.29l-.27-3.12h-8.75l-.27,3.12Zm8.62-7.9c-.78-5.84-2.93-9.84-3.97-10.47-1.05.63-3.39,4.97-3.92,10.18l-.03.33h7.93v-.04Zm1.11,16.22v-6.96h-10.17v6.97l-2.91,5.47v18.31h15.99v-18.31l-2.91-5.47Z"/></svg>