<?xml version="1.0" encoding="UTF-8"?><svg id="Layer_1" xmlns="http://www.w3.org/2000/svg" viewBox="0 0 352.41 337.97"><defs><style>.cls-1{fill:#fff;}</style></defs><g><path class="cls-1" d="m145.59,238.17l.27.48c4.36-.99,8.76-1.8,13.06-2.99,13.98-4.33,27.6-9.75,40.73-16.21,9.34-4.25,18.76-8.31,28.15-12.43,6.15-2.77,13.21-2.69,19.3.21,4.49,1.99,9.03,3.9,13.45,6.04,16.79,8.48,34.29,15.49,52.3,20.94,4.82,1.36,9.68,2.56,14.82,3.93-.28-.68-.38-.97-.52-1.24-6.04-11.39-12.04-22.8-18.02-34.23-.4-.84-1.31-1.31-2.22-1.15-6.28.03-12.57-.02-18.86.04-1.03.15-2.02-.48-2.31-1.48-3.19-7.31-6.5-14.57-9.7-21.88-.26-.96-1.19-1.57-2.17-1.44-3.24.09-6.49.03-9.78.03v-18.65h12.19v-2.19c0-7.5-.13-15.01.07-22.51.33-2.61-.89-5.17-3.13-6.54-3.49-2.92-7.41-5.3-11.62-7.04-2.27-.7-4.62-1.13-6.97-1.68v-25.13h2.09c5.54,0,11.08.03,16.64-.03.91-.01,1.79-.25,2.59-.68,6.13-3.52,12.23-7.1,18.34-10.67.44-.26.85-.57,1.27-.86l-.1-.33h-31.4c-.04-.76-.09-1.36-.09-1.96-.04-6.49.03-6.69-6.32-8.72-4.95-1.58-10.08-2.59-15.44-3.93v-25.52h-9.41v26.03c-1.38.17-2.54.29-3.7.44-5.84.5-11.5,2.21-16.64,5.03-1.01.48-1.61,1.55-1.49,2.67.1,1.95.03,3.9.03,6.03h-31.73l-.29.47c.24.06.47.15.69.26,5.64,3.75,11.25,7.52,16.92,11.23.69.37,1.47.55,2.25.52,5.12.04,10.23.02,15.35.02h6.07v25.4c-7.77.75-15.02,4.22-20.49,9.79-.68.74-1.07,1.69-1.13,2.69-.09,8.42-.05,16.85-.05,25.27v2.03h12.32v18.46c-.71.15-1.3.31-1.91.39-5.31.66-10.64,1.18-15.93,2.02-1.99.32-4.03-.1-5.72-1.18-5.87-3.35-11.82-6.59-17.74-9.86-5.81-3.21-11.61-6.42-17.56-9.7l-3.65,6.49c.73.47,1.29.84,1.86,1.19,11.5,6.9,23,13.79,34.5,20.69q4.06,2.43,2.7,6.92c-1.14,3.73-2.3,7.43-3.48,11.26l-58.08-31.76-3.6,6.66,39.71,23.38-7,15.05-54.91-30.36-3.63,6.51,54.63,32.45-5.5,11.35Z"/><path class="cls-1" d="m284.94,232.71c-11.69-5.75-23.76-10.71-36.12-14.84-7.33-2.53-15.31-2.47-22.6.16-4.95,1.85-10.03,3.37-14.87,5.48-18.3,7.99-36.5,16.24-54.79,24.24-11.17,5.5-22.97,9.62-35.14,12.26.38.51.71,1.03,1.08,1.49,15.2,18.73,30.41,37.45,45.61,56.17,2.37,2.91,4.56,5.98,7.18,8.67,1.13,1.11,1.69,2.68,1.51,4.25-.09,2.44-.02,4.88-.02,7.37h121.34c0-3.3-.08-6.5.05-9.68.04-1.06.4-2.09,1.03-2.94,2.92-3.61,53.21-63.74,53.21-63.74-14.94-6.76-52.6-21.98-67.47-28.9Z"/></g><g><polygon class="cls-1" points="50.21 79.87 0 120.29 50.21 160.7 50.21 132.4 137.46 132.4 137.46 107.64 50.21 107.64 50.21 79.87"/><polygon class="cls-1" points="192.92 40.42 142.72 0 142.72 28.3 55.46 28.3 55.46 53.07 142.72 53.07 142.72 80.84 192.92 40.42"/></g></svg>