<?xml version="1.0" encoding="UTF-8"?><svg id="Layer_2" xmlns="http://www.w3.org/2000/svg" viewBox="0 0 128 128"><defs><style>.cls-1{fill:#fff;}</style></defs><g><path class="cls-1" d="m123.88,91.66l-1.77-2.91-10.84,1.62c-7.99-6.43-23.82-10.81-42.05-10.81-2.06,0-4.09.06-6.08.17l-1.73-3.4-5.09.51,1.68,3.29c-3.5.36-6.98.91-10.42,1.66.24.51.49,1.03.72,1.53.27.58.52,1.14.76,1.68,6.63-1.45,13.41-2.16,20.2-2.12,22.14,0,40.09,6.97,40.09,15.57s-17.95,15.57-40.09,15.57-40.09-6.97-40.09-15.57c0-2.63,1.69-5.11,4.65-7.28-1.02-1.04-2.04-2.12-3.07-3.24-5.73,3.36-9.12,7.49-9.12,11.97.01,1.28.29,2.55.81,3.73l-12.12,1.81,3.16,2.26,10.46-1.52c6.19,8.16,24.11,14.06,45.27,14.06,3.11,0,6.15-.13,9.09-.37l2.79,5.46h5.27s-3.05-5.99-3.05-5.99c19.4-2.57,33.49-10.29,33.49-19.43-.08-2.52-1.05-4.93-2.74-6.81l9.81-1.42Z"/><path class="cls-1" d="m76.97,98.43c0-1.69-3.49-3.06-7.79-3.06s-7.79,1.37-7.79,3.06,3.49,3.06,7.79,3.06,7.79-1.37,7.79-3.06Z"/><path class="cls-1" d="m69.27,109.45c15.74,0,28.49-4.95,28.49-11.06s-12.76-11.06-28.49-11.06c-6.17-.08-12.31.78-18.21,2.56.16.46.31.9.45,1.33,5.73-1.86,11.74-2.75,17.76-2.65,13.95,0,25.26,4.1,25.26,9.15s-11.31,9.15-25.26,9.15c-11.08,0-20.5-2.59-23.9-6.19-1.62-.83-3.14-1.85-4.53-3.03-.04.24-.06.48-.07.72,0,6.11,12.76,11.06,28.49,11.06Z"/></g><g><polygon class="cls-1" points="12.74 14.72 13.55 17.41 17.97 23.72 33.18 13.09 28.75 6.77 26.46 5.12 12.74 14.72"/><polygon class="cls-1" points="21.18 45.79 19.98 44.92 8.77 52.77 9.2 54.18 12.96 59.55 24.95 51.17 21.18 45.79"/><polygon class="cls-1" points="70.93 22.24 69 20.86 60.37 26.9 61.05 29.15 70.93 22.24"/><polygon class="cls-1" points="74.19 24.58 73.1 23.8 61.82 31.69 62.21 32.97 65.98 38.37 77.97 29.98 74.19 24.58"/><polygon class="cls-1" points="24.3 3.57 22.18 2.05 11.23 9.71 11.98 12.19 24.3 3.57"/><path class="cls-1" d="m46.28,31.81l-.63-.9h0s0,0,0,0l-10.25-14.64-15.2,10.64,10.25,14.64h0s0,0,0,0l.63.9h0c8.46,11.71,28.8,33.68,32.89,30.81,4.09-2.86-9.59-29.49-17.71-41.45h0Z"/><path class="cls-1" d="m88.01,44.33h0s-.5-.71-.5-.71h0s0,0,0,0l-7.32-10.45-11.99,8.39,7.32,10.46h0s0,0,0,0l.5.71h0c6.67,9.24,22.71,26.55,25.94,24.3,3.23-2.26-7.56-23.26-13.96-32.68Z"/><path class="cls-1" d="m35,65.53l-.5-.71h0s0,0,0,0l-7.33-10.47-11.99,8.39,7.83,11.19h0c6.67,9.24,22.71,26.55,25.94,24.3,3.23-2.26-7.56-23.26-13.96-32.68h0Z"/><polygon class="cls-1" points="7.36 48.11 8.01 50.24 17.82 43.37 15.99 42.06 7.36 48.11"/></g></svg>