<svg id="Layer_1" data-name="Layer 1" xmlns="http://www.w3.org/2000/svg" width="128" height="128" viewBox="0 0 128 128">
  <defs>
    <style>
      .cls-1 {
        fill: #fff;
      }
    </style>
  </defs>
  <g id="Layer_2" data-name="Layer 2">
    <g>
      <polygon class="cls-1" points="62.784 103.534 76.238 90.08 80.753 94.596 81.983 93.365 75.753 87.136 59.84 103.049 66.069 109.279 67.3 108.049 62.784 103.534"/>
      <path class="cls-1" d="M66.99671,104.64412l-1.26553-1.26552,6.65125-6.65126c.44772-.44772,4.29592-3.72932,4.64537-3.37985h0c.34947.34946-2.93213,4.19765-3.37984,4.64538Z"/>
      <path class="cls-1" d="M69.33356,106.981,68.068,105.71546l6.65127-6.65127c.44771-.44771,4.29591-3.72931,4.64537-3.37984h0c.34946.34946-2.93214,4.19765-3.37985,4.64537Z"/>
      <path class="cls-1" d="M71.67042,109.31783l-1.26553-1.26552,6.65126-6.65126c.44771-.44771,4.2959-3.72932,4.64537-3.37985h0c.34947.34946-2.93213,4.19765-3.37985,4.64538Z"/>
      <path class="cls-1" d="M74.00728,111.65468l-1.26548-1.26551,6.65127-6.65126c.4477-.44772,4.29589-3.72933,4.64537-3.37985h0c.34946.34946-2.93213,4.19765-3.37984,4.64537Z"/>
      <path class="cls-1" d="M76.34413,113.99154,75.0786,112.726l6.65126-6.65126c.44771-.44771,4.2959-3.72932,4.64538-3.37985h0c.34946.34945-2.93213,4.19765-3.37985,4.64537Z"/>
      <path class="cls-1" d="M78.681,116.3284l-1.26552-1.26552,6.65126-6.65128c.4477-.4477,4.2959-3.72932,4.64536-3.37985h0c.34945.34948-2.93214,4.19767-3.37985,4.64538Z"/>
      <path class="cls-1" d="M117.18505,33.39813l6.09525-6.09525L120.704,24.72655,114.6087,30.8218l-.56547-.56547L76.78052,67.51889l-1.44521-1.44525-1.95719,1.95724-1.74008-.4662a1.63575,1.63575,0,0,0-2.00342,2.00341l.86461,3.22677-6.42445,6.42442-5.20294-.57812-9.33131,9.33136a2.3549,2.3549,0,0,0-.00008,3.33032l.00008.00009.28265.28273L36.37637,105.03245H33.98854L28.20708,110.814l1.19391,1.19392h0l1.88516,1.88516-2.85908,2.85906H27.04463l-1.85374,1.85374,5.08986,5.08981,1.85372-1.85369v-1.38241l2.85918-2.85916,3.26751,3.26756L82.81292,76.31614a1.955,1.955,0,0,0,0-2.7648l0,0-2.32492-2.325,37.26261-37.26267Zm-62.98051,67.2535-1.31215-1.31209L71.32113,80.91078l1.31214,1.31211Z"/>
      <path class="cls-1" d="M96.71383,12.97593l6.09527-6.09525-2.57636-2.57633L94.13749,10.3996l-.56556-.56547L56.30922,47.09675l-1.4453-1.4453L52.90671,47.6087l-1.74-.46624a1.63578,1.63578,0,0,0-2.00341,2.00341l.86461,3.22672-6.4244,6.42448-5.20294-.5781L29.06915,67.5503a2.355,2.355,0,0,0,0,3.33042l.28284.28273L15.90515,84.61026H13.51733L7.73581,90.39177l3.07914,3.079L7.95579,96.32989H6.57335L4.7197,98.18363l5.08977,5.08983,1.85365-1.85369v-1.3824l2.85917-2.85917,3.2675,3.26755L62.34171,55.894a1.95522,1.95522,0,0,0,0-2.76484l-2.325-2.325L97.2793,13.54146ZM33.73323,80.22944l-1.312-1.3121L50.8499,60.48859l1.31206,1.3121Z"/>
    </g>
  </g>
</svg>
