<?xml version="1.0" encoding="UTF-8"?><svg id="Layer_1" xmlns="http://www.w3.org/2000/svg" viewBox="0 0 80 55"><defs><style>.cls-1{fill:#fff;}</style></defs><path class="cls-1" d="m65.32,31.43c-1.21-.88-20.49-22.32-25.4-27.78l-1.13-1.26s-5.24,1.49-10.61,6.96l2.04,1.32c3.51-3.77,6.55-5.57,8.27-6.37.07.05,8.26,6.2.68,25.82-3.81,9.85-13.26,15.66-16.38,17.36-.54-2.12-1.35-5.69-1.88-9.59l-2.51.07c.63,6.7,2.46,11.87,2.46,11.87h0,0s.43.04.43.04c1.78-.38,8.36-1.46,15.76-2.64-1.26,3.4-1.47,5.69-.59,6.8.55.69,1.45.86,2.08.93.3.03.63.05.99.05,3.85,0,11.11-1.7,13.38-3.56,1.79-1.46,2.61-5.1,2.94-7.17,4.03-.63,6.75-1.05,6.75-1.05,0,0,3.41-1.77,3.88-3.83s.21-6.96-1.17-7.97Zm-14.25,17.74c-1.98,1.61-10.09,3.16-12.24,2.88.02-.95.69-3.18,1.6-5.35,4.29-.68,8.65-1.36,12.36-1.94-.38,1.86-1,3.83-1.72,4.42Z"/><path class="cls-1" d="m76.57,36.47l-8.15-3.35s.86,2.03-.04,6.72c-.43,2.26-2.63,4.02-2.63,4.02l6.59,1.86s2.78.06,4.45-3.29c1.91-3.84-.22-5.95-.22-5.95Z"/><polygon class="cls-1" points="14.44 21.89 19.75 23.29 19.78 23.3 26.37 25.1 27.32 21.49 21.14 19.8 2.77 14.94 2.36 16.49 1.82 18.55 1.82 18.55 1.82 18.55 14.44 21.89"/><polygon class="cls-1" points="24.15 35.84 24.05 32.11 20.44 32.21 18.22 32.27 4.48 32.65 4.48 32.65 4.58 36.38 18.27 36 20.69 35.94 24.15 35.84"/><path class="cls-1" d="m18.34,30.31l2.1-.06c.04-1.64.21-3.2.53-4.62l-.72-.19-1.06-.28c-.44,1.7-.7,3.43-.85,5.15Z"/><polygon class="cls-1" points="26.62 15.11 28.54 16.36 26.62 15.11 31.21 18.06 33.24 14.93 28.95 12.18 28.92 12.15 26.84 10.81 14.15 2.57 12.12 5.7 24.55 13.77 26.62 15.11"/><path class="cls-1" d="m22.01,18.01l.19.05,1.89.5.22.07c.53-.9.66-1.1,1.19-1.91l-2.03-1.32c-.51.82-1,1.69-1.47,2.6Z"/></svg>