<svg width="138" height="135" viewBox="0 0 138 135" fill="none" xmlns="http://www.w3.org/2000/svg">
<path fill-rule="evenodd" clip-rule="evenodd" d="M15.6173 1.875L9.94472 7.54757L9.89207 7.65942C9.87872 7.6613 9.86548 7.66516 9.85212 7.66739L6.6108 4.42609L4.42588 6.61102L7.6672 9.85234C7.66495 9.86571 7.66107 9.87893 7.65923 9.89229L7.54737 9.94494L1.87481 15.6175L14.4771 18.1857L44.4889 48.1975L48.1973 44.4891L18.1856 14.4773L15.6173 1.875Z" fill="white"/>
<path fill-rule="evenodd" clip-rule="evenodd" d="M21.5152 40.7439L22.7541 41.9833L34.5937 41.7194L27.5667 34.6924L21.5152 40.7439Z" fill="white"/>
<path fill-rule="evenodd" clip-rule="evenodd" d="M41.9829 22.754L40.7435 21.5151L34.692 27.5667L41.719 34.5937L41.9829 22.754Z" fill="white"/>
<path fill-rule="evenodd" clip-rule="evenodd" d="M53.7668 50.0584L49.6209 45.9126L45.9125 49.621L50.0584 53.7669C50.3445 54.053 56.9619 59.0101 57.9859 57.986C59.01 56.962 54.0529 50.3445 53.7668 50.0584Z" fill="white"/>
<path fill-rule="evenodd" clip-rule="evenodd" d="M125.872 48.0908C120.087 47.9885 114.59 48.4249 109.293 49.2441C100.888 50.5527 93.2152 53.0044 86.1517 56.2711C81.2976 58.5194 76.7731 61.1671 72.5769 64.1362C69.7435 66.1444 67.0691 68.3069 64.5139 70.563C61.9307 72.8489 59.4682 75.2174 57.1778 77.7308C53.6821 81.5488 50.5394 85.5911 47.8399 89.9026C45.0945 94.2863 42.7791 98.8594 40.9669 103.609C38.1655 110.907 36.4738 118.505 36.1536 126.236C35.3317 118.357 35.8577 110.43 37.7011 102.684C38.9379 97.492 40.7899 92.4462 43.1671 87.5911C45.5562 82.7376 48.4913 78.0997 51.9666 73.8106C54.279 70.9543 56.8225 68.2508 59.6235 65.7701C62.3981 63.3081 65.4198 61.0568 68.6271 59.0301C73.3399 56.0499 78.4575 53.5348 83.9284 51.6007C87.8904 50.196 92.0159 49.0912 96.324 48.3222C105.554 46.6743 115.421 46.525 125.883 48.0924L125.872 48.0908Z" fill="white"/>
<path fill-rule="evenodd" clip-rule="evenodd" d="M111.21 57.5815L85.3456 81.8742L79.2434 77.3574C78.0099 76.6559 76.5664 77.5264 75.0962 78.7033L74.6159 78.2377L82.4986 70.0492C82.1235 69.2077 81.123 68.6208 79.9551 69.8164C78.1412 71.7276 77.348 72.9252 74.2194 77.2097L74.032 77.021C73.9527 76.9408 73.8448 76.8953 73.732 76.8946C73.6192 76.894 73.5108 76.9382 73.4305 77.0174L73.4273 77.0206L72.915 77.5128L72.7188 77.3136C72.6761 77.2694 72.6176 77.2439 72.5561 77.2427C72.4946 77.2416 72.4352 77.2649 72.3909 77.3076L72.385 77.3135L72.3499 77.3495L72.3139 77.3846C72.292 77.4058 72.2745 77.4311 72.2623 77.459C72.2502 77.4869 72.2436 77.517 72.2431 77.5474C72.2426 77.5779 72.248 77.6082 72.2592 77.6365C72.2704 77.6648 72.287 77.6907 72.3082 77.7126L72.314 77.7185L72.5131 77.9147L72.021 78.427C71.9813 78.4663 71.9498 78.5131 71.9282 78.5646C71.9065 78.6161 71.8953 78.6714 71.895 78.7273C71.8948 78.7832 71.9055 78.8386 71.9267 78.8903C71.9478 78.942 71.979 78.9891 72.0183 79.0287L72.0213 79.0317L72.2101 79.2191C67.9257 82.3477 66.7279 83.1409 64.8168 84.9547C63.6212 86.1227 64.2082 87.1232 65.0495 87.4984L73.238 79.6155L73.7036 80.0958C72.5268 81.5661 71.6562 83.0096 72.3578 84.2431L76.8745 90.3452L52.582 116.209C50.3678 118.409 58.9348 124.637 60.8402 124.562C60.9536 124.512 61.0617 124.451 61.1628 124.379L63.277 122.855L89.8147 103.427L89.8241 103.436C95.3414 107.852 101.132 111.916 107.16 115.604L101.249 127.108L100.926 127.717C101.008 127.941 101.108 128.159 101.224 128.367C101.666 129.098 102.27 129.716 102.99 130.175C103.813 130.777 104.683 131.314 105.591 131.781L114.807 124.883L114.314 120.67L117.028 123.014L117.504 122.504L118.014 122.028L115.67 119.314L119.883 119.807L126.781 110.591C126.315 109.683 125.778 108.813 125.175 107.989C124.717 107.269 124.098 106.665 123.368 106.223C123.159 106.107 122.942 106.008 122.717 105.926L122.108 106.249L110.604 112.16C106.916 106.131 102.852 100.341 98.4361 94.8237L98.4269 94.8142L117.855 68.2766L119.379 66.1624C119.451 66.0614 119.512 65.9533 119.562 65.8398C119.638 63.9344 113.409 55.3675 111.21 57.5815Z" fill="white"/>
</svg>
