<svg id="Layer_1" data-name="Layer 1" xmlns="http://www.w3.org/2000/svg" viewBox="0 0 90.26 86.98"><defs><style>.cls-1{fill:#fff;}</style></defs><polygon class="cls-1" points="31.78 87.03 44.77 87.03 57.76 87.03 57.76 81.81 31.78 81.81 31.78 87.03"/><rect class="cls-1" x="31.78" y="48.96" width="25.98" height="14.01"/><rect class="cls-1" x="31.78" y="70.2" width="25.98" height="5.22"/><path class="cls-1" d="M57.76,42c-1-6.55-4-14.74-6.94-19.08-2.37-3.74-4.72-6.12-6-6.85-1.28.71-3.64,3.18-6,6.85-3.06,4.21-6.28,12.72-7,18.78v.84h26Z"/><path class="cls-1" d="M56.9,23.5l18.32-6.33L57.35,15.81,65,3.59,50.33,10.83V3.59l-6.1,5.66-7-4.53,2.94,6.56L28.61,7.66l3.85,8.6H15l16.51,7.47L18.88,32.78,33,30.64a39.53,39.53,0,0,1,4.48-8.82c2.36-3.64,4.93-6.5,6.71-7.47l1-.53,1,.53c1.89,1,4.48,3.91,6.77,7.51a43.53,43.53,0,0,1,4.23,8.67l18.13,2.25Z"/></svg>