<?xml version="1.0" encoding="UTF-8"?><svg id="Layer_1" xmlns="http://www.w3.org/2000/svg" viewBox="0 0 90.26 86.98"><defs><style>.cls-1{fill:#fff;}</style></defs><g><path class="cls-1" d="m61.3,46.16l-5.87.03v13.4l17.18,9.68-12.66-15.87s11.67,1.9,13.4,2.3c-1.1-.68-12.06-9.55-12.06-9.55Z"/><g><path class="cls-1" d="m59.05,35.82l3.62-3.46,18.33-17.65-18.67,6.62,3.39-11.37-11.2,6.11V.8l-9.22,12.22c.37.52,2.12,2.56,2.47,3.13,3.15,4.68,4.88,10.75,6.91,17l4.36,2.67Z"/><path class="cls-1" d="m32.96,33.99l.53-1.32c1.89-5.38,4.27-11.83,7.59-16.42.66-1.02,1.79-2.39,2.46-3.26L34.21.62l2.38,19.01-10.18-4.75,2.38,8.82-20.7-5.09,19.41,18.19,5.48-2.8Z"/><polygon class="cls-1" points="29.23 45.94 8.08 60.2 24.19 57.14 17.83 66.34 32.95 60.2 33.09 45.94 29.23 45.94"/></g></g><g><path class="cls-1" d="m49.07,22.46c-1.78-3.74-3.53-6.12-4.53-6.85-.96.7-2.73,3.18-4.51,6.85-2.29,4.21-4.7,12.72-5.21,18.78v45.29h19.45v-45.05h0c-.73-6.54-3-14.7-5.19-19.03Zm2.74,37.99h-14.53v-5.22h14.53v5.22Zm0-10.43h-14.53v-5.22h14.53v5.22Z"/><polygon class="cls-1" points="20.46 83.53 32.87 83.53 33 67.88 20.46 76.4 20.46 83.53"/><polygon class="cls-1" points="30.71 37.15 21.03 42.48 21.03 44.34 21.03 44.79 21.63 44.79 27.75 44.79 32.89 44.79 33.26 44.79 33.26 40.92 34.24 35.21 30.95 37.02 30.71 37.15"/><polygon class="cls-1" points="58.3 44.79 65.99 44.79 68.05 44.79 68.05 44.02 68.05 42.48 63 39.7 59.57 37.81 58.29 37.1 54.84 35.21 55.82 40.92 55.82 44.79 58.3 44.79"/><polygon class="cls-1" points="56.08 67.88 56.21 83.53 68.62 83.53 68.62 76.4 56.08 67.88"/></g></svg>