<svg width="45" height="45" viewBox="0 0 45 45" fill="none" xmlns="http://www.w3.org/2000/svg">
<path fill-rule="evenodd" clip-rule="evenodd" d="M14.0229 27.7721C13.1028 30.3752 10.6203 32.2402 7.70213 32.2402C4.00064 32.2402 1 29.2395 1 25.5381C1 21.8366 4.00064 18.8359 7.70213 18.8359C10.7847 18.8359 13.3812 20.917 14.1633 23.7508H29.8367C30.6188 20.917 33.2153 18.8359 36.2979 18.8359C39.9994 18.8359 43 21.8366 43 25.5381C43 29.2395 39.9994 32.2402 36.2979 32.2402C33.3797 32.2402 30.8972 30.3752 29.9771 27.7721H14.0229Z" fill="white"/>
<path fill-rule="evenodd" clip-rule="evenodd" d="M25.1345 37.6655C27.3392 40.6388 31.5368 41.2618 34.51 39.0571C35.98 37.9671 36.8755 36.39 37.1389 34.7146C36.861 34.7398 36.5795 34.7527 36.295 34.7527C32.9393 34.7527 30.0068 32.96 28.3957 30.2846H24.7339C23.4184 32.5322 23.4853 35.4414 25.1345 37.6655ZM23.3575 27.7713L20.3756 23.75H25.3818L28.103 27.4198C30.8457 26.3589 34.0651 27.2048 35.9016 29.6816C36.4757 30.4558 36.8581 31.3131 37.0572 32.1965C36.807 32.2248 36.5527 32.2394 36.295 32.2394C33.3769 32.2394 30.8943 30.3744 29.9743 27.7713H23.3575ZM23.5182 21.2367H18.512L15.4526 17.1109C12.814 17.9215 9.83805 17.0381 8.10024 14.6945C5.89554 11.7213 6.51858 7.52369 9.49183 5.31899C12.4651 3.11429 16.6627 3.73733 18.8674 6.71058C20.7037 9.1871 20.5783 12.513 18.767 14.8292L23.5182 21.2367Z" fill="white"/>
</svg>
