<?xml version="1.0" encoding="utf-8"?>
<!-- Generator: Adobe Illustrator 27.2.0, SVG Export Plug-In . SVG Version: 6.00 Build 0)  -->
<svg version="1.1" id="Layer_1" xmlns="http://www.w3.org/2000/svg" xmlns:xlink="http://www.w3.org/1999/xlink" x="0px" y="0px"
	 viewBox="0 0 90.3 87" style="enable-background:new 0 0 90.3 87;" xml:space="preserve">
<style type="text/css">
	.st0{fill:#FFFFFF;}
</style>
<g>
	<polygon class="st0" points="34.9,68.2 34.8,83.8 22.4,83.8 22.4,76.7 	"/>
	<g>
		<polygon class="st0" points="32.9,37.3 32.6,37.4 22.9,42.8 22.9,44.6 22.9,45.1 23.5,45.1 29.6,45.1 34.8,45.1 35.2,45.1 
			35.2,41.2 36.1,35.5 		"/>
		<polygon class="st0" points="64.9,40 61.5,38.1 60.2,37.4 56.7,35.5 57.7,41.2 57.7,45.1 60.2,45.1 67.9,45.1 70,45.1 70,44.3 
			70,42.8 		"/>
	</g>
	<polygon class="st0" points="58,68.2 58.1,83.8 70.5,83.8 70.5,76.7 	"/>
	<path class="st0" d="M51,22.7c-1.8-3.7-3.5-6.1-4.5-6.8c-1,0.7-2.7,3.2-4.5,6.8c-2.3,4.2-4.7,12.7-5.2,18.8V44l0,0v42.8h19.5V45.1
		l0,0v-3.3C55.5,35.3,53.2,27.1,51,22.7L51,22.7z"/>
</g>
<g>
	<path class="st0" d="M63.4,46.7l-5.9,0v13.4l17.2,9.7L62,53.9c0,0,11.7,1.9,13.4,2.3C74.3,55.5,63.3,46.7,63.4,46.7L63.4,46.7z"/>
	<g>
		<path class="st0" d="M61.1,36.3l3.6-3.5l18.3-17.6l-18.7,6.6l3.4-11.4l-11.2,6.1V1.3l-9.2,12.2c0.4,0.5,2.1,2.6,2.5,3.1
			c3.2,4.7,4.9,10.8,6.9,17L61.1,36.3L61.1,36.3z"/>
		<path class="st0" d="M35,34.5l0.5-1.3c1.9-5.4,4.3-11.8,7.6-16.4c0.7-1,1.8-2.4,2.5-3.3L36.3,1.1l2.4,19l-10.2-4.7l2.4,8.8
			l-20.7-5.1l19.4,18.2L35,34.5L35,34.5z"/>
		<polygon class="st0" points="31.3,46.5 10.1,60.7 26.2,57.7 19.9,66.9 35,60.7 35.1,46.5 		"/>
	</g>
</g>
</svg>
