<?xml version="1.0" encoding="UTF-8"?><svg id="Layer_1" xmlns="http://www.w3.org/2000/svg" viewBox="0 0 90.26 86.98"><defs><style>.cls-1{fill:#fff;}</style></defs><g><path class="cls-1" d="m45.22,16.28c-.96.7-2.73,3.18-4.51,6.85-2.29,4.21-4.7,12.72-5.21,18.78v.25h-.09v43.56h.09v1.49h19.45v-5.22h-.09v-5.22h.09v-5.22h-.09v-5.22h.09v-5.22h-.09v-5.22h.09v-5.22h-.09v-5.22h.09v-3.26c-.72-6.55-3-14.74-5.19-19.08-1.78-3.74-3.53-6.12-4.53-6.85Zm7.18,65.71h-14.53v-5.22h14.53v5.22Zm0-10.44h-14.53v-5.22h14.53v5.22Zm0-10.44h-14.53v-5.22h14.53v5.22Zm0-10.43h-14.53v-5.22h14.53v5.22Z"/><polygon class="cls-1" points="21.14 84.21 33.54 84.21 33.67 68.55 21.14 77.07 21.14 84.21"/><polygon class="cls-1" points="31.38 37.83 21.7 43.16 21.7 45.01 21.7 45.47 22.31 45.47 28.42 45.47 33.57 45.47 33.94 45.47 33.94 41.59 34.92 35.88 31.63 37.69 31.38 37.83"/><polygon class="cls-1" points="58.98 45.47 66.67 45.47 68.73 45.47 68.73 44.69 68.73 43.16 63.67 40.37 60.25 38.49 58.96 37.78 55.51 35.88 56.49 41.59 56.49 45.47 58.98 45.47"/><polygon class="cls-1" points="56.76 68.55 56.89 84.21 69.29 84.21 69.29 77.07 56.76 68.55"/></g><path class="cls-1" d="m56.96,20.83l18.33-6.34-17.87-1.36,7.69-12.22-14.71,7.24V.92l-6.11,5.66-7.01-4.53,2.94,6.56-11.54-3.62,3.85,8.6H15.1l16.52,7.47-12.67,9.05,17.09-3.01c2.65-9.26,9.21-14.89,9.21-14.89,0,0,5.98,5.56,8.66,14.56l21.38,3.33-18.33-9.28Z"/></svg>