<?xml version="1.0" encoding="UTF-8"?><svg id="Layer_1" xmlns="http://www.w3.org/2000/svg" viewBox="0 0 90.26 86.98"><defs><style>.cls-1{fill:#fff;}</style></defs><g><path class="cls-1" d="m49.62,22.69c-1.78-3.74-3.53-6.12-4.53-6.85-.96.7-2.73,3.18-4.51,6.85-2.29,4.21-4.7,12.72-5.21,18.78v45.29h19.45v-45.05h0c-.73-6.54-3-14.7-5.19-19.03Zm2.74,48.42h-14.53v-5.22h14.53v5.22Zm0-10.44h-14.53v-5.22h14.53v5.22Zm0-10.43h-14.53v-5.22h14.53v5.22Z"/><polygon class="cls-1" points="21.01 83.77 33.41 83.77 33.54 68.11 21.01 76.63 21.01 83.77"/><polygon class="cls-1" points="31.25 37.39 21.57 42.72 21.57 44.57 21.57 45.03 22.18 45.03 28.29 45.03 33.44 45.03 33.81 45.03 33.81 41.15 34.79 35.44 31.5 37.25 31.25 37.39"/><polygon class="cls-1" points="58.85 45.03 66.54 45.03 68.6 45.03 68.6 44.25 68.6 42.72 63.55 39.93 60.12 38.04 58.84 37.34 55.39 35.44 56.36 41.15 56.36 45.03 58.85 45.03"/><polygon class="cls-1" points="56.63 68.11 56.76 83.77 69.16 83.77 69.16 76.63 56.63 68.11"/></g><path class="cls-1" d="m56.96,20.39l18.33-6.34-17.87-1.36L65.11.48l-14.71,7.24V.48l-6.11,5.66-7.01-4.53,2.94,6.56-11.54-3.62,3.85,8.6H15.1l16.52,7.47-12.67,9.05,17.09-3.01c2.65-9.26,9.21-14.89,9.21-14.89,0,0,5.98,5.56,8.66,14.56l21.38,3.33-18.33-9.28Z"/></svg>