<svg id="Layer_1" data-name="Layer 1" xmlns="http://www.w3.org/2000/svg" width="128" height="128" viewBox="0 0 128 128">
  <defs>
    <style>
      .cls-1 {
        fill: #fff;
      }
    </style>
  </defs>
  <g id="Layer_2" data-name="Layer 2">
    <g>
      <path class="cls-1" d="M123.83583,13.96239a11.2104,11.2104,0,0,0-3.67137-6.229,11.21094,11.21094,0,0,0-6.2289-3.67134,8.49823,8.49823,0,0,0-3.18716.21721,7.67185,7.67185,0,0,0-3.50406,2.019L80.81917,32.72341,95.17456,47.07879l26.425-26.42517a7.67082,7.67082,0,0,0,2.019-3.50407A8.4999,8.4999,0,0,0,123.83583,13.96239Z"/>
      <path class="cls-1" d="M76.67215,36.87046,43.50836,70.03411A125.95763,125.95763,0,0,0,32.332,85.91311c-.59849.99731-1.206,2.00905-1.81427,3.02141l-.94346-.94352a5.98536,5.98536,0,0,0-8.46449,0L4.10224,104.99851l19.0014,19.0014,17.00749-17.00746a5.98537,5.98537,0,0,0,0-8.4646l-1.1477-1.14777c1.01233-.60819,2.02409-1.21578,3.02141-1.81427A125.94755,125.94755,0,0,0,57.86366,84.38952L91.02743,51.22593ZM35.06334,104.41981l-12.661,13.62627-4.43813-4.68225,17.37176-17.779Z"/>
    </g>
  </g>
</svg>
