<svg id="Layer_1" data-name="Layer 1" xmlns="http://www.w3.org/2000/svg" width="128" height="128" viewBox="0 0 128 128">
  <defs>
    <style>
      .cls-1 {
        fill: #fff;
      }
    </style>
  </defs>
  <g id="Layer_2" data-name="Layer 2">
    <g>
      <path class="cls-1" d="M49.67273,55.39386l-2.78818-2.58629H39.64294a3.47476,3.47476,0,0,0-1.32911.49528,3.36624,3.36624,0,0,0-1.55752,2.091Z"/>
      <path class="cls-1" d="M64.95,100.16258v-6.717h6.48507V62.72436l-2.08732,1.10421v9.72864h-3.7112V61.20308a3.4753,3.4753,0,0,0-3.47521-3.47529H9.79867L4,64.68588l8.118,28.75969h21.041v4.23267H18.63379v5.79691H64.95ZM26.38036,87.5317H19.21455a1.20182,1.20182,0,0,1,0-2.40362h7.16581a1.20182,1.20182,0,0,1,.00933,2.40362Zm0-11.77781H19.21455a1.20182,1.20182,0,0,1,0-2.40364h7.16581a1.20182,1.20182,0,1,1,0,2.40364Z"/>
      <path class="cls-1" d="M124,30.87168l-3.65921-6.34681-8.29,6.99956L77.46409,51.46358l-.86876-1.50694L65.331,56.45048a5.71361,5.71361,0,0,1,2.54722,4.7526l-.03639,1.83138,12.22871-7.04983-.86892-1.507,34.5867-19.93907Z"/>
    </g>
  </g>
</svg>
