<?xml version="1.0" encoding="UTF-8"?><svg id="Layer_1" xmlns="http://www.w3.org/2000/svg" viewBox="0 0 90.26 86.98"><defs><style>.cls-1{fill:#fff;}</style></defs><path class="cls-1" d="m62.21,35.55l19.68-14.48-20.59,2.94,11.77-13.8-17.65,5.66,8.82-11.77-18.33,9.28-10.63-9.28v10.63l-7.92-8.37,3.39,18.55-17.87-7.92,12.22,19.01h-15.84l14.03,6.79-11.77,11.31,19.06-7.33v-5.5c.72-6.28,4-15.1,7.32-19.69,2.36-3.64,4.93-6.5,6.71-7.47l.96-.52.96.52c1.89,1.03,4.48,3.91,6.77,7.51,3.15,4.68,6.27,13.22,7.25,19.88l.02.14v4.03l18.83,2.77-17.2-12.9Z"/><g><path class="cls-1" d="m51.85,22.9c-2.37-3.74-4.72-6.12-6.05-6.85-1.28.7-3.65,3.18-6.02,6.85-3.06,4.21-6.28,12.71-6.97,18.78v8.32h3.25v-6.17c.59-5.59,3.25-13.64,5.84-17.63l.03-.04.03-.04c1.53-2.65,2.94-4.45,3.86-5.41.95.96,2.36,2.75,3.85,5.4v.02s.03.02.03.02c2.48,4.12,5.04,12,5.85,18.01v5.84h3.25v-8.02c-.96-6.55-4.01-14.74-6.94-19.08Z"/><polygon class="cls-1" points="48.08 77 43.36 77 37.03 54.5 32.81 54.5 32.81 86.98 58.79 86.98 58.79 54.5 54.46 54.5 48.08 77"/></g><path class="cls-1" d="m48.08,30.3v-.02c-.97-2.18-1.88-3.66-2.49-4.45-.6.79-1.5,2.28-2.49,4.47l-.02.04-.02.04c-1.67,3.29-3.38,9.93-3.76,14.54v5.09h12.55v-4.82c-.52-4.95-2.17-11.46-3.77-14.86v-.02Z"/></svg>