<?xml version="1.0" encoding="UTF-8"?><svg id="Layer_1" xmlns="http://www.w3.org/2000/svg" viewBox="0 0 47 37"><defs><style>.cls-1{fill:#fff;}</style></defs><path class="cls-1" d="m3,18.5L15.75,5.08v26.85L3,18.5Z"/><path class="cls-1" d="m44,18.5l-12.75,13.42V5.08l12.75,13.42Z"/><path class="cls-1" d="m26.54,4.56l-.64,19.75h-4.69l-.66-19.75h6Zm-6.15,25.86c0-.83.29-1.52.86-2.07.59-.56,1.35-.84,2.3-.84s1.73.28,2.3.84c.57.55.86,1.24.86,2.07s-.29,1.49-.86,2.05c-.57.56-1.34.84-2.3.84s-1.72-.28-2.3-.84c-.57-.56-.86-1.24-.86-2.05Z"/></svg>