<svg id="Layer_1" data-name="Layer 1" xmlns="http://www.w3.org/2000/svg" viewBox="0 0 90.26 86.98"><defs><style>.cls-1{fill:#fff;}</style></defs><polygon class="cls-1" points="32.14 86.98 45.13 86.98 58.12 86.98 58.12 68.78 32.14 68.78 32.14 86.98"/><path class="cls-1" d="M58.12,42c-1-6.55-4-14.74-6.94-19.08-2.37-3.74-4.72-6.12-6-6.84-1.28.7-3.65,3.17-6,6.84-3.06,4.21-6.28,12.72-7,18.79V54.5h26Z"/><path class="cls-1" d="M61.76,36.07,81.44,21.59,60.86,24.54,72.62,10.73,55,16.39,63.8,4.62,45.47,13.9,34.84,4.62V15.26L26.92,6.89l3.39,18.55L12.44,17.52l12.21,19H8.82l14,6.78L11.08,54.63,30.14,47.3V41.8c.71-6.28,4-15.1,7.31-19.69,2.36-3.64,4.93-6.5,6.71-7.47l1-.52,1,.52c1.89,1,4.48,3.91,6.77,7.51C56,26.83,59.12,35.37,60.1,42l0,.14v4L79,49Z"/></svg>