<svg xmlns="http://www.w3.org/2000/svg" width="104" height="105" viewBox="0 0 104 105">
  <defs>
    <style>
      .cls-1 {
        fill: #fff;
        fill-rule: evenodd;
      }
    </style>
  </defs>
  <path class="cls-1" d="M70.5,93.773l4.053-4.066V81.594L70.5,77.545,58.32,89.71l4.053,4.066H70.5v0ZM56.3,87.693L68.48,75.528l-2.036-2.051L54.249,85.64ZM52.25,83.645l12.177-12.18-2.053-2.033L50.2,81.6Zm-4.071-4.066,12.2-12.165L58.32,65.363,46.143,77.546Zm-4.053-4.048L56.3,63.366,46.4,53.295l0.016-16.226-8.773-8.763-10.341-2-2.035,2v4.066l6.408,6.1v8.115L27.3,50.934H19.2l-6.107-6.4H9.018L7,46.586,9.018,56.9l8.773,8.761h16.25Zm45.71-63.745h-46.8l-5,5V26.64l1.813,0.35,8.773,8.763L48.608,51.979l4.7,4.776H89.836l5-5V16.781ZM81.483,38.859H71.026V49.312h-9.18V38.859H51.388V29.682H61.845V19.229h9.18V29.682H81.483v9.177Z"/>
</svg>
