<?xml version="1.0" encoding="UTF-8"?><svg id="Layer_1" xmlns="http://www.w3.org/2000/svg" viewBox="0 0 66.39 66.39"><defs><style>.cls-1{fill:#fff;}.cls-2{opacity:.75;}</style></defs><path class="cls-2" d="m60.21,9.19l-3-3c-8.25-8.25-21.62-8.25-29.87,0L6.19,27.34c-8.25,8.25-8.25,21.62,0,29.87l3,3c8.25,8.25,21.62,8.25,29.87,0l21.15-21.15c8.25-8.25,8.25-21.62,0-29.87Zm-31.43,42.13c-2.03,2.04-4.7,3.05-7.37,3.05s-5.33-1.02-7.37-3.05l-.39-.39c-4.07-4.07-4.07-10.67,0-14.74l9.65-9.65c2.04-2.04,4.7-3.05,7.37-3.05s5.33,1.02,7.37,3.05l.39.39c.75.75.89.7,1.36,1.59.25,1.85-.6,2.26-1.59,2.74-1.83.88-2.98-.45-3.32-.79l-.39-.39c-1.02-1.02-2.39-1.59-3.83-1.59s-2.81.56-3.83,1.59l-9.65,9.65c-1.02,1.02-1.59,2.39-1.59,3.83s.56,2.81,1.59,3.83l.39.39c1.02,1.02,2.39,1.59,3.83,1.59s2.81-.56,3.83-1.59l6.24-6.24c1.23.72,3.59.67,5.97.94l-8.67,8.84Zm23.97-23.61l-9.65,9.65c-2.04,2.04-4.7,3.05-7.37,3.05s-5.33-1.02-7.37-3.05l-.39-.39c-.75-.75-.89-.7-1.36-1.59-.25-1.85.6-2.26,1.59-2.74,1.83-.88,2.98.45,3.32.79l.39.39c1.02,1.02,2.39,1.59,3.83,1.59s2.81-.56,3.83-1.59l9.65-9.65c1.02-1.02,1.59-2.39,1.59-3.83s-.56-2.81-1.59-3.83l-.39-.39c-1.02-1.02-2.39-1.59-3.83-1.59s-2.81.56-3.83,1.59l-6.24,6.24c-1.23-.72-3.59-.67-5.97-.94l8.67-8.84c2.03-2.04,4.7-3.05,7.37-3.05s5.33,1.02,7.37,3.05l.39.39c4.07,4.07,4.07,10.67,0,14.74Z"/><path class="cls-1" d="m52.35,12.58c-2.03-2.04-4.7-3.05-7.37-3.05s-5.33,1.02-7.37,3.05l-8.67,8.84c2.38.27,4.74.22,5.97.94l6.24-6.24c1.02-1.02,2.39-1.59,3.83-1.59s2.81.56,3.83,1.59l.39.39c1.02,1.02,1.59,2.39,1.59,3.83s-.56,2.81-1.59,3.83l-9.65,9.65c-1.02,1.02-2.39,1.59-3.83,1.59s-2.81-.56-3.83-1.59l-.39-.39c-.34-.34-1.48-1.67-3.32-.79-.99.47-1.83.88-1.59,2.74.47.89.61.84,1.36,1.59l.39.39c2.03,2.04,4.7,3.05,7.37,3.05s5.33-1.02,7.37-3.05l9.65-9.65c4.07-4.07,4.07-10.67,0-14.74l-.39-.39Z"/><path class="cls-1" d="m25.24,47.78c-1.02,1.02-2.39,1.59-3.83,1.59s-2.81-.56-3.83-1.59l-.39-.39c-1.02-1.02-1.59-2.39-1.59-3.83s.56-2.81,1.59-3.83l9.65-9.65c1.02-1.02,2.39-1.59,3.83-1.59s2.81.56,3.83,1.59l.39.39c.34.34,1.48,1.67,3.32.79.99-.47,1.83-.88,1.59-2.74-.47-.89-.61-.84-1.36-1.59l-.39-.39c-2.03-2.04-4.7-3.05-7.37-3.05s-5.33,1.02-7.37,3.05l-9.65,9.65c-4.07,4.07-4.07,10.67,0,14.74l.39.39c2.03,2.04,4.7,3.05,7.37,3.05s5.33-1.02,7.37-3.05l8.67-8.84c-2.38-.27-4.74-.22-5.97-.94l-6.24,6.24Z"/></svg>