<svg width="80" height="82" viewBox="0 0 80 82" fill="none" xmlns="http://www.w3.org/2000/svg">
<g clip-path="url(#clip0_2730_16814)">
<path d="M39.5103 58.2702L29.5503 47.7402C29.5503 47.7402 29.3703 46.9902 28.1303 46.9902C26.9703 46.9902 26.4903 47.3502 26.4903 47.3502L10.4103 61.9102C10.4103 61.9102 9.54032 62.6102 9.43032 63.3702C9.32032 64.1702 9.46032 64.4202 9.59032 64.5002L24.2503 79.7702C24.2503 79.7702 25.6003 81.1702 27.4803 81.1702C29.6203 81.1702 31.1003 79.2102 31.1003 79.2102L39.5803 71.0802C39.5803 71.0802 40.2803 70.4202 40.5103 69.7402C40.7603 69.0202 40.8403 68.4802 40.8403 68.4802V61.7602C40.8403 61.7602 40.9303 61.4602 40.4503 60.0902C39.9403 58.6202 39.5003 58.2602 39.5003 58.2602L39.5103 58.2702ZM31.8003 71.5202L30.1403 72.8902C30.1403 72.8902 30.0403 73.3802 28.7703 73.3802C27.5003 73.3802 26.4203 72.2102 26.4203 72.2102L18.2003 64.0902C18.2003 64.0902 17.0303 63.5002 17.0303 62.3302C17.0303 61.1602 17.8103 60.6702 17.8103 60.6702L22.7003 56.7602C22.7003 56.7602 23.8703 55.0002 25.6303 55.1902C27.3903 55.3802 27.7803 58.3202 27.7803 58.3202L31.8903 66.8302C31.8903 66.8302 32.5703 68.0002 32.5703 69.2802C32.5703 70.5602 31.7903 71.5302 31.7903 71.5302L31.8003 71.5202Z" fill="white"/>
<path d="M72.2008 1.77L42.0808 31.89L38.0808 35.89L36.2108 37.76L29.5508 44.42L44.0308 60.46L49.5108 58.31L48.5308 52.44L50.2908 51.83L54.2008 50.48V45L54.8608 44.65L56.8308 43.6L57.5308 43.23V37.36L63.7908 36.19L62.8108 30.32L66.5508 29.3L69.2708 28.56L68.2908 21.52H74.1608L72.9908 13.3L77.8008 12.59L79.6408 12.32V7.23L72.2108 1.75L72.2008 1.77ZM79.6308 12.34L78.3608 6.86L72.2008 1.77L79.6308 7.25V12.34Z" fill="white"/>
<path d="M31.5098 24.0895L28.4098 27.1895C27.6498 27.9495 27.6498 29.1895 28.4098 29.9595L34.7898 36.3395L40.6598 30.4695L34.2798 24.0895C33.5198 23.3295 32.2798 23.3295 31.5098 24.0895Z" fill="white"/>
<path d="M56.3294 46.1409L56.1994 46.2109V51.9109L54.8494 52.3709L51.8594 53.4009L72.9594 74.5009C73.7194 75.2609 74.9594 75.2609 75.7294 74.5009L78.8294 71.4009C79.5894 70.6409 79.5894 69.4009 78.8294 68.6309L56.3294 46.1309V46.1409Z" fill="white"/>
<path d="M17.02 32.2896L15.78 28.8996C15.78 28.8996 18.91 25.7696 20.87 26.2896C22.83 26.8096 24.8 28.8996 24.8 28.8996L32.58 20.8096C32.58 20.8096 31.18 12.9796 33.53 8.41958C35.88 3.85958 44.36 1.76958 44.36 1.76958C44.36 1.76958 38.23 -1.10042 30.79 0.469583C23.36 2.03958 20.88 5.94958 20.88 5.94958L11.49 14.4296L11.75 16.3896L14.23 18.9996L10.06 22.5196L5.23 21.8696L0 26.6796L12.26 37.3796L17.02 32.2896Z" fill="white"/>
</g>
<defs>
<clipPath id="clip0_2730_16814">
<rect width="79.63" height="81.17" fill="white"/>
</clipPath>
</defs>
</svg>
