<?xml version="1.0" encoding="UTF-8"?><svg id="Layer_1" xmlns="http://www.w3.org/2000/svg" viewBox="0 0 82 39"><defs><style>.cls-1{fill:#ff5353;}</style></defs><path d="m64.33,7.33l-1.41-4.94-12.1,7.26-1.26-1.25-.77.63V1h-15.71v7.47c-.74.43-1.43.92-2.08,1.46l-9.84-7.42-1.93,4.77L3,1.82l18.57,22.98,1.86-3.32,1.62,2c.42,8.54,7.31,15.53,15.96,15.53s16-7.43,16-16.34c0,0,0,0,0,0l1.65-1.65,1.5,3.5L81.04,3.62l-16.72,3.72Z"/><path class="cls-1" d="m38.69,24.23l2.82.77,4.5-8-8,5,.68,2.23Z"/><g><path class="cls-1" d="m53,13l3.5,4.5,2.5-2.5,1-1,1.5,3.5,3.5-3.5,3.5-3.5-4.5,1-2.5.5-1-3.5-7.5,4.5Z"/><path class="cls-1" d="m29.89,14.11l-3.96,4.11-2.22-2.75-.89-1.1-1.86,3.32-3.11-3.85-3.11-3.85,4.37,1.47,2.43.76,1.36-3.37,6.98,5.27Z"/><path class="cls-1" d="m48.27,14.65l-.73.79c1.88,1.81,3.06,4.36,3.06,7.2,0,5.45-4.31,9.87-9.6,9.87s-9.6-4.43-9.6-9.87,4.31-9.87,9.6-9.87v-.07h1.39v-3.95h2.4v-3.77h-7.71v3.76h2.32v1.68c-5.86.81-10.39,5.98-10.39,12.22,0,6.8,5.38,12.34,12,12.34s12-5.54,12-12.34c0-3.48-1.41-6.63-3.68-8.87l-1.04.86Z"/><path class="cls-1" d="m38,22l.68,2.23,2.82.77,4.5-8-8,5Z"/></g></svg>