<?xml version="1.0" encoding="UTF-8"?><svg id="Layer_1" xmlns="http://www.w3.org/2000/svg" viewBox="0 0 90.26 86.98"><defs><style>.cls-1{fill:#fff;}</style></defs><path class="cls-1" d="m55.78,43.26l7.07,1.45,16.27,2.39-17.2-12.9,19.68-14.48-20.59,2.94,11.77-13.8-17.65,5.66,8.82-11.77-13,6.64v16.9s1.23,1.63,2.79,6.59,2.03,10.37,2.03,10.37Z"/><path class="cls-1" d="m22.68,41.45l-11.77,11.31,19.06-7.33,4.93-1.78s.29-5.12,1.86-10.08,2.84-7.53,2.84-7.53l-.03-19.01-4.9-4.28v10.63l-7.92-8.37,3.39,18.55-17.87-7.92,12.22,19.01h-15.84l14.03,6.79Z"/><polygon class="cls-1" points="34.25 73.28 23.35 77.13 23.35 83.44 34.14 83.44 34.25 73.28"/><polygon class="cls-1" points="56.45 83.44 67.24 83.44 67.24 77.13 56.33 73.28 56.45 83.44"/><polygon class="cls-1" points="53.75 79.88 36.84 79.88 36.84 85.1 44.19 85.1 45.29 85.1 53.75 85.1 53.75 79.88"/><path class="cls-1" d="m36.84,47.2v27.47h16.92v-29.37c-.63-5.8-2.61-13.04-4.52-16.88-.08-.17-.16-.44-.24-.61V4.55h-7.26v23.25c-.12.24-.24.36-.36.61-1.99,3.72-4.09,11.25-4.54,16.62v2.17Z"/></svg>