<svg xmlns="http://www.w3.org/2000/svg" xml:space="preserve" id="Layer_1" x="0" y="0" version="1.1" viewBox="0 0 90.3 87"><path d="m61.8 32.2 19.7-14.5-20.6 2.9L72.6 6.8 55 12.5 63.8.7 45.5 10 34.8.7v10.6L26.9 3l3.4 18.5-17.9-7.9 12.2 19H8.8l8.4 7-6.1 11 8.5-4.7.1-4.6 14.6-8.9s2.4-7.7 5-12.4c2.9-5.1 5.9-8.3 5.9-8.3s3.5 3.6 5.7 7.8c2.4 4.7 4.7 12.6 4.7 12.6l15 8.5.2 3 8.3 1.2-17.3-12.6z" fill="#FFF"/><path d="M45.2 15.3c-1 .7-2.7 3.2-4.5 6.8-2.3 4.2-4.7 12.7-5.2 18.8v.2h-.1v43.6h.1v1.5H55V81h-.1v-5.2h.1v-5.2h-.1v-5.2h.1v-5.2h-.1V55h.1v-5.2h-.1v-5.2h.1v-3.3c-.7-6.5-3-14.7-5.2-19.1-1.8-3.8-3.6-6.2-4.6-6.9zM52.4 81H37.9v-5.2h14.5V81zm0-10.4H37.9v-5.2h14.5v5.2zm0-10.5H37.9v-5.2h14.5v5.2zm0-10.4H37.9v-5.2h14.5v5.2zM21.1 83.2h12.4l.2-15.6-12.6 8.5zM31.4 36.8l-9.7 5.4v2.3h12.2v-3.9l1-5.7-3.3 1.8zM59 44.5h9.7v-2.3l-5-2.8-3.5-1.9-1.2-.7-3.5-1.9 1 5.7v3.9zM56.8 67.6l.1 15.6h12.4v-7.1z" fill="#FFF"/></svg>