<svg xmlns="http://www.w3.org/2000/svg" width="96" height="65.62" viewBox="0 0 96 65.62">
  <defs>
    <style>
      .cls-1 {
        fill: #fff;
      }
    </style>
  </defs>
  <g id="Layer_1" data-name="Layer 1">
    <path class="cls-1" d="M94.96,19.13H83.3V30.8H78.96V20.25a8.53,8.53,0,0,0-2-6.06,6.17015,6.17015,0,0,0-4.85-1.61h-.55V6.92h4.4a3.47,3.47,0,0,0,0-6.92h-19a3.34994,3.34994,0,0,0-3.2832,3.41546q.00091.04734.00317.09455a3.35,3.35,0,0,0,3.28,3.41h5.16v5.66h-3l-.01276.04h-9.6001l.01288-.04H31.15V6.92h4.34a3.47,3.47,0,0,0,0-6.92h-19a3.35,3.35,0,0,0-3.2525,3.4447L13.24,3.51a3.35,3.35,0,0,0,3.22,3.46h5.17v5.66H13.72A7.29981,7.29981,0,0,0,7.84,14.41c-2.34,2.1-2.15,6.36-2.15,6.36v3.05C2.31,26.75-.04,32.51-.04,39.06S2.31,51.38,5.69,54.3v2.29a10.36019,10.36019,0,0,0,2.06,7.09c1.7,2.07,6.94,1.94,6.94,1.94H70.85s.10919.00263.28588,0H72v-.04657A8.50309,8.50309,0,0,0,77.23,63.51c2-2.09,1.7-5.88,1.7-5.88V48H83.3V59.22H94.96s1.09-15,1.09-20S94.96,19.13,94.96,19.13ZM30.85,49.35H14.57V43.64H30.85Zm0-10.83H14.57V32.81H30.85Zm0-10.83H14.57V21.98H30.85Z"/>
  </g>
</svg>
