<?xml version="1.0" encoding="UTF-8"?><svg id="Layer_1" xmlns="http://www.w3.org/2000/svg" viewBox="0 0 90.26 86.98"><defs><style>.cls-1{fill:#fff;}</style></defs><path class="cls-1" d="m84.24,16.77l-18.67,6.62,3.39-11.37-11.2,6.11V2.86l-7.45,10.12v12.8s-.07.02,2.73,7.16c2.64,6.73,2.16,11.13,2.16,11.13v18.06l5.45,3.96,14.01,10.38-11.46-21.01s11.67,1.9,13.4,2.3c-1.96-1.21-16.46-17.91-16.46-17.91l5.77-5.43,18.33-17.65Z"/><path class="cls-1" d="m34.04,43.01s.54-4.89,1.72-9.19c1.17-4.3,3.23-7.97,3.23-7.97l.1-12-.86-1.1-2.27-3.18L30.18,1.49l2.38,19.01-10.18-4.75,2.38,8.82-20.7-5.09,18.67,14.25-18.67,1.7,18.67,13.92-18.67,19.01,20.36-9.16-4.75,16.29,8.53-8.31,5.85-4.98v-19.17Z"/><polygon class="cls-1" points="22.91 83.05 33.7 83.05 33.81 72.89 22.91 76.74 22.91 83.05"/><polygon class="cls-1" points="66.79 76.74 55.89 72.89 56.01 83.05 66.79 83.05 66.79 76.74"/><polygon class="cls-1" points="44.85 84.71 53.31 84.71 53.31 79.49 36.39 79.49 36.39 84.71 43.75 84.71 44.85 84.71"/><rect class="cls-1" x="36.39" y="69.05" width="16.92" height="5.22"/><path class="cls-1" d="m53.31,47.78v-2.88c-.63-5.8-2.61-13.04-4.52-16.88-.08-.17-.16-.44-.24-.61V4.16h-7.26v23.25c-.12.24-.24.36-.36.61-1.99,3.72-4.09,11.25-4.54,16.62v19.2h16.92v-16.06Z"/></svg>