<?xml version="1.0" encoding="UTF-8"?><svg id="Layer_1" xmlns="http://www.w3.org/2000/svg" viewBox="0 0 352.41 337.97"><defs><style>.cls-1{fill:#fff;}</style></defs><g><path class="cls-1" d="m38.98,149.45l41.85-52.75s13.65,11.9,25.27,13.08c11.62,1.18,55.69-5.85,55.69-5.85l-22.64,21.53s-19.1,14.93-.12,32.26c9.89,9.03,33.42-.3,33.42-.3l18.43-11.69s7.1-5.92,8.88-5.92,6.27,5.33,6.27,5.33l61.31,54.02s6.98,11.25-2.4,19.54c-6.65,5.87-16.37,0-16.37,0,0,0,3.26,7.99-3.55,13.62-10.76,8.89-18.35,0-18.35,0,0,0,3.85,7.99-3.85,13.91-6.82,5.25-16.28.3-16.28.3,0,0-.14,11.25-10.36,13.62-10.22,2.37-15.03-5.92-15.03-5.92l7.51-10.6s6.04-13.61-5.09-23.81c-7.99-7.33-16.65-4-16.65-4,0,0,2.72-8.77-5.33-16.43-6.84-6.51-18.2-2.22-18.2-2.22,0,0,4.66-9.32-6.22-17.75-7.09-5.49-13.76-.79-13.76-.79,0,0,3.12-10.78-9.1-18.54-13.99-8.88-27.08,7.99-27.08,7.99l-9.37,11.33-38.85-29.98Z"/><path class="cls-1" d="m182.59,97.29l-42.62,42.33s-4.74,12.73,11.84,14.21c16.58,1.48,32.56-16.87,32.56-16.87,0,0,7.99-7.1,14.8-6.51,6.81.59,15.57,8.29,15.57,8.29l46.3,42.02,52.98-41.73-38.44-54.6-22.83,14.65s-7.7,3.55-13.91,3.85-36.66-9.77-36.66-9.77c0,0-5.97-1.48-10.11-1.48s-9.47,5.62-9.47,5.62Z"/><rect class="cls-1" x="76.58" y="174.4" width="42.33" height="21.61" rx="7.72" ry="7.72" transform="translate(-108.12 146.78) rotate(-51.6)"/><rect class="cls-1" x="98.78" y="193.33" width="42.33" height="21.61" rx="7.72" ry="7.72" transform="translate(-114.54 171.35) rotate(-51.6)"/><rect class="cls-1" x="121.57" y="212.25" width="42.33" height="21.61" rx="7.72" ry="7.72" transform="translate(-120.74 196.39) rotate(-51.6)"/><rect class="cls-1" x="143.66" y="231.18" width="42.33" height="21.61" rx="7.72" ry="7.72" transform="translate(-127.2 220.87) rotate(-51.6)"/></g><path class="cls-1" d="m174.27,92.32l1.83-1.81c2.48-2.6,8.8-8.35,15.96-8.35,5.11,0,11.58,1.57,12.3,1.75l.34.08.33.11c3.35,1.11,6.9,2.24,10.41,3.31l26.66-26.61-.02-35.61L225.13.11l-8.19-.07-8.26,8.26.63,25.4-16.48,16.48-17.71-.06-16.45-16.45.6-25.4-8.28-8.28-8.27.07-16.85,25.05.02,35.61,33,33v1.03c.9-.14,1.43-.22,1.47-.23l13.91-2.22Z"/><path class="cls-1" d="m212.75,257.17c-2.53,4.94-7.03,9.65-14.55,11.39-1.89.44-3.78.66-5.63.66-9.27,0-14.96-5.24-17.6-8.48l-1.01,1.27c-3.79,4.79-9.48,7.53-15.59,7.53-4.46,0-8.84-1.53-12.34-4.3-1.55-1.23-2.88-2.65-3.98-4.23l-16.19,16.16.02,35.61,16.94,25.06,8.19.07,8.26-8.26-.63-25.4,16.48-16.48,17.71.06,16.45,16.45-.6,25.4,8.28,8.28,8.27-.07,16.85-25.05-.02-35.61-20.77-20.77c-1.92.53-3.94.82-6.03.82-.86,0-1.7-.04-2.51-.12Z"/></svg>