<svg xmlns="http://www.w3.org/2000/svg" width="71" height="62" viewBox="0 0 71 62">
  <defs>
    <style>
      .cls-1 {
        fill: #fff;
        fill-rule: evenodd;
      }
    </style>
  </defs>
  <path class="cls-1" d="M44.35,37.02a1,1,0,0,0-1.058-.553L31.73,38.351a3.326,3.326,0,0,1,.97,2.632,3.528,3.528,0,0,1-.772,2.412h7.793a0.989,0.989,0,0,0,.549-0.165,11.881,11.881,0,0,0,3.773-3.75C44.72,38.122,44.572,37.482,44.35,37.02ZM30.428,38.958l-17.8.913a1.627,1.627,0,0,0-1.162,1.6,1.348,1.348,0,0,0,.862,1.275l17.689,0.258h0.262a4.454,4.454,0,0,0,.681-2.284A4.255,4.255,0,0,0,30.428,38.958ZM12.319,42.09a0.949,0.949,0,0,1,0-1.534A0.949,0.949,0,0,1,12.319,42.09Zm57.865-5.15a3.051,3.051,0,0,0-.247-0.851L53.542,38.871,44.536,53.456h-0.55l8.971-15.173,16.333-3.2a5.743,5.743,0,0,0-1.707-1.28s-8.428-5.393-9.881-6.134C54.463,26.02,53.2,26.02,53.2,26.02l-9.4,2.306a9.958,9.958,0,0,0-4.29,1.7s-5.72,4.96-6.5,5.743a17.084,17.084,0,0,0-1.424,1.665L41.7,35.956c0.876-1.327,1.32-1.844,1.441-2.018a1.911,1.911,0,0,1,1.95-.783A30.4,30.4,0,0,1,47.432,35.5a1.413,1.413,0,0,1,0,1.7s-5.331,8.614-6.371,10.05a1.321,1.321,0,0,1-2.21,0L36.511,44.9V44.543s-5.824-.411-5.837-0.313L43.141,55.735v1.175L29.76,44.391c-0.218,1.7-.4,3.261-0.4,3.773a7.3,7.3,0,0,0,1.04,3s8.71,7.961,10.791,9.4a6.93,6.93,0,0,0,4.03,1.305s19.761-5.482,23.271-6.526,2.47-2.871,2.47-2.871S70.443,39.028,70.183,36.94ZM28.246,8.7a0.857,0.857,0,0,0-.908-0.475L17.406,9.846a2.857,2.857,0,0,1,.833,2.261,3.031,3.031,0,0,1-.663,2.072H24.27a0.849,0.849,0,0,0,.471-0.142,10.207,10.207,0,0,0,3.241-3.222A2.2,2.2,0,0,0,28.246,8.7ZM16.287,10.367l-15.293.784a1.4,1.4,0,0,0-1,1.378,1.158,1.158,0,0,0,.741,1.1l15.195,0.222h0.225a3.826,3.826,0,0,0,.585-1.962A3.655,3.655,0,0,0,16.287,10.367ZM0.731,13.057A0.588,0.588,0,0,1,.4,12.4,0.588,0.588,0,0,1,.731,11.74a0.588,0.588,0,0,1,.335.659A0.588,0.588,0,0,1,.731,13.057ZM50.437,8.634A2.613,2.613,0,0,0,50.225,7.9L36.142,10.292,28.406,22.821H27.934L35.64,9.787,49.67,7.042a4.933,4.933,0,0,0-1.467-1.1s-7.259-4.6-8.488-5.269A6.516,6.516,0,0,0,36.7.113L27.766,1.234a8.553,8.553,0,0,0-3.685,1.458S19.167,6.952,18.5,7.624a14.648,14.648,0,0,0-1.223,1.43l8.7-1.266C26.723,6.648,27.1,6.2,27.208,6.055a1.641,1.641,0,0,1,1.675-.673A26.105,26.105,0,0,1,30.893,7.4a1.214,1.214,0,0,1,0,1.457s-4.579,7.4-5.472,8.633a1.135,1.135,0,0,1-1.9,0l-2.01-2.018V15.164s-5-.353-5.014-0.269l10.709,9.883v1.009L15.713,15.034c-0.188,1.462-.343,2.8-0.343,3.241a6.271,6.271,0,0,0,.893,2.579s7.482,6.839,9.269,8.072A5.953,5.953,0,0,0,29,30.047s16.974-4.709,19.99-5.606,2.122-2.466,2.122-2.466S50.66,10.427,50.437,8.634Z"/>
</svg>
