<svg xmlns="http://www.w3.org/2000/svg" width="70" height="56" viewBox="0 0 70 56">
  <defs>
    <style>
      .cls-1 {
        fill: #fff;
        fill-rule: evenodd;
      }
    </style>
  </defs>
  <path class="cls-1" d="M10.545,54.795c0-.032-0.038-0.344-0.081-0.855h-10c0.062,0.709.13,1.4,0.21,2.062ZM30.868,11.737c6.634-1.3,12.2-.624,16.586,1.958L32.977,22.834l18.513,9.824L70,42.481,69.218,21.466,68.432,0.452,56.53,7.965A27.7,27.7,0,0,0,54.172,6.13C47.35,1.409,38.873,0,28.964,1.94,3.106,7.007-1.008,37.04.469,53.939h10C9.994,48.314,8.318,16.156,30.868,11.737Z"/>
</svg>
