<?xml version="1.0" encoding="utf-8"?>
<!-- Generator: Adobe Illustrator 27.2.0, SVG Export Plug-In . SVG Version: 6.00 Build 0)  -->
<svg version="1.1" id="Layer_1" xmlns="http://www.w3.org/2000/svg" xmlns:xlink="http://www.w3.org/1999/xlink" x="0px" y="0px"
	 viewBox="0 0 90.3 87" style="enable-background:new 0 0 90.3 87;" xml:space="preserve">
<style type="text/css">
	.st0{fill:#FFFFFF;}
</style>
<path class="st0" d="M61.8,33.2l19.7-14.5l-20.6,2.9L72.6,7.8L55,13.5l8.8-11.8L45.5,11L34.8,1.7v10.6L26.9,4l3.4,18.5l-17.9-7.9
	l12.2,19H8.8l8.4,7l-6.1,11l8.5-4.7l0.1-4.6l14.6-8.9c0,0,2.4-7.7,5-12.4c2.9-5.1,5.9-8.3,5.9-8.3s3.5,3.6,5.7,7.8
	c2.4,4.7,4.7,12.6,4.7,12.6l15,8.5l0.2,3l8.3,1.2L61.8,33.2L61.8,33.2z"/>
<g>
	<path class="st0" d="M45.2,16.3c-1,0.7-2.7,3.2-4.5,6.9c-2.3,4.2-4.7,12.7-5.2,18.8v0.2h-0.1v43.6h0.1v1.5H55V82h-0.1v-5.2H55v-5.2
		h-0.1v-5.2H55v-5.2h-0.1v-5.2H55v-5.2h-0.1v-5.2H55v-3.3c-0.7-6.5-3-14.7-5.2-19.1C48,19.4,46.2,17,45.2,16.3L45.2,16.3z
		 M52.4,61.1H37.9v-5.2h14.5V61.1z M52.4,50.7H37.9v-5.2h14.5V50.7z"/>
	<polygon class="st0" points="21.1,84.2 33.5,84.2 33.7,68.6 21.1,77.1 	"/>
	<polygon class="st0" points="31.4,37.8 21.7,43.2 21.7,45 21.7,45.5 22.3,45.5 28.4,45.5 33.6,45.5 33.9,45.5 33.9,41.6 34.9,35.9 
		31.6,37.7 	"/>
	<polygon class="st0" points="59,45.5 66.7,45.5 68.7,45.5 68.7,44.7 68.7,43.2 63.7,40.4 60.2,38.5 59,37.8 55.5,35.9 56.5,41.6 
		56.5,45.5 	"/>
	<polygon class="st0" points="56.8,68.6 56.9,84.2 69.3,84.2 69.3,77.1 	"/>
</g>
</svg>
