<svg id="Layer_1" data-name="Layer 1" xmlns="http://www.w3.org/2000/svg" viewBox="0 0 90.26 86.98"><defs><style>.cls-1{fill:#fff;}</style></defs><polygon class="cls-1" points="32.06 86.98 45.06 86.98 58.05 86.98 58.05 81.76 32.06 81.76 32.06 86.98"/><rect class="cls-1" x="32.06" y="48.91" width="25.98" height="26.46"/><path class="cls-1" d="M58.05,42c-1-6.55-4-14.74-6.94-19.08-2.38-3.74-4.73-6.12-6-6.84-1.29.7-3.65,3.17-6,6.84-3.06,4.21-6.28,12.72-7,18.79v.83h26Z"/><path class="cls-1" d="M60.1,41.69l0,.14v30h0L76.5,84.37,64.65,62.67s11.67,1.9,13.4,2.3c-2-1.2-16.46-17.91-16.46-17.91l5.77-5.43L85.69,24,67,30.6l3.39-11.37L59.22,25.34V10.07L51.77,20.19c.36.52.73,1.06,1.09,1.62C56,26.49,59.12,35,60.1,41.69Z"/><path class="cls-1" d="M30.14,41.69v-.23c.71-6.28,4-15.1,7.31-19.69.66-1,1.33-2,2-2.83L30.71,6.67l2.37,19L22.9,20.93l2.38,8.82L4.57,24.66,23.24,38.91,4.57,40.61,23.24,54.53l-18.67,19,20.37-9.16L20.19,80.66l10-9.7V41.69Z"/></svg>