<svg id="Layer_1" data-name="Layer 1" xmlns="http://www.w3.org/2000/svg" width="128" height="128" viewBox="0 0 128 128">
  <defs>
    <style>
      .cls-1 {
        fill: #fff;
        fill-rule: evenodd;
      }
    </style>
  </defs>
  <path class="cls-1" d="M107.99268,73.8004,92.8086,56.38563a2.723,2.723,0,0,0,.6-1.61532A2.33835,2.33835,0,0,0,92.224,53.678a3.46148,3.46148,0,0,0-1.13842.73844l-1.64609-1.89224,5.569-5.53827a2.69222,2.69222,0,0,0,.00789-3.80736l-.00789-.00789h0l-.5846-.58459.66152-.64613.21537.21537,6.15363,6.15363a1.69226,1.69226,0,0,0-.0923-1.95378L95.82388,41.54h-.23077l.43076-.44614a.70768.70768,0,0,0,0-.98458h0a.70767.70767,0,0,0-1,0l-.44614.43076v-.23076L89.701,34.771a1.70762,1.70762,0,0,0-1.96916-.07692l6.15363,6.15363.21537.2-.64613.66151-.70767-.78458a2.58451,2.58451,0,0,0-3.5691,0h0l-5.246,5.21519-4.846-5.55365a6.723,6.723,0,0,1-.16923-.96919,31.29129,31.29129,0,0,0,2.81529-4.10755,3.39987,3.39987,0,0,0,0-3.93832h0l-.24614-.13845h0a3.47679,3.47679,0,0,0-3.9691,0,34.1364,34.1364,0,0,0-4.13831,2.78451,5.49235,5.49235,0,0,1-.98458-.16922l-5.58442-4.79983,5.26135-5.2152a2.523,2.523,0,0,0,.01649-3.568l-.01649-.01648h0l-.69228-.6769.64612-.64613.21538.2L78.39372,25.479a1.69225,1.69225,0,0,0,0-1.93839l-5.53826-4.8306h-.24615l.44614-.43075a.70767.70767,0,0,0,0-1h0a.70767.70767,0,0,0-1,0l-.44614.44614v-.49229l-5.03058-5.53826a1.69224,1.69224,0,0,0-2.01531,0l6.15363,6.15362.2.21538-.64613.64613-.58459-.56921a2.73837,2.73837,0,0,0-3.8614,0h0l-5.569,5.53827-1.8461-1.75379a3.95377,3.95377,0,0,0,.73844-1.123,2.44611,2.44611,0,0,0-1.10766-1.18457,2.723,2.723,0,0,0-1.63071.6L38.87205,5.1413s-2.69221-2.07685-5.169-.63074S30.14929,8.6181,31.78,11.91029L48.70248,36.80172l7.3382,9.23044a8.015,8.015,0,0,1-.98458,5.75364s-6.769,7.59973-14.64564,17.72245L30.4262,60.17012a5.10746,5.10746,0,0,0-2.78451-1.3538A4.23062,4.23062,0,0,0,23.81105,60.124a4.50751,4.50751,0,0,0-1.30764,2.73837,4.27678,4.27678,0,0,0,.93842,3.07681l8.492,10.69193,3.07682-.87689-4.29216,5.046.35383.52306.16923.15384.52306.35383,5.10751-4.21523-.8769,3.07681,10.76885,8.44585a4.35369,4.35369,0,0,0,3.07682.93843,4.61527,4.61527,0,0,0,2.75375-1.30764,4.19988,4.19988,0,0,0,1.323-3.81525,5.21518,5.21518,0,0,0-1.38457-2.76913l-9.39967-9.87657C53.37923,64.493,60.9482,57.72405,60.9482,57.72405a8.24588,8.24588,0,0,1,5.81517-.9692l9.35351,7.2459,25.06066,16.83017c3.323,1.5384,5.99979.55383,7.44588-1.90763S107.99268,73.8004,107.99268,73.8004ZM62.502,91.52285H56.87142l13.35337-16.384,14.98408,16.384H78.70141v10.38424s1.4461,11.12269-5.5998,16.67633c-15.38407,12.18418-27.399,0-27.399,0s10.26118,1.81532,15.21485-4.19986c2.123-2.56913,1.66148-11.5842,1.66148-11.5842Z"/>
</svg>
