<?xml version="1.0" encoding="UTF-8"?><svg id="Layer_1" xmlns="http://www.w3.org/2000/svg" viewBox="0 0 90.26 86.98"><defs><style>.cls-1{fill:#fff;}</style></defs><polygon class="cls-1" points="33.98 83.44 34.09 73.28 23.19 77.13 23.19 83.44 33.98 83.44"/><polygon class="cls-1" points="67.07 77.13 56.17 73.28 56.28 83.44 67.07 83.44 67.07 77.13"/><polygon class="cls-1" points="36.67 85.1 44.03 85.1 45.13 85.1 53.59 85.1 53.59 79.88 36.67 79.88 36.67 85.1"/><path class="cls-1" d="m36.67,47.2v27.47h16.92v-29.37c-.63-5.8-2.61-13.04-4.52-16.88-.08-.17-.16-.44-.24-.61V4.55h-7.26v23.25c-.12.24-.24.36-.36.61-1.99,3.72-4.09,11.25-4.54,16.62v2.17Z"/><polygon class="cls-1" points="31.55 23.06 18.88 32.11 39.68 27.18 39.68 10.01 39.65 10.01 39.65 4.63 37.21 3.06 37.38 9.91 28.61 7 32.46 15.59 15.04 15.59 31.55 23.06"/><polygon class="cls-1" points="56.9 22.83 75.22 16.5 57.35 15.14 65.04 2.92 50.58 8.56 50.58 26.86 75.22 32.11 56.9 22.83"/></svg>