<svg id="Layer_1" data-name="Layer 1" xmlns="http://www.w3.org/2000/svg" width="128" height="128" viewBox="0 0 128 128">
  <defs>
    <style>
      .cls-1 {
        fill: #fff;
        fill-rule: evenodd;
      }
    </style>
  </defs>
  <path class="cls-1" d="M117.89667,61.41667h-3.33333A51.38333,51.38333,0,0,0,66.03,12.66667V4H60.88v8.66667a51.4,51.4,0,0,0-49,48.76666H3.44667V66.6h8.45A51.35,51.35,0,0,0,60.88,115.28333V124h5.15v-8.73333a51.45,51.45,0,0,0,48.48333-48.68334h8.95V61.41667ZM106.03,66.58333h3.33333A46.15,46.15,0,0,1,66.03,110.05v-8.58333H60.88v8.61667a46.15,46.15,0,0,1-43.76667-43.5H26.03V61.41667H17.09667A46.18333,46.18333,0,0,1,60.88,17.86667v8.66666h5.15V17.91667a46.2,46.2,0,0,1,43.33333,43.5H101.03v5.16666Z"/>
  <path class="cls-1" d="M91.94667,77.18333l-3.9-23.93333c-.63334-1.51667-3.7-1.96667-5.61667-2.1v-3.7a.86665.86665,0,0,0-.83333-.88333V44.9a3.0167,3.0167,0,0,0,1.45-2.43334c0-1.83333-2.01667-3.33333-4.51667-3.33333s-4.51666,1.48333-4.51666,3.33333a2.93332,2.93332,0,0,0,1.45,2.43334v1.66666a.88333.88333,0,0,0-.85.88333v4.2l-.76667.41667h-7.05a2.63336,2.63336,0,0,0-1.9-.86667h-2.2a2.66669,2.66669,0,0,0-1.9.86667H53.83L53.04667,51.65v-4.2a.9.9,0,0,0-.85-.9V44.88333A2.98335,2.98335,0,0,0,53.66334,42.45c0-1.81667-2.03334-3.33333-4.51667-3.33333S44.61334,40.6,44.61334,42.45A2.98335,2.98335,0,0,0,46.03,44.91667v1.66666a.88333.88333,0,0,0-.85.88333v3.7c-1.91667.13333-5,.58333-5.61667,2.1l-3.85,23.91667A6.9,6.9,0,0,0,32.38,82.7c0,4.58334,5.5,8.33334,12.66667,8.33334S58.38,87.3,58.38,82.7a6.66671,6.66671,0,0,0-2.66666-5V69.85H60.43a2.56667,2.56667,0,0,0,2.35,1.53333h2.13333A2.53336,2.53336,0,0,0,67.24667,69.85H71.98v7.78333a6.56666,6.56666,0,0,0-2.66666,5c0,4.58334,6.15,8.33334,13.33333,8.33334s12.66666-3.73334,12.66666-8.33334A6.96664,6.96664,0,0,0,91.94667,77.18333Zm-46.9,11.15C40.18,88.33333,36.23,86.25,36.23,83.65S40.18,79,45.04667,79s8.81666,2.1,8.81666,4.7S49.91334,88.33333,45.04667,88.33333Zm37.65,0c-4.86667,0-8.8-2.08333-8.8-4.66666S77.69667,79,82.69667,79s8.81667,2.1,8.81667,4.68334S87.48,88.33333,82.69667,88.33333Z"/>
</svg>
