<svg id="Layer_1" data-name="Layer 1" xmlns="http://www.w3.org/2000/svg" width="128" height="128" viewBox="0 0 128 128">
  <defs>
    <style>
      .cls-1 {
        fill: #fff;
      }
    </style>
  </defs>
  <path class="cls-1" d="M107.90046,74.88007l-7.58338-4.25945a38.6447,38.6447,0,0,0-.65527-27.75205l8.23866-4.62757a4.22623,4.22623,0,0,0,1.61507-5.75443l0,0L108.24189,30.219a4.22623,4.22623,0,0,0-5.7544-1.61517l-.00007,0-8.4744,4.76A38.52494,38.52494,0,0,0,69.52659,19.41446V9.31331A4.22622,4.22622,0,0,0,65.3005,5.087H62.69962a4.22622,4.22622,0,0,0-4.22623,4.22622V19.41452A38.5251,38.5251,0,0,0,33.987,33.36391l-8.4744-4.76A4.22629,4.22629,0,0,0,19.75813,30.219l-1.27362,2.26756a4.22628,4.22628,0,0,0,1.61513,5.75447l8.23866,4.62757A38.64473,38.64473,0,0,0,27.683,70.62068l-7.58339,4.25945a4.22623,4.22623,0,0,0-1.61517,5.7544l0,.00007,1.27362,2.26757a4.22622,4.22622,0,0,0,5.75443,1.61506l0,0,7.36464-4.13659A38.57264,38.57264,0,0,0,56.64955,95.46227v4.00339a6.52894,6.52894,0,0,0,5.84642,6.47312l.91829,2.52786a6.519,6.519,0,0,0,.73408,8.36091l4.16906,4.1689a6.54343,6.54343,0,0,0,9.2538.00016l1.14236-1.14227.00008-.00008a6.55625,6.55625,0,0,0-.00008-9.254l-4.169-4.16881a6.50061,6.50061,0,0,0-4.627-1.91669c-.13823,0-.27024.03127-.407.03977l-.148-.40713a6.51626,6.51626,0,0,0,1.98739-4.68177V95.46234A38.57285,38.57285,0,0,0,95.12278,80.38052l7.36462,4.13659a4.22622,4.22622,0,0,0,5.75445-1.615l0,0,1.27363-2.26756A4.22623,4.22623,0,0,0,107.90046,74.88007ZM75.82672,113.48728a2.46371,2.46371,0,0,1,0,3.48022l-1.14236,1.14219a2.46068,2.46068,0,0,1-3.47993.00011l-.0002-.00019-4.16907-4.16906a2.45519,2.45519,0,0,1-.50577-.74384,3.50131,3.50131,0,0,0,4.53219-4.30526,2.45085,2.45085,0,0,1,.59607.42677ZM67.26859,99.46566a2.41452,2.41452,0,0,1-.03234.31984,3.49954,3.49954,0,0,0-5.56,1.60378,2.44734,2.44734,0,0,1-.94524-1.92362V96.02252c1.07866.09062,2.16687.14779,3.269.14779,1.102,0,2.19-.05725,3.26864-.14779Z"/>
</svg>
