<svg id="Layer_1" data-name="Layer 1" xmlns="http://www.w3.org/2000/svg" width="128" height="128" viewBox="0 0 128 128">
  <defs>
    <style>
      .cls-1, .cls-2 {
        fill: #fff;
      }

      .cls-2 {
        fill-rule: evenodd;
      }
    </style>
  </defs>
  <rect class="cls-1" x="61.39358" y="101.75929" width="5.19844" height="22.70898"/>
  <rect class="cls-1" x="61.39358" y="3.52174" width="5.19844" height="22.72337"/>
  <path class="cls-2" d="M113.39238,61.39578h-6.696l-3.384-20.765c-1.008-2.39042-5.76-3.12482-8.85607-3.32642V31.458a1.44,1.44,0,0,0-1.3248-1.44v-2.592a4.68,4.68,0,0,0,2.304-3.744c0-2.88-3.18242-5.21284-7.12805-5.21284s-7.11366,2.33282-7.11366,5.21284a4.68,4.68,0,0,0,2.304,3.816v2.592a1.44,1.44,0,0,0-1.3536,1.44V38.082l-1.224.67681H69.832A4.04638,4.04638,0,0,0,66.88,37.4196H63.4816a4.032,4.032,0,0,0-2.99523,1.35361H49.39828l-1.2384-.69121V31.458a1.44,1.44,0,0,0-1.35361-1.44v-2.592a4.68,4.68,0,0,0,2.31842-3.744c0-2.88-3.18243-5.21284-7.20006-5.21284S34.883,20.80187,34.883,23.68189a4.68,4.68,0,0,0,2.304,3.816v2.592a1.44,1.44,0,0,0-1.33921,1.44V37.362c-3.00963.2016-7.84806.936-8.84167,3.32642L23.67969,61.39578H3.51954v5.21284h19.253L20.79967,78.31591A10.98728,10.98728,0,0,0,15.52923,86.956c0,7.20006,8.64007,13.1041,19.973,13.1041s21.03856-5.81764,21.03856-13.0177a10.39684,10.39684,0,0,0-4.19043-7.96325V66.78142h7.43046a4.07522,4.07522,0,0,0,3.70083,2.41922H66.88a4.08964,4.08964,0,0,0,3.70083-2.41922h7.38726V79.05031a10.38252,10.38252,0,0,0-4.20484,7.99206c0,7.20006,9.69128,13.1041,20.99536,13.1041s19.973-5.904,19.973-13.1041a11.03048,11.03048,0,0,0-5.27044-8.64006L107.54593,66.695h16.93453V61.39578ZM35.63179,95.95605c-7.67526,0-13.89611-3.312-13.89611-7.37286s6.22085-7.38726,13.89611-7.38726,13.8817,3.312,13.8817,7.38726-6.29285,7.32966-13.95371,7.32966Zm73.00855-7.47367c0,4.06084-6.22085,7.37286-13.89611,7.37286s-13.8673-3.24-13.8673-7.37286,6.22085-7.38725,13.8817-7.38725S108.64034,84.46475,108.64034,88.48238Z"/>
</svg>
