<svg xmlns="http://www.w3.org/2000/svg" width="80" height="79" viewBox="0 0 80 79">
  <defs>
    <style>
      .cls-1 {
        fill: #fff;
        fill-rule: evenodd;
      }
    </style>
  </defs>
  <path class="cls-1" d="M79.929,23.688a5.519,5.519,0,0,0-1.844-3.076A5.648,5.648,0,0,0,74.958,18.8a4.336,4.336,0,0,0-1.6.107,3.868,3.868,0,0,0-1.76,1L58.33,32.954l7.208,7.09,13.269-13.05a3.773,3.773,0,0,0,1.014-1.73A4.131,4.131,0,0,0,79.929,23.688ZM56.248,35L39.6,51.38a62.194,62.194,0,0,0-5.612,7.842l-0.911,1.492L32.6,60.248a3.041,3.041,0,0,0-4.25,0l-8.54,8.4,9.541,9.384,8.54-8.4a2.922,2.922,0,0,0,0-4.18h0l-0.576-.567,1.517-.9a63.261,63.261,0,0,0,7.973-5.52L63.456,42.091ZM35.355,68.362L29,75.091l-2.228-2.312L35.492,64Zm23.084-56.1a4.564,4.564,0,0,0-1.525-2.544,4.672,4.672,0,0,0-2.587-1.5A3.586,3.586,0,0,0,53,8.308a3.2,3.2,0,0,0-1.455.825L40.573,19.927l5.962,5.864L57.51,15a3.122,3.122,0,0,0,.839-1.431A3.416,3.416,0,0,0,58.439,12.264ZM38.851,21.621L25.077,35.169a51.446,51.446,0,0,0-4.642,6.486l-0.754,1.234L19.29,42.5a2.515,2.515,0,0,0-3.515,0L8.711,49.451,16.6,57.213l7.064-6.947a2.417,2.417,0,0,0,0-3.458h0l-0.477-.469,1.255-.741a52.342,52.342,0,0,0,6.595-4.565L44.813,27.486ZM21.57,49.215l-5.259,5.566-1.843-1.913,7.215-7.263ZM37.587,3.1a3.45,3.45,0,0,0-1.152-1.923A3.531,3.531,0,0,0,34.479.04a2.712,2.712,0,0,0-1,.067,2.417,2.417,0,0,0-1.1.623L24.084,8.889l4.506,4.432,8.295-8.158a2.358,2.358,0,0,0,.634-1.082A2.58,2.58,0,0,0,37.587,3.1Zm-14.8,7.073L12.372,20.408a38.906,38.906,0,0,0-3.508,4.9l-0.569.933L8,25.952a1.9,1.9,0,0,0-2.657,0L0,31.2l5.964,5.866,5.339-5.251a1.826,1.826,0,0,0,0-2.613h0l-0.36-.354,0.948-.56a39.554,39.554,0,0,0,4.984-3.451L27.289,14.6ZM9.722,31.024L5.747,35.231,4.354,33.785,9.807,28.3Z"/>
</svg>
