<svg id="Layer_1" data-name="Layer 1" xmlns="http://www.w3.org/2000/svg" viewBox="0 0 90.26 86.98"><defs><style>.cls-1{fill:#fff;}</style></defs><polygon class="cls-1" points="32.26 86.9 45.25 86.9 58.24 86.9 58.24 81.69 32.26 81.69 32.26 86.9"/><rect class="cls-1" x="32.26" y="48.83" width="25.98" height="14.01"/><rect class="cls-1" x="32.26" y="70.08" width="25.98" height="5.22"/><path class="cls-1" d="M58.24,41.9c-1-6.55-4-14.74-6.94-19.07-2.37-3.75-4.72-6.12-6-6.85-1.28.7-3.65,3.18-6,6.85-3.06,4.2-6.28,12.71-7,18.78v.83h26Z"/><path class="cls-1" d="M60.3,41.61l0,.15v30l16,11.85-11.46-21s11.68,1.9,13.41,2.3C76.29,63.69,61.79,47,61.79,47l5.77-5.43L85.88,23.91,67.22,30.52l3.39-11.37-11.2,6.11V10L52,20.11c.37.53.73,1.06,1.09,1.62C56.2,26.42,59.32,35,60.3,41.61Z"/><path class="cls-1" d="M30.33,41.61V41.5l0-.12c.71-6.28,4-15.09,7.3-19.68.66-1,1.34-2,2-2.84L30.9,6.6l2.38,19L23.1,20.85l2.37,8.82L4.77,24.58,23.44,38.84,4.77,40.53,23.44,54.45l-18.67,19,20.36-9.17L20.38,80.58l10-9.7V41.61Z"/></svg>