<svg id="Layer_1" data-name="Layer 1" xmlns="http://www.w3.org/2000/svg" width="128" height="128" viewBox="0 0 128 128">
  <defs>
    <style>
      .cls-1 {
        fill: #fff;
      }
    </style>
  </defs>
  <g>
    <path class="cls-1" d="M78.56823,49.57244C67.72627,38.63361,59.33388,25.099,58.3243,14.26344L45.5901,26.88461c-1.38541,2.49754-.8048,7.2121,1.67016,12.99873,3.29,7.69189,9.41568,16.28044,17.24995,24.18358,7.83294,7.90379,16.36653,14.10631,24.02862,17.46458C93.206,83.57616,97.1605,84.35469,99.83858,83.864L113.71713,70.1085C103.53922,69.10274,90.32327,61.4327,78.56823,49.57244Z"/>
    <path class="cls-1" d="M85.91774,87.51211c-8.39716-3.68072-17.6473-10.37462-26.0458-18.848C51.47346,60.19021,44.863,50.88109,41.25645,42.45147a36.87236,36.87236,0,0,1-2.617-8.67772l-17.539,17.3836C16.89772,57.31884,22.54561,73.98483,38.24063,89.82c14.79306,14.92412,30.39553,20.92255,37.33363,18.09339L93.61592,90.03158A38.37755,38.37755,0,0,1,85.91774,87.51211Z"/>
    <path class="cls-1" d="M33.27117,94.7444C21.26481,82.63108,14.062,69.55818,12.89645,59.28846L8.7171,63.43091A11.22361,11.22361,0,0,0,6.87475,64.8976c-8.17134,8.09884-2.31982,27.25165,13.06992,42.77888s34.48961,21.54911,42.66082,13.45029a11.23349,11.23349,0,0,0,1.48309-1.82951l3.96928-3.93411C57.876,113.93926,45.09081,106.66922,33.27117,94.7444Z"/>
    <path class="cls-1" d="M106.26878,22.11742C94.62982,10.37429,81.67015,3.27528,73.25543,3.27618a8.94869,8.94869,0,0,0-6.524,2.29507c-6.446,6.389.804,24.15577,16.19369,39.683,11.639,11.743,24.59852,18.84119,33.0132,18.84119a8.94729,8.94729,0,0,0,6.524-2.295C128.90852,55.41131,121.65836,37.64465,106.26878,22.11742Zm-4.02192,19.28674a2.45616,2.45616,0,0,1-1.791.63012c-2.31021,0-5.86792-1.94871-9.06322-5.17256-4.22507-4.26273-6.21543-9.14028-4.44583-10.89431a2.45669,2.45669,0,0,1,1.791-.63c2.31022-.00024,5.86808,1.94863,9.06337,5.1725C102.02617,34.7726,104.0165,39.65014,102.24686,41.40416Zm13.884,14.00806a5.64488,5.64488,0,0,1-1.8705,1.18449c1.75477-5.31628-4.34411-16.85626-14.94586-27.55272-10.6438-10.73888-22.176-16.94432-27.47953-15.16708a5.66193,5.66193,0,0,1,1.22811-1.91759c4.98136-4.93739,18.66081.78733,30.55365,12.78657C115.50947,36.74508,121.11233,50.47492,116.13083,55.41222Z"/>
  </g>
</svg>
