<?xml version="1.0" encoding="UTF-8"?><svg id="Layer_1" xmlns="http://www.w3.org/2000/svg" viewBox="0 0 90.26 86.98"><defs><style>.cls-1{fill:#fff;}</style></defs><g><path class="cls-1" d="m61.3,66.01l-5.87.03v13.4l17.93,6.75-13.4-12.93s11.67,1.9,13.4,2.3c-1.1-.68-12.06-9.55-12.06-9.55Z"/><g><path class="cls-1" d="m59.05,55.67l3.62-3.46,18.33-17.65-24.46,5.43,2.47-9.57-7.2,3.64-.46-9.2-6.04,8.01c.37.52,2.12,2.56,2.47,3.13,3.15,4.68,4.88,10.75,6.91,17l4.36,2.67Z"/><path class="cls-1" d="m32.96,53.85l.53-1.32c1.89-5.38,4.27-11.83,7.59-16.42.66-1.02,1.79-2.39,2.46-3.26l-7.63-10.12-.3,13.3-5.87-.99,1.3,6.34-22.97-2.91,19.41,18.19,5.48-2.8Z"/><polygon class="cls-1" points="29.23 65.8 8.08 80.06 24.19 77 17.83 86.2 32.95 80.06 33.09 65.8 29.23 65.8"/></g></g><g><path class="cls-1" d="m49.07,42.05c-1.78-3.74-3.53-6.12-4.53-6.85-.96.7-2.73,3.18-4.51,6.85-2.29,4.21-4.7,12.72-5.21,18.78v26.14h19.45v-25.9h0c-.73-6.54-3-14.7-5.19-19.03Zm2.74,27.55h-14.53v-5.22h14.53v5.22Z"/><polygon class="cls-1" points="30.71 56.75 21.03 62.08 21.03 63.93 21.03 64.39 21.63 64.39 27.75 64.39 32.89 64.39 33.26 64.39 33.26 60.52 34.24 54.8 30.95 56.61 30.71 56.75"/><polygon class="cls-1" points="58.3 64.39 65.99 64.39 68.05 64.39 68.05 63.62 68.05 62.08 63 59.3 59.57 57.41 58.29 56.7 54.84 54.8 55.82 60.52 55.82 64.39 58.3 64.39"/></g><g><circle class="cls-1" cx="44.25" cy="18.47" r="6.4"/><g><path class="cls-1" d="m52.58,9.35c4.99,4.99,5,13.1.04,18.1l2.93,2.93c6.59-6.63,6.58-17.35-.04-23.97h0s-2.93,2.93-2.93,2.93h0Z"/><path class="cls-1" d="m59,2.93c8.52,8.52,8.52,22.39,0,30.91h0l2.93,2.93h0c10.15-10.15,10.16-26.62,0-36.77h0s-2.93,2.93-2.93,2.93h0Z"/><path class="cls-1" d="m34.44,9.35s.03-.02.04-.04l-2.93-2.93s-.03.03-.04.04c-6.63,6.63-6.63,17.38,0,24.01l2.93-2.93c-5-5-5-13.14,0-18.14Z"/><path class="cls-1" d="m25.16,36.77l2.93-2.93c-8.52-8.52-8.52-22.39,0-30.91L25.16,0c-10.15,10.15-10.16,26.62,0,36.77Z"/></g></g></svg>