<svg xmlns="http://www.w3.org/2000/svg" width="95" height="48" viewBox="0 0 95 48">
  <defs>
    <style>
      .cls-1 {
        fill: #fff;
        fill-rule: evenodd;
      }
    </style>
  </defs>
  <path class="cls-1" d="M49.637,21.417a1,1,0,0,0-1.062-.551L35.632,22.744a3.307,3.307,0,0,1,.974,2.625,3.506,3.506,0,0,1-.775,2.405h9.16a1,1,0,0,0,.551-0.165,11.89,11.89,0,0,0,3.788-3.74C50.009,22.516,49.86,21.877,49.637,21.417ZM34.324,23.35l-20.876.911a1.626,1.626,0,0,0-1.167,1.6,1.345,1.345,0,0,0,.866,1.272l20.762,0.258h0.263a4.42,4.42,0,0,0,.683-2.278A4.221,4.221,0,0,0,34.324,23.35ZM13.14,26.473a0.682,0.682,0,0,1-.392-0.765,0.682,0.682,0,0,1,.392-0.765,0.682,0.682,0,0,1,.392.765A0.682,0.682,0,0,1,13.14,26.473ZM41.75,15.595L28.806,17.473A3.307,3.307,0,0,1,29.78,20.1,3.505,3.505,0,0,1,29,22.5h4.552l1.006-.759,6.532-.891c0.2,0,2.4-.417,3.214-1.658C46.4,16.009,42.188,15.525,41.75,15.595ZM27.5,18.078l-20.876.911a1.626,1.626,0,0,0-1.167,1.6,1.345,1.345,0,0,0,.866,1.272l20.761,0.258h0.263a4.419,4.419,0,0,0,.683-2.278A4.221,4.221,0,0,0,27.5,18.078ZM6.315,21.2a0.682,0.682,0,0,1-.392-0.765,0.682,0.682,0,0,1,.392-0.765,0.682,0.682,0,0,1,.392.765A0.682,0.682,0,0,1,6.315,21.2ZM36.3,9.862L23.351,11.741a3.307,3.307,0,0,1,.974,2.625,3.506,3.506,0,0,1-.775,2.4H28.1l1.006-.758,6.532-.891c0.2,0,2.4-.417,3.214-1.658C40.947,10.277,36.733,9.793,36.3,9.862ZM22.044,12.346l-20.876.911A1.626,1.626,0,0,0,0,14.856a1.345,1.345,0,0,0,.866,1.272l20.761,0.258h0.263a4.42,4.42,0,0,0,.683-2.278A4.221,4.221,0,0,0,22.044,12.346ZM0.86,15.469A0.682,0.682,0,0,1,.468,14.7,0.682,0.682,0,0,1,.86,13.94a0.682,0.682,0,0,1,.392.765A0.682,0.682,0,0,1,.86,15.469Zm94.05,3.639-1.5-1.1L77.739,21.467l-0.914-.63,15.492-3.626-0.343-.251V13.69l-29.5,4.735-1.293.911L51.9,35.215V34.044l8.615-15.228a5.485,5.485,0,0,1,1.827-1.3c0.389,0,19.472-3.167,29.228-4.79-2.3-1.906-13.911-11.5-15.85-12.553-2.153-1.171-6.657,0-6.657,0S41.974,3.307,37.451,3.962c-5.781.839-6.633,4.056-7.5,5.632L33.7,9.07a4.724,4.724,0,0,1,2.273-1.731c1.371-.39,14.684,9.176,16.251,10.347a3.69,3.69,0,0,1,1.566,2.733s-4.7,7.224-6.069,8.785a3.824,3.824,0,0,1-2.545,1.562l-3.4-2.006-5.258-.009L48.377,39.293v1.171L34.959,28.578l-7.115-.05c5.535,5.027,19.1,17.365,19.881,18.3,0.979,1.171,3.524,0,3.524,0l29.658-7.709,0.369-3.871L52.554,41.181V39.749l23.408-5.108V24.314h1.305V34.356L89.5,31.686c1.91-.557,3.578-1.073,4.218-1.347C95,29.791,94.91,27.7,94.91,27.7v-8.59Z"/>
</svg>
