<?xml version="1.0" encoding="UTF-8"?><svg id="Layer_1" xmlns="http://www.w3.org/2000/svg" viewBox="0 0 90.26 86.98"><defs><style>.cls-1{fill:#fff;}</style></defs><polygon class="cls-1" points="33.87 83.05 33.98 72.89 23.08 76.74 23.08 83.05 33.87 83.05"/><polygon class="cls-1" points="66.97 83.05 66.97 76.74 56.06 72.89 56.18 83.05 66.97 83.05"/><polygon class="cls-1" points="36.57 84.71 43.92 84.71 45.02 84.71 53.48 84.71 53.48 79.49 36.57 79.49 36.57 84.71"/><rect class="cls-1" x="36.57" y="69.05" width="16.92" height="5.22"/><path class="cls-1" d="m36.57,46.8v17.03h16.92v-18.94c-.63-5.8-2.61-13.04-4.52-16.88-.08-.17-.16-.44-.24-.61V4.16h-7.26v23.25c-.12.24-.24.36-.36.61-1.99,3.72-4.09,11.25-4.54,16.62v2.17Z"/><polygon class="cls-1" points="18.78 31.72 39.57 26.79 39.57 9.62 39.55 9.62 39.55 4.24 37.11 2.66 37.27 9.52 28.51 6.61 32.35 15.2 14.93 15.2 31.45 22.67 18.78 31.72"/><polygon class="cls-1" points="50.48 26.47 75.12 31.72 56.79 22.44 75.12 16.11 57.24 14.75 64.94 2.53 50.48 8.17 50.48 26.47"/></svg>