<svg id="Layer_1" data-name="Layer 1" xmlns="http://www.w3.org/2000/svg" width="128" height="128" viewBox="0 0 128 128">
  <defs>
    <style>
      .cls-1 {
        fill: #fff;
        fill-rule: evenodd;
      }
    </style>
  </defs>
  <path class="cls-1" d="M106.89623,72.78039,78.72281,42.61789l5.23686-7.11717c.8236-1.42965-.18647-3.10793-1.554-4.83283l.54388-.55943,9.49474,9.19948a1.67827,1.67827,0,0,0,1.02735-2.13958L93.47,37.16347a1.70926,1.70926,0,0,0-.69928-.8236,79.12786,79.12786,0,0,0-8.62452-6.68206l.21756-.21756a.5128.5128,0,0,0,0-.69928h0l-.575-.59051.2331-.23309a.2797.2797,0,0,0,0-.38849h0a.2797.2797,0,0,0-.38849,0h0l-.2331.23309-.59051-.575a.48173.48173,0,0,0-.68126-.00248L82.126,27.187h0l-.21756.21756a77.97763,77.97763,0,0,0-6.66652-8.64006,1.6472,1.6472,0,0,0-2.23771-.59051,1.72492,1.72492,0,0,0-.71482.87022l9.13733,9.54136-.54389.54389c-1.70936-1.383-3.38765-2.39311-4.81729-1.554l-7.07055,5.268L38.91017,4.42139C36.36167,1.8418,29.15126,11.83381,29.229,14.056a2.144,2.144,0,0,0,.21756.37295L31.218,16.89974,53.75056,47.83922h0a193.17393,193.17393,0,0,0-14.11,20.20157L26.292,61.15672l-.69929-.373a6.46521,6.46521,0,0,0-.7459.34188,6.49555,6.49555,0,0,0-2.09785,2.06678,23.30877,23.30877,0,0,0-1.86476,3.10793l7.98739,10.73791,4.87945-.606-2.735,3.10794.59051.55943.55943.59051,3.10793-2.735-.55943,4.91053,10.6913,8.04955A22.15984,22.15984,0,0,0,48.40491,89.066a6.49553,6.49553,0,0,0,2.05124-2.1134,5.6557,5.6557,0,0,0,.34187-.76145l-.373-.69928L43.55654,72.06557A196.93788,196.93788,0,0,0,63.66487,57.87785h0L94.43341,80.51914l2.43973,1.77152a1.91092,1.91092,0,0,0,.38849.21756C99.53043,82.64808,109.46028,75.34444,106.89623,72.78039ZM65.38977,91.1949H59.76441l13.3175-16.54975L88.03107,91.1949h-6.48v10.47373s1.44519,11.25072-5.59428,16.86054c-15.41535,12.30742-27.33428,0-27.33428,0s10.2251,1.81814,15.16672-4.24233c2.11339-2.61065,1.70936-11.70136,1.70936-11.70136Z"/>
</svg>
