<svg id="Layer_1" data-name="Layer 1" xmlns="http://www.w3.org/2000/svg" viewBox="0 0 90.26 86.98"><defs><style>.cls-1{fill:#fff;}</style></defs><polygon class="cls-1" points="31.78 86.98 44.77 86.98 57.76 86.98 57.76 68.78 31.78 68.78 31.78 86.98"/><path class="cls-1" d="M57.76,42c-1-6.55-4-14.74-6.94-19.08-2.37-3.74-4.72-6.12-6-6.84-1.28.7-3.64,3.17-6,6.84-3.06,4.21-6.28,12.72-7,18.79V54.5h26Z"/><path class="cls-1" d="M56.9,23.79l18.32-6.33L57.35,16.1,65,3.88,50.33,11.12V3.88l-6.1,5.66L37.21,5l2.94,6.56L28.61,8l3.85,8.6H15L31.55,24,18.88,33.07,33,30.93a39.53,39.53,0,0,1,4.48-8.82c2.36-3.64,4.93-6.5,6.71-7.47l1-.52,1,.52c1.89,1,4.48,3.91,6.77,7.51a43.53,43.53,0,0,1,4.23,8.67l18.13,2.25Z"/></svg>