<?xml version="1.0" encoding="UTF-8"?>
<svg id="Layer_1" data-name="Layer 1" xmlns="http://www.w3.org/2000/svg" width="26" height="71" viewBox="0 0 26 71">
  <defs>
    <style>
      .cls-1 {
        fill: #fff;
        fill-rule: evenodd;
      }
    </style>
  </defs>
  <polygon class="cls-1" points="3 47 3 50 23 50 23 47 13.01 47 3 47"/>
  <polygon class="cls-1" points="13.99 53 3 53 3 56 23 56 23 53 13.99 53"/>
  <path class="cls-1" d="m3,44h20v-1h3v-6.89l-3-4.15c-.16-1.07-.97-7.31-.97-7.31-.31-3.11-1.33-6.12-2.97-8.78h0c-2.38-3.75-4.72-6.13-6.05-6.86-1.28.7-3.65,3.18-6.03,6.86-1.74,2.63-2.82,5.64-3.15,8.78,0,0-.72,6.07-.83,7.02l-3,4.45v6.89h3v1Z"/>
  <polygon class="cls-1" points="14.01 59 2.94 59 0 61.89 0 71 26 71 26 61.89 23.06 59 14.01 59"/>
</svg>