<?xml version="1.0" encoding="UTF-8"?>
<svg id="Layer_1" data-name="Layer 1" xmlns="http://www.w3.org/2000/svg" width="90.26" height="86.98" viewBox="0 0 90.26 86.98">
  <defs>
    <style>
      .cls-1, .cls-2 {
        fill: #fff;
      }

      .cls-2 {
        fill-rule: evenodd;
      }
    </style>
  </defs>
  <path class="cls-1" d="m61.76,35.8l19.68-14.48-20.59,2.94,11.77-13.8-17.65,5.66,8.82-11.77-18.33,9.28-10.63-9.28v10.63l-7.92-8.37,3.39,18.55-17.87-7.92,12.22,19.01h-15.84l14.03,6.79-11.77,11.31,19.06-7.33v-5.5c.72-6.28,4-15.1,7.32-19.69,2.36-3.64,4.93-6.5,6.71-7.47l.96-.52.96.52c1.89,1.03,4.48,3.91,6.77,7.51,3.15,4.68,6.27,13.22,7.25,19.88l.02.14v4.03l18.83,2.77-17.2-12.9h.01Z"/>
  <polygon class="cls-2" points="47.4 76.99 42.67 76.99 36.34 54.47 32.12 54.47 32.12 86.98 58.12 86.98 58.12 54.47 53.78 54.47 47.4 76.99"/>
  <path class="cls-2" d="m51.17,22.83c-2.37-3.74-4.72-6.12-6.05-6.85-1.28.7-3.65,3.18-6.03,6.85-2.49,3.42-5.08,9.68-6.33,15.17h24.59c-1.36-5.64-3.8-11.66-6.17-15.17Z"/>
  <path class="cls-2" d="m57.97,41h-25.76c-.03.21-.06.43-.09.64v2.36h26v-2.07h0c-.04-.31-.1-.62-.15-.93Z"/>
  <polygon class="cls-2" points="32.12 47 32.12 49.96 58.12 49.96 58.12 47 45.01 47 32.12 47"/>
</svg>