<?xml version="1.0" encoding="utf-8"?>
<!-- Generator: Adobe Illustrator 27.2.0, SVG Export Plug-In . SVG Version: 6.00 Build 0)  -->
<svg version="1.1" id="Layer_1" xmlns="http://www.w3.org/2000/svg" xmlns:xlink="http://www.w3.org/1999/xlink" x="0px" y="0px"
	 viewBox="0 0 90.3 87" style="enable-background:new 0 0 90.3 87;" xml:space="preserve">
<style type="text/css">
	.st0{fill:#FFFFFF;}
</style>
<path class="st0" d="M61.8,32.2l19.7-14.5l-20.6,2.9L72.6,6.8L55,12.5l8.8-11.8L45.5,10L34.8,0.7v10.6L26.9,3l3.4,18.5l-17.9-7.9
	l12.2,19H8.8l8.4,7l-6.1,11l8.5-4.7l0.1-4.6l14.6-8.9c0,0,2.4-7.7,5-12.4c2.9-5.1,5.9-8.3,5.9-8.3s3.5,3.6,5.7,7.8
	c2.4,4.7,4.7,12.6,4.7,12.6l15,8.5l0.2,3l8.3,1.2L61.8,32.2L61.8,32.2z"/>
<g>
	<path class="st0" d="M45.2,15.3c-1,0.7-2.7,3.2-4.5,6.8c-2.3,4.2-4.7,12.7-5.2,18.8v0.2h-0.1v43.6h0.1v1.5H55V81h-0.1v-5.2H55v-5.2
		h-0.1v-5.2H55v-5.2h-0.1v-5.2H55v-5.2h-0.1v-5.2H55v-3.3c-0.7-6.5-3-14.7-5.2-19.1C48,18.4,46.2,16,45.2,15.3L45.2,15.3z M52.4,81
		H37.9v-5.2h14.5V81z M52.4,70.6H37.9v-5.2h14.5V70.6z M52.4,60.1H37.9v-5.2h14.5V60.1z M52.4,49.7H37.9v-5.2h14.5V49.7z"/>
	<polygon class="st0" points="21.1,83.2 33.5,83.2 33.7,67.6 21.1,76.1 	"/>
	<polygon class="st0" points="31.4,36.8 21.7,42.2 21.7,44 21.7,44.5 22.3,44.5 28.4,44.5 33.6,44.5 33.9,44.5 33.9,40.6 34.9,34.9 
		31.6,36.7 	"/>
	<polygon class="st0" points="59,44.5 66.7,44.5 68.7,44.5 68.7,43.7 68.7,42.2 63.7,39.4 60.2,37.5 59,36.8 55.5,34.9 56.5,40.6 
		56.5,44.5 	"/>
	<polygon class="st0" points="56.8,67.6 56.9,83.2 69.3,83.2 69.3,76.1 	"/>
</g>
</svg>
