<?xml version="1.0" encoding="UTF-8"?><svg id="Layer_1" xmlns="http://www.w3.org/2000/svg" viewBox="0 0 90.26 86.98"><defs><style>.cls-1{fill:#fff;}</style></defs><polygon class="cls-1" points="39.68 27.18 39.68 10.01 39.65 10.01 39.65 4.63 37.21 3.06 37.38 9.91 28.61 7 32.46 15.59 15.04 15.59 31.55 23.06 18.88 32.11 39.68 27.18"/><polygon class="cls-1" points="57.35 15.14 65.04 2.92 50.58 8.56 50.58 26.86 75.22 32.11 56.9 22.83 75.22 16.5 57.35 15.14"/><polygon class="cls-1" points="23.05 83.44 33.84 83.44 33.95 73.28 23.05 77.13 23.05 83.44"/><polygon class="cls-1" points="56.14 83.44 66.93 83.44 66.93 77.13 56.03 73.28 56.14 83.44"/><polygon class="cls-1" points="36.53 84.06 36.53 85.1 43.89 85.1 44.99 85.1 53.45 85.1 53.45 84.06 53.45 79.88 36.53 79.88 36.53 84.06"/><rect class="cls-1" x="36.53" y="69.44" width="16.92" height="5.22"/><rect class="cls-1" x="36.53" y="59.01" width="16.92" height="5.22"/><path class="cls-1" d="m48.69,19.03V4.55h-7.26v23.25c-.12.24-.24.36-.36.61-1.79,3.35-3.67,9.78-4.35,14.95h16.48c-.81-5.4-2.57-11.52-4.27-14.95-.08-.17-.16-.44-.24-.61v-8.77Z"/><rect class="cls-1" x="36.53" y="48.57" width="16.92" height="5.22"/></svg>