<svg width="112" height="59" viewBox="0 0 112 59" fill="none" xmlns="http://www.w3.org/2000/svg">
<path d="M71 48.8262C71 54.0729 66.7467 58.3262 61.5 58.3262C56.2533 58.3262 52 54.0729 52 48.8262C52 43.5795 56.2533 39.3262 61.5 39.3262C66.7467 39.3262 71 43.5795 71 48.8262ZM59.2927 48.8262C59.2927 50.0452 60.281 51.0334 61.5 51.0334C62.719 51.0334 63.7073 50.0452 63.7073 48.8262C63.7073 47.6071 62.719 46.6189 61.5 46.6189C60.281 46.6189 59.2927 47.6071 59.2927 48.8262Z" fill="white"/>
<path d="M59 22.3262C59 23.983 57.6569 25.3262 56 25.3262C54.3431 25.3262 53 23.983 53 22.3262C53 20.6693 54.3431 19.3262 56 19.3262C57.6569 19.3262 59 20.6693 59 22.3262Z" fill="white"/>
<path d="M17 49.8262C17 54.5206 13.1944 58.3262 8.5 58.3262C3.80558 58.3262 0 54.5206 0 49.8262C0 45.1318 3.80558 41.3262 8.5 41.3262C13.1944 41.3262 17 45.1318 17 49.8262ZM6.20647 49.8262C6.20647 51.0929 7.23332 52.1197 8.5 52.1197C9.76668 52.1197 10.7935 51.0929 10.7935 49.8262C10.7935 48.5595 9.76668 47.5326 8.5 47.5326C7.23332 47.5326 6.20647 48.5595 6.20647 49.8262Z" fill="white"/>
<path fill-rule="evenodd" clip-rule="evenodd" d="M56 27.3262C58.7614 27.3262 61 25.0876 61 22.3262C61 21.9837 60.9656 21.6493 60.9 21.3262H67C68.6569 21.3262 70 22.6693 70 24.3262V27.3262V33.3262V36.3262V41.0801C67.8968 38.7735 64.8674 37.3262 61.5 37.3262C55.3163 37.3262 50.2725 42.2069 50.0107 48.3262H18.8937C18.1658 43.2377 13.7897 39.3262 8.5 39.3262C5.56197 39.3262 2.90578 40.5329 1 42.4777V36.3262C1 34.6693 2.34315 33.3262 4 33.3262H26V30.3262C26 28.6693 27.3431 27.3262 29 27.3262H42V24.3262C42 22.6693 43.3431 21.3262 45 21.3262H51.1C51.0344 21.6493 51 21.9837 51 22.3262C51 25.0876 53.2386 27.3262 56 27.3262ZM53.1707 21.3262C53.0602 21.639 53 21.9755 53 22.3262C53 23.983 54.3431 25.3262 56 25.3262C57.6569 25.3262 59 23.983 59 22.3262C59 21.9755 58.9398 21.639 58.8293 21.3262H53.1707ZM8.5 41.3262C12.6826 41.3262 16.1596 44.3472 16.8681 48.3262H10.2351C9.81451 47.8401 9.19316 47.5326 8.5 47.5326C7.80683 47.5326 7.18549 47.8401 6.76494 48.3262H1V45.8226C2.43143 43.1467 5.25311 41.3262 8.5 41.3262ZM70 44.5789C68.4407 41.4644 65.2201 39.3262 61.5 39.3262C56.421 39.3262 52.2729 43.3119 52.0129 48.3262H59.3496C59.5761 47.348 60.4529 46.6189 61.5 46.6189C62.5471 46.6189 63.4239 47.348 63.6504 48.3262H70V44.5789Z" fill="white"/>
<path fill-rule="evenodd" clip-rule="evenodd" d="M20.5544 34.3791L25.1519 33.3237H9.86113C10.488 35.8249 12.942 37.4655 15.5302 37.0351L17.0623 36.7804C18.5837 36.5274 19.8297 35.6123 20.5544 34.3791ZM53.7069 26.7686L26 33.129V30.3236C26 28.6668 27.3431 27.3236 29 27.3236H42V24.3236C42 22.6668 43.3431 21.3236 45 21.3236H51.1002C51.0345 21.6469 51 21.9816 51 22.3243C51 24.2592 52.099 25.9374 53.7069 26.7686ZM60.0007 25.3239L69.7351 23.0893C69.2645 22.0481 68.2169 21.3236 67 21.3236H60.8998C60.9655 21.6469 61 21.9816 61 22.3243C61 23.4497 60.6282 24.4883 60.0007 25.3239ZM53.1709 21.3236H58.8291C58.9398 21.6366 59 21.9734 59 22.3243C59 23.9812 57.6569 25.3243 56 25.3243C54.3431 25.3243 53 23.9812 53 22.3243C53 21.9734 53.0602 21.6366 53.1709 21.3236ZM59.9999 19.3236H67C69.1693 19.3236 71.016 20.7051 71.7082 22.6363L89.426 16.7679C90.033 18.9577 92.208 20.3807 94.5 19.9996C96.951 19.592 98.608 17.2741 98.2 14.8224L96.56 4.9579C96.153 2.50628 93.835 0.849311 91.383 1.25696C89.294 1.60436 87.782 3.33903 87.633 5.36153L17.3993 16.1632C16.3302 15.3123 14.9184 14.9005 13.4644 15.1422L11.9323 15.397C9.20826 15.8499 7.36718 18.4254 7.82012 21.1494L8.40073 24.6412L5.99297 25.0802C5.46307 24.6089 4.76497 24.3226 4 24.3226C2.34315 24.3226 1 25.6657 1 27.3226C1 28.9795 2.34315 30.3226 4 30.3226C5.10344 30.3226 6.06774 29.7269 6.58881 28.8395L6.62376 29.0312L9.05691 28.5875L9.51186 31.3236H24V30.3236C24 27.5622 26.2386 25.3236 29 25.3236H40V24.3236C40 21.5622 42.2386 19.3236 45 19.3236H52.0001C52.9124 18.1096 54.3645 17.3243 56 17.3243C57.6355 17.3243 59.0876 18.1096 59.9999 19.3236Z" fill="white"/>
</svg>
