<?xml version="1.0" encoding="UTF-8"?><svg id="Layer_1" xmlns="http://www.w3.org/2000/svg" viewBox="0 0 52.03 42.86"><defs><style>.cls-1{fill:#fff;}</style></defs><path class="cls-1" d="m49.27,31.42l-3.22-19.78c-.53-1.25-3.06-1.64-4.64-1.75v-3.06c0-.39-.31-.71-.7-.73v-1.36c.71-.42,1.17-1.18,1.21-2.01C41.91,1.22,40.24,0,38.17,0s-3.74,1.22-3.74,2.73c.04.83.49,1.58,1.21,2.01v1.36c-.39.02-.71.34-.71.73v3.48l-.64.35h-5.82c-.4-.44-.97-.7-1.57-.7h-1.76c-.6,0-1.17.26-1.57.71h0s-5.82-.01-5.82-.01l-.64-.35v-3.48c0-.39-.31-.72-.71-.73v-1.36c.71-.42,1.17-1.18,1.21-2.01,0-1.51-1.67-2.73-3.74-2.73s-3.74,1.22-3.74,2.73c.04.83.49,1.58,1.21,2.01v1.36c-.39.02-.7.34-.7.73v3.06c-1.59.11-4.12.49-4.64,1.75l-3.22,19.78c-1.61.98-2.65,2.68-2.77,4.57,0,3.8,4.55,6.88,10.48,6.88s11.02-3.08,11.02-6.88c-.06-1.66-.87-3.2-2.2-4.18v-6.44h3.9c.34.77,1.1,1.26,1.94,1.27h1.76c.84,0,1.6-.5,1.94-1.27h3.9v6.44c-1.33.99-2.14,2.52-2.2,4.18,0,3.8,5.08,6.88,11.02,6.88s10.48-3.08,10.48-6.88c-.12-1.88-1.15-3.59-2.77-4.57Zm-38.79,9.24c-4.02,0-7.29-1.73-7.29-3.87s3.26-3.87,7.29-3.87,7.29,1.74,7.29,3.88-3.26,3.87-7.29,3.87Zm31.07,0c-4.02,0-7.29-1.73-7.29-3.87s3.26-3.88,7.29-3.88,7.29,1.73,7.29,3.87-3.26,3.87-7.29,3.87Z"/></svg>