<?xml version="1.0" encoding="UTF-8"?><svg id="Layer_1" xmlns="http://www.w3.org/2000/svg" viewBox="0 0 90.26 86.98"><defs><style>.cls-1{fill:#fff;}</style></defs><path class="cls-1" d="m49.7,23.22c-1.78-3.74-3.53-6.12-4.53-6.85-.96.7-2.73,3.18-4.51,6.85-2.29,4.21-4.7,12.72-5.21,18.78v45.29h19.45v-45.05h0c-.73-6.54-3-14.7-5.19-19.03Zm2.74,37.99h-14.53v-5.22h14.53v5.22Zm0-10.43h-14.53v-5.22h14.53v5.22Z"/><polygon class="cls-1" points="21.1 84.3 33.5 84.3 33.63 68.65 21.1 77.16 21.1 84.3"/><polygon class="cls-1" points="31.34 37.92 21.66 43.25 21.66 45.11 21.66 45.56 22.27 45.56 28.38 45.56 33.53 45.56 33.9 45.56 33.9 41.69 34.88 35.97 31.59 37.78 31.34 37.92"/><polygon class="cls-1" points="58.93 45.56 66.62 45.56 68.69 45.56 68.69 44.79 68.69 43.25 63.63 40.47 60.2 38.58 58.92 37.87 55.47 35.97 56.45 41.69 56.45 45.56 58.93 45.56"/><polygon class="cls-1" points="56.72 68.65 56.85 84.3 69.25 84.3 69.25 77.16 56.72 68.65"/></svg>