<?xml version="1.0" encoding="UTF-8"?><svg id="Layer_1" xmlns="http://www.w3.org/2000/svg" viewBox="0 0 81.37 81.37"><defs><style>.cls-1{fill:#fff;}</style></defs><path class="cls-1" d="m40.68,0C18.25,0,0,18.25,0,40.68s18.25,40.68,40.68,40.68,40.68-18.25,40.68-40.68S63.12,0,40.68,0Zm.97,79.34v-31.71h-2v31.71c-20.86-.55-37.66-17.67-37.66-38.66S19.35,2,40.68,2s38.68,17.35,38.68,38.68-16.83,38.14-37.71,38.66Z"/><path class="cls-1" d="m34.98,44.58h11.35l-5.68-9.83-5.67,9.83Zm3.46-2l2.21-3.83,2.21,3.83h-4.42Z"/><rect class="cls-1" x="52.71" y="39.06" width="16.91" height="2.5"/><rect class="cls-1" x="11.03" y="39.5" width="16.91" height="2.5"/></svg>