<svg width="47" height="35" viewBox="0 0 47 35" fill="none" xmlns="http://www.w3.org/2000/svg">
<path d="M36.6583 14.0746L36.6162 22.2381L31.8687 24.8289L31.944 10.6155L36.6583 14.0746Z" fill="white"/>
<path d="M19.8503 27.566C27.5687 27.9568 30.0945 20.3006 30.0945 20.3006C28.5566 20.857 28.6014 21.0946 26.9695 20.9879C25.5231 20.7932 24.909 19.2384 23.5264 18.7711C26.039 18.7844 26.5625 19.1654 27.9234 18.7944C29.5625 18.3477 30.4175 16.6241 30.9726 15.444C30.9726 15.444 28.3357 9.23739 23.8581 7.9625C21.7532 7.36277 18.6375 7.54139 17.5625 8.34766C13.5625 11.3477 13.0625 11.8477 10.0415 12.0892C12.0625 12.8477 13.5625 12.8477 15.0625 12.3477C15.9198 12.0892 17.8989 10.6697 17.8989 11.1697C17.8989 15.7794 8.95037 13.1091 5.5381 14.1394C4.37108 14.5082 3.29018 15.108 2.35976 15.9032C1.42933 16.6984 0.66839 17.6726 0.122225 18.7679C1.61773 17.6625 3.39069 16.9938 5.24372 16.8363C7.93727 16.6359 13.3919 17.3477 13.3919 19.906C13.5625 23.3477 5.69276 19.8743 5.69276 19.8743C6.73354 21.5766 10.0937 23.7759 11.8739 24.6769C14.6717 25.9812 15.9653 27.3685 19.8503 27.566Z" fill="white"/>
<path d="M37.5625 8.34766L44.5625 7.34766C44.5625 7.34766 46.5625 9.84766 46.5625 17.8477C46.5625 25.8477 44.5625 28.3477 44.5625 28.3477L37.5625 27.3477V8.34766Z" fill="white"/>
</svg>
