<?xml version="1.0" encoding="UTF-8"?><svg id="Layer_1" xmlns="http://www.w3.org/2000/svg" viewBox="0 0 55.47 55.47"><defs><style>.cls-1{fill:#fff;}</style></defs><path class="cls-1" d="m40.5,35.36l-5.97-2.37c-1.13,0-1.09-1.86-1.09-2.98v-1.34c0-1.13-.03-2.98,1.09-2.98l5.97-2.37c1.13,0,1.09.91,1.09,2.04v7.97c0,1.13.03,2.04-1.09,2.04Z"/><circle class="cls-1" cx="27.45" cy="21.18" r="3.92"/><circle class="cls-1" cx="18.34" cy="21.18" r="3.92"/><path class="cls-1" d="m27.51,27.03c-1.91,0-3.59-.92-4.66-2.33-1.07,1.41-2.76,2.33-4.66,2.33-1.64,0-3.13-.68-4.19-1.77,0,.03,0,.06,0,.09v7.97c0,1.13.91,2.04,2.04,2.04h13.8c1.13,0,2.04-.91,2.04-2.04v-7.97c0-.08-.01-.16-.02-.24-1.07,1.18-2.61,1.93-4.33,1.93Z"/><g><path class="cls-1" d="m55.47,40.78l-1.28-5.17-1.28-5.17-4.64,2.62-4.64,2.62,4.38,1.89c-3.5,7.69-11.26,13.06-20.24,13.06s-16.75-5.37-20.25-13.07l4.35-1.87-4.64-2.62-4.64-2.62-1.28,5.17L.03,40.78l4.25-1.83c4.04,8.96,13.04,15.21,23.49,15.21s19.45-6.25,23.49-15.2l4.22,1.81Z"/><path class="cls-1" d="m51.51,17.07C47.59,7.82,38.43,1.3,27.77,1.3S7.94,7.82,4.03,17.08L.03,15.36l1.28,5.17,1.28,5.17,4.64-2.62,4.64-2.62-4.6-1.98c3.37-8,11.28-13.64,20.5-13.64s17.12,5.63,20.49,13.62l-4.63,1.99,4.64,2.62,4.64,2.62,1.28-5.17,1.28-5.17-3.97,1.71Z"/></g></svg>