<svg xmlns="http://www.w3.org/2000/svg" width="46" height="46"><path fill="#FFF" d="m23.813 19.722-.342 2.258-.381 1.765-1.003 1.134c-.223 2.5-.8 4.955-1.715 7.292a19.894 19.894 0 0 0 4.735 3.01 38.674 38.674 0 0 1 3.511 2.006l.15.13 1.063 1.044a.51.51 0 0 1 .05.08h10.142a3.783 3.783 0 0 0 3.772-3.772V19.381a3.771 3.771 0 0 0-3.772-3.771H25.859c-.04 1.986-.141 2.598-2.046 4.112Zm6.66.783h3.371v5.016h5.015v3.34h-5.015v5.016h-3.361v-5.016h-5.015v-3.31h5.015l-.01-5.046Z"/><path d="M25.438 28.891h5.015v5.016h3.391v-5.016h5.015v-3.34h-5.015v-5.016h-3.361v5.016h-5.015l-.03 3.34Zm.501-2.839h5.016v-5.015h2.327v5.015h5.016v2.337h-5.016v5.016h-2.297v-5.016h-5.016l-.03-2.337Z"/><path fill="#010101" d="M13.982 17.997c-3.21 0-5.949.702-7.092 1.685-.181 2.007 1.625 10.292 2.498 11.827a5.736 5.736 0 0 0 4.664 2.839 5.615 5.615 0 0 0 4.745-2.819 52.209 52.209 0 0 0 2.417-11.756c-1.123-1.034-3.932-1.776-7.232-1.776Zm4.113 13.161a4.867 4.867 0 0 1-4.013 2.398v.381-.381a5.015 5.015 0 0 1-4.012-2.448c-.723-1.324-2.388-8.707-2.408-11.034a12.683 12.683 0 0 1 6.36-1.315c3.16 0 5.457.683 6.43 1.375a55.966 55.966 0 0 1-2.357 11.024Z"/><path fill="#010101" d="M22.94 15.128c-1.304-2.347-4.825-3.601-8.968-3.601s-7.654 1.254-8.968 3.601v3.01c2.127-1.355 5.357-2.007 8.968-2.007a17.719 17.719 0 0 1 8.687 1.846l.281.161v-.673c0-.411.02-1.404 0-2.337Zm-8.968.251a19.706 19.706 0 0 0-8.216 1.495v-1.535c1.184-1.896 4.304-3.06 8.216-3.06 3.912 0 7.022 1.174 8.225 3.06v1.545a19.652 19.652 0 0 0-8.225-1.505Z"/><path fill="#010101" d="M40.023 15.108H25.859v-.19c-.04-2.699-4.514-7.654-11.877-7.654S1.744 12.279 1.744 14.918c0 2.638.371 3.48 2.558 5.156l.561 3.47a.712.712 0 0 0 .201.402l.883.933a23.96 23.96 0 0 0 1.816 7.182 20.83 20.83 0 0 1-3.17 2.287.743.743 0 0 0-.251 1.003c.028.059.07.11.12.151a22.52 22.52 0 0 0 25.078 4.012.761.761 0 0 0 .412-.602h10.031a4.273 4.273 0 0 0 4.273-4.273V19.381a4.274 4.274 0 0 0-4.233-4.273ZM29.069 38.962A21.747 21.747 0 0 1 4.994 35.02a20.393 20.393 0 0 0 3.711-2.839c-1.003-1.464-1.725-5.015-2.006-7.603l-1.093-1.154-.602-3.772c-2.257-1.675-2.508-2.187-2.508-4.734 0-2.308 4.514-6.902 11.486-6.902s11.125 4.665 11.125 6.902v1.003c0 1.595-.171 2.006-2.007 3.41l-.622 4.113-1.083 1.124c-.251 2.548-1.003 6.239-1.926 7.744 2.207 2.397 5.758 3.491 8.767 5.457l.632.712.371.421-.17.06Zm14.726-4.273a3.783 3.783 0 0 1-3.772 3.772H29.831a.557.557 0 0 0 0-.1l-1.003-1.134-.15-.13a38.684 38.684 0 0 0-3.511-2.007 19.859 19.859 0 0 1-4.735-3.009 26.45 26.45 0 0 0 1.715-7.293l1.003-1.133.382-1.766.281-2.167c1.895-1.514 2.006-2.126 2.006-4.092H39.983a3.771 3.771 0 0 1 3.772 3.771l.04 15.288Z"/><path fill="#FFF" d="m28.888 38.461-.632-.712c-3.009-2.007-6.56-3.06-8.767-5.457.953-1.505 1.675-5.197 1.926-7.744l1.083-1.124.622-4.113c1.816-1.404 2.007-1.815 2.007-3.41v-1.004c-.02-2.216-4.183-6.881-11.145-6.881S2.496 12.61 2.496 14.918c0 2.547.261 3.059 2.508 4.734l.602 3.772 1.063 1.124c.261 2.578 1.003 6.139 2.006 7.603a20.428 20.428 0 0 1-3.711 2.839 21.747 21.747 0 0 0 24.075 3.942l.19-.08-.341-.391ZM5.004 18.138v-3.01c1.314-2.347 4.825-3.601 8.968-3.601s7.664 1.254 8.968 3.601V18.138l-.281-.161a17.719 17.719 0 0 0-8.687-1.846c-3.611 0-6.841.652-8.968 2.007Zm9.028 16.17a5.736 5.736 0 0 1-4.664-2.799c-.853-1.535-2.609-9.84-2.478-11.827 1.143-.983 3.882-1.685 7.092-1.685 3.21 0 6.109.742 7.182 1.776a52.222 52.222 0 0 1-2.367 11.756 5.615 5.615 0 0 1-4.745 2.819l-.02-.04Z"/></svg>