<?xml version="1.0" encoding="utf-8"?>
<!-- Generator: Adobe Illustrator 27.2.0, SVG Export Plug-In . SVG Version: 6.00 Build 0)  -->
<svg version="1.1" id="Layer_1" xmlns="http://www.w3.org/2000/svg" xmlns:xlink="http://www.w3.org/1999/xlink" x="0px" y="0px"
	 viewBox="0 0 128 128" style="enable-background:new 0 0 128 128;" xml:space="preserve">
<style type="text/css">
	.st0{fill:#FFFFFF;}
</style>
<path class="st0" d="M64,116.8c-28.5,0-51.7-23.2-51.7-51.7c0-28.5,23.2-51.7,51.7-51.7c28.5,0,51.7,23.2,51.7,51.7
	C115.7,93.6,92.5,116.8,64,116.8z M64,15.9c-27.1,0-49.2,22.1-49.2,49.2c0,27.1,22.1,49.2,49.2,49.2c27.1,0,49.2-22.1,49.2-49.2
	C113.2,38,91.1,15.9,64,15.9z"/>
<path class="st0" d="M71.2,70.1H56.8L64,57.6L71.2,70.1z M61.2,67.5h5.6L64,62.7L61.2,67.5z"/>
<rect x="62.7" y="73.9" class="st0" width="2.5" height="41.6"/>
<rect x="88.4" y="53.9" transform="matrix(6.123234e-17 -1 1 6.123234e-17 25.387 154.6756)" class="st0" width="3.2" height="21.5"/>
<rect x="35.5" y="54.4" transform="matrix(6.123234e-17 -1 1 6.123234e-17 -28.1421 102.2439)" class="st0" width="3.2" height="21.5"/>
</svg>
