<svg width="80" height="55" viewBox="0 0 80 55" fill="none" xmlns="http://www.w3.org/2000/svg">
<path fill-rule="evenodd" clip-rule="evenodd" d="M9.89586 1.86082C10.3007 0.833116 11.462 0.328196 12.4897 0.733047L15.281 1.83262C16.8225 2.43989 17.5799 4.18186 16.9726 5.72342L8.54256 27.1228C7.93529 28.6644 6.19332 29.4217 4.65177 28.8145L1.86054 27.7149C0.832838 27.3101 0.327918 26.1487 0.732769 25.121L9.89586 1.86082ZM18.1004 8.31728L41.7392 19.6365C42.6855 20.0897 43.1208 21.1971 42.7362 22.1734L38.237 33.5947C37.8524 34.5709 36.7787 35.084 35.7775 34.7699L10.7699 26.9255L18.1004 8.31728ZM57.3225 29.2081L44.5465 23.0346L40.1483 34.1995L53.7021 38.3983C54.7018 38.708 55.7712 38.1946 56.1548 37.2209L58.3131 31.742C58.6967 30.7683 58.2648 29.6635 57.3225 29.2081ZM74.1226 40.7201L74.8976 38.7529C75.2012 37.9821 74.8226 37.1111 74.0518 36.8075C73.281 36.5038 72.41 36.8825 72.1064 37.6533L72.0812 37.7173L60.1943 32.4233L57.6287 38.9361L69.9324 43.1718L69.9072 43.2357C69.6036 44.0065 69.9823 44.8775 70.7531 45.1811C71.5238 45.4848 72.3948 45.1061 72.6985 44.3353L73.4735 42.368L74.1226 40.7201Z" fill="white"/>
</svg>
