<svg width="128" height="128" viewBox="0 0 128 128" fill="none" xmlns="http://www.w3.org/2000/svg">
<path fill-rule="evenodd" clip-rule="evenodd" d="M11.4724 102.155L16.1011 106.784L16.3397 106.896C16.3437 106.925 16.3519 106.953 16.3567 106.982L9.44189 113.897L14.1031 118.558L21.0179 111.643C21.0464 111.648 21.0746 111.656 21.1031 111.66L21.2154 111.898L25.844 116.527L42.026 100.345L54.3076 88.0636L63.359 72.5518L106.5 29.5L98 22L55.4477 64.6406L39.9359 73.6919L27.6544 85.9735L11.4724 102.155Z" fill="white"/>
<path fill-rule="evenodd" clip-rule="evenodd" d="M83.3842 78.5657L86.0282 75.9227L89.0008 54.2002L74.0098 69.1912L83.3842 78.5657Z" fill="white"/>
<path fill-rule="evenodd" clip-rule="evenodd" d="M52.0776 41.9714L49.4346 44.6154L58.809 53.99L73.8 38.999L52.0776 41.9714Z" fill="white"/>
<path fill-rule="evenodd" clip-rule="evenodd" d="M106.791 13.2976L97.9463 22.142L105.858 30.0533L114.702 21.2089C115.312 20.5985 125.888 6.48135 123.703 4.29674C121.518 2.11201 107.401 12.6872 106.791 13.2976Z" fill="white"/>
<rect x="44.9082" y="102.891" width="10" height="23" transform="rotate(45 44.9082 102.891)" fill="white"/>
<rect x="18.0381" y="76.021" width="10" height="23" transform="rotate(45 18.0381 76.021)" fill="white"/>
</svg>
