<?xml version="1.0" encoding="UTF-8"?><svg id="Layer_1" xmlns="http://www.w3.org/2000/svg" viewBox="0 0 128 128"><defs><style>.cls-1,.cls-2{fill:#fff;}.cls-2{fill-rule:evenodd;}</style></defs><path class="cls-1" d="m39.8,95.89c0,5.78,12.63,10.46,28.2,10.46s28.2-4.68,28.2-10.46c0-5.07-9.74-9.3-22.66-10.26-.54,1.37-1.67,3.78-2.54,4.37-1.53,1.02-4.5.5-7,0-1.58-.32-3-1-7.5-3-10.1,1.59-16.7,4.56-16.7,8.89Zm29.25-4.09c5.53,0,10.01,1.76,10.01,3.94s-4.48,3.94-10.01,3.94-10.01-1.76-10.01-3.94,4.48-3.94,10.01-3.94Z"/><path class="cls-1" d="m126.65,88.44l-1.95-3.21-10.78,1.61c-7.66-6.18-20.58-10.26-37.37-11.34.3,2.05-.24,3.45-.55,5.5,18.41,1.24,31.68,7.8,31.68,15.35,0,8.44-17.51,15.28-39.11,15.28s-39.11-6.84-39.11-15.28c0-6.07,6.91-10.89,20.05-13.35-1.95-1.5-4.07-3.27-6.5-5.5-17.86,3.59-28.12,10.85-28.12,19.84.01,1.43.32,2.83.9,4.14l-14.56,2.17,3.5,2.49,12.74-1.85c6.85,9,26.64,15.51,49.99,15.51,3.11,0,6.14-.12,9.1-.34l3.05,5.96h5.82s-3.31-6.51-3.31-6.51c21.9-2.71,37.91-11.34,37.91-21.57-.08-2.78-1.15-5.43-3.01-7.5l9.64-1.4Z"/><path class="cls-2" d="m44.37,5.89l-3.31-1.88-23.35,11.78-.34,3.72,26.99-13.62Z"/><path class="cls-2" d="m63.46,36.79h.02s-.46-.92-.46-.92c-.02-.03-.03-.07-.05-.11s-.04-.07-.05-.1l-4.43-8.78-32.39,16.35,4.22,8.36c.09.18.17.35.25.53.09.17.19.36.28.54l.24.47h0c9.91,20.37,33.91,33.34,36.66,32.39,1.75-.61,5.25-28.52-4.29-48.73Z"/><path class="cls-2" d="m23.17,37.47l32.39-16.35-6.28-12.45h0s-1.54-.88-1.54-.88l-30.7,15.5-.16,1.73h0s6.28,12.44,6.28,12.44Z"/><path class="cls-2" d="m86.14,8.2l-2.1-1.19-14.8,7.47-.21,2.36,17.11-8.64Z"/><path class="cls-2" d="m98.11,27.48h.01s-.3-.6-.3-.6c-.01-.02-.02-.05-.03-.07-.01-.02-.02-.04-.03-.06l-2.88-5.7-21.03,10.61,2.74,5.43c.06.11.11.23.17.34.06.11.12.23.18.35l.15.31h0c6.44,13.23,22.02,21.65,23.8,21.03,1.14-.39,3.41-18.52-2.79-31.64Z"/><path class="cls-2" d="m72.7,28.23l20.54-10.37-3.98-7.89h0s-.98-.56-.98-.56l-19.47,9.83-.1,1.1h0s3.98,7.89,3.98,7.89Z"/></svg>