<?xml version="1.0" encoding="UTF-8"?><svg id="Layer_1" xmlns="http://www.w3.org/2000/svg" viewBox="0 0 90.26 86.98"><defs><style>.cls-1{fill:#fff;}</style></defs><path class="cls-1" d="m60.58,47.43l14.64-4.43-17.11-1.21,3.54-8.25-7.97,4.58-1.06-6.51-6.79,2.16-9.2-3.99,2.45,7.72-9.4-3.42,4.76,7.23-18.8-.16,13.11,6.64-9.86,7.04,14.09-2.14c1.3-3.42,2.88-6.61,4.48-8.82,2.36-3.64,4.93-6.5,6.71-7.47l.96-.52.96.52c1.89,1.03,4.48,3.91,6.77,7.51,1.5,2.22,2.98,5.32,4.24,8.67l18.13,2.25-14.64-7.41Z"/><path class="cls-1" d="m58.12,86.98v-24.09h-.19c-1.13-6.33-3.99-13.83-6.75-17.91-2.37-3.74-4.72-6.12-6.05-6.85-1.28.7-3.65,3.18-6.02,6.85-2.92,4.01-5.97,11.92-6.85,17.91h-.12v24.09h25.98Z"/><path class="cls-1" d="m45.43,31.26c-8.29,0-15.03-6.74-15.03-15.03S37.14,1.19,45.43,1.19s15.03,6.74,15.03,15.03-6.74,15.03-15.03,15.03Zm0-26.07c-6.08,0-11.03,4.95-11.03,11.03s4.95,11.03,11.03,11.03,11.03-4.95,11.03-11.03-4.95-11.03-11.03-11.03Z"/><polygon class="cls-1" points="46.96 15.06 46.96 7.13 43.89 7.13 43.89 15.06 43.89 18.13 46.96 18.13 51.59 18.13 51.59 15.06 46.96 15.06"/></svg>