<svg xmlns="http://www.w3.org/2000/svg" xml:space="preserve" id="Layer_1" x="0" y="0" version="1.1" viewBox="0 0 90.3 87"><path d="m34.9 68.2-.1 15.6H22.4v-7.1zM32.9 37.3l-.3.1-9.7 5.4v2.3H35.2v-3.9l.9-5.7zM64.9 40l-3.4-1.9-1.3-.7-3.5-1.9 1 5.7v3.9H70v-2.3zM58 68.2l.1 15.6h12.4v-7.1zM51 22.7c-1.8-3.7-3.5-6.1-4.5-6.8-1 .7-2.7 3.2-4.5 6.8-2.3 4.2-4.7 12.7-5.2 18.8v45.3h19.5v-45c-.8-6.5-3.1-14.7-5.3-19.1zM63.4 46.7h-5.9v13.4l17.2 9.7L62 53.9s11.7 1.9 13.4 2.3c-1.1-.7-12.1-9.5-12-9.5zM61.1 36.3l3.6-3.5L83 15.2l-18.7 6.6 3.4-11.4-11.2 6.1V1.3l-9.2 12.2c.4.5 2.1 2.6 2.5 3.1 3.2 4.7 4.9 10.8 6.9 17l4.4 2.7zM35 34.5l.5-1.3c1.9-5.4 4.3-11.8 7.6-16.4.7-1 1.8-2.4 2.5-3.3L36.3 1.1l2.4 19-10.2-4.7 2.4 8.8-20.7-5.1 19.4 18.2 5.4-2.8zM31.3 46.5 10.1 60.7l16.1-3-6.3 9.2L35 60.7l.1-14.2z" fill="#FFF"/></svg>