<?xml version="1.0" encoding="UTF-8"?><svg id="Layer_1" xmlns="http://www.w3.org/2000/svg" viewBox="0 0 90.26 86.98"><defs><style>.cls-1{fill:#fff;}</style></defs><g><path class="cls-1" d="m61.3,45.69l-5.87.03v13.4l17.18,9.68-12.66-15.87s11.67,1.9,13.4,2.3c-1.1-.68-12.06-9.55-12.06-9.55Z"/><g><path class="cls-1" d="m59.05,35.35l3.62-3.46,18.33-17.65-18.67,6.62,3.39-11.37-11.2,6.11V.34l-9.22,12.22c.37.52,2.12,2.56,2.47,3.13,3.15,4.68,4.88,10.75,6.91,17l4.36,2.67Z"/><path class="cls-1" d="m32.96,33.53l.53-1.32c1.89-5.38,4.27-11.83,7.59-16.42.66-1.02,1.79-2.39,2.46-3.26L34.21.15l2.38,19.01-10.18-4.75,2.38,8.82-20.7-5.09,19.41,18.19,5.48-2.8Z"/><polygon class="cls-1" points="29.23 45.48 8.08 59.74 24.19 56.68 17.83 65.88 32.95 59.74 33.1 45.48 29.23 45.48"/></g></g><g><path class="cls-1" d="m44.54,15.52c-.96.7-2.73,3.18-4.51,6.85-2.29,4.21-4.7,12.72-5.21,18.78v.25h-.09v43.56h.09v1.49h19.45v-5.22h-.09v-5.22h.09v-5.22h-.09v-5.22h.09v-5.22h-.09v-5.22h.09v-5.22h-.09v-5.22h.09v-3.26c-.72-6.55-3-14.74-5.19-19.08-1.78-3.74-3.53-6.12-4.53-6.85Zm7.18,65.71h-14.53v-5.22h14.53v5.22Zm0-10.44h-14.53v-5.22h14.53v5.22Zm0-10.44h-14.53v-5.22h14.53v5.22Zm0-10.43h-14.53v-5.22h14.53v5.22Z"/><polygon class="cls-1" points="20.46 83.44 32.87 83.44 33 67.79 20.46 76.3 20.46 83.44"/><polygon class="cls-1" points="30.71 37.06 21.03 42.39 21.03 44.25 21.03 44.7 21.63 44.7 27.75 44.7 32.89 44.7 33.26 44.7 33.26 40.83 34.24 35.11 30.95 36.92 30.71 37.06"/><polygon class="cls-1" points="58.3 44.7 65.99 44.7 68.05 44.7 68.05 43.93 68.05 42.39 63 39.61 59.57 37.72 58.29 37.01 54.84 35.11 55.82 40.83 55.82 44.7 58.3 44.7"/><polygon class="cls-1" points="56.08 67.79 56.21 83.44 68.62 83.44 68.62 76.3 56.08 67.79"/></g></svg>