<?xml version="1.0" encoding="UTF-8"?><svg id="Layer_1" xmlns="http://www.w3.org/2000/svg" viewBox="0 0 90.26 86.98"><defs><style>.cls-1{fill:#fff;}</style></defs><g><path class="cls-1" d="m60.1,63.76l.02.14v23.07h21.58l-12.98-5.32s13.72-10.59,15.45-10.19c-1.96-1.21-19.7-3-19.7-3l2.74-3.52,18.46-18.89-18.67,6.62,3.39-11.37-11.2,6.11-.67-10.01-6.78,4.86c.37.52.73,1.06,1.09,1.62,3.15,4.68,6.27,13.22,7.25,19.88Z"/><path class="cls-1" d="m30.14,63.76v-.23c.72-6.28,4-15.1,7.32-19.69.66-1.02,1.34-1.96,2.01-2.84l-8.24-4.5,1.86,11.24-10.18-4.75,2.38,8.82-20.7-5.09,18.67,14.25-20.32,7.35,20.32,8.26-10.2,10.38h17.1v-23.22Z"/></g><path class="cls-1" d="m58.12,86.98v-24.09h-.19c-1.13-6.33-3.99-13.83-6.75-17.91-2.37-3.74-4.72-6.12-6.05-6.85-1.28.7-3.65,3.18-6.02,6.85-2.92,4.01-5.97,11.92-6.85,17.91h-.12v24.09h25.98Z"/><path class="cls-1" d="m44.3,31.26c-8.29,0-15.03-6.74-15.03-15.03S36.01,1.19,44.3,1.19s15.03,6.74,15.03,15.03-6.74,15.03-15.03,15.03Zm0-26.07c-6.08,0-11.03,4.95-11.03,11.03s4.95,11.03,11.03,11.03,11.03-4.95,11.03-11.03-4.95-11.03-11.03-11.03Z"/><polygon class="cls-1" points="45.84 15.06 45.84 7.13 42.77 7.13 42.77 15.06 42.77 18.13 45.84 18.13 50.46 18.13 50.46 15.06 45.84 15.06"/></svg>