<svg id="Layer_1" data-name="Layer 1" xmlns="http://www.w3.org/2000/svg" width="128" height="128" viewBox="0 0 128 128">
  <defs>
    <style>
      .cls-1 {
        fill: #fff;
        fill-rule: evenodd;
      }
    </style>
  </defs>
  <path class="cls-1" d="M59.05525,8.55324,42.49364,6.54484V47.00646l4.403,4.3876L59.00891,17.26663V8.55324Zm-9.11507,62.415H77.74886V96.53681H49.94018V70.96828ZM64.74058,125.118a37.40273,37.40273,0,0,0,12.653-24.56434H50.21827a37.46446,37.46446,0,0,0,12.653,24.57978,1.54491,1.54491,0,0,0,1.88481,0h0ZM69.28266,30.4912V19.39863L80.66877,51.45585l4.38759-4.44939V6.54484L69.28266,8.476V2.54348l-4.94376,5.469V54.54571L54.72945,40.64137,49.94018,54.23672V66.95147H77.74886V54.25217Z"/>
</svg>
