<svg width="60" height="40" viewBox="0 0 60 40" fill="none" xmlns="http://www.w3.org/2000/svg">
<g clip-path="url(#clip0_3879_33599)">
<path d="M29.9724 40C26.3725 40 22.5685 38.9541 18.6754 36.896C15.6407 35.2911 12.5296 33.0637 9.43543 30.2774C4.21194 25.5812 0.850039 20.9358 0.709783 20.7411L0 19.7544L0.637529 18.7169C0.756535 18.5264 3.57016 13.9996 8.41539 9.42621C11.2843 6.71607 14.2722 4.55219 17.3025 2.99386C21.1617 1.00783 25.0889 0 28.9863 0C32.8838 0 36.8874 0.999365 40.9379 2.97269C44.117 4.52255 47.3259 6.66949 50.4711 9.36269C55.7923 13.9107 59.0862 18.412 59.2222 18.5983L60 19.6655L59.2265 20.7368C59.0862 20.9316 55.7243 25.5727 50.5051 30.2774C47.4109 33.0637 44.304 35.2911 41.2651 36.896C37.3677 38.9541 33.568 40 29.9681 40H29.9724ZM4.45845 19.6019C7.41234 23.3411 18.4968 36.3371 29.9724 36.3371C41.4479 36.3371 52.3751 23.5274 55.4183 19.6824C54.1602 18.1241 51.5379 15.0879 48.0187 12.0855C43.5092 8.24053 36.5474 3.65446 28.9863 3.65446C21.4252 3.65446 15.0627 8.20241 11.008 12.0136C7.81611 15.0159 5.53375 18.0563 4.45845 19.5977V19.6019Z" fill="white"/>
<path d="M29.9726 27.974C25.3824 27.974 21.6465 24.2518 21.6465 19.6784C21.6465 15.105 25.3824 11.3828 29.9726 11.3828C34.5628 11.3828 38.2987 15.105 38.2987 19.6784C38.2987 24.2518 34.5628 27.974 29.9726 27.974ZM29.9726 15.0415C27.4055 15.0415 25.3187 17.1207 25.3187 19.6784C25.3187 22.2361 27.4055 24.3153 29.9726 24.3153C32.5397 24.3153 34.6266 22.2361 34.6266 19.6784C34.6266 17.1207 32.5397 15.0415 29.9726 15.0415Z" fill="white"/>
</g>
<defs>
<clipPath id="clip0_3879_33599">
<rect width="60" height="40" fill="white"/>
</clipPath>
</defs>
</svg>
