<svg width="45" height="38" viewBox="0 0 45 38" fill="none" xmlns="http://www.w3.org/2000/svg">
<path fill-rule="evenodd" clip-rule="evenodd" d="M12.3813 21.0476L4.58417 22.1437L8.73144 18.0552L0.349526 17.5845L7.11824 14.2693L0 6.73792L12.4687 9.50168L16.2799 0L18.7333 7.6928L23.8417 1.17678L23.8821 10.4095L26.8396 9.29322L24.0367 13.301L21.0254 14.3635L20.9111 11.2433L18.2829 13.0724L16.4009 10.9004L16.1723 14.0205L12.2401 12.7496L15.1305 15.5201H12.1326L14.4516 17.1138L12.3611 18.2906L14.344 18.9765L12.3813 21.0476Z" fill="white"/>
<path fill-rule="evenodd" clip-rule="evenodd" d="M32.3555 13.0684L35.578 16.2922L32.9571 18.9141C34.8702 20.941 36.0431 23.6748 36.0431 26.6825C36.0431 32.9329 30.9783 37.9998 24.7305 37.9998C18.4828 37.9998 13.418 32.9329 13.418 26.6825C13.418 20.4322 18.4828 15.3652 24.7305 15.3652C26.3024 15.3652 27.7993 15.6859 29.1596 16.2655L32.3555 13.0684Z" fill="white"/>
<path d="M35.0547 13.8197C35.0547 13.8197 36.5469 12.6496 37.0981 12.2193C39.7262 10.1817 43.5778 11.9503 43.5778 11.9503" stroke="white" stroke-width="3" stroke-miterlimit="10"/>
</svg>
