<?xml version="1.0" encoding="UTF-8"?><svg id="Layer_1" xmlns="http://www.w3.org/2000/svg" viewBox="0 0 113.22 113.74"><defs><style>.cls-1{fill:#fff;fill-rule:evenodd;}</style></defs><g id="Layer_2"><path class="cls-1" d="m92.9,96.74l4.95-4.97v-9.91l-4.95-4.94-14.87,14.86,4.95,4.97h9.92,0Zm-17.33-7.43l14.87-14.86-2.49-2.51-14.89,14.86,2.51,2.51Zm-4.95-4.94l14.87-14.88-2.51-2.48-14.87,14.86,2.51,2.5Zm-4.97-4.97l14.89-14.86-2.51-2.51-14.87,14.88,2.49,2.48Zm-4.95-4.94l14.87-14.86-12.09-12.3.02-19.82-10.71-10.7-12.63-2.44-2.48,2.44v4.97l7.82,7.45v9.91l-5.34,5.31h-9.9l-7.46-7.82h-4.97l-2.46,2.51,2.46,12.6,10.71,10.7h19.84l12.31,12.06Z"/></g></svg>