<svg id="Layer_1" data-name="Layer 1" xmlns="http://www.w3.org/2000/svg" width="100" height="100" viewBox="0 0 100 100">
  <defs>
    <style>
      .cls-1 {
        fill: #fff;
        fill-rule: evenodd;
      }
    </style>
  </defs>
  <path class="cls-1" d="M50,4.5A45.5,45.5,0,1,0,95.5,50,45.49994,45.49994,0,0,0,50,4.5Zm0,86.53119A41.03125,41.03125,0,1,1,91.03113,50,41.03137,41.03137,0,0,1,50,91.03115ZM81.91724,52.48281c-4.09949,0-7.63269-2.22559-8.40271-5.29084a2.34678,2.34678,0,0,0-4.5415,0c-.7699,3.06525-4.303,5.29084-8.40259,5.29084s-7.63281-2.22559-8.40259-5.29084a2.34686,2.34686,0,0,0-4.54162,0c-.77,3.06525-4.30286,5.29084-8.40271,5.29084-4.09937,0-7.63257-2.22559-8.40235-5.29084a2.34694,2.34694,0,0,0-4.54175,0c-.77,3.06525-4.30273,5.29084-8.40258,5.29084A10.41179,10.41179,0,0,1,13.218,51.39974a36.80769,36.80769,0,0,0,73.56891-.096A10.3689,10.3689,0,0,1,81.91724,52.48281Z"/>
</svg>
