<?xml version="1.0" encoding="UTF-8"?><svg id="Layer_1" xmlns="http://www.w3.org/2000/svg" viewBox="0 0 90.26 86.98"><defs><style>.cls-1{fill:#fff;}</style></defs><path class="cls-1" d="m60.58,47.43l14.64-4.43-17.11-1.21,3.54-8.25-7.97,4.58-1.45-8.87-6.4,4.52-4.77-3.99-1.99,7.72-9.4-3.42,4.76,7.23-18.8-.16,13.11,6.64-9.86,7.04,14.09-2.14c1.3-3.42,2.88-6.61,4.48-8.82,2.36-3.64,4.93-6.5,6.71-7.47l.96-.52.96.52c1.89,1.03,4.48,3.91,6.77,7.51,1.5,2.22,2.98,5.32,4.24,8.67l18.13,2.25-14.64-7.41Z"/><path class="cls-1" d="m58.12,86.98v-24.09h-.19c-1.13-6.33-3.99-13.83-6.75-17.91-2.37-3.74-4.72-6.12-6.05-6.85-1.28.7-3.65,3.18-6.02,6.85-2.92,4.01-5.97,11.92-6.85,17.91h-.12v24.09h25.98Z"/><g><circle class="cls-1" cx="45.83" cy="22.86" r="6.4"/><g><path class="cls-1" d="m54.16,13.74c4.99,4.99,5,13.1.04,18.1l2.93,2.93c6.59-6.63,6.58-17.35-.04-23.97h0s-2.93,2.93-2.93,2.93h0Z"/><path class="cls-1" d="m60.58,7.32c8.52,8.52,8.52,22.39,0,30.91h0l2.93,2.93h0c10.15-10.15,10.16-26.62,0-36.77h0s-2.93,2.93-2.93,2.93h0Z"/><path class="cls-1" d="m36.02,13.74s.03-.02.04-.04l-2.93-2.93s-.03.03-.04.04c-6.63,6.63-6.63,17.38,0,24.01l2.93-2.93c-5-5-5-13.14,0-18.14Z"/><path class="cls-1" d="m26.74,41.16l2.93-2.93c-8.52-8.52-8.52-22.39,0-30.91l-2.93-2.93c-10.15,10.15-10.16,26.62,0,36.77Z"/></g></g></svg>