<svg xmlns="http://www.w3.org/2000/svg" width="26" height="71" viewBox="0 0 26 71">
  <defs>
    <style>
      .cls-1 {
        fill: #fff;
        fill-rule: evenodd;
      }
    </style>
  </defs>
  <path class="cls-1" d="M26,36.107l-3-4.154c-0.157-1.071-.289-2.1-0.414-3.1H3.3c-0.1.921-.194,1.856-0.3,2.808L0,36.107v8.317H26V36.107Zm-6.945-20.25C16.68,12.111,14.33,9.729,13,9c-1.284.7-3.649,3.183-6.028,6.856A19.546,19.546,0,0,0,3.825,24.64h18.2A20.615,20.615,0,0,0,19.055,15.858ZM3,47.95V58.942L0,61.891V71H26V61.891l-3-2.949V47.95H3Z"/>
</svg>
