<svg xmlns="http://www.w3.org/2000/svg" xml:space="preserve" id="Layer_1" x="0" y="0" version="1.1" viewBox="0 0 90.3 87"><path d="m61.7 33 19.7-14.5-20.6 2.9L72.6 7.6l-17.7 5.7 8.8-11.8-18.3 9.3-10.6-9.3v10.6l-7.9-8.4 3.4 18.5-17.9-7.9 12.2 19H8.8l8.4 7-6.1 11 8.5-4.7.1-4.6 14.6-8.9s2.4-7.7 5-12.4c2.9-5.1 5.9-8.3 5.9-8.3s3.5 3.6 5.7 7.8c2.4 4.7 4.7 12.6 4.7 12.6l15 8.5.2 3 8.3 1.2L61.7 33z" fill="#FFF"/><path d="M49.6 22.9c-1.8-3.7-3.5-6.1-4.5-6.9-1 .7-2.7 3.2-4.5 6.9-2.3 4.2-4.7 12.7-5.2 18.8V87h19.5V42c-.8-6.6-3.1-14.8-5.3-19.1zm2.8 27.6H37.8v-5.2h14.5v5.2zM31.2 37.6l-9.6 5.3v2.4h12.2v-3.9l1-5.7-3.3 1.8zM58.8 45.3h9.8V42.9l-5.1-2.7-3.4-1.9-1.3-.7-3.4-1.9 1 5.7v3.9zM21 84h12.4l.1-15.7L21 76.9zM56.6 68.3l.2 15.7h12.4v-7.1z" fill="#FFF"/></svg>