<svg xmlns="http://www.w3.org/2000/svg" width="114" height="113" viewBox="0 0 114 113">
  <defs>
    <style>
      .cls-1 {
        fill: #fff;
        fill-rule: evenodd;
      }
    </style>
  </defs>
  <path class="cls-1" d="M65.812,39.667L52.274,35.488,41,24.214,32.811,32.4l-8.188,8.188L35.9,51.865,40.077,65.4l36.362,36.361,5.5,0.716-0.089,4.694L87.677,113l12.868-12.867,12.868-12.868-5.83-5.83-4.694.089-0.716-5.5ZM92.7,85.817l-1.618,1.618L55.158,51.512l1.619-1.618Zm4.237-4.237L93.7,84.817,57.777,48.893l3.237-3.237ZM38.08,22.722L24.22,11.022C13.519,2.816,3.588-.194.875,0.466,0.215,3.179,3.464,13.973,11.036,23.261l12.1,14.41L30.606,30.2Z"/>
</svg>
