<?xml version="1.0" encoding="UTF-8"?><svg id="Layer_1" xmlns="http://www.w3.org/2000/svg" viewBox="0 0 90.26 86.98"><defs><style>.cls-1{fill:#fff;}</style></defs><path class="cls-1" d="m60.1,41.69l.02.14v30l15.99,11.85-11.46-21.01s11.67,1.9,13.4,2.3c-1.96-1.21-16.46-17.91-16.46-17.91l5.77-5.43,18.33-17.65-18.67,6.62,3.39-11.37-11.2,6.11v-15.27l-7.45,10.12c.37.52.73,1.06,1.09,1.62,3.15,4.68,6.27,13.22,7.25,19.88Z"/><path class="cls-1" d="m30.14,41.69v-.23c.72-6.28,4-15.1,7.32-19.69.66-1.02,1.34-1.96,2.01-2.84l-8.76-12.26,2.38,19.01-10.18-4.75,2.38,8.82-20.7-5.09,18.67,14.25-18.67,1.7,18.67,13.92-18.67,19.01,20.36-9.16-4.75,16.29,9.95-9.7v-29.27Z"/><polygon class="cls-1" points="32.14 86.98 45.13 86.98 58.12 86.98 58.12 81.76 32.14 81.76 32.14 86.98"/><rect class="cls-1" x="32.14" y="60.89" width="25.98" height="5.22"/><rect class="cls-1" x="32.14" y="71.33" width="25.98" height="5.22"/><path class="cls-1" d="m58.12,41.98c-.96-6.55-4.01-14.74-6.94-19.08-2.37-3.74-4.72-6.12-6.05-6.85-1.28.7-3.65,3.18-6.02,6.85-3.06,4.21-6.28,12.72-6.97,18.78v13.99h25.98v-13.69Z"/></svg>