<svg id="Layer_1" data-name="Layer 1" xmlns="http://www.w3.org/2000/svg" width="128" height="128" viewBox="0 0 128 128">
  <defs>
    <style>
      .cls-1 {
        fill: #fff;
        fill-rule: evenodd;
      }
    </style>
  </defs>
  <g>
    <path class="cls-1" d="M4,94.6827l12.10149,12.10148.23861.11232c.004.02849.01225.05672.017.08522l-6.91477,6.91482,4.66118,4.66118,6.91482-6.91482c.02851.0048.05673.01308.08522.017l.11232.23862L33.31731,124l5.47895-26.885,64.02506-64.025-7.91126-7.91126L30.885,89.20373Z"/>
    <polygon class="cls-1" points="86.92 82.101 89.564 79.458 89.001 54.2 74.01 69.191 86.92 82.101"/>
    <polygon class="cls-1" points="48.542 38.436 45.899 41.08 58.809 53.99 73.8 38.999 48.542 38.436"/>
    <path class="cls-1" d="M106.79116,13.29757,97.94671,22.142,105.858,30.0533l8.84446-8.84446c.61036-.61036,11.18553-14.7275,9.00091-16.91211h0C121.51866,2.112,107.40152,12.6872,106.79116,13.29757Z"/>
  </g>
</svg>
