<?xml version="1.0" encoding="UTF-8"?><svg id="Layer_1" xmlns="http://www.w3.org/2000/svg" viewBox="0 0 90.26 86.98"><defs><style>.cls-1{fill:#fff;}</style></defs><g><path class="cls-1" d="m49.07,42.05c-1.78-3.74-3.53-6.12-4.53-6.85-.96.7-2.73,3.18-4.51,6.85-2.29,4.21-4.7,12.72-5.21,18.78v26.14h19.45v-25.9h0c-.73-6.54-3-14.7-5.19-19.03Zm2.74,27.55h-14.53v-5.22h14.53v5.22Z"/><polygon class="cls-1" points="30.71 56.75 21.03 62.08 21.03 63.93 21.03 64.39 21.63 64.39 27.75 64.39 32.89 64.39 33.26 64.39 33.26 60.52 34.24 54.8 30.95 56.61 30.71 56.75"/><polygon class="cls-1" points="58.3 64.39 65.99 64.39 68.05 64.39 68.05 63.62 68.05 62.08 63 59.3 59.57 57.41 58.29 56.7 54.84 54.8 55.82 60.52 55.82 64.39 58.3 64.39"/></g><g><circle class="cls-1" cx="44.25" cy="18.47" r="6.4"/><g><path class="cls-1" d="m52.58,9.35c4.99,4.99,5,13.1.04,18.1l2.93,2.93c6.59-6.63,6.58-17.35-.04-23.97h0s-2.93,2.93-2.93,2.93h0Z"/><path class="cls-1" d="m59,2.93c8.52,8.52,8.52,22.39,0,30.91h0l2.93,2.93h0c10.15-10.15,10.16-26.62,0-36.77h0s-2.93,2.93-2.93,2.93h0Z"/><path class="cls-1" d="m34.44,9.35s.03-.02.04-.04l-2.93-2.93s-.03.03-.04.04c-6.63,6.63-6.63,17.38,0,24.01l2.93-2.93c-5-5-5-13.14,0-18.14Z"/><path class="cls-1" d="m25.16,36.77l2.93-2.93c-8.52-8.52-8.52-22.39,0-30.91L25.16,0c-10.15,10.15-10.16,26.62,0,36.77Z"/></g></g><path class="cls-1" d="m60.29,44.84l14.64-4.43-18.39-1.3.52-6.46-5.33,2.25-1.07-8.61-5.12,4.89-4.77-3.99-1.99,7.72-9.4-3.42,4.76,7.23-18.8-.16,13.11,6.64-9.86,7.04,16.23-2.52c1.3-3.42,2.11-7.57,3.71-9.78,1.67-3.04,4.24-5.8,6.02-6.77h0l.29.13c1.64.78,3.57,3.08,5.45,6.92,1.76,3.59,2.24,6.07,3.5,9.42l21.14,2.62-14.64-7.41Z"/></svg>