<?xml version="1.0" encoding="utf-8"?>
<!-- Generator: Adobe Illustrator 27.2.0, SVG Export Plug-In . SVG Version: 6.00 Build 0)  -->
<svg version="1.1" id="Layer_1" xmlns="http://www.w3.org/2000/svg" xmlns:xlink="http://www.w3.org/1999/xlink" x="0px" y="0px"
	 viewBox="0 0 90.3 87" style="enable-background:new 0 0 90.3 87;" xml:space="preserve">
<style type="text/css">
	.st0{fill:#FFFFFF;}
</style>
<path class="st0" d="M61.7,33l19.7-14.5l-20.6,2.9L72.6,7.6l-17.7,5.7l8.8-11.8l-18.3,9.3L34.8,1.5v10.6l-7.9-8.4l3.4,18.5
	l-17.9-7.9l12.2,19H8.8l8.4,7l-6.1,11l8.5-4.7l0.1-4.6l14.6-8.9c0,0,2.4-7.7,5-12.4c2.9-5.1,5.9-8.3,5.9-8.3s3.5,3.6,5.7,7.8
	c2.4,4.7,4.7,12.6,4.7,12.6l15,8.5l0.2,3l8.3,1.2L61.7,33L61.7,33z"/>
<g>
	<path class="st0" d="M49.6,22.9c-1.8-3.7-3.5-6.1-4.5-6.9c-1,0.7-2.7,3.2-4.5,6.9c-2.3,4.2-4.7,12.7-5.2,18.8V87h19.5v-45l0,0
		C54.1,35.4,51.8,27.2,49.6,22.9L49.6,22.9z M52.4,50.5H37.8v-5.2h14.5V50.5z"/>
	<polygon class="st0" points="31.2,37.6 21.6,42.9 21.6,44.8 21.6,45.3 22.2,45.3 28.3,45.3 33.4,45.3 33.8,45.3 33.8,41.4 
		34.8,35.7 31.5,37.5 	"/>
	<polygon class="st0" points="58.8,45.3 66.5,45.3 68.6,45.3 68.6,44.5 68.6,42.9 63.5,40.2 60.1,38.3 58.8,37.6 55.4,35.7 
		56.4,41.4 56.4,45.3 	"/>
	<polygon class="st0" points="21,84 33.4,84 33.5,68.3 21,76.9 	"/>
	<polygon class="st0" points="56.6,68.3 56.8,84 69.2,84 69.2,76.9 	"/>
</g>
</svg>
