<?xml version="1.0" encoding="UTF-8"?><svg id="Layer_1" xmlns="http://www.w3.org/2000/svg" viewBox="0 0 81.37 81.37"><defs><style>.cls-1{fill:#fff;}</style></defs><path class="cls-1" d="m40.68,0C18.65,0,.66,17.61.03,39.5H0v2.5h.03c.69,21.83,18.66,39.37,40.65,39.37s40.68-18.25,40.68-40.68S63.12,0,40.68,0Zm.97,79.34v-24.07h-2v24.07c-20.42-.54-36.94-16.96-37.62-37.35h14.88v-2.5H2.03C2.66,18.71,19.75,2,40.68,2s37.79,16.48,38.64,37.06h-15.64v2.5h15.66c-.46,20.6-17.1,37.27-37.69,37.78Z"/><path class="cls-1" d="m29.88,48.39h21.55l-10.77-18.66-10.77,18.66Zm4.58-2.8l6.19-10.27,6.2,10.27h-12.39Z"/></svg>