<svg width="106" height="103" viewBox="0 0 106 103" fill="none" xmlns="http://www.w3.org/2000/svg">
<path d="M44.5596 36.2559C45.9019 36.2958 47.348 36.6975 48.7803 37.3135C51.2484 38.3749 53.9682 40.1979 56.5605 42.5635L57.376 41.7041C58.3041 40.7249 59.8593 40.7103 60.8066 41.6709C61.7484 42.6261 61.7182 44.1698 60.7393 45.0869L59.8311 45.9365C61.8174 48.2571 63.3575 50.6442 64.2988 52.833C64.9148 54.2654 65.3165 55.7113 65.3564 57.0537C65.3964 58.4012 65.0679 59.8389 63.9893 60.918C62.91 61.9972 61.4709 62.3272 60.123 62.2871C58.7808 62.2471 57.3355 61.8444 55.9033 61.2285C53.5952 60.2359 51.0665 58.5778 48.6279 56.4326L46.9141 58.0371C49.9611 61.404 52.3198 64.9347 53.7061 68.1582C54.5222 70.0561 55.065 71.9946 55.1191 73.8135C55.1734 75.6404 54.7283 77.6387 53.2188 79.1484C51.7089 80.6582 49.7099 81.1041 47.8828 81.0498C46.064 80.9956 44.1262 80.4518 42.2285 79.6357C38.8437 78.1801 35.1183 75.6543 31.6016 72.3828L30.4717 73.4404C34.6093 77.745 37.8124 82.3785 39.623 86.5889C40.5827 88.8206 41.2366 91.1301 41.3018 93.3232C41.3672 95.5275 40.8306 98.0024 38.9473 99.8857C37.0641 101.769 34.5898 102.305 32.3857 102.239C30.1924 102.174 27.8823 101.52 25.6504 100.561C21.246 98.6664 16.3817 95.2465 11.9121 90.8291L5.99512 96.373C5.87729 96.4832 5.6895 96.3679 5.73438 96.2129C5.7414 96.1888 5.75424 96.1667 5.77148 96.1484L11.3477 90.2637C6.96292 85.8129 3.56811 80.9757 1.68359 76.5938C0.723699 74.3617 0.0700536 72.0509 0.00488281 69.8574C-0.0584605 67.7223 0.442327 65.3338 2.18555 63.4746L2.3584 63.2959L2.53613 63.123C4.39546 61.3795 6.78461 60.879 8.91992 60.9424C11.1132 61.0075 13.4234 61.6613 15.6553 62.6211C19.8773 64.4368 24.5242 67.6533 28.8389 71.8076L29.8848 70.7061C26.1853 66.9246 23.3337 62.8399 21.75 59.1572C20.9339 57.2595 20.3901 55.3217 20.3359 53.5029C20.2817 51.6758 20.7275 49.6768 22.2373 48.167C23.7471 46.6574 25.7453 46.2124 27.5723 46.2666C29.3912 46.3207 31.3297 46.8635 33.2275 47.6797C36.779 49.207 40.7052 51.913 44.3721 55.4219L45.9141 53.7959C43.4116 51.1127 41.4879 48.274 40.3848 45.709C39.7689 44.2768 39.3661 42.8316 39.3262 41.4893C39.2862 40.1415 39.6152 38.7032 40.6943 37.624C41.7735 36.545 43.2119 36.2159 44.5596 36.2559ZM14.833 88.0918C23.1558 96.2725 32.4604 100.288 35.9551 97.2109L36.1191 97.0566C39.4167 93.7584 35.6112 84.5673 27.6045 76.2305L27.5518 76.1768L14.833 88.0918ZM26.0879 74.7109C17.7312 66.6551 8.49436 62.8172 5.18652 66.125C1.88928 69.4234 5.69469 78.6145 13.7012 86.9512L14.1006 87.3584L26.0879 74.7109ZM33.7959 70.3271C40.8099 76.7947 48.3389 79.7859 51.0977 77.0273C53.8086 74.3156 50.9637 66.9974 44.7246 60.0879L33.7959 70.3271ZM42.3086 57.5986C35.1161 50.7119 27.2027 47.4447 24.3584 50.2881C21.5077 53.1391 24.7974 61.0853 31.7188 68.292L31.9502 68.5273L42.3086 57.5986ZM50.0947 55.0576C55.237 59.5315 60.5623 61.5158 62.5742 59.5039C64.5492 57.5285 62.6738 52.3585 58.3711 47.3047L50.0947 55.0576ZM55.1836 44.0156C49.8629 39.171 44.1983 36.9487 42.1084 39.0381C39.989 41.1575 42.3042 46.9552 47.293 52.3408L55.1836 44.0156ZM81.2109 3.74707C81.4094 4.94251 81.8546 6.1848 82.4336 7.39551C83.8093 10.2717 86.1966 13.5189 89.2207 16.543C92.2449 19.5671 95.4919 21.9545 98.3682 23.3301C99.5793 23.9093 100.822 24.3544 102.018 24.5527L79.4307 47.1396H79.4297C77.4018 49.1673 71.1009 46.1535 65.3555 40.4082C59.61 34.6627 56.5962 28.3608 58.624 26.333C58.6286 26.3285 58.6331 26.3238 58.6377 26.3193L81.2109 3.74707ZM84.3252 0.631836C86.3532 -1.3956 92.6541 1.618 98.3994 7.36328C104.145 13.1088 107.159 19.4107 105.131 21.4385C103.103 23.4657 96.8017 20.452 91.0566 14.707C85.3111 8.96153 82.2974 2.65966 84.3252 0.631836Z" fill="white"/>
</svg>
