<?xml version="1.0" encoding="UTF-8"?><svg id="Layer_1" xmlns="http://www.w3.org/2000/svg" viewBox="0 0 35.84 35.87"><defs><style>.cls-1{fill:#fff;fill-rule:evenodd;}</style></defs><path class="cls-1" d="m17.53,18.71c-.61,0-1.11.7-1.11,1.56v1.56h-4.81c-.61,0-1.11.7-1.11,1.56v1.56H2.37c-.61,0-1.11.7-1.11,1.56v3.64h25.51v-9.89c0-.86-.5-1.56-1.11-1.56h-8.13Z"/><path class="cls-1" d="m26.95,16.93l4.84-1.12.04.21c.12.73.81,1.19,1.53,1.03.72-.16,1.2-.87,1.08-1.6l-.63-3.68c-.12-.73-.81-1.19-1.53-1.03-.61.13-1.04.66-1.09,1.25l-24.97,3.38c-.37-.33-.9-.48-1.43-.36-.93.2-1.55,1.12-1.39,2.05l.2,1.15-.71.17c-.16-.16-.37-.25-.6-.24-.49.01-.87.48-.86,1.04.01.56.42,1,.91.99.33,0,.61-.22.75-.52v.06s.73-.17.73-.17l.25,1.43c.16.93,1.04,1.53,1.96,1.33.46-.1.85-.38,1.1-.75l2.03-.47c.48-.66,1.32-1.31,2.46-1.31h2.76c.08-.64.3-1.26.68-1.79.48-.67,1.32-1.33,2.48-1.33h8.13c.48,0,.91.12,1.28.3Zm-7.67,1.78h-1.74c-.36,0-.68.24-.88.61l2.62-.61Z"/></svg>