<svg id="Layer_1" data-name="Layer 1" xmlns="http://www.w3.org/2000/svg" width="128" height="128" viewBox="0 0 128 128">
  <defs>
    <style>
      .cls-1 {
        fill: #fff;
        fill-rule: evenodd;
      }
    </style>
  </defs>
  <path class="cls-1" d="M117.922,5.99451,115.922,4l-2.40748,4.19457.0537.05371a140.23512,140.23512,0,0,0-24.1526,13.95413l16.52088,16.469A139.57723,139.57723,0,0,0,119.935,14.59662l.04261.04815,4.20939-2.40748-2.00006-1.9945a3.10195,3.10195,0,0,0-4.2594-4.25939h0ZM44.97349,65.55931,26.22105,88.673l-7.778,3.802-5.12422,5.10757-1.75932-1.75375-7.74653,7.741L24.308,124l7.7632-7.73913-1.75931-1.75375,5.12423-5.10758,3.81493-7.74653L62.437,82.96911A375.64957,375.64957,0,0,0,97.62327,49.12362c2.20378-2.50194,4.24458-5.02238,6.12241-7.50023L86.44144,24.37286c-2.48527,1.87228-5.01312,3.90568-7.52245,6.1113A375.52076,375.52076,0,0,0,44.97349,65.55931ZM21.55425,105.77722l-3.7779-3.76677,6.88355-6.86133,10.35032-2.77786Z"/>
</svg>
