<?xml version="1.0" encoding="UTF-8"?><svg id="Layer_1" xmlns="http://www.w3.org/2000/svg" viewBox="0 0 35.8 35.9"><defs><style>.cls-1{fill:#fff;}</style></defs><path class="cls-1" d="m10.8,18.5s1.1,2.3.7,5.5c-.4,4-1.9,5.5-1.9,5.5h13.6s.8-1.1.6-5.5c-.2-5.3-1.9-5.5-1.9-5.5h-11.1Z"/><path class="cls-1" d="m13,9.4s.8,1.5.6,3.7c-.3,2.6-1.5,3.7-1.5,3.7h10.3s.6-.8.5-3.7c-.2-3.5-1.5-3.7-1.5-3.7h-8.4Z"/><path class="cls-1" d="m1,29.5h7.3v-9.5h-2.7L1,29.5Z"/><path class="cls-1" d="m25.2,14.7c.2.3,9.2,14.8,9.2,14.8h-9.2v-14.8Z"/><rect class="cls-1" x="17" y="4.2" width="1.3" height="4.3"/></svg>