<?xml version="1.0" encoding="UTF-8"?><svg id="Layer_1" xmlns="http://www.w3.org/2000/svg" xmlns:xlink="http://www.w3.org/1999/xlink" viewBox="0 0 72.71 75.82"><defs><style>.cls-1{fill:#fff;}.cls-2{fill:#090909;}.cls-3{fill:url(#linear-gradient);}</style><linearGradient id="linear-gradient" x1="0" y1="60.03" x2="72.71" y2="60.03" gradientUnits="userSpaceOnUse"><stop offset="0" stop-color="#9a9a9b"/><stop offset=".52" stop-color="#fff"/><stop offset="1" stop-color="#8b8b8b"/></linearGradient></defs><polygon class="cls-1" points="15.08 40.01 20.38 44.25 29.18 44.25 24.37 36.39 33.44 43.83 35.13 23.58 38.95 43.34 45.89 36.39 42.57 44.25 52.85 44.25 59.59 39.13 46.78 42.85 58.81 21.33 43.74 34.73 47.47 13.11 40.01 28.37 35.33 0 31.42 34.83 25.16 21.52 28.87 35.9 13.12 22.35 23.49 41.18 15.08 40.01"/><g><rect class="cls-2" x="3" y="47.25" width="66.71" height="25.57"/><path class="cls-3" d="m69.71,47.25v25.57H3v-25.57h66.71m3-3H0v31.57h72.71v-31.57h0Z"/></g></svg>