<svg xmlns="http://www.w3.org/2000/svg" width="100" height="100" viewBox="0 0 100 100">
  <defs>
    <style>
      .cls-1 {
        fill: #fff;
        fill-rule: evenodd;
      }
    </style>
  </defs>
  <g id="Layer_7" data-name="Layer 7">
    <path class="cls-1" d="M55.80618,98.007s-20.09189,3.97807-30.89381-15.24882c-10.80211-19.22671,7.26432-29.365,6.11648-40.20758,0,0,6.19777,9.46132,3.82136,18.53618-2.3764,9.07468,15.99245,3.15591,4.773-16.11913C29.80779,28.10439,42.19544,13.365,49.97309,1.65217c0,0-6.04912,14.144,3.45668,22.98381,9.506,8.8398,10.01235,26.25011,9.36411,32.65914,0,0,8.29957-4.81121,9.86352-17.63127,0,0,14.7117,32.71588-2.37641,39.33745-21.97529,8.5154-3.1797,10.1383,4.32077,5.74595C74.60176,84.74725,74.208,94.62541,55.80618,98.007Z"/>
  </g>
</svg>
