<?xml version="1.0" encoding="UTF-8"?><svg id="Layer_1" xmlns="http://www.w3.org/2000/svg" viewBox="0 0 90.26 86.98"><defs><style>.cls-1{fill:#fff;}</style></defs><path class="cls-1" d="m72.89,9.17l-17.65,5.66,8.82-11.77-13,6.64v16.9s1.23,1.63,2.79,6.59,2.03,10.37,2.03,10.37l7.07,1.45,16.27,2.39-17.2-12.9,19.68-14.48-20.59,2.94,11.77-13.8Z"/><path class="cls-1" d="m36.87,33.88c1.57-4.96,2.84-7.53,2.84-7.53l-.03-19.01-4.9-4.28v10.63l-7.92-8.37,3.39,18.55-17.87-7.92,12.22,19.01h-15.84l14.03,6.79-11.77,11.31,19.06-7.33,4.93-1.78s.29-5.12,1.86-10.08Z"/><polygon class="cls-1" points="53.86 74.36 53.86 69.14 53.86 69.14 36.94 69.14 36.94 69.14 36.94 74.36 36.94 74.36 53.86 74.36 53.86 74.36"/><polygon class="cls-1" points="23.46 83.14 34.25 83.14 34.36 72.98 23.46 76.83 23.46 83.14"/><polygon class="cls-1" points="67.34 76.83 56.44 72.98 56.55 83.14 67.34 83.14 67.34 76.83"/><polygon class="cls-1" points="53.86 83.75 53.86 79.58 36.94 79.58 36.94 83.75 36.94 84.79 44.29 84.79 45.4 84.79 53.86 84.79 53.86 83.75"/><polygon class="cls-1" points="53.86 63.92 53.86 58.71 36.94 58.71 36.94 63.92 36.94 63.92 53.86 63.92 53.86 63.92"/><path class="cls-1" d="m53.45,42.09s0-.06-.01-.09c-.05-.31-.11-.62-.17-.94,0-.04-.01-.08-.02-.12-.06-.31-.12-.62-.18-.93,0-.04-.02-.08-.03-.12-.06-.31-.13-.63-.2-.94,0-.03-.01-.05-.02-.08-.3-1.36-.64-2.71-1.01-4.01,0,0,0-.01,0-.02-.07-.24-.14-.48-.21-.71-.03-.11-.07-.22-.1-.33-.06-.2-.12-.4-.19-.6-.04-.14-.09-.28-.13-.42-.06-.18-.12-.35-.18-.53-.05-.15-.1-.3-.15-.45-.06-.16-.11-.32-.17-.48-.06-.16-.11-.31-.17-.46-.05-.14-.11-.29-.16-.43-.06-.16-.12-.31-.18-.47-.05-.12-.1-.25-.15-.37-.07-.17-.14-.33-.21-.49-.04-.1-.08-.2-.13-.29-.1-.23-.21-.45-.31-.66,0-.02-.02-.04-.03-.06-.08-.17-.16-.44-.24-.61v-8.62h0v-.15h0V4.25h0s-7.26,0-7.26,0h0v11.78h0v.11h0v11.35c-.12.24-.24.36-.36.61,0,.02-.02.04-.03.06-.11.21-.22.42-.33.65-.04.09-.09.19-.13.29-.07.16-.15.32-.22.49-.05.12-.1.24-.16.37-.07.15-.13.31-.2.47-.06.14-.11.28-.17.43-.06.15-.12.31-.18.46-.06.16-.12.32-.18.48-.05.15-.1.29-.16.44-.06.18-.13.36-.19.55-.04.13-.09.27-.13.4-.07.21-.14.42-.2.63-.03.1-.06.21-.1.32-.08.25-.15.49-.22.74-.01.04-.02.08-.04.13-.18.61-.34,1.23-.5,1.85-.02.09-.05.18-.07.27-.16.63-.31,1.26-.44,1.89,0,.04-.02.08-.03.12-.28,1.32-.52,2.63-.68,3.87,0,.01,0,.03,0,.04h0c-.08.57-.14,1.13-.19,1.67v8.76h16.92v-8.5c-.07-.63-.16-1.27-.26-1.93h0c-.05-.32-.1-.64-.15-.96Z"/></svg>