<svg id="Layer_1" data-name="Layer 1" xmlns="http://www.w3.org/2000/svg" width="128" height="128" viewBox="0 0 128 128">
  <defs>
    <style>
      .cls-1 {
        fill: #fff;
      }
    </style>
  </defs>
  <g id="Layer_2" data-name="Layer 2">
    <g>
      <path class="cls-1" d="M17.64159,94.46546a1.119,1.119,0,0,0,.95078-.31211L29.454,83.39348a.74846.74846,0,0,0-.46964-1.278L14.34067,80.99636A3.54858,3.54858,0,0,0,11.574,82.01249L4.15868,89.35143A1.93323,1.93323,0,0,0,5.23685,92.6381Z"/>
      <path class="cls-1" d="M45.85326,98.13034,35.09339,108.992a1.11938,1.11938,0,0,0-.31217.95095l1.82738,12.40474a1.93323,1.93323,0,0,0,3.2866,1.07811l7.339-7.41532a3.54862,3.54862,0,0,0,1.01618-2.76666L47.13125,98.60009a.74839.74839,0,0,0-1.278-.46975Z"/>
      <path class="cls-1" d="M23.093,101.64767l-6.35576,6.35575a2.59855,2.59855,0,0,0,3.67491,3.6749l6.35576-6.35575c3.56865,2.8511,4.17057,1.60826,4.17057,1.60826l73.39227-72.79529L94.28,24.08482,21.48472,97.477S20.24166,98.079,23.093,101.64767Z"/>
      <path class="cls-1" d="M123.65981,4.00176c-.29859-.04936-7.65381.578-17.29488,7.89916l-9.06579,9.14017,10.0754,10.07538,9.14015-9.06578c7.32113-9.64107,7.9485-16.99625,7.89909-17.29494a.91334.91334,0,0,0-.28776-.46628A.91321.91321,0,0,0,123.65981,4.00176Z"/>
    </g>
  </g>
</svg>
