<?xml version="1.0" encoding="UTF-8"?><svg id="Layer_1" xmlns="http://www.w3.org/2000/svg" viewBox="0 0 55.47 55.47"><defs><style>.cls-1{fill:#fff;}</style></defs><g><path class="cls-1" d="m37.71,41.2l-5.93-2.4c-1.12,0-1.08-1.88-1.08-3.03v-1.35c0-1.14-.04-3.03,1.08-3.03l5.93-2.4c1.12,0,1.08.93,1.08,2.06v8.07c0,1.14.04,2.06-1.08,2.06h0Z"/><ellipse class="cls-1" cx="24.75" cy="26.84" rx="3.9" ry="3.97"/><ellipse class="cls-1" cx="15.71" cy="26.84" rx="3.9" ry="3.97"/><path class="cls-1" d="m24.81,32.77c-1.9,0-3.57-.93-4.63-2.36-1.06,1.43-2.73,2.36-4.63,2.36-1.64,0-3.11-.7-4.17-1.81v8.29c0,1.08.86,1.95,1.91,1.95h13.93c1.06,0,1.91-.88,1.91-1.95v-8.46c-1.06,1.21-2.6,1.98-4.32,1.98Z"/></g><path class="cls-1" d="m20.87,8.2l-7.95,5.51,7.95,5.16v-3.4h21.05s4.38.44,4.25,6.1c-.11,4.83-4,6.05-4,6.05v3.57s7.13-.76,7.13-9.39c0-9.79-7.38-10.17-7.38-10.17h-21.06v-3.42Z"/></svg>