<?xml version="1.0" encoding="UTF-8"?><svg id="Layer_1" xmlns="http://www.w3.org/2000/svg" viewBox="0 0 90.26 86.98"><defs><style>.cls-1{fill:#fff;}</style></defs><polygon class="cls-1" points="33.65 68.33 33.52 83.98 21.12 83.98 21.12 76.84 33.65 68.33"/><g><polygon class="cls-1" points="31.61 37.46 31.36 37.6 21.68 42.93 21.68 44.79 21.68 45.24 22.29 45.24 28.4 45.24 33.55 45.24 33.92 45.24 33.92 41.37 34.9 35.65 31.61 37.46"/><polygon class="cls-1" points="63.65 40.15 60.23 38.26 58.94 37.55 55.49 35.65 56.47 41.37 56.47 45.24 58.96 45.24 66.65 45.24 68.71 45.24 68.71 44.47 68.71 42.93 63.65 40.15"/></g><polygon class="cls-1" points="56.74 68.33 56.87 83.98 69.27 83.98 69.27 76.84 56.74 68.33"/><path class="cls-1" d="m49.72,22.9c-1.78-3.74-3.53-6.12-4.53-6.85-.96.7-2.73,3.18-4.51,6.85-2.29,4.21-4.7,12.72-5.21,18.78v2.45h0v42.84h19.45v-41.74h0v-3.26c-.72-6.55-3-14.74-5.19-19.08Z"/></svg>