<svg id="Layer_2" data-name="Layer 2" xmlns="http://www.w3.org/2000/svg" width="128" height="128" viewBox="0 0 128 128">
  <defs>
    <style>
      .cls-1, .cls-2 {
        fill: #fff;
      }

      .cls-1 {
        fill-rule: evenodd;
      }
    </style>
  </defs>
  <path class="cls-1" d="M71.26166,86.01724a2.17945,2.17945,0,0,0-3.94848-.75363s-7.96582,14.40805-12.28341,18.19807c0,0-.79653.72987-1.24507,1.05014a11.20322,11.20322,0,0,1-15.63111-2.60531A11.4331,11.4331,0,0,1,36.3349,92.984c.31518-1.6091,3.06945-11.56933,5.7477-21.13669l20.06079,16.637a1.25085,1.25085,0,0,0,.80615.30474,1.28026,1.28026,0,0,0,1.08434-1.95855L49.30328,63.05556l-.0099.0085a5.8731,5.8731,0,0,0-4.02216-2.55933c1.24026-4.39589,2.102-7.43422,2.102-7.43422a13.18471,13.18471,0,0,0-3.59482-7.665,15.29974,15.29974,0,0,0-11.00923-4.92,13.33627,13.33627,0,0,0-3.9533.59456,14.40967,14.40967,0,0,0-9.5614,17.8325A14.2481,14.2481,0,0,0,22.614,64.70482c3.76231,4.76956,1.7614,10.28224.29718,13.06755-.35875.59283-.73128,1.17615-1.06881,1.77747l-.02858.03982.00824-.00114c-3.48327,6.21264-5.8175,12.77687-6.35384,17.98848-1.49876,14.56625,10.01865,27.68459,25.72464,29.30052a31.1868,31.1868,0,0,0,3.188.16442c14.36456,0,26.56834-10.04047,27.96485-23.61245A63.06559,63.06559,0,0,0,71.26166,86.01724ZM43.46772,63.18806a2.93156,2.93156,0,1,1-1.98451,3.63912A2.92605,2.92605,0,0,1,43.46772,63.18806ZM33.3044,61.82294a7.38033,7.38033,0,1,1,2.08482-.30167A7.37764,7.37764,0,0,1,33.3044,61.82294Z"/>
  <path class="cls-1" d="M93.652,3.26087A31.15224,31.15224,0,1,0,124.72943,34.413,31.11475,31.11475,0,0,0,93.652,3.26087Zm16.89889,20.98528L100.407,34.413l10.14388,10.16661V47.9685l-3.38125,3.38887h-3.38144L93.6444,41.19076,83.50052,51.35737H80.11907L76.73789,47.9685V44.57963L86.8817,34.413,76.73789,24.24615V20.85728l3.38118-3.38887h3.38145L93.6444,27.63529l10.14382-10.16688h3.38144l3.38125,3.38887Z"/>
  <g>
    <path class="cls-2" d="M33.14051,24.16486A12.096,12.096,0,0,1,32.5542,18.627a5.15429,5.15429,0,0,1,.49036-1.47638c7.02637-.19836,15.99536,3.11426,24.3562,9.47577A36.9149,36.9149,0,0,1,60.812,17.19635a58.49255,58.49255,0,0,0-14.25281-7.02124A28.775,28.775,0,0,0,40.035,8.87323a15.52112,15.52112,0,0,0-7.76929,1.27985l-1.10986.64367a5.59323,5.59323,0,0,0-.91138.63782l-.64953.55615-.32654.27967-.26294.27087-.04553.05841-.09046.11725-.18091.23694a11.21256,11.21256,0,0,0-2.147,4.20245,18.26071,18.26071,0,0,0,.01587,8.70947,38.06041,38.06041,0,0,0,4.53662,10.87287c.55554-.054,1.11353-.091,1.67529-.091A18.72246,18.72246,0,0,1,43.255,39.962c-1.17773-1.29364-2.32153-2.60639-3.37158-3.96436A40.70526,40.70526,0,0,1,33.14051,24.16486Z"/>
    <path class="cls-2" d="M63.35023,55.78253c-.45484-.24219-.9087-.48816-1.35914-.74335A74.49022,74.49022,0,0,1,50.047,46.55194l-1.61242-1.441a16.90449,16.90449,0,0,1,2.7467,7.4867,3.824,3.824,0,0,1-.11621,1.52038c-.00037.00086-.312,1.09949-.825,2.91181a59.48752,59.48752,0,0,0,8.06616,4.931,41.70333,41.70333,0,0,0,15.67993,4.75538c.48584.03259.97925.047,1.47534.05169A37.37257,37.37257,0,0,1,63.35023,55.78253Z"/>
  </g>
  <g>
    <path class="cls-2" d="M64.80359,11.11115a66.81151,66.81151,0,0,0-8.7279-4.84577A57.93491,57.93491,0,0,0,41.475,1.661a33.49086,33.49086,0,0,0-9.02075-.32025,21.28269,21.28269,0,0,0-9.666,3.28149,13.20685,13.20685,0,0,0-2.1643,1.642l-.85962.80414-.43152.40393c.1333-.14239-.24255.248-.22351.23529l-.053.06946-.106.13977-.2124.28027a28.29171,28.29171,0,0,0-1.64026,2.30957q-.633,1.27112-1.2727,2.55744a24.75618,24.75618,0,0,0-1.37781,11.11236A37.80359,37.80359,0,0,0,17.03846,34.9679a46.60666,46.60666,0,0,0,3.30261,6.851,18.039,18.039,0,0,1,5.54431-3.73956,42.85178,42.85178,0,0,1-2.783-5.54,31.59009,31.59009,0,0,1-2.541-8.986,18.91222,18.91222,0,0,1,.65869-8.4375l.81665-1.80206c.30249-.57873.7251-1.073,1.06543-1.62189l.13354-.2019.06641-.10138.02466-.03729.30273-.30536.82862-.83582a6.73213,6.73213,0,0,1,1.50659-1.20349A16.30661,16.30661,0,0,1,33.089,6.37579a28.6137,28.6137,0,0,1,7.7229-.0028,47.68791,47.68791,0,0,1,13.43042,3.921,61.76248,61.76248,0,0,1,8.06617,4.30975A37.34179,37.34179,0,0,1,64.80359,11.11115Z"/>
    <path class="cls-2" d="M84.63807,70.4494a19.41435,19.41435,0,0,1-7.71485,1.64868,31.58511,31.58511,0,0,1-9.26342-1.18152,52.449,52.449,0,0,1-9.28809-3.301c-.84815-.39612-1.6853-.824-2.51587-1.27l6.0249,9.72382a36.84094,36.84094,0,0,0,4.27613,1.2044,37.82483,37.82483,0,0,0,11.05639.96314,24.75494,24.75494,0,0,0,10.78552-3.00977c.85755-.57281,1.70044-1.17614,2.51392-1.78485.72644-.59686,1.17017-1.14282,1.76392-1.71118l.19421-.196A36.9037,36.9037,0,0,1,84.63807,70.4494Z"/>
  </g>
</svg>
