<?xml version="1.0" encoding="UTF-8"?><svg id="Layer_1" xmlns="http://www.w3.org/2000/svg" viewBox="0 0 90.26 86.98"><defs><style>.cls-1{fill:#fff;}</style></defs><path class="cls-1" d="m56.9,23.49l18.33-6.34-17.87-1.36,7.69-12.22-14.71,7.24V3.58l-6.11,5.66-7.01-4.53,2.94,6.56-11.54-3.62,3.85,8.6H15.04l16.52,7.47-12.67,9.05,14.09-2.14c1.3-3.42,2.88-6.61,4.48-8.82,2.36-3.64,4.93-6.5,6.71-7.47l.96-.52.96.52c1.89,1.03,4.48,3.91,6.77,7.51,1.5,2.22,2.98,5.32,4.24,8.67l18.13,2.25-18.33-9.28Z"/><path class="cls-1" d="m57.93,40.81c-1.13-6.33-3.99-13.83-6.75-17.91-2.37-3.74-4.72-6.12-6.05-6.85-1.28.7-3.65,3.18-6.02,6.85-2.92,4.01-5.97,11.92-6.85,17.91h-.12v46.17h25.98v-46.17h-.19Z"/></svg>