<svg width="50" height="36" viewBox="0 0 50 36" fill="none" xmlns="http://www.w3.org/2000/svg">
<path d="M24.6357 0.00367708C29.2819 -0.0652082 33.8916 0.834444 38.1709 2.64528C42.0129 4.2711 45.5117 6.60049 48.4922 9.50758L48.5469 9.45387L49.9092 10.8172L25.1377 35.5886L25.0723 35.5232L24.6924 35.9041L0 11.2117L1.3623 9.84938L1.39355 9.88063C4.21774 7.03714 7.53337 4.7195 11.1855 3.04469C15.4091 1.10793 19.9898 0.0725719 24.6357 0.00367708ZM26.1641 31.8347L33.8232 24.1765C32.699 23.4053 31.4858 22.786 30.2139 22.3298L26.1641 31.8347ZM19.2637 22.4275C18.0363 22.8926 16.8656 23.5083 15.7822 24.2683L23.2168 31.7029L19.2637 22.4275ZM24.4414 21.407C23.1099 21.4432 21.7973 21.6449 20.5322 22.0056L24.4414 31.1775V21.407ZM25.7734 29.3533L28.9365 21.9314C27.9062 21.6576 26.847 21.4878 25.7734 21.4265V29.3533ZM15.5244 13.6521C13.3131 14.7824 11.3397 16.3237 9.71094 18.198L15.0225 23.5095C16.2089 22.6576 17.4952 21.9664 18.8477 21.45L15.5244 13.6521ZM30.6309 21.3523C32.0278 21.8591 33.3585 22.5505 34.5859 23.4138L39.5537 18.4461C37.9387 16.582 35.996 15.0282 33.8213 13.867L30.6309 21.3523ZM24.4414 11.5115C21.7845 11.5108 19.1624 12.0465 16.7314 13.0857L20.1143 21.0232C21.5122 20.6127 22.9662 20.383 24.4414 20.3455V11.5115ZM25.7734 20.3631C26.9907 20.4281 28.1918 20.6242 29.3564 20.9451L32.624 13.2791C30.4559 12.3005 28.1358 11.7175 25.7734 11.5574V20.3631ZM34.3379 12.6541C36.6674 13.8833 38.7518 15.5314 40.4854 17.5144L47.7178 10.282C44.9311 7.56624 41.6761 5.37353 38.1064 3.81129L34.3379 12.6541ZM11.4639 4.12379C8.0004 5.73757 4.8543 7.94973 2.16797 10.655L8.76758 17.2547C10.5162 15.2601 12.6327 13.6229 15.002 12.4265L11.4639 4.12379ZM25.7734 10.2332C28.3133 10.3966 30.8087 11.0182 33.1396 12.0681L36.876 3.30153C33.3326 1.92157 29.5744 1.17767 25.7734 1.10231V10.2332ZM24.4414 1.10426C20.3985 1.19054 16.4112 2.03327 12.6836 3.58668L16.21 11.8631C18.8055 10.7553 21.6052 10.1872 24.4414 10.1902V1.10426Z" fill="white"/>
</svg>
