<svg id="Layer_1" data-name="Layer 1" xmlns="http://www.w3.org/2000/svg" width="128" height="128" viewBox="0 0 128 128">
  <defs>
    <style>
      .cls-1 {
        fill: #fff;
        fill-rule: evenodd;
      }
    </style>
  </defs>
  <path class="cls-1" d="M121.30575,100.63825,100.68717,76.80547c.47052-.7922,1.02854-1.8697.81751-2.2214-.34731-.579-1.158-1.50536-1.62111-1.50536a5.08468,5.08468,0,0,0-1.5487,1.0078l-2.23768-2.58666,7.57868-7.57875a3.712,3.712,0,0,0,0-5.24938l-.78658-.7865.8878-.8878.28959.28951,8.3373,8.3373a2.31062,2.31062,0,0,0-.11577-2.6633l-7.52674-6.60031-.32576-.02174.60086-.6007a.96211.96211,0,0,0-1.36064-1.36058l-.60069.60068-.02184-.32565L96.45315,47.1259a2.311,2.311,0,0,0-2.66343-.11585l8.33746,8.33739.28942.2895-.88779.8878-.9409-.94089a3.49345,3.49345,0,0,0-4.94047-.00012l-.00012.00012-7.14139,7.14149-6.57081-7.595a8.228,8.228,0,0,1-.22476-1.34187,45.61,45.61,0,0,0,3.81432-5.60584,4.69186,4.69186,0,0,0-.09592-5.39652l.005-.02116s-.03506-.03681-.10254-.096c-.0592-.06748-.09591-.10254-.09591-.10254l-.02117.005a4.69222,4.69222,0,0,0-5.39652-.09592,45.6342,45.6342,0,0,0-5.606,3.81439,8.26446,8.26446,0,0,1-1.34177-.22468L65.2748,39.49429l7.14157-7.14147a3.49361,3.49361,0,0,0,0-4.94059l-.94089-.9409.8878-.88778.28942.28951,8.33746,8.3373a2.31094,2.31094,0,0,0-.11577-2.6633l-7.52675-6.60033-.32575-.02176.60068-.60068a.962.962,0,0,0,.00015-1.36043l-.00015-.00014v-.0001a.962.962,0,0,0-1.36048,0l-.60068.60078-.02183-.32576-6.60025-7.52675a2.31093,2.31093,0,0,0-2.66338-.11576l8.3373,8.3373.28959.28951-.8878.88779-.78657-.78649a3.71184,3.71184,0,0,0-5.24934,0l0,0L56.50043,31.903,53.91368,29.6653a5.086,5.086,0,0,0,1.00771-1.54867c0-.46312-.92633-1.27374-1.50535-1.62113-.35179-.211-1.42912.34689-2.22131.81751L27.36186,6.69428s-3.64761-2.837-7.00578-.86853c-3.358,1.9686-4.80548,5.61612-2.60534,10.13224L40.7942,50.00208l9.952,12.67069a11.02343,11.02343,0,0,1-1.325,7.8831s-9.25041,10.28432-19.944,24.206L15.93132,81.992a7.07125,7.07125,0,0,0-3.78321-1.87126,5.72644,5.72644,0,0,0-5.20506,1.8025,6.18018,6.18018,0,0,0-1.79129,3.73989A5.83557,5.83557,0,0,0,6.4345,89.83824l11.53873,14.61753,4.16477-1.18732-5.77233,6.952.48275.7105.22079.22071.71038.48285,6.952-5.77233-1.19705,4.15484L38.16207,121.5655a5.835,5.835,0,0,0,4.175,1.28266,6.17776,6.17776,0,0,0,3.73971-1.79123,5.726,5.726,0,0,0,1.80276-5.205,7.07089,7.07089,0,0,0-1.87134-3.78305l-12.77-13.546C47.16,87.82932,57.444,78.57908,57.444,78.57908a11.02327,11.02327,0,0,1,7.88331-1.32525L77.998,87.20593l34.04412,23.04346c4.51608,2.20015,8.16365.75268,10.13225-2.60541C124.14279,104.28586,121.30575,100.63825,121.30575,100.63825Z"/>
</svg>
