<svg id="Layer_1" data-name="Layer 1" xmlns="http://www.w3.org/2000/svg" width="128" height="128" viewBox="0 0 128 128">
  <defs>
    <style>
      .cls-1, .cls-2 {
        fill: #fff;
      }

      .cls-2 {
        fill-rule: evenodd;
      }
    </style>
  </defs>
  <g>
    <g>
      <path class="cls-1" d="M80.17981,101.8537a41.03315,41.03315,0,0,1-13.32373,3.24206V91.68469c0-1.1582-.40552-6.19348-2.89868-6.19348-2.49341,0-2.89868,5.03528-2.89868,6.19348V105.111A41.12,41.12,0,0,1,22.90125,66.91693H36.37317a14.98441,14.98441,0,0,0,4.1001-.60748l.09765-4.4a14.3803,14.3803,0,0,0-4.19775-.6983v.00305h-13.469A40.98233,40.98233,0,0,1,28.01233,44.05l-3.3374-3.33734a45.51167,45.51167,0,0,0-6.3396,20.49847H14.23572c-1.15821,0-2.09693.4054-2.09693,2.89862s.93579,2.80719,2.094,2.80719h4.09936A45.67708,45.67708,0,0,0,61.068,109.66772V113.816c0,1.1582.40528,2.097,2.89844,2.097s2.89868-.93878,2.89868-2.097v-4.15436a45.613,45.613,0,0,0,14.2439-3.24792Z"/>
      <path class="cls-1" d="M43.97937,28.118A40.98248,40.98248,0,0,1,61.0343,23.05353V36.51642a14.74107,14.74107,0,0,0,.62378,3.97027l4.582-.1018a14.87088,14.87088,0,0,0,.59156-3.86847V23.05353a41.12008,41.12008,0,0,1,38.12988,38.124H91.52942c-1.15845,0-6.1936.4054-6.1936,2.89862,0,2.49329,5.03515,2.99616,6.1936,2.99616h13.42627a41.04026,41.04026,0,0,1-3.21338,13.19085l4.55518.92829a45.61587,45.61587,0,0,0,3.22412-14.11914h4.24267c1.15821,0,2.09693-.49982,2.09693-2.99616,0-2.49627-.93872-2.89862-2.09693-2.89862h-4.23681A45.67674,45.67674,0,0,0,66.83459,18.48163V14.184c0-1.1582-.40527-2.097-2.89868-2.097-2.49316,0-2.89868.93878-2.89868,2.097v4.29767A45.51042,45.51042,0,0,0,40.63831,24.7771Z"/>
    </g>
    <path class="cls-2" d="M49.49792,76.39676,59.87829,66.01639,85.1759,91.31393l4.1897,20.55927L98.62,102.619l.08985-.191c.05249-.00727.10473-.02075.15722-.0315l5.25342,5.25324,3.56445-3.56452-5.3059-5.30584.15185-.07148L111.785,89.4537,91.22571,85.26388,66.00183,60.04007,76.63952,49.40249l-2.19824-2.19812-20.8125.46253L33.17883,27.217c-.42334-.42316-9.33691-7.11066-12.24219-7.11a.94344.94344,0,0,0-.69067.22693c-1.6709,1.67066,6.41626,12.46625,6.88281,12.933L47.7511,53.88919l-.45142,20.30945Z"/>
  </g>
</svg>
