<?xml version="1.0" encoding="UTF-8"?><svg id="Layer_1" xmlns="http://www.w3.org/2000/svg" viewBox="0 0 62.96 62.96"><defs><style>.cls-1,.cls-2{fill:#fff;}.cls-2{fill-rule:evenodd;}</style></defs><g><polygon class="cls-1" points="3.24 51.64 0 51.64 0 59.72 0 62.96 3.24 62.96 11.32 62.96 11.32 59.72 3.24 59.72 3.24 51.64"/><polygon class="cls-1" points="59.72 59.72 51.64 59.72 51.64 62.96 59.72 62.96 62.96 62.96 62.96 59.72 62.96 51.64 59.72 51.64 59.72 59.72"/><polygon class="cls-1" points="3.24 3.24 11.32 3.24 11.32 0 3.24 0 0 0 0 3.24 0 11.32 3.24 11.32 3.24 3.24"/><polygon class="cls-1" points="59.72 0 51.64 0 51.64 3.24 59.72 3.24 59.72 11.32 62.96 11.32 62.96 3.24 62.96 0 59.72 0"/></g><path class="cls-2" d="m54.67,44.82l-14.93-15.89,2.78-3.75c.43-.76-.1-1.65-.83-2.55l.29-.3,5.03,4.84c.52-.23.88-.85.14-1.56-1.43-1.28-2.95-2.46-4.54-3.52l.12-.12c.1-.1.1-.27,0-.37,0,0,0,0,0,0l-.3-.31.12-.12c.06-.05.06-.14,0-.2,0,0,0,0,0,0l-.02-.02-.02-.02c-.05-.06-.14-.06-.2,0,0,0,0,0,0,0l-.12.12-.31-.3c-.1-.1-.27-.1-.37,0,0,0,0,0,0,0l-.12.12c-1.07-1.59-2.25-3.11-3.52-4.54-.72-.73-1.33-.37-1.56.14l4.84,5.03-.3.29c-.9-.72-1.79-1.26-2.55-.83l-3.75,2.78-15.89-14.93c-1.35-1.36-5.18,3.9-5.13,5.07.03.07.07.14.11.2l.94,1.3,11.94,16.31h0c-2.71,3.4-5.21,6.95-7.48,10.66l-7.07-3.63-.37-.2c-.14.05-.27.11-.4.18-.45.27-.83.64-1.11,1.09-.37.51-.7,1.04-.99,1.6l4.24,5.66,2.59-.3-1.44,1.67.31.29.29.31,1.67-1.44-.3,2.59,5.66,4.24c.56-.29,1.09-.62,1.6-.99.44-.28.81-.66,1.09-1.11.07-.13.13-.26.18-.4l-.2-.37-3.63-7.07c3.7-2.27,7.26-4.76,10.65-7.48h0s16.31,11.93,16.31,11.93l1.3.94c.06.04.13.08.2.11,1.17.05,6.44-3.78,5.07-5.13Z"/></svg>