<svg id="Layer_1" data-name="Layer 1" xmlns="http://www.w3.org/2000/svg" width="128" height="128" viewBox="0 0 128 128">
  <defs>
    <style>
      .cls-1 {
        fill: #fff;
      }
    </style>
  </defs>
  <g id="Layer_2" data-name="Layer 2">
    <g>
      <path class="cls-1" d="M21.43194,67.954A9.48783,9.48783,0,0,0,8.46632,64.5003L5.15277,66.41939a2.31192,2.31192,0,0,0,2.3177,4.001l3.31325-1.91919a4.86426,4.86426,0,0,1,6.6473,1.77069l0,.00007,1.06253,1.83358a4.87009,4.87009,0,0,1-1.77112,6.64754l-3.313,1.919a2.3118,2.3118,0,1,0,2.31741,4.00091L19.03981,82.754a9.49938,9.49938,0,0,0,3.45459-12.9664Z"/>
      <path class="cls-1" d="M89.63737,32.2986l34.36306-19.7651-2.31175-4.01911-34.36306,19.765-1.359-2.36276L48.10992,47.69126l-5.20241-1.56807-.03906-.05557-4.7473,2.7809L30.9657,45.26827l7.36214-4.23464L36.6049,38.03794,17.59683,48.97107l1.72305,2.99569,8.44-4.85456,5.80852,4.40326L23.95355,57.1476l1.918,3.33468-3.4495,1.98408,5.05309,8.78514L50.72639,57.8778,61.7676,66.90139H57.46976v6.62617H60.528v8.66487l-7.30734,32.451H47.36069v4.84217H85.92807v-4.84217H81.0875l-7.30729-32.451V73.52756h5.77664V66.90139H74.1398V60.4659a6.63457,6.63457,0,0,0-4.62648-6.32347l-8.066-2.43117L91.01974,34.7018Zm-19.267,53.122,3.83476,29.90251H60.10323l3.83465-29.90257Z"/>
    </g>
  </g>
</svg>
