<?xml version="1.0" encoding="UTF-8"?><svg id="Layer_1" xmlns="http://www.w3.org/2000/svg" viewBox="0 0 72.6 85.5"><defs><style>.cls-1{fill:#fff;}</style></defs><path class="cls-1" d="m52.9,31.5l19.7-14.5-20.6,2.9,11.8-13.8-17.7,5.7L54.9,0l-18.3,9.3L26,0v10.6l-7.9-8.4,3.4,18.5L3.6,12.8l12.2,19H0l8.4,7-6.1,11,8.5-4.7.1-4.6,14.6-8.9s2.4-7.7,5-12.4c2.9-5.1,5.9-8.3,5.9-8.3,0,0,3.5,3.6,5.7,7.8,2.4,4.7,4.7,12.6,4.7,12.6l15,8.5.2,3,8.3,1.2-17.4-12.5h0Z"/><g><path class="cls-1" d="m40.8,21.4c-1.8-3.7-3.5-6.1-4.5-6.9-1,.7-2.7,3.2-4.5,6.9-2.3,4.2-4.7,12.7-5.2,18.8v45.3h19.5v-45h0c-.8-6.6-3.1-14.8-5.3-19.1h0Zm2.8,27.6h-14.6v-5.2h14.5v5.2h.1Z"/><polygon class="cls-1" points="22.4 36.1 12.8 41.4 12.8 43.3 12.8 43.8 13.4 43.8 19.5 43.8 24.6 43.8 25 43.8 25 39.9 26 34.2 22.7 36 22.4 36.1"/><polygon class="cls-1" points="50 43.8 57.7 43.8 59.8 43.8 59.8 43 59.8 41.4 54.7 38.7 51.3 36.8 50 36.1 46.6 34.2 47.6 39.9 47.6 43.8 50 43.8"/><polygon class="cls-1" points="12.2 82.5 24.6 82.5 24.7 66.8 12.2 75.4 12.2 82.5"/><polygon class="cls-1" points="47.8 66.8 48 82.5 60.4 82.5 60.4 75.4 47.8 66.8"/></g></svg>