<svg id="Layer_1" data-name="Layer 1" xmlns="http://www.w3.org/2000/svg" width="128" height="128" viewBox="0 0 128 128">
  <defs>
    <style>
      .cls-1 {
        fill: #fff;
      }
    </style>
  </defs>
  <g id="Layer_2" data-name="Layer 2">
    <g>
      <polygon class="cls-1" points="60.552 49.756 46.945 49.665 30.036 66.574 33.766 76.542 60.552 49.756"/>
      <polygon class="cls-1" points="51.459 94.236 61.428 97.966 78.337 81.057 78.246 67.45 51.459 94.236"/>
      <polygon class="cls-1" points="20.454 94.133 12.639 93.511 7.344 98.807 12.252 102.334 7.66 106.928 6.543 109.363 4.006 111.9 9.505 117.397 10.604 118.497 16.101 123.995 18.638 121.458 21.074 120.342 25.725 115.691 29.548 121.011 34.844 115.715 34.169 107.247 91.431 49.985 78.016 36.571 20.454 94.133"/>
      <path class="cls-1" d="M122.59206,6.23266a1.39409,1.39409,0,0,0-.82329-.82328A24.9107,24.9107,0,0,0,114.264,4.00786a8.22572,8.22572,0,0,0-5.12769,1.44264L81.10773,33.4791,94.52251,46.8938,122.551,18.86519C125.4825,15.14771,123.1271,7.7635,122.59206,6.23266Z"/>
    </g>
  </g>
</svg>
