<?xml version="1.0" encoding="UTF-8"?><svg id="Layer_1" xmlns="http://www.w3.org/2000/svg" viewBox="0 0 111.31 111.31"><defs><style>.cls-1{fill:#fff;}</style></defs><path class="cls-1" d="m69.4,51.09l3.37-4.58c.52-.93-.13-2.01-1-3.11l.35-.36,6.11,5.91c.55-.21.83-.82.62-1.37-.08-.22-.24-.41-.44-.53-1.74-1.56-3.58-3-5.52-4.3l.14-.14c.12-.12.12-.33,0-.45l-.37-.38.15-.15c.07-.07.07-.18,0-.25l-.03-.03-.03-.03c-.07-.07-.18-.07-.24,0,0,0,0,0,0,0l-.15.15-.38-.37c-.12-.12-.32-.12-.45,0,0,0,0,0,0,0l-.14.14c-1.3-1.95-2.73-3.81-4.29-5.56-.29-.5-.94-.67-1.44-.38-.21.12-.38.32-.46.55l5.88,6.14-.36.35c-1.1-.88-2.17-1.54-3.09-1.01l-4.55,3.39-19.29-18.22c-1.64-1.66-6.29,4.77-6.23,6.2.04.08.08.17.14.24l1.14,1.59,14.5,19.91h0c-3.3,4.14-6.33,8.48-9.08,13l-8.58-4.43-.45-.24c-.17.06-.33.14-.48.22-.55.33-1.01.79-1.35,1.32-.45.62-.85,1.27-1.2,1.95l5.15,6.91,3.14-.37-1.76,2.04.38.36.35.38,2.03-1.76-.36,3.16,6.88,5.18c.68-.35,1.33-.75,1.94-1.2.54-.34.99-.81,1.32-1.36.09-.16.16-.32.22-.49l-.24-.46-4.42-8.64c4.5-2.77,8.82-5.82,12.94-9.13h0s19.8,14.57,19.8,14.57l1.58,1.14c.08.05.16.1.24.14,1.42.06,7.81-4.61,6.16-6.27l-18.12-19.4Z"/><path class="cls-1" d="m111.31,53.16h-6.09c-1.31-25.34-21.72-45.72-47.07-46.99V0h-5v6.17C27.8,7.44,7.4,27.81,6.09,53.16H0v5h6.08c1.22,25.43,21.66,45.9,47.08,47.16v5.99h5v-5.99c25.41-1.27,45.85-21.74,47.08-47.16h6.08v-5Zm-53.16,47.15v-6.21h-5v6.21c-22.66-1.26-40.86-19.48-42.07-42.15h6.13v-5h-6.12C12.4,30.57,30.56,12.44,53.16,11.18v6.04h5v-6.04c22.6,1.25,40.76,19.39,42.06,41.97h-6.12v5h6.13c-1.21,22.67-19.41,40.9-42.07,42.15Z"/></svg>