<?xml version="1.0" encoding="UTF-8"?><svg id="Layer_1" xmlns="http://www.w3.org/2000/svg" viewBox="0 0 105.75 163.22"><defs><style>.cls-1{fill:#fff;}</style></defs><polygon class="cls-1" points="63.78 42.02 91.84 69.64 101.57 46.35 105.75 47.4 99.75 3.05 62.97 31.22 67.4 33.05 63.78 42.02"/><polygon class="cls-1" points="87.55 79.08 58.74 51.84 52.87 66.4 81.87 93.82 87.55 79.08"/><path class="cls-1" d="m48.43,76.07l-7.8,22.44,5.18,2.26c-3.17,2.99-8.11,6.65-13.24,6.69h-.08c-3.59,0-6.78-1.8-9.74-5.51-2.58-3.24-3.47-5.79-3.86-7.64l9.08,3.6-7.24-8.41,4.7-8.83-6.07,5.31-1.17-12.77-2.93,10.13-11.35-4.79,9,9.59-12.91,5.87,11.54-.59-.59,9.78,3.02-7.98c.47,2.34,1.57,5.71,4.88,9.86,3.91,4.9,8.5,7.39,13.64,7.39.04,0,.09,0,.13,0,7.73-.06,14.58-5.87,18.12-9.53l2.92,1.28-24.18,55.37,8.32,3.63,24.18-55.37,12.29,5.37,3.53-8.87-29.38-28.27Z"/></svg>