<svg id="Layer_1" data-name="Layer 1" xmlns="http://www.w3.org/2000/svg" viewBox="0 0 90.26 86.98"><defs><style>.cls-1{fill:#fff;}</style></defs><polygon class="cls-1" points="32.34 86.98 45.33 86.98 58.32 86.98 58.32 81.76 32.34 81.76 32.34 86.98"/><rect class="cls-1" x="32.33" y="48.91" width="25.98" height="26.46"/><path class="cls-1" d="M58.32,42c-1-6.55-4-14.74-6.94-19.08-2.38-3.74-4.72-6.12-6.05-6.84-1.29.7-3.65,3.17-6,6.84-3.06,4.21-6.28,12.72-7,18.79v.83h26Z"/><path class="cls-1" d="M62,35.73,81.64,21.25,61.05,24.2,72.82,10.39,55.17,16.05,64,4.28,45.67,13.56,35,4.28V14.92L27.11,6.55l3.4,18.55L12.63,17.18l12.22,19H9L23,43,11.27,54.29,30.33,47V41.57l0-.11c.71-6.28,4-15.1,7.3-19.69,2.36-3.64,4.93-6.5,6.72-7.47l1-.52,1,.52c1.88,1,4.48,3.91,6.76,7.51C56.2,26.49,59.32,35,60.3,41.69l0,.14v4l18.83,2.77Z"/></svg>