<svg xmlns="http://www.w3.org/2000/svg" width="355" height="355"><path d="M6.644 147.238C20.97 65.885 92.065 4 177.5 4c85.435 0 156.53 61.885 170.856 143.238C334.431 150.264 324 162.674 324 177.5s10.431 27.236 24.356 30.262C334.03 289.115 262.935 351 177.5 351 92.065 351 20.97 289.115 6.644 207.762 20.569 204.736 31 192.326 31 177.5s-10.431-27.236-24.356-30.262Z" fill-opacity="0.3"/><path d="M2.04 150.59C15.015 65.374 88.684 0 177.5 0s162.485 65.374 175.46 150.59C339.008 151.622 328 163.286 328 177.5s11.008 25.878 24.96 26.91C339.985 289.626 266.316 355 177.5 355S15.015 289.626 2.04 204.41C15.992 203.378 27 191.714 27 177.5s-11.008-25.878-24.96-26.91Zm4.604-3.352C20.97 65.885 92.065 4 177.5 4c85.435 0 156.53 61.885 170.856 143.238C334.431 150.264 324 162.674 324 177.5s10.431 27.236 24.356 30.262C334.03 289.115 262.935 351 177.5 351 92.065 351 20.97 289.115 6.644 207.762 20.569 204.736 31 192.326 31 177.5s-10.431-27.236-24.356-30.262Z" fill-rule="evenodd" fill="#FFF" fill-opacity="0.3"/></svg>