<?xml version="1.0" encoding="UTF-8"?><svg id="Layer_1" xmlns="http://www.w3.org/2000/svg" viewBox="0 0 90.26 86.98"><defs><style>.cls-1{fill:#fff;}</style></defs><g><polygon class="cls-1" points="62.51 76.01 64.42 86.93 56.6 86.93 54.6 76.01 62.51 76.01"/><polygon class="cls-1" points="35.76 76.01 33.67 86.93 25.85 86.93 27.85 76.01 35.76 76.01"/><path class="cls-1" d="m49.72,22.85c-1.78-3.74-3.53-6.12-4.53-6.85-.96.7-2.73,3.18-4.51,6.85-2.29,4.21-4.7,12.72-5.21,18.78v22.45l2,11.93-2,10.92h19.45l-2-10.92,2-11.61v-22.48c-.72-6.55-3-14.74-5.19-19.08Z"/></g><path class="cls-1" d="m61.83,31.5l19.68-14.48-20.59,2.94,11.77-13.8-17.65,5.66L63.86.05l-18.33,9.28L34.9.05v10.63l-13.23-3.94,8.71,14.12-19.4-1.6,14.88,7.96-16.97,7.3,16.97.65-14.71,14.87,8.49-4.69,13.05-5.58,1.62-7.86s2.41-7.72,5.05-12.37c2.87-5.06,5.86-8.28,5.86-8.28,0,0,3.47,3.59,5.69,7.83,2.44,4.67,4.7,12.59,4.7,12.59l1.75,6.8,12.91,3.91,8.78,2-17.2-12.9Z"/></svg>