<svg id="Layer_1" data-name="Layer 1" xmlns="http://www.w3.org/2000/svg" width="128" height="128" viewBox="0 0 128 128">
  <defs>
    <style>
      .cls-1 {
        fill: #fff;
      }
    </style>
  </defs>
  <g id="Layer_2" data-name="Layer 2">
    <g>
      <rect class="cls-1" x="48.63416" y="55.76359" width="19.28949" height="5.03072" transform="translate(-24.13994 58.2787) rotate(-44.99985)"/>
      <rect class="cls-1" x="34.69974" y="31.97605" width="19.28952" height="24.73702" transform="translate(-18.36814 44.34452) rotate(-45)"/>
      <rect class="cls-1" x="5.62476" y="14.62651" width="38.57894" height="20.57541" transform="translate(-10.3198 24.91422) rotate(-45)"/>
      <path class="cls-1" d="M122.21087,98.56878,87.68666,64.04457a1.82953,1.82953,0,0,0-.59292-.39638L70.342,56.70232l-.05467-.05467-.02264.02263-1.476-.612L56.05827,68.78867l.612,1.476-.0227.02271.05483.05483L63.64819,87.0938a1.82951,1.82951,0,0,0,.39632.59293l34.5242,34.52419a6.10835,6.10835,0,0,0,8.63847,0l15.00369-15.00367a6.10823,6.10823,0,0,0,.00012-8.63835Z"/>
    </g>
  </g>
</svg>
