<svg id="Layer_1" data-name="Layer 1" xmlns="http://www.w3.org/2000/svg" width="128" height="128" viewBox="0 0 128 128">
  <defs>
    <style>
      .cls-1 {
        fill: #fff;
      }
    </style>
  </defs>
  <g id="Layer_2" data-name="Layer 2">
    <g>
      <path class="cls-1" d="M90.03618,17.66618l9.32476-9.32486L95.84573,4.82609,86.521,14.151l-.54942-.54938-27.64,27.64-.058-.058-.08706.087L55.7199,38.804a.98492.98492,0,0,0-1.39287,0v0l-1.13172,1.13169.52712,5.79889L49.568,49.88913l-.81249-.81254a1.64159,1.64159,0,0,0-2.32144,0l-1.77261,1.77262-4.75661.98413L22.13089,69.60722a2.11343,2.11343,0,0,0-.00009,2.98884l.00009.00009.15961.15963L16.835,78.21123v2.08935l.51353.5136L22.755,75.40782l.63726.63735L17.986,81.45146l.00983.00982-3.95614,3.95619-.75449-.75449a1.75106,1.75106,0,0,0-2.47628,0L7.98435,87.48749a1.75108,1.75108,0,0,0,0,2.47628l1.509,1.50895,10.53378,10.53372,2.19556-2.19556,1.054,1.054a1.39467,1.39467,0,0,0,1.97235.00006l.00006-.00006,1.39061-1.39065a1.39469,1.39469,0,0,0,0-1.97238l0,0-1.054-1.054,42.20707-42.207V50.70277L62.9455,45.85556l27.64007-27.64ZM45.44736,54.12585l5.57156,5.57156-.97879.9787L46.28486,56.9208,32.74645,70.45927l3.75527,3.75531-.97879.97874-5.57155-5.57157ZM15.02472,94.45515,20.62077,88.859l1.04468,1.04465-5.59616,5.59608ZM64.23493,49.06487l1.13735,1.13731L18.072,97.50246l-1.13726-1.13734Z"/>
      <path class="cls-1" d="M111.20366,38.83365l9.32477-9.32486-3.51533-3.51522-9.32476,9.32485-.54941-.54937-27.63987,27.64-.058-.05806-.087.08706-2.46663-2.46654a.98486.98486,0,0,0-1.39281-.00005l-.00005.00005-1.13174,1.13169.52712,5.79889-4.15447,4.15454-.81249-.81253a1.64157,1.64157,0,0,0-2.32144,0l-1.77261,1.77261-4.75661.98415L43.29837,90.7747a2.11346,2.11346,0,0,0-.00005,2.98888l.00005.00005.15963.15961-5.4555,5.45548v2.08933l.51353.51361,5.40646-5.40636.63726.63734-5.40628,5.40628.00983.00983-3.95613,3.9562-.7545-.75449a1.75106,1.75106,0,0,0-2.47628,0l-2.82448,2.82448a1.75106,1.75106,0,0,0,0,2.47628l1.509,1.50893L41.1946,123.17391l2.19556-2.19556,1.054,1.054a1.39469,1.39469,0,0,0,1.97238,0l0,0,1.3906-1.3906a1.39469,1.39469,0,0,0,0-1.97238l0,0-1.054-1.054L62.57191,101.7966l-4.43666-4.43666L73.74041,81.75478,78.177,86.19146,88.96021,75.40828V71.8702L84.113,67.023,111.753,39.383ZM36.19217,115.62257l5.59606-5.59617,1.04468,1.04463-5.59616,5.59617ZM39.23946,118.67l-1.13727-1.13737L56.89435,98.74041l1.13736,1.13731ZM70.792,81.428l-3.33968-3.33975L53.91387,91.62671l3.33967,3.33975-.97865.97874-5.156-5.156L66.61484,75.29332l5.156,5.15593ZM85.40241,70.23235l1.13736,1.13731L76.44063,81.46884l-1.13736-1.13731Z"/>
      <path class="cls-1" d="M62.927,99.51163l-2.003-2.03571,8.35129-8.217c.56215-.5531,5.48659-4.50147,6.03971-3.93929h0c.5531.56215-3.47459,5.42189-4.03675,5.975Z"/>
      <path class="cls-1" d="M66.39475,102.97944l-2.003-2.03571,8.3513-8.217c.56214-.55311,5.48659-4.50147,6.03964-3.93929h0c.5531.56214-3.47458,5.42189-4.03672,5.975Z"/>
      <path class="cls-1" d="M69.89681,106.72109,68.053,104.54023,76.99971,96.976c.60223-.50917,5.81022-4.0752,6.31939-3.473h0c.50917.60222-3.8733,5.14467-4.47552,5.65384Z"/>
      <path class="cls-1" d="M72.85008,110.47638l-1.54865-2.39948,9.84377-6.35319c.66261-.42763,6.28528-3.29562,6.71294-2.633h0c.42764.66262-4.50168,4.60489-5.16428,5.03255Z"/>
      <path class="cls-1" d="M74.84455,114.55081l-1.11772-2.62805,10.78136-4.58534c.72569-.30865,6.75443-2.178,7.06309-1.45226h0c.30865.7257-5.21964,3.77165-5.94536,4.0803Z"/>
      <path class="cls-1" d="M76.04235,119.03707l-.66814-2.77662,11.39077-2.741c.76674-.1845,7.02146-1.032,7.206-.26531h0c.18451.76674-5.77107,2.8574-6.53781,3.04193Z"/>
    </g>
  </g>
</svg>
