<svg id="Layer_1" data-name="Layer 1" xmlns="http://www.w3.org/2000/svg" width="128" height="128" viewBox="0 0 128 128">
  <defs>
    <style>
      .cls-1 {
        fill: #fff;
      }
    </style>
  </defs>
  <g id="Layer_2" data-name="Layer 2">
    <g>
      <path class="cls-1" d="M50.08168,76.37854H44.56851V87.31689H68.79136V76.68156a8.50333,8.50333,0,0,0-3.4777-8.40169L49.19559,60.53111,72.27143,47.20829,70.857,44.75842,124,14.0763l-3.09867-5.367-53.143,30.68216-1.41443-2.44987L28.26407,58.927l-1.5795-2.73558L56.858,38.7708l-3.09866-5.367L18.72474,53.631l.02475.04281-.30361.17538c-.54748,2.0434-.85451,3.18908-1.402,5.23253L19.782,63.82412,4,72.93589,9.92747,83.2026,41.61993,64.905Z"/>
      <polygon class="cls-1" points="64.956 91.103 49.169 91.103 42.434 115.924 37.094 115.924 37.094 119.291 76.878 119.291 76.878 115.924 71.692 115.924 64.956 91.103"/>
    </g>
  </g>
</svg>
