<?xml version="1.0" encoding="UTF-8"?><svg id="Layer_1" xmlns="http://www.w3.org/2000/svg" viewBox="0 0 128 127.94"><defs><style>.cls-1{fill:#fff;}</style></defs><g><path class="cls-1" d="m103.48,88.4c-5.75-5.76-10.2-12.88-10.73-18.58l-6.75,6.64c-.73,1.31-.43,3.79.89,6.84,1.74,4.05,4.99,8.57,9.14,12.72,4.15,4.16,8.68,7.42,12.74,9.19,2.47,1.08,4.57,1.49,5.99,1.23l7.36-7.24c-5.4-.53-12.4-4.57-18.63-10.81Z"/><path class="cls-1" d="m107.38,108.36c-4.45-1.94-9.35-5.46-13.81-9.92-4.45-4.46-7.96-9.36-9.87-13.79-.65-1.46-1.12-2.99-1.39-4.57l-9.3,9.15c-2.23,3.24.77,12.01,9.09,20.34,7.84,7.85,16.11,11.01,19.79,9.52l9.56-9.41c-1.4-.3-2.77-.74-4.08-1.33Z"/><path class="cls-1" d="m79.47,112.17c-6.36-6.37-10.18-13.25-10.8-18.66l-2.22,2.18c-.35.22-.68.48-.98.77-4.33,4.26-1.23,14.34,6.93,22.51,8.16,8.17,18.28,11.34,22.61,7.08.3-.29.56-.62.79-.96l2.1-2.07c-5.4-.75-12.17-4.57-18.44-10.85Z"/><path class="cls-1" d="m118.17,73.95c-6.17-6.18-13.04-9.91-17.5-9.91-1.27-.07-2.52.36-3.46,1.21-3.42,3.36.43,12.71,8.58,20.88,6.17,6.18,13.04,9.91,17.5,9.91,1.27.07,2.52-.36,3.46-1.21,3.42-3.36-.43-12.71-8.58-20.88Zm-2.13,10.15c-.26.23-.6.35-.95.33-1.22,0-3.11-1.03-4.8-2.72-2.24-2.24-3.29-4.81-2.36-5.73.26-.23.6-.35.95-.33,1.22,0,3.11,1.03,4.8,2.72,2.24,2.24,3.29,4.81,2.36,5.73Zm7.36,7.37c-.29.27-.62.48-.99.62.93-2.8-2.3-8.87-7.92-14.5-5.64-5.65-11.76-8.92-14.57-7.98.15-.38.37-.72.65-1.01,2.64-2.6,9.89.41,16.2,6.73,6.3,6.31,9.27,13.54,6.63,16.14h0Z"/></g><path class="cls-1" d="m81.68,62.9l-6.89-3.84c2.93-8.12,2.72-17.03-.59-25.01l7.48-4.17c1.85-1.03,2.5-3.35,1.47-5.19h0l-1.16-2.04c-1.04-1.83-3.38-2.49-5.22-1.46h0l-7.69,4.29c-5.55-6.83-13.49-11.32-22.23-12.57V3.81c0-2.1-1.72-3.81-3.84-3.81h-2.36c-2.12,0-3.84,1.71-3.84,3.81h0v9.1c-8.74,1.25-16.69,5.74-22.23,12.57l-7.69-4.29c-1.85-1.03-4.19-.38-5.22,1.46l-1.16,2.04c-1.04,1.83-.38,4.16,1.47,5.19l7.48,4.17c-3.31,7.98-3.52,16.89-.59,25.01l-6.89,3.84c-1.85,1.03-2.5,3.35-1.47,5.19H.49s1.16,2.04,1.16,2.04c1.04,1.83,3.38,2.49,5.22,1.46h0l6.69-3.73c5.21,7.07,12.92,11.92,21.58,13.59v3.61c0,3,2.3,5.52,5.31,5.83l.83,2.28c-1.65,2.34-1.37,5.52.67,7.54l3.79,3.76c2.32,2.3,6.08,2.3,8.4,0l1.04-1.03h0c2.32-2.31,2.32-6.04,0-8.34l-3.79-3.76c-1.11-1.11-2.62-1.73-4.2-1.73-.13,0-.25.03-.37.04l-.13-.37c1.15-1.11,1.8-2.63,1.8-4.22v-3.61c8.66-1.67,16.37-6.52,21.58-13.59l6.69,3.73c1.85,1.03,4.19.38,5.22-1.46h0l1.16-2.04c1.04-1.83.38-4.16-1.47-5.19,0,0,0,0,0,0Zm-29.12,34.79c.87.87.87,2.27,0,3.14l-1.04,1.03c-.87.87-2.29.87-3.16,0h0s-3.79-3.76-3.79-3.76c-.19-.19-.35-.42-.46-.67,1.65.59,3.47-.27,4.06-1.91.23-.63.25-1.33.05-1.97.2.1.38.23.54.38l3.79,3.76Zm-7.77-12.64c0,.1-.01.19-.03.29-1.35-1.11-3.35-.93-4.47.41-.25.31-.45.66-.57,1.03-.54-.42-.86-1.06-.86-1.73v-3.1c.98.08,1.97.13,2.97.13s1.99-.05,2.97-.13v3.1Z"/></svg>