<?xml version="1.0" encoding="UTF-8"?><svg id="Layer_1" xmlns="http://www.w3.org/2000/svg" xmlns:xlink="http://www.w3.org/1999/xlink" viewBox="0 0 72.71 75.82"><defs><style>.cls-1,.cls-2{fill:#fff;}.cls-3{fill:#090909;}.cls-2{fill-rule:evenodd;}.cls-4{fill:url(#linear-gradient);}</style><linearGradient id="linear-gradient" x1="0" y1="60.03" x2="72.71" y2="60.03" gradientUnits="userSpaceOnUse"><stop offset="0" stop-color="#9a9a9b"/><stop offset=".52" stop-color="#fff"/><stop offset="1" stop-color="#8b8b8b"/></linearGradient></defs><polygon class="cls-2" points="18.84 35.11 10.42 36.3 14.9 31.88 5.86 31.37 13.16 27.8 5.48 19.67 18.93 22.66 23.04 12.4 25.69 20.7 31.2 13.67 31.24 23.63 34.44 22.43 31.41 26.76 28.17 27.9 28.04 24.54 25.21 26.51 23.18 24.16 22.93 27.53 18.69 26.16 21.8 29.15 18.57 29.15 21.07 30.86 18.82 32.14 20.96 32.88 18.84 35.11"/><g><rect class="cls-3" x="3" y="47.25" width="66.71" height="25.57"/><path class="cls-4" d="m69.71,47.25v25.57H3v-25.57h66.71m3-3H0v31.57h72.71v-31.57h0Z"/></g><polygon class="cls-1" points="45.59 35.07 45.87 34.46 64.85 34.46 65.07 35.24 67.23 35.24 67.23 31.69 65.24 31.69 64.85 32.41 45.87 32.41 45.53 31.97 44.76 31.86 43.87 30.64 39.89 30.25 39.89 29.59 36.57 29.64 36.57 30.25 35.73 30.25 35.73 29.64 35.73 28.7 33.41 28.87 30.48 28.81 30.48 29.59 25.83 29.59 25.55 30.25 24 29.59 22.95 31.31 23.17 32.86 23.72 33.52 25.16 33.52 25.27 33.96 28.15 35.79 28.15 36.68 17.91 37.34 17.91 37.73 15.14 37.73 12.21 43.04 12.21 44.25 56.33 44.25 55.83 43.48 55.61 41.88 52.12 41.6 46.42 36.23 43.71 36.23 43.71 35.18 45.59 35.07"/></svg>