<svg id="Layer_2" data-name="Layer 2" xmlns="http://www.w3.org/2000/svg" width="128" height="128" viewBox="0 0 128 128">
  <defs>
    <style>
      .cls-1 {
        fill: #fff;
      }
    </style>
  </defs>
  <g>
    <path class="cls-1" d="M123.8817,91.65619l-1.76782-2.90888-10.83655,1.61622C103.28563,83.932,87.4586,79.55011,69.23,79.55011c-2.0614,0-4.08752.06226-6.08.1709l-1.73413-3.40247-5.08692.51258,1.68335,3.29266a94.24458,94.24458,0,0,0-10.41943,1.65533c.24475.51233.49084,1.026.721,1.52509.26733.57965.51709,1.13623.75866,1.682a92.35237,92.35237,0,0,1,20.19886-2.12293c22.1405,0,40.08886,6.97174,40.08886,15.57172s-17.94836,15.57165-40.08886,15.57165c-22.14038,0-40.08875-6.97168-40.08875-15.57165,0-2.63044,1.68591-5.10694,4.65064-7.27985-1.01514-1.03754-2.04407-2.1225-3.07129-3.23743-5.7323,3.35694-9.11682,7.49225-9.11682,11.96674a9.31584,9.31584,0,0,0,.81152,3.72644l-12.11572,1.807,3.16479,2.25506,10.45654-1.51733c6.187,8.16052,24.11011,14.06311,45.2677,14.06311,3.1095,0,6.14576-.13147,9.08875-.37488l2.79175,5.46076,5.26636-.01282-3.04834-5.981C102.7252,116.743,116.8148,109.017,116.8148,99.8844a10.63259,10.63259,0,0,0-2.73986-6.80518Z"/>
    <path class="cls-1" d="M76.97447,98.43494c0-1.69263-3.48584-3.0647-7.78589-3.0647s-7.78589,1.37207-7.78589,3.0647c0,1.6925,3.48584,3.06457,7.78589,3.06457S76.97447,100.12744,76.97447,98.43494Z"/>
    <path class="cls-1" d="M69.27135,109.451c15.7362,0,28.49292-4.95056,28.49292-11.0575S85.00755,87.33594,69.27135,87.33594a60.79854,60.79854,0,0,0-18.21363,2.55517c.16468.46155.3136.90436.45069,1.33326a54.647,54.647,0,0,1,17.76294-2.64606c13.95214,0,25.26269,4.09778,25.26269,9.15252,0,5.05481-11.31055,9.15253-25.26269,9.15253-11.08472,0-20.49536-2.58758-23.898-6.18567A23.863,23.863,0,0,1,40.84557,97.671a4.39584,4.39584,0,0,0-.06714.72247C40.77843,104.50043,53.53526,109.451,69.27135,109.451Z"/>
  </g>
  <g>
    <polygon class="cls-1" points="12.742 14.722 13.554 17.411 17.974 23.722 33.177 13.087 28.753 6.769 26.463 5.124 12.742 14.722"/>
    <polygon class="cls-1" points="21.18 45.786 19.98 44.924 8.77 52.766 9.196 54.177 12.961 59.554 24.948 51.168 21.18 45.786"/>
    <polygon class="cls-1" points="70.933 22.242 69.005 20.857 60.372 26.902 61.052 29.154 70.933 22.242"/>
    <polygon class="cls-1" points="74.19 24.582 73.096 23.796 61.817 31.686 62.206 32.973 65.981 38.365 77.969 29.979 74.19 24.582"/>
    <polygon class="cls-1" points="24.3 3.57 22.178 2.045 11.229 9.712 11.977 12.191 24.3 3.57"/>
    <path class="cls-1" d="M46.28307,31.80542l-.632-.90253-.00159-.00219-.00049-.00092L35.401,16.26422,20.1981,26.89935,30.451,41.54187l.00049.00073.001.00147.63257.9032.00793-.00562c8.4552,11.72058,28.8009,33.68127,32.89136,30.81726C68.07457,70.39478,54.39683,43.765,46.27513,31.811Z"/>
    <path class="cls-1" d="M88.00645,44.32745l.00647-.00439-.49768-.71051-.00183-.00281-.0011-.0014L80.19347,33.1557,68.20579,41.54156l7.32349,10.45905.00012.00031.00049.00054.499.71283.00635-.00451c6.667,9.24182,22.71,26.55816,25.93531,24.2998C105.19578,74.75122,94.41075,53.75323,88.00645,44.32745Z"/>
    <path class="cls-1" d="M35.00291,65.527l-.49768-.71033-.00183-.00305-.0011-.00128L27.173,54.34491,15.18541,62.73077,23.0189,73.91815l.00635-.00439c6.667,9.24176,22.71,26.55816,25.93531,24.29986,3.22522-2.25842-7.55982-23.25634-13.96412-32.68225Z"/>
    <polygon class="cls-1" points="7.362 48.106 8.005 50.235 17.818 43.37 15.995 42.061 7.362 48.106"/>
  </g>
</svg>
