<?xml version="1.0" encoding="UTF-8"?><svg id="Layer_1" xmlns="http://www.w3.org/2000/svg" viewBox="0 0 32 38"><defs><style>.cls-1{fill:#fff;}</style></defs><path d="m23.79,0v8.03l.77-.63,2.58,2.55c3.01,2.97,4.87,7.13,4.87,11.72,0,8.91-7.07,16.34-16,16.34S0,30.57,0,21.66c0-6.03,3.23-11.36,8.08-14.19V0h15.71Z"/><path class="cls-1" d="m13.68,23.23l2.82.77,4.5-8-8,5,.68,2.23Z"/><g><path class="cls-1" d="m13,21l.68,2.23,2.82.77,4.5-8-8,5Z"/><path class="cls-1" d="m23.27,13.68l-.73.79c1.88,1.81,3.06,4.36,3.06,7.2,0,5.45-4.31,9.87-9.6,9.87s-9.6-4.43-9.6-9.87,4.31-9.87,9.6-9.87v-.07h1.39v-3.95h2.4v-3.77h-7.71v3.76h2.32v1.68c-5.86.81-10.39,5.98-10.39,12.22,0,6.8,5.38,12.34,12,12.34s12-5.54,12-12.34c0-3.48-1.41-6.63-3.68-8.87l-1.04.86Z"/></g></svg>