<svg id="Layer_1" data-name="Layer 1" xmlns="http://www.w3.org/2000/svg" width="128" height="128" viewBox="0 0 128 128">
  <defs>
    <style>
      .cls-1 {
        fill: #fff;
        fill-rule: evenodd;
      }
    </style>
  </defs>
  <path class="cls-1" d="M31.0489,83.82466l2.28494-4.66849L11.27356,66.08767l1.44658-2.59726L34.89548,75.737l2.84384-6.11508L21.69548,60.20274l1.44657-2.64658L46.63247,70.36164,48.57219,64,32.2489,54.137l1.463-2.59727,15.36986,8.48219,8.43288-.95342V51.474H52.58315V39.96713a13.36439,13.36439,0,0,1,8.77808-4.37261V25.23836H51.99137l-7.54521-5.0137h13.0685V17.16712c2.26849-1.82465,6.57534-2.48219,8.84383-2.59726V4h3.76439V14.56986C72.76945,14.68493,77.19137,15.737,78.901,17.2v3.02466H91.92014l-8.59726,5.0137H75.1037v10.274c4.35617.29589,6.19727,2.54794,8.79452,4.389V51.40822h-4.9315v7.66027h4.63561l4.32328,9.863h8.926L104.59411,83.726C84.44068,79.09041,73.88726,70.36164,68.00233,70.29589S44.00233,82.31233,31.0489,83.82466Zm83.45754,8.663L92.65986,119.33151V124H43.70644v-4.32328h-.36165L21.25164,92.48767c8.49863-.4274,38.663-17.70411,46.75069-17.72055,10.17534,0,37.52877,17.72055,46.4548,17.72055Z"/>
</svg>
