<?xml version="1.0" encoding="UTF-8"?><svg id="Layer_1" xmlns="http://www.w3.org/2000/svg" viewBox="0 0 90.26 86.98"><defs><style>.cls-1{fill:#fff;}</style></defs><path class="cls-1" d="m84.24,17.47l-18.67,6.62,3.39-11.37-11.2,6.11V3.55l-7.45,10.12v12.8s-.07.02,2.73,7.16c2.64,6.73,2.16,11.13,2.16,11.13v18.06l5.45,3.96,14.01,10.38-11.46-21.01s11.67,1.9,13.4,2.3c-1.96-1.21-16.46-17.91-16.46-17.91l5.77-5.43,18.33-17.65Z"/><path class="cls-1" d="m23.5,59.88l-4.75,16.29,8.53-8.31,5.85-4.98v-19.17s.54-4.89,1.72-9.19c1.17-4.3,3.23-7.97,3.23-7.97l.1-12-.86-1.1-2.27-3.18-5.77-8.07,2.38,19.01-10.18-4.75,2.38,8.82L3.14,20.17l18.67,14.25-18.67,1.7,18.67,13.92L3.14,69.05l20.36-9.16Z"/><polygon class="cls-1" points="52.83 74.36 52.83 69.14 52.83 69.14 35.92 69.14 35.92 69.14 35.92 74.36 35.92 74.36 52.83 74.36 52.83 74.36"/><polygon class="cls-1" points="22.43 83.14 33.22 83.14 33.33 72.98 22.43 76.83 22.43 83.14"/><polygon class="cls-1" points="55.53 83.14 66.32 83.14 66.32 76.83 55.42 72.98 55.53 83.14"/><polygon class="cls-1" points="52.83 83.75 52.83 79.58 35.92 79.58 35.92 83.75 35.92 84.79 43.27 84.79 44.38 84.79 52.83 84.79 52.83 83.75"/><polygon class="cls-1" points="52.83 63.92 52.83 58.71 35.92 58.71 35.92 63.92 35.92 63.92 52.83 63.92 52.83 63.92"/><path class="cls-1" d="m52.83,48.27v-3.29c-.07-.63-.16-1.27-.26-1.93h0c-.05-.32-.1-.64-.15-.96,0-.03,0-.06-.01-.09-.05-.31-.11-.62-.17-.94,0-.04-.01-.08-.02-.12-.06-.31-.12-.62-.18-.93,0-.04-.02-.08-.03-.12-.06-.31-.13-.63-.2-.94,0-.03-.01-.05-.02-.08-.3-1.36-.64-2.71-1.01-4.01,0,0,0-.01,0-.02-.07-.24-.14-.48-.21-.71-.03-.11-.07-.22-.1-.33-.06-.2-.12-.4-.19-.6-.04-.14-.09-.28-.13-.42-.06-.18-.12-.35-.18-.53-.05-.15-.1-.3-.15-.45-.06-.16-.11-.32-.17-.48-.06-.16-.11-.31-.17-.46-.05-.14-.11-.29-.16-.43-.06-.16-.12-.31-.18-.47-.05-.12-.1-.25-.15-.37-.07-.17-.14-.33-.21-.49-.04-.1-.08-.2-.13-.29-.1-.23-.21-.45-.31-.66,0-.02-.02-.04-.03-.06-.08-.17-.16-.44-.24-.61v-8.62h0v-.15h0V4.25h0s-7.26,0-7.26,0h0v11.78h0v.11h0v11.35c-.12.24-.24.36-.36.61,0,.02-.02.04-.03.06-.11.21-.22.42-.33.65-.04.09-.09.19-.13.29-.07.16-.15.32-.22.49-.05.12-.1.24-.16.37-.07.15-.13.31-.2.47-.06.14-.11.28-.17.43-.06.15-.12.31-.18.46-.06.16-.12.32-.18.48-.05.15-.1.29-.16.44-.06.18-.13.36-.19.55-.04.13-.09.27-.13.4-.07.21-.14.42-.2.63-.03.1-.06.21-.1.32-.08.25-.15.49-.22.74-.01.04-.02.08-.04.13-.18.61-.34,1.23-.5,1.85-.02.09-.05.18-.07.27-.16.63-.31,1.26-.44,1.89,0,.04-.02.08-.03.12-.28,1.32-.52,2.63-.68,3.87,0,.01,0,.03,0,.04h0c-.08.57-.14,1.13-.19,1.67v8.76h16.92v-5.22Z"/></svg>