<svg width="131" height="266" viewBox="0 0 131 266" fill="none" xmlns="http://www.w3.org/2000/svg">
<path d="M72.6094 13.1115C72.6094 13.1115 42.6093 -16.3892 13.1094 13.1111C-16.3905 42.6114 13.1094 73.1107 13.1094 73.1107C13.1094 73.1107 47.1094 104.111 47.1094 136.111C47.1094 168.111 26.908 208.672 26.908 208.672C26.908 208.672 15.2088 246.107 49.9415 261.659C84.6743 277.211 104.109 244.611 104.109 244.611C104.109 244.611 130.109 206.296 130.109 130.611C130.109 54.9263 72.6094 13.1115 72.6094 13.1115Z" fill="black" fill-opacity="0.37"/>
<path d="M71.6947 14.3693L71.6943 14.369L71.6013 14.3014L71.5197 14.2212L71.5197 14.2211L71.519 14.2204L71.5178 14.2193L71.5059 14.2077C71.5013 14.2033 71.4957 14.1979 71.489 14.1914C71.4785 14.1814 71.4655 14.1689 71.4499 14.154C71.3984 14.105 71.3188 14.03 71.2121 13.9317C70.9985 13.7352 70.6764 13.4457 70.2533 13.0847C69.4066 12.3623 68.1575 11.3555 66.5656 10.2346C63.3757 7.9887 58.8416 5.30788 53.435 3.52576C48.0344 1.74559 41.7954 0.871952 35.1545 2.19115C28.526 3.5079 21.3896 7.03018 14.2091 14.2108C7.03052 21.3895 3.50732 28.556 2.18987 35.2326C0.869827 41.9223 1.74391 48.226 3.52553 53.6916C5.30893 59.1626 7.99149 63.7603 10.2385 66.9975C11.36 68.6131 12.3673 69.8818 13.0902 70.7422C13.4514 71.1723 13.7412 71.4997 13.9379 71.7169C14.0363 71.8255 14.1114 71.9065 14.1605 71.959C14.1761 71.9756 14.1891 71.9894 14.1994 72.0003L14.2642 72.0601C14.3077 72.1004 14.3642 72.153 14.433 72.2175C14.471 72.2532 14.5128 72.2924 14.5583 72.3353C14.814 72.5765 15.1862 72.9318 15.6583 73.394C16.6024 74.3182 17.9465 75.6704 19.5574 77.3919C22.7776 80.8332 27.0721 85.759 31.3694 91.6994C39.9251 103.527 48.6646 119.61 48.6646 136.111C48.6646 152.383 43.5406 170.727 38.4733 184.915C35.933 192.027 33.3932 198.132 31.4879 202.461C30.535 204.626 29.7402 206.347 29.1827 207.53C28.9039 208.121 28.6844 208.578 28.534 208.888C28.4588 209.043 28.4009 209.161 28.3615 209.241L28.36 209.244C28.3415 209.307 28.3156 209.397 28.2835 209.513C28.211 209.774 28.1071 210.165 27.9857 210.673C27.7428 211.688 27.4307 213.166 27.1612 214.992C26.6213 218.648 26.2569 223.666 26.9431 229.14C28.3079 240.028 33.8113 252.733 50.5771 260.24C67.3641 267.756 80.3386 263.642 89.1806 257.678C93.6293 254.677 97.0395 251.197 99.3395 248.461C100.488 247.095 101.354 245.921 101.93 245.093C102.218 244.68 102.433 244.353 102.574 244.134C102.599 244.095 102.621 244.059 102.642 244.027C102.679 243.969 102.708 243.922 102.73 243.887C102.746 243.86 102.758 243.84 102.766 243.828L102.773 243.816L102.774 243.815L102.774 243.814L102.774 243.814L102.797 243.776L102.822 243.739L102.822 243.739L102.822 243.738L102.824 243.736L102.835 243.719C102.845 243.704 102.862 243.679 102.885 243.645C102.93 243.576 102.998 243.47 103.089 243.327C103.272 243.041 103.543 242.606 103.89 242.022C104.584 240.854 105.584 239.091 106.787 236.735C109.193 232.022 112.413 224.936 115.638 215.491C122.086 196.603 128.554 168.272 128.554 130.611C128.554 93.1809 114.339 64.1179 100.098 44.3898C92.9782 34.5258 85.8587 27.0063 80.5246 21.9571C77.8582 19.4331 75.6398 17.5282 74.0931 16.258C73.3198 15.6229 72.7146 15.1467 72.3055 14.8312C72.1009 14.6735 71.9454 14.556 71.8424 14.4789C71.791 14.4404 71.7526 14.4119 71.7278 14.3937L71.7009 14.3739L71.6952 14.3697L71.6947 14.3693Z" stroke="white" stroke-opacity="0.46" stroke-width="3.11039"/>
</svg>
