<svg id="Layer_2" data-name="Layer 2" xmlns="http://www.w3.org/2000/svg" width="128" height="128" viewBox="0 0 128 128">
  <defs>
    <style>
      .cls-1, .cls-2 {
        fill: #fff;
      }

      .cls-2 {
        fill-rule: evenodd;
      }
    </style>
  </defs>
  <g>
    <g>
      <path class="cls-1" d="M73.98621,66.71616a18.259,18.259,0,0,0,8.61573-1.275,10.47595,10.47595,0,0,0,2.24468-1.30155l.54431-.39314.31973-.315.60809-.61685a10.51149,10.51149,0,0,0,2.38113-4.12949,15.64427,15.64427,0,0,0,.09375-7.81646,28.80925,28.80925,0,0,0-2.25426-6.25915A64.352,64.352,0,0,0,74.98356,28.83947c-1.686-1.66679-3.02254-2.95616-3.93972-3.73013-.91483-.81144-1.40293-1.24447-1.40293-1.24447l-.03051-.02656s-.51152-.42787-1.47105-1.23035c-.94053-.82536-2.39914-1.94075-4.27129-3.34261a64.354,64.354,0,0,0-17.30887-9.09023,28.77439,28.77439,0,0,0-6.52414-1.30189,15.52107,15.52107,0,0,0-7.76922,1.27987l-1.11.64368a5.59114,5.59114,0,0,0-.91121.6378l-.64964.55615-.32656.27965-.26292.27088-.0455.05842-.09041.11724-.181.237a11.21508,11.21508,0,0,0-2.147,4.20243,18.26437,18.26437,0,0,0,.01586,8.70947,38.06209,38.06209,0,0,0,4.53669,10.87286c.55555-.05394,1.11357-.091,1.67521-.091A18.72264,18.72264,0,0,1,43.255,39.96206c-1.17775-1.29365-2.32151-2.60637-3.37165-3.96434a40.708,40.708,0,0,1-6.74276-11.83285,12.09625,12.09625,0,0,1-.5864-5.53784,5.153,5.153,0,0,1,.49038-1.47641c7.82743-.2209,18.06811,3.90244,27.19027,11.75978C70.08237,37.392,75.89049,47.83319,76.08877,55.89845c.07541-.08164.16555-.14575.23843-.22993,5.62851-6.53518.92587-19.86934-10.4571-30.3688l.03761.03052c.90466.7296,1.38968,1.12107,1.41618,1.14255.02683.02456.48582.446,1.3609,1.24956.93946.82168,2.1577,2.05062,3.69366,3.61884a55.20317,55.20317,0,0,1,5.069,6.18547,40.347,40.347,0,0,1,4.9331,8.90046c1.28743,3.32962,2.20086,7.47946,1.01909,10.42912a5.62685,5.62685,0,0,1-.52624.97305l-.33244.4161-.09376.13048-.1511.12962-.65813.56325c-.10647.0878-.22712.203-.32288.26827l-.2039.05427a7.34769,7.34769,0,0,1-.85474.32141,12.09532,12.09532,0,0,1-5.56347.241,40.71314,40.71314,0,0,1-12.70178-4.91444A74.49983,74.49983,0,0,1,50.04694,46.552l-1.61238-1.44107a16.905,16.905,0,0,1,2.74677,7.48669,3.82646,3.82646,0,0,1-.11617,1.52037c-.00047.00087-.31217,1.09952-.825,2.91186a59.48578,59.48578,0,0,0,8.06606,4.931A41.70406,41.70406,0,0,0,73.98621,66.71616Z"/>
      <path class="cls-1" d="M97.128,57.04408a33.489,33.489,0,0,0-1.654-8.87362,57.92086,57.92086,0,0,0-6.7174-13.757,73.69331,73.69331,0,0,0-7.20375-9.18372c-2.23505-2.365-4.08566-4.19193-5.33415-5.25993-1.25209-1.12556-1.91987-1.72581-1.91987-1.72581l-.0443-.03895-2.04132-1.68485C70.90659,15.391,68.874,13.87473,66.2257,12.02861a73.72,73.72,0,0,0-10.15-5.76323A57.935,57.935,0,0,0,41.475,1.661a33.4894,33.4894,0,0,0-9.02077-.32026,21.28232,21.28232,0,0,0-9.66593,3.28151,13.20017,13.20017,0,0,0-2.16445,1.642l-.85949.80415-.43156.40391c.1333-.1424-.24264.248-.22343.23528l-.05314.06947-.10593.13979-.21239.28025a28.29772,28.29772,0,0,0-1.64022,2.3096q-.633,1.27105-1.27271,2.55739a24.75573,24.75573,0,0,0-1.37784,11.11235,37.80711,37.80711,0,0,0,2.59126,10.79149,46.6098,46.6098,0,0,0,3.30272,6.851,18.03872,18.03872,0,0,1,5.54427-3.73957,42.87357,42.87357,0,0,1-2.783-5.54,31.592,31.592,0,0,1-2.54093-8.986,18.9114,18.9114,0,0,1,.65867-8.43752l.8166-1.802c.30247-.57877.72505-1.073,1.06539-1.62188l.13357-.202.06638-.10138.02463-.03728.30274-.30534.82877-.8358A6.72768,6.72768,0,0,1,25.9648,9.0066a16.30633,16.30633,0,0,1,7.12412-2.6308A28.61541,28.61541,0,0,1,40.81183,6.373a47.688,47.688,0,0,1,13.43045,3.921,69.38108,69.38108,0,0,1,9.62243,5.27934c2.53049,1.71169,4.48369,3.11944,5.74007,4.17667,1.24754.99767,1.91645,1.53261,1.95172,1.56085.07715.07147.70558.65332,1.86366,1.72581,1.29392,1.14255,2.92564,2.824,4.9766,5.05316A69.37975,69.37975,0,0,1,85.044,36.82335a47.70177,47.70177,0,0,1,5.86828,12.70119c1.3674,4.80148,1.84673,10.53472-.45076,15.1687a7.308,7.308,0,0,1-.97137,1.64731l-.57623.76768-.261.35815-.05561.05226-.21668.20256c-.56826.50329-1.18351,1.17019-1.72239,1.54754-.5138.28982-1.00129.59684-1.48825.92728a18.91938,18.91938,0,0,1-8.24688,1.90207,31.58609,31.58609,0,0,1-9.26341-1.1815,52.44716,52.44716,0,0,1-9.288-3.30105c-.84825-.39609-1.68532-.824-2.5159-1.27l6.02486,9.72381a36.84063,36.84063,0,0,0,4.27611,1.20446,37.8255,37.8255,0,0,0,11.05641.96314,24.75523,24.75523,0,0,0,10.78553-3.00982c.85755-.57282,1.70045-1.17615,2.5139-1.78483.72646-.59684,1.17019-1.14282,1.76395-1.71115l.209-.211.10426-.10533.05226-.05227c-.01927.02456.355-.38558.22056-.24659l.40533-.57194.79538-1.14483a11.98014,11.98014,0,0,0,1.29874-2.40482A21.44529,21.44529,0,0,0,97.128,57.04408Z"/>
    </g>
    <path class="cls-2" d="M71.26166,86.01724a2.17945,2.17945,0,0,0-3.94848-.75363s-7.96582,14.40805-12.28341,18.19807c0,0-.79653.72987-1.24507,1.05014a11.20322,11.20322,0,0,1-15.63111-2.60531A11.4331,11.4331,0,0,1,36.3349,92.984c.31518-1.6091,3.06945-11.56933,5.7477-21.13669l20.06079,16.637a1.25085,1.25085,0,0,0,.80615.30474,1.28026,1.28026,0,0,0,1.08434-1.95855L49.30328,63.05556l-.0099.0085a5.8731,5.8731,0,0,0-4.02216-2.55933c1.24026-4.39589,2.102-7.43422,2.102-7.43422a13.18471,13.18471,0,0,0-3.59482-7.665,15.29974,15.29974,0,0,0-11.00923-4.92,13.33627,13.33627,0,0,0-3.9533.59456,14.40967,14.40967,0,0,0-9.5614,17.8325A14.2481,14.2481,0,0,0,22.614,64.70482c3.76231,4.76956,1.7614,10.28224.29718,13.06755-.35875.59283-.73128,1.17615-1.06881,1.77747l-.02858.03982.00824-.00114c-3.48327,6.21264-5.8175,12.77687-6.35384,17.98848-1.49876,14.56625,10.01865,27.68459,25.72464,29.30052a31.1868,31.1868,0,0,0,3.188.16442c14.36456,0,26.56834-10.04047,27.96485-23.61245A63.06559,63.06559,0,0,0,71.26166,86.01724ZM43.46772,63.18806a2.93156,2.93156,0,1,1-1.98451,3.63912A2.92605,2.92605,0,0,1,43.46772,63.18806ZM33.3044,61.82294a7.38033,7.38033,0,1,1,2.08482-.30167A7.37764,7.37764,0,0,1,33.3044,61.82294Z"/>
  </g>
</svg>
