<?xml version="1.0" encoding="UTF-8"?><svg id="Layer_1" xmlns="http://www.w3.org/2000/svg" viewBox="0 0 90.26 86.98"><defs><style>.cls-1{fill:#fff;}</style></defs><path class="cls-1" d="m61.76,35.8l19.68-14.48-20.59,2.94,11.77-13.8-17.65,5.66,8.82-11.77-18.33,9.28-10.63-9.28v10.63l-7.92-8.37,3.39,18.55-17.87-7.92,12.22,19.01h-15.84l14.03,6.79-11.77,11.31,19.06-7.33v-5.5c.72-6.28,4-15.1,7.32-19.69,2.36-3.64,4.93-6.5,6.71-7.47l.96-.52.96.52c1.89,1.03,4.48,3.91,6.77,7.51,3.15,4.68,6.27,13.22,7.25,19.88l.02.14v4.03l18.83,2.77-17.2-12.9Z"/><polygon class="cls-1" points="32.14 86.98 45.13 86.98 58.12 86.98 58.12 81.76 32.14 81.76 32.14 86.98"/><rect class="cls-1" x="32.14" y="60.89" width="25.98" height="5.22"/><rect class="cls-1" x="32.14" y="71.33" width="25.98" height="5.22"/><path class="cls-1" d="m58.12,41.98c-.96-6.55-4.01-14.74-6.94-19.08-2.37-3.74-4.72-6.12-6.05-6.85-1.28.7-3.65,3.18-6.02,6.85-3.06,4.21-6.28,12.72-6.97,18.78v13.99h25.98v-13.69Z"/></svg>