<?xml version="1.0" encoding="UTF-8"?><svg id="Layer_1" xmlns="http://www.w3.org/2000/svg" viewBox="0 0 55.47 55.47"><defs><style>.cls-1{fill:#fff;}</style></defs><g><polygon class="cls-1" points="39.94 27.81 45.19 27.81 48.66 31.64 39.54 38.44 14.46 38.44 7.99 34.41 7.99 32.3 7.26 31.77 7.26 28.1 9.31 28.1 9.51 25.7 39.81 25.7 39.94 27.81"/><polygon class="cls-1" points="18.62 19.43 20.07 19.43 20.13 18.04 27 18.04 26.93 19.56 29.54 19.43 33.21 20.15 35.52 20.15 35.52 21.81 43.45 21.81 43.45 20.75 48.49 20.75 48.49 23.46 43.45 23.46 43.45 22.86 35.52 22.86 35.52 24.12 17.3 24.12 17.3 22.99 18.62 19.43"/></g><rect class="cls-1" x="26.14" width="3.19" height="5.22"/><rect class="cls-1" x="26.14" y="50.26" width="3.19" height="5.22"/><rect class="cls-1" x="1.53" y="24.61" width="3.19" height="6.24" transform="translate(-24.61 30.86) rotate(-90)"/><rect class="cls-1" x="51.27" y="25.13" width="3.19" height="5.22" transform="translate(25.13 80.6) rotate(-90)"/></svg>