<?xml version="1.0" encoding="UTF-8"?><svg id="Layer_1" xmlns="http://www.w3.org/2000/svg" viewBox="0 0 80 55"><defs><style>.cls-1{fill:#fff;}</style></defs><path class="cls-1" d="m72.3,30.8c-.2-.2-3.8-5.2-9.8-10.4l4.3-5.3c.7-.9.6-2.2-.3-2.9-.9-.7-2.2-.6-2.9.3l-4.4,5.3c-2.5-1.9-5.1-3.5-7.6-4.7-1.1-.6-2.3-1.1-3.4-1.5l2.6-8.2c.3-1.1-.3-2.3-1.4-2.6-1.1-.3-2.3.3-2.6,1.4l-2.6,8.2c-2.1-.5-4.1-.7-6.1-.7s-3.9.2-5.8.7l-2.1-8.2c-.2-1.2-1.3-1.8-2.4-1.5-1.1.3-1.8,1.4-1.5,2.5l2.2,8.4c-1.1.4-2.3.9-3.4,1.5-2.5,1.3-5,3-7.4,5l-4.6-5.6c-.7-.9-2-1-2.9-.3s-1,2-.3,2.9l4.7,5.7c-5.2,5-8.2,9.9-8.3,10.1l-.7,1.2.8,1.1c.2.2,4,5.5,9.8,10.8,3.5,3.2,7,5.7,10.4,7.5,4.4,2.3,8.7,3.5,12.7,3.5s8.4-1.2,12.7-3.5c3.4-1.8,6.9-4.3,10.4-7.5,5.9-5.3,9.7-10.6,9.8-10.8l.9-1.2-.8-1.2Zm-33,20.1c-12.9,0-25.5-14.7-28.8-19,1.2-1.7,3.8-5.2,7.4-8.6,4.6-4.3,11.8-9.5,20.3-9.5,7.4,0,14.3,3.9,19.4,7.8.1.3.3.6.6.8.3.2.6.4.9.4.2.2.4.3.6.5,4,3.4,6.9,6.8,8.4,8.6-3.5,4.4-15.9,19-28.8,19Z"/><path class="cls-1" d="m39.3,22.6c-5.2,0-9.4,4.2-9.4,9.4s4.2,9.4,9.4,9.4,9.4-4.2,9.4-9.4-4.2-9.4-9.4-9.4Zm0,14.6c-2.9,0-5.2-2.4-5.2-5.2s2.4-5.2,5.2-5.2,5.2,2.4,5.2,5.2c.1,2.9-2.3,5.2-5.2,5.2Z"/></svg>