<?xml version="1.0" encoding="UTF-8"?><svg id="Layer_1" xmlns="http://www.w3.org/2000/svg" viewBox="0 0 60.1 56.62"><defs><style>.cls-1{fill:#fff;}</style></defs><path class="cls-1" d="m43.67,10.83c-2.03-.17-3.81,1.34-3.98,3.38s1.34,3.81,3.38,3.98,3.81-1.34,3.98-3.38-1.34-3.81-3.38-3.98Z"/><path class="cls-1" d="m29.65,22.86c-3.02-1.58-6.75-.41-8.33,2.61-1.58,3.02-.41,6.75,2.61,8.33,3.02,1.58,6.75.41,8.33-2.61s.41-6.75-2.61-8.33Z"/><path class="cls-1" d="m47.31.25c-11.49-2.01-17.32,8.57-17.32,8.57,0,0-5.83-10.57-17.32-8.57C4.86,1.62-1.64,8.82.37,21.04c2.01,12.22,13.77,20.42,13.77,20.42l15.86,14.58,15.86-14.58s11.76-8.2,13.77-20.42C61.62,8.82,55.12,1.62,47.31.25h0Zm-6.9,26.79l-2.07.65c.06,1.14-.04,2.29-.32,3.42l1.94,1.01c.55.29.76.96.47,1.5l-1.56,2.99c-.29.55-.96.76-1.5.47l-1.97-1.03c-.77.86-1.66,1.58-2.62,2.17l.67,2.14c.18.59-.14,1.21-.73,1.4l-3.22,1.01c-.59.18-1.21-.14-1.4-.73l-.68-2.16c-1.11.06-2.24-.04-3.35-.3l-1.05,2.02c-.29.55-.96.76-1.5.47l-2.99-1.56c-.55-.29-.76-.96-.47-1.5l1.05-2.02c-.86-.76-1.58-1.63-2.17-2.58l-2.16.68c-.59.18-1.21-.14-1.4-.73l-1.01-3.22c-.18-.59.14-1.21.73-1.4l2.14-.67c-.07-1.12.02-2.26.28-3.39l-1.97-1.03c-.54-.29-.76-.96-.47-1.5l1.56-2.99c.29-.55.96-.76,1.5-.47l1.94,1.01c.77-.88,1.66-1.62,2.62-2.22l-.65-2.07c-.18-.59.14-1.21.73-1.4l3.22-1.01c.59-.18,1.21.14,1.4.73l.64,2.04c1.15-.07,2.31.02,3.46.3l.99-1.89c.29-.54.96-.76,1.5-.47l2.99,1.56c.55.29.76.96.47,1.5l-.99,1.89c.88.78,1.63,1.68,2.22,2.66l2.04-.64c.59-.18,1.21.14,1.4.73l1.01,3.22c.18.59-.14,1.21-.73,1.4h0Zm11.54-10.77c-.03.37-.35.64-.72.61l-1.32-.11c-.22.65-.54,1.26-.94,1.8l.87,1.02c.24.28.2.7-.08.94l-1.54,1.3c-.28.24-.7.2-.94-.08l-.88-1.03c-.6.29-1.24.5-1.92.61l-.11,1.36c-.03.37-.35.64-.72.61l-2.01-.17c-.37-.03-.64-.35-.61-.72l.11-1.36c-.65-.22-1.25-.53-1.79-.92l-1.03.88c-.28.24-.7.2-.94-.08l-1.3-1.54c-.24-.28-.2-.7.08-.94l1.02-.87c-.3-.6-.52-1.25-.63-1.93l-1.32-.11c-.37-.03-.64-.35-.61-.72l.17-2.01c.03-.37.35-.64.72-.61l1.3.11c.22-.66.54-1.28.93-1.83l-.84-.99c-.24-.28-.2-.7.08-.94l1.54-1.3c.28-.24.7-.2.94.08l.83.98c.61-.31,1.28-.52,1.97-.64l.11-1.27c.03-.37.35-.64.72-.61l2.01.17c.37.03.64.35.61.72l-.11,1.27c.67.23,1.29.55,1.84.95l.98-.83c.28-.24.7-.2.94.08l1.3,1.54c.24.28.2.7-.08.94l-.99.84c.3.61.51,1.27.62,1.96l1.3.11c.37.03.64.35.61.72l-.17,2.01h0Z"/></svg>