<?xml version="1.0" encoding="UTF-8"?><svg id="Layer_1" xmlns="http://www.w3.org/2000/svg" viewBox="0 0 289.04 289.04"><defs><style>.cls-1{fill:#fff;}</style></defs><path class="cls-1" d="m192.04,92.76c0-24.34-19.73-44.07-44.07-44.07-19.98,0-36.84,13.3-42.25,31.52l54.79,54.79c18.22-5.41,31.52-22.27,31.52-42.25Z"/><path class="cls-1" d="m70.24,216.95h112.71l-68.43-68.43c-24.87,12.32-42.49,38.12-44.28,68.43Z"/><path class="cls-1" d="m279.02,91.35c-3.88-9.85-8.81-19.16-14.66-27.81-1.3-1.92-2.64-3.81-4.03-5.67-1.39-1.85-2.82-3.68-4.29-5.46-3.68-4.46-7.63-8.7-11.81-12.69-3.35-3.19-6.85-6.22-10.49-9.08-1.82-1.43-3.68-2.82-5.56-4.16-2.83-2.01-5.74-3.93-8.72-5.74-3.97-2.41-8.07-4.64-12.28-6.67-1.05-.51-2.11-1-3.18-1.48-3.2-1.45-6.46-2.78-9.78-4s-6.7-2.31-10.13-3.29C171.51,1.73,158.24-.18,144.52-.18,64.7-.18,0,64.52,0,144.34s64.7,144.52,144.52,144.52c13.72,0,26.99-1.91,39.56-5.48,3.43-.97,6.81-2.07,10.13-3.29s6.58-2.55,9.78-4c1.07-.48,2.13-.98,3.18-1.48,4.21-2.03,8.31-4.26,12.28-6.67,2.98-1.81,5.89-3.73,8.72-5.74,1.89-1.34,3.74-2.73,5.56-4.16,3.64-2.86,7.14-5.89,10.49-9.08,4.18-3.99,8.13-8.22,11.81-12.69,1.47-1.78,2.9-3.6,4.29-5.46,1.39-1.85,2.73-3.74,4.03-5.67,5.84-8.65,10.78-17.97,14.66-27.81,6.47-16.41,10.02-34.29,10.02-52.99s-3.55-36.58-10.02-52.99Zm-64.77,152.55c-2.7,1.9-5.48,3.69-8.31,5.36s-5.73,3.21-8.68,4.64c-5.91,2.85-12.03,5.21-18.33,7.06-1.58.46-3.16.89-4.76,1.29-3.19.8-6.42,1.47-9.69,2-6.53,1.07-13.2,1.62-19.95,1.62-5.07,0-10.1-.31-15.05-.92-1.98-.24-3.95-.53-5.91-.87-1.96-.34-3.91-.72-5.84-1.16-2.9-.65-5.77-1.4-8.6-2.26-1.89-.57-3.76-1.19-5.62-1.85-1.86-.66-3.69-1.37-5.51-2.13s-3.62-1.55-5.4-2.39c-2.67-1.26-5.3-2.63-7.88-4.09-1.72-.97-3.41-1.99-5.09-3.05-1.67-1.06-3.32-2.16-4.95-3.31-2.44-1.72-4.82-3.53-7.14-5.44-2.32-1.91-4.58-3.91-6.78-6-.73-.7-1.46-1.4-2.17-2.12-1.43-1.43-2.83-2.9-4.18-4.39-2.03-2.24-3.97-4.54-5.81-6.9-.61-.79-1.22-1.58-1.81-2.38-1.19-1.6-2.33-3.22-3.44-4.87-8.27-12.37-14.15-26.09-17.4-40.58-1.95-8.7-2.95-17.67-2.95-26.8,0-5.06.31-10.08.91-15.03.81-6.6,2.15-13.07,4-19.37.93-3.15,1.98-6.26,3.16-9.32,1.77-4.59,3.81-9.06,6.13-13.41,3.09-5.79,6.67-11.35,10.71-16.62h0l74.54,74.54,71.8,71.8,24,24c-1.32,1.01-2.65,1.99-4,2.94Zm45.25-60.04c-.29.84-.58,1.67-.89,2.5-.61,1.66-1.26,3.3-1.94,4.94-1.02,2.45-2.13,4.86-3.32,7.23-.79,1.58-1.62,3.15-2.48,4.7-3.87,6.97-8.46,13.59-13.71,19.76l-13.09-13.09-68.68-68.68-4.48-4.48-46.91-46.91-38.12-38.12c21.94-18.68,49.5-28.87,78.64-28.87,2.03,0,4.05.05,6.06.15,4.02.2,8.01.59,11.95,1.17,1.97.29,3.93.63,5.88,1.02s3.88.82,5.8,1.3c2.88.72,5.72,1.54,8.53,2.47,2.81.93,5.58,1.96,8.31,3.09,2.73,1.13,5.42,2.36,8.06,3.69,1.76.89,3.5,1.82,5.22,2.79,3.44,1.95,6.78,4.07,10.03,6.36,5.69,4.01,11.07,8.54,16.09,13.56,2.15,2.15,4.21,4.37,6.18,6.65.66.76,1.3,1.53,1.94,2.3,1.91,2.32,3.72,4.7,5.44,7.14,1.15,1.62,2.25,3.27,3.31,4.95,1.06,1.67,2.08,3.37,3.05,5.09.97,1.72,1.91,3.46,2.79,5.22.89,1.76,1.73,3.54,2.53,5.34,1.6,3.6,3.02,7.28,4.25,11.02,4.02,12.17,6.1,25.03,6.1,38.22s-2.24,26.97-6.54,39.52Z"/></svg>