<svg width="54" height="62" viewBox="0 0 54 62" fill="none" xmlns="http://www.w3.org/2000/svg">
<path d="M35.2 6.91L33.26 3H20.87L18.93 6.91H3V13.37H50.35V6.91H35.2Z" fill="white"/>
<path d="M50.3496 13.3701V6.91016H35.2002L33.2598 3H20.8701L18.9297 6.91016H3V13.3701H50.3496ZM53.3496 16.3701H0V3.91016H17.0693L19.0098 0H35.1201L37.0605 3.91016H53.3496V16.3701Z" fill="black"/>
<path d="M6.13086 16.8906L9.13086 53.5706C9.13086 56.1606 11.2309 58.2706 13.8309 58.2706H39.8209C42.4109 58.2706 44.5209 56.1706 44.5209 53.5706L47.5209 16.8906H6.13086ZM22.5609 48.9806C22.5609 50.6006 21.2509 51.9106 19.6309 51.9106C18.0109 51.9106 16.7009 50.6006 16.7009 48.9806V25.3106C16.7009 23.6906 18.0109 22.3806 19.6309 22.3806C21.2509 22.3806 22.5609 23.6906 22.5609 25.3106V48.9806ZM36.6509 48.9806C36.6509 50.6006 35.3409 51.9106 33.7109 51.9106C32.0809 51.9106 30.7809 50.6006 30.7809 48.9806V25.3106C30.7809 23.6906 32.0909 22.3806 33.7109 22.3806C35.3309 22.3806 36.6509 23.6906 36.6509 25.3106V48.9806Z" fill="white"/>
<path d="M50.7764 13.8906L47.5166 53.7441C47.4242 57.9244 44.006 61.2703 39.8213 61.2705H13.8311C9.6283 61.2705 6.22703 57.9072 6.13477 53.7441L2.875 13.8906H50.7764ZM9.13086 53.5703C9.13086 56.0795 11.1018 58.1386 13.5889 58.2646L13.8311 58.2705H39.8213C42.4111 58.2703 44.5205 56.1702 44.5205 53.5703L47.5205 16.8906H6.13086L9.13086 53.5703ZM36.6504 48.9805C36.6504 50.6004 35.3409 51.9101 33.7109 51.9102L33.5586 51.9072C32.051 51.8312 30.8596 50.6312 30.7842 49.1318L30.7812 48.9805V25.3105C30.7813 23.6906 32.091 22.3809 33.7109 22.3809C35.3309 22.3809 36.6503 23.6906 36.6504 25.3105V48.9805ZM22.5605 48.9805C22.5605 50.6005 21.2509 51.9102 19.6309 51.9102L19.4795 51.9072C17.9801 51.8312 16.7811 50.6312 16.7051 49.1318L16.7012 48.9805V25.3105C16.7012 23.6906 18.0109 22.3809 19.6309 22.3809C21.2508 22.3809 22.5605 23.6906 22.5605 25.3105V48.9805Z" fill="black"/>
</svg>
