<svg width="86" height="95" viewBox="0 0 86 95" fill="none" xmlns="http://www.w3.org/2000/svg">
<path d="M14.7343 17.9932C17.4666 22.2056 23.0512 23.5837 27.4497 21.0442C31.8482 18.5047 33.447 12.9793 31.1651 8.50684L42.4352 2C44.3484 0.895431 46.7948 1.55093 47.8993 3.4641L83.3993 64.9519C84.5039 66.8651 83.8484 69.3114 81.9352 70.416L70.6651 76.9228C70.5897 76.7751 70.5108 76.6283 70.4269 76.483C67.8036 71.9392 61.9935 70.3824 57.4497 73.0058C52.9059 75.6291 51.3491 81.4392 53.9724 85.983C54.0563 86.1283 54.144 86.2701 54.2343 86.4092L42.9641 92.916C41.0509 94.0206 38.6046 93.3651 37.5 91.4519L2 29.9641C0.895431 28.0509 1.55093 25.6046 3.4641 24.5L14.7343 17.9932Z" fill="#E4E4E4"/>
<path d="M20.2179 37.7796L24.298 41.204L28.8156 38.3818L26.8197 43.3204L30.8998 46.7448L25.5861 46.3726L23.5901 51.3112L22.3021 46.1426L16.9884 45.7704L21.506 42.9482L20.2179 37.7796Z" fill="#3B3B3B"/>
<path d="M32.9406 29.8324L37.0207 33.2568L41.5383 30.4345L39.5423 35.3731L43.6224 38.7975L38.3088 38.4254L36.3128 43.3639L35.0247 38.1953L29.7111 37.8232L34.2287 35.001L32.9406 29.8324Z" fill="#3B3B3B"/>
<path d="M45.6613 21.8851L49.7414 25.3095L54.259 22.4873L52.263 27.4259L56.3431 30.8503L51.0295 30.4781L49.0335 35.4167L47.7454 30.2481L42.4318 29.8759L46.9494 27.0537L45.6613 21.8851Z" fill="#3B3B3B"/>
<rect x="23" y="56.0605" width="42.1207" height="25.5974" transform="rotate(-30 23 56.0605)" fill="#3B3B3B"/>
<path d="M31.8667 56.0034L41.8849 50.2194L43.1329 52.381L35.4841 56.797L37.7761 60.7669L44.8013 56.7109L46.0493 58.8725L39.0241 62.9285L41.3881 67.023L49.1616 62.535L50.4096 64.6966L40.2667 70.5526L31.8667 56.0034ZM44.7556 48.562L49.9517 45.562C54.0948 43.17 57.0863 43.5675 58.9263 46.7545C60.7663 49.9414 59.6148 52.7309 55.4717 55.1229L52.645 56.7549L55.525 61.7432L53.1556 63.1112L44.7556 48.562ZM56.7057 50.7801C57.1468 50.0082 57.0833 49.1303 56.5153 48.1465C55.9473 47.1627 55.2228 46.6757 54.3417 46.6856C53.4664 46.6736 52.4607 46.9956 51.3244 47.6516L48.373 49.3556L51.397 54.5933L54.3484 52.8893C55.4847 52.2333 56.2704 51.5303 56.7057 50.7801Z" fill="white"/>
</svg>
