<?xml version="1.0" encoding="UTF-8"?><svg id="Layer_1" xmlns="http://www.w3.org/2000/svg" viewBox="0 0 65 65"><defs><style>.cls-1{fill:#fff;}</style></defs><path class="cls-1" d="m41.26,64.01H.35s-1.34-7.09,1.24-9.39c2.58-2.29,10.22-4.8,10.22-4.8,0,0,3.6-1.31,3.6-2.49s-7.23-5.48-7.23-13.7c0-4.6,1.49-12.73,10.92-12.73s11.9,7.67,11.8,10.23c-.41,10.37-4.85,12.99-7.01,15.65-1.62,2.01,9.48,4.17,13.07,6.68s4.27,10.54,4.27,10.54h.01Z"/><path class="cls-1" d="m19.01,17.1s15.47.76,15.47,13.08c-.62,8.69-6.25,16.36-6.25,16.36,0,0,8.95,2.23,12.94,5.28,4.29,3.28,4.82,9.26,4.82,9.26h3.96c0-3.66-1.15-6.63-4.95-10.52-3.33-3.4-10.51-5.27-11.6-5.75,0,0,4.15-7.22,4.35-15.26.37-14.38-18.75-15.62-18.75-15.62v3.16Z"/><path class="cls-1" d="m64.64,11.09h-11.09V0h-6.34v11.09h-11.09v6.34h11.09v11.09h6.34v-11.09h11.09v-6.34Z"/></svg>