<?xml version="1.0" encoding="UTF-8"?><svg id="Layer_1" xmlns="http://www.w3.org/2000/svg" viewBox="0 0 103 78"><defs><style>.cls-1{fill:#fff;}</style></defs><path class="cls-1" d="m2.5,3.5c1.19-.27,2.21.05,2.94.53l19.53,70.93.24-.07.51,2.68h-6.71S1.5,10.5,1.5,10.5c-.21-1.72-2.32-6.24,1-7ZM20,.85c6.6-.95,14.49-1.15,21,.15,15,3,20.5,6.5,22.5,8,.02.01.84.43,2.54,2.03l17.1,41.67-3.56-19.46c.14.25.27.5.42.75,4.5,8,23,1.5,23,1.5-3,14.5-12.5,21.5-19.5,20.5-7.21-1.03-5-8.5-18-8.5-10.92,0-33.46,13.06-39.8,18.8L8.51,3.88c1.65-.84,4.19-1.64,7.23-2.28l6.65,16L20,.85Zm19.86,11.97l-5.73-1.11-1.9,5.51-5.51,1.9,1.11,5.73-3.82,4.41,3.82,4.41-1.11,5.73,5.51,1.9,1.9,5.51,5.73-1.11,4.41,3.82,4.41-3.82,5.73,1.11,1.9-5.51,5.51-1.9-1.11-5.73,1.81-2.09h-10.73v-8.11h0v-2.32h-7.67l9.24-9.24-4.7.91-4.41-3.82-4.41,3.82Zm-1.16,26.24h-1.85l7.58-15.19h1.85l-7.58,15.19Zm7.49-7.23c1.78,0,3.33,1.09,3.33,3.19,0,2.09-1.56,3.19-3.33,3.19-1.8,0-3.37-1.09-3.37-3.19,0-2.09,1.58-3.19,3.37-3.19Zm0,1.91c-.91,0-1.3.61-1.3,1.28,0,.67.39,1.28,1.3,1.28.87,0,1.26-.61,1.26-1.28,0-.67-.39-1.28-1.26-1.28Zm-9.28-9.02c1.78,0,3.33,1.09,3.33,3.19,0,2.09-1.56,3.19-3.33,3.19-1.8,0-3.37-1.09-3.37-3.19,0-2.09,1.57-3.19,3.37-3.19Zm16.63.78h0v4.34h0s9.26,0,9.26,0v-4.63h-9.26v.29Zm10.99,3.77h0s0-.01,0-.01h0Zm-27.62-2.63c-.91,0-1.3.61-1.3,1.28,0,.67.39,1.28,1.3,1.28.87,0,1.26-.61,1.26-1.28,0-.67-.39-1.28-1.26-1.28Zm17.91-13.7h0s-6.5,6.5-6.5,6.5h5.21v4.05h0v.29h9.26v-4.34h5.21l-9.55-10.13-3.63,3.63Z"/></svg>