<?xml version="1.0" encoding="UTF-8"?><svg id="Layer_1" xmlns="http://www.w3.org/2000/svg" viewBox="0 0 197.22 190.05"><defs><style>.cls-1{fill:#fff;fill-rule:evenodd;}</style></defs><g><polygon class="cls-1" points="25.19 177.93 66.59 177.93 66.7 169.56 25.3 169.56 25.19 177.93"/><path class="cls-1" d="m32.19,75.12h28.96s-1.7-42.77-14.75-63.01c-10.14,18.71-14.21,63.01-14.21,63.01Z"/><polygon class="cls-1" points="27.65 164.56 65.68 164.56 64.95 101.01 61.29 91.79 61.18 79.1 30.28 79.1 30.37 92.75 26.94 101.01 27.65 164.56"/></g><g><polygon class="cls-1" points="79.17 177.93 120.57 177.93 120.69 169.56 79.28 169.56 79.17 177.93"/><path class="cls-1" d="m86.17,75.12h28.96s-1.7-42.77-14.75-63.01c-10.14,18.71-14.21,63.01-14.21,63.01Z"/><polygon class="cls-1" points="81.63 164.56 119.66 164.56 118.93 101.01 115.27 91.79 115.16 79.1 84.26 79.1 84.36 92.75 80.92 101.01 81.63 164.56"/></g><g><polygon class="cls-1" points="130.51 177.93 171.92 177.93 172.03 169.56 130.62 169.56 130.51 177.93"/><path class="cls-1" d="m137.51,75.12h28.96s-1.7-42.77-14.75-63.01c-10.14,18.71-14.21,63.01-14.21,63.01Z"/><polygon class="cls-1" points="132.98 164.56 171.01 164.56 170.27 101.01 166.62 91.79 166.5 79.1 135.61 79.1 135.7 92.75 132.27 101.01 132.98 164.56"/></g></svg>