<?xml version="1.0" encoding="UTF-8"?><svg id="Layer_1" xmlns="http://www.w3.org/2000/svg" viewBox="0 0 89 79"><defs><style>.cls-1{fill:#fff;}</style></defs><path class="cls-1" d="m64.75,53.27c-3.78,1.17-10.61,5.23-14.48,7.71-4.99,3.21-12.31,10.25-14.48,12.57l1.98,1.45c3.34-3.56,6.45-7.24,13.75-12.17,5.84-3.94,14.27-7.41,14.27-7.41l-1.04-2.16Z"/><path class="cls-1" d="m67.19,60.49c-3.53-1.06-7.05-.42-8.36.03.54,1.42,2.31,4.72,5.06,6.53,2.75,1.81,7.32,1.58,9.26,1.24-.51-2.15-2.42-6.73-5.95-7.79Z"/><path class="cls-1" d="m83.39,53.33c-2.22,1.53-5.58,2.99-10.65,3.87h-.06s-.06.01-.06.01c-1.5.1-3.22-.18-4.57-.76-.1-.04-.2-.09-.3-.14.49.88,1.09,1.67,1.81,2.21,1.13.86,2.75.75,3.04.69l15.41-4.08c-.43-.32-1.58-1.07-2.67-1.39-.55-.16-1.27-.3-1.95-.4Z"/><path class="cls-1" d="m69.23,44.97c-.17.06-2.04.74-2.79,2.59-.37.9-.47,1.92-.39,2.98.15-.29.33-.59.57-.89,1.11-1.41,3.18-2.71,6.97-3.69,3.4-1.03,6.07-1.26,8.12-1.1.23-.25.47-.55.72-.92.46-.66.79-1.37,1.08-1.96.18-.37.33-.69.48-.94l-14.74,3.9s0,0-.01,0Z"/><path class="cls-1" d="m80.13,46.14s.09-.06.14-.1c.03-.02.06-.04.09-.06-1.71,0-3.84.3-6.47,1.1-6.95,1.78-7.16,4.5-7.27,5.82,0,.08-.01.16-.02.23-.2,1.92,3.28,3.07,5.93,2.9,8.6-1.48,11.9-4.66,13.14-6.6.36-.62.57-1.19.63-1.52-.13-.07-.26-.15-.41-.24-.61-.37-1.39-.83-2.8-1.17-.91-.22-2.36-.35-2.97-.38Z"/><polygon class="cls-1" points="46.24 17.83 51.65 34.49 69.18 34.49 55 44.79 58.01 54.06 61.22 52.63 59.1 46.13 79.92 31 54.19 31 46.24 6.54 41.03 22.57 43.21 27.15 46.24 17.83"/><polygon class="cls-1" points="50.32 58.44 53.53 56.46 46.24 51.16 32.06 61.46 36.39 48.13 31.73 51.19 25.42 70.6 46.24 55.47 50.32 58.44"/><path class="cls-1" d="m35.21,46.55c1.23-1.23,4.17-5.91,5.64-6.89,1.18-.79,3.92-.33,5.15,0-1.04-1.6-3.47-4.53-5.86-5.25,0-.02,0-.04,0-.06-.4-.11-.8-.16-1.19-.13-.41.03-.75.1-1.08.19-.1.03-.19.05-.28.08-.07.03-.15.05-.22.08-1.85.72-2.31,2.4-3.14,3.16-.07.06-.15.13-.23.17-.99.59-2.23-.25-2.72-.74-.84-.62-2.59-1.94-4.93-3.78-1.98-1.58-4.4-3.54-7.1-5.8C13.39,22.66,5.87,12.9,2.84,8.63c-1.39,4.02-3.34,14.23,0,22.9,3.34,8.67,13.98,11.33,18.88,11.57.25.49.59,1.87,0,3.45-.59,1.58-3.02,2.13-4.17,2.22-3.35.49-10.3,2.36-11.28,5.91-1.23,4.43,11.04,6.89,14.72,6.16,3.68-.74,3.92-4.68,4.41-6.16.39-1.18,2.94-4.43,4.17-5.91,1.47-.33,4.66-1.23,5.64-2.22Z"/><path class="cls-1" d="m22.34,27.62c4.99,4.08,8.77,6.96,10.14,7.96l.12.09.11.1s.12.11.22.18c.06.04.13.08.18.11.03-.04.06-.08.1-.13.04-.06.09-.13.15-.22h0c.19-.29.48-.71.77-1.08.93-1.14,2.33-2.22,4.71-2.39.53-.04,1.05.01,1.55.12.19-2.85-.16-6.05-1.9-8.24-3.71-4.67-6.68-9.34-7.92-12.29-.99-2.36-3.05-7.54-3.96-9.84-2.06,3.2-6.09,10.92-5.69,16.23.18,2.44.76,5.92,1.43,9.39Z"/></svg>