<?xml version="1.0" encoding="UTF-8"?><svg id="Layer_1" xmlns="http://www.w3.org/2000/svg" viewBox="0 0 83.99 82.65"><defs><style>.cls-1{fill:#fff;}</style></defs><path class="cls-1" d="m62.96,26.59l-8.36,5.99,27.84,9,1.56-30.08-8.79,6.3S61.68-2.88,34.97.34C8.26,3.57.79,32.71.79,32.71l15.04,5.14s4.05-17.12,20.37-21.81c15.74-4.52,26.76,10.54,26.76,10.54Z"/><path class="cls-1" d="m21.04,56.07l8.36-5.99L1.56,41.07l-1.56,30.08,8.79-6.3s13.53,20.69,40.23,17.46c26.71-3.23,34.18-32.37,34.18-32.37l-15.04-5.14s-4.05,17.12-20.37,21.81c-15.74,4.52-26.76-10.54-26.76-10.54Z"/></svg>