<svg xmlns="http://www.w3.org/2000/svg" width="800" height="800" viewBox="0 0 800 800">
  <defs>
    <style>
      .cls-1 {
        fill: #fff;
        fill-rule: evenodd;
      }
    </style>
  </defs>
  <path id="hand_grenade" class="cls-1" d="M441.1,452.164l13.591,3.717a648.944,648.944,0,0,1,49.486,98.7l-4.791,12.928c-21.529,11.328-79.678,41.911-101.21,53.236l-13.372-3.38a648.753,648.753,0,0,1-53.278-96.706l4.636-13.3C358.505,495.605,418.758,463.915,441.1,452.164Zm162.036,60.782c-13.978,7.352-36.887,19.4-52.64,27.682l-14.366-5.259a680.59,680.59,0,0,0-48.075-95.5l4.008-14.51c15.666-8.24,40.168-21.125,54.467-28.638l20.953,5.438c8.44,11.626,39.967,67.581,46.583,88.572ZM296.087,674.439l-24.5-3.581c-13.547-17.348-41.788-75.03-46.584-88.572l7.39-20.345c14.293-7.527,38.795-20.412,54.461-28.652l14.226,4.92a680.917,680.917,0,0,0,51.449,93.725l-3.806,14.816C332.975,655.039,310.067,667.088,296.087,674.439Zm284.194,6.177c-5.535-29.6-16.465-65.4-25.318-93.257l5.024-12.286c12.492-6.57,29.242-17.06,44.556-25.059l27.216,17.347c4.328,41.922,1.19,70.349-17.556,104.213L595.23,687.88Zm-133.086,70-2.487,16.434-24.186,6.393C382,769.7,356.8,756.176,324.707,728.854l1.128-32.253c15.268-8.086,33.4-15.943,45.894-22.514l12.97,2.822C402.634,699.986,425.943,729.281,447.2,750.613Zm100.131-45.471L541.94,715.91c-11.287,5.939-34.307,18.046-45.6,23.984l-11.928-1.665c-22.595-21.625-47.047-51.32-65.93-74.9l3.272-15.554c20.794-10.94,65.747-34.583,86.543-45.521l14.677,6.119C531.7,637.3,542.312,674.27,547.326,705.142ZM289.78,403.36l5.2-11.653c16.6-8.732,57.56-30.275,74.159-39l12.554,2.315c13.307,15.18,29.576,37.85,41.345,53.839l-3.524,15.227c-21.936,11.54-72.325,38.041-94.261,49.579l-14.548-5.725C304.205,449.178,294.746,422.928,289.78,403.36Zm234.131-34.18c-15.214,8-40.27,21.18-53.023,27.884l-13.2-3.128c-11.224-15.612-26.87-37.944-39.48-52.826l3.056-15.823c11.222-5.9,27.748-14.6,35.746-18.793l27.907-1.119,43.8,40.284ZM222.521,527.7l-22.107-9.364-8.372-58.916,16.733-22.36c7.991-4.212,24.517-12.9,35.741-18.807l14.769,6.448c5.118,18.823,14.652,44.37,21.157,62.464l-4.9,12.646C262.791,506.516,237.734,519.694,222.521,527.7ZM331.362,112.924L581.907,280.882c2.08,1.4,86.62,134.376,86.62,134.376,2.755,4.362-4.126,11.639-12.124,16.456l-17.784-1.4L558.655,308.664,358.205,196.681l-20.859,14.444,42.806,49.657c7.22,9.268,3.983,24.28-6.415,29.748L235.681,363.141C225.1,368.707,210.63,362.5,207.363,351L194.8,266.875l-9.783-18.6-14.172,7.454a18.011,18.011,0,0,1-24.326-7.559l-13.044-24.8a18.014,18.014,0,0,1,7.13-24.1s140.6-76.756,140.85-78.708A107.3,107.3,0,0,1,306.411,64.3C344.418,19.735,410.647,13.72,454.219,50.878c33.731,28.767,44.055,75.029,29.363,115.137l-25.5-5.879c10.964-26.635,4.548-58.077-18.1-77.387-28.321-24.154-71.373-20.244-96.078,8.726A70.158,70.158,0,0,0,331.362,112.924Z"/>
</svg>
