<?xml version="1.0" encoding="UTF-8"?><svg id="Layer_1" xmlns="http://www.w3.org/2000/svg" viewBox="0 0 100 56"><defs><style>.cls-1{fill:#fff;}</style></defs><path class="cls-1" d="m97.04,36s2.61-2.48,2.45-3.23c-.15-.75-4.75-1.75-4.75-1.75,0,0-.72-4.65-1.35-6.6s-1.53-7.47-1.53-7.47c0,0-.49,5.29-.34,6.69.16,1.4.81,7.1.81,7.1l-3.79.45,2.01,10.5c.23-.13.42-.24.53-.32.87-.57,3.5-4.09,3.5-4.09,0,0,.6,4.81.63,5.58s2.9,7.32,2.9,7.32c0,0,0-5.84,0-7.14s-1.06-7.05-1.06-7.05Z"/><path class="cls-1" d="m86.59,31.42l-1.74.21-21.59,4.17-5.59-1.97-5.72.94-.07-34.63-17.43,3.3-4.4,22.5-1.25-14.21-7.57,5.77-3.8,18.05,9.76-1.85,3.13-6.37,17.43-3.3.03,13.2h.06s-.67.44-.67.44c0,0-16.31,4.81-25.28,7.05l-4.17.95c-.76.14-1.28.21-1.49.16-1.9-.39-3.63-2.5-4.56-4.51-.93-2.01-6.03-4.08-6.03-4.08,0,0-1.91,2.08-3.1,3.88-1.19,1.8-1.82,5.69-1.82,5.69,0,0-.47,1.52-.07,5.37s5.95,3.68,5.95,3.68l9.05-.82,3.81-.26,4.29-.3,12.22-.84,9.62-4.98,26.73-6.83-23.31,8.18-3.68,2.78,11.79-1.32s2.32,1.21,3.62,1.2,10.89-1.33,10.89-1.33l-.08-1.67,8.17-1.94,6.2-1.79-.33-1.62s1.65-.85,3.16-1.65l-2.16-11.25Z"/></svg>