<?xml version="1.0" encoding="UTF-8"?><svg id="Layer_1" xmlns="http://www.w3.org/2000/svg" viewBox="0 0 73.57 76.7"><defs><style>.cls-1{fill:#fff;}</style></defs><path class="cls-1" d="m36.78,2.87C16.97,2.87.91,18.92.91,38.73s16.06,35.87,35.87,35.87,35.87-16.06,35.87-35.87S56.59,2.87,36.78,2.87Zm16.63,24.39c-.54,5.67-2.88,19.44-4.06,25.79-.5,2.69-1.49,3.59-2.45,3.68-2.08.19-3.66-1.38-5.68-2.7-3.16-2.07-4.94-3.36-8-5.38-3.54-2.33-1.25-3.62.77-5.71.53-.55,9.71-8.9,9.88-9.65.02-.09.04-.45-.17-.63-.21-.19-.52-.12-.74-.07-.32.07-5.36,3.41-15.13,10-1.43.98-2.73,1.46-3.89,1.44-1.28-.03-3.74-.72-5.58-1.32-2.25-.73-4.03-1.12-3.88-2.36.08-.65.97-1.31,2.67-1.98,10.46-4.56,17.43-7.56,20.92-9.01,9.96-4.14,12.03-4.86,13.38-4.89.3,0,.96.07,1.39.42.36.29.46.69.51.97.05.28.11.92.06,1.41Z"/></svg>