<?xml version="1.0" encoding="UTF-8"?><svg id="Layer_1" xmlns="http://www.w3.org/2000/svg" viewBox="0 0 77.22 73"><defs><style>.cls-1{fill:#fff;}</style></defs><path class="cls-1" d="m28.28,34c-.71-.39-2.28-1.72-3.42-3.81-1.14-2.09-3.45-3.31-3.4-3.49,0,0-1.36-.93-2.22-1.78-.85-.85.25-4.8.25-4.8l.93-3.42-3.35,1.14c-.66-1.52-.03-4.83-.03-4.83l-1.89,1.65,1.31-2.95,3.95-4.38s-2.28-1.23-3.23-1.23-1.42.66-1.42.66c0,0,0-3.42-.1-4.46-.09-1.04-2.47-1.9-2.47-1.33s-.47,1.23-.47,1.23c0,0-1.23,1.61-1.42,2.56-.19.95.85,3.23.85,3.23,0,0-1.52-1.14-2.37-1.52-.85-.38-2.18-.38-2.18-.38,0,0,.57,2.75.85,3.7.28.95,1.8,2.09,1.8,2.09h-2.66s.66,1.8,1.23,2.28,2.75,3.7,2.75,3.7h-2.75s1.04,2.56,2.37,4.93c1.33,2.37,4.56,2.56,4.56,2.56l-4.08.76s3.7,2.66,5.03,2.66h4.46l-2.94,1.42s2.37,1.8,2.94,1.99c.57.19,3.32.95,3.32.95,0,0,1.52,1.52,3.04,2.75,1.52,1.23,5.69,1.61,5.69,1.61l-.85-2.09s-1.53-.01-4.09-1.44Z"/><path class="cls-1" d="m68.76,9.81c.28-.95.85-3.7.85-3.7,0,0-1.33,0-2.18.38-.85.38-2.37,1.52-2.37,1.52,0,0,1.04-2.28.85-3.23-.19-.95-1.42-2.56-1.42-2.56,0,0-.47-.66-.47-1.23s-2.37.28-2.47,1.33c-.09,1.04-.09,4.46-.09,4.46,0,0-.47-.66-1.42-.66s-3.23,1.23-3.23,1.23l3.95,4.38,1.31,2.95-1.89-1.65s.64,3.31-.03,4.83l-3.35-1.14.93,3.42s1.1,3.95.25,4.8c-.85.85-2.22,1.78-2.22,1.78.05.18-2.27,1.4-3.4,3.49-1.14,2.09-2.71,3.41-3.42,3.81-2.56,1.42-4.09,1.44-4.09,1.44l-.85,2.09s4.18-.38,5.69-1.61c1.52-1.23,3.04-2.75,3.04-2.75,0,0,2.75-.76,3.32-.95.57-.19,2.94-1.99,2.94-1.99l-2.94-1.42h4.46c1.33,0,5.03-2.66,5.03-2.66l-4.08-.76s3.23-.19,4.56-2.56c1.33-2.37,2.37-4.93,2.37-4.93h-2.75s2.18-3.23,2.75-3.7c.57-.47,1.23-2.28,1.23-2.28h-2.66s1.52-1.14,1.8-2.09Z"/><path class="cls-1" d="m52.68,26.06c1.14-2.28,1.35-6.55,1.35-8.75s1.42-3.42,1.42-3.42c0,0,1.57-.36,2.49-1.92.93-1.57,0-2.35,0-2.35l-2.28-.36-.5-3.13H22.05l-.5,3.13-2.28.36s-.93.78,0,2.35c.93,1.57,2.49,1.92,2.49,1.92,0,0,1.42,1.21,1.42,3.42s.21,6.48,1.35,8.75,8.68,9.47,8.68,9.47v4.27s-.93.64-.93,1.28,1.28,1.78,1.28,1.78c0,0,1.64.21,1.57,2.21-.07,1.99-.07,3.63-3.13,5.55s-4.2,1.57-4.2,1.57v1.14l1.22.57v1.49l-2.36.36s.71,3.49-.07,5.41c-.78,1.92-2.06,4.56-2.06,4.56l.28.93-.78,2.14s-2.06.85-2.28,1.71c-.21.85.85,1.78.85,1.78h31.98s1.07-.93.85-1.78-2.28-1.71-2.28-1.71l-.78-2.14.28-.93s-1.28-2.63-2.06-4.56c-.78-1.92-.07-5.41-.07-5.41l-2.36-.36v-1.49l1.22-.57v-1.14s-1.14.36-4.2-1.57-3.06-3.56-3.13-5.55c-.07-1.99,1.57-2.21,1.57-2.21,0,0,1.28-1.14,1.28-1.78s-.93-1.28-.93-1.28v-4.27s7.54-7.19,8.68-9.47Z"/></svg>