<svg width="51" height="51" viewBox="0 0 51 51" fill="none" xmlns="http://www.w3.org/2000/svg">
<path d="M3.94709 8.8552L12.9339 5.07502L16.1537 13.1742L13.6227 18.1411L21.6085 25.0869L16.8636 35.2075L19.2472 41.5324C15.9569 40.5917 8.93579 37.7531 7.30405 28.2459C7.20416 27.6691 3.94709 8.8552 3.94709 8.8552Z" fill="#06BF07"/>
<path d="M12.9338 5.0752L16.1541 13.1748L13.6226 18.1415L21.6084 25.0868L16.8634 35.2079L19.2471 41.5326C15.9568 40.5918 8.93558 37.7529 7.30384 28.2457L3.94705 8.85544L12.9338 5.0752ZM2.63251 18.8464C3.45546 23.6 4.29028 28.4252 4.34717 28.7538L4.44196 29.2726C6.53201 40.0617 14.759 43.3693 18.4224 44.4168L24.1585 46.0568L20.1173 35.3342L25.2866 24.3101L17.3601 17.415L19.4431 13.3267L14.5914 1.12308L0.583798 7.01561L2.63251 18.8464Z" fill="black"/>
<path d="M31.4912 27.8512L27.446 17.7794L33.4939 14.549L34.2536 5.94149L45.8283 11.1448C45.8283 11.1448 41.1234 29.6509 40.9794 30.2172C38.1887 41.2633 23.1902 43.3695 23.1902 43.3695C23.1902 43.3695 22.9201 43.1695 22.4703 42.7936L21.2475 33.8784L31.4912 27.8512Z" fill="#06BF07"/>
<path d="M21.4054 45.7792L22.3916 46.5095L23.6078 46.3391L23.1903 43.3683L21.4054 45.7792ZM30.6491 12.6668L23.6594 16.3994L27.7465 26.5727L18.0034 32.3048L19.6558 44.3499L20.5467 45.0943C20.7973 45.3037 21.0014 45.4678 21.1481 45.5827C21.2214 45.6403 21.281 45.6853 21.3242 45.7182C21.3456 45.7345 21.3631 45.7476 21.3766 45.7577L21.4002 45.7758C21.4011 45.7765 21.4021 45.777 21.4028 45.7775L21.4054 45.7792L23.1903 43.3683C23.1903 43.3683 23.1229 43.318 22.999 43.2209L22.4702 42.7922L21.2473 33.8771L31.4915 27.8503L27.4462 17.7783L33.494 14.5478L34.2536 5.94028L45.8285 11.1432L48.736 11.8824L49.3568 9.44052L31.6357 1.47393L30.6491 12.6668ZM40.9794 30.2161C38.1902 41.256 23.207 43.3659 23.1903 43.3683C23.6074 46.3391 23.6088 46.3388 23.61 46.3386L23.6121 46.3382C23.6139 46.3379 23.616 46.338 23.6183 46.3377C23.6228 46.3371 23.6287 46.3359 23.6351 46.335C23.6477 46.3331 23.6638 46.331 23.6832 46.328C23.723 46.322 23.7776 46.3137 23.8448 46.3026C23.9792 46.2806 24.1669 46.2479 24.4011 46.2032C24.8696 46.114 25.5275 45.975 26.3192 45.7729C27.8949 45.3707 30.0426 44.7065 32.3042 43.654C36.7414 41.589 42.1685 37.7573 43.8881 30.9506L48.736 11.8824L45.8285 11.1432C45.8285 11.1432 41.1234 29.6497 40.9794 30.2161Z" fill="black"/>
</svg>
