<?xml version="1.0" encoding="UTF-8"?><svg id="Layer_1" xmlns="http://www.w3.org/2000/svg" viewBox="0 0 54 56"><defs><style>.cls-1{fill:#fff;}</style></defs><path class="cls-1" d="m34.92,9.54l11.92-6.23c-.78-.98-1.61-1.92-2.49-2.78l-11.62,6.53s.96.88,2.18,2.47Z"/><path class="cls-1" d="m48.11,5.01l-11.97,6.25c1.97,3.01,4.05,7.51,4.05,13.06,0,9.43-6.05,17.4-13.22,17.4s-13.22-7.97-13.22-17.4c0-5.55,2.09-10.04,4.05-13.06L5.84,5.01C2.2,10.32.01,17.02.01,24.32.01,41.52,12.08,55.46,26.97,55.46s26.96-13.94,26.96-31.14c0-7.3-2.18-14-5.83-19.31ZM4.22,19.06c0-1.59,1.29-2.88,2.88-2.88s2.88,1.29,2.88,2.88-1.29,2.88-2.88,2.88-2.88-1.29-2.88-2.88Zm3.73,16.09c-1.59,0-2.88-1.29-2.88-2.88s1.29-2.88,2.88-2.88,2.88,1.29,2.88,2.88-1.29,2.88-2.88,2.88Zm6.37,10.7c-1.59,0-2.88-1.29-2.88-2.88s1.29-2.88,2.88-2.88,2.88,1.29,2.88,2.88-1.29,2.88-2.88,2.88Zm12.65,5.75c-1.59,0-2.88-1.29-2.88-2.88s1.29-2.87,2.88-2.87,2.88,1.29,2.88,2.87-1.29,2.88-2.88,2.88Zm12.65-5.75c-1.59,0-2.88-1.29-2.88-2.88s1.29-2.88,2.88-2.88,2.88,1.29,2.88,2.88-1.29,2.88-2.88,2.88Zm6.37-10.7c-1.59,0-2.88-1.29-2.88-2.88s1.29-2.88,2.88-2.88,2.88,1.29,2.88,2.88-1.29,2.88-2.88,2.88Zm.85-13.22c-1.59,0-2.88-1.29-2.88-2.88s1.29-2.88,2.88-2.88,2.88,1.29,2.88,2.88-1.29,2.88-2.88,2.88Z"/><path class="cls-1" d="m21.21,7.07L9.59.54c-.88.86-1.71,1.79-2.49,2.78l11.92,6.23c1.22-1.59,2.18-2.47,2.18-2.47Z"/></svg>