<?xml version="1.0" encoding="UTF-8"?><svg id="Layer_1" xmlns="http://www.w3.org/2000/svg" viewBox="0 0 111 77"><defs><style>.cls-1{fill:#fff;}</style></defs><path class="cls-1" d="m108.8,45.3h0c1.49,1.48-4.3,5.7-5.6,5.64-.08-.03-.15-.08-.22-.11l-1.44-1.03-5.67-4.15,6.84-6.84,6.08,6.48h0Zm-8.85-9.41l-7.37,7.37-3.29-2.41,7.9-7.9s2.76,2.94,2.76,2.94Zm-40.28,3.86c.32-.48.74-.9,1.23-1.2.14-.08.29-.14.44-.2l.41.22,7.79,4c2.49-4.08,5.24-8,8.24-11.74l-1.77-2.41,8.43-8.43,2.21,2.08,4.13-3.06c.83-.48,1.8.1,2.8.91l.33-.32-5.34-5.54c.25-.57.93-.97,1.71-.15,1.41,1.57,2.71,3.25,3.89,5l.13-.13c.11-.11.3-.11.4,0l.34.33.13-.13c.06-.07.15-.07.22,0l.05.05c.07.06.07.16,0,.22l-.13.13.33.36c.1.11.11.3,0,.4l-.13.13c1.75,1.18,3.43,2.47,5,3.89.8.79.41,1.47-.15,1.72l-5.54-5.34-.32.33c.79.99,1.38,1.97.91,2.8l-3.06,4.13,2.07,2.2-8.43,8.43-2.43-1.77c-3.74,3-7.66,5.75-11.74,8.24l4,7.79.22.41c-.06.15-.13.3-.2.44-.3.49-.7.92-1.2,1.23-.56.4-1.15.77-1.76,1.08l-6.21-4.66.33-2.85-1.84,1.59-.32-.34-.34-.32,1.59-1.84-2.85.33-4.68-6.24c.32-.61.68-1.21,1.08-1.76h.01Zm21.83-22.52l-7.9,7.9-2.41-3.3,7.37-7.37,2.94,2.76h0Zm-18.01-6c-.05-1.29,4.17-7.09,5.66-5.59l6.47,6.07-6.83,6.83-4.15-5.66-1.03-1.44c-.05-.07-.09-.14-.11-.22Z"/><path class="cls-1" d="m53.42,61.17h0c1.49,1.48-4.3,5.7-5.6,5.64-.08-.03-.15-.08-.22-.11l-1.44-1.02-5.67-4.15,6.84-6.84s6.08,6.48,6.08,6.48Zm-8.85-9.43l-7.37,7.37-3.3-2.41,7.9-7.9,2.76,2.94h.01Zm-40.29,3.86c.32-.48.74-.9,1.23-1.2.14-.08.29-.14.44-.2l.41.22,7.79,4c2.49-4.08,5.24-8,8.24-11.74l-1.77-2.41,8.43-8.43,2.21,2.07,4.13-3.06c.83-.48,1.8.1,2.8.91l.33-.32-5.34-5.54c.25-.57.93-.97,1.71-.15,1.41,1.57,2.71,3.25,3.89,5l.13-.13c.11-.11.3-.11.4,0l.34.33.13-.13c.06-.07.15-.07.22,0l.05.05c.07.06.07.16,0,.22l-.13.13.33.36c.1.11.11.3,0,.4l-.13.13c1.75,1.18,3.43,2.47,5,3.89.8.79.41,1.47-.15,1.72l-5.54-5.34-.32.33c.8.99,1.38,1.97.91,2.8l-3.06,4.13,2.07,2.2-8.43,8.43-2.43-1.77c-3.74,3-7.66,5.75-11.74,8.24l4,7.79.22.41c-.06.15-.13.3-.2.44-.3.49-.7.92-1.2,1.23-.56.4-1.15.77-1.76,1.08l-6.21-4.66.33-2.86-1.84,1.59-.32-.34-.34-.32,1.59-1.84-2.86.33-4.68-6.24c.32-.61.68-1.21,1.08-1.76h.02Zm21.83-22.49l-7.9,7.9-2.41-3.3,7.37-7.37s2.94,2.77,2.94,2.77Zm-18.01-6.01c-.05-1.29,4.17-7.09,5.66-5.59l6.47,6.07-6.83,6.83-4.15-5.66-1.03-1.44c-.05-.07-.09-.14-.11-.22Z"/></svg>