<?xml version="1.0" encoding="UTF-8"?><svg id="Layer_1" xmlns="http://www.w3.org/2000/svg" viewBox="0 0 54.42 56.47"><defs><style>.cls-1{fill:#fff;}</style></defs><path class="cls-1" d="m52.95,12.43c-2.08-2.41-7.12-3.28-7.99-4.27-.88-.99-2.85-6.02-4.6-7.22-1.75-1.2-6.79-1.75-10.95,1.53-2.25,1.77-3.17,8.89-3.54,15.07-2.49-5.08-5.22-9.83-6.99-10.62-4.04-1.79-10.07.19-11.72,2.91-1.64,2.73-.91,7.78-1.57,8.92-.66,1.14-4.84,4.58-5.44,6.62-.6,2.04.45,7,4.86,9.93,2.73,1.81,12.04-.38,18.74-2.31-2.44,2.65-5.16,5.61-6.11,6.71-4.48,5.15-14.48,8.85-14.48,8.85l1.78,5.9s9.37-6.35,13.09-10.82c2.34-2.8,4.47-5.52,6.23-7.85-1.73,6.05-3.34,13-2.31,15.11,1.93,3.97,7.81,6.37,10.83,5.35,3.01-1.02,5.72-5.36,6.96-5.8,1.24-.44,6.65-.37,8.42-1.54,1.77-1.17,3.52-5.3,2.04-10.39-.87-2.99-7.89-7.53-13.54-10.76,6.45-.53,13.81-1.5,15.4-3.28,2.96-3.28,2.96-9.63.88-12.04Z"/></svg>