<?xml version="1.0" encoding="UTF-8"?><svg id="Layer_1" xmlns="http://www.w3.org/2000/svg" viewBox="0 0 138.82 173.11"><defs><style>.cls-1{fill:#fff;}</style></defs><g><path class="cls-1" d="m38.56,76.36v23.05s0,28.71,30.85,28.71,30.85-28.71,30.85-28.71v-23.05h-61.7Zm36.07,35.93h-10.44l1.63-13.71c-2.08-1.39-3.31-3.94-2.75-6.73.51-2.52,2.6-4.56,5.13-5.02,4.11-.75,7.69,2.39,7.69,6.36,0,2.25-1.15,4.22-2.88,5.38l1.63,13.71Z"/><path class="cls-1" d="m54.62,70.96l-8.3-.15c.15-9.27,5.14-26.81,22.96-26.81,6.26,0,11.47,2.04,15.46,6.05,7.76,7.81,7.78,20.33,7.77,20.86l-8.3-.05s-.02-5.1-2.1-9.94c-2.48-5.8-6.68-8.62-12.84-8.62-14.09,0-14.64,17.9-14.66,18.66Z"/></g><path class="cls-1" d="m68.8,17.04c6.35,4.12,15.79,9.3,27.32,12.83,10.26,3.14,20.71,4.72,28.7,5.53v60.43c-.5,3.57-4.37,26.32-22.84,42.49-10.35,9.06-25.58,16.4-33.19,19.76-6.75-2.71-20.13-8.92-33.15-19.81-22.23-18.6-21.69-43.47-21.62-45.29l.02-.29v-56.65c11.64-.59,24.73-2.4,34-7.03,7.63-3.82,15.23-8.42,20.76-11.96M69.14,0s-13.8,9.7-27.37,16.48c-10.37,5.19-29.29,5.8-37.62,5.8-2.56,0-4.12-.06-4.12-.06v69.91s-2.08,32.86,26.61,56.87c21,17.57,42.5,24.11,42.5,24.11,0,0,25.72-9.96,42.05-24.26,24.75-21.67,27.62-52.19,27.62-52.19V22.22s-19.83,0-38.61-5.74C81.43,10.74,69.14,0,69.14,0h0Z"/></svg>