<?xml version="1.0" encoding="UTF-8"?><svg id="Layer_1" xmlns="http://www.w3.org/2000/svg" viewBox="0 0 73.57 76.7"><defs><style>.cls-1{fill:#fff;}</style></defs><path class="cls-1" d="m7.55,13.27c.04-1.32.48-2.52,1.32-3.56.02-.03.06-.05.07-.08.15-.36.32-.28.55-.05,4.2,4.21,23.65,23.65,29.17,29.16.14.14.15.2,0,.35-9.7,9.69-19.39,19.38-29.09,29.07-.39.39-.37.38-.71-.07-.53-.7-.91-1.48-1.14-2.32-.14-.54-.2-1.09-.2-1.66.01-4.79-.03-49.15.02-50.85Z"/><path class="cls-1" d="m51.48,51.62c-1.83.97-33.52,17.95-34.54,18.46-.58.29-1.19.47-1.85.56-.37.05-.74.1-1.12.1-.62,0-1.21-.19-1.81-.31-.21-.04-.19-.16-.04-.32,4.77-4.76,23.96-23.95,28.78-28.78.13-.13.19-.16.33-.01,3.4,3.41,6.81,6.81,10.21,10.21.01.01.02.04.03.08Z"/><path class="cls-1" d="m11.98,7.49c.91-.39,1.83-.4,2.76-.35.68.04,1.32.2,1.93.48,1.4.64,34.35,18.36,34.63,18.47.19.08.2.17.04.33-3.05,3.04-6.1,6.09-9.15,9.14-.26.26-.54.51-.78.79-.21.24-.34.26-.59.01-4.04-4.06-23.22-23.23-28.77-28.77-.03-.03-.05-.07-.08-.11Z"/><path class="cls-1" d="m64.14,44.83c-1.48.77-8.92,4.77-9.39,5.05-.19.11-.31.09-.46-.06-3.57-3.58-7.14-7.15-10.72-10.72-.18-.18-.14-.27.02-.43,3.58-3.58,7.17-7.16,10.74-10.74.13-.13.19-.11.34-.03,2.34,1.26,9.07,4.84,10.05,5.43,1.21.72,3.06,2.2,3.06,5.56s-2.29,5.23-3.64,5.94Z"/></svg>