<?xml version="1.0" encoding="UTF-8"?><svg id="Layer_1" xmlns="http://www.w3.org/2000/svg" viewBox="0 0 62.61 71.52"><defs><style>.cls-1{fill:#fff;}.cls-2{fill:none;}</style></defs><path class="cls-2" d="m48.35,47.98c-2.7-2.7-6.35-3.14-8.81-2.78.38.99.22,2.32-.13,4.14,1.28.1,2.74-.08,2.74-.08,0,0,1.56,2.25,2.8,3.57,1.24,1.32,4.57,2.52,4.57,2.52,0,0,.59,1.98.98,3.12.39,1.14-.95,3.22-.95,3.22,0,0-1.8-.49-4.27-1.48-2.47-.99-4.77-5.9-4.77-5.9l-3.14-1.98c-.06.03-.13.07-.2.1.64.78,1.27,1.58,1.71,2.24,1.31,1.99,2.97,6.23,2.97,6.23,0,0-.75,1.3-1.95,2.82-1.2,1.51-2.42,1.5-2.42,1.5,0,0-.89-4.49-1.93-7.02-.77-1.88-2.49-3.87-3.32-4.78-1,.06-2.04.09-3.07.1-1.51.02-2.69-.29-3.61-.79-.48,1.61-1.19,3.81-1.66,4.67-.78,1.43-4.17,5.81-4.17,5.81l-5.47-2.68s3.46-3.52,5.14-4.76c.78-.57,1.65-1.82,2.37-3-1.05.1-2.68.37-4.15,1.13-.77.4-1.92,3.41-1.92,3.41l-4.68-2.61s2.19-3.38,4.9-4.77c2.09-1.07,5.48-1.17,6.91-1.16-.02-.13-.04-.26-.05-.39-.08-.77.13-1.74.44-2.67-1.78.74-5.4,2.16-7.21,2.16-2.45,0-2.75-1.42-2.75-1.42l.97-1.4s-2.12-3.03-2.36-5.25c-1.15.34-2.05.62-2.05.62,0,0-1.71-4.8,1.74-7.75,3.45-2.95,7.71-2.87,7.71-2.87,0,0,5.13-1.11,7.63,3.42,2.51,4.53,1.62,7.2,1.62,7.2l-2.08,1.06c1.42.03,3.05,1.31,4.26,1.97-.47-2.65-.55-5.92-.55-5.92,0,0-2.48-2.38-.39-4.37,2.09-1.99,16.6-5.86,16.6-5.86,0,0,3.95-.89,3.62.41-.33,1.3-3.33,2.86-3.33,2.86,0,0,4.49-2.12,3.84-.22-.65,1.9-5.08,3.85-5.08,3.85,0,0,5.17-1,2.85.97s-8.79,4.71-8.79,4.71c0,0-3.85,1.27-5.09,2.85-.24.3-.48.66-.73,1.02,1.58-.22,3.35-.63,4.57.02.05.03.09.05.13.08.05-.06.09-.09.09-.09,0,0,.14-.42.55-.96.61-.8,1.82-1.86,4.05-2.12,3.71-.45,5.94,2.08,10.54,2.38,1.57.1,2.91-.01,4.04-.2v-17.27H4.96v41.22h52.7v-16c-.51.1-1.06.17-1.67.18-3.27.08-5.41-.81-7.63-3.03Z"/><path class="cls-1" d="m17.67,17.48h0c2.05,0,3.71-1.66,3.71-3.71V3.71c0-2.05-1.66-3.71-3.71-3.71h0c-2.05,0-3.71,1.66-3.71,3.71v10.06c0,2.05,1.66,3.71,3.71,3.71Z"/><path class="cls-1" d="m44.94,17.48c2.05,0,3.71-1.66,3.71-3.71V3.71c0-2.05-1.66-3.71-3.71-3.71s-3.71,1.66-3.71,3.71v10.06c0,2.05,1.66,3.71,3.71,3.71Z"/><path class="cls-1" d="m51.91,8.91h-1.57v4.83c0,3.03-2.45,5.48-5.48,5.48s-5.48-2.45-5.48-5.48v-4.83h-16.17v4.83c0,3.03-2.45,5.48-5.48,5.48s-5.48-2.45-5.48-5.48v-4.83h-1.56C4.79,8.91,0,13.7,0,19.61v41.22c0,5.91,4.79,10.7,10.7,10.7h41.22c5.91,0,10.7-4.79,10.7-10.7V19.61c0-5.91-4.79-10.7-10.7-10.7Zm5.74,33.96c-1.14.19-2.47.3-4.04.2-4.6-.3-6.83-2.82-10.54-2.38-2.23.27-3.44,1.32-4.05,2.12-.41.54-.55.96-.55.96,0,0-.03.03-.09.09-.05-.03-.09-.06-.13-.08-1.22-.66-3-.25-4.57-.02.24-.36.49-.72.73-1.02,1.24-1.58,5.09-2.85,5.09-2.85,0,0,6.47-2.73,8.79-4.71s-2.85-.97-2.85-.97c0,0,4.43-1.96,5.08-3.85.65-1.9-3.84.22-3.84.22,0,0,3.01-1.56,3.33-2.86.33-1.3-3.62-.41-3.62-.41,0,0-14.5,3.87-16.6,5.86-2.09,1.99.39,4.37.39,4.37,0,0,.08,3.27.55,5.92-1.2-.66-2.83-1.93-4.26-1.97l2.08-1.06s.89-2.67-1.62-7.2c-2.51-4.53-7.63-3.42-7.63-3.42,0,0-4.26-.07-7.71,2.87-3.45,2.95-1.74,7.75-1.74,7.75,0,0,.9-.28,2.05-.62.24,2.22,2.36,5.25,2.36,5.25l-.97,1.4s.3,1.42,2.75,1.42c1.81,0,5.43-1.41,7.21-2.16-.31.94-.52,1.91-.44,2.67.01.13.03.26.05.39-1.44-.01-4.82.09-6.91,1.16-2.71,1.39-4.9,4.77-4.9,4.77l4.68,2.61s1.15-3.01,1.92-3.41c1.46-.76,3.1-1.03,4.15-1.13-.72,1.18-1.6,2.42-2.37,3-1.68,1.24-5.14,4.76-5.14,4.76l5.47,2.68s3.38-4.38,4.17-5.81c.47-.87,1.18-3.07,1.66-4.67.92.51,2.1.82,3.61.79,1.03-.02,2.07-.04,3.07-.1.83.9,2.55,2.9,3.32,4.78,1.03,2.52,1.93,7.02,1.93,7.02,0,0,1.22.02,2.42-1.5,1.2-1.51,1.95-2.82,1.95-2.82,0,0-1.66-4.25-2.97-6.23-.44-.66-1.07-1.47-1.71-2.24.07-.03.13-.06.2-.1l3.14,1.98s2.3,4.92,4.77,5.9c2.47.99,4.27,1.48,4.27,1.48,0,0,1.35-2.07.95-3.22-.39-1.14-.98-3.12-.98-3.12,0,0-3.33-1.2-4.57-2.52-1.24-1.32-2.8-3.57-2.8-3.57,0,0-1.47.18-2.74.08.35-1.82.51-3.15.13-4.14,2.47-.36,6.12.09,8.81,2.78,2.23,2.23,4.37,3.12,7.63,3.03.61-.02,1.16-.08,1.67-.18v16H4.96V25.61h52.7v17.27Z"/></svg>