<?xml version="1.0" encoding="UTF-8"?><svg id="Layer_1" xmlns="http://www.w3.org/2000/svg" viewBox="0 0 351.12 313.6"><defs><style>.cls-1{fill:#fff;}</style></defs><path class="cls-1" d="m122.51,178.82l-35.87-3.26-52.52-7.06-19.29-2.17s-11.68-2.06-10.87-10.27c.82-8.22,2.45-11.21,2.45-11.21,0,0,2.99-7.88,6.25-11.14,3.26-3.26,8.15-6.79,8.15-6.79,0,0,9.78,6.52,10.87,11.14s3.8,9.78,7.61,11.41c3.8,1.63,68.28-3.8,68.28-3.8l9.78-4.08,13.86.54,10.87,6.52,47.01.54,16.03,1.36s1.09-12.23,1.36-15.22,3.58-13.86,3.58-13.86c0,0-.5,11.96,0,16.3.5,4.35,0,14.4,0,14.4,0,0,9.19,4.08,9.19,5.71s-6.52,5.71-6.52,5.71c0,0-.27,12.5-.82,15.22-.54,2.72-3.06,14.94-3.06,14.94,0,0-3.19-14.94-2.92-16.57s1.09-11.96,1.09-11.96c0,0-7.03,6.25-9.09,7.06s-12.77,3.8-12.77,3.8v3.53l-13.74,1.09-17.93.54-.54,3.53s-20.65-1.36-23.37-1.9-7.06-4.08-7.06-4.08v.03Z"/><path class="cls-1" d="m230.71,160.53l-1.18,1.56v3.13c.95.69,2.38,1.74,4.12,3,18.57,13.44,28.12,19.73,35.73,24.52,16.61,10.44,55.52,19.67,55.52,19.67,0,0,8.06,3.1,11.86,0,0,0-3.03-3.15-7.4-6.12,5.06-5.09,16.93-19.52,18.79-44.2,1.7-22.55-9.83-38.6-16.52-45.9,4.48-4.9,7.86-10.42,5.13-13.6-2.85-3.32-8.92,1.42-9.68,3.32s-37.29,15.18-46.78,19.93c-9.49,4.74-50.77,28.28-50.77,32.26,0,1.07.48,1.85,1.18,2.42h0Zm7.17.28c6.63-4.97,19.05-13.24,45.26-26.42,11.25-5.66,29.73-8.41,40.08-12.99,1.21,1.84,2.58,3.98,3.98,6.3-6.36,4.12-16.08,13.2-15.12,29.93.92,15.86,11.27,24.08,18.54,27.93-2.21,7.16-4.45,13.76-5.92,18.01-7.06-3.36-20.69-4.18-44.89-15.09-22.38-10.09-39.38-26.38-39.38-26.38l-2.56-1.29h0Z"/></svg>