<?xml version="1.0" encoding="UTF-8"?><svg id="Layer_1" xmlns="http://www.w3.org/2000/svg" viewBox="0 0 79 101"><defs><style>.cls-1{fill:#fff;}</style></defs><path class="cls-1" d="m0,89.05V4.81s51.81,10.93,51.81,10.93v36.73l5.3,6.41v42.12L0,89.05ZM10.49,23.61v5.9l31.48,7.39v-5.43l-31.48-7.87Zm0,9.18v5.9l31.48,7.39v-5.43l-31.48-7.87Zm36.35,24.92l-9.99,2.53-.66-.67-3.07.82-2.35-1.3h-2.72l-.09-.72c-1.68-.73-3.57-.74-5.26-.05l-.09.77h-2.88l-2.72,5.61v1.38h3.06v1.57h-5.54l-1.36,2.75v1.14h-1.33l-1.36,1.38v2.49h6.52v-1.55h1.53v3.11h-8.05v6.98h6.69l1.36-2.7h13.71l1.36,2.7h6.8v-6.99h-8.06v-3.11h1.55v1.54h6.51v-2.49l-1.36-1.38h-1.32v-1.13l-1.36-2.75h-5.55v-1.57h2.67l.02-2.09,3.56-1.09.14-.68,10.01-3.02-.38-1.47Z"/><path class="cls-1" d="m68.87,79.18v8.53l-5.74-.12V11.87L6.38,0h61.56v41.14l10.19,2.62v32.79l-9.26,2.62Z"/></svg>