<?xml version="1.0" encoding="UTF-8"?><svg id="Layer_1" xmlns="http://www.w3.org/2000/svg" viewBox="0 0 83.7 46.9"><defs><style>.cls-1{fill:#fff;}</style></defs><path class="cls-1" d="m76.94,13.13L40.71.52c-4.98-1.69-10.35.89-12.04,5.86v.7c.5.2.9.6,1.19,1.09.2.4.3.89.3,1.39.6.2,1.19.6,1.59,1.29.4.7.5,1.29.3,1.99.3.1.5.3.7.5,1.19.7,1.69,1.99,1.29,3.28-.5,1.49-2.09,2.19-3.48,1.69-.4-.1-.7-.3-1-.6-.4-.2-.8-.6-1-.99-.4-.6-.5-1.29-.3-1.99-.5-.2-.9-.6-1.19-1.09-.3-.4-.4-.89-.4-1.29l-.5,1.29c-.4-.3-1-.3-1.49,0-.7.4-.9,1.29-.5,1.99.2.4.7.6,1.09.7l-1.79,5.17c-1.69,4.87.9,10.33,5.87,12.02l36.23,12.62c4.98,1.69,10.35-.89,12.04-5.86l5.18-15.1c1.69-4.87-.9-10.33-5.87-12.02Zm-6.17,5.36l-8.06-.3-.3.5-2.89-.1-.5,1.49-1.99-.7-.4,1.09,4.08,1.39.3,2.38-.3.79,1,.3.7,1.29-.6,1.79-4.78-1.59.3-.89-1.09-.4-.8,2.19,5.87,1.99-1.69,4.97-4.98-1.69-.3-2.28-9.95-3.38-1.69,1.59-4.88-1.59,1.69-4.97,5.87,1.99.8-2.19-1.09-.4-.4,1.09-4.78-1.59.6-1.79,1.29-.7,1,.3.3-.79,1.69-1.69,3.98,1.39.4-1.09-2.19-.79.3-.99,3.38-3.38,2.09.7.2-.5c1.39-.1,2.79.4,3.78,1.29l-.1.5,1.99.7,1.39,1.49,2.69.2.3.6,7.86.6-.1,1.19Z"/><path class="cls-1" d="m29.56,16.01c.4.7,1.29.89,1.99.5s.9-1.29.5-1.99c-.4-.7-1.29-.89-1.99-.5s-.9,1.29-.5,1.99Z"/><path class="cls-1" d="m28.57,11.05c-.7.4-.9,1.29-.5,1.99s1.39.89,1.99.5c.7-.4.9-1.29.5-1.99-.4-.7-1.29-.89-1.99-.5Z"/><path class="cls-1" d="m26.18,10.35c.4.7,1.29.89,1.99.5s.9-1.29.5-1.99-1.29-.89-1.99-.5c-.7.4-.9,1.29-.5,1.99Z"/><path class="cls-1" d="m25.48,8.86c.7-.4.9-1.29.5-1.99s-1.29-.89-1.99-.5-.9,1.29-.5,1.99c.4.7,1.29.89,1.99.5Z"/><path class="cls-1" d="m22.29,7.27c.7-.4.9-1.29.5-1.99s-1.29-.89-1.99-.5-.9,1.29-.5,1.99,1.29.89,1.99.5Z"/><path class="cls-1" d="m19.11,6.58c.7-.4.9-1.29.5-1.99-.4-.7-1.29-.89-1.99-.5s-.9,1.29-.5,1.99,1.29.99,1.99.5Z"/><path class="cls-1" d="m15.53,6.77c.7-.4.9-1.29.5-1.99s-1.29-.89-1.99-.5-.9,1.29-.5,1.99,1.29.89,1.99.5Z"/><path class="cls-1" d="m12.34,7.77c.7-.4.9-1.29.5-1.99s-1.29-.89-1.99-.5-.9,1.29-.5,1.99c.5.6,1.39.89,1.99.5Z"/><path class="cls-1" d="m9.26,9.16c.7-.4.9-1.29.5-1.99s-1.29-.89-1.99-.5c-.7.4-.9,1.29-.5,1.99.4.7,1.29.99,1.99.5Z"/><path class="cls-1" d="m6.77,11.34c.7-.4.9-1.29.5-1.99s-1.29-.89-1.99-.5-.9,1.29-.5,1.99c.4.7,1.29.89,1.99.5Z"/><path class="cls-1" d="m4.28,13.93c.7-.4.9-1.29.5-1.99s-1.29-.89-1.99-.5-.9,1.29-.5,1.99c.4.7,1.29.89,1.99.5Z"/><path class="cls-1" d="m2.59,16.71c.7-.4.9-1.29.5-1.99s-1.29-.89-1.99-.5c-.7.4-.9,1.29-.5,1.99.4.7,1.29.99,1.99.5Z"/><path class="cls-1" d="m2.69,18.3c-.4-.7-1.29-.89-1.99-.5s-.9,1.29-.5,1.99,1.29.99,1.99.5c.7-.4.9-1.29.5-1.99Z"/><path class="cls-1" d="m3.38,19.59c-.7.4-.9,1.29-.5,1.99s1.29.89,1.99.5c.7-.4.9-1.29.5-1.99s-1.29-.89-1.99-.5Z"/><path class="cls-1" d="m6.17,18c-.7.4-.9,1.29-.5,1.99.5.7,1.29.89,1.99.5s.9-1.29.5-1.99-1.29-.89-1.99-.5Z"/><path class="cls-1" d="m8.56,15.72c-.7.4-.9,1.29-.5,1.99.4.7,1.29.89,1.99.5s.9-1.29.5-1.99c-.4-.7-1.29-.89-1.99-.5Z"/><path class="cls-1" d="m11.45,14.03c-.7.4-.9,1.29-.5,1.99.4.7,1.29.89,1.99.5s.9-1.29.5-1.99-1.29-.89-1.99-.5Z"/><path class="cls-1" d="m14.63,13.13c-.7.4-.9,1.29-.5,1.99s1.29.89,1.99.5c.7-.4.9-1.29.5-1.99-.4-.7-1.29-.89-1.99-.5Z"/><path class="cls-1" d="m18.01,13.23c-.7.4-.9,1.29-.5,1.99s1.29.89,1.99.5c.7-.4.9-1.29.5-1.99s-1.29-.89-1.99-.5Z"/><path class="cls-1" d="m23.29,13.83c-.4-.7-1.29-.89-1.99-.5s-.9,1.29-.5,1.99c.4.7,1.29.89,1.99.5s.9-1.29.5-1.99Z"/></svg>