<?xml version="1.0" encoding="UTF-8"?><svg id="Layer_1" xmlns="http://www.w3.org/2000/svg" viewBox="0 0 26.21 20.54"><defs><style>.cls-1{fill:#91ca6a;}.cls-2{fill:#40403f;}</style></defs><polygon class="cls-1" points="24.8 5.43 20.78 1.41 11.1 11.1 5.43 5.43 1.41 9.44 11.1 19.12 24.8 5.43"/><path class="cls-2" d="m20.78,1.41l4.01,4.01-13.7,13.7L1.41,9.44l4.01-4.01,5.67,5.67L20.78,1.41m0-1.41l-.71.71-8.98,8.98-4.97-4.97-.71-.71-.71.71L.71,8.73l-.71.71.71.71,9.68,9.68.71.71.71-.71,13.7-13.7.71-.71-.71-.71L21.49.71l-.71-.71h0Z"/></svg>