<?xml version="1.0" encoding="UTF-8"?>
<svg id="Layer_1" data-name="Layer 1" xmlns="http://www.w3.org/2000/svg" xmlns:xlink="http://www.w3.org/1999/xlink" viewBox="0 0 215.23 240.38">
  <defs>
    <style>
      .cls-1 {
        fill: none;
      }

      .cls-1, .cls-2 {
        stroke-width: 0px;
      }

      .cls-2 {
        fill: #fff;
      }

      .cls-3 {
        clip-path: url(#clippath);
      }
    </style>
    <clipPath id="clippath">
      <rect class="cls-1" width="215.23" height="240.38"/>
    </clipPath>
  </defs>
  <path id="Path_2043" data-name="Path 2043" class="cls-2" d="m175.7,219.79l-7.81-27.52-37.33-133.11,37.33,133.11,7.81,27.52,37.73-.93-37.73.93Z"/>
  <g id="Group_1604" data-name="Group 1604">
    <g class="cls-3">
      <g id="Group_1603" data-name="Group 1603">
        <path id="Path_2044" data-name="Path 2044" class="cls-2" d="m213.85,226.95l-37.96.93-6.28.15-1.69-6.04-7.84-27.54L122.76,61.34l-2.89-10.31,10.73.02,68.55.14L194.77.13,0,0l116.79,213.4s8.12,24.93,21.08,26.47c9.21,1.09,77.36.12,77.36.12l-1.11-13.04h-.27Z"/>
        <path id="Path_2046" data-name="Path 2046" class="cls-2" d="m175.69,219.79l37.73-.93-13.62-159.57-69.26-.14,37.33,133.11,7.81,27.52Z"/>
      </g>
    </g>
  </g>
</svg>