<svg width="65" height="67" viewBox="0 0 65 67" fill="none" xmlns="http://www.w3.org/2000/svg">
<g clip-path="url(#clip0_2430_15347)">
<path d="M44.9139 0.0205078V21.1233H14.1307V0.0205078H0V67.0026H65V8.29982L56.7275 0.0307482H44.9139V0.0205078ZM53.7907 61.2962H9.75243V27.0525H53.7907V61.2962Z" fill="white"/>
<path d="M40.7681 0H31.4766V17.0655H40.7681V0Z" fill="white"/>
<path fill-rule="evenodd" clip-rule="evenodd" d="M48.9858 38.1888H41.1255V35.598H40.319V38.1888H34.2432V32.5796L32.5022 30.4983L30.7612 32.5796V38.1888H24.6854V35.598H23.8789V38.1888H16.0186C16.0186 38.1888 15.125 38.5293 15.125 39.6762C15.125 40.8231 15.8061 42.1825 17.5036 42.7355C19.2011 43.2885 28.3826 46.0508 28.3826 46.0508C28.3826 46.0508 29.6576 46.2198 30.0391 46.6883C30.4206 47.1568 30.6331 48.1757 30.6331 48.1757L31.0582 54.7602C31.0582 54.7602 26.895 55.7791 26.5545 56.1196C26.2139 56.4601 26.0859 57.351 26.3855 57.5635C26.6825 57.776 27.5761 57.5635 27.5761 57.5635H37.4335C37.4335 57.5635 38.327 57.776 38.624 57.5635C38.921 57.351 38.793 56.4576 38.455 56.1196C38.1145 55.7791 33.9514 54.7602 33.9514 54.7602L34.3764 48.1757C34.3764 48.1757 34.5889 47.1568 34.9704 46.6883C35.3519 46.2198 36.6269 46.0508 36.6269 46.0508C36.6269 46.0508 45.8059 43.2885 47.5059 42.7355C49.206 42.1825 49.8845 40.8231 49.8845 39.6762C49.8845 38.5293 48.991 38.1888 48.991 38.1888H48.9858Z" fill="white"/>
</g>
<defs>
<clipPath id="clip0_2430_15347">
<rect width="65" height="67" fill="white"/>
</clipPath>
</defs>
</svg>
