<?xml version="1.0" encoding="UTF-8"?><svg id="Layer_1" xmlns="http://www.w3.org/2000/svg" viewBox="0 0 74.74 80.35"><defs><style>.cls-1{fill:#fff;}.cls-2{fill:none;}</style></defs><g><g><rect class="cls-2" x="11.57" y="30.02" width="52.7" height="41.22"/><path class="cls-1" d="m58.53,13.33h-1.57v4.83c0,3.03-2.45,5.48-5.48,5.48s-5.48-2.45-5.48-5.48v-4.83h-16.17v4.83c0,3.03-2.45,5.48-5.48,5.48s-5.48-2.45-5.48-5.48v-4.83h-1.56c-5.91,0-10.7,4.79-10.7,10.7v41.22c0,5.91,4.79,10.7,10.7,10.7h41.22c5.91,0,10.7-4.79,10.7-10.7V24.02c0-5.91-4.79-10.7-10.7-10.7Zm5.74,57.91H11.57V30.02h52.7v41.22Z"/></g><rect class="cls-1" x="20.57" y="4.42" width="7.42" height="17.48" rx="3.71" ry="3.71"/><rect class="cls-1" x="47.85" y="4.42" width="7.42" height="17.48" rx="3.71" ry="3.71"/></g><path class="cls-1" d="m54.01,53.42l-4.71,2.6-3.31-1.97,4.18-3.75-3.94-2.94,3.35-1.93,4.45,2.5,1.21-2.16-3.17-1.78,2.64-1.52-1.24-2.14-2.85,1.65v-4.08h-2.47v5.51l-3.4,1.96-.25-4.84-5.32,1.35v-3.63l4.94-2.72-1.19-2.16-3.74,2.07v-3.33h-2.47v3.31l-3.69-2.07-1.21,2.16,4.9,2.75v3.67l-5.41-1.37-.24,4.66-3.38-2.01v-5.28h-2.47v3.81l-2.65-1.58-1.26,2.12,2.65,1.58-3.32,1.83,1.19,2.16,4.58-2.53,3.13,1.86-4.69,3.52,4.2,3.75-2.6,1.5-4.65-2.6-1.21,2.16,3.36,1.89-2.77,1.6,1.24,2.14,2.79-1.61v3.86h2.47v-5.29l2.71-1.57,1.84,5.12,4.47-2.7v4.05l-5,2.76,1.19,2.16,3.8-2.1v3.55h2.47v-3.46l3.63,2.03,1.21-2.16-4.84-2.71v-3.96l3.62,2.17,1.83-5.14,3.51,2.09v5.13h2.47v-3.66l2.71,1.61,1.26-2.12-2.84-1.69,3.45-1.9-1.19-2.16Zm-7.69-2.9l-2.51,2.24-3.41-2.03,3.5-2.02,2.43,1.81Zm-4.14-6.93l.16,3.16-3.16,1.82v-4.21l3-.77Zm-8.56,0l3.09.8v4.16l-3.24-1.93.15-3.02Zm-4.92,7.29l3.14-2.36,3.66,2.18-4.25,2.45-2.56-2.27Zm3.83,4.39l4.19-2.42v3.17l-3.23,1.95-.96-2.71Zm9.03,2.36l-2.37-1.42v-3.33l3.34,1.99-.97,2.76Z"/></svg>