<svg xmlns="http://www.w3.org/2000/svg" viewBox="0 0 239.88 230.34"><path d="m239.88 172.42-5.56-22.36-5.56-22.36-20.06 11.33-20.05 11.33 18.95 8.16c-15.14 33.29-48.7 56.5-87.59 56.5s-72.49-23.24-87.62-56.56l-14.03 6.04c17.47 38.76 56.44 65.83 101.65 65.83s84.14-27.04 101.62-65.77l18.24 7.85Z" fill="#fff"/><path d="M222.71 69.82c-16.92-40.03-56.57-68.2-102.7-68.2s-85.8 28.2-102.72 68.26L0 62.44 5.56 84.8l5.56 22.36 20.05-11.33L51.22 84.5l-19.88-8.56c14.57-34.62 48.82-59 88.68-59s74.07 24.35 88.65 58.94l14.04-6.04Z" fill="#fff"/><path d="M66.54 101.46h31.95v76.95H66.54z" fill="#fff"/><path d="M70.14 96.25H94.1s-2.8-37.94-11.58-37.94-12.38 37.94-12.38 37.94Z" fill="#fff"/><path d="M104.64 101.46h31.95v76.95h-31.95z" fill="#fff"/><path d="M108.23 96.25h23.96s-2.8-37.94-11.58-37.94-12.38 37.94-12.38 37.94Z" fill="#fff"/><path d="M142.73 101.46h31.95v76.95h-31.95z" fill="#fff"/><path d="M146.33 96.25h23.96s-2.8-37.94-11.58-37.94-12.38 37.94-12.38 37.94Z" fill="#fff"/></svg>