<?xml version="1.0" encoding="UTF-8"?><svg id="Layer_1" xmlns="http://www.w3.org/2000/svg" viewBox="0 0 73.57 76.7"><defs><style>.cls-1{fill:#fff;}</style></defs><path class="cls-1" d="m64.68,9.77c-4.68-4.68-12.2-4.68-27.25-4.68h-2.66c-15.05,0-22.58,0-27.25,4.68-4.68,4.68-4.68,12.2-4.68,27.25v2.66c0,15.05,0,22.57,4.68,27.25,4.68,4.68,12.2,4.68,27.25,4.68h2.66c15.05,0,22.58,0,27.25-4.68,4.68-4.68,4.68-12.2,4.68-27.25v-2.66c0-15.05,0-22.58-4.68-27.25Zm-14.11,43.24c-1.69-5.27-5.9-9.34-11.47-9.89v9.89h-.86c-15.16,0-23.81-10.39-24.17-27.69h7.59c.25,12.69,5.85,18.07,10.28,19.18v-19.18h7.15v10.95c4.38-.47,8.98-5.46,10.53-10.95h7.15c-1.19,6.76-6.18,11.75-9.73,13.8,3.55,1.66,9.23,6.01,11.39,13.88h-7.87Z"/></svg>