<?xml version="1.0" encoding="UTF-8"?><svg id="Layer_1" xmlns="http://www.w3.org/2000/svg" viewBox="0 0 60.1 56.62"><defs><style>.cls-1{fill:#fff;}</style></defs><path class="cls-1" d="m54.67,7.38S47.36.27,32.23,0,13.06,5.1,13.06,5.1c0,0-.05,4.85,6.91,2.22,13.44-5.08,16.83-.65,16.83-.65,0,0-4.04-.15-5.22,1.03s-1.71,5.19-4.57,5.49c-7.46.78-8.22-2.74-8.22-2.74l-3.13-.52s-.78,1.57,2.22,3.27,9.78,2.39,9.78,2.39l4.7,4.13s-7.57-.58-10.96-.19-6.13.93-6.13.93c0,0,5.87.7,8.48,3.18s2.87,4.5,2.87,4.5c0,0-1.86-1.58-3.52-3.2-2.68-2.61-4.93-1.89-4.93-1.89,0,0,4.8,5.41,4.54,11.93-.39,9.85-6.13,13.83-6.13,13.83,0,0,4.37-.91,7.5-3.39s5.89-5.8,5.89-5.8c0,0,.39,3-.73,6.19-1.57,4.43-3.91,8.09-3.91,8.09,0,0,5.35-.65,8.74-5.35s3.62-7.16,3.62-7.16c0,0,.94,1.1.88,5.34-.09,5.55-1.11,9.91-1.11,9.91,0,0,5.48-1.8,6.66-9.1,1.38-8.59.27-12.02.27-12.02,0,0,.5-.53,2.66,4.75s2.15,11.28,2.15,11.28c0,0,4.17-5.61,3.91-11.87-.17-4.12-1.95-7.96-1.95-7.96,0,0,1.63-.39,3.45,2.02,2.4,3.18,1.96,4.5,1.96,4.5,0,0,1.57-3.85-1.63-10.7-1.54-3.31-4.71-5.33-4.71-5.33,0,0,.87-.74,4.55-.33,2.35.26,5.31,2.41,5.31,2.41,0,0,.72-3.26-6.07-10.96-3.36-3.81-7.43-6.52-7.43-6.52l8.09.59Z"/><path class="cls-1" d="m20.49,9.27s-.65,1.11,1.96,2.15,3.85.78,5.09,0,1.76-3.91,1.76-3.91l-3.59-.26s.65.98.2,1.89-2.02,1.47-2.74.54-2.67-.41-2.67-.41Z"/><path class="cls-1" d="m5.56,19.51s2.06-1.22,4.89-1.87c5.25-1.19,11.09-1.85,11.09-1.85l5.09,1.86s-7.3-.25-12.88,1.12c-3.47.85-8.19.74-8.19.74Z"/><path class="cls-1" d="m13.04,11.49c-.33-.46-2.15-3.26-2.15-3.26,0,0-7.04-1.17-9.85,4.43-2.8,5.61.98,10.37.98,10.37,0,0-.46-3.91,1.96-5.38,2.41-1.47,12.52-2.51,12.52-2.51,0,0-3.13-3.2-3.46-3.65Zm-3.15,1.21l-1.27-2.74s-1.28-.98.88,0c2.15.98,2.51,2.74,2.51,2.74h-2.12Z"/></svg>