<?xml version="1.0" encoding="UTF-8"?><svg id="Layer_1" xmlns="http://www.w3.org/2000/svg" viewBox="0 0 571.61 452.15"><defs><style>.cls-1{fill:#fff;}</style></defs><path class="cls-1" d="m497.76,130.41c50.68,43.5,65.15,71.38,66.46,73.19l7.4,10.21-7.35,10.25c-1.34,1.87-33.36,46.25-83.1,91.21-29.47,26.64-59.08,47.92-88.01,63.27-37.12,19.69-73.34,30.1-107.64,29.67-64.11-.79-90.69-19.49-90.69-19.49l28.32-24.07s17.91,8.55,62.37,8.55c108.54,0,213.42-122.5,242.44-159.26-11.99-14.88-22.13-30.72-55.66-59.41l25.46-24.14Z"/><path class="cls-1" d="m563.38,6.17c-6.26-7.37-17.3-8.26-24.67-2l-95.88,81.49c-17.59-12.35-35.25-22.89-52.82-31.48-38.6-18.87-76.92-28.44-113.88-28.44s-74.54,9.63-111.29,28.61c-28.86,14.91-57.34,35.6-84.66,61.5C34.04,159.59,7.21,202.89,6.09,204.71L0,214.62l6.78,9.45c1.34,1.87,33.36,46.25,83.1,91.21,14.08,12.73,28.19,24.22,42.25,34.44l-87.54,71.6c-7.36,6.26-8.26,17.3-2,24.67,3.46,4.07,8.39,6.17,13.34,6.17,4.01,0,8.03-1.37,11.32-4.17l95.23-78.14,28.32-24.07,67.52-57.38,36.77-31.25,31.58-26.84,36.76-31.24,80.77-68.65,27.14-23.07,90.02-76.51c7.36-6.26,8.26-17.3,2-24.67ZM254.62,245.61c-8.27-8.06-13.43-19.3-13.43-31.74,0-24.44,19.88-44.33,44.33-44.33,15.01,0,28.28,7.5,36.31,18.94h0l-67.21,57.12Zm93.93-79.83c-14.51-18.97-37.36-31.23-63.03-31.23-43.74,0-79.33,35.59-79.33,79.33,0,21.06,8.27,40.22,21.71,54.44h0l-68.28,58.03c-56.15-39.14-100.4-91.84-117.15-113.15,10.23-14.72,31.99-43.8,62.39-72.51,38.62-36.47,99.68-79.94,171.26-79.94,51.38,0,99.86,22.3,139.03,48.44l-66.61,56.61Z"/></svg>