<svg width="74" height="49" viewBox="0 0 74 49" fill="none" xmlns="http://www.w3.org/2000/svg">
<path d="M70.1126 45.8096V24.4434L39.8872 45.8096H70.1126Z" fill="#F8C028"/>
<path d="M70.1128 24.4434L39.8872 45.8096H70.1128V24.4434ZM73.1128 48.8096H30.4458L73.1128 18.6484V48.8096Z" fill="black"/>
<path d="M64.89 8.27969C65.1567 6.69826 64.3432 3.80859 64.3432 3.80859C64.3432 3.80859 61.4533 4.73667 60.2647 5.83021C58.9707 7.0207 58.3092 8.15041 58.3092 8.15041L52.9578 17.9861L55.8086 19.4959L58.6594 21.0058L64.0109 11.1701C64.0109 11.1701 64.5998 10.0027 64.8907 8.28046L64.89 8.27969Z" fill="#F8C028"/>
<path d="M58.3093 8.14941L52.9578 17.9854L58.6599 21.0049L64.0105 11.1689L66.6892 12.5205L66.6687 12.5615L66.6462 12.6025L59.8767 25.0439L48.8728 19.2158L55.6736 6.71582L55.697 6.67383L55.7205 6.63379L58.3093 8.14941ZM67.2312 2.99512L67.2322 2.99805L67.2361 3.01367C67.2386 3.02271 67.2419 3.03446 67.2458 3.04883C67.2538 3.07795 67.265 3.11852 67.2781 3.16797C67.3042 3.2667 67.3395 3.40481 67.3806 3.57324C67.4624 3.90843 67.569 4.37621 67.6667 4.90527C67.7685 5.45603 67.8921 6.23838 67.9294 7.06836L68.1082 7.24609L67.8484 8.7793C67.6669 9.85355 67.3941 10.7529 67.1628 11.3916C67.0465 11.7128 66.9387 11.9737 66.8552 12.1641C66.8135 12.2594 66.7779 12.3378 66.7498 12.3975C66.7357 12.4273 66.7227 12.4521 66.7126 12.4727C66.7077 12.4828 66.7038 12.4922 66.7 12.5C66.6981 12.5038 66.6957 12.5075 66.6941 12.5107C66.6933 12.5124 66.6919 12.5141 66.6912 12.5156L66.6902 12.5186C66.6897 12.519 66.6651 12.508 64.0105 11.1689C64.0105 11.1689 64.5994 10.0016 64.8904 8.2793C65.1561 6.70261 64.3485 3.82522 64.3435 3.80762C64.3435 3.80762 61.4531 4.73557 60.2644 5.8291C58.9755 7.01494 58.3145 8.14067 58.3093 8.14941C55.7574 6.65531 55.7207 6.63459 55.7205 6.63379L55.7214 6.63184L55.7224 6.62988C55.7232 6.62847 55.7244 6.62654 55.7253 6.625C55.7272 6.62177 55.7299 6.61805 55.7322 6.61426C55.7366 6.60673 55.742 6.59758 55.7478 6.58789C55.7595 6.56842 55.7735 6.54438 55.7908 6.5166C55.8256 6.46053 55.8721 6.38769 55.9294 6.30078C56.044 6.12727 56.2052 5.89552 56.4119 5.62305C56.823 5.08097 57.4291 4.36087 58.2332 3.62109C59.2466 2.68882 60.7036 2.01643 61.5798 1.64551C62.0787 1.43434 62.5312 1.26406 62.8582 1.14648C63.0226 1.08735 63.1583 1.04071 63.2556 1.00781C63.3041 0.991423 63.3431 0.978196 63.3718 0.96875L63.4187 0.953125C63.4201 0.952664 63.4215 0.95251 63.4226 0.952148H63.4246L63.4255 0.951172L66.3875 0L67.2312 2.99512Z" fill="black"/>
<path d="M15.7822 29.3893L50.7693 32.4706L55.5634 21.6217L53.8648 21.0059L48.4611 29.3893H15.7822Z" fill="#F8C028"/>
<path d="M59.6055 19.8975L52.6455 35.6484L15.7822 31.3086L0 28.3086L15.7822 27.3086L46.8252 26.3906L52.6387 17.3711L59.6055 19.8975ZM48.4609 29.3906H15.7822L50.7695 32.4717L55.5635 21.623L53.8652 21.0068L48.4609 29.3906Z" fill="black"/>
</svg>
