<?xml version="1.0" encoding="UTF-8"?><svg id="Layer_1" xmlns="http://www.w3.org/2000/svg" viewBox="0 0 79 101"><defs><style>.cls-1{fill:#fff;}</style></defs><path class="cls-1" d="m0,89.05V4.81s51.81,10.93,51.81,10.93v36.73l5.3,6.41v42.12L0,89.05Zm45.99-27.59c.02-.32-.06-.64-.22-.91-.16-.27-.41-.49-.7-.63h-8.14v-2.67h-.83v2.67h-6.29v-5.78l-1.8-2.15-1.8,2.15v5.78h-6.29v-2.67h-.83v2.67h-8.14c-.29.13-.53.35-.7.63-.16.27-.24.59-.22.91.01.72.26,1.42.7,1.99.44.57,1.06.98,1.76,1.17,1.76.57,11.27,3.42,11.27,3.42.03,0,1.32.18,1.71.66.3.47.51.99.62,1.54l.44,6.79s-4.31,1.05-4.67,1.4c-.35.35-.48,1.27-.18,1.49.31.22,1.23,0,1.23,0h10.21s.92.22,1.23,0c.31-.22.18-1.14-.18-1.49-.35-.35-4.63-1.39-4.67-1.4l.44-6.79c.11-.54.32-1.07.62-1.54.39-.48,1.69-.65,1.71-.66,0,0,9.5-2.85,11.27-3.42.7-.19,1.32-.6,1.76-1.17.44-.57.69-1.27.7-1.99ZM10.49,23.61v5.9l31.48,7.39v-5.43l-31.48-7.87Zm0,9.18v5.9l31.48,7.39v-5.43l-31.48-7.87Z"/><path class="cls-1" d="m68.87,79.18v8.53l-5.74-.12V11.87L6.38,0h61.56v41.14l10.19,2.62v32.79l-9.26,2.62Z"/></svg>