<?xml version="1.0" encoding="UTF-8"?><svg id="Layer_1" xmlns="http://www.w3.org/2000/svg" viewBox="0 0 103 93"><defs><style>.cls-1{fill:#fff;}</style></defs><path class="cls-1" d="m50.86,76.13l4-4.21,4.01,4.21,5.69-4.9c-.64,1.42-1.37,2.75-2.23,3.96-6.92,9.8-15.7,7.26-17.36,3.19-.55-1.34-1.4-4.39-2.17-8.16l8.06,5.91Zm12.53-45.14c.93-.8,7.87-1.33,13.29,3.75,5.18,4.85,12.66,20.47,6.49,32.52-6.17,12.05-17.27,13.58-18.27,12.49-1.54-1.67,4.12-5.1,6.57-13.83l5.48,4.67,5.39-12.16-4.8,4-4.99-4.32c.01-1.24-.04-2.54-.17-3.92-.06-.66-.13-1.3-.21-1.93l7.5-1.43-8.2-13.93-2.04,3.47c-3.13-8.05-7.13-8.43-6.03-9.38Zm-38.3,8.22c5.82-7.15,12.37-9.12,15.26-8.2,2.89.92,2.38,3.37.38,7.05-.71,1.3-1.29,2.82-1.78,4.47l-4.46-4.97-8.2,13.93,10.61.89s0,.05-.01.07c-.25,1.55-.29,3.44-.19,5.42l-3.95,4.55-5.47-4.45-5.93-5.6,11.4,19.53,5.06-4.67c.24,1.43.46,2.66.61,3.56.63,3.68,1.56,8.01-3.84,8.47-5.4.46-8.62-4.68-11.1-8.29-2.51-3.65-3.01-6.75-3.51-13.49-.5-6.74,1.47-13.78,5.14-18.28Zm42.83-12.67c.08-1.22,5.61-5.38,13.83-1.31,8.22,4.07,12.49,11.99,13.32,24.87.52,8.07-3.3,14.92-6.83,18.61-.23.23-.61.23-.84,0-.17-.17-.22-.42-.13-.64,2.2-5.73,2.68-11.44,2.12-16.77-.81-7.71-4.58-14.86-9.3-18.3-5.98-4.36-12.32-4.05-12.16-6.46h0Zm-45.84-2.29c9.39-4.18,15.92-.49,16.15.77h0c.62,3.38-7.5,2.82-15.16,10-6.88,6.45-9.54,20.4-4.77,32.89.11.29-.03.61-.32.73-.2.08-.42.04-.58-.1-4.46-4.44-8.91-15.2-9.07-19.28-.52-13.25,4.36-20.82,13.74-25Zm30.96,5.42c6.57-.15,11.91,8.03,13.78,15.16l-5.6,9.55,6.62-1.27c.05,2.73-.12,5.69-.58,8.64l-5.05,4.48-6.28-5.26-7.16,6.59-7.31-6.17c-.2-2.08-.32-4.15-.29-6.11h0c.01-.78.06-1.63.14-2.51l7.39.62-6.33-7.05c1.86-8.07,5.75-16.55,10.68-16.66Zm7.04-25.33c1.3-.71,5.82,1.99,5.03,3.61l-4.53,4.5s-2.6,2.72-2.7,5.23c-.1,2.51.47,3.88,1.44,5.66.96,1.78,4.3,4.15,3.34,5.2-.96,1.05-4.58-1.23-8.15-2.49-3.57-1.26-5.49,1.99-8.96,3.56-3.45,1.56-1.08-2.26-1.06-2.3h0s1.36-1.59.88-2.12c-.48-.52-2.93.18-3.22-1.07,2-.73,2.53-.69,4.54-1.48,2.11-.84,3.68-3.28,4.64-4.84.96-1.57,2.08-5.45,3.95-7.22,4.04-3.83,4.79-6.2,4.8-6.23Zm1.3,14.61c.06,0,6.74.43,6.57,2.1-.17,1.67-3.5,2.19-3.5,2.19,0,0-1.31-.13-2.62-1.3-1.04-.93-.46-2.97-.46-2.99h0Zm-19.88-1.97c3.31,0,6.12,1.25,5.86,2.06-.26.81-6.49,2.3-7.86,2.1-3.57-.5-7.19-.53-7.78-.59-.58-.06,6.47-3.57,9.78-3.57Z"/></svg>