<?xml version="1.0" encoding="UTF-8"?><svg id="Layer_1" xmlns="http://www.w3.org/2000/svg" viewBox="0 0 351.12 313.6"><defs><style>.cls-1{fill:#fff;}</style></defs><path class="cls-1" d="m283.3,231.42l-47.87-19.37c-9.03,0-8.75-15.22-8.75-24.43v-10.95c0-9.21-.28-24.43,8.75-24.43l47.87-19.37c9.03,0,8.75,7.47,8.75,16.68v65.19c0,9.21.28,16.68-8.75,16.68Z"/><ellipse class="cls-1" cx="178.59" cy="115.44" rx="31.44" ry="32.08"/><ellipse class="cls-1" cx="105.59" cy="115.44" rx="31.44" ry="32.08"/><path class="cls-1" d="m179.13,163.31c-15.28,0-28.82-7.49-37.38-19.03-8.57,11.54-22.1,19.03-37.38,19.03-13.23,0-25.16-5.61-33.69-14.6v66.93c0,8.71,6.92,15.77,15.46,15.77h112.46c8.54,0,15.46-7.06,15.46-15.77v-68.31c-8.59,9.78-21.03,15.98-34.91,15.98Z"/></svg>