<svg width="50" height="50" viewBox="0 0 50 50" fill="none" xmlns="http://www.w3.org/2000/svg">
<g clip-path="url(#clip0_4396_43031)">
<path d="M25 0C38.8071 -3.01764e-07 50 11.1929 50 25C50 38.8071 38.8071 50 25 50C11.1929 50 3.01764e-07 38.8071 0 25C-3.01764e-07 11.1929 11.1929 3.01764e-07 25 0ZM25 46.4092C36.824 46.4092 46.4092 36.824 46.4092 25C46.4092 13.176 36.824 3.59075 25 3.59075C13.176 3.59075 3.59075 13.176 3.59075 25C3.59075 36.824 13.176 46.4092 25 46.4092Z" fill="white"/>
<path d="M11.3549 11.3549C18.9533 3.75673 31.2731 3.75664 38.8715 11.3549C46.4695 18.9533 46.4696 31.2731 38.8715 38.8715C31.2732 46.4695 18.9533 46.4695 11.3549 38.8715C3.75664 31.2731 3.75676 18.9533 11.3549 11.3549ZM22.8178 7.99945L23.9867 10.0238L21.9584 8.85394V12.184L23.8783 11.0736L22.8178 12.9115H24.0932V14.0102C22.6435 14.2168 21.5288 15.4633 21.5287 16.9701C21.529 18.3242 22.4298 19.4667 23.6645 19.8344V21.0355C22.3513 20.6515 20.3315 19.9469 19.0697 19.1059C17.1478 17.8245 16.7211 17.3969 15.0121 17.3969C13.3028 17.397 10.5263 18.4654 10.099 21.8822C9.75747 24.6155 10.3837 26.7228 10.7397 27.435L14.0307 33.6303C12.9822 33.6454 12.1372 34.4991 12.1371 35.5512C12.1373 36.6126 12.9975 37.473 14.059 37.473H35.4164C36.4778 37.4728 37.3391 36.6125 37.3393 35.5512C37.3392 34.4898 36.4778 33.6295 35.4164 33.6293H35.0004L38.2914 27.435C38.6474 26.7225 39.2736 24.6151 38.932 21.8822C38.5049 18.4656 35.7284 17.3972 34.019 17.3969C32.3099 17.3969 31.8832 17.8246 29.9613 19.1059C28.702 19.9453 26.687 20.6491 25.3735 21.0336V19.8344C26.6076 19.4663 27.5089 18.3238 27.5092 16.9701C27.5091 15.4644 26.3949 14.2181 24.9467 14.0102V12.9115H26.1469L25.1527 11.1889L26.8735 12.183V8.85394L25.0444 9.90863L26.1479 7.99945H22.8178ZM20.4652 30.6381C21.0548 30.6383 21.5335 31.1169 21.5336 31.7064C21.5336 32.2961 21.0548 32.7736 20.4652 32.7738H18.3295C17.7397 32.7738 17.2612 32.2962 17.2611 31.7064C17.2613 31.1168 17.7398 30.6381 18.3295 30.6381H20.4652ZM25.5902 30.6381C26.1797 30.6383 26.6575 31.1169 26.6576 31.7064C26.6576 32.296 26.1798 32.7736 25.5902 32.7738H23.4545C22.8647 32.7738 22.3862 32.2962 22.3861 31.7064C22.3863 31.1168 22.8648 30.6381 23.4545 30.6381H25.5902ZM30.7192 30.6381C31.3085 30.6385 31.7864 31.117 31.7865 31.7064C31.7865 32.2959 31.3085 32.7734 30.7192 32.7738H28.5834C27.9937 32.7738 27.5151 32.2962 27.5151 31.7064C27.5152 31.1168 27.9937 30.6381 28.5834 30.6381H30.7192ZM11.5951 22.309C12.0224 20.1736 13.5181 18.6787 15.0121 18.892C16.5065 19.1059 20.5643 21.8822 21.2055 22.0961C21.5766 22.2196 22.7136 22.4228 23.6645 22.5805V24.2318H22.8217L23.809 26.5121L22.8188 25.9408V28.2562L23.9379 27.6088C23.6411 28.315 23.1058 29.1187 22.2738 29.3568C20.7789 29.7837 18.8568 28.7162 19.2836 27.435C19.6253 26.4105 20.1376 27.2932 20.351 27.8627C20.4933 27.6489 20.6922 27.0505 20.351 26.3676C20.0094 25.6845 19.2121 25.7975 18.8559 25.9398C18.9982 25.8682 19.1969 25.5549 18.8559 24.8725C18.5145 24.1897 18.144 24.0183 18.0014 24.018C17.859 24.2317 17.5749 24.7439 17.5746 25.0853V26.1537C17.2898 26.1538 16.6772 26.2821 16.5063 26.7943C16.3357 27.3069 16.7205 28.1474 16.934 28.5033C17.0055 28.0762 17.2341 27.2215 17.5756 27.2211C18.0022 27.2216 18.2162 27.6492 18.2162 28.2895C18.216 28.9302 17.3614 30.4246 16.0805 30.4252C15.0556 30.4251 14.2296 29.7128 13.9447 29.3568L16.0805 29.1439L15.0121 27.2211L13.7309 28.7162V25.9398L12.0219 26.5805C11.7371 25.8682 11.2536 24.0172 11.5951 22.309ZM34.019 18.892C35.5129 18.679 37.0088 20.1737 37.436 22.309C37.7775 24.017 37.294 25.868 37.0092 26.5805L35.3002 25.9398V28.7162L34.019 27.2211L32.9506 29.1439L35.0863 29.3568C34.8014 29.7128 33.9754 30.425 32.9506 30.4252C31.6695 30.4249 30.8151 28.9303 30.8149 28.2895C30.8149 27.6491 31.0287 27.2214 31.4555 27.2211C31.7969 27.2217 32.0256 28.0763 32.0971 28.5033C32.3107 28.1472 32.6954 27.3068 32.5248 26.7943C32.354 26.2821 31.7414 26.1538 31.4565 26.1537V25.0853C31.4561 24.7438 31.1721 24.2317 31.0297 24.018C30.8872 24.0182 30.5167 24.1897 30.1752 24.8725C29.8339 25.5554 30.0329 25.8686 30.1752 25.9398C29.8192 25.7975 29.0219 25.6846 28.6801 26.3676C28.3388 27.0507 28.5377 27.6491 28.6801 27.8627C28.8936 27.2932 29.4058 26.4103 29.7475 27.435C30.1744 28.7163 28.2522 29.7837 26.7572 29.3568C25.9181 29.1169 25.3816 28.3017 25.0863 27.5912L26.2377 28.2572V25.9408L25.1352 26.5756L26.1508 24.2318H25.3735V22.5795C26.323 22.422 27.4555 22.2193 27.8256 22.0961C28.4676 21.8815 32.5248 19.1058 34.019 18.892Z" fill="white"/>
</g>
<defs>
<clipPath id="clip0_4396_43031">
<rect width="50" height="50" fill="white"/>
</clipPath>
</defs>
</svg>
