<?xml version="1.0" encoding="UTF-8"?><svg id="Layer_1" xmlns="http://www.w3.org/2000/svg" xmlns:xlink="http://www.w3.org/1999/xlink" viewBox="0 0 82 68"><defs><style>.cls-1{fill:#fff;}.cls-2{fill:#010001;}.cls-3{fill:url(#linear-gradient);}.cls-4{fill-rule:evenodd;}</style><linearGradient id="linear-gradient" x1="18.78" y1="60.9" x2="62.45" y2="6.98" gradientTransform="translate(0 67.89) scale(1 -1)" gradientUnits="userSpaceOnUse"><stop offset="0" stop-color="#d9d9d9"/><stop offset="1" stop-color="#737373"/></linearGradient></defs><path class="cls-3" d="m12.58,5.42C15.12.51,21.15-1.42,26.06,1.12l49.76,25.69c4.91,2.53,6.83,8.57,4.3,13.47l-11.47,22.22c-2.53,4.91-8.57,6.83-13.47,4.3L5.42,41.1c-4.91-2.53-6.83-8.57-4.3-13.47L12.58,5.42Zm1.53,10.04c-1.93,0-3.5,1.57-3.5,3.5,0,1.93,1.57,3.5,3.5,3.5,1.93,0,3.5-1.57,3.5-3.5,0-1.93-1.57-3.5-3.5-3.5Z"/><rect class="cls-2" x="27.79" y="21.05" width="17.01" height="45.9" rx="4" ry="4" transform="translate(-19.45 56.07) rotate(-62.7)"/><path class="cls-1" d="m27.58,34.21l6.44,3.28-.71,1.39-4.92-2.5-1.3,2.55,4.52,2.3-.71,1.39-4.52-2.3-1.34,2.63,5,2.55-.71,1.39-6.52-3.32,4.76-9.36Zm4.17,13.9l-1.8-.92,5.95-3.05-.98-6.21,1.8.92.71,4.62,4.15-2.14,1.8.92-5.61,2.85,1.05,6.61-1.8-.92-.76-5.03-4.51,2.35Zm12.95-5.19l3.34,1.7c2.66,1.36,3.48,3.06,2.43,5.11-1.04,2.05-2.9,2.4-5.56,1.04l-1.82-.93-1.63,3.21-1.52-.78,4.76-9.36Zm2.91,7.02c.55-.03.99-.36,1.32-1,.32-.63.33-1.18.03-1.64-.29-.46-.8-.88-1.53-1.25l-1.9-.97-1.71,3.37,1.9.97c.73.37,1.37.54,1.91.52Z"/><path class="cls-4" d="m51.31,33.83c-.27.13-.52.24-.77.36-1.69.79-3.39,1.59-5.09,2.38-.07.04-.13.1-.17.17-.12.22-.22.44-.33.67l-8.4-4.09c.08-.17.16-.34.25-.51.06-.1.08-.23.04-.35-.09-.27-.14-.56-.21-.84-.43-1.81-.85-3.62-1.28-5.43,0-.04-.01-.09-.02-.14.93.23,1.89.34,2.84.34,1.53.06,3.07.1,4.6.17.41.02.81.08,1.21.12.59.06,1.15.33,1.57.75.72.7,1.39,1.45,2,2.25.81,1,1.62,1.99,2.44,2.98.32.4.7.75,1.11,1.05.05.04.11.07.19.13h0Zm-13.57-8.48l.76-.6-2.7-4.09.47-.33,2.78,3.95.99-.81-1.97-2.96.47-.34,2.95,4.16c.21-.23.41-.44.62-.66.16-.18.18-.37.05-.57-.57-.87-1.13-1.73-1.7-2.6-.03-.04-.05-.09-.09-.14l.47-.32c.3.43.6.84.89,1.26.3.43.6.85.9,1.28.08.13.21.23.36.27.4.12.78.26,1.17.4.05.02.09.02.14.04l.62-1.28-.85-.42.07-.14c.28-.58.56-1.17.85-1.75.04-.07.1-.12.17-.15.56-.2,1.18-.2,1.74.01l.85-1.76-.42-.21c-.35-.17-.71-.35-1.06-.52-.05-.03-.1-.06-.14-.11-.27-.45-.53-.9-.79-1.35-.01-.01-.03-.03-.04-.04l.04-.02,2.2,1.07c.07-.15.14-.28.2-.42.03-.08.11-.14.19-.14.45-.02.9.05,1.32.21.08.03.17.06.27.09l.87-1.8.65.32-.85,1.77c.33.27.65.52.94.79.37.35.36.37.14.82-.02.04-.04.09-.06.14l2.17,1.06v.03s-.08.01-.12.02c-.54.04-1.08.08-1.63.12-.07,0-.14,0-.2-.04-.39-.18-.77-.37-1.15-.56l-.14-.07-.84,1.74c.14.12.29.23.43.35.23.26.42.56.57.88.11.17.11.39,0,.56-.26.51-.51,1.04-.76,1.56l-.07.15-.84-.41-.62,1.29c.23.11.45.23.68.33.07.02.11.1.1.17-.02.61-.04,1.23-.06,1.84-.01.08.03.16.11.18.44.21.87.42,1.3.63.07.02.12.08.12.15.03.99.06,1.98.1,2.98,0,.02,0,.05,0,.1-.31-.27-.61-.52-.89-.77-1.06-.99-2.04-2.06-2.92-3.21-.23-.3-.48-.58-.73-.87-.32-.41-.81-.65-1.33-.66-.79-.03-1.58-.07-2.36-.09-1.12,0-2.25-.08-3.36-.25-.34-.06-.67-.16-1-.23v-.04s0,0,0,0Z"/></svg>