<?xml version="1.0" encoding="UTF-8"?><svg id="Layer_1" xmlns="http://www.w3.org/2000/svg" viewBox="0 0 218.39 203.97"><defs><style>.cls-1{fill:#fff;}</style></defs><path class="cls-1" d="m163.73,11.02l-64.06,60.17-15.12-11.19c-3.06-1.74-6.63.42-10.27,3.33l-1.19-1.15,19.52-20.28c-.93-2.08-3.41-3.54-6.3-.58-5.16,5.77-9.9,11.88-14.21,18.31l-.46-.47c-.41-.41-1.08-.42-1.49,0h0s-1.27,1.23-1.27,1.23l-.49-.49c-.22-.23-.58-.23-.81-.01h-.01s-.09.1-.09.1l-.09.09s-.02.05-.03.07c-.02,0-.05.01-.07.03l-.09.09-.09.09h-.01c-.22.24-.21.61.01.83l.49.49-1.22,1.27h0c-.41.42-.4,1.09,0,1.5l.47.46c-6.43,4.3-12.55,9.05-18.31,14.21-2.96,2.89-1.51,5.37.58,6.3l20.28-19.52,1.15,1.19c-2.91,3.64-5.07,7.22-3.33,10.27l11.19,15.12-60.17,64.06s-6.4,8.26,4.2,18.85c11.43,11.43,25.49,2.5,25.74,2.32l66.88-49.2s23.43,17.39,38.36,26.53c0,0-14.17,22.07-13.61,30.48.21,3.13,6.74,13.52,14.59,7.53,10.09-7.7,17.19-11.52,16.87-18.36-.12-2.62-.13-7.11-.13-7.11l6.72,5.81,1.18-1.26.13-.12h0s.01-.01.01-.01h.01s0-.01,0-.01l.12-.13,1.26-1.18-5.81-6.72s4.48.01,7.11.14c6.83.32,10.65-6.78,18.36-16.87,5.99-7.85-4.4-14.38-7.53-14.59-8.42-.56-30.48,13.61-30.48,13.61-9.13-14.93-26.53-38.36-26.53-38.36l49.2-66.88c.18-.25,9.11-14.31-2.32-25.75-10.6-10.6-18.85-4.2-18.85-4.2Z"/></svg>