<?xml version="1.0" encoding="UTF-8"?><svg id="Layer_1" xmlns="http://www.w3.org/2000/svg" viewBox="0 0 197.22 190.05"><defs><style>.cls-1{fill:#fff;fill-rule:evenodd;}</style></defs><g id="Group_3285"><path id="Path_3066" class="cls-1" d="m180.15,9.95l-3.05-3.04-3.68,6.4.08.08c-12.97,5.85-25.32,12.98-36.87,21.28l25.22,25.14c8.33-11.51,15.49-23.82,21.37-36.75l.07.07,6.43-3.68-3.05-3.04c1.33-2.25.58-5.16-1.67-6.49-1.49-.88-3.34-.88-4.82,0v.02Zm-111.37,90.93l-28.63,35.29-11.87,5.8-7.82,7.77-2.69-2.68-11.82,11.84,31.29,31.19,11.85-11.81-2.69-2.68,7.82-7.77,5.83-11.82,35.4-28.52c19.01-16.03,36.95-33.28,53.71-51.65,3.37-3.82,6.48-7.67,9.35-11.45l-26.42-26.38c-3.79,2.86-7.65,5.96-11.48,9.33-18.42,16.71-35.72,34.59-51.82,53.55m-35.75,61.4l-5.77-5.75,10.51-10.47,15.8-4.24-20.54,20.47Z"/></g></svg>