<svg width="94" height="91" viewBox="0 0 94 91" fill="none" xmlns="http://www.w3.org/2000/svg">
<path d="M87.8061 59.0593L87.1905 60.1991H56.8288L56.2943 59.4989L55.0549 59.3289L53.6339 57.3893L47.2986 56.7796V55.7202L41.987 55.8098V56.7796H40.6204V54.3199L36.9003 53L32.2126 54.499V55.7202H24.7742L24.3301 56.7796L21.8512 55.7202L20.1768 56.8783L20.5298 59.3371L21.4347 60.3874H23.7329L23.9053 61.0875L28.5119 63.9878V65.3964L12.1312 66.4466V67.0572H7.68769L3 75.4958V78.0359H6.35796L6.18564 79.8311L6.80121 81.0605L15.6606 88H66.9192L74.294 80.6656V78.4664L72.7561 76.1868L72.4031 73.6375L66.828 73.1978L57.706 64.6789H53.3713V63.0089L56.3846 62.838L56.8288 61.8691H87.1905L87.5434 63.0985H91V59.0593H87.8061ZM15.4071 85.9352L10.6291 82.066L13.0186 80.7561L15.4071 82.6857V85.9352ZM20.8376 86.8958L21.8144 84.203H25.6156L27.0365 86.8958H20.8376ZM31.199 86.8958L31.9961 85.5403H33.4078L34.204 86.8958H31.199ZM38.1047 86.8958L39.0723 84.203H42.8827L44.2945 86.8958H38.1047ZM67.3173 82.6857L68.4213 82.1565L69.5253 82.7753L67.3173 85.5403V82.6857ZM56.7375 84.1756H60.5387L61.9597 86.8684H55.7607L56.7375 84.1756ZM48.5021 86.8684L49.2992 85.5129H50.7653L51.5615 86.8684H48.5021Z" fill="white"/>
<path fill-rule="evenodd" clip-rule="evenodd" d="M86.0167 56.0597H94V66.0989H85.2835L84.9306 64.8695H62.3051L68.1092 70.29L75.0439 70.8368L75.6323 75.0863L77.294 77.5495V81.9135L68.1571 91.0004H66.7967H64.3173H18.4071H16.8946H14.6255L4.42053 83.0069L3.43384 81.0363H0V74.7189L5.92241 64.0576H9.13119V63.6332L19.6879 62.9564L17.6848 60.6316L16.9435 55.4674L21.507 52.311L22.7314 52.8343L22.779 52.7206H29.2126V52.3092L33.0813 51.072L36.9501 51L40.2853 51.0182L43.6204 52.2015V52.7822L50.2986 52.6696V54.0549L55.2595 54.5323L56.7231 56.5301L57.928 56.6953L58.3129 57.1995H85.4011L86.0167 56.0597ZM53.6339 57.3897L47.2986 56.78V55.7206L41.987 55.8102V56.78H40.6204V54.3203L36.9003 53.0004L32.2126 54.4995V55.7206H24.7742L24.3301 56.78L21.8512 55.7206L20.1768 56.8787L20.5298 59.3375L21.4347 60.3878H23.7329L23.9053 61.088L28.5119 63.9882V65.3968L12.1312 66.4471V67.0576H7.68769L3 75.4962V78.0363H6.35796L6.18564 79.8315L6.80121 81.0609L15.6606 88.0004H66.9193L74.294 80.6661V78.4668L72.7561 76.1872L72.4031 73.6379L66.828 73.1982L57.706 64.6793H53.3713V63.0093L56.3846 62.8384L56.8288 61.8695H87.1905L87.5434 63.0989H91V59.0597H87.8061L87.1905 60.1995H56.8288L56.2943 59.4993L55.0549 59.3293L53.6339 57.3897ZM15.4071 85.9356V82.6861L13.0186 80.7565L10.6291 82.0664L15.4071 85.9356ZM27.0365 86.8962L25.6156 84.2034H21.8144L20.8376 86.8962H27.0365ZM31.199 86.8962L31.9961 85.5407H33.4078L34.204 86.8962H31.199ZM44.2945 86.8962L42.8827 84.2034H39.0723L38.1047 86.8962H44.2945ZM48.5021 86.8688L49.2992 85.5133H50.7653L51.5615 86.8688H48.5021ZM61.9597 86.8688L60.5387 84.176H56.7375L55.7607 86.8688H61.9597ZM67.3173 85.5407L69.5253 82.7757L68.4213 82.1569L67.3173 82.6861V85.5407Z" fill="black" fill-opacity="0.5"/>
<path d="M58.7241 51H19.2759V28.431H13V14.3621H26.4483C25.4521 12.9943 23.4598 12.8966 23.4598 7.62069C23.4598 3.81034 25.8506 0 31.5287 0C36.3103 0 38.5019 2.93103 39 4.39655C39.6973 2.93103 42.108 0 46.1724 0C51.2529 0 54.5402 3.79989 54.5402 7.91379C54.5402 12.0172 52.6475 13.5805 51.5517 14.3621H65V28.431H58.7241V51Z" fill="black" fill-opacity="0.5"/>
<path d="M46.321 13.1903C46.321 13.1903 41.0556 13.1559 41.0912 13.1903C41.0912 13.1903 41.0912 9.53367 41.0912 8.06095C41.0912 5.22811 43.4326 2.93164 46.321 2.93164C49.2093 2.93164 51.5508 5.22811 51.5508 8.06095C51.5508 10.8938 49.2093 13.1903 46.321 13.1903Z" fill="white"/>
<path d="M36.909 8.06086C36.909 8.06086 36.8739 13.225 36.909 13.1901C36.909 13.1901 33.1807 13.1901 31.6791 13.1901C28.7907 13.1901 26.4492 10.8937 26.4492 8.06086C26.4492 5.22807 28.7907 2.93164 31.6791 2.93164C34.5675 2.93164 36.909 5.22807 36.909 8.06086Z" fill="white"/>
<path d="M15.9883 17.293H36.9078V25.4999H15.9883V17.293Z" fill="white"/>
<path d="M41.0918 17.293H62.0113V25.4999H41.0918V17.293Z" fill="white"/>
<path d="M41.0918 29.6035H55.7355V48.069H41.0918V29.6035Z" fill="white"/>
<path d="M22.2637 29.6035H36.9074V48.069H22.2637V29.6035Z" fill="white"/>
</svg>
