<svg width="80" height="56" viewBox="0 0 80 56" fill="none" xmlns="http://www.w3.org/2000/svg">
<path d="M30.3782 35.3495H25.1367L25.2581 32.4154H0L0.0362228 29.545H24.795L25.9766 27.727L33.6823 25.7299H37.5307V24.1253H46.888V25.7299H47.3696H50.3182H52.3615L58.2531 35.3495H51.1329V36.7034H67.6152L70.3584 38.6027L76.6993 46.2907H71.0603L65.1726 47.8884H23.9677L14.3804 41.4966L21.5389 39.9214L23.1356 39.2968L28.5406 36.7034H30.3518L30.3782 35.3495Z" fill="white"/>
<path d="M65.1946 51.0848H23.9662L15.9766 46.2906H14.3789V49.4871L22.3685 54.8128L25.5649 55.8789H65.5118L69.4924 54.7335L75.0991 51.0848V50.0196H70.3059L65.1946 51.0848Z" fill="white"/>
<path d="M46.8818 25.7295H52.3555L58.2471 35.3496H51.127V36.7041H67.6094L70.3525 38.6025L74.9795 44.2129H44.6289V24.125H46.8818V25.7295ZM79.999 44.2129H78.2539L72.0781 36.7246L68.3984 34.1768H60.4912L53.7705 23.2031H49.4082V21.5986H44.6289V0H79.999V44.2129ZM67.8057 3.00391C67.6928 2.64462 67.3095 2.44499 66.9502 2.55762L64.9775 3.17676C64.6181 3.28966 64.4185 3.67273 64.5312 4.03223L64.9297 5.29883C64.3359 5.66458 63.7924 6.12109 63.3213 6.65918L62.1338 6.03906C61.8004 5.86447 61.3877 5.99484 61.2129 6.32812L60.2559 8.16113C60.0812 8.49462 60.2115 8.90724 60.5449 9.08203L61.75 9.71191C61.5876 10.4 61.5325 11.098 61.5771 11.7861L60.2686 12.1963C59.9091 12.3091 59.7096 12.6923 59.8223 13.0518L60.4404 15.0244C60.5532 15.384 60.9364 15.5835 61.2959 15.4707L62.6211 15.0547C62.9793 15.6361 63.423 16.1692 63.9473 16.6328L63.3027 17.8672C63.1279 18.2019 63.2583 18.6142 63.5918 18.7891L65.4238 19.7461C65.7573 19.9209 66.1699 19.7905 66.3447 19.457L66.9893 18.2227C67.6698 18.3876 68.3624 18.4466 69.043 18.4082L69.458 19.7334C69.5708 20.093 69.954 20.2925 70.3135 20.1797L72.2852 19.5615C72.6446 19.4487 72.8442 19.0656 72.7314 18.7061L72.3203 17.3965C72.9104 17.0407 73.4525 16.596 73.9248 16.0703L75.1299 16.7002C75.4632 16.8746 75.876 16.7444 76.0508 16.4111L77.0078 14.5781C77.1824 14.2434 77.0521 13.832 76.7188 13.6572H76.7197L75.5322 13.0371C75.7058 12.3428 75.7689 11.636 75.7305 10.9404L76.998 10.543C77.3572 10.4301 77.5568 10.0468 77.4443 9.6875L76.8252 7.71484C76.7124 7.35529 76.3292 7.15573 75.9697 7.26855L74.7188 7.66113C74.3556 7.05874 73.8987 6.5068 73.3584 6.02832L73.9629 4.87012C74.1376 4.53662 74.0073 4.12402 73.6738 3.94922L71.8418 2.99219C71.5083 2.81737 71.0957 2.94773 70.9209 3.28125L70.3154 4.43848C69.6139 4.26869 68.8998 4.20902 68.1982 4.25488L67.8057 3.00391ZM65.2998 9.5791C66.2667 7.72687 68.5525 7.01068 70.4033 7.97754C72.2554 8.94462 72.9728 11.2309 72.0059 13.082C71.0389 14.9344 68.7522 15.6507 66.9014 14.6836C65.0495 13.7164 64.3329 11.4301 65.2998 9.5791Z" fill="white"/>
</svg>
