<?xml version="1.0" encoding="UTF-8"?><svg id="Layer_1" xmlns="http://www.w3.org/2000/svg" viewBox="0 0 351.12 313.6"><defs><style>.cls-1{fill:#fff;}</style></defs><path class="cls-1" d="m290.5,256.67c-2.29-17.33-21.83-32.38-50.58-41.37h0c-10.61-3.32-22.48-5.81-35.2-7.29,0,0,0,0,0,0-1.41-.16-2.82-.32-4.25-.46-5.02-.48-10.16-.81-15.4-.97v-5.04c0-.17-.02-.34-.06-.5-.28-1.12-1.72-1.96-7.1-1.96-6.16,0-7.16,1.1-7.16,2.46v5.04c-30.1.91-56.96,7.38-76.06,17.29-2.25,1.17-4.39,2.38-6.41,3.63-13.16,8.17-21.48,18.2-22.94,29.12h-10.46c-2.86,0-5.18.47-5.18,3.4s2.32,3.51,5.18,3.51h10.48c.35,2.52,1.06,4.98,2.11,7.39.7,1.61,1.55,3.18,2.55,4.73.99,1.55,2.13,3.07,3.41,4.55,1.27,1.49,2.68,2.94,4.22,4.35,6.15,5.66,14.37,10.73,24.17,14.98,18.38,7.98,42.36,13.1,68.86,13.91h14.31c23.06-.68,44.21-4.63,61.44-10.89,2.65-.96,5.21-1.98,7.67-3.05,1.23-.53,2.43-1.08,3.61-1.64,18.84-8.95,31.03-21.06,32.8-34.53h0v-6.69Zm-11.71,8.92c-1.98,8.14-8.19,15.65-17.58,22.03-2.56,1.74-5.36,3.4-8.37,4.96-2.01,1.04-4.11,2.04-6.3,2.99-2.19.95-4.47,1.86-6.83,2.72-1.18.43-2.38.85-3.6,1.25-14.65,4.87-32.15,7.95-51.1,8.58v-15.74c0-.34-.06-.96-.25-1.71-.57-2.23-2.29-5.55-6.9-5.55-6.16,0-7.16,5.9-7.16,7.26v15.72c-50.33-1.7-90.39-20.68-94.07-44.57h33.15c.89,0,2.72-.06,4.81-.23,4.6-.37,10.48-1.28,10.48-3.29s-5.88-2.86-10.48-3.2c-2.09-.15-3.92-.2-4.81-.2h-33.16c3.56-23.95,43.7-43,94.14-44.69v15.78c0,.25.03.68.13,1.19.07.35.16.73.29,1.14.26.82.66,1.72,1.27,2.54,1.07,1.43,2.77,2.6,5.47,2.6s4.4-1.17,5.47-2.6c.3-.41.56-.84.77-1.27.73-1.51.92-3.01.92-3.61v-15.78c1.58.05,3.14.12,4.7.21,3.63.2,7.19.5,10.69.88,34.03,3.67,61.52,15.39,73.08,30.76,3.06,4.07,5.01,8.39,5.67,12.88h-33.25c-2.14,0-9.94.26-13.7,1.63-.67.24-1.2.53-1.56.85-.14.13-.27.26-.36.4-.1.16-.15.34-.15.52s.05.36.15.52c.29.49.97.89,1.91,1.23,3.76,1.34,11.55,1.54,13.7,1.54h33.26c-.11.75-.25,1.49-.43,2.23Z"/><g><polygon class="cls-1" points="194.53 188 205.56 188 205.56 177.01 205.56 149.67 205.56 136.9 182.2 136.9 170.63 136.9 164.1 136.9 150.28 136.9 150.28 149.67 150.28 188 164.1 188 194.53 188"/><polygon class="cls-1" points="157.5 58.78 157.91 59.38 168.46 29.57 168.46 12.05 164.88 11.61 135.54 8.03 135.54 89.07 143.91 97.44 152.29 73.61 157.5 58.78"/><path class="cls-1" d="m198.64,219.86c.97-2.13,1.84-4.31,2.61-6.54,1.15-3.33,2.08-6.75,2.75-10.24.33-1.69.58-3.39.79-5.1.08-.65.17-1.3.24-1.95h-17.82s-36.4,0-36.4,0c.11,1.14.25,2.27.41,3.4.05.37.12.74.18,1.11.12.75.24,1.51.38,2.25.08.44.18.88.27,1.31.14.67.28,1.35.44,2.01.11.46.23.92.35,1.38.16.64.33,1.27.51,1.9.13.47.28.94.42,1.41.19.61.38,1.22.59,1.83.16.47.32.94.49,1.4.21.6.44,1.2.67,1.79.18.46.36.92.54,1.37.24.6.5,1.19.76,1.77.19.44.39.89.59,1.33.28.6.57,1.19.86,1.78.21.42.41.84.63,1.25.32.62.66,1.23,1,1.84.21.37.41.75.62,1.12.42.72.85,1.43,1.29,2.14.15.25.3.5.46.75.6.94,1.23,1.88,1.88,2.79.17.25.36.48.53.73.48.67.97,1.34,1.48,1.99.26.34.54.67.8,1,.44.55.88,1.1,1.33,1.63.3.36.62.71.93,1.06.44.5.88,1,1.34,1.48.33.36.67.71,1.01,1.06.49.51.99,1.02,1.5,1.52.21.2.41.4.62.6.76.73,1.54,1.45,2.34,2.14,0,0,0,0,0,0,.22.18.47.32.72.42.99.42,2.16.29,3.03-.42h0c8.08-7.07,14.47-15.73,18.85-25.33Z"/><polygon class="cls-1" points="205.56 103.43 191.51 63.49 188.85 55.91 188.85 46.59 188.85 33.72 188.85 33.72 191.94 42.47 196.49 55.32 209.12 91 211.54 97.83 220.3 89.07 220.3 62.22 220.3 41.64 220.3 30.47 220.3 16.82 220.3 8.03 188.85 11.87 188.85 2.37 188.85 0 184.44 4.9 178.99 10.95 178.99 63.24 167.12 86.83 160.22 76.82 151.84 100.5 150.28 104.91 150.28 128.87 169.14 128.87 180.52 128.87 205.56 128.87 205.56 103.43"/></g></svg>