<?xml version="1.0" encoding="UTF-8"?><svg id="Layer_1" xmlns="http://www.w3.org/2000/svg" viewBox="0 0 88.16 85.87"><defs><style>.cls-1{fill:#fff;}</style></defs><path class="cls-1" d="m3.51,0s.09.18.26.52c1.69,3.38,4.3,20.79,31.83,42.41,12.26,9.63,31.57,19.41,31.57,19.41l1.7-6.65,6.78,2.48-3.78,6.26s11.61,4.83,14.09,7.96,3.84,8.12,1.04,11.35c-2.52,2.91-9.24,2.34-10.7,1.17-2.96-2.37-2.35-5.74-2.35-5.74,0,0,6.38,2.1,7.17,1.17,2.31-2.71-.39-4.96-3.52-6.52s-7.7-2.87-7.7-2.87l-2.32,6.86-7.19-2.88,3.25-5.59s-27.25-14.66-33.62-19.89C-6.13,19.79,3.51,0,3.51,0Z"/><g><path class="cls-1" d="m85.03,0s-.09.18-.26.52c-1.69,3.38-4.3,20.79-31.83,42.41-1.97,1.55-4.12,3.1-6.35,4.61l7.7,4.88c1.78-1.16,3.25-2.18,4.23-2.98C94.68,19.79,85.03,0,85.03,0Z"/><path class="cls-1" d="m21.38,62.35l-1.7-6.65-6.78,2.48,3.78,6.26s-11.61,4.83-14.09,7.96c-2.48,3.13-3.84,8.12-1.04,11.35,2.52,2.91,9.24,2.34,10.7,1.17,2.96-2.37,2.35-5.74,2.35-5.74,0,0-6.38,2.1-7.17,1.17-2.31-2.71.39-4.96,3.52-6.52,3.13-1.57,7.7-2.87,7.7-2.87l2.32,6.86,7.19-2.88-3.25-5.59s8.9-4.81,16.92-9.38l-7.93-4.44c-6.55,3.78-12.5,6.83-12.5,6.83Z"/></g></svg>