<?xml version="1.0" encoding="UTF-8"?><svg id="Layer_1" xmlns="http://www.w3.org/2000/svg" viewBox="0 0 45.36 45.36"><defs><style>.cls-1{fill:#fff;}</style></defs><path class="cls-1" d="m22.66,45.36c-2.08,0-4.09-.27-6.02-.81s-3.73-1.3-5.42-2.29-3.21-2.17-4.59-3.55-2.56-2.91-3.54-4.59c-.99-1.67-1.75-3.48-2.29-5.4s-.81-3.93-.81-6.02.27-4.1.81-6.03,1.3-3.75,2.29-5.43c.99-1.68,2.17-3.21,3.54-4.6s2.9-2.57,4.59-3.56,3.49-1.75,5.42-2.29,3.93-.81,6.02-.81,4.1.27,6.03.81,3.75,1.3,5.43,2.29,3.21,2.17,4.6,3.56,2.57,2.91,3.56,4.6c.99,1.68,1.75,3.49,2.29,5.43s.81,3.95.81,6.03-.27,4.09-.81,6.02-1.3,3.73-2.29,5.4c-.99,1.68-2.17,3.2-3.56,4.59s-2.92,2.57-4.6,3.55-3.49,1.75-5.43,2.29-3.95.81-6.03.81Zm0-2.28h.21c1.86,0,3.67-.25,5.4-.73,1.74-.49,3.36-1.18,4.86-2.06,1.5-.88,2.87-1.95,4.11-3.19,1.24-1.24,2.3-2.61,3.19-4.12.88-1.51,1.57-3.13,2.05-4.87.48-1.74.72-3.54.72-5.4s-.24-3.69-.72-5.44c-.48-1.75-1.17-3.38-2.05-4.89-.88-1.52-1.95-2.9-3.19-4.15-1.24-1.25-2.61-2.31-4.11-3.2-1.5-.88-3.12-1.57-4.86-2.06-1.74-.49-3.54-.74-5.4-.74,1.39.03,2.69.32,3.91.85s2.28,1.27,3.19,2.19c.91.92,1.62,2,2.14,3.23s.78,2.55.78,3.96-.26,2.7-.78,3.93-1.24,2.31-2.14,3.24c-.91.92-1.97,1.66-3.19,2.21-1.22.55-2.52.84-3.91.85h-.21c-1.37.02-2.67.29-3.89.83s-2.28,1.26-3.18,2.18c-.9.92-1.61,1.99-2.13,3.22s-.78,2.54-.78,3.93.26,2.73.78,3.96,1.23,2.31,2.13,3.24c.9.92,1.96,1.65,3.18,2.19s2.51.81,3.89.83Zm0-34.53c-.54,0-1.04.1-1.52.31-.47.21-.88.49-1.23.84s-.62.77-.83,1.26c-.21.48-.31.99-.31,1.53s.1,1.07.31,1.54c.21.47.48.89.83,1.26s.76.65,1.23.85c.47.21.98.31,1.52.31s1.05-.1,1.53-.31c.48-.21.9-.49,1.26-.85s.64-.78.84-1.26c.21-.47.31-.99.31-1.54s-.1-1.05-.31-1.53c-.21-.48-.49-.9-.84-1.26s-.77-.64-1.26-.84c-.48-.21-.99-.31-1.53-.31Zm0,20.41c.54,0,1.05.1,1.53.31.48.21.9.49,1.26.84.36.36.64.77.84,1.26.21.48.31.99.31,1.53s-.1,1.05-.31,1.53c-.21.48-.49.9-.84,1.26s-.77.64-1.26.84c-.48.21-.99.31-1.53.31s-1.04-.1-1.52-.31c-.47-.21-.88-.49-1.23-.84s-.62-.77-.83-1.26c-.21-.48-.31-.99-.31-1.53s.1-1.05.31-1.53c.21-.48.48-.9.83-1.26.35-.36.76-.64,1.23-.84.47-.21.98-.31,1.52-.31Z"/></svg>