<?xml version="1.0" encoding="UTF-8"?><svg id="Layer_1" xmlns="http://www.w3.org/2000/svg" viewBox="0 0 127 56"><defs><style>.cls-1{fill:#fff;}</style></defs><path class="cls-1" d="m75.8,39.62l-6.09-.49-1.2-1.14h.05l-8.76-8.28h-.05s-4.68,0-4.68,0v-1.84l3.29-.2.48-1.07h33.11l.38,1.36h.05s3.78,0,3.78,0v-4.47h-.05s-3.48,0-3.48,0h-.03s-.67,1.27-.67,1.27h-33.11l-.58-.77-1.35-.2-1.54-2.13-6.96-.67v-1.16h-.05s0,0,0,0l-5.8.1v1.07h-1.4v-2.72l-4.06-1.46h-.02s-.03,0-.03,0l-5.12,1.65v1.36h-8.12l-.48,1.15-2.67-1.14h-.02s-.03,0-.03,0l-1.84,1.26.39,2.72.97,1.16h.05s2.46,0,2.46,0l.2.77,5.03,3.21v1.56l-17.89,1.16v.67h-4.83L0,41.66v2.82h3.68l-.2,1.94.68,1.36,9.67,7.67h55.98l8.03-8.06v-2.43l-1.64-2.52-.39-2.82Zm-62.28,13.58l-5.22-4.27,2.61-1.46,2.61,2.13v3.59Zm5.91,1.07h0l1.07-3.01h4.16l1.55,3.01h-6.77Zm11.31,0l.87-1.51h1.55l.87,1.51h-3.29Zm7.55,0h0l1.07-3.01h4.16l1.55,3.01h-6.77Zm11.4,0l.87-1.51h1.54l.87,1.51h-3.28Zm7.94,0l1.07-3.01h4.15l1.55,3.01h-6.77Zm12.55-1.51v-3.16h0s1.21-.58,1.21-.58l1.21.67-2.42,3.06Z"/><path class="cls-1" d="m5.37,22.62l8.74,5.77,6.54-.42h-1.91l-2.41-2.89-.77-5.41,4.74-3.25,1.44.62.09-.21h7.12v-.55l5.32-1.71H13.87c-.89,0-1.75.3-2.45.84l-6.14,4.76c-.1.07-.18.16-.26.25-.55.69-.39,1.7.35,2.19Z"/><path class="cls-1" d="m126.51.97c-.21-.56-.79-.88-1.38-.77l-41.39,8.34c-.98.2-2,.02-2.86-.5l-.92-.56c-.38-.23-.82-.35-1.26-.35h-1.95c-.27,0-.49.22-.49.49,0,.33-.31.56-.63.47l-2.4-.69c-.56-.16-.94-.67-.94-1.25,0-.72-.58-1.3-1.3-1.3h-4.54c-.89,0-1.52-.87-1.24-1.71.28-.84-.35-1.71-1.24-1.71h-2.28c-.65,0-1.27.26-1.72.72l-.41.41c-.19.19-.29.45-.29.71v.26c0,.41-.33.75-.75.75-.24,0-.47-.12-.61-.32l-.49-.68c-.44-.63-1.17-1-1.93-1h-5.49c-.79,0-1.57.25-2.21.71l-.53.38c-.3.22-.66.33-1.03.33h-3.57c-.27,0-.53.03-.79.08l-4.57.92c-.46.09-.91.27-1.31.52l-.5.31c-1.46.91-1.99,2.78-1.23,4.32l.39.79c.32.65.99,1.07,1.72,1.07h1.21c.39,0,.71.32.71.72,0,.34.24.63.57.7l.29.03c.32.07.57.35.57.7,0,.26-.14.48-.34.61l4.76,1.71v.73l7.25-.12v1.49l5.6.54,1.59,2.2,1.32.19.42.56h29.86l.39-.73,1.13-.38h.03s.46-.17.46-.17h6.97v10.47h-9.04l-.38-1.36h-25.69l7.01,6.63,7.44.59.16,1.17h19.33c.98,0,1.92-.36,2.65-1.01l12.16-10.78c1.67-1.48,1.65-4.08-.03-5.54-.52-.44-1.14-.74-1.82-.85l-26.84-4.37c-.13-.02-.26-.03-.39-.03h-4.17c-1.04,0-1.47-1.33-.63-1.94.29-.21.68-.27,1.02-.14l.91.34c.53.2,1.11.24,1.66.11l1.87-.44c.56-.13.96-.64.96-1.21,0-.59.41-1.1.99-1.22L125.63,2.58c.72-.15,1.14-.92.88-1.61Z"/></svg>