<?xml version="1.0" encoding="UTF-8"?><svg id="Layer_1" xmlns="http://www.w3.org/2000/svg" viewBox="0 0 73.57 76.7"><defs><style>.cls-1{fill:#fff;fill-rule:evenodd;}</style></defs><g id="Layer_7"><g><path class="cls-1" d="m71.13,42.35c0-7.91-5.51-13.66-9.79-14.88-4.04-11.62-13.92-19.84-25.47-19.84S14.44,15.84,10.4,27.46c-4.27,1.21-9.79,6.96-9.79,14.89,0,8.89,7.41,16.1,11.75,16.2v-23.5h3.8c-.05-1.2-.19-2.4-.4-3.59,2.52-11.54,10.57-19.98,20.11-19.98s17.55,8.41,20.09,19.91c-.23,1.21-.37,2.43-.42,3.66h3.83v21.06l-8.45,12.68h-11.14v-.74c0-.92-.74-1.66-1.66-1.66h-8.43c-.92,0-1.66.74-1.66,1.66h0v4.51c0,.92.74,1.66,1.66,1.66h8.43c.92,0,1.66-.74,1.66-1.66h13.16l10.34-15.51c4.8-3.38,7.7-8.84,7.84-14.7Z"/><path class="cls-1" d="m18.55,35.05h-2.27v23.5h2.27c.91,0,1.64-.74,1.64-1.64h0v-20.22c0-.91-.74-1.64-1.64-1.64h0Z"/><path class="cls-1" d="m55.46,58.56v-23.5h-2.27c-.91,0-1.64.74-1.64,1.64v20.22c0,.91.74,1.64,1.64,1.64h2.27Z"/></g></g></svg>