<?xml version="1.0" encoding="UTF-8"?><svg id="Layer_1" xmlns="http://www.w3.org/2000/svg" viewBox="0 0 107.25 71.86"><defs><style>.cls-1{fill:#fff;}.cls-2{fill:none;}.cls-3{fill:#ee5353;}</style></defs><path class="cls-2" d="m0,35.14v35.15h56.81L8.47,43.48S.04,38.16,0,35.14Z"/><path class="cls-2" d="m56.98,70.29h28.04v-35.14c0,19.34-12.54,35.03-28.04,35.14Z"/><path class="cls-2" d="m53.14,6.55L18.88,26.81s26.67-4.04,32.53-8.32c5.86-4.28,1.73-11.94,1.73-11.94Z"/><path class="cls-2" d="m7.52,27.34L56.82,0H0v35.14c-.04-2.77,7.52-7.8,7.52-7.8Z"/><path class="cls-2" d="m68.01,0h-11.19c3.24,0,6.35.69,9.24,1.94l1.94-1.94Z"/><polygon class="cls-2" points="85.01 0 68.01 0 85.01 17.01 85.01 0"/><path class="cls-2" d="m54.44,34.93c-.34-3.62-2.24-6.9-5.21-9l-38.39,9.22,38.39,8.35c2.99-1.88,4.92-5.06,5.21-8.57Z"/><path class="cls-2" d="m51.41,51.84v-.02c-5.85-4.28-32.53-8.33-32.53-8.33l34.27,20.3s4.12-7.66-1.73-11.94Z"/><path class="cls-2" d="m85.01,35.15v-7.67l-.58.58c.38,2.29.58,4.67.58,7.1Z"/><path class="cls-1" d="m68.01,44.48l-5.23-5.23,17.01-17.01L62.77,5.23l3.29-3.29c-2.9-1.25-6-1.94-9.24-1.94L7.52,27.34S-.04,32.37,0,35.14c.04,3.02,8.47,8.34,8.47,8.34l48.34,26.81h.17c15.5-.11,28.04-15.8,28.04-35.14,0-2.43-.2-4.81-.58-7.1l-16.43,16.43ZM53.14,6.55s4.12,7.66-1.73,11.94c-5.85,4.28-32.53,8.32-32.53,8.32L53.14,6.55Zm-3.9,19.38c2.96,2.1,4.87,5.38,5.21,9-.29,3.52-2.22,6.69-5.21,8.57l-38.39-8.35,38.39-9.22Zm3.91,37.85l-34.27-20.3s26.68,4.06,32.53,8.33v.02c5.85,4.28,1.73,11.94,1.73,11.94Z"/><polygon class="cls-3" points="107.25 5.23 102.02 0 85.01 17.01 85.01 17.01 85.01 27.47 102.02 44.48 107.25 39.25 90.25 22.24 107.25 5.23"/><path class="cls-3" d="m68.01,0l-1.94,1.94c9.28,4.02,16.37,13.91,18.37,26.1l.58-.58v-10.47L68.01,0Z"/><path class="cls-3" d="m79.78,22.24l-17.01,17.01,5.23,5.23,16.43-16.43c-2.01-12.2-9.09-22.09-18.37-26.1l-3.29,3.29,17.01,17.01Z"/></svg>