<svg width="94" height="85" viewBox="0 0 94 85" fill="none" xmlns="http://www.w3.org/2000/svg">
<path d="M37.5527 77.226C39.8902 74.7166 47.7907 67.1187 53.18 63.6581C57.3494 60.9808 64.7263 56.5939 68.8034 55.3348L69.9276 57.6611C69.9276 57.6611 60.8298 61.4007 54.5309 65.6544C46.6491 70.977 43.2945 74.9479 39.6872 78.7883L37.5527 77.226Z" fill="white"/>
<path d="M70.8202 64.2217C65.1488 64.5205 53.6447 65.0683 53 64.8691L57.0053 63.5001C59.0043 62.4998 70.8181 60.5001 72.9183 63.1121C73.2971 63.5831 73.3037 64.1686 73.2227 64.4366L66.0937 75.7695L70.8202 64.2217Z" fill="white"/>
<path d="M84.1358 62.3456C84.5904 61.703 85.0046 60.5496 84.812 60.112C85.3606 60.018 86.301 60.5628 89.3283 59.6912C89.3283 59.6912 88.5346 61.239 86.1343 61.6502C85.3676 61.7816 87.1139 63.2472 86.5456 64.0505C85.9773 64.8537 84.4883 64.403 84.2041 64.8046C83.92 65.2062 84.2138 66.9207 82.8422 67.1557C82.2288 67.2608 80.6641 66.117 80.0895 65.5096C80.5466 65.4313 81.175 65.253 81.4023 64.9317C81.6296 64.6104 82.0456 63.8803 81.853 63.4427C82.5388 63.3251 83.6812 62.9882 84.1358 62.3456Z" fill="white"/>
<path d="M81.0831 44.5145C81.7258 44.9691 82.5003 45.9188 82.4643 46.3956C83.013 46.3016 83.7184 45.4748 86.8631 45.2889C86.8631 45.2889 85.5995 44.0936 83.1992 44.5049C82.4325 44.6363 83.5912 42.6729 82.7879 42.1047C81.9847 41.5364 80.7306 42.4572 80.329 42.173C79.9273 41.8889 79.6336 40.1744 78.262 40.4094C77.6486 40.5145 76.554 42.1139 76.2143 42.878C76.6715 42.7997 77.3233 42.7586 77.6446 42.9859C77.9659 43.2132 78.6013 43.7632 78.5654 44.24C79.2511 44.1225 80.4405 44.0599 81.0831 44.5145Z" fill="white"/>
<path d="M72.9404 52.6153L76.7126 51.9694C77.7414 51.7936 78.7623 49.9235 79.6716 48.6381C80.8082 47.0314 83.4295 47.9086 83.6788 49.3635C83.7963 50.0497 82.1992 51.0289 82.3167 51.7147C82.4342 52.4006 84.3251 53.1356 84.4426 53.8214C84.6777 55.1935 82.963 55.4868 83.0805 56.1727C83.1393 56.516 84.7677 56.8754 84.7461 57.6531C84.6969 59.426 83.5506 58.9164 82.5219 59.0927C81.6989 59.2337 78.5703 58.0044 77.2509 57.1715C76.3725 56.8514 71.9146 58.9888 71.2942 55.3682C71.1004 54.2371 71.9705 53.1349 72.9404 52.6153Z" fill="white"/>
<path d="M78.4858 64.3725C76.9913 64.2598 75.6419 59.4478 75.1947 57.5243C75.9784 57.9783 78.0222 59.6807 79.1523 60.0228C80.6414 60.4736 82.6824 60.7122 83.502 60.6894C82.7084 62.2372 80.751 61.9372 80.2494 62.3056C79.6223 62.766 81.3464 64.5883 78.4858 64.3725Z" fill="white"/>
<path d="M74.2865 45.0791C73.0242 45.887 74.1178 50.7635 74.6361 52.669C75.1109 51.8977 76.1031 49.4297 76.9359 48.5926C78.0331 47.4897 79.717 46.3119 80.4494 45.9433C79.0167 44.9569 77.4356 46.1491 76.8193 46.0627C76.049 45.9546 76.7028 43.5327 74.2865 45.0791Z" fill="white"/>
<path d="M85.7919 49.3544C85.6509 48.5314 85.0409 47.7182 84.7535 47.4144C85.8019 47.3525 87.9456 47.5029 88.1336 48.6002C88.3216 49.6975 87.3823 51.0822 86.8891 51.6373C87.5194 51.8823 88.8152 52.578 88.9562 53.401C89.0972 54.224 88.2571 54.8151 87.8195 55.0077C88.2407 55.4062 89.0382 56.3521 88.8578 56.9477C88.6324 57.6923 88.9754 57.6336 88.0054 58.1527C87.2294 58.5681 86.3104 58.5608 85.9479 58.5053C86.1373 58.2375 86.4927 57.5648 86.3987 57.0161C86.3047 56.4674 85.7456 55.9514 85.4778 55.7619C85.8959 55.455 86.685 54.5668 86.497 53.4694C86.3089 52.3721 85.2692 51.7972 84.7728 51.6469C85.1712 51.2257 85.9329 50.1774 85.7919 49.3544Z" fill="white"/>
<path d="M33.5254 64.1747L48.8271 53.0565L56.6924 58.7714L53.2363 60.9139L48.8271 57.7108L26.3633 74.0321L33.166 53.0936L38.2021 49.7802L33.5254 64.1747ZM57.4072 31.3036H85.1738L62.71 47.6239L64.9912 54.6444L61.5322 56.1835L58.2842 46.1864L73.5859 35.0682H54.6719L48.8271 17.08L45.5566 27.1444L43.2061 22.1932L48.8271 4.89539L57.4072 31.3036Z" fill="white"/>
<path d="M43.0158 40.6389C44.2863 39.7885 47.2508 40.2845 48.5742 40.6389C47.2508 38.6015 43.8628 34.5799 40.8983 34.7925C37.1927 35.0582 36.928 37.9815 35.6046 38.7788C34.5458 39.4166 33.2224 38.513 32.693 37.9815C31.0167 36.7413 26.0759 32.9322 19.7234 27.6172C13.3709 22.3021 5.25386 11.7606 1.98939 7.15427C0.489498 11.4949 -1.61035 22.5147 1.98939 31.8692C5.58913 41.2237 17.0765 44.0938 22.3703 44.3596C22.6349 44.8911 23.0055 46.3793 22.3703 48.0801C21.735 49.7809 19.1058 50.3833 17.8706 50.4719C14.2532 51.0034 6.75375 53.0231 5.695 56.8499C4.37157 61.6335 17.6059 64.291 21.5762 63.4937C25.5465 62.6965 25.8112 58.4444 26.3405 56.8499C26.764 55.5743 29.5168 52.0664 30.8402 50.4719C32.4283 50.1175 35.8693 49.1431 36.928 48.0801C38.2514 46.7513 41.4277 41.7019 43.0158 40.6389Z" fill="white"/>
<path fill-rule="evenodd" clip-rule="evenodd" d="M42.4971 32.7804C42.702 29.7035 42.3226 26.2498 40.4444 23.8847C36.44 18.8424 33.2367 13.8001 31.9019 10.6154C30.8341 8.06773 28.6094 2.47694 27.6306 0C25.4059 3.45002 21.0634 11.7831 21.4905 17.5155C21.687 20.153 22.3056 23.903 23.0288 27.6487C28.4123 32.0507 32.4988 35.1642 33.969 36.2411L34.0985 36.336L34.2123 36.4491C34.2528 36.4893 34.3373 36.5639 34.4517 36.6426C34.5209 36.6903 34.5883 36.7306 34.6502 36.7628C34.6801 36.7227 34.7145 36.6749 34.7538 36.6184C34.796 36.5578 34.8497 36.4776 34.9127 36.3836L34.913 36.383C35.1205 36.0732 35.4274 35.6149 35.7458 35.223C36.745 33.9932 38.2588 32.8303 40.8257 32.648C41.3983 32.6073 41.9576 32.6597 42.4971 32.7804ZM23.6862 30.9246C24.3522 34.1306 25.0269 37.0793 25.4949 39.0117L35.3724 44.0541L41.5122 38.2156C41.7794 37.3705 42.0598 36.2196 42.2613 34.9107C41.8296 34.7899 41.3995 34.7357 40.9778 34.7657C38.4431 34.9457 37.5046 36.3463 36.7467 37.4775C36.3871 38.0142 36.0682 38.4903 35.6387 38.7465C34.5708 39.3834 33.236 38.4811 32.7021 37.9503C31.3896 36.9889 28.0929 34.4815 23.6862 30.9246Z" fill="white"/>
</svg>
