<?xml version="1.0" encoding="UTF-8"?><svg id="Layer_1" xmlns="http://www.w3.org/2000/svg" viewBox="0 0 78.13 101"><defs><style>.cls-1{fill:#fff;}</style></defs><path class="cls-1" d="m0,89.05V4.81s51.81,10.93,51.81,10.93v36.73l5.3,6.41v42.12L0,89.05Zm36.22-17.98c-.69-1.29-1.37-2.59-2.05-3.88-.04-.09-.15-.15-.25-.13-.71,0-1.42,0-2.14,0-.12.02-.23-.05-.26-.17-.37-.83-.74-1.65-1.11-2.48-.03-.11-.13-.18-.25-.16-.37,0-.73,0-1.11,0v-2.11s1.38,0,1.38,0v-.25c0-.85-.02-1.7,0-2.55.04-.3-.1-.59-.36-.74-.4-.33-.84-.6-1.32-.8-.26-.08-.52-.13-.79-.19v-2.84s2.12,0,2.12,0c.1,0,.2-.03.29-.08.7-.4,1.38-.8,2.08-1.21.05-.03.1-.06.14-.1v-.04h-3.57c0-.09-.01-.16-.01-.22,0-.74,0-.76-.72-.99-.56-.18-1.14-.29-1.75-.44v-2.89h-1.08v2.95c-.15.02-.28.03-.41.05-.66.06-1.3.25-1.89.57-.11.06-.18.18-.17.3,0,.22,0,.44,0,.68h-3.6l-.03.06s.05.02.08.03c.64.42,1.28.85,1.92,1.27.08.04.17.06.26.06h2.43v2.88c-.87.09-1.69.48-2.31,1.11-.07.08-.12.19-.13.3,0,.96,0,1.91,0,2.86v.23h1.4v2.09c-.07.02-.14.04-.21.04-.6.07-1.2.13-1.8.23-.23.04-.46-.01-.65-.13-.66-.38-1.34-.74-2.01-1.11-.66-.36-1.32-.73-1.99-1.1l-.41.73c.09.05.15.1.21.13,1.31.78,2.61,1.56,3.92,2.34.31.19.41.45.31.79-.12.42-.26.84-.39,1.27l-6.59-3.6-.41.75,4.51,2.65-.79,1.7-6.23-3.44-.41.74,6.2,3.67-.62,1.29h0l.03.06c.49-.11.99-.21,1.48-.34,1.58-.49,3.13-1.1,4.61-1.83,1.06-.48,2.13-.94,3.19-1.41.7-.31,1.5-.31,2.19.02.51.23,1.02.44,1.53.68,1.91.96,3.9,1.75,5.94,2.37.55.15,1.1.29,1.68.44-.03-.08-.05-.11-.06-.14ZM10.48,23.61v5.9l31.48,7.39v-5.43l-31.48-7.87Zm0,9.18v5.9l31.48,7.39v-5.43l-31.48-7.87Zm28.25,40.87c-.74-.12-1.47-.35-2.15-.67-1.72-.78-3.43-1.58-5.15-2.38-1.33-.65-2.7-1.21-4.1-1.68-.83-.29-1.74-.28-2.56.02-.56.21-1.13.38-1.68.62-2.07.9-4.13,1.84-6.2,2.75-1.26.62-2.6,1.09-3.98,1.39.04.06.08.12.12.17,1.73,2.12,3.46,4.24,5.19,6.36.27.33.52.68.81.98.13.13.19.3.17.48,0,.27,0,.55,0,.83h13.76c0-.37-.01-.74,0-1.1,0-.12.05-.24.12-.33,1.73-2.15,3.46-4.29,5.2-6.43.25-.32.51-.63.78-.97-.14-.02-.24-.02-.34-.04Z"/><path class="cls-1" d="m68.87,79.18v8.53l-5.74-.12V11.87L6.38,0h61.56v41.14l10.19,2.62v32.79l-9.26,2.62Z"/></svg>