<?xml version="1.0" encoding="UTF-8"?><svg id="Layer_1" xmlns="http://www.w3.org/2000/svg" viewBox="0 0 102.33 100.97"><defs><style>.cls-1{fill:#fff;}.cls-2{fill:none;}.cls-3{fill:#ee5353;}</style></defs><path class="cls-2" d="m47.52,54.42c-9.67,0-17.5,7.84-17.5,17.5,0,9.67,7.84,17.5,17.5,17.5h0c9.67,0,17.5-7.84,17.5-17.51,0-9.67-7.84-17.5-17.5-17.5Zm13.94,18.93c-.09.93-.28,1.84-.56,2.73-.13.44-.29.87-.47,1.29-1.42,3.36-4.1,6.03-7.46,7.46-.42.17-.85.33-1.29.47-2.71.84-5.62.84-8.33,0-.44-.13-.87-.29-1.29-.47-3.36-1.42-6.03-4.1-7.46-7.46-.18-.42-.33-.85-.47-1.29-1.83-5.91.42-12.32,5.54-15.78.37-.25.76-.49,1.16-.7,1.21-.66,2.51-1.13,3.85-1.4,1.86-.38,3.78-.38,5.65,0,1.35.27,2.65.75,3.85,1.4.4.22.78.45,1.16.7h.01c3.86,2.6,6.17,6.96,6.17,11.62,0,.48-.02.96-.07,1.43Z"/><path class="cls-1" d="m47.52,42.88h0c-16.04,0-29.04,13.01-29.04,29.05,0,16.04,13.01,29.04,29.05,29.04,16.04,0,29.04-13.01,29.04-29.04s-13-29.04-29.04-29.04Zm0,46.55h0c-9.67,0-17.5-7.84-17.5-17.5,0-9.67,7.84-17.5,17.5-17.5s17.5,7.83,17.5,17.5c0,9.67-7.83,17.5-17.5,17.51Z"/><path class="cls-1" d="m55.36,60.3h-.01c-.37-.25-.76-.49-1.16-.7-1.21-.66-2.51-1.13-3.85-1.4-1.86-.38-3.78-.38-5.65,0-1.35.27-2.65.75-3.85,1.4-.4.22-.78.45-1.16.7-5.12,3.47-7.37,9.88-5.54,15.78.13.44.29.87.47,1.29,1.42,3.36,4.1,6.03,7.46,7.46.42.18.85.33,1.29.47,2.71.84,5.62.84,8.33,0,.44-.14.87-.29,1.29-.47,3.36-1.42,6.03-4.1,7.46-7.46.18-.42.33-.85.47-1.29.28-.89.46-1.81.56-2.73.05-.47.07-.95.07-1.43,0-4.66-2.31-9.01-6.17-11.62Z"/><path class="cls-1" d="m58.86,38.24l-11.34-9.01V1.53h-12.26l-1.28,31.88c-6.2,3.34-12.05,7.32-17.44,11.86-3.31,3.08-10.7,16.62-10.7,16.62l5.47,3.41s7.96-15.86,16.63-20.94c8.02-4.37,17.27-5.89,26.27-4.33l6.22,1.78-2.57-2.57,1.01-1.01Z"/><polygon class="cls-1" points="65.02 43.13 64.69 42.87 64.56 43 65.02 43.13"/><polygon class="cls-3" points="102.33 5.23 97.1 0 80.09 17.01 63.08 0 57.85 5.23 74.86 22.24 58.86 38.24 64.69 42.87 80.09 27.47 97.1 44.48 102.33 39.25 85.32 22.24 102.33 5.23"/><polygon class="cls-3" points="63.08 44.48 64.56 43 60.42 41.81 63.08 44.48"/><polygon class="cls-3" points="57.85 39.25 60.42 41.81 64.56 43 64.69 42.87 58.86 38.24 57.85 39.25"/></svg>