<svg xmlns="http://www.w3.org/2000/svg" width="750" height="750" viewBox="0 0 750 750">
  <defs>
    <style>
      .cls-1 {
        fill: #fff;
        fill-rule: evenodd;
      }
    </style>
  </defs>
  <path id="diamond" class="cls-1" d="M237.214,183.486H512.786l21.57,107.846H215.644S237.214,183.486,237.214,183.486Zm73.841,449.4L2.328,258l175.533,67.513ZM747.673,258L438.946,632.885l133.193-307.37Zm-628.257-153.5L240.942,66.529h276.54L634.36,103.054,524.946,145.136H225.056ZM0,216.018l84.033-84.032S199.521,176.4,199.521,176.4s-21.608,108.042-21.608,108.042ZM375,684L221.463,329.682H528.539ZM669.776,133.906a4.556,4.556,0,0,1-3.221-1.334L750,216.017s-177.912,68.429-177.912,68.429L550.479,176.4,666.14,131.919Zm1.566-2.989L673,132.572a4.553,4.553,0,0,1-3.221,1.334Zm-7.787-2.884,4.252-1.636,1.372,2.058-1.372,2.5-3.735-1.946A4.515,4.515,0,0,1,663.555,128.033Z"/>
</svg>
