<?xml version="1.0" encoding="UTF-8"?><svg id="Layer_1" xmlns="http://www.w3.org/2000/svg" viewBox="0 0 47 45.31"><defs><style>.cls-1{fill:#fff;}</style></defs><path class="cls-1" d="m25.5,5.84c.71,0,1.29.58,1.29,1.29v2.48c1.3.33,2.53.85,3.65,1.53l1.75-1.75c.27-.26.62-.39.96-.37.33,0,.66.13.91.38l2.76,2.76c.33.33.44.78.34,1.2-.02,0-.04,0-.05,0-.05.22-.17.43-.34.61l-1.77,1.77c.67,1.13,1.18,2.37,1.5,3.68h2.53c.71,0,1.29.57,1.29,1.28v3.9c0,.71-.58,1.29-1.29,1.29h-2.56c-.33,1.29-.85,2.51-1.52,3.62l1.83,1.83s.06.07.09.1c.02,0,.03,0,.05,0,.41.51.39,1.25-.08,1.72l-2.76,2.76c-.29.29-.69.41-1.06.37-.3-.02-.59-.14-.81-.37l-1.77-1.77c-1.14.69-2.37,1.2-3.63,1.52v2.51c0,.71-.58,1.29-1.29,1.29h-3.9c-.06,0-.12,0-.17-.01-.41-.04-.77-.27-.97-.6,0-.01.02-.03.03-.04-.11-.19-.17-.4-.17-.63v-2.47c-1.29-.31-2.54-.82-3.71-1.53l-1.74,1.74c-.5.5-1.32.5-1.82,0l-2.76-2.76c-.5-.5-.5-1.32,0-1.82l1.74-1.74c-.7-1.17-1.21-2.42-1.53-3.71h-2.47c-.06,0-.13,0-.19-.02,0,0,0,0,0,0-.65-.07-1.15-.61-1.15-1.27v-3.9c0-.71.58-1.29,1.29-1.29h.04s0,0,.01,0h2.47c.32-1.31.83-2.55,1.5-3.68l-1.77-1.77c-.5-.51-.5-1.32,0-1.82l2.76-2.76c.26-.26.59-.38.93-.38.34,0,.68.12.94.38l1.73,1.73c1.12-.68,2.36-1.2,3.67-1.52v-2.46c0-.71.58-1.29,1.29-1.29h0s.03,0,.04,0h3.9Zm3.04,11.82c-2.79-2.79-7.31-2.79-10.09,0-1.28,1.28-1.98,2.93-2.08,4.61,0,.1,0,.19,0,.29,0,.76.12,1.49.34,2.17-.02,0-.04-.01-.06-.02.32,1.11.93,2.17,1.81,3.05.93.93,2.05,1.55,3.24,1.86-.02-.06-.05-.11-.07-.17.6.17,1.23.26,1.89.26,3.94,0,7.14-3.19,7.14-7.14,0-1.26-.33-2.45-.91-3.48-.01.03-.03.07-.04.1-.31-.54-.69-1.06-1.15-1.52Z"/></svg>