<?xml version="1.0" encoding="UTF-8"?><svg id="Layer_1" xmlns="http://www.w3.org/2000/svg" viewBox="0 0 80 59"><defs><style>.cls-1{fill:#fff;}</style></defs><path class="cls-1" d="m16.63,1.43C18.43.06,20.79-.36,22.95.31l51.76,16.04c3.69,1.14,5.76,5.07,4.62,8.76l-8.79,28.37c-1.14,3.69-5.07,5.76-8.76,4.61l-51.62-15.99c-2.24-.69-3.99-2.47-4.65-4.72L.28,19.56c-.82-2.78.17-5.78,2.47-7.54L16.63,1.43Zm41.53,32.09c-1.93-.55-3.96-.51-5.71.31-1.77.82-3.17,2.39-3.83,4.68-.66,2.29-.31,4.36.75,6,1.05,1.62,2.75,2.74,4.68,3.3,1.91.55,3.93.5,5.67-.32,1.76-.83,3.14-2.4,3.8-4.68.66-2.29.32-4.35-.73-5.99-1.04-1.62-2.72-2.74-4.63-3.29Zm-1.64,13.64s-.03,0-.05,0c.02,0,.03,0,.05,0Zm.32,0s-.06,0-.09,0c.03,0,.06,0,.09,0Zm-.62,0s-.05,0-.08,0c.03,0,.05,0,.08,0Zm.93-.02s-.05,0-.08,0c.03,0,.05,0,.08,0Zm-1.25,0s-.03,0-.05,0c.02,0,.03,0,.05,0Zm1.57-.03s-.08,0-.11.01c.04,0,.08,0,.11-.01Zm.3-.05s-.08.01-.12.02c.04,0,.08-.01.12-.02Zm.3-.06s-.09.02-.13.03c.04,0,.09-.02.13-.03Zm.31-.08c-.05.01-.1.03-.16.04.05-.01.1-.03.16-.04Zm.29-.09c-.06.02-.12.04-.18.06.06-.02.12-.04.18-.06Zm.28-.1c-.06.02-.11.04-.17.07.06-.02.12-.04.17-.07Zm.26-.11s-.09.04-.13.06c.04-.02.09-.04.13-.06Zm.28-.14s-.09.05-.13.07c.04-.02.09-.04.13-.07Zm.26-.14s-.09.05-.13.07c.04-.02.09-.05.13-.07Zm.27-.17s-.1.06-.15.1c.05-.03.1-.06.15-.1Zm.27-.19c-.06.04-.11.08-.17.12.06-.04.11-.08.17-.12Zm.24-.19c-.06.05-.11.09-.17.14.06-.05.12-.09.17-.14Zm.26-.23c-.06.06-.12.11-.19.17.06-.06.13-.11.19-.17Zm.21-.22c-.06.06-.12.12-.18.18.06-.06.12-.12.18-.18Zm-27.06-1.52l5.73,1.65,24.66-26.89-5.73-1.65-24.66,26.89Zm27.32,1.23c.12-.14.23-.3.34-.46-.11.16-.22.31-.34.46Zm1.25-25.95l-23.15,25.24h0s23.15-25.24,23.15-25.24l-3.58-1.03h0l3.58,1.03Zm-7.83,15.13c.72-.1,1.47-.08,2.22.05.11.02.22.04.33.06.22.05.44.1.65.16,3.44.99,5.84,3.98,4.67,8.04l-.12.37c-.16.48-.36.92-.6,1.31.29-.5.53-1.06.71-1.69,1.17-4.06-1.23-7.05-4.67-8.04-1.08-.31-2.17-.41-3.2-.27Zm-1.09,5.73c.37-1.29,1.47-2.26,3.22-1.76,1.68.49,2.1,1.89,1.72,3.18-.37,1.29-1.47,2.26-3.15,1.78-1.76-.51-2.17-1.91-1.8-3.2Zm-.26-5.4c-.12.04-.23.09-.34.14.11-.05.23-.09.34-.14Zm-9.16-20c-1.93-.55-3.96-.51-5.72.31-1.77.82-3.17,2.39-3.83,4.68-.66,2.29-.31,4.36.75,6,1.05,1.62,2.75,2.74,4.68,3.3,1.91.55,3.93.5,5.67-.32,1.76-.83,3.14-2.4,3.8-4.68.66-2.29.32-4.35-.73-5.99-1.04-1.62-2.72-2.74-4.63-3.29Zm-1.62,13.64s-.09,0-.14,0c.05,0,.09,0,.14,0Zm.33,0c-.07,0-.13,0-.2,0,.07,0,.13,0,.2,0Zm-.65,0c-.05,0-.1,0-.16,0,.05,0,.1,0,.16,0Zm.95-.02c-.07,0-.13.01-.2.01.07,0,.13,0,.2-.01Zm-1.25,0c-.07,0-.14-.01-.2-.02.07,0,.14.01.2.02Zm1.56-.04c-.06,0-.12.01-.17.02.06,0,.12-.01.17-.02Zm-1.88,0c-.07,0-.14-.02-.21-.03.07.01.14.02.21.03Zm2.19-.05c-.06.01-.13.02-.19.03.06,0,.13-.02.19-.03Zm-2.51,0c-.09-.02-.18-.03-.28-.05.09.02.18.04.28.05Zm2.81-.07c-.06.01-.13.03-.19.04.06-.01.13-.03.19-.04Zm-3.74-.14c.2.06.4.11.61.15-.2-.04-.4-.09-.61-.15Zm4.03.06c-.07.02-.14.04-.2.05.07-.02.14-.03.2-.05Zm.28-.09c-.06.02-.13.04-.19.06.06-.02.13-.04.19-.06Zm.28-.1c-.05.02-.1.04-.15.06.05-.02.1-.04.15-.06Zm.29-.12c-.06.03-.12.05-.17.08.06-.02.12-.05.17-.08Zm-5.73-.03s-.08-.03-.12-.05c.04.02.08.03.12.05Zm6-.1c-.06.03-.12.06-.18.09.06-.03.12-.06.18-.09Zm-6.27-.01s-.09-.04-.14-.06c.05.02.09.04.14.06Zm6.53-.14c-.06.03-.11.07-.17.1.06-.03.11-.06.17-.1Zm-6.84,0s-.08-.04-.12-.06c.04.02.08.04.12.06Zm7.11-.17c-.06.04-.12.08-.18.12.06-.04.12-.08.18-.12Zm-7.39.02s-.07-.04-.1-.06c.03.02.07.04.1.06Zm7.63-.19c-.06.04-.12.09-.18.13.06-.04.12-.08.18-.13Zm-7.93.03s-.05-.03-.08-.04c.03.02.05.03.08.04Zm8.15-.2s-.09.08-.14.11c.05-.04.09-.07.14-.11Zm-8.38.06s-.09-.06-.13-.09c.04.03.09.06.13.09Zm8.62-.28s-.09.08-.13.12c.05-.04.09-.08.13-.12Zm-8.87.1s-.07-.05-.11-.08c.04.03.07.05.11.08Zm9.13-.35c-.05.06-.11.11-.17.17.06-.06.11-.11.17-.17Zm-9.41.14s-.03-.02-.05-.04c.02.01.03.02.05.04Zm-18.32-11.27c-3.03-.94-6.25.76-7.19,3.79-.94,3.03.76,6.25,3.79,7.19,3.03.94,6.25-.76,7.19-3.79.94-3.03-.76-6.25-3.79-7.19Zm18.09,11.09s-.04-.04-.06-.05c.02.02.04.04.06.05Zm9.87-.22c-.06.07-.12.14-.19.21.06-.07.13-.14.19-.21Zm-10.09.02s-.07-.06-.1-.09c.03.03.06.06.1.09Zm10.27-.26c-.05.07-.11.14-.16.21.06-.07.11-.14.16-.21Zm-10.48.06s-.05-.06-.08-.09c.03.03.05.06.08.09Zm10.65-.3c-.04.06-.09.13-.13.19.04-.06.09-.12.13-.19Zm-10.86.07s-.04-.05-.06-.08c.02.03.04.05.06.08Zm11.21-.65c-.09.17-.18.33-.28.48.1-.15.19-.31.28-.48Zm-11.86-.23s-.03-.05-.05-.07c.01.03.03.05.05.07Zm12.73-2.73c-.04.47-.13.96-.27,1.47l-.12.37c-.08.24-.17.47-.27.69.15-.33.28-.68.39-1.06.15-.51.23-1,.27-1.47Zm-9.24-1.12c.37-1.29,1.47-2.26,3.22-1.76,1.68.49,2.1,1.89,1.72,3.18-.37,1.29-1.47,2.26-3.15,1.78-1.76-.51-2.17-1.91-1.79-3.2Zm-3.99,2.78s-.03-.08-.04-.12c.01.04.03.08.04.12Zm-.09-.27s-.03-.09-.04-.13c.01.04.03.09.04.13Zm-.08-.33s-.02-.07-.02-.1c0,.03.01.07.02.1Zm-.06-.29s-.02-.09-.02-.14c0,.05.01.09.02.14Zm-.04-.3s-.01-.1-.02-.15c0,.05,0,.1.02.15Zm-.03-.34s0-.07,0-.11c0,.04,0,.08,0,.11Zm-.01-.32c0-.06,0-.12,0-.18,0,.06,0,.12,0,.18Zm0-.31c0-.06,0-.11,0-.17,0,.06,0,.11,0,.17Zm13.55-.52c0,.07,0,.14.01.21,0-.07,0-.14-.01-.21Zm-13.53.16s0-.07.01-.1c0,.03,0,.07-.01.1Zm13.5-.48c0,.07.02.15.02.22,0-.07-.01-.15-.02-.22Zm-.05-.32c.01.07.02.13.03.2,0-.07-.02-.14-.03-.2Zm-.07-.33c.02.08.04.15.05.23-.02-.08-.03-.16-.05-.23Zm-.08-.29c.02.08.04.15.06.23-.02-.08-.04-.15-.06-.23Zm-.09-.28c.02.06.04.12.06.18-.02-.06-.04-.12-.06-.18Zm-.11-.28c.02.05.04.11.06.16-.02-.05-.04-.11-.06-.16Zm-.14-.3c.03.06.06.12.09.19-.03-.06-.06-.12-.09-.19Zm-.13-.26c.03.06.06.12.1.18-.03-.06-.06-.12-.1-.18Zm-.16-.27c.03.05.07.11.1.17-.03-.06-.07-.11-.1-.17Zm-.19-.28c.04.06.09.12.13.19-.04-.06-.08-.12-.13-.19Zm-.18-.24c.05.07.11.14.16.21-.05-.07-.1-.14-.16-.21Zm-.17-.2s.08.09.12.14c-.04-.05-.08-.09-.12-.14Zm-.23-.25c.05.05.1.11.15.16-.05-.05-.1-.11-.15-.16Zm-.22-.22c.06.05.11.11.17.16-.05-.05-.11-.11-.17-.16Zm-.21-.19c.05.05.11.09.16.14-.05-.05-.1-.09-.16-.14Zm-.29-.24c.07.06.14.11.21.17-.07-.06-.14-.11-.21-.17Zm-.2-.14c.06.04.12.09.18.13-.06-.04-.12-.09-.18-.13Zm-.27-.18c.06.04.12.08.17.12-.06-.04-.12-.08-.17-.12Zm-.34-.21c.09.05.18.11.27.16-.09-.06-.18-.11-.27-.16Zm-.5-.26c.07.03.14.07.21.11-.07-.04-.14-.07-.21-.11Zm-3.58-.83c.75,0,1.52.11,2.28.33l.32.1c.21.07.41.15.61.23-.3-.13-.61-.24-.93-.33-.76-.22-1.53-.33-2.28-.33Zm20.18,29.1c-.05.08-.09.15-.14.22.05-.07.09-.15.14-.22Zm-.54.77c-.07.08-.13.16-.2.23.07-.07.14-.15.2-.23Zm-13.09-20.4c-.04.1-.09.19-.14.29.05-.09.1-.19.14-.29Zm.7-3.23c0,.09,0,.18,0,.27,0-.09,0-.18,0-.27Zm0,.32c0,.11,0,.23-.02.34,0-.11.02-.23.02-.34Zm-3.39-5.59c.08.04.15.08.23.13-.08-.04-.15-.08-.23-.13Zm-.63-.3c.1.04.19.08.29.13-.1-.04-.19-.09-.29-.13Z"/></svg>