<svg width="57" height="57" viewBox="0 0 57 57" fill="none" xmlns="http://www.w3.org/2000/svg">
<path d="M28.4997 9L32.8777 22.4742H47.0453L35.5835 30.8017L39.9615 44.2758L28.4997 35.9483L17.0379 44.2758L21.4159 30.8017L9.9541 22.4742H24.1217L28.4997 9Z" fill="white"/>
<path d="M34.3311 20.4746H53.2012L37.9346 31.5654L43.7656 49.5117L28.5 38.4199L13.2344 49.5117L19.0645 31.5654L3.79883 20.4746H22.6689L28.5 2.52832L34.3311 20.4746ZM24.1221 22.4746H9.9541L21.416 30.8018L17.0381 44.2754L28.5 35.9482L39.9619 44.2754L35.584 30.8018L47.0459 22.4746H32.8779L28.5 9L24.1221 22.4746Z" fill="black"/>
<path d="M55 28.5C55 43.1355 43.1355 55 28.5 55C13.8645 55 2 43.1355 2 28.5C2 13.8645 13.8645 2 28.5 2C43.1355 2 55 13.8645 55 28.5ZM6.13987 28.5C6.13987 40.8492 16.1508 50.8601 28.5 50.8601C40.8492 50.8601 50.8601 40.8492 50.8601 28.5C50.8601 16.1508 40.8492 6.13987 28.5 6.13987C16.1508 6.13987 6.13987 16.1508 6.13987 28.5Z" fill="white"/>
<path d="M55 28.5C55 13.8645 43.1355 2 28.5 2C13.8645 2 2 13.8645 2 28.5C2 43.1355 13.8645 55 28.5 55C43.1355 55 55 43.1355 55 28.5ZM48.8604 28.5C48.8604 17.2554 39.7446 8.13965 28.5 8.13965C17.2554 8.13965 8.13965 17.2554 8.13965 28.5C8.13965 39.7446 17.2554 48.8604 28.5 48.8604V50.8604L27.9229 50.8525C15.8404 50.5464 6.13965 40.6562 6.13965 28.5C6.13965 16.1508 16.1508 6.13965 28.5 6.13965C40.8492 6.13965 50.8604 16.1508 50.8604 28.5L50.8525 29.0771C50.5464 41.1596 40.6562 50.8604 28.5 50.8604V48.8604C39.7446 48.8604 48.8604 39.7446 48.8604 28.5ZM57 28.5C57 44.2401 44.2401 57 28.5 57C12.7599 57 0 44.2401 0 28.5C0 12.7599 12.7599 0 28.5 0C44.2401 0 57 12.7599 57 28.5Z" fill="black"/>
</svg>
