<?xml version="1.0" encoding="UTF-8"?><svg id="Layer_1" xmlns="http://www.w3.org/2000/svg" viewBox="0 0 64 66"><defs><style>.cls-1,.cls-2{fill:#fff;}.cls-2{fill-rule:evenodd;}</style></defs><path class="cls-1" d="m43.55.02v20.49H13.7V.02H0v65.03h63.02V8.06L55,.03h-11.45Zm8.61,59.48H9.46V26.26h42.7v33.25Z"/><path class="cls-1" d="m39.53,0h-9.01v16.57h9.01V0Z"/><path class="cls-1" d="m23.5,42.83h-6.24v3.46h6.24v-3.46Z"/><path class="cls-1" d="m23.5,47.27h-6.24v6.64h6.24v-6.64Z"/><path class="cls-1" d="m43.49,42.83h-6.24v3.46h6.24v-3.46Z"/><path class="cls-1" d="m36.23,48.68h-11.82v2.71h11.82v-2.71Z"/><path class="cls-2" d="m36.23,47.5h-11.82v-5.58h-4.95l.92-3.26h20.2l.86,3.26h-5.22v5.58Z"/><path class="cls-1" d="m43.49,47.27h-6.24v6.64h6.24v-6.64Z"/><path class="cls-2" d="m22.84,37.83h15.43v-1.72l3.18-1.02v-.51l7.66-2.55-.39-1.1-7.74,2.44-.61-.67-3.32.63-.39-1h-3.65l-.28-1.4h-4.36l-.47,1.4h-2.28l-2.79,5.51Z"/></svg>