<?xml version="1.0" encoding="UTF-8"?><svg id="Layer_1" xmlns="http://www.w3.org/2000/svg" viewBox="0 0 87 63"><defs><style>.cls-1{fill:#fff;}</style></defs><path class="cls-1" d="m82.63,45.26c-.83-16.18-18.67-17.01-18.67-17.01l-16.39,4.63.52-12.76s.21-3.73-1.35-4.36c-2.63-1.05-4.98.73-4.98.73V0l-2.18.73v16.18l-4.15,1.56s-.52,4.6-.73,6.36c-.21,1.76-4.91,2.12-5.6,3.64-.52,1.13-.83,10.02-.83,10.02,0,0-12.34,4.94-13.59,6.92-1.24,1.97-3.42,5.71-3.42,5.71l-1.53-6.29-2.88,1.6-1.6,7.28s-.9.65-.92,1.31c-.03.73.66.91.66.91l2.71,5.98,3.32.62.55-5.74s6.12,4.88,11,6.22l48.03-.73s12.86-.83,12.03-17.01Zm-51.64,6.4c-1.28,0-2.32-2.05-2.32-4.59s1.04-4.59,2.32-4.59,2.32,2.05,2.32,4.59-1.04,4.59-2.32,4.59Zm7.97-1.04c-1.66,0-3-2.65-3-5.93s1.34-5.93,3-5.93,3,2.65,3,5.93-1.34,5.93-3,5.93Zm9.75-1.3c-1.91,0-3.46-3.06-3.46-6.84s1.55-6.84,3.46-6.84,3.46,3.06,3.46,6.84-1.55,6.84-3.46,6.84Z"/></svg>