<?xml version="1.0" encoding="UTF-8"?><svg id="Layer_1" xmlns="http://www.w3.org/2000/svg" viewBox="0 0 47 45.31"><defs><style>.cls-1{fill:#fff;}</style></defs><path class="cls-1" d="m41.3,12.22v21.35h-1.88s-.04,0-.04,0c-.03,0-.08,0-.14,0-.12,0-.31,0-.53.01-.46.02-1.1.05-1.82.1-1.48.12-3.15.34-4.31.73-1.15.38-2.64,1.22-3.93,2.04-.32.2-.62.4-.88.58.98-.19,4.83-.9,7.86-.9,3.51,0,8.37.95,8.37.95V12.67s-1.15-.22-2.7-.44Z"/><path class="cls-1" d="m31.99,32.64c2.77-.92,7.42-.94,7.42-.94V11.98s0,0,0,0v-3.77s-4.32,0-8.37,1.48c-4.05,1.48-5.67,4.59-5.67,4.59v22.13s.91-.68,2.16-1.48h0c1.32-.84,3.03-1.83,4.45-2.3Z"/><path class="cls-1" d="m17.55,9.7c-4.05-1.48-8.37-1.48-8.37-1.48v3.77s0,0,0,0v19.72s4.65.02,7.42.94c1.42.47,3.13,1.46,4.45,2.3h0c1.25.8,2.16,1.47,2.16,1.47V14.28s-1.62-3.1-5.67-4.59Z"/><path class="cls-1" d="m16,34.43c-1.16-.39-2.82-.61-4.31-.73-.72-.06-1.36-.09-1.82-.1-.23,0-.41-.01-.53-.01-.06,0-.11,0-.14,0h-1.92V12.22c-1.54.22-2.69.44-2.7.44v24.43s4.87-.95,8.37-.95c3.04,0,6.88.71,7.86.9-.27-.18-.56-.37-.88-.58-1.29-.82-2.78-1.65-3.93-2.04Z"/></svg>