<svg width="40" height="37" viewBox="0 0 40 37" fill="none" xmlns="http://www.w3.org/2000/svg">
<path d="M20 0C31.0457 0 40 7.16344 40 16C40 21.0442 37.0815 25.542 32.5225 28.4746L29.291 22.877C31.5774 19.7748 31.9543 15.4903 29.9043 11.9395C27.8542 8.38883 23.9557 6.57298 20.126 7.00195L24.1377 13.9502L22.2441 18.6719L17.209 17.9502L13.1973 11.002C10.9108 14.1041 10.534 18.3886 12.584 21.9395C14.6341 25.4903 18.5334 27.3061 22.3633 26.877L25.0264 31.4893C23.4203 31.8219 21.7361 32 20 32C17.607 32 15.3125 31.6625 13.1855 31.0459L5 37L5.87891 27.3301C2.24738 24.4333 0 20.4267 0 16C6.44258e-07 7.16344 8.95431 0 20 0Z" fill="white"/>
</svg>
