<svg xmlns="http://www.w3.org/2000/svg" width="800" height="800" viewBox="0 0 800 800">
  <defs>
    <style>
      .cls-1 {
        fill: #fff;
        fill-rule: evenodd;
      }
    </style>
  </defs>
  <path id="snail" class="cls-1" d="M535,594.446L574.3,358.607l56.988,9.6,7.819-46.386L453.565,290.552l-7.819,46.386,54.011,9.1L460.45,581.882l-53.925-9.09-7.819,46.386,185.543,31.274,7.819-46.386ZM123.462,216.881c-7.935-47.439-34.472-70.456-34.472-70.456-15.03,6.236-74.385.535-62.421-46.294,12.876-50.394,67.512-14.014,85.973,21.077,7.3,13.864,25.823,87.352,26.141,89.328,8.065-3.136,25.285-6.79,51.913,2.678,13.726,3.427,24.348,12.577,34.032,23.509,5.382-46.379-4.536-71.891-4.536-71.891-18.1-.913-75.082-35.028-40.657-76.414,37.047-44.538,82.824,15.1,76.406,62.308-1.86,13.673-17.35,108.991-17.441,109.653,12.056,27.809,15.41,61.729,10.588,85.456-11.534,62.154-10.388,100.413-5.346,123.828,6.659,30.927,20.114,35.961,20.114,35.961S207.01,317.887,383.192,232.9c118.836-74.273,269-17.2,343.705,91.18,107.043,155.29-23.542,313.531-23.542,313.531,10.388,30.619,23.567,46.5,58.949,59.146,18.324,12.083,15.368,26.7.469,29.98H257.722s-49.729,4.59-100.808-40.389c-50.531-55.608-15.458-143.483-8.045-184.62,16.07-80.758-15.432-84.2-17.156-102.4,51.216-20.26,64.2-55.434,64.015-60.072-0.266-6.54-14.132,25.018-71.3,39.62-40.523,2.572-60.837-12.7-60.837-12.7s20.31-24,23.926-61.348C83.663,273.014,96.731,230.849,123.462,216.881Z"/>
</svg>
