<?xml version="1.0" encoding="UTF-8"?><svg id="Layer_1" xmlns="http://www.w3.org/2000/svg" viewBox="0 0 60.1 56.62"><defs><style>.cls-1{fill:#fff;}</style></defs><g id="Group_3194"><path id="Path_3031" class="cls-1" d="m7.2,43.49c-.42-.4-.61-1-.49-1.57.2-.98,1.81-1.88,1.81-1.88,1-.05,2,.04,2.97.26.81.34,2.1,2.14,2.56,2.78s1.46.98,1.34,1.51c-.09.33-.29.62-.57.81,0,0-2.44,1.92-2.65,2.66s.06,1.18-.4,1.79-3.44,1.05-4.42,1.4-2.04.82-2.09,1.72,1.63,2.05,1.63,2.05c-.26-.46-.43-.96-.48-1.49.06-.5,1.96-.89,2.23-.77s.12.69.28,1.05.91.69.91.69c-.02-.36.03-.72.14-1.06.18-.45.6-1.06,1.04-1.01.72.33,1.18,1.06,1.17,1.86-.21,1.31-1.79,1.51-1.79,1.51,0,0,1.67.76,2.56-.59s-.28-2.78-.25-3.04.27-.37.85-.67,1.84-.62,2.47-1.56.71-1.79,1.27-2.27c1.18-.88,2.51-1.54,3.93-1.94,1.23-.23,1.99.37,3.83.11s2.85-.82,4.09-.54c1.62.51,3.18,1.21,4.63,2.09,1.04.64,2.14,1.64,2.63,1.62.58-.07,1.12-.29,1.58-.65.53-.37,1.52-.17,2.26-.33.86-.12,1.64-.55,2.21-1.21.25-.49.32-1.05.19-1.58.53.1,1.08.09,1.61-.03.27-.1.47-.32.56-.59,0,0,.91.04,1.22-.57s-.57-.94-.57-.94c0,0,1.71-.07,2.02-1.28s-2.1-.77-2.1-.77c-1.69,0-3.38-.12-5.05-.36-2.25-.38-3.78-.31-5.46-1.14s-3.9-2.27-3.72-3.68,1.45-2.09,2.23-2.6c.78-.52,1.82-.69,2.51-2.01.41-1.04.52-2.18.3-3.27,0,0,2.31-1.42,3.62-2.28s2.99-2.13,3.47-3.39-.19-1.78-.19-1.78c0,0,2.82-1.21,3.68-2.63s.5-2.03.5-2.03c0,0,1.78-.82,2.11-2.03s-.52-1.57-.52-1.57c0,0,2.74-2.18,2.84-3.8s-.71-1.31-.71-1.31c.88-.97,1.71-1.99,2.49-3.05.54-.88,2-1.99,1.4-2.91s-3.29-.76-4.38-.05c-1.08.71-13.65,7.06-15.19,7.61s-15.49,7.54-17.11,9.58-1.68,3.36-1.34,5.13c.35,1.77,3.68,2.16,4.23,3.09s1.27,2.5.76,3.56-2.42.59-3.82.6c-5.45.05-9.46.54-11.12,2.22s-2.06,2.01-2.43,3.98c-.37,1.96.63,2.72.63,2.72-.15.79-.07,1.6.22,2.34.39.74,1.07,1.27,1.88,1.47"/></g></svg>