<?xml version="1.0" encoding="UTF-8"?><svg id="Layer_1" xmlns="http://www.w3.org/2000/svg" viewBox="0 0 73 73"><defs><style>.cls-1{fill:#fff;}</style></defs><path class="cls-1" d="m8.72,35.91c3.47,0,6.29-2.8,6.29-6.26s-2.82-6.26-6.29-6.26-6.29,2.8-6.29,6.26,2.82,6.26,6.29,6.26Z"/><path class="cls-1" d="m25.19,35.9c4.51,0,8.17-3.64,8.17-8.13s-3.66-8.13-8.17-8.13-8.17,3.64-8.17,8.13,3.66,8.13,8.17,8.13Z"/><path class="cls-1" d="m41.67,35.91c3.47,0,6.29-2.8,6.29-6.26s-2.82-6.26-6.29-6.26-6.29,2.8-6.29,6.26,2.82,6.26,6.29,6.26Z"/><path class="cls-1" d="m10.49,62.49L0,54.45v-15h10.49v23.04Z"/><path class="cls-1" d="m39.96,62.49l10.49-8.04v-15h-10.49v23.04Z"/><path class="cls-1" d="m25.18,39.45h-12.74v23.04l12.74,9.76,12.75-9.76v-23.04h-12.75Z"/><path class="cls-1" d="m72.79,12.61h-12.61V0h-7.21v12.61h-12.61v7.21h12.61v12.61h7.21v-12.61h12.61v-7.21Z"/></svg>