<?xml version="1.0" encoding="UTF-8"?><svg id="Layer_1" xmlns="http://www.w3.org/2000/svg" viewBox="0 0 108 85"><defs><style>.cls-1,.cls-2{fill:#fff;}.cls-2{fill-rule:evenodd;}</style></defs><path class="cls-1" d="m23.82,18.43l6.58,13.33,14.7,2.14-10.64,10.37,2.51,14.64-13.15-6.92-13.15,6.92,2.52-14.64-10.64-10.37,14.7-2.14,6.57-13.33Z"/><path class="cls-2" d="m105.23,60.14l-18.9-22.69,6.25-7.52s2.8-3.25.49-5.55c-1.94-1.94-5.55.49-5.55.49l-7.52,6.25-22.69-18.9s-1.79-.8-3.45.86c-1.67,1.67-2.65,4.63-.98,7.9,1.67,3.27,11.62,19.99,11.62,19.99,0,0,1.6,2.1,1.48,3.34-.13,1.24-1.29,3.02-1.29,3.02l-8.95,10.19s-7.54-4.57-8.52-4.57-2.47,1.11-2.35,1.86c.12.74,1.1,2.36,1.1,2.36l6.53,7.79,7.79,6.53s1.62.97,2.36,1.1c.74.12,1.85-1.36,1.86-2.35,0-.98-4.57-8.52-4.57-8.52l10.19-8.95s1.79-1.17,3.02-1.29c1.24-.13,3.34,1.48,3.34,1.48,0,0,16.72,9.95,19.99,11.62,3.27,1.67,6.24.68,7.9-.98,1.67-1.67.86-3.45.86-3.45h-.01Z"/></svg>