<?xml version="1.0" encoding="UTF-8"?><svg id="Layer_1" xmlns="http://www.w3.org/2000/svg" viewBox="0 0 86.18 80.86"><defs><style>.cls-1{fill:#fff;}</style></defs><path class="cls-1" d="m21.9,47.02c-5.63,0-10.56,3.02-13.25,7.53l-3.52-2.36,1.94,10.19,9.2-2.73-3.47-2.33c1.79-3.18,5.2-5.33,9.11-5.33,5.77,0,10.46,4.68,10.46,10.46s-4.68,10.46-10.46,10.46c-3.18,0-6.03-1.42-7.95-3.67l-4.12,2.81c2.83,3.55,7.18,5.82,12.07,5.82,8.52,0,15.42-6.91,15.42-15.42s-6.91-15.42-15.42-15.42Z"/><path class="cls-1" d="m78.26,32.49h-5.49c-.69-2.85-1.8-5.54-3.26-7.99l3.85-3.85c1.09-1.09,1.09-2.86,0-3.96l-5.99-5.99c-1.09-1.09-2.86-1.09-3.96,0l-3.8,3.8c-2.46-1.5-5.17-2.64-8.04-3.35v-5.35c0-1.55-1.25-2.8-2.8-2.8h-8.47c-1.55,0-2.8,1.25-2.8,2.8v5.35c-2.87.71-5.58,1.85-8.04,3.35l-3.8-3.8c-1.09-1.09-2.86-1.09-3.96,0l-5.99,5.99c-1.09,1.09-1.09,2.86,0,3.96l3.85,3.85c-1.46,2.45-2.57,5.14-3.26,7.99h-5.49c-1.55,0-2.8,1.25-2.8,2.8v8.47c0,1.45,1.1,2.62,2.51,2.77,3.3-2.46,7.4-3.92,11.83-3.92,2.62,0,5.12.51,7.41,1.44-.47-1.48-.73-3.06-.73-4.71,0-8.56,6.94-15.51,15.51-15.51s15.51,6.94,15.51,15.51-6.94,15.51-15.51,15.51c-1.43,0-2.8-.21-4.11-.57,1.13,2.49,1.76,5.25,1.76,8.16,0,4.63-1.59,8.89-4.26,12.27.49.8,1.37,1.33,2.37,1.33h8.47c1.55,0,2.8-1.25,2.8-2.8v-5.71c2.79-.69,5.41-1.79,7.82-3.22l4.03,4.03c1.09,1.09,2.86,1.09,3.96,0l5.99-5.99c1.09-1.09,1.09-2.86,0-3.96l-3.98-3.98c1.47-2.41,2.59-5.06,3.31-7.86h5.57c1.55,0,2.8-1.25,2.8-2.8v-8.47c0-1.55-1.25-2.8-2.8-2.8Z"/></svg>