<?xml version="1.0" encoding="UTF-8"?><svg id="Layer_1" xmlns="http://www.w3.org/2000/svg" viewBox="0 0 73.57 76.7"><defs><style>.cls-1{fill:#fff;}</style></defs><path class="cls-1" d="m62.89,28.08s-7.52,4.53-7.52,12.96,9.24,13.37,9.24,13.37c0,0-7.14,18.57-15.12,18.84-7.37.25-6.23-2.63-11.85-2.72-5.62-.09-5.96,2.43-11.29,2.95s-17.79-10.97-18.67-30.54c-.88-19.57,14.43-22.51,16.44-22.52,5.79-.03,8.98,3.04,12.02,3.07,4.27.04,5.38-3.09,12.57-3.22,9.97-.18,14.16,7.81,14.16,7.81Z"/><path class="cls-1" d="m35.37,20.56s6.38.7,11.29-5.09,3.22-11.76,3.22-11.76c0,0-6.49,0-11.23,5.91-4.28,5.34-3.28,10.94-3.28,10.94Z"/></svg>