<?xml version="1.0" encoding="UTF-8"?><svg id="Layer_1" xmlns="http://www.w3.org/2000/svg" viewBox="0 0 163.76 157.13"><defs><style>.cls-1{fill:#fff;}</style></defs><path class="cls-1" d="m19.32,100.85h58.82v12.71c0,1.38-1.12,2.49-2.49,2.49H21.82c-1.38,0-2.49-1.12-2.49-2.49v-12.71h0Z" transform="translate(90.96 -2.69) rotate(45)"/><rect class="cls-1" x="22.45" y="110.93" width="16.21" height="31.41" transform="translate(98.49 15.49) rotate(45)"/><path class="cls-1" d="m1.17,137.21h22.41v12.47c0,1.51-1.23,2.74-2.74,2.74H3.91c-1.51,0-2.74-1.23-2.74-2.74v-12.47h0Z" transform="translate(106.02 33.66) rotate(45)"/><polygon class="cls-1" points="66.75 112.14 45.05 90.44 118.43 17.07 157.19 0 140.12 38.76 66.75 112.14"/><path class="cls-1" d="m86.05,100.85h58.82v12.71c0,1.38-1.12,2.49-2.49,2.49h-53.83c-1.38,0-2.49-1.12-2.49-2.49v-12.71h0Z" transform="translate(-42.87 113.41) rotate(-45)"/><rect class="cls-1" x="125.53" y="110.93" width="16.21" height="31.41" transform="translate(-50.4 131.59) rotate(-45)"/><path class="cls-1" d="m140.61,137.21h22.41v12.47c0,1.51-1.23,2.74-2.74,2.74h-16.93c-1.51,0-2.74-1.23-2.74-2.74v-12.47h0Z" transform="translate(-57.93 149.76) rotate(-45)"/><g><polygon class="cls-1" points="45.76 17.07 7 0 24.07 38.76 58.3 73 80 51.3 45.76 17.07"/><rect class="cls-1" x="86.4" y="85.47" width="30.68" height="18.54" transform="translate(-37.19 99.68) rotate(-45)"/></g></svg>