<svg width="87" height="87" viewBox="0 0 87 87" fill="none" xmlns="http://www.w3.org/2000/svg">
<path d="M76.5 87H10.5V48.5H0V24.5H22.5C20.8333 22.1667 17.5 22 17.5 13C17.5 6.5 21.5 0 31 0C39 0 42.6667 5 43.5 7.5C44.6667 5 48.7 0 55.5 0C64 0 69.5 6.48217 69.5 13.5C69.5 20.5 66.3333 23.1667 64.5 24.5H87V48.5H76.5V87Z" fill="black" fill-opacity="0.5"/>
<path d="M55.7501 22.5C55.7501 22.5 46.9408 22.4413 47.0003 22.5C47.0003 22.5 47.0003 16.2623 47.0003 13.75C47.0003 8.91751 50.9177 5 55.7501 5C60.5826 5 64.5 8.91751 64.5 13.75C64.5 18.5825 60.5826 22.5 55.7501 22.5Z" fill="white"/>
<path d="M40 13.7499C40 13.7499 39.9413 22.5592 40 22.4997C40 22.4997 33.7623 22.4997 31.25 22.4997C26.4175 22.4997 22.5 18.5823 22.5 13.7499C22.5 8.91744 26.4175 5 31.25 5C36.0825 5 40 8.91744 40 13.7499Z" fill="white"/>
<path d="M5 29.5H40V43.5H5V29.5Z" fill="white"/>
<path d="M47 29.5H82V43.5H47V29.5Z" fill="white"/>
<path d="M47 50.5H71.5V82H47V50.5Z" fill="white"/>
<path d="M15.5 50.5H40V82H15.5V50.5Z" fill="white"/>
</svg>
