<?xml version="1.0" encoding="UTF-8"?><svg id="Layer_1" xmlns="http://www.w3.org/2000/svg" viewBox="0 0 177.67 161.22"><defs><style>.cls-1{fill:#fff;}</style></defs><path class="cls-1" d="m83.35,126.52c-9.58,0-17.35,7.77-17.35,17.35s7.77,17.35,17.35,17.35,17.35-7.77,17.35-17.35-7.77-17.35-17.35-17.35Z"/><path class="cls-1" d="m140.22,126.52c-9.58,0-17.35,7.77-17.35,17.35s7.77,17.35,17.35,17.35,17.35-7.77,17.35-17.35-7.77-17.35-17.35-17.35Z"/><path class="cls-1" d="m146.86,98.09c4.84,0,9.14-3.08,10.7-7.67l19.83-58.45c1.15-3.4-1.38-6.93-4.97-6.93H48.42l-5.76-21.2c-.62-2.29-2.72-3.77-4.99-3.74-.33-.07-.67-.1-1.02-.1H5.09C2.28,0,0,2.28,0,5.09s2.28,5.09,5.09,5.09h28.75l28.81,106.07c.65,2.4,2.92,3.92,5.32,3.73.08,0,.16.03.25.03h91.3c2.81,0,5.09-2.28,5.09-5.09s-2.28-5.09-5.09-5.09h-88.07l-3.19-11.74h78.6Z"/></svg>