<svg width="104" height="78" viewBox="0 0 104 78" fill="none" xmlns="http://www.w3.org/2000/svg">
<path d="M4.64942 11.8046C5.70836 11.5633 6.61602 11.8493 7.26561 12.2783L24.6446 75.6675L24.8582 75.6049L25.312 78H19.341L3.75956 18.0604C3.57269 16.5233 1.69509 12.4838 4.64942 11.8046ZM20.222 9.43637C26.0951 8.58737 36.5776 5.16122 42.3706 6.32301C55.7185 9.00407 57.169 11.7189 58.9488 13.0595L72.7134 49.5182L66.8561 15.4026C81.1 15.4026 87.2417 7.46226 94.85 0C94.85 0 99.8 20.241 77.985 33.6195C86.4209 42.5296 101.947 35.389 102 35.3443C102 48.3028 87.6496 60.2147 77.985 61.0933C71.5691 60.1728 68.0164 59.0431 56.4482 59.0431C46.7309 59.0431 30.9448 62.7984 25.3031 67.9371L9.99749 12.1442C11.4658 11.3935 13.726 10.6786 16.4312 10.1066L22.3488 24.4056L20.222 9.43637ZM37.8946 20.1338L32.7957 19.1418L31.105 24.066L26.2018 25.764L27.1896 30.8848L23.7903 34.826L27.1896 38.7672L26.2018 43.888L31.105 45.586L32.7957 50.5102L37.8946 49.5182L41.8189 52.9321L45.7432 49.5182L50.8421 50.5102L52.5328 45.586L57.436 43.888L56.4482 38.7672L58.0589 36.8994H48.5107V29.6516V27.5782H41.6854L49.9077 19.3205L45.7254 20.1338L41.8011 16.7199L37.8768 20.1338H37.8946ZM36.8624 43.5841H35.2161L41.9613 30.009H43.6075L36.8624 43.5841ZM43.5274 37.1228C45.1114 37.1228 46.4907 38.0969 46.4907 39.9736C46.4907 41.8414 45.1025 42.8245 43.5274 42.8245C41.9257 42.8245 40.5286 41.8504 40.5286 39.9736C40.5286 38.1058 41.9346 37.1228 43.5274 37.1228ZM43.5274 38.8297C42.7177 38.8297 42.3706 39.3749 42.3706 39.9736C42.3706 40.5724 42.7177 41.1176 43.5274 41.1176C44.3016 41.1176 44.6487 40.5724 44.6487 39.9736C44.6487 39.3749 44.3016 38.8297 43.5274 38.8297ZM35.2695 30.7687C36.8535 30.7687 38.2328 31.7428 38.2328 33.6195C38.2328 35.4873 36.8446 36.4704 35.2695 36.4704C33.6678 36.4704 32.2707 35.4963 32.2707 33.6195C32.2707 31.7517 33.6678 30.7687 35.2695 30.7687ZM50.0679 31.4657V35.3443H58.308V31.2066H50.0679V31.4657ZM35.2695 32.4845C34.4598 32.4845 34.1127 33.0297 34.1127 33.6285C34.1127 34.2272 34.4598 34.7724 35.2695 34.7724C36.0437 34.7724 36.3908 34.2272 36.3908 33.6285C36.3908 33.0297 36.0437 32.4845 35.2695 32.4845ZM51.2069 20.241L45.4228 26.05H50.059V29.6694V29.9286H58.2991V26.05H62.9353L54.4371 16.997L51.2069 20.241Z" fill="white"/>
</svg>
