<?xml version="1.0" encoding="UTF-8"?><svg id="Layer_1" xmlns="http://www.w3.org/2000/svg" viewBox="0 0 44.88 45.65"><defs><style>.cls-1{fill:#fff;}</style></defs><polygon class="cls-1" points="3.27 40.43 7.18 45.65 17.74 34.55 10.88 32.07 3.27 40.43"/><polygon class="cls-1" points="31.51 31.43 29.69 28.04 23.49 28.04 27.61 24.16 44.88 6 40.05 0 24.07 17.57 18.01 6.26 11.88 5.35 20.2 21.83 16.71 25.66 2.1 19.96 2.1 26.48 9.67 29.09 26.85 35.01 32.23 45.65 39.14 45.65 35.86 39.54 35.86 39.54 31.51 31.43"/><polygon class="cls-1" points="44.23 36.39 35.29 32.91 40.05 39.55 40.05 39.55 44.88 41.22 44.23 36.39"/></svg>