<?xml version="1.0" encoding="UTF-8"?><svg id="Layer_1" xmlns="http://www.w3.org/2000/svg" viewBox="0 0 99 66"><defs><style>.cls-1{fill:#fff;}</style></defs><polygon class="cls-1" points="77.9 48.58 83.72 49.23 83.72 49.22 85.17 49.38 84.45 46.5 92.45 46.5 92.45 45.05 84.08 45.05 83.72 43.6 72.07 43.6 72.07 47.94 77.9 48.58 77.9 48.58"/><polygon class="cls-1" points="28.39 44.89 34.21 44.24 40.03 43.6 40.03 39.27 28.39 39.27 28.02 40.72 19.66 40.72 19.66 42.16 27.66 42.16 26.93 45.05 28.39 44.89"/><polygon class="cls-1" points="85.44 50.1 83.71 50.1 77.89 50.1 72.79 50.1 69.88 52.27 68.17 52.27 65.52 52.27 47.99 52.27 65.52 49.05 65.52 40.71 58.96 40.71 58.96 40.69 47.47 40.69 58.96 38.18 58.96 33.49 52.34 33.49 52.28 0 35.35 3.19 31.08 24.88 29.86 11.18 22.51 16.74 18.82 34.14 28.29 32.36 31.33 26.22 48.26 23.03 48.28 33.49 45.86 33.49 40.77 45.77 37.31 45.77 34.21 45.77 28.39 45.77 27.69 45.77 20.38 45.77 16.01 54.44 0 54.44 4.37 66 88.08 66 99 50.1 85.44 50.1"/></svg>