<?xml version="1.0" encoding="UTF-8"?><svg id="Layer_1" xmlns="http://www.w3.org/2000/svg" xmlns:xlink="http://www.w3.org/1999/xlink" viewBox="0 0 82 68"><defs><style>.cls-1{fill:#fff;}.cls-2{fill:#010001;}.cls-3{fill:url(#linear-gradient);}.cls-4{fill-rule:evenodd;}</style><linearGradient id="linear-gradient" x1="18.78" y1="60.9" x2="62.45" y2="6.98" gradientTransform="translate(0 67.89) scale(1 -1)" gradientUnits="userSpaceOnUse"><stop offset="0" stop-color="#d9d9d9"/><stop offset="1" stop-color="#737373"/></linearGradient></defs><path class="cls-3" d="m12.58,5.42C15.12.51,21.15-1.42,26.06,1.12l49.76,25.69c4.91,2.53,6.83,8.57,4.3,13.47l-11.47,22.22c-2.53,4.91-8.57,6.83-13.47,4.3L5.42,41.1c-4.91-2.53-6.83-8.57-4.3-13.47L12.58,5.42Zm1.53,10.04c-1.93,0-3.5,1.57-3.5,3.5,0,1.93,1.57,3.5,3.5,3.5,1.93,0,3.5-1.57,3.5-3.5,0-1.93-1.57-3.5-3.5-3.5Z"/><rect class="cls-2" x="27.79" y="21.05" width="17.01" height="45.9" rx="4" ry="4" transform="translate(-19.45 56.07) rotate(-62.7)"/><path class="cls-1" d="m27.58,34.21l6.44,3.28-.71,1.39-4.92-2.5-1.3,2.55,4.52,2.3-.71,1.39-4.52-2.3-1.34,2.63,5,2.55-.71,1.39-6.52-3.32,4.76-9.36Zm4.17,13.9l-1.8-.92,5.95-3.05-.98-6.21,1.8.92.71,4.62,4.15-2.14,1.8.92-5.61,2.85,1.05,6.61-1.8-.92-.76-5.03-4.51,2.35Zm12.95-5.19l3.34,1.7c2.66,1.36,3.48,3.06,2.43,5.11-1.04,2.05-2.9,2.4-5.56,1.04l-1.82-.93-1.63,3.21-1.52-.78,4.76-9.36Zm2.91,7.02c.55-.03.99-.36,1.32-1,.32-.63.33-1.18.03-1.64-.29-.46-.8-.88-1.53-1.25l-1.9-.97-1.71,3.37,1.9.97c.73.37,1.37.54,1.91.52Z"/><path class="cls-4" d="m59.86,27.07l-5.24-2.54.84-1.73-.54-.26-.84,1.73-4.05-1.96,1.81-3.74-.49-1.95-1.83.83-1.81,3.74-4.05-1.96.84-1.73-.54-.26-.84,1.73-5.24-2.54c-.23,0-.45.06-.65.19s-.34.31-.43.52c-.22.47-.28,1-.17,1.5.11.51.38.96.77,1.3.95.92,6.18,5.72,6.18,5.72,0,0,.79.52.9.96.04.4.02.8-.08,1.19l-1.84,4.53s-3.1-.67-3.44-.55c-.34.12-.71.67-.58.91.13.24.79.38.79.38l6.57,3.18s.53.43.79.38c.27-.05.47-.68.35-1.02-.12-.34-2.56-2.36-2.56-2.36l2.41-4.25c.24-.32.54-.59.88-.8.41-.19,1.31.11,1.31.11,0,0,7.01,1.12,8.32,1.3.51.1,1.04.02,1.5-.21.46-.23.84-.6,1.08-1.07.11-.2.16-.43.14-.66-.02-.23-.11-.45-.25-.62Z"/></svg>