<?xml version="1.0" encoding="UTF-8"?><svg id="Layer_1" xmlns="http://www.w3.org/2000/svg" viewBox="0 0 117.78 105.44"><defs><style>.cls-1{fill:#fff;}.cls-2{fill:none;}.cls-3{fill:#383838;}</style></defs><g><path class="cls-2" d="m26.61,18.92s.06,0,.09-.01c-.06,0-.11,0-.17,0,.03,0,.05.01.08.01Z"/><path class="cls-2" d="m26.61,14.32s-.06,0-.09.01c.06,0,.11,0,.17,0-.03,0-.05-.01-.08-.01Z"/><path class="cls-2" d="m21.52,17.61s.06,0,.09-.01c-.06,0-.11,0-.17,0,.03,0,.05.01.08.01Z"/><path class="cls-2" d="m16.17,17.61s.06,0,.09-.01c-.06,0-.11,0-.17,0,.03,0,.05.01.08.01Z"/><path class="cls-2" d="m21.52,13.01s-.06,0-.09.01c.06,0,.11,0,.17,0-.03,0-.05-.01-.08-.01Z"/><path class="cls-2" d="m12.84,3.01s0,0,0,0c-.04-.02-.07-.05-.11-.07.04.02.07.05.11.07Z"/><path class="cls-2" d="m16.17,13.01s-.06,0-.09.01c.06,0,.11,0,.17,0-.03,0-.05-.01-.08-.01Z"/><path class="cls-2" d="m11.57,7.21c.07,0,.13,0,.2,0-.12.01-.23,0-.34,0,.05,0,.09.01.14.01Z"/><path class="cls-2" d="m11.13,18.92s.06,0,.09-.01c-.06,0-.11,0-.17,0,.03,0,.05.01.08.01Z"/><path class="cls-2" d="m11.13,14.32s-.06,0-.09.01c.06,0,.11,0,.17,0-.03,0-.05-.01-.08-.01Z"/><path class="cls-2" d="m5.91,18.92s.06,0,.09-.01c-.06,0-.11,0-.17,0,.03,0,.05.01.08.01Z"/><path class="cls-2" d="m7.03,14.62s.08.05.11.07c-.04-.02-.07-.05-.11-.07,0,0,0,0,0,0Z"/><path class="cls-2" d="m31.2,17.1s-.06,0-.09.01c.06,0,.11,0,.17,0-.03,0-.05-.01-.08-.01Z"/><path class="cls-2" d="m2.5,14.02s0,0,0,0c-.04-.02-.07-.05-.11-.07.04.02.07.05.11.07Z"/><path class="cls-2" d="m4.77,7.88c-.02-.09-.04-.17-.05-.26,0,.09.03.17.05.26,0,0,0,0,0,0Z"/><path class="cls-2" d="m31.21,21.7s.06,0,.09-.01c-.06,0-.11,0-.17,0,.03,0,.05.01.08.01Z"/><path class="cls-2" d="m35.62,19.84s-.06,0-.09.01c.06,0,.11,0,.17,0-.03,0-.05-.01-.08-.01Z"/><path class="cls-2" d="m6.81,5.13c.12-.01.23,0,.34,0-.05,0-.09-.01-.14-.01-.07,0-.14,0-.2,0Z"/><path class="cls-2" d="m35.62,24.44s.06,0,.09-.01c-.06,0-.11,0-.17,0,.03,0,.05.01.08.01Z"/><path class="cls-2" d="m11.58,2.61c-.07,0-.14,0-.2,0,.12-.01.23,0,.35,0-.05,0-.09-.01-.14-.01Z"/><path class="cls-2" d="m32.85,6.24s.08-.01.12-.01c-.06,0-.12.01-.18,0,.02,0,.04,0,.06,0Z"/><path class="cls-2" d="m32.86,1.65s-.08.01-.12.01c.06,0,.12-.01.18,0-.02,0-.04,0-.06,0Z"/><path class="cls-2" d="m27.77,5.09s.08-.01.12-.01c-.06,0-.12.01-.18,0,.02,0,.04,0,.06,0Z"/><path class="cls-2" d="m27.77.49s-.08.01-.12.01c.06,0,.12-.01.18,0-.02,0-.04,0-.06,0Z"/><path class="cls-2" d="m47.18,34.46c-1.58,0-2.94-.86-3.69-2.13.17.59.45,1.15.87,1.64,1.56,1.8,4.27,1.99,6.07.44,1.61-1.39,1.92-3.71.86-5.47.12.39.18.8.18,1.22,0,2.37-1.93,4.3-4.3,4.3Z"/><path class="cls-2" d="m37.89,4.29s.08,0,.11,0c-.03,0-.05-.01-.08-.01-.01,0-.02,0-.04,0Z"/><path class="cls-2" d="m26.32,1.01s0,0,0,0c.03-.02.06-.04.09-.06-.03.02-.06.04-.09.06Z"/><path class="cls-2" d="m20.56.74s.03-.04.05-.06c-.02.02-.04.03-.06.05,0,0,0,0,0,0Z"/><path class="cls-2" d="m18.74,4.9s.04-.03.06-.05c0,0,0,0,0,0-.02.02-.03.04-.05.06Z"/><path class="cls-2" d="m17.12,5.59c.13,0,.27-.01.39-.03-.14.02-.28.03-.42.03,0,0,.02,0,.02,0Z"/><path class="cls-2" d="m22.24,4.6c.13,0,.27-.01.39-.03-.14.02-.28.03-.42.03,0,0,.02,0,.02,0Z"/><path class="cls-2" d="m17.12.99c-.13,0-.26.01-.39.03.14-.02.28-.03.42-.03,0,0-.02,0-.02,0Z"/><path class="cls-2" d="m22.23,0c-.13,0-.26.01-.39.03.14-.02.28-.03.42-.03,0,0-.02,0-.02,0Z"/><path class="cls-2" d="m23.54,4.19c.05-.03.1-.07.15-.11,0,0,0,0,0,0-.05.04-.1.08-.15.11Z"/><path class="cls-1" d="m112.67,63.88l-39.94-46.17c-5.44-6.29-14.96-6.98-21.25-1.54l-1.03.89c.52.7.83,1.56.83,2.51,0,.8-.23,1.54-.62,2.18.77.78,1.25,1.85,1.25,3.03s-.46,2.18-1.19,2.96c.25.36.44.77.57,1.2,1.06,1.76.75,4.08-.86,5.47-1.8,1.56-4.52,1.36-6.07-.44-.43-.49-.71-1.05-.87-1.64-.38-.64-.61-1.37-.61-2.17,0-1.15.46-2.18,1.19-2.96-.47-.69-.75-1.53-.75-2.42,0-.73.2-1.4.52-2l-11.6,10.03c-6.29,5.44-6.98,14.96-1.54,21.25l39.94,46.17c5.44,6.29,14.96,6.98,21.25,1.54l19.24-16.64c6.29-5.44,6.98-14.96,1.54-21.25Z"/></g><g><path class="cls-3" d="m47.8,52.69l22.87-19.82,6.11,7.05c2.06,2.38,3.1,4.65,3.11,6.81,0,2.16-1.01,4.13-3.06,5.91-1.16,1.01-2.38,1.62-3.67,1.83-1.28.21-2.5.05-3.66-.51.59,1.28.69,2.58.28,3.9-.41,1.32-1.26,2.54-2.56,3.67-2.22,1.92-4.42,2.77-6.61,2.53s-4.28-1.51-6.28-3.81l-6.54-7.55Zm17.29-6.93l2.08,2.4c1.57,1.81,3.29,1.9,5.16.27,1.04-.9,1.6-1.75,1.69-2.56.09-.81-.27-1.68-1.09-2.62l-2.12-2.44-5.72,4.96Zm-3.36,2.91l-6.11,5.3,2.55,2.94c.71.82,1.51,1.23,2.4,1.21.88-.02,1.8-.43,2.74-1.25,2.05-1.78,2.46-3.43,1.23-4.96l-2.81-3.24Z"/><path class="cls-3" d="m75.43,68.32l-8.04,6.97-3.99-4.6,22.87-19.82,6.73,7.77c1.95,2.25,2.81,4.66,2.57,7.22-.24,2.56-1.48,4.81-3.72,6.75s-4.58,2.81-7.03,2.61c-2.45-.2-4.69-1.47-6.73-3.82l-2.66-3.07Zm3.85-3.34l2.74,3.16c.76.88,1.64,1.31,2.63,1.29.99-.02,2.04-.51,3.14-1.46s1.84-2.02,2.09-3.1c.25-1.08.02-2.03-.68-2.86l-2.78-3.21-7.13,6.18Z"/></g><g><circle class="cls-1" cx="47.31" cy="30.16" r="2.3"/><circle class="cls-1" cx="47.75" cy="24.78" r="2.3"/><circle class="cls-1" cx="47.12" cy="19.57" r="2.3"/><circle class="cls-1" cx="45.02" cy="14.8" r="2.3"/><circle class="cls-1" cx="41.96" cy="10.03" r="2.3"/><circle class="cls-1" cx="38.05" cy="6.59" r="2.3"/><circle class="cls-1" cx="32.98" cy="3.94" r="2.3"/><circle class="cls-1" cx="27.9" cy="2.79" r="2.3"/><circle class="cls-1" cx="22.36" cy="2.3" r="2.3"/><circle class="cls-1" cx="17.25" cy="3.29" r="2.3"/><circle class="cls-1" cx="11.7" cy="4.91" r="2.3"/><circle class="cls-1" cx="7.14" cy="7.42" r="2.3"/><circle class="cls-1" cx="3.74" cy="12.02" r="2.3"/><circle class="cls-1" cx="6.04" cy="16.62" r="2.3"/><circle class="cls-1" cx="11.26" cy="16.62" r="2.3"/><circle class="cls-1" cx="16.3" cy="15.31" r="2.3"/><circle class="cls-1" cx="21.65" cy="15.31" r="2.3"/><circle class="cls-1" cx="26.74" cy="16.62" r="2.3"/><circle class="cls-1" cx="31.34" cy="19.4" r="2.3"/><circle class="cls-1" cx="35.75" cy="22.14" r="2.3"/></g><circle class="cls-1" cx="40.22" cy="25.33" r="2.3"/></svg>