<?xml version="1.0" encoding="UTF-8"?><svg id="Layer_1" xmlns="http://www.w3.org/2000/svg" viewBox="0 0 218.39 203.97"><defs><style>.cls-1{fill:#fff;}</style></defs><path class="cls-1" d="m220.56,65.53s-6.36,33.88-36.1,60.05c-12.95,11.39-20.7,15.67-23.53,17.02,15.92-15.83,26.08-34.43,29.29-52.06l.3.27s23.38-54.79-12.2-76.53c-35.58-21.74-73.12-3.52-73.12-3.52,0,0,37.12-5.88,56.97,13.64,8.01,7.88,10.5,13.61,11.26,16.2-9.59-7.36-22.17-11.01-36.06-11.01-4.45,0-9.05.4-13.72,1.15l.41-.38s-55.38-3.18-93.3,39.03S.67,141.49.67,141.49c0,0,6.36-33.88,36.1-60.05,11.43-10.06,18.82-14.57,22.34-16.42-15.78,15.79-25.84,34.3-29.02,51.85l-.11-.1s-23.38,54.79,12.2,76.53c35.58,21.74,73.12,3.52,73.12,3.52,0,0-37.12,5.88-56.97-13.64-8.14-8-10.57-13.78-11.3-16.32,9.58,7.28,22.09,10.89,35.91,10.89,4.67,0,9.5-.44,14.4-1.26l-.19.17s55.38,3.18,93.3-39.03,30.09-72.11,30.09-72.11ZM52.85,147.47c-1.33-1.74-2.39-3.57-3.22-5.45-.56-7.42.84-19.33,11.13-32.89,14.83-19.54,39.53-31.02,39.53-31.02,0,0-24.29,2.53-47.94,27.46,6.06-13.7,16.89-27.08,30.57-37.54,5.47-4.18,11.23-7.78,17.11-10.75l12.58-4.36s5.46-1.94,17.55-.32c21.55,2.9,28.71,21.76,28.71,21.76,0,0,1.56-15.46-13.49-26.2,6.74,1,14.66,3.56,20.41,9.73,1.83,6.35,3.8,20.63-7.48,37.97-13.38,20.56-36.92,34.08-36.92,34.08,0,0,26.07-4.83,48.29-34.68.49-.66.95-1.31,1.4-1.97-.15.52-.3,1.02-.46,1.49-5.13,16.06-17.25,32.28-33.24,44.51-10.85,8.29-22.85,14.32-34.69,17.6-2.32-.03-5.09-.2-8.36-.64-21.55-2.9-28.72-21.76-28.72-21.76,0,0-1.45,14.33,11.88,24.98-7.84-.77-18.15-3.51-24.66-12.01Z"/></svg>