<?xml version="1.0" encoding="UTF-8"?><svg id="Layer_1" xmlns="http://www.w3.org/2000/svg" viewBox="0 0 60.1 56.62"><defs><style>.cls-1{fill:#fff;}</style></defs><path class="cls-1" d="m6.2,17.52c-1.43,2.54,2.7,7.59,9.41,11.75l-3.49-13.03c-2.95-.46-5.15-.07-5.91,1.28Z"/><path class="cls-1" d="m13.15,16.43l5.26,14.46c.7.37,1.4.72,2.09,1.04l-6.45-15.28c-.31-.08-.61-.15-.91-.21h0Z"/><path class="cls-1" d="m34.48,33.24c1.56-2.77-3.51-8.54-11.31-12.88-2.33-1.29-4.63-2.31-6.76-3.03l8.63,16.35c4.68,1.46,8.41,1.41,9.45-.44h0Z"/><path class="cls-1" d="m50.81,10.56l-33.25,5.3c1.45.53,2.95,1.17,4.44,1.91l28.81-7.22Z"/><path class="cls-1" d="m60.1,9.56l-30.01,13.33c1.22.98,2.32,2.01,3.24,3.04l26.78-16.37Z"/><path class="cls-1" d="m46.99,13.02l-22.11,6.3c1.08.63,2.14,1.31,3.15,2.02l18.96-8.32h0Z"/><path class="cls-1" d="m35.39,28.85c.93,1.8,1.14,3.56.3,5.11-.04.07-.09.15-.14.23l20.74-19.65-20.9,14.31h0Z"/><path class="cls-1" d="m16.48,32.24c-11.86-6.6-11.86-11.92-11.86-11.92l-2.02,3.59c.18.68.43,1.4.77,2.11,1.47,3.02,2.54,4.64,2.54,4.64,0,0-3.23-2.18-3.82-3.49-.15-.34-.36-.8-.6-1.3l-1.22,2.17c-1.56,2.77,3.51,8.54,11.31,12.88,7.81,4.34,15.4,5.61,16.96,2.84l4.34-7.72s-4.39,2.89-16.42-3.8h0Z"/></svg>