<svg width="41" height="56" viewBox="0 0 41 56" fill="none" xmlns="http://www.w3.org/2000/svg">
<g clip-path="url(#clip0_3982_35879)">
<path d="M-0.000133514 3.14517L12.0296 1.08398L16.1595 12.2466L11.3773 18.6538L20.9431 30.4376L11.78 43.5942L18.7649 55.419C14.3544 53.2817 -0.0220032 45.2534 -0.00141716 31.4025C-0.00141716 30.5619 -0.00141716 3.14517 -0.00141716 3.14517H-0.000133514Z" fill="white"/>
<path d="M26.0793 31.4675L16.9162 18.8825L24.1661 12.2473L21.71 0L40.0749 3.14587C40.0749 3.14587 40.0749 30.5641 40.0749 31.4032C40.0994 47.7626 20.0387 56 20.0374 56C20.0374 56 19.5923 55.8173 18.8358 55.4533L13.9956 43.4794L26.078 31.4675H26.0793Z" fill="white"/>
<path d="M18.9441 55.7211L18.767 55.4199C18.7901 55.4316 18.8145 55.4433 18.8363 55.4535L18.9441 55.7211Z" fill="white"/>
</g>
<defs>
<clipPath id="clip0_3982_35879">
<rect width="40.0749" height="56" fill="white" transform="matrix(-1 0 0 1 40.0749 0)"/>
</clipPath>
</defs>
</svg>
