<svg xmlns="http://www.w3.org/2000/svg" width="800" height="800" viewBox="0 0 800 800">
  <defs>
    <style>
      .cls-1 {
        fill: #fff;
        fill-rule: evenodd;
      }
    </style>
  </defs>
  <path id="bear_head" class="cls-1" d="M514.817,389.647c-11.214,0-24.181-11.271-22.567-11.271l43.92-38.767c7.624,5.169,12.5,13.044,12.5,21.859C548.667,377.02,533.5,389.647,514.817,389.647ZM314.008,378.376c1.614,0-11.353,11.271-22.567,11.271-18.681,0-33.85-12.627-33.85-28.179,0-10.372,6.746-19.443,16.781-24.334C278.085,335.324,314.008,378.376,314.008,378.376Zm260.886,94.832s-36.4-71.993-11.283-90.173c27.388-19.826,27.4-22.543,27.4-22.543h33.8S559.7,295.467,529.76,304.134s-67.7,56.358-67.7,56.358-40.8-47.006-33.852-78.9c7.533-34.594-11.282-67.63-11.282-67.63s-15.112-32.639,11.282-45.086-11.282-22.543-11.282-22.543l4.785-22.543S563.611,101.246,642.6,157.6c57.873,41.294,72.487,202.888,72.487,202.888,14.838,86.1,2.986,132.219-22.567,157.8-5.306-38.243-16.429-64.863-33.85-78.9-12.65,114.519-38.858,144.4-67.7,157.8ZM620.028,89.975S672.419,36.593,710.3,44.889,778,112.518,778,112.518l-45.134-11.272c16.621,18.785,22.088,37.573,22.567,56.358l-22.567,78.9C710.3,168.875,676.447,112.518,620.028,89.975Zm-440.06,0C123.55,112.518,89.7,168.875,67.132,236.5L44.565,157.6c3.142-24.693,11.357-42.947,22.567-56.358L22,112.518S51.821,53.183,89.7,44.889,179.968,89.975,179.968,89.975ZM225.1,484.48L209.034,597.2c-28.846-13.4-55.052-43.282-67.7-157.8-17.421,14.037-28.545,40.657-33.851,78.9-25.553-25.583-37.4-71.7-22.567-157.8,0,0,32.884-179.657,95.054-214.16,101.553-56.357,198.319-22.543,198.319-22.543l4.785,22.543s-37.679,10.1-11.283,22.543,11.283,45.086,11.283,45.086S364.257,247,371.789,281.591c6.945,31.895-33.851,78.9-33.851,78.9s-37.763-47.69-67.7-56.358-95.053,56.358-95.053,56.358h32.592s0.006,1.836,28.611,22.543C261.5,401.215,225.1,484.48,225.1,484.48Zm236.956,236.7v22.543L444.284,755H368.028l-18.806-10.832V721.182H462.058Zm28.681-158.135c-2.5-2.5-27.388-20.6-39.433-20.6H358.362c-12.045,0-36.929,18.1-39.433,20.6l-0.526,35,46.939,49.069H397.58l-14.508,51.527H360.505L296.028,676.1l-14.507-28.984v-115.7a75.555,75.555,0,0,1,14.265-44.181l72.779-100.975H441.1l72.779,100.975a75.555,75.555,0,0,1,14.265,44.181v115.7L513.64,676.1l-62.866,22.543H428.206l-16.117-51.527h32.237l46.939-49.069Z"/>
</svg>
