<?xml version="1.0" encoding="UTF-8"?><svg id="Layer_1" xmlns="http://www.w3.org/2000/svg" viewBox="0 0 96 60"><defs><style>.cls-1{fill:#fff;}</style></defs><path class="cls-1" d="m52.46,0c16.57,0,30,13.43,30,30s-13.43,30-30,30c-16.57,0-30-13.43-30-30S35.89,0,52.46,0Zm-9.2,3.77c-10.83,3.8-18.6,14.11-18.6,26.23,0,15.35,12.44,27.79,27.79,27.79,5.1,0,9.87-1.37,13.98-3.77-2.88,1.01-5.97,1.56-9.19,1.56-15.35,0-27.79-12.44-27.79-27.79,0-2.49.33-4.91.94-7.21.62,2.14,2.6,3.71,4.95,3.71,2.85,0,5.15-2.31,5.15-5.15,0-2.85-2.31-5.15-5.15-5.15-.96,0-1.85.26-2.62.72,2.43-4.55,6.09-8.34,10.54-10.94Zm4.59,31.94c-3.86,0-6.99,3.13-6.99,6.99,0,3.86,3.13,6.99,6.99,6.99,3.86,0,6.99-3.13,6.99-6.99,0-3.86-3.13-6.99-6.99-6.99Zm19.51,4.05c-2.24,0-4.05,1.81-4.05,4.05s1.81,4.05,4.05,4.05,4.05-1.81,4.05-4.05-1.81-4.05-4.05-4.05Zm-29.63-10.67c-1.73,0-3.13,1.4-3.13,3.13,0,1.73,1.4,3.13,3.13,3.13s3.13-1.4,3.13-3.13c0-1.73-1.4-3.13-3.13-3.13Zm32.95-13.62c-3.25,0-5.89,2.64-5.89,5.89s2.64,5.89,5.89,5.89c3.25,0,5.89-2.64,5.89-5.89s-2.64-5.89-5.89-5.89Zm-13.44.37c-1.73,0-3.13,1.4-3.13,3.13s1.4,3.13,3.13,3.13c1.73,0,3.13-1.4,3.13-3.13s-1.4-3.13-3.13-3.13Zm5.15-11.41c-1.32,0-2.39,1.07-2.39,2.39,0,1.32,1.07,2.39,2.39,2.39,1.32,0,2.39-1.07,2.39-2.39,0-1.32-1.07-2.39-2.39-2.39Z"/><path class="cls-1" d="m7.6,36.7c.95-.55,3.35,1.77,5.59,5.32,3.34-1.64,6.14-2.26,6.65-1.38.52.89-1.46,3.03-4.59,5.12,1.46,3.13,1.98,5.67,1.15,6.15-.84.48-2.78-1.24-4.75-4.06-3.44,1.72-6.35,2.39-6.87,1.49-.52-.9,1.48-3.05,4.64-5.15-1.95-3.71-2.76-6.94-1.81-7.49Z"/><path class="cls-1" d="m90.39,9.18c.47.22.03,2.16-.99,4.54,2.38,1.23,4.02,2.5,3.79,2.99-.23.48-2.25,0-4.7-1.06-1.23,2.37-2.5,4.02-2.98,3.79-.48-.23,0-2.26,1.06-4.71-2.29-1.2-3.85-2.43-3.63-2.9.23-.47,2.17-.03,4.54.99,1.2-2.29,2.43-3.86,2.9-3.63Z"/><path class="cls-1" d="m88.47,47.05c.18.29-.73,1.2-2.11,2.15.88,1.49,1.34,2.76,1.05,2.94-.29.18-1.24-.77-2.21-2.2-1.49.88-2.76,1.34-2.94,1.05-.18-.29.78-1.24,2.21-2.21-.84-1.45-1.27-2.66-.99-2.84.29-.18,1.2.73,2.15,2.11,1.45-.84,2.66-1.27,2.84-.99Z"/></svg>