<svg width="127" height="114" viewBox="0 0 127 114" fill="none" xmlns="http://www.w3.org/2000/svg">
<path d="M52.7669 53.8872C53.7974 53.6737 54.7283 53.1251 55.4142 52.3268C56.2124 51.6409 56.7611 50.7101 56.9746 49.6795C57.0297 49.2262 56.9984 48.7666 56.8822 48.325C56.7346 47.7608 56.4382 47.2465 56.0242 46.8357L44.7934 35.605L38.6923 41.7061L49.9231 52.9368C50.3338 53.3508 50.8481 53.6472 51.4123 53.7948C51.854 53.9109 52.3136 53.9423 52.7669 53.8872Z" fill="white"/>
<path d="M43.0303 33.8424L28.9356 19.7477C26.8117 17.9931 24.5554 16.405 22.187 14.9977C21.7632 14.7434 21.3332 14.4852 20.9029 14.2267L21.3039 13.8257C21.781 13.3486 22.049 12.7016 22.049 12.027C22.049 11.3523 21.781 10.7053 21.3039 10.2282L14.0757 3L6.00003 11.0756L13.2282 18.3039C13.4645 18.5401 13.7449 18.7275 14.0535 18.8553C14.3621 18.9831 14.6929 19.0489 15.027 19.0489C15.361 19.0489 15.6918 18.9831 16.0005 18.8553C16.3091 18.7275 16.5895 18.5401 16.8257 18.3039L17.3135 17.8161C17.572 18.2463 17.8302 18.6763 18.0846 19.1002C19.4919 21.4686 21.0799 23.7248 22.8345 25.8487L36.9292 39.9434L43.0303 33.8424ZM14.3216 16.1585L8.53042 10.7776L10.5204 8.89137L18.0765 16.2744L14.3216 16.1585Z" fill="white"/>
<path fill-rule="evenodd" clip-rule="evenodd" d="M116.021 46.811C111.864 45.9188 107.839 45.4588 103.905 45.3053C97.6603 45.068 91.7839 45.7651 86.2324 47.1406C82.4168 48.0883 78.7829 49.3729 75.3406 50.9375C73.0158 51.9964 70.784 53.19 68.625 54.4684C66.4417 55.7645 64.3338 57.1377 62.3297 58.6406C59.2734 60.9212 56.4403 63.4147 53.8889 66.1665C51.2944 68.9643 48.9833 71.9606 47.0103 75.1564C43.9665 80.0644 41.6809 85.3471 40.3656 90.9205C40.8781 85.0781 42.3694 79.3911 44.7851 74.0225C46.4053 70.4237 48.4485 67.0184 50.8437 63.8259C53.2473 60.6363 56.0143 57.6806 59.1219 55.0547C61.19 53.3058 63.4033 51.7005 65.771 50.2936C68.117 48.8966 70.6117 47.6876 73.2087 46.6681C77.0251 45.1685 81.0681 44.0641 85.2843 43.4319C88.3383 42.9712 91.4681 42.7515 94.6824 42.8017C101.569 42.909 108.705 44.1955 116.029 46.8138L116.021 46.811Z" fill="white"/>
<path d="M19.1624 33.2526C19.1624 33.2526 19.1624 33.1968 19.1624 33.1689H13.1221C13.1221 33.1689 13.1221 33.2247 13.1221 33.2526C13.1221 46.8945 24.1805 57.9529 37.8224 57.9529V51.9219C27.5353 51.9219 19.1624 43.549 19.1624 33.2619V33.2526Z" fill="white"/>
<path d="M37.8218 70.9908V64.9597C20.2956 64.9597 6.03105 50.6952 6.03105 33.1689H0C0 54.0592 16.9315 70.9908 37.8218 70.9908Z" fill="white"/>
<path d="M60.6598 37.7381C60.6598 37.7381 60.6598 37.7939 60.6598 37.8218L66.7002 37.8218C66.7002 37.8218 66.7002 37.766 66.7002 37.7381C66.7002 24.0963 55.6417 13.0378 41.9998 13.0378L41.9998 19.0688C52.287 19.0688 60.6598 27.4417 60.6598 37.7288L60.6598 37.7381Z" fill="white"/>
<path d="M42.0004 -7.12689e-05L42.0004 6.03098C59.5267 6.03098 73.7912 20.2955 73.7912 37.8218L79.8223 37.8218C79.8223 16.9315 62.8907 -6.94427e-05 42.0004 -7.12689e-05Z" fill="white"/>
<path d="M29.5 36L35 41.5L23.8711 42.5L29.5 36Z" fill="white"/>
<path d="M39 26.6289L44.5 32.1289L45.5 21L39 26.6289Z" fill="white"/>
<path d="M114.775 113.473H51.7065L34.2366 111.786C27.5094 111.786 22.0547 108.023 22.0547 101.302C22.0547 94.5807 27.5094 91.45 34.2366 91.45L51.046 89.6305L114.775 89.1309C121.502 89.1309 126.956 94.5807 126.956 101.302C126.956 108.023 121.502 113.473 114.775 113.473Z" fill="white"/>
<path d="M86.2611 77.1597H80.6502C76.9769 77.1597 73.999 80.1349 73.999 83.8049V86.9463C73.999 90.6163 76.9769 93.5915 80.6502 93.5915H86.2611C89.9344 93.5915 92.9123 90.6163 92.9123 86.9463V83.8049C92.9123 80.1349 89.9344 77.1597 86.2611 77.1597Z" fill="white"/>
<path d="M82.3403 58H81.127V80.879H82.3403V58Z" fill="white"/>
<path d="M20.2488 90.0815H11V112.52H20.2488V90.0815Z" fill="white"/>
<path d="M25.0664 98.7002H16.3135V103.979H25.0664V98.7002Z" fill="white"/>
</svg>
