<?xml version="1.0" encoding="UTF-8"?><svg id="Layer_1" xmlns="http://www.w3.org/2000/svg" viewBox="0 0 86.5 48.5"><defs><style>.cls-1{fill:#fff;}</style></defs><path class="cls-1" d="m79.9,13.7L42.3.6c-5.1-1.8-10.7.9-12.5,6l-.4.8c.5.2,1,.6,1.3,1.1.3.4.4.9.4,1.4.7.2,1.3.6,1.7,1.3.4.7.5,1.4.3,2.1.2.1.5.3.7.5,1.2.7,1.8,2.1,1.3,3.4-.5,1.4-2.1,2.2-3.6,1.7-.4-.1-.7-.3-1-.6-.4-.2-.7-.5-1-1-.4-.7-.5-1.4-.3-2.1-.5-.2-.9-.6-1.2-1.1-.3-.4-.4-.9-.4-1.3l-.48,1.38c-.41-.19-.9-.18-1.32.12-.7.4-1,1.3-.5,2,.11.33.46.56.86.64l-1.86,5.36c-1.7,5.1,1,10.7,6.1,12.5l37.7,13.2c5.1,1.7,10.7-1,12.5-6.1l5.4-15.7c1.7-5.1-1-10.7-6.1-12.5Zm-5.8,13.4c-.2.6-.6,1.2-1.2,1.5-.6.4-1.2.5-1.9.5-1.7,0-10.8-.5-10.8-.5,0,0-1.2-.3-1.7,0-.4.3-.7.7-1,1.1l-2.5,5.7s3.5,2.2,3.7,2.6c.2.4.1,1.2-.3,1.3-.4.1-1.1-.4-1.1-.4l-8.8-3.2c-.1,0-.9-.1-1.1-.4-.2-.2.1-1,.6-1.2.5-.2,4.5.2,4.5.2l1.7-6c.1-.5.1-1,0-1.5-.2-.5-1.3-1.1-1.3-1.1,0,0-7.3-5.4-8.6-6.4-.6-.3-1-.9-1.2-1.5-.2-.6-.2-1.3,0-1.9.1-.3.3-.5.5-.7.2-.2.5-.3.8-.3l7,2.5.8-2.3.7.3-.8,2.3,5.4,1.9,1.8-5,2.2-1.3.9,2.4-1.8,5,5.4,1.9.9-2.2.7.3-.8,2.3,7,2.5c.2.3.3.5.4.8.1.2,0,.5-.1.8Z"/><path class="cls-1" d="m30.7,16.7c.4.6,1.3.9,2.1.5.7-.4,1-1.3.5-2-.4-.7-1.3-1-2.1-.5-.7.4-1,1.3-.5,2Z"/><path class="cls-1" d="m29.7,11.5c-.7.4-1,1.3-.5,2,.4.7,1.3.9,2,.5s1-1.3.5-2c-.4-.7-1.3-1-2-.5Z"/><path class="cls-1" d="m27.2,10.7c.4.7,1.3,1,2,.5.7-.4,1-1.3.5-2-.4-.7-1.3-1-2-.5-.7.4-1,1.3-.5,2Z"/><path class="cls-1" d="m26.4,9.2c.7-.4,1-1.3.5-2-.4-.7-1.3-1-2-.5-.7.4-1,1.3-.5,2,.4.7,1.3,1,2,.5Z"/><path class="cls-1" d="m23.2,7.5c.7-.4,1-1.3.5-2s-1.3-1-2-.5-1,1.3-.5,2,1.2,1,2,.5Z"/><path class="cls-1" d="m19.8,6.9c.7-.4,1-1.3.5-2-.5-.7-1.3-1-2-.5-.7.4-1,1.3-.5,2,.5.7,1.3.9,2,.5Z"/><path class="cls-1" d="m16.1,7c.7-.4,1-1.3.5-2-.4-.7-1.3-1-2-.5-.7.5-1,1.3-.5,2,.4.7,1.3.9,2,.5Z"/><path class="cls-1" d="m12.9,8c.7-.4,1-1.3.5-2s-1.3-1-2.1-.5c-.7.4-1,1.3-.6,2,.5.7,1.4.9,2.2.5Z"/><path class="cls-1" d="m9.6,9.5c.7-.4,1-1.3.6-2-.4-.7-1.3-1-2.1-.5-.7.4-1,1.3-.6,2s1.4,1,2.1.5Z"/><path class="cls-1" d="m7,11.8c.7-.4,1-1.3.6-2-.4-.8-1.4-1.1-2.1-.6-.7.4-1,1.3-.6,2,.5.7,1.4,1,2.1.6Z"/><path class="cls-1" d="m4.4,14.5c.7-.4,1-1.3.6-2s-1.3-1-2.1-.5c-.7.4-1,1.3-.6,2,.5.7,1.4.9,2.1.5Z"/><path class="cls-1" d="m2.7,17.4c.7-.4,1-1.3.6-2-.4-.7-1.3-1-2.1-.5-.7.4-1,1.3-.6,2,.4.7,1.3.9,2.1.5Z"/><path class="cls-1" d="m2.8,19.1c-.4-.7-1.3-1-2.1-.5-.7.4-1,1.3-.6,2,.5.7,1.4.9,2.1.5.7-.4,1-1.3.6-2Z"/><path class="cls-1" d="m3.5,20.5c-.7.4-1,1.3-.6,2,.5.6,1.4.9,2.1.5s1-1.3.6-2c-.4-.7-1.3-1-2.1-.5Z"/><path class="cls-1" d="m6.5,18.8c-.7.4-1,1.3-.6,2,.4.6,1.4.9,2.1.5.7-.4,1-1.3.6-2-.4-.7-1.3-1-2.1-.5Z"/><path class="cls-1" d="m8.9,16.4c-.7.4-1,1.3-.6,2,.5.6,1.4.9,2.1.5.7-.4,1-1.3.6-2-.4-.7-1.3-1-2.1-.5Z"/><path class="cls-1" d="m11.9,14.6c-.7.4-1,1.3-.6,2,.5.7,1.4,1,2.1.5.7-.4,1-1.3.5-2-.4-.7-1.3-1-2-.5Z"/><path class="cls-1" d="m15.2,13.7c-.7.5-1,1.3-.5,2,.4.7,1.3.9,2,.5.7-.4,1-1.3.5-2-.4-.7-1.3-1-2-.5Z"/><path class="cls-1" d="m18.7,13.8c-.7.4-1,1.3-.5,2,.4.7,1.3.9,2,.5.7-.4,1-1.3.5-2-.4-.7-1.3-1-2-.5Z"/><path class="cls-1" d="m24.1,14.4c-.4-.7-1.3-1-2-.5-.7.4-1,1.3-.5,2,.4.7,1.3.9,2,.5.7-.4,1-1.3.5-2Z"/></svg>