<svg width="50" height="50" viewBox="0 0 50 50" fill="none" xmlns="http://www.w3.org/2000/svg">
<path d="M25 -5.46392e-07C38.8071 -8.48157e-07 50 11.1929 50 25C50 38.8071 38.8071 50 25 50C11.1929 50 -2.44628e-07 38.8071 -5.46392e-07 25C-8.48157e-07 11.1929 11.1929 -2.44628e-07 25 -5.46392e-07ZM25 46.4092C36.824 46.4092 46.4092 36.824 46.4092 25C46.4092 13.176 36.824 3.59075 25 3.59075C13.176 3.59075 3.59075 13.176 3.59075 25C3.59075 36.824 13.176 46.4092 25 46.4092Z" fill="white"/>
<path d="M11.3555 11.3552C18.9539 3.75701 31.2737 3.75686 38.8721 11.3552C46.4697 18.9535 46.4696 31.2726 38.8721 38.8708C31.2737 46.4692 18.9539 46.4691 11.3555 38.8708C3.75715 31.2724 3.7571 18.9536 11.3555 11.3552ZM10.4414 29.3201L20.6797 39.5583L22.1191 38.1189L11.8809 27.8796L10.4414 29.3201ZM27.7188 38.1189L29.1582 39.5583L39.3975 29.3201L37.957 27.8796L27.7188 38.1189ZM14.874 25.113L25.1123 35.3513L35.3516 25.113L25.1123 14.8748L14.874 25.113ZM10.4414 20.8406L11.8809 22.281L22.1191 12.0417L20.6797 10.6023L10.4414 20.8406ZM27.7188 12.0417L37.957 22.281L39.3975 20.8406L29.1582 10.6023L27.7188 12.0417Z" fill="white"/>
</svg>
