<svg xmlns="http://www.w3.org/2000/svg" width="800" height="800" viewBox="0 0 800 800">
  <defs>
    <style>
      .cls-1 {
        fill-rule: evenodd;
      }
    </style>
  </defs>
  <path id="flag_on_mountain" class="cls-1" d="M361.584,462.261L112.533,742.444l77.828,15.566,77.829-46.7,93.394,31.131,186.788-15.566L405.366,684.336l75.476-100.868-16.45-42.759-72.573,37.277L283.755,617.918ZM401.662,435.3L431.63,275.473H237.058l-46.7,62.263H81.4L159.23,150.948l93.394-46.7L237.058,259.907,330.453,26.422H525.024L447.986,437.288l89.237,94.557s68.025,22.15,69.726,24.748l50.383,76.891,60.979,120.468c1.871,4.191-6.5,19.623-10.65,19.623H93.335c-4.446,0-12.331-17.124-9.788-21.256,0,0,261.181-312.446,263.7-312.684C347.246,439.635,375.629,437.23,401.662,435.3Z"/>
</svg>
