<?xml version="1.0" encoding="UTF-8"?><svg id="Layer_1" xmlns="http://www.w3.org/2000/svg" viewBox="0 0 800 800"><defs><style>.cls-1{fill:#fff;}</style></defs><polygon class="cls-1" points="266.14 453.54 319.68 453.54 319.41 467.37 300.91 467.37 245.7 493.86 229.39 500.24 156.27 516.33 254.2 581.62 675.09 581.62 735.23 565.3 792.83 565.3 728.06 486.77 700.04 467.37 531.68 467.37 531.68 453.54 604.41 453.54 544.23 355.28 527.92 355.28 515.38 288.36 638.18 288.36 667.65 327.65 736.42 327.65 687.3 209.76 628.35 180.29 638.18 278.53 579.23 131.17 456.43 131.17 498.45 355.28 493.24 355.28 488.32 355.28 488.32 338.89 392.74 338.89 392.74 355.28 353.43 355.28 274.72 375.68 262.65 394.25 9.75 394.25 9.38 423.57 267.38 423.57 266.14 453.54"/><polygon class="cls-1" points="675.33 614.27 254.2 614.27 172.59 565.3 156.27 565.3 156.27 597.95 237.88 652.35 270.53 663.24 678.57 663.24 719.23 651.54 776.5 614.27 776.5 603.39 727.54 603.39 675.33 614.27"/></svg>