<?xml version="1.0" encoding="UTF-8"?>
<svg id="Layer_1" data-name="Layer 1" xmlns="http://www.w3.org/2000/svg" viewBox="0 0 73.09 78.65">
  <defs>
    <style>
      .cls-1 {
        fill: #fff;
        stroke-width: 0px;
      }
    </style>
  </defs>
  <path class="cls-1" d="m70.5,45.04l-9.95,5.49-6.99-4.16,8.81-7.92-8.31-6.2,7.07-4.08,9.39,5.27,2.55-4.55-6.69-3.75,5.57-3.22-2.61-4.52-6.01,3.47v-8.62h-5.22v11.63l-7.17,4.14-.52-10.22-11.23,2.84v-7.66l10.41-5.75-2.52-4.57-7.89,4.36V0h-5.22v6.98l-7.79-4.37-2.55,4.55,10.34,5.8v7.75l-11.42-2.89-.5,9.84-7.12-4.24v-11.15h-5.22v8.05l-5.6-3.33-2.67,4.48,5.59,3.32L.07,28.65l2.52,4.57,9.67-5.34,6.61,3.93-9.89,7.43,8.86,7.91-5.48,3.17-9.8-5.5-2.55,4.55,7.1,3.98-5.85,3.38,2.61,4.52,5.88-3.4v8.15h5.22v-11.16l5.72-3.3,3.89,10.8,9.43-5.7v8.55l-10.55,5.82,2.52,4.57,8.02-4.43v7.5h5.22v-7.29l7.66,4.29,2.55-4.55-10.21-5.72v-8.36l7.65,4.58,3.87-10.84,7.4,4.4v10.84h5.22v-7.73l5.73,3.41,2.67-4.48-5.99-3.56,7.27-4.02-2.52-4.57Zm-16.22-6.12l-5.3,4.73-7.21-4.29,7.39-4.27,5.12,3.82Zm-8.73-14.63l.34,6.67-6.67,3.85v-8.89l6.33-1.63Zm-18.07,0l6.53,1.68v8.77l-6.85-4.07.32-6.38Zm-10.39,15.39l6.63-4.98,7.73,4.6-8.96,5.17-5.41-4.79Zm8.08,9.27l8.84-5.1v6.7l-6.81,4.11-2.03-5.71Zm19.05,4.98l-5-3v-7.02l7.05,4.19-2.05,5.82Z"/>
</svg>