<?xml version="1.0" encoding="UTF-8"?><svg id="Layer_1" xmlns="http://www.w3.org/2000/svg" viewBox="0 0 43.01 47.05"><defs><style>.cls-1{fill:#fff;}</style></defs><path class="cls-1" d="m35.61,47.05H0s-1.17-6.65,1.08-8.8c2.25-2.15,8.9-4.5,8.9-4.5,0,0,3.13-1.23,3.13-2.33s-6.29-5.14-6.29-12.84c0-4.31,1.3-11.93,9.51-11.93s10.36,7.19,10.27,9.59c-.36,9.72-4.22,12.18-6.1,14.67-1.41,1.88,8.25,3.91,11.38,6.26,3.13,2.35,3.72,9.88,3.72,9.88Z"/><path class="cls-1" d="m16.92,3s13.04.72,13.04,12.41c-.52,8.25-5.27,15.53-5.27,15.53,0,0,7.54,2.12,10.91,5.01,3.62,3.11,4.06,8.79,4.06,8.79h3.34c0-3.47-.97-6.29-4.17-9.98-2.81-3.23-8.86-5-9.78-5.46,0,0,3.5-6.85,3.67-14.48C33.03,1.17,16.92,0,16.92,0v3Z"/></svg>