<svg width="63" height="64" viewBox="0 0 63 64" fill="none" xmlns="http://www.w3.org/2000/svg">
<path d="M18.8975 0C16.7526 2.74302 15.4747 6.19732 15.4746 9.94922C15.4747 16.5407 19.4209 22.2098 25.0791 24.7256C26.0282 23.6511 27.2418 22.816 28.6191 22.3242L27.2119 19.2715L31.6387 7.45898L36.0654 19.2715L34.6162 22.4141C35.9329 22.9287 37.09 23.7595 37.9961 24.8135C43.7627 22.3442 47.8036 16.6193 47.8037 9.94922C47.8036 6.28162 46.5818 2.89892 44.5234 0.186523C55.4219 5.14162 62.9999 16.1246 63 28.877C62.9999 40.8887 56.2754 51.3284 46.3867 56.6416C47.2968 54.6194 47.8037 52.3761 47.8037 50.0146C47.8036 43.5301 43.9847 37.9382 38.4736 35.3633C37.5937 36.5957 36.3967 37.5847 35 38.2109V63.3936H28V38.2109C26.6404 37.6013 25.4687 36.649 24.5957 35.4619C19.1971 38.0795 15.4748 43.6124 15.4746 50.0146C15.4746 52.4521 16.0154 54.7634 16.9814 56.8359C6.89189 51.5859 0.000149247 41.0371 0 28.877C0.000123742 15.9612 7.77395 4.86145 18.8975 0Z" fill="white"/>
</svg>
