<svg width="81" height="89" viewBox="0 0 81 89" fill="none" xmlns="http://www.w3.org/2000/svg">
<path d="M25.8622 38.3978L25.8054 38.3477L25.8053 38.3479C25.8051 38.3481 25.8046 38.3486 25.8042 38.349C25.8034 38.35 25.8022 38.3513 25.8006 38.3531C25.7975 38.3567 25.7928 38.362 25.7867 38.369C25.7743 38.3831 25.756 38.4042 25.7323 38.4318C25.6847 38.4869 25.6151 38.5685 25.5268 38.6746C25.35 38.8869 25.0979 39.1973 24.7963 39.5902C24.193 40.376 23.3912 41.4922 22.597 42.8141C21.0102 45.4552 19.4464 48.9293 19.5699 52.2338C19.6932 55.5327 20.7234 57.4933 22.0054 58.9053C22.6449 59.6096 23.3457 60.1758 24.0221 60.7019C24.3838 60.9833 24.7377 61.2528 25.0726 61.5259C25.7359 59.7722 26.3545 57.0958 26.426 54.7776C26.5493 50.782 26.1636 46.4488 26.1625 46.4367C26.1669 46.4471 28.1352 51.0976 27.9352 54.4723C27.7649 57.3458 27.3351 59.3651 26.6484 61.4453C28.2465 59.4651 30.6233 56.6908 31.3852 52.4874C31.9294 49.4853 30.5552 45.9458 29.0574 43.1689C28.3073 41.7781 27.5234 40.5739 26.9272 39.7174C26.6291 39.2891 26.3777 38.9475 26.2008 38.713C26.1124 38.5958 26.0427 38.5053 25.9949 38.444C25.9711 38.4134 25.9526 38.39 25.9402 38.3743C25.934 38.3665 25.9293 38.3605 25.9261 38.3565C25.9246 38.3545 25.9233 38.3531 25.9225 38.3521C25.9221 38.3516 25.9218 38.3511 25.9216 38.3508C25.9214 38.3507 25.9212 38.3506 25.9212 38.3506C25.9206 38.3509 25.9155 38.355 25.8622 38.3978ZM25.8056 38.3477L25.8622 38.3978L25.9211 38.3505L25.865 38.2806L25.8056 38.3477Z" fill="white"/>
<path d="M57.598 59.0249L57.6544 59.0755L57.6543 59.0758C57.6541 59.076 57.6537 59.0764 57.6533 59.0768C57.6526 59.0776 57.6514 59.0789 57.65 59.0806C57.647 59.0839 57.6423 59.0888 57.6364 59.0953C57.6247 59.1082 57.6072 59.1275 57.5841 59.1525C57.538 59.2026 57.4695 59.2759 57.3803 59.3693C57.202 59.5562 56.9407 59.8236 56.608 60.1458C55.9426 60.7901 54.9914 61.6541 53.8483 62.5331C51.5647 64.289 48.5041 66.1134 45.4204 66.3517C42.3423 66.5896 40.4101 65.8417 38.9608 64.8012C38.238 64.2822 37.6369 63.6915 37.076 63.1195C36.7756 62.8132 36.4873 62.5129 36.1977 62.2308C37.7554 61.4269 40.1776 60.565 42.3252 60.2507C46.0199 59.7099 50.0821 59.605 50.1 59.6045C50.0803 59.5987 45.5571 58.2709 42.4475 58.8166C39.7909 59.2827 37.9591 59.8991 36.096 60.7621C37.765 59.0664 40.0904 56.5547 43.9212 55.3956C46.6531 54.5691 50.0884 55.4678 52.8275 56.5623C54.1996 57.1106 55.4019 57.71 56.2612 58.1723C56.6908 58.4034 57.0348 58.6004 57.2716 58.7397C57.3899 58.8093 57.4816 58.8645 57.5437 58.9023C57.5747 58.9213 57.5983 58.9358 57.6142 58.9457C57.6221 58.9506 57.6281 58.9544 57.6322 58.9569C57.6342 58.9582 57.6358 58.9593 57.6369 58.9599L57.6384 58.9608C57.6384 58.9609 57.637 58.9631 57.598 59.0249ZM57.6546 59.0755L57.598 59.0249L57.6385 58.9609L57.7142 59.0086L57.6546 59.0755Z" fill="white"/>
<path d="M44.8457 37.4466C44.465 37.5942 44.0899 37.7892 43.6343 38.034C42.8035 41.6864 40.0161 51.5157 32.9832 57.9598C18.644 69.8309 5.92099 61.48 5.92099 61.48L8.24408 67.7023C8.2955 67.7149 20.3707 70.6718 31.8714 63.2227C39.3152 57.9111 43.3376 49.8827 45.3938 44.1414C45.158 43.3 45.0459 42.4811 45.0258 41.681C44.9983 40.5902 45.1367 39.5916 45.2637 38.7647C45.3603 38.1362 45.4418 37.6439 45.4868 37.1993L44.8457 37.4466Z" fill="white"/>
<path d="M52.997 18.4608C50.3852 21.9861 50.3025 26.9479 50.5876 28.9881C52.2661 28.5413 56.3046 26.8923 59.031 23.8703C61.7573 20.8483 61.4925 15.5862 61.0193 13.333C59.4335 13.5734 55.6089 14.9356 52.997 18.4608Z" fill="white"/>
<path d="M46.1073 30.9047C45.2982 32.1241 45.6308 33.7685 46.8502 34.5776C48.0696 35.3867 49.714 35.0541 50.5231 33.8347C51.3322 32.6153 50.9996 30.9709 49.7802 30.1618C48.5608 29.3527 46.9164 29.6853 46.1073 30.9047Z" fill="white"/>
<path d="M45.2618 11.1802C44.1995 12.3819 42.1389 15.8806 42.3965 20.2605C42.5898 23.5469 44.3959 26.5398 45.9301 28.4135C46.7111 27.944 47.6144 27.7162 48.5194 27.7559C48.4846 26.6736 48.5392 25.3602 48.763 23.9692C49.018 22.3847 49.5028 20.6197 50.3753 18.9552C49.7402 15.5005 46.8331 12.4184 45.2618 11.1802Z" fill="white"/>
<path d="M68.9745 26.9896C68.2801 28.4354 65.8572 31.6937 61.7215 33.1585C58.6183 34.2577 55.1589 33.7566 52.8361 33.0712C52.9651 32.1699 52.8244 31.2496 52.4368 30.4318C53.4474 30.0432 54.636 29.4817 55.8304 28.7351C57.1915 27.8843 58.6296 26.7514 59.8242 25.3002C63.254 24.5432 67.2231 26.0231 68.9745 26.9896Z" fill="white"/>
<path d="M31.8232 24.3453C29.5255 23.9863 27.3873 24.2501 25.2048 24.2468C26.0709 26.3848 27.0971 34.7026 32.9462 37.1771C38.4476 39.5043 41.0325 37.0259 43.641 35.8234C42.294 35.2343 40.6666 34.3708 39.0428 33.2259C36.7162 31.5854 34.2728 29.2903 32.708 26.2989C32.3678 25.6486 32.0762 24.9947 31.8232 24.3453ZM37.6795 26.8095C36.4748 25.9532 35.3347 25.3662 34.2414 24.9665C34.3097 25.1063 34.3794 25.2471 34.4525 25.3867L34.5167 25.509C36.51 29.2269 40.1267 31.8286 42.978 33.3219C41.911 31.2475 40.4078 28.7486 37.6795 26.8095Z" fill="white"/>
<path d="M40.7134 16.5087C38.0397 14.4117 34.8197 13.1485 32.9522 12.6693C32.3089 14.7217 31.7082 20.1386 34.4528 25.3859C36.6634 29.6122 40.9757 32.4188 43.9539 33.8079C43.5381 32.5166 43.6907 31.0552 44.4991 29.8369C44.5083 29.823 44.5189 29.8102 44.5283 29.7965C43.92 29.0675 43.2758 28.1917 42.6868 27.2022C41.5846 25.3503 40.5908 22.9824 40.4374 20.376C40.3565 18.9999 40.4741 17.7005 40.7134 16.5087ZM45.9383 31.2958C45.5988 32.0406 45.6298 32.883 45.9853 33.5865C46.0615 32.9921 46.1252 32.2852 46.1579 31.4966L45.9855 31.3412C45.9695 31.3267 45.9546 31.3107 45.9383 31.2958ZM42.4587 18.1016C42.3841 18.7908 42.3582 19.5128 42.4022 20.2604C42.5965 23.5623 44.4185 26.5674 45.9573 28.4394C46.0085 28.4085 46.0604 28.379 46.1126 28.3502C45.9604 26.13 45.5284 23.6611 44.5895 21.3496C44.0978 20.1392 43.3508 19.0583 42.4587 18.1016Z" fill="white"/>
<path d="M62.0675 44.4898C63.2913 46.4674 63.8791 48.54 64.7304 50.5497C62.4236 50.5827 54.3617 52.87 49.8087 48.4425C45.5263 44.278 46.8039 40.9333 46.8983 38.0625C47.9646 39.0747 49.3927 40.2386 51.0786 41.2898C53.4944 42.7961 56.559 44.1546 59.9236 44.4338C60.6551 44.4945 61.3707 44.5091 62.0675 44.4898ZM57.5211 40.0515C58.7785 40.829 59.7628 41.6514 60.5561 42.5037C60.4004 42.495 60.2436 42.485 60.0861 42.4719L59.9485 42.4603C55.7473 42.0685 51.9432 39.7473 49.4592 37.7002C51.7856 37.877 54.673 38.2907 57.5211 40.0515Z" fill="white"/>
<path d="M65.8393 33.2558C68.8095 34.9044 71.2236 37.3791 72.3907 38.9132C70.7495 40.3037 65.992 42.9624 60.0905 42.4727C55.3381 42.0783 51.0778 39.1958 48.6403 36.9918C49.9912 36.8726 51.2778 36.1643 52.0859 34.9464C52.0948 34.9331 52.1021 34.9188 52.1108 34.9054C53.0194 35.1828 54.0778 35.4351 55.2195 35.5934C57.3542 35.8893 59.9221 35.8848 62.3833 35.0131C63.6828 34.5528 64.8341 33.9396 65.8393 33.2558ZM50.1824 34.1873C49.6275 34.7902 48.8384 35.0888 48.0513 35.034C48.5695 34.7326 49.1968 34.3994 49.9112 34.0625L50.1238 34.1625C50.1428 34.1713 50.1629 34.1783 50.1824 34.1873ZM63.6961 32.2662C63.0893 32.6034 62.4331 32.9074 61.7262 33.1578C58.6083 34.2621 55.1309 33.752 52.808 33.0616C52.8168 33.0013 52.8234 32.9408 52.8298 32.8803C54.9342 32.1579 57.3766 31.5965 59.8707 31.5633C61.1786 31.5459 62.4665 31.8151 63.6961 32.2662Z" fill="white"/>
</svg>
