<svg xmlns="http://www.w3.org/2000/svg" width="62" height="55"><path d="M21.5 45.5c0-5.243 4.257-9.5 9.5-9.5s9.5 4.257 9.5 9.5S36.243 55 31 55s-9.5-4.257-9.5-9.5Z"/><path d="M31 21.7c6.25 0 14.719 3.206 20.3 11.6l-9.4 9.3c-2.813-5.248-6.525-7.9-10.9-7.9s-8.087 2.652-10.9 7.9l-9.4-9.3c5.581-8.394 14.05-11.6 20.3-11.6Z"/><path d="M31 7.3c10.625 0 23 5.169 30.8 15.9l-9.4 9C47.062 24.531 39.562 20.3 31 20.3S14.938 24.531 9.6 32.2l-9.4-9C8 12.469 20.375 7.3 31 7.3Z"/><path fill="#FFF" d="M24.5 45.5c0-3.587 2.913-6.5 6.5-6.5s6.5 2.913 6.5 6.5S34.587 52 31 52a6.504 6.504 0 0 1-6.5-6.5ZM31 24.7c-6.187 0-12.406 2.956-16.4 8.4l5 4.9c2.691-3.98 6.9-6.3 11.4-6.3s8.709 2.32 11.4 6.3l5-4.9c-3.994-5.444-10.212-8.4-16.4-8.4Z"/><path fill="#FFF" d="M31 10.3c9.875 0 19.969 4.599 26.7 12.6l-4.9 4.9C46.775 20.816 39.156 17.3 31 17.3S15.225 20.816 9.2 27.8l-4.9-4.9c6.731-8.001 16.825-12.6 26.7-12.6Z"/></svg>