<?xml version="1.0" encoding="UTF-8"?>
<svg id="Layer_1" data-name="Layer 1" xmlns="http://www.w3.org/2000/svg" viewBox="0 0 87 87">
  <defs>
    <style>
      .cls-1 {
        fill: #fff;
      }

      .cls-1, .cls-2 {
        fill-rule: evenodd;
      }

      .cls-2 {
        opacity: .5;
      }
    </style>
  </defs>
  <path class="cls-2" d="M27.46,67.34v-16.34l55.02-22c2.04-.85,2.03-3.74-.02-4.57L25.05,2.61c-1.56-1.61-3.73-2.61-6.14-2.61h-.89c-4.73,0-8.56,3.83-8.56,8.56v58.79c-2.99,1.73-5,4.96-5,8.66v1c0,5.52,4.48,10,10,10h8c5.52,0,10-4.48,10-10v-1c0-3.69-2.01-6.93-5-8.66Z"/>
  <path class="cls-1" d="M72.93,25.42c.7.27.71,1.27,0,1.55l-43.48,16.02V9.79l43.47,15.63ZM22.46,71V8.56c0-1.96-1.59-3.56-3.56-3.56h-.89c-1.96,0-3.56,1.59-3.56,3.56v62.44c-2.76,0-5,2.24-5,5v1c0,2.76,2.24,5,5,5h8c2.76,0,5-2.24,5-5v-1c0-2.76-2.24-5-5-5Z"/>
</svg>