<svg width="67" height="59" viewBox="0 0 67 59" fill="none" xmlns="http://www.w3.org/2000/svg">
<path d="M46.4346 41.3193L46.7217 40.9502L49.4424 41.7441L50.1895 44.9229L36.9902 53.501L42.8203 45.9805L31.7773 50.0986L43.9844 39.9697L46.4346 41.3193ZM63.7354 48.8447H52.7012V39.2939L56.5254 30.3721L52.7012 21.5752V11.9014H63.7354V48.8447ZM47.2402 23.6953C47.257 23.6967 48.3238 23.7889 49.6719 24.9561C50.9206 26.0365 52.7012 30.373 52.7012 30.373C52.6857 30.4107 50.9151 34.7147 49.6719 35.79C48.3247 36.9564 47.2583 37.0483 47.2402 37.0498H38.0605V23.6953H47.2402ZM36.4922 30.499L34.1426 33.2783L13 29.9561L34.6123 28.0029L36.4922 30.499ZM50.4717 17.2871L49.6826 20.0234L46.6143 20.7529L44.2119 22.4111L31.4951 13.126L44.0547 16.9385L37.9922 7.5L50.4717 17.2871Z" fill="#F9050C"/>
<path d="M34.1426 48.8184L42.8203 45.9814L38.0605 52.0928L50.1895 44.9238L49.4424 41.7451L46.7217 40.9512L46.4346 41.3203L43.9844 39.9707L34.1426 48.8184ZM63.7354 11.9023H52.7012V21.5762L56.5254 30.373L52.7012 39.2949V48.8457H63.7354V11.9023ZM14.5 29.5L34.1426 33.2793L36.4922 30.5L34.6123 28.0039L14.5 29.5ZM44.0547 16.9395L31.4951 13.127L44.2119 22.4121L46.6143 20.7539L49.6826 20.0244L50.4717 17.2881L37.9922 7.50098L44.0547 16.9395ZM38.0605 37.0508H47.2402C47.2583 37.0493 48.3247 36.9574 49.6719 35.791C50.9151 34.7157 52.6857 30.4117 52.7012 30.374C52.7012 30.374 50.9206 26.0375 49.6719 24.957C48.3238 23.7899 47.257 23.6977 47.2402 23.6963H38.0605V37.0508ZM66.7354 51.8457H49.7012V48.8184L29.8613 59L34.1426 51.8457L19 55L29.8613 47.791L39.1895 40.0508H35.0605V36.46L0 29L12.7305 26.9688L35.0605 24.9502V20.6963H36.7744L29.7256 15.5498L23.5 8.90234L37.123 11.6992L31.4951 0L39.8438 5.14062L49.7012 12.8711V8.90234H66.7354V51.8457Z" fill="black"/>
</svg>
