<?xml version="1.0" encoding="UTF-8"?><svg id="Layer_1" xmlns="http://www.w3.org/2000/svg" xmlns:xlink="http://www.w3.org/1999/xlink" viewBox="0 0 73.18 31.9"><defs><style>.cls-1{fill:#be963f;}.cls-2{fill:url(#linear-gradient);}.cls-3{fill:#f9e769;}.cls-4{fill:#7f1416;}</style><linearGradient id="linear-gradient" x1="36.79" y1="25.78" x2="36.77" y2="3.62" gradientUnits="userSpaceOnUse"><stop offset="0" stop-color="#bb903e"/><stop offset=".53" stop-color="#f9ea6c"/><stop offset="1" stop-color="#fffdea"/></linearGradient></defs><g><path class="cls-4" d="m67.76,9.98c2.62-2.7,4.04-7.12,4.04-7.12h-19.15l.56-1.86H19.96l.56,1.86H1.37s1.42,4.42,4.04,7.12c1.27,1.31,4.47,2.71,4.47,2.71h-4.79s3.73,5.78,6.85,7.97c7.63,5.36,20.74,4.12,20.74,4.12l3.91,5.4,3.91-5.4s13.11,1.24,20.74-4.12c3.12-2.19,6.85-7.97,6.85-7.97h-4.79s3.2-1.39,4.47-2.71Z"/><path d="m53.22,1l-.56,1.86h19.15s-1.42,4.42-4.04,7.12c-1.27,1.31-4.47,2.71-4.47,2.71h4.79s-3.73,5.78-6.85,7.97c-5.22,3.67-13,4.25-17.4,4.25-2.03,0-3.34-.12-3.34-.12l-3.91,5.4-3.91-5.4s-1.31.12-3.34.12c-4.4,0-12.18-.58-17.4-4.25-3.12-2.19-6.85-7.97-6.85-7.97h4.79s-3.2-1.39-4.47-2.71C2.79,7.28,1.37,2.86,1.37,2.86h19.15l-.56-1.86h33.26m1.35-1H18.61l.39,1.29.17.57H0l.42,1.31c.06.19,1.53,4.68,4.28,7.52.33.34.77.69,1.24,1.01h-2.69l.99,1.54c.16.24,3.87,5.97,7.11,8.25,5.48,3.86,13.61,4.43,17.97,4.43,1.28,0,2.28-.05,2.86-.08l3.59,4.95.81,1.12.81-1.12,3.59-4.95c.58.04,1.58.08,2.86.08,4.36,0,12.49-.58,17.97-4.43,3.24-2.28,6.96-8.01,7.11-8.25l.99-1.54h-2.69c.47-.32.91-.66,1.24-1.01,2.75-2.84,4.22-7.33,4.28-7.52l.42-1.31h-19.17l.17-.57.39-1.29h0Z"/></g><polygon class="cls-2" points="36.77 26.81 50.31 3.37 23.24 3.37 36.77 26.81"/><path class="cls-3" d="m21.33,5.23H4.5s2.32,2.96,4.7,4.83c4.99,3.91,16.48,2.75,16.48,2.75l-4.35-7.58Z"/><path class="cls-1" d="m26.71,14.32H9.88s2.32,2.96,4.7,4.83c4.99,3.91,16.58,2.91,16.58,2.91l-4.45-7.74Z"/><path class="cls-3" d="m52.53,5.23h16.83s-2.32,2.96-4.7,4.83c-4.99,3.91-16.48,2.75-16.48,2.75l4.35-7.58Z"/><path class="cls-1" d="m47.15,14.32h16.83s-2.32,2.96-4.7,4.83c-4.99,3.91-16.58,2.91-16.58,2.91l4.45-7.74Z"/></svg>