<?xml version="1.0" encoding="UTF-8"?><svg id="Layer_1" xmlns="http://www.w3.org/2000/svg" viewBox="0 0 138.44 178.01"><defs><style>.cls-1{fill:#fff;}.cls-2{fill:none;}</style></defs><path class="cls-2" d="m69.34,16.31s-12.52,11.35-24.26,16.04c-11.74,4.7-32.87,6.46-32.87,6.46l1.3,66.33s-1.83,13.57,18.65,37.17c13.9,16.02,36.59,23.09,36.59,23.09,0,0,13.89-4.7,34.24-19.57,20.35-14.87,22.3-41.48,22.3-41.48l.98-65.93s-24.07-2.93-34.89-7.24c-10.83-4.3-22.04-14.87-22.04-14.87Zm50.12,86.65s-1.75,23.85-19.99,37.18c-18.24,13.33-30.69,17.54-30.69,17.54,0,0-20.34-6.33-32.8-20.7-18.36-21.16-16.72-33.32-16.72-33.32l-1.17-59.46s18.94-1.58,29.47-5.79c10.52-4.21,21.75-14.38,21.75-14.38,0,0,10.06,9.47,19.76,13.33,9.71,3.86,31.28,6.49,31.28,6.49l-.88,59.11Z"/><path class="cls-1" d="m69.31,24.02s-11.22,10.17-21.75,14.38c-10.52,4.21-29.47,5.79-29.47,5.79l1.17,59.46s-1.64,12.16,16.72,33.32c12.46,14.36,32.8,20.7,32.8,20.7,0,0,12.45-4.21,30.69-17.54,18.24-13.33,19.99-37.18,19.99-37.18l.88-59.11s-21.57-2.63-31.28-6.49c-9.71-3.86-19.76-13.33-19.76-13.33Z"/><path class="cls-1" d="m127.73,26.5c-8.72-1.07-25.09-3.77-31.91-6.48-7.06-2.81-15.58-9.95-18.26-12.46L69.49,0l-8.21,7.41c-3.07,2.77-12.75,10.63-20.66,13.79-8.22,3.29-24.02,5.19-29.41,5.64l-11.21.94.22,11.25,1.29,65.78c-.28,5.24.92,21.51,21.6,45.35,15.95,18.39,41.02,26.35,42.08,26.68l3.72,1.16,3.69-1.25c.64-.22,15.89-5.47,37.48-21.24,24.55-17.94,27.1-48.97,27.19-50.29l.03-.35v-.35s.98-65.93.98-65.93l.16-10.78-10.71-1.31Zm-2.43,77.85s-1.96,26.61-22.3,41.48c-20.35,14.87-34.24,19.57-34.24,19.57,0,0-22.69-7.06-36.59-23.09-20.48-23.61-18.65-37.17-18.65-37.17l-1.3-66.33s21.13-1.76,32.87-6.46c11.74-4.7,24.26-16.04,24.26-16.04,0,0,11.22,10.57,22.04,14.87,10.83,4.3,34.89,7.24,34.89,7.24l-.98,65.93Z"/></svg>