<?xml version="1.0" encoding="UTF-8"?><svg id="Layer_1" xmlns="http://www.w3.org/2000/svg" viewBox="0 0 98 63"><defs><style>.cls-1,.cls-2{fill:#fff;}.cls-2{fill-rule:evenodd;}</style></defs><path class="cls-2" d="m54.1,39.17l-.82-1.69,7.96-4.72-.52-.94-8.01,4.42-1.03-2.21,5.79-3.4-.52-.96-8.48,4.62-.7-2.3,5.89-3.56-.53-.94-5.55,3.06-3.04-.34v-2.74h1.78v-4.15c-.82-.91-1.95-1.47-3.17-1.58v-3.74h3.38l2.72-1.81h-4.72v-1.1c-.82-.66-2.37-.9-3.19-.94v-3.82h-1.36v3.82c-.96.04-2.55.42-3.17.95v1.09h-4.7l3.1,1.81h2.97v3.71c-1.57.11-2.24.92-3.17,1.58v4.15h1.78v2.77h-5.72v1.78l11.69,3.62,7.07,7.07,6.52,1.9-2.26-5.43Z"/><path class="cls-1" d="m41.14,37.53l7.34,7.34,16.58,4.08-5.71,10.87H18.31c-.12-2.24-.72-5.23-3.26-15.22-2.99-11.75-5.44-14.04-6.25-15.77l-3.26,8.7c1.6,1.6,3.99,3.99,7.82,12.85-.48-.81-1-1.65-1.56-2.52-4.39-6.8-8.15-10.33-8.15-10.33l4.08-10.6,33.43,10.6Z"/><path class="cls-1" d="m76.31,1.49c2.66,0,5.04,1.12,6.65,2.88,1.15-.65,2.53-1.03,4-1.03,4.09,0,7.41,2.9,7.41,6.48,0,2.42-1.51,4.53-3.76,5.64,1.75,1.76,2.83,4.18,2.83,6.86,0,5.37-4.35,9.72-9.72,9.72-3.3,0-6.22-1.65-7.98-4.17-1.44,1.64-3.56,2.68-5.91,2.68-2.18,0-4.16-.89-5.58-2.33-.73.64-1.69,1.04-2.75,1.04-2.3,0-4.17-1.87-4.17-4.17s1.87-4.17,4.17-4.17c.22,0,.44.02.65.05.74-3.36,3.62-5.91,7.14-6.15-1.11-1.4-1.77-3.13-1.77-5.01,0-4.6,3.94-8.33,8.8-8.33Zm-17.07,23.56l1.47,2.95,14.07-8.88-15.54,5.93Zm11.67-.74l.91,1.82,8.7-5.49-9.61,3.67Z"/></svg>