<?xml version="1.0" encoding="UTF-8"?><svg id="Layer_1" xmlns="http://www.w3.org/2000/svg" viewBox="0 0 186.9 134.22"><defs><style>.cls-1{fill:#fff;}</style></defs><path class="cls-1" d="m184.16,51.89c-3.13.34-12.71,5.6-28.89,4.55-16.17-1.04-24-9.91-37.04-8.35-7.82.94-12.07,4.65-14.23,7.47-1.44,1.88-1.94,3.37-1.94,3.37,0,0-.11.12-.3.33-.16-.09-.3-.2-.47-.29-4.29-2.31-10.53-.87-16.06-.09.86-1.28,1.72-2.54,2.55-3.59,4.37-5.54,17.89-10.01,17.89-10.01,0,0,22.72-9.61,30.87-16.53s-10-3.42-10-3.42c0,0,15.58-6.88,17.86-13.55,2.28-6.67-13.49.77-13.49.77,0,0,10.56-5.49,11.71-10.06,1.15-4.57-12.73-1.46-12.73-1.46,0,0-50.96,13.6-58.31,20.6s1.37,15.35,1.37,15.35c0,0,.27,11.48,1.92,20.79-4.23-2.31-9.95-6.78-14.95-6.91l7.32-3.71s3.13-9.39-5.69-25.3-26.83-12-26.83-12c0,0-14.96-.26-27.1,10.09S1.49,47.16,1.49,47.16c0,0,3.15-.99,7.2-2.2.86,7.79,8.29,18.45,8.29,18.45l-3.39,4.94s1.04,4.98,9.65,4.98c6.35,0,19.09-4.97,25.33-7.57-1.08,3.29-1.82,6.71-1.54,9.4.05.45.11.9.19,1.37-5.05-.04-16.94.3-24.29,4.07-9.52,4.88-17.21,16.75-17.21,16.75l16.43,9.16s4.04-10.56,6.76-11.97c5.14-2.67,10.89-3.63,14.57-3.97-2.53,4.13-5.61,8.51-8.34,10.53-5.91,4.37-18.06,16.72-18.06,16.72l19.21,9.4s11.89-15.39,14.64-20.43c1.67-3.05,4.14-10.78,5.84-16.43,3.22,1.78,7.37,2.88,12.68,2.79,3.62-.06,7.27-.14,10.8-.37,2.92,3.17,8.95,10.19,11.65,16.78,3.63,8.86,6.77,24.65,6.77,24.65,0,0,4.28.06,8.49-5.26,4.21-5.32,6.83-9.89,6.83-9.89,0,0-5.82-14.92-10.44-21.91-1.54-2.33-3.75-5.15-6.01-7.88.23-.11.47-.23.69-.35l11.03,6.94s8.07,17.27,16.75,20.75c8.68,3.47,15,5.18,15,5.18,0,0,4.73-7.28,3.35-11.3-1.38-4.02-3.45-10.96-3.45-10.96,0,0-11.69-4.22-16.06-8.85-4.37-4.63-9.84-12.53-9.84-12.53,0,0-5.16.64-9.64.27,1.25-6.38,1.8-11.08.46-14.55,8.66-1.27,21.49.3,30.97,9.78,7.82,7.83,15.34,10.95,26.82,10.66,29.8-.77,23.67-32.76,20.54-32.43Z"/></svg>