<?xml version="1.0" encoding="UTF-8"?><svg id="Layer_1" xmlns="http://www.w3.org/2000/svg" viewBox="0 0 77 78"><defs><style>.cls-1{fill:#fff;}</style></defs><path class="cls-1" d="m76.62,54.12c0,11.79-9.56,21.35-21.35,21.35s-21.35-9.56-21.35-21.35,9.56-21.35,21.35-21.35,21.35,9.56,21.35,21.35Z"/><path class="cls-1" d="m29.99,2.79c15.32,0,27.95,11.49,29.76,26.31-1.45-.26-2.95-.39-4.48-.39-14.03,0-25.41,11.38-25.41,25.41,0,3.02.53,5.92,1.5,8.61-.45.02-.91.03-1.37.03C13.43,62.76,0,49.33,0,32.77,0,16.21,13.43,2.79,29.99,2.79Zm25.29,29.99c1.61,0,3.18.18,4.69.52-.24,14.44-10.69,26.39-24.44,28.95-1.03-2.5-1.6-5.25-1.6-8.13,0-11.79,9.56-21.35,21.35-21.35Z"/><path class="cls-1" d="m55.27,32.77c1.61,0,3.18.18,4.7.52-.1,5.6-1.73,10.82-4.49,15.27-1.55.31-3.14.47-4.78.47-5.39,0-10.36-1.76-14.39-4.73,3.55-6.85,10.71-11.54,18.96-11.54Zm8.22,1.64c2.58,1.08,4.91,2.65,6.86,4.6-2.54,3.5-5.99,6.29-10,8.03,1.82-3.86,2.92-8.13,3.14-12.63ZM38.24,3.94c11.41,3.26,20.03,13.11,21.51,25.16-1.45-.26-2.95-.39-4.48-.39-9.47,0-17.72,5.18-22.1,12.85-4.18-4.36-6.75-10.28-6.75-16.79,0-8.85,4.74-16.59,11.81-20.83Zm12.46-3.44c13.4,0,24.27,10.87,24.27,24.27,0,3.83-.89,7.45-2.47,10.67-2.59-2.39-5.67-4.24-9.08-5.4-1.03-12.78-9.22-23.53-20.55-28.25,2.46-.84,5.09-1.29,7.83-1.29Z"/><path class="cls-1" d="m13.23,61.84c4.93,2.85,10.65,4.48,16.76,4.48.98,0,1.96-.05,2.92-.13,1.46,2.7,3.4,5.11,5.7,7.11-2.7,2.6-6.36,4.2-10.4,4.2-8.28,0-14.99-6.71-14.99-14.99,0-.22,0-.45.01-.67Zm29.93,1.79c-.17,2.35-.89,4.55-2.03,6.48-1.51-1.33-2.82-2.87-3.9-4.58,2.05-.45,4.04-1.09,5.93-1.9Zm-14.95-16.12c.84,0,1.66.07,2.46.2-.53,2.04-.81,4.19-.81,6.4,0,3.02.53,5.92,1.5,8.61-.45.02-.91.04-1.37.04-5.93,0-11.45-1.72-16.11-4.69,1.89-6.12,7.59-10.56,14.33-10.56Zm6.35,1.41c4.32,2.03,7.52,6.06,8.4,10.89-2.33,1.12-4.82,1.94-7.43,2.43-1.03-2.51-1.6-5.25-1.6-8.13,0-1.79.22-3.53.64-5.19Z"/></svg>