<svg width="88" height="107" viewBox="0 0 88 107" fill="none" xmlns="http://www.w3.org/2000/svg">
<path d="M18 6V53L82 29.2099L18 6Z" fill="white"/>
<path fill-rule="evenodd" clip-rule="evenodd" d="M16 55.8764V3.14648L87.8024 29.1859L16 55.8764ZM18 52.9992L82 29.2091L18 5.99925V52.9992Z" fill="black"/>
<path fill-rule="evenodd" clip-rule="evenodd" d="M12.5 2C10.567 2 9 3.567 9 5.5V98.0281C9 98.0375 9.00004 98.0468 9.00011 98.0562H5.47191C3.55443 98.0562 2 99.6106 2 101.528C2 103.446 3.55443 105 5.47191 105H19.5281C21.4456 105 23 103.446 23 101.528C23 99.6106 21.4456 98.0562 19.5281 98.0562H15.9999C16 98.0468 16 98.0375 16 98.0281V5.5C16 3.567 14.433 2 12.5 2Z" fill="white"/>
<path fill-rule="evenodd" clip-rule="evenodd" d="M7 5.5C7 2.46244 9.46243 0 12.5 0C15.5376 0 18 2.46243 18 5.5V96.0562H19.5281C22.5501 96.0562 25 98.506 25 101.528C25 104.55 22.5501 107 19.5281 107H5.47191C2.44986 107 0 104.55 0 101.528C0 98.506 2.44986 96.0562 5.47191 96.0562H7V5.5ZM9 5.5C9 3.567 10.567 2 12.5 2C14.433 2 16 3.567 16 5.5V98.0281L15.9999 98.0562H19.5281C21.4456 98.0562 23 99.6106 23 101.528C23 103.446 21.4456 105 19.5281 105H5.47191C3.55443 105 2 103.446 2 101.528C2 99.6106 3.55443 98.0562 5.47191 98.0562H9.00011L9 98.0281V5.5Z" fill="black"/>
</svg>
