<svg xmlns="http://www.w3.org/2000/svg" width="800" height="800" viewBox="0 0 800 800">
  <defs>
    <style>
      .cls-1 {
        fill: #fff;
        fill-rule: evenodd;
      }
    </style>
  </defs>
  <path id="scorpion" class="cls-1" d="M67.389,478.172c-0.69-2.309.49-5.838,11.939-8.386,18.312-4.075,95.032-38.684,110.27-45.343,10.8-4.722,23.781,7.5,30.417,15.021,2.723,3.083,1.248,7.126-4.552,9.823a309.682,309.682,0,0,1-57.707,19.768C117.76,478.6,67.809,479.578,67.389,478.172ZM34.544,409.479s-8.626-1.471,15.162-12.054c41.911-18.646,110.177-33.931,117.813-48.254,14.674-27.525,42.137-44.079,100.851-38.415,27.452,2.647,65.517,41.073,15.024,82.088-46.625,37.872-74.622,8.865-101.266,5.125-13.393-1.881-89.452,8.14-126.371,13.229A47.33,47.33,0,0,1,34.544,409.479ZM142.3,771.646c-0.736-2.8,1.216-6.8,17.214-8.422,25.588-2.594,134.42-34.059,156.017-40.057,15.313-4.252,32.04,11.663,40.478,21.285,3.463,3.948,1.056,8.522-7.178,10.994a476.262,476.262,0,0,1-81.28,16.31C211.6,778.174,142.747,773.346,142.3,771.646Zm-38.838-84.622s-12.147-3.761,21.992-12.343c40.841-10.266,163.852-28.082,182.065-34.3,24.5-8.362,20-37.766,105.3-40.173,82.956-2.34,106.452,78.162,33.131,120.292-67.7,38.9-51.815-26.223-138.243-29.326-18.652-.67-123.9-1.149-175.2.408A76.207,76.207,0,0,1,103.461,687.024ZM726.981,463.7c7.052,7.866,5.684,28.409,4.932,33.793-3.132,22.44-23.578,50.683-23.578,50.683-2.507,3.969-7.607,6-11.383,4.535s-4.8-5.881-2.294-9.85c0,0,12.288-23.829,11.051-40.491-0.3-4.079-3.673-7.837-7.814-11.563C717.766,488.758,722.5,458.7,726.981,463.7Zm-72.719,96.535c6.691,11.374,3.558,34.681,2.327,40.665-5.129,24.928-28.771,50.965-28.771,50.965a8.776,8.776,0,0,1-12.234,1.558,8.6,8.6,0,0,1-1.572-12.13s14.781-23.572,14.878-43.236c0.023-4.813-3.174-10.248-7.18-15.9C642.58,586.222,650.007,553,654.262,560.233ZM517.5,294.486c-5.937-12.357,13.436-12.933,21.032-10.164,6.8,2.48,15.922,12.984,14.922,21.348,0.075,8.922-2.986,17.151-9.949,24.517,0,0-15.317,10.572-20.695,8.754-4.105-1.389,1.472-13.422.181-25.579A57.412,57.412,0,0,0,517.5,294.486Zm-49.972,3.067c1.771,7.422-.75,15.559-4.677,22.912-3.633,6.8-8.948,12.557-12.223,17.2-3.5,5.668,1.053,18.715-5.706,19.7-11.375,1.657-18.223-12.374-21.34-25.661-3.7-15.77-4.119-33.694,6.265-38.627C436.875,289.737,464.246,283.789,467.529,297.553ZM342.7,314.447c19.037-21.538,53.409-11.847,42.492,21.275-1.272,3.859-1.345,3.851-9.213,12.474-6.31,6.912-14.425,19.934-11.048,39.075,0.639,3.618-2.466,5.081-5.943,5.614-8.772,1.345-10.121-5.271-10.121-5.271l-12.26-36.576S327.188,332.747,342.7,314.447ZM564.39,606.623c3.482,24.176-14.221,42.972-31.2,44.875-12.161,1.363-28.245-8.226-27.3-26.157,0,0,5.976-59.282-62.842-68.892-8.27-1.156-3-7.151,5.665-11.212,6.636-3.11,15.262-5.087,21.324-2.89l61.122,25.008C542.566,570.7,560.775,588.3,564.39,606.623ZM642.034,475c-10.35-1.161-22.337-6.488-35.851-1.548-10.6,4.819-17.178,2.482-17.47,2.181-1.685-1.733,1.37-5.37,5.119-9.235a40.594,40.594,0,0,1,17.7-10.616c28.85-8.671,71.946-20.579,71.946-20.579,15.116-1.23,25.66,7.119,23.53,18.633s-16.134,21.861-31.252,23.091A318.617,318.617,0,0,1,642.034,475Zm-112.74,31.375c-8.116-4.65-2.733-8,4.086-11.092,13.867-6.288,28.011-.776,37.768,5.568,24.686,8.015,41.646,3.219,57.261,9.4,14.625,6.984,21.621,22.044,15.616,33.609s-22.755,15.282-37.38,8.3c-18.147-13.54-46.4-36.671-56.662-40.992C546.722,509.61,535.166,511.127,529.294,506.372Zm-200.3-44.737c-16.395-18.156,61.274-63.878,70.86-67.417,42.466-15.668,89.346-22.53,95.906-24.256,35.862-9.431,75.685-23.554,109.741-26.39,19.053-1.586,48.306.806,65.424,12.243,14.294,9.549,20.124,25.407,4.478,50.522-7.637,12.262-57.237,31.11-67.531,30.75-9.032-.315-18.42.141-23.419,1.7-14.473,4.513-15.1,36.787-28.682,43.608-15.207,7.64-43.03-9.956-52.584-.946-9.71,9.154-7.345,35.541-17.21,42.659-12.047,8.691-37.755-5.456-43.024-2.845-23.108,11.457-40.825,3.528-43.022-1.895C387.535,488.794,353.007,488.232,328.991,461.635Zm51,92.435c-9.7,7.957-39.257,18.855-66.026,3.452,26.038-8.417,31.835-18.78,33.544-27.5,1.612-8.222,8.2-14.04,16.086-16.338C395.3,517.983,398.015,539.293,379.993,554.07Zm-74.429-87.352c13.1-10.8,32.632,7.834,27.438,30.845-4.73,20.95-12.03,15.17-17.317,15.29-14.755.333-25.7,11.147-34.763,27.165C279.709,509.354,285.466,483.3,305.564,466.718ZM728.4,246.761c9.937-2.4,26.105,15.129,26.191,18.8,0.4,17.134-7.469,36.575-18.075,54.825-9.563,16.459-21.353,31.947-31.312,43.895-1.882,2.259-3.149,1.908-4.718-.075-5.63-7.114-15.134-35.224-70.843-39-2.946-2.3-4.026-7.668-3.8-14.681,0.674-21.006,13.054-56.774,22.008-69.055C649.542,239.143,675.483,265,728.4,246.761ZM439.7,155.839a48.544,48.544,0,0,1-36.71-4.788c-23.122-13.251-30.1-46-16.742-68.946s46.647-36.165,69.768-22.916c16.388,9.392,26.993,23.731,25.946,41.3,35.4,32.794,39.573,116.462-5.456,137.067C510.822,205.235,476.977,143.306,439.7,155.839Zm235.052-6.213c3.791-4.612,29.737-17.937,47.11-24.2,20.1-7.246,27.893,8.308,30.878,13.052,14.147,22.469,14.2,34.757,14.167,47.313,1.727,12.63-22.3,43.822-31.237,45.659-26.4,5.426-51.282,3.934-69.891-13.695-8.2-7.688-6.127-24.373-5.976-35.568C660.163,171.339,666.821,159.278,674.748,149.626ZM596.729,32.1c32.811,6.682,63.738,17.632,82.061,31.453,11.979,9.036,20.044,21.853,16.863,29.7-3.318,8.184-25.793,22.328-42.207,31.8-29.871-4.451-45.21-11.083-65.353-37.726a44.669,44.669,0,0,1-6.526-12.022C593.187,64.506,598.49,43.557,596.729,32.1ZM571.492,42.962c0.879,6.553-4.145,23.319-22.845,29.246-16.415,4.549-34.205,3.7-40.458,1.623-6.855-2.28-3.42-10.361-10.6-18.774,0,0-29.208-10.773-27.757-21.613,0.88-6.568,12.171-7.8,36.519-7.421,22.143-.128,23.536-2.384,51.3.25C566.263,30.042,570.555,35.978,571.492,42.962Z"/>
</svg>
