<?xml version="1.0" encoding="UTF-8"?><svg id="Layer_1" xmlns="http://www.w3.org/2000/svg" viewBox="0 0 351.12 313.6"><defs><style>.cls-1{fill:#fff;}</style></defs><path class="cls-1" d="m257.16,183.04l-34.84-3.17-51.01-6.86-18.74-2.11s-11.35-1.98-10.56-9.97c.79-7.98,2.38-10.88,2.38-10.88,0,0,2.9-7.65,6.07-10.82,3.17-3.17,7.92-6.6,7.92-6.6,0,0,9.5,6.33,10.56,10.82,1.06,4.49,3.69,9.5,7.39,11.08s66.32-3.69,66.32-3.69l9.5-3.96,13.46.53,10.56,6.33,45.66.53,15.57,1.32s1.06-11.88,1.32-14.78,3.48-13.46,3.48-13.46c0,0-.48,11.61,0,15.84.48,4.22,0,13.99,0,13.99,0,0,8.93,3.96,8.93,5.54s-6.33,5.54-6.33,5.54c0,0-.26,12.14-.79,14.78-.53,2.64-2.97,14.52-2.97,14.52,0,0-3.1-14.52-2.83-16.1s1.06-11.61,1.06-11.61c0,0-6.83,6.07-8.82,6.86s-12.4,3.69-12.4,3.69v3.43s-13.35,1.06-13.35,1.06l-17.42.53-.53,3.43s-20.06-1.32-22.7-1.85-6.86-3.96-6.86-3.96Z"/><path class="cls-1" d="m9.55,165.28l-1.15,1.52v3.04c.92.67,2.31,1.69,4,2.91,18.04,13.06,27.31,19.17,34.71,23.82,16.13,10.14,53.92,19.1,53.92,19.1,0,0,7.83,3.02,11.51,0,0,0-2.94-3.06-7.19-5.94,4.91-4.95,16.44-18.96,18.25-42.93,1.65-21.9-9.54-37.49-16.04-44.58,4.35-4.76,7.63-10.12,4.98-13.21-2.77-3.23-8.66,1.38-9.4,3.23s-36.22,14.75-45.44,19.35c-9.22,4.61-49.31,27.47-49.31,31.34,0,1.04.47,1.8,1.15,2.35Zm6.96.26c6.44-4.83,18.5-12.86,43.96-25.66,10.93-5.5,28.88-8.17,38.93-12.62,1.18,1.79,2.51,3.87,3.87,6.12-6.18,4-15.62,12.83-14.68,29.07.89,15.41,10.95,23.39,18.01,27.13-2.14,6.95-4.32,13.37-5.75,17.5-6.86-3.26-20.09-4.06-43.6-14.66-21.74-9.8-38.25-25.62-38.25-25.62l-2.49-1.26Z"/></svg>