<?xml version="1.0" encoding="UTF-8"?><svg id="Layer_1" xmlns="http://www.w3.org/2000/svg" viewBox="0 0 86.5 48.5"><defs><style>.cls-1{fill:#fff;}</style></defs><path class="cls-1" d="m79.39,13.58L42.15,1.01c-5.09-1.7-10.58,1-12.28,6.09l-.4.8c.5.2,1,.6,1.3,1.1.3.4.4.9.4,1.4.7.2,1.3.6,1.7,1.3.4.6.5,1.3.3,2,.2.1.5.3.7.5,1.1.6,1.7,2,1.3,3.29-.5,1.5-2,2.29-3.49,1.8-.4-.1-.7-.3-1-.6-.4-.2-.7-.6-1-1-.4-.6-.5-1.3-.3-2-.5-.2-.9-.6-1.2-1.1-.3-.4-.4-.9-.4-1.3l-.47,1.38c-.43-.23-.97-.25-1.43.02-.7.4-.9,1.3-.5,2,.22.39.6.6,1.01.67l-1.81,5.32c-1.7,5.09,1,10.57,6.09,12.27l37.34,12.57c5.09,1.7,10.58-1,12.28-6.09l5.19-15.56c1.7-5.09-1-10.57-6.09-12.27Zm-15.78,20.95l-5.99,3.59c-.1,0-.2.1-.2.2-.1.3-.2.6-.3.9l-10.88-3.99c0-.3.1-.5.2-.7.1-.1.1-.3,0-.4-.2-.3-.3-.7-.4-1-.8-2.19-1.5-4.29-2.3-6.48q-.1-.1,0-.1c1.1.1,2.3.1,3.49,0,1.9-.1,3.79-.3,5.69-.4h1.5c.7,0,1.4.2,2,.7,1,.8,1.9,1.6,3,2.49,1.1,1.2,2.3,2.29,3.39,3.39.4.5.9.9,1.5,1.2,0,0,.1,0,.2.1-.3.1-.6.3-.9.5Zm1-18.55c-.7.2-1.3.3-2,.4h-.2c-.5-.1-1-.3-1.5-.5l-.2-.1-.8,2.29c.2.2.4.3.6.4.3.3.6.6.8,1,.2.2.2.5.1.7-.2.7-.5,1.3-.7,2l-.1.2-1.1-.4-.6,1.7c.3.1.6.2.9.3.1,0,.2.1.2.2.1.8.1,1.5.2,2.29,0,.1.1.2.2.2.6.2,1.1.4,1.7.6.1,0,.2.1.2.2.2,1.3.3,2.49.5,3.69v.1c-.4-.3-.8-.5-1.2-.8-1.4-1.1-2.8-2.29-3.99-3.59-.3-.3-.7-.7-1-1-.4-.5-1.1-.7-1.7-.7-.9.1-1.9.1-2.9.2-1.4.1-2.8.2-4.19.1-.5-.1-.9-.2-1.3-.2l.9-.8-4.19-4.39.5-.5,3.99,4.49,1.1-1.1-2.8-3.39.5-.5,4.19,4.69c.3-.3.5-.6.7-.9.2-.2.2-.5,0-.7-.8-1-1.6-2-2.4-2.99,0-.1-.1-.1-.1-.2l.5-.5c.5.4.9.9,1.3,1.4.5.5.9,1,1.3,1.5.1.2.3.3.5.3.5.1,1,.2,1.5.3h.2l.6-1.7-1.1-.4.1-.2c.3-.8.5-1.5.8-2.29,0-.1.1-.2.2-.2.7-.3,1.5-.4,2.2-.2l.8-2.29-.5-.2c-.5-.2-.9-.3-1.4-.5-.1,0-.2-.1-.2-.1-.4-.5-.8-1-1.2-1.6l2.9,1c.1-.2.1-.3.2-.5,0-.1.1-.2.2-.2.6-.1,1.1-.1,1.5,0,.1,0,.2.1.3.1l.8-2.29.8.3-.8,2.29c.5.2.9.5,1.3.8q.5.4.3,1-.1.1-.1.2l2.8,1h-.1Z"/><path class="cls-1" d="m30.87,16.97c.4.7,1.3.9,2,.5.7-.4.9-1.3.5-2-.4-.7-1.3-.9-2-.5-.7.4-.9,1.3-.5,2Z"/><path class="cls-1" d="m29.87,11.88c-.7.4-.9,1.3-.5,2,.4.7,1.3.9,2,.5.7-.4.9-1.3.5-2-.4-.7-1.3-.9-2-.5Z"/><path class="cls-1" d="m27.27,11.18c.4.7,1.3.9,2,.5.7-.4.9-1.3.5-2-.4-.7-1.3-.9-2-.5-.7.4-.9,1.3-.5,2Z"/><path class="cls-1" d="m26.57,9.69c.7-.4.9-1.3.5-2-.4-.7-1.3-.9-2-.5-.7.4-.9,1.3-.5,2,.4.7,1.3,1,2,.5Z"/><path class="cls-1" d="m23.28,8.09c.7-.4.9-1.3.5-2-.4-.7-1.3-.9-2-.5-.7.4-.9,1.3-.5,2,.4.7,1.3.9,2,.5Z"/><path class="cls-1" d="m19.98,7.49c.7-.4.9-1.3.5-2s-1.3-.9-2-.5-.9,1.3-.5,2,1.3.9,2,.5Z"/><path class="cls-1" d="m16.29,7.69c.7-.4.9-1.3.5-2-.4-.7-1.3-.9-2-.5-.7.4-.9,1.3-.5,2,.4.6,1.3.9,2,.5Z"/><path class="cls-1" d="m13.09,8.69c.7-.4.9-1.3.5-2-.4-.7-1.3-.9-2-.5-.7.4-.9,1.3-.5,2,.4.7,1.3.9,2,.5Z"/><path class="cls-1" d="m9.9,10.18c.7-.4.9-1.3.5-2-.4-.7-1.3-.9-2-.5-.7.4-.9,1.3-.5,2,.4.7,1.3.9,2,.5Z"/><path class="cls-1" d="m7.4,12.48c.7-.4.9-1.3.5-2-.4-.8-1.3-1-2-.6-.7.4-.9,1.3-.5,2,.4.7,1.3,1,2,.6Z"/><path class="cls-1" d="m4.81,15.17c.7-.4.9-1.3.5-2-.4-.7-1.3-.9-2-.5-.7.4-.9,1.3-.5,2,.4.7,1.3.9,2,.5Z"/><path class="cls-1" d="m3.11,18.07c.7-.4.9-1.3.5-2-.4-.7-1.3-.9-2-.5-.7.4-.9,1.3-.5,2,.4.7,1.3.9,2,.5Z"/><path class="cls-1" d="m3.21,19.66c-.4-.7-1.3-.9-2-.5-.7.4-.9,1.3-.5,2,.4.7,1.3,1,2,.5.7-.4.9-1.3.5-2Z"/><path class="cls-1" d="m4.01,20.96c-.7.4-.9,1.3-.5,2s1.3,1,2,.5c.7-.4.9-1.3.5-2s-1.3-.9-2-.5Z"/><path class="cls-1" d="m6.9,19.26c-.7.4-.9,1.3-.5,2,.4.7,1.3.9,2,.5.7-.4.9-1.3.5-2-.4-.7-1.3-.9-2-.5Z"/><path class="cls-1" d="m9.3,16.87c-.7.4-.9,1.3-.5,2,.4.7,1.3,1,2,.5.7-.4.9-1.3.5-2-.4-.7-1.3-.9-2-.5Z"/><path class="cls-1" d="m12.29,15.17c-.7.4-.9,1.3-.5,2,.4.7,1.3.9,2,.5.7-.4.9-1.3.5-2-.4-.7-1.3-.9-2-.5Z"/><path class="cls-1" d="m15.49,14.17c-.7.4-.9,1.3-.5,2s1.3,1,2,.5c.7-.4.9-1.3.5-2s-1.3-.9-2-.5Z"/><path class="cls-1" d="m18.98,14.27c-.7.4-.9,1.3-.5,2s1.3.9,2,.5c.7-.4.9-1.3.5-2s-1.3-.9-2-.5Z"/><path class="cls-1" d="m24.28,14.87c-.4-.7-1.3-.9-2-.5-.7.4-.9,1.3-.5,2,.4.7,1.3.9,2,.5.7-.4.9-1.3.5-2Z"/></svg>