<?xml version="1.0" encoding="UTF-8"?><svg id="Layer_1" xmlns="http://www.w3.org/2000/svg" viewBox="0 0 197.22 190.05"><defs><style>.cls-1{fill:#fff;}</style></defs><polygon class="cls-1" points="82.31 50.59 82.67 51.1 91.75 25.45 91.75 10.37 88.67 9.99 63.41 6.91 63.41 76.66 70.62 83.86 77.83 63.35 82.31 50.59"/><path class="cls-1" d="m109.29,10.21V2.04s0-2.04,0-2.04l-3.8,4.22-4.69,5.21v45l-10.21,20.3-5.94-8.61-7.21,20.38-1.34,3.79v20.62s.1,0,.1,0v5.31l.38,32.52c.08.78.17,1.56.28,2.33.05.32.11.64.16.96.1.65.21,1.3.33,1.94.07.38.16.75.24,1.13.12.58.24,1.16.38,1.73.09.4.2.79.3,1.19.14.55.28,1.09.44,1.63.12.4.24.81.36,1.21.16.53.33,1.05.5,1.58.14.4.28.8.42,1.21.19.52.38,1.03.58,1.54.15.39.31.79.47,1.18.21.51.43,1.02.65,1.53.17.38.33.76.51,1.14.24.51.49,1.02.74,1.53.18.36.35.72.54,1.08.28.53.57,1.06.86,1.58.18.32.35.65.53.96.36.62.73,1.23,1.11,1.84.13.21.26.43.39.64.52.81,1.06,1.62,1.62,2.41.15.21.31.42.46.63.42.58.84,1.15,1.27,1.71.23.29.46.57.69.86.38.47.76.94,1.15,1.4.26.31.53.61.8.91.38.43.76.86,1.15,1.28.29.31.58.61.87.91.43.44.85.88,1.29,1.3.18.17.36.35.54.52.66.63,1.32,1.25,2.01,1.85,0,0,0,0,0,0,.19.16.4.27.62.37.85.37,1.86.25,2.61-.37h0c6.95-6.09,12.45-13.54,16.22-21.8.84-1.84,1.59-3.71,2.25-5.62.99-2.87,1.79-5.81,2.37-8.81.28-1.45.5-2.92.68-4.39.07-.56.15-1.12.2-1.68h-.09v-8.73s0-23.19,0-23.19l-.05-27.12-11.46-34.45-2.3-6.53v-19.09h0s2.67,7.53,2.67,7.53l3.91,11.06,10.87,30.7,2.08,5.88,7.54-7.54v-23.11s0-17.71,0-17.71v-9.61s0-11.75,0-11.75v-7.56s-27.07,3.3-27.07,3.3Z"/></svg>