<?xml version="1.0" encoding="UTF-8"?><svg id="Layer_1" xmlns="http://www.w3.org/2000/svg" viewBox="0 0 253.87 261.64"><defs><style>.cls-1{fill:#fff;}</style></defs><g id="icon_save"><path id="Path_4864" class="cls-1" d="m175.42,0v82.43H55.19V0H0v261.64h253.87V32.35L221.56.04h-46.14v-.04Zm34.67,239.35H38.09V105.59h172v133.76Z"/><rect id="Rectangle_4447" class="cls-1" x="122.94" y="-.08" width="36.29" height="66.66"/></g><g><rect id="Rectangle_4464" class="cls-1" x="73.37" y="158.6" width="29.29" height="70.54"/><path id="Path_4878" class="cls-1" d="m76.66,153.84h21.97s-2.57-34.79-10.62-34.79-11.36,34.79-11.36,34.79"/><rect id="Rectangle_4465" class="cls-1" x="108.3" y="158.6" width="29.29" height="70.54"/><path id="Path_4879" class="cls-1" d="m111.59,153.84h21.95s-2.56-34.79-10.62-34.79-11.36,34.79-11.36,34.79"/><rect id="Rectangle_4466" class="cls-1" x="143.22" y="158.6" width="29.29" height="70.54"/><path id="Path_4880" class="cls-1" d="m146.51,153.84h21.98s-2.57-34.79-10.62-34.79-11.36,34.79-11.36,34.79"/></g></svg>