<?xml version="1.0" encoding="UTF-8"?>
<svg id="Layer_1" data-name="Layer 1" xmlns="http://www.w3.org/2000/svg" viewBox="0 0 207.91 291.17">
  <defs>
    <style>
      .cls-1 {
        fill: #fff;
        stroke-width: 0px;
      }
    </style>
  </defs>
  <path id="Path_2029" data-name="Path 2029" class="cls-1" d="m122.47,121.07c-46.97,0-85.05,38.08-85.05,85.05s38.08,85.05,85.05,85.05,85.05-38.08,85.05-85.05h0c0-46.97-38.08-85.05-85.05-85.05m0,136.31c-28.3,0-51.25-22.95-51.25-51.25,0-28.3,22.95-51.25,51.25-51.25,28.3,0,51.24,22.94,51.25,51.24-.03,28.29-22.96,51.22-51.25,51.25"/>
  <path id="Path_2030" data-name="Path 2030" class="cls-1" d="m145.4,172.09c-1.09-.74-2.22-1.42-3.38-2.06-3.54-1.92-7.34-3.3-11.29-4.1-5.46-1.11-11.08-1.11-16.53,0-3.94.8-7.75,2.18-11.29,4.1-1.16.63-2.29,1.32-3.38,2.06-11.32,7.62-18.1,20.37-18.09,34.02,0,1.42.07,2.82.21,4.19.27,2.72.82,5.4,1.63,8.01.39,1.28.85,2.54,1.37,3.77,4.17,9.83,12,17.66,21.83,21.83,1.22.52,2.47.98,3.77,1.37,7.95,2.46,16.45,2.46,24.4,0,1.28-.4,2.54-.86,3.77-1.37,9.83-4.17,17.66-12,21.83-21.83.52-1.23.97-2.49,1.37-3.77.81-2.61,1.36-5.29,1.63-8.01.14-1.37.21-2.78.21-4.19.02-13.64-6.76-26.39-18.06-34.02"/>
  <path id="Path_2042" data-name="Path 2042" class="cls-1" d="m86.56,0l-3.76,93.36s-32.37,17.37-51.06,34.72C22.06,137.07.4,176.75.4,176.75l16.01,9.97s23.32-46.41,48.69-61.32c36.33-21.34,76.92-12.67,76.92-12.67l31.7,9.06-51.25-40.69V0h-35.91Z"/>
</svg>