<?xml version="1.0" encoding="UTF-8"?><svg id="Layer_1" xmlns="http://www.w3.org/2000/svg" viewBox="0 0 22.2 22.2"><defs><style>.cls-1{fill:#232323;}.cls-2{fill:#ef4041;}</style></defs><polygon class="cls-2" points="20.78 5.43 16.77 1.41 11.1 7.09 5.43 1.41 1.41 5.43 7.09 11.1 1.41 16.77 5.43 20.78 11.1 15.11 16.77 20.78 20.78 16.77 15.11 11.1 20.78 5.43"/><path class="cls-1" d="m16.77,1.41l4.01,4.01-5.67,5.67,5.67,5.67-4.01,4.01-5.67-5.67-5.67,5.67-4.01-4.01,5.67-5.67L1.41,5.43,5.43,1.41l5.67,5.67,5.67-5.67M5.43,0l-.71.71L.71,4.72l-.71.71.71.71,4.97,4.96L.71,16.06l-.71.71.71.71,4.01,4.01.71.71.71-.71,4.97-4.97,4.97,4.97.71.71.71-.71,4.01-4.01.71-.71-.71-.71-4.97-4.97,4.97-4.96.71-.71-.71-.71L17.48.71l-.71-.71-.71.71-4.97,4.97L6.13.71l-.71-.71h0Z"/></svg>