<svg width="61" height="57" viewBox="0 0 61 57" fill="none" xmlns="http://www.w3.org/2000/svg">
<path d="M43.5215 5.28906L60.5166 6.4541L60.4941 8.51758L45.7979 8.43945L48.4609 18.7529L36.9121 22.2168H30.6543L31.9766 26.876L10.6592 32.9561L14.2529 37.9414H19.7061L31.9766 51.3174H37.1816V55.9385L11.6504 56.1816L12.1465 52.1875L14.2529 51.3174L0 30.4727L3.33984 24.3105L15.8779 20.9033L14.6025 18.7988C14.6025 18.7988 8.33283 18.9042 6.12891 18.7988L6.45801 9.6709H12.2627L10.999 5.12988L14.6025 0H35L43.5215 5.28906ZM33.0615 35.1279H37.5381L47.6094 46.9199H51.8818V50.9932H34.5049L34.585 46.9199H36.3652L23.3467 31.6758L28.8018 30.2402L33.0615 35.1279Z" fill="white"/>
</svg>
