<?xml version="1.0" encoding="UTF-8"?><svg id="Layer_1" xmlns="http://www.w3.org/2000/svg" viewBox="0 0 91.7 84.28"><defs><style>.cls-1{fill:#fff;}</style></defs><g><circle class="cls-1" cx="84.2" cy="8.11" r="7.1"/><g><path class="cls-1" d="m67.8,4.51s0-.06,0-.09h-6.5s0,.06,0,.09c0,14.68,11.9,26.58,26.58,26.58v-6.49c-11.07,0-20.08-9.01-20.08-20.08Z"/><path class="cls-1" d="m87.88,45.12v-6.49c-18.86,0-34.21-15.35-34.21-34.21h-6.49c0,22.48,18.22,40.7,40.7,40.7Z"/></g></g><polygon class="cls-1" points="3.5 30.28 20.74 30.12 46.24 55.62 40.37 61.48 42.88 63.99 54.5 63.88 70.68 80.06 81.76 84.28 77.54 73.2 61.36 57.02 61.47 45.4 58.96 42.9 53.09 48.76 27.6 23.26 27.76 6.03 24.26 2.52 15.56 11.22 13.53 9.19 6.67 16.05 8.7 18.08 0 26.78 3.5 30.28"/></svg>