<?xml version="1.0" encoding="UTF-8"?><svg id="Layer_1" xmlns="http://www.w3.org/2000/svg" viewBox="0 0 50.27 53.09"><defs><style>.cls-1{fill:#fff;}</style></defs><path class="cls-1" d="m35.55,18.7s2.31-5.4,1.26-9.03C35.75,6.02,31.56,0,25.81.35c-5.74.35-11.98,3.22-12.75,8.83-.77,5.6,1.82,10.15,1.82,10.15,0,0-.77,1.47,0,3.43.77,1.96,2.73,2.1,2.73,2.1,0,0,.98.04,1.47.47.49.43,1.26,3.38,1.26,3.38,0,0,2.66.77,4.84.91,2.17.14,4.69-.7,4.69-.7v-1.82s-.28-.94.56-1.76c.84-.83,2.31-.54,2.31-.54,0,0,2.25-.49,2.73-1.47.49-.98.84-2.73.7-3.51-.14-.77-.63-1.12-.63-1.12h0Zm-18.5,1.75c-2.17-.77-1.68-4.83.84-6.23,1.07-.6,5.11.21,5.54.49.42.28.49,1.82,0,3.22-.49,1.4-4.21,3.29-6.37,2.52Zm9.71,1.8c-.42.49-1.7-.63-1.7-.63,0,0-1.11.63-1.94.91s-.35-.56-.35-.56l2.3-3.29s2.12,3.08,1.7,3.57Zm6.2-1.8c-2.17.77-5.88-1.12-6.37-2.52-.49-1.4-.42-2.94,0-3.22s4.46-1.09,5.54-.49c2.52,1.41,3.01,5.47.84,6.23Z"/><path class="cls-1" d="m42.67,27.3c-.32-.8-.66-.81-.66-.81l-1.75.62-.48-.7s-.72.86-.82.9-20.29,7.26-20.29,7.26l-1.11.28-3.97,1.22-1.03-.13-.12-.34.83-.33.58-1.27-1.16-.39-.87.23-.58-.89-.27,1.16-.29.9.5,1,1.12,1.01s-4.44,3.51-6.53,6.71c-2.09,3.2-2.12,6.44-1.25,7.61.87,1.17,3.37,2.14,4.55.97,1.18-1.17.97-1.56.97-1.56,0,0-1.13-1.69-1.35-3.16-.22-1.48,1.27-3.9,1.62-3.99.35-.09,1.99,2.63,4.65.93,2.66-1.7,1.83-2.32,1.68-2.76s-.48-.93-.48-.93l2.4-1.77.13-.5,14.66-5.27-.05-1.49,9.18-3.49s.51-.23.19-1.02Zm-28.01,16.79c-1.33.62-2.69.42-3.13-.6-.36-.85.95-1.51,1.41-1.72l.41.33.23.64.36,1.01.26-.09.02-.95.1-1.39c1.1-.22,1.57.13,1.78.41.28.36-.1,1.74-1.44,2.37Z"/><path class="cls-1" d="m7.4,28.33l9.18,3.49-.05,1.49,14.66,5.27.13.5,2.4,1.77s-.33.49-.48.93-.98,1.06,1.68,2.76c2.66,1.7,4.3-1.02,4.65-.93.35.09,1.84,2.51,1.62,3.99-.22,1.48-1.35,3.16-1.35,3.16,0,0-.21.38.97,1.56,1.18,1.17,3.68.2,4.55-.97.87-1.17.84-4.4-1.25-7.61-2.09-3.2-6.53-6.71-6.53-6.71l1.12-1.01.5-1-.29-.9-.27-1.16-.58.89-.87-.23-1.16.39.58,1.27.83.33-.12.34-1.03.13-3.97-1.22-1.11-.28s-20.19-7.23-20.29-7.26-.82-.9-.82-.9l-.48.7-1.75-.62s-.34.01-.66.81.19,1.02.19,1.02Zm26.38,13.4c.21-.27.68-.63,1.78-.41l.1,1.39.02.95.26.09.36-1.01.23-.64.41-.33c.46.2,1.77.87,1.41,1.72-.44,1.02-1.8,1.22-3.13.6-1.33-.62-1.71-2.01-1.44-2.37Z"/></svg>