<?xml version="1.0" encoding="UTF-8"?><svg id="Layer_1" xmlns="http://www.w3.org/2000/svg" viewBox="0 0 40 46"><defs><style>.cls-1{fill:#fff;}</style></defs><path class="cls-1" d="m33.16,5.73h-1v3.11c0,1.95-1.57,3.52-3.5,3.52s-3.5-1.58-3.5-3.52v-3.11h-10.33v3.11c0,1.95-1.57,3.52-3.5,3.52s-3.5-1.58-3.5-3.52v-3.11h-1C3.06,5.73,0,8.81,0,12.61v26.51c0,3.8,3.06,6.88,6.84,6.88h26.33c3.78,0,6.84-3.08,6.84-6.88V12.61c0-3.8-3.06-6.88-6.84-6.88h0Zm3.67,37.25H3.17v-26.51h33.67v26.51h0Z"/><path class="cls-1" d="m13.66,2.38C13.66,1.07,12.59,0,11.28,0s-2.37,1.07-2.37,2.39v6.47c0,1.32,1.06,2.39,2.37,2.39s2.37-1.07,2.37-2.39V2.38Z"/><path class="cls-1" d="m31.08,2.38C31.08,1.07,30.02,0,28.71,0s-2.37,1.07-2.37,2.39v6.47c0,1.32,1.06,2.39,2.37,2.39s2.37-1.07,2.37-2.39V2.38Z"/><path class="cls-1" d="m12.92,18.77h-7.28v7.33h7.28v-7.33Z"/><path class="cls-1" d="m23.26,18.77h-7.28v7.33h7.28v-7.33Z"/><path class="cls-1" d="m33.3,18.77h-7.28v7.33h7.28v-7.33Z"/><path class="cls-1" d="m12.92,27.92h-7.28v7.33h7.28v-7.33Z"/><path class="cls-1" d="m23.26,27.92h-7.28v7.33h7.28v-7.33Z"/></svg>