<?xml version="1.0" encoding="UTF-8"?><svg id="Layer_1" xmlns="http://www.w3.org/2000/svg" viewBox="0 0 72.66 75.32"><defs><style>.cls-1{fill:#fff;}.cls-2{fill:#a01d22;}</style></defs><g id="Group_3556"><path id="Path_4876" class="cls-1" d="m72.66,64.33l-.86-3.43-.85-3.43-3.08,1.74-3.08,1.74,2.91,1.25c-3.36,7.42-12.09,10.71-19.51,7.35-3.26-1.48-5.88-4.09-7.36-7.36l-2.15.93c3.86,8.61,13.97,12.46,22.57,8.6,3.82-1.71,6.88-4.77,8.59-8.59l2.8,1.2Z"/><path id="Path_4877" class="cls-1" d="m70.03,48.6c-3.66-8.7-13.68-12.78-22.37-9.12-4.12,1.73-7.4,5.01-9.13,9.13l-2.65-1.14.85,3.43.85,3.43,3.08-1.74,3.07-1.74-3.05-1.31c3.15-7.51,11.79-11.04,19.3-7.9,3.57,1.49,6.4,4.33,7.9,7.9l2.15-.94Z"/><rect id="Rectangle_4464" class="cls-1" x="46.08" y="53.45" width="4.9" height="11.8"/><path id="Path_4878" class="cls-1" d="m46.63,52.65h3.67s-.43-5.82-1.78-5.82-1.9,5.82-1.9,5.82"/><rect id="Rectangle_4465" class="cls-1" x="51.92" y="53.45" width="4.9" height="11.8"/><path id="Path_4879" class="cls-1" d="m52.48,52.65h3.67s-.43-5.82-1.78-5.82-1.9,5.82-1.9,5.82"/><rect id="Rectangle_4466" class="cls-1" x="57.77" y="53.45" width="4.9" height="11.8"/><path id="Path_4880" class="cls-1" d="m58.32,52.65h3.68s-.43-5.82-1.78-5.82-1.9,5.82-1.9,5.82"/></g><g id="Group_3309"><path id="Path_3099" class="cls-1" d="m28.78,70.05l-5.11.12-.84.02-.23-.81-1.06-3.71-5.02-17.92-.39-1.39h1.44l9.23.02-.59-6.87-26.22-.02,15.72,28.72s1.09,3.36,2.84,3.56c1.24.15,10.41.02,10.41.02l-.15-1.75h-.04Z"/><path id="Path_3100" class="cls-1" d="m26.9,47.48l1.83,21.48h.03l-1.83-21.48h-.03Z"/><path id="Path_3101" class="cls-1" d="m23.65,69.08l5.08-.12-1.83-21.48-9.32-.02,5.02,17.92,1.05,3.7Z"/><path id="Path_3102" class="cls-2" d="m26.93,47.48l1.83,21.47-1.83-21.47Z"/><path id="Path_3103" class="cls-2" d="m26.9,47.48l-9.32-.02,9.32.02Z"/></g><path id="Path_3083" class="cls-1" d="m36.32,16.42c-6.37,0-11.54,5.17-11.54,11.54,0,6.37,5.17,11.54,11.54,11.54,6.37,0,11.54-5.17,11.54-11.54,0-6.37-5.17-11.54-11.54-11.54h0m0,18.49c-3.84,0-6.95-3.11-6.95-6.95,0-3.84,3.11-6.95,6.95-6.95s6.95,3.11,6.95,6.95c0,3.84-3.11,6.95-6.95,6.95h0"/><path id="Path_3084" class="cls-1" d="m39.43,23.35c-.15-.1-.3-.19-.46-.28-.48-.26-1-.45-1.53-.56-.74-.15-1.5-.15-2.24,0-.54.11-1.05.3-1.53.56-.16.09-.31.18-.46.28-2.04,1.38-2.93,3.92-2.2,6.27.05.17.12.34.19.51.57,1.33,1.63,2.4,2.96,2.96.17.07.34.13.51.18,1.08.33,2.23.33,3.31,0,.17-.05.34-.12.51-.18,1.33-.57,2.4-1.63,2.96-2.96.07-.17.13-.34.19-.51.11-.35.18-.72.22-1.09.02-.19.03-.38.03-.57,0-1.85-.92-3.58-2.45-4.62"/><path id="Path_3096" class="cls-1" d="m31.44,0l-.51,12.66c-2.46,1.33-4.79,2.91-6.93,4.71-1.31,1.23-4.25,6.6-4.25,6.6l2.17,1.35s3.16-6.3,6.61-8.32c3.18-1.74,6.86-2.34,10.44-1.72l4.3,1.23-6.95-5.52V0h-4.87Z"/></svg>