<?xml version="1.0" encoding="UTF-8"?><svg id="Layer_1" xmlns="http://www.w3.org/2000/svg" viewBox="0 0 47 45.31"><defs><style>.cls-1{fill:#fff;}</style></defs><path class="cls-1" d="m35.58,4.01l-1.72,1.72c5.35,5.71,5.24,14.69-.34,20.26l1.72,1.72c6.53-6.53,6.64-17.04.34-23.7Z"/><path class="cls-1" d="m12.91,25.99c-5.69-5.69-5.69-14.92,0-20.61l-1.72-1.72c-6.64,6.64-6.64,17.41,0,24.05.11.11.23.23.35.34l1.72-1.72c-.12-.11-.23-.22-.35-.34Z"/><path class="cls-1" d="m14.8,24.45c.06.06.12.11.17.17l1.72-1.72c-.06-.06-.12-.11-.18-.17-3.83-3.83-3.89-10.01-.17-13.91l-1.72-1.72c-4.67,4.85-4.61,12.57.17,17.35Z"/><path class="cls-1" d="m30.6,22.73c-.06.06-.12.11-.18.17l1.72,1.72c.06-.06.12-.11.17-.17,4.78-4.78,4.84-12.5.17-17.35l-1.72,1.72c3.72,3.9,3.67,10.08-.17,13.91Z"/><path class="cls-1" d="m28.71,21.18c2.88-2.88,2.94-7.52.17-10.47l-1.72,1.72c1.82,2,1.77,5.1-.17,7.04l1.72,1.72Z"/><path class="cls-1" d="m18.06,21.18c.06.06.12.11.18.17l1.72-1.72c-.06-.05-.12-.11-.18-.17-1.99-1.99-1.99-5.22,0-7.22l-1.72-1.72c-2.94,2.94-2.94,7.71,0,10.65Z"/><path class="cls-1" d="m31.52,34.26h-.05l-6.27-16.32c.56-.49.93-1.2.93-2.01,0-1.48-1.2-2.67-2.67-2.67s-2.67,1.2-2.67,2.67c0,.81.37,1.53.94,2.02l-9.09,23.67h2.59l1.91-4.96,12.65-.09,1.94,5.05h2.59l-2.72-7.08-.05-.27Zm-4.56-5l1.34,3.49-7.65-3.49h6.31Zm-6.12-2.29l2.62-6.81,2.62,6.81h-5.24Zm-1.62,4.23l6.65,3.06h-7.82l1.18-3.06Z"/></svg>