<?xml version="1.0" encoding="UTF-8"?><svg id="Layer_1" xmlns="http://www.w3.org/2000/svg" viewBox="0 0 70.85 65.84"><defs><style>.cls-1{fill:#fff;}</style></defs><g><path class="cls-1" d="m26.44,14.64s.04-.04.06-.06l-4.59-4.59s-.04.04-.06.06c-10.38,10.38-10.38,27.21,0,37.59l4.59-4.59c-7.83-7.83-7.83-20.57,0-28.4Z"/><path class="cls-1" d="m11.92,57.56l4.59-4.59c-13.34-13.34-13.34-35.04,0-48.38L11.92,0c-15.9,15.9-15.9,41.67,0,57.56Z"/></g><g><path class="cls-1" d="m44.41,42.92s-.04.04-.06.06l4.59,4.59s.04-.04.06-.06c10.38-10.38,10.38-27.21,0-37.59l-4.59,4.59c7.83,7.83,7.83,20.57,0,28.4Z"/><path class="cls-1" d="m58.93,0l-4.59,4.59c13.34,13.34,13.34,35.04,0,48.38l4.59,4.59c15.9-15.9,15.9-41.67,0-57.56Z"/></g><path class="cls-1" d="m48.73,60.64l-9.35-26.09c.24-.17.47-.35.68-.55,2.88-2.66,3.06-7.15.4-10.03-2.66-2.88-7.15-3.06-10.03-.4-2.88,2.66-3.06,7.15-.4,10.03.33.36.69.68,1.08.95l-9.35,26.08-1.47,4.1h29.92l-1.47-4.1Zm-13.49-23.91l4.32,12.06h-8.64l4.32-12.06Zm-8.57,23.91l2.68-7.48h11.78l2.68,7.48h-17.14Z"/></svg>