<?xml version="1.0" encoding="UTF-8"?><svg id="Layer_1" xmlns="http://www.w3.org/2000/svg" viewBox="0 0 98.35 84.63"><defs><style>.cls-1{fill:#fff;}.cls-2{fill:none;}.cls-3{fill:#ee5353;}</style></defs><path class="cls-2" d="m49.67,84.45c-4.39-.52-7.14-8.97-7.14-8.97L2.95,3.2v81.43h72.92v-.14c-.05,0-23.09.33-26.21-.04Z"/><polygon class="cls-2" points="75.34 77.34 75.26 77.34 75.26 77.33 62.48 77.65 59.83 68.33 47.18 23.23 59.83 68.33 62.48 77.65 59.83 68.32 47.18 23.22 69.85 23.27 70.87 22.24 69.15 20.51 47.2 20.47 43.57 20.47 44.55 23.96 57.19 69.06 59.85 78.4 60.42 80.44 62.55 80.39 75.41 80.07 75.5 80.07 75.87 84.46 75.87 27.7 71.48 32.1 75.34 77.34"/><polygon class="cls-2" points="55.92 3.18 2.95 3.18 2.95 3.18 55.88 3.22 55.92 3.18"/><polygon class="cls-2" points="71.41 32.17 71.41 32.17 73.24 53.58 71.41 32.17"/><polygon class="cls-2" points="68.94 3.23 69.57 10.47 75.87 16.78 75.87 3.18 62.28 3.18 62.32 3.22 68.94 3.23"/><polygon class="cls-1" points="62.32 3.22 69.57 10.47 68.94 3.23 62.32 3.22"/><path class="cls-1" d="m75.41,80.07l-12.86.31-2.13.05-.57-2.05-2.66-9.33-12.64-45.1-.98-3.49h3.63l21.95.05-15.28-15.28,2.01-2.01-52.93-.04h0s39.57,72.3,39.57,72.3c0,0,2.75,8.45,7.14,8.97,3.12.37,26.15.04,26.21.04v-.03l-.38-4.39h-.09Z"/><polygon class="cls-1" points="75.26 77.33 75.26 77.33 75.26 77.34 75.34 77.34 71.48 32.1 71.41 32.17 73.24 53.58 75.26 77.33"/><polygon class="cls-1" points="59.83 68.32 62.48 77.65 75.26 77.33 73.24 53.58 71.41 32.17 59.1 44.48 53.87 39.25 69.85 23.27 47.18 23.22 59.83 68.32"/><polygon class="cls-1" points="73.24 53.58 75.26 77.33 75.26 77.33 73.24 53.58"/><polygon class="cls-3" points="59.1 0 55.92 3.18 62.28 3.18 59.1 0"/><polygon class="cls-3" points="62.32 3.22 62.28 3.18 55.92 3.18 55.88 3.22 62.32 3.22"/><polygon class="cls-3" points="98.35 5.23 93.11 0 76.11 17.01 75.87 16.78 75.87 27.7 76.11 27.47 93.11 44.48 98.35 39.25 81.34 22.24 98.35 5.23"/><polygon class="cls-3" points="69.57 10.47 70.43 20.52 69.15 20.51 70.87 22.24 69.85 23.27 70.65 23.27 71.41 32.17 71.41 32.17 70.65 23.28 70.72 23.28 71.48 32.1 75.87 27.7 75.87 16.78 69.57 10.47"/><polygon class="cls-3" points="55.88 3.22 53.87 5.23 69.15 20.51 70.43 20.52 69.57 10.47 62.32 3.22 55.88 3.22"/><polygon class="cls-3" points="70.72 23.28 70.65 23.28 71.41 32.17 71.48 32.1 70.72 23.28"/><polygon class="cls-3" points="59.1 44.48 71.41 32.17 70.65 23.27 69.85 23.27 53.87 39.25 59.1 44.48"/></svg>