<?xml version="1.0" encoding="UTF-8"?><svg id="Layer_1" xmlns="http://www.w3.org/2000/svg" viewBox="0 0 265.49 311.31"><defs><style>.cls-1{fill:#fff;fill-rule:evenodd;}</style></defs><path id="flag_on_mountain" class="cls-1" d="m116.74,181.6L12.97,298.34l32.43,6.49,32.43-19.46,38.91,12.97,77.83-6.49-59.59-17.72,31.45-42.03-6.85-17.82-30.24,15.53-45.03,16.64,32.43-64.86Zm16.7-11.23l12.49-66.59h-81.07l-19.46,25.94H0L32.43,51.89l38.91-19.46-6.49,64.86L103.77,0h81.07l-32.1,171.19,37.18,39.4s28.34,9.23,29.05,10.31l20.99,32.04,25.41,50.2c.78,1.75-2.71,8.18-4.44,8.18H4.97c-1.85,0-5.14-7.14-4.08-8.86,0,0,108.83-130.19,109.88-130.29,0,0,11.83-1,22.67-1.81Z"/></svg>