<?xml version="1.0" encoding="UTF-8"?><svg id="Layer_1" xmlns="http://www.w3.org/2000/svg" viewBox="0 0 73.57 76.7"><defs><style>.cls-1{fill:#fff;}</style></defs><path class="cls-1" d="m62.35,14.52c-4.84-2.22-9.95-3.79-15.19-4.68-.72,1.28-1.36,2.59-1.93,3.94-5.58-.82-11.25-.82-16.83,0-.52-1.23-1.3-2.79-1.93-3.94-5.28.87-10.41,2.44-15.27,4.68C2.63,26.65-1.22,41.48.34,56.24H.34c5.62,4.13,11.9,7.29,18.58,9.32,1.51-2.02,2.85-4.17,3.98-6.43-2.17-.81-4.26-1.81-6.24-3.01l1.52-1.19c11.76,5.56,25.39,5.56,37.15,0,.52.41,1,.82,1.56,1.19-2.01,1.19-4.13,2.2-6.32,3.01,1.17,2.26,2.53,4.41,4.09,6.43,6.67-2.04,12.95-5.19,18.58-9.32h0c1.55-14.77-2.32-29.59-10.89-41.72ZM24.6,47.96c-3.87-.22-6.83-3.53-6.61-7.41,0,0,0-.02,0-.02-.25-3.85,2.67-7.17,6.51-7.42.03,0,.07,0,.1,0,3.83.18,6.8,3.42,6.62,7.26,0,.06,0,.12-.01.17.15,3.82-2.79,7.06-6.61,7.28v.15Zm24.41,0c-3.87-.24-6.82-3.56-6.61-7.43-.23-3.87,2.72-7.2,6.59-7.43,0,0,.02,0,.02,0,3.83.18,6.8,3.42,6.62,7.26,0,.06,0,.12-.01.17.17,3.83-2.78,7.08-6.61,7.28v.15Z"/></svg>