<?xml version="1.0" encoding="UTF-8"?><svg id="Layer_1" xmlns="http://www.w3.org/2000/svg" viewBox="0 0 265.1 231.21"><defs><style>.cls-1{fill:#fff;fill-rule:evenodd;}</style></defs><path id="snail" class="cls-1" d="m139.6,174.77l12.42-74.51,18.01,3.03,2.47-14.66-58.62-9.88-2.47,14.66,17.07,2.88-12.42,74.52-17.04-2.87-2.47,14.66,58.62,9.88,2.47-14.66-18.03-3.04Zm70.43,12.26l12.42-74.51,18.01,3.03,2.47-14.66-58.62-9.88-2.47,14.66,17.07,2.88-12.42,74.52-17.04-2.87-2.47,14.66,58.62,9.88,2.47-14.66-18.03-3.04ZM34.81,50.95c-2.8-16.77-12.18-24.9-12.18-24.9-5.31,2.2-26.29.19-22.06-16.36,4.55-17.81,23.86-4.95,30.39,7.45,2.58,4.9,9.13,30.88,9.24,31.57,2.85-1.11,8.94-2.4,18.35.95,4.85,1.21,8.61,4.45,12.03,8.31,1.9-16.39-1.6-25.41-1.6-25.41-6.4-.32-26.54-12.38-14.37-27.01,13.09-15.74,29.27,5.34,27.01,22.02-.66,4.83-6.13,38.52-6.16,38.76,4.26,9.83,5.45,21.82,3.74,30.21-4.08,21.97-3.67,35.49-1.89,43.77,2.35,10.93,7.11,12.71,7.11,12.71,0,0-20.06-66.36,42.22-96.4,42-26.25,95.08-6.08,121.49,32.23,37.84,54.89-8.32,110.82-8.32,110.82,3.67,10.82,8.33,16.44,20.84,20.91,6.48,4.27,5.43,9.44.17,10.6H82.26s-17.58,1.62-35.63-14.28c-17.86-19.66-5.46-50.72-2.84-65.26,5.68-28.54-5.45-29.76-6.06-36.19,18.1-7.16,22.69-19.59,22.63-21.23-.09-2.31-5,8.84-25.2,14-14.32.91-21.5-4.49-21.5-4.49,0,0,7.18-8.48,8.46-21.68-1.36-11.24,3.26-26.15,12.71-31.09Z"/></svg>