<?xml version="1.0" encoding="UTF-8"?><svg id="Layer_1" xmlns="http://www.w3.org/2000/svg" viewBox="0 0 73.57 76.7"><defs><style>.cls-1{fill:#fff;}</style></defs><path class="cls-1" d="m23.18,5.72c-3.5.16-5.88.72-7.97,1.54-2.16.84-3.99,1.97-5.81,3.8-1.82,1.83-2.94,3.66-3.78,5.83-.81,2.09-1.36,4.48-1.51,7.98-.15,3.5-.19,4.62-.17,13.54.02,8.92.06,10.04.22,13.54.17,3.49.72,5.88,1.54,7.97.84,2.16,1.97,3.99,3.8,5.81,1.83,1.82,3.66,2.94,5.83,3.78,2.09.81,4.48,1.36,7.98,1.51,3.5.15,4.62.19,13.54.17,8.92-.02,10.04-.06,13.55-.22,3.5-.17,5.88-.73,7.97-1.54,2.16-.85,3.99-1.97,5.81-3.8,1.82-1.83,2.94-3.66,3.78-5.83.81-2.09,1.36-4.48,1.51-7.97.15-3.51.19-4.63.17-13.55-.02-8.92-.06-10.04-.22-13.54-.17-3.5-.73-5.88-1.54-7.97-.84-2.16-1.97-3.99-3.8-5.81-1.83-1.82-3.66-2.94-5.83-3.78-2.09-.81-4.48-1.36-7.98-1.51-3.5-.16-4.62-.19-13.54-.17-8.92.02-10.04.06-13.54.22m.38,59.39c-3.2-.14-4.94-.67-6.1-1.12-1.53-.59-2.63-1.31-3.78-2.45-1.15-1.15-1.86-2.24-2.46-3.77-.45-1.16-.99-2.9-1.14-6.1-.16-3.46-.2-4.5-.22-13.27-.02-8.77.01-9.81.17-13.27.14-3.2.67-4.94,1.12-6.1.59-1.54,1.3-2.63,2.45-3.78,1.15-1.15,2.24-1.86,3.77-2.46,1.16-.45,2.9-.99,6.1-1.14,3.46-.16,4.5-.2,13.27-.22,8.77-.02,9.81.01,13.28.17,3.2.14,4.94.67,6.1,1.12,1.54.59,2.63,1.3,3.78,2.45,1.15,1.15,1.87,2.24,2.47,3.77.45,1.15.99,2.89,1.14,6.09.16,3.46.2,4.5.22,13.27.02,8.77-.01,9.81-.17,13.27-.14,3.2-.67,4.94-1.12,6.1-.59,1.53-1.3,2.63-2.45,3.78-1.15,1.15-2.24,1.86-3.77,2.46-1.16.45-2.9.99-6.09,1.14-3.46.16-4.5.2-13.27.22-8.77.02-9.81-.02-13.27-.17m26.78-44.32c0,2.18,1.77,3.94,3.95,3.93,2.18,0,3.94-1.77,3.93-3.95,0-2.18-1.77-3.94-3.95-3.93-2.18,0-3.94,1.77-3.93,3.95m-30.43,17.59c.02,9.32,7.58,16.85,16.9,16.83,9.32-.02,16.86-7.58,16.84-16.9-.02-9.31-7.59-16.85-16.9-16.84-9.31.02-16.85,7.59-16.83,16.9m5.92-.01c-.01-6.05,4.88-10.96,10.93-10.97,6.05-.01,10.96,4.88,10.97,10.93.01,6.05-4.88,10.96-10.93,10.97-6.05.01-10.96-4.88-10.97-10.93"/></svg>