<?xml version="1.0" encoding="UTF-8"?><svg id="Layer_1" xmlns="http://www.w3.org/2000/svg" viewBox="0 0 123.39 166.74"><defs><style>.cls-1{fill:#fff;}</style></defs><rect class="cls-1" x="49.17" y="150.7" width="25.04" height="16.04"/><rect class="cls-1" x="49.17" width="25.04" height="16.04"/><path class="cls-1" d="m10.24,39.22s33.98,3.76,50.15,3.76,52.76-3.76,52.76-3.76c0,0-13.5,1.61-21.33-7.39s-5.87-11.35-5.87-11.35h-47.35s-2.74,7.83-10.17,12.91-18.2,5.83-18.2,5.83Z"/><path class="cls-1" d="m93.83,61.57l29.57-20.35s-35.48,6-63.39,5.74S0,41.22,0,41.22l28.87,20.35v60.7h-10.09v4.43h10.09l18.35,19.57h27.65l18.96-19.57h9.22v-4.43h-9.22v-60.7Zm-10.41,57.61h-43.43v-56h43.43v56Z"/><rect class="cls-1" x="47.22" y="69.44" width="28.96" height="6.52"/><rect class="cls-1" x="47.22" y="81.61" width="28.96" height="6.52"/><rect class="cls-1" x="47.22" y="93.78" width="28.96" height="6.52"/><rect class="cls-1" x="47.22" y="105.95" width="28.96" height="6.52"/></svg>