<?xml version="1.0" encoding="UTF-8"?><svg id="Layer_1" xmlns="http://www.w3.org/2000/svg" xmlns:xlink="http://www.w3.org/1999/xlink" viewBox="0 0 176.82 180.88"><defs><style>.cls-1{fill:#fff;}.cls-2{clip-path:url(#clippath-1);}.cls-3{clip-path:url(#clippath);}.cls-4{fill:none;}</style><clipPath id="clippath"><rect class="cls-4" y="99.44" width="72.92" height="81.44"/></clipPath><clipPath id="clippath-1"><rect class="cls-4" x="91.81" y="99.43" width="85.01" height="70.29"/></clipPath></defs><g id="Group_3341"><path id="Path_3098" class="cls-1" d="m59.53,173.9l-2.65-9.31-12.65-45.1,12.65,45.1,2.65,9.31,12.78-.31-12.78.31Z"/><g id="Group_3310"><g class="cls-3"><g id="Group_3309"><path id="Path_3099" class="cls-1" d="m72.45,176.33l-12.86.31-2.13.05-.57-2.05-2.66-9.33-12.64-45.1-.98-3.49h3.63l23.23.05-1.49-17.29L0,99.44l39.58,72.3s2.75,8.45,7.14,8.97c3.12.37,26.21.04,26.21.04l-.38-4.42h-.09Z"/><path id="Path_3100" class="cls-1" d="m67.7,119.53l4.61,54.06h.07l-4.61-54.06h-.07Z"/><path id="Path_3101" class="cls-1" d="m59.53,173.9l12.78-.31-4.61-54.06-23.46-.05,12.65,45.1,2.65,9.33Z"/></g></g></g></g><g id="Group_3340"><g class="cls-2"><g id="Group_3312"><path id="Path_3104" class="cls-1" d="m176.82,134.58c0-19.41-12.62-35.15-28.19-35.15l-49.3,27.34s-7.55,5.03-7.52,7.8c.04,3.02,8.47,8.34,8.47,8.34l48.35,26.81c15.57,0,28.19-15.74,28.19-35.15m-31.87-28.6s4.12,7.66-1.73,11.94-32.53,8.32-32.53,8.32l34.26-20.26Zm-3.9,19.38c2.96,2.1,4.87,5.38,5.21,9-.29,3.52-2.22,6.69-5.21,8.57l-38.39-8.35,38.39-9.22Zm2.17,25.91c5.86,4.28,1.73,11.94,1.73,11.94l-34.27-20.3s26.68,4.06,32.53,8.33"/></g></g></g><path id="Path_3083" class="cls-1" d="m91.41,41.35c-16.04,0-29.04,13.01-29.04,29.05,0,16.04,13.01,29.04,29.05,29.04,16.04,0,29.04-13.01,29.04-29.04,0-16.04-13-29.04-29.04-29.04h0m0,46.55c-9.67,0-17.5-7.84-17.5-17.5,0-9.67,7.84-17.5,17.5-17.5s17.5,7.83,17.5,17.5c0,9.67-7.83,17.5-17.5,17.51h0"/><path id="Path_3084" class="cls-1" d="m99.24,58.77c-.37-.25-.76-.49-1.16-.7-1.21-.66-2.51-1.13-3.85-1.4-1.86-.38-3.78-.38-5.65,0-1.35.27-2.65.75-3.85,1.4-.4.22-.78.45-1.16.7-5.12,3.47-7.37,9.88-5.54,15.78.13.44.29.87.47,1.29,1.42,3.36,4.1,6.03,7.46,7.46.42.18.85.33,1.29.47,2.71.84,5.62.84,8.33,0,.44-.14.87-.29,1.29-.47,3.36-1.42,6.03-4.1,7.46-7.46.18-.42.33-.85.47-1.29.28-.89.46-1.81.56-2.73.05-.47.07-.95.07-1.43,0-4.66-2.31-9.01-6.17-11.62"/><path id="Path_3096" class="cls-1" d="m79.14,0l-1.28,31.88c-6.2,3.34-12.05,7.32-17.44,11.86-3.31,3.08-10.7,16.62-10.7,16.62l5.47,3.41s7.96-15.86,16.63-20.94c8.02-4.37,17.27-5.89,26.27-4.33l10.82,3.1-17.5-13.91V0h-12.26Z"/></svg>