<?xml version="1.0" encoding="UTF-8"?><svg id="Layer_1" xmlns="http://www.w3.org/2000/svg" viewBox="0 0 99 79"><defs><style>.cls-1{fill:#fff;}</style></defs><path class="cls-1" d="m2.5,4.5c1.19-.27,2.21.05,2.94.53l19.53,70.93h.05s.7,2.62.7,2.62h-6.71S1.5,11.5,1.5,11.5c-.21-1.72-2.32-6.24,1-7Zm5.85-.21C11.42,1.43,17.45-1.43,26.46.81l4.86,16.23-.71-14.94c14.16,4.89,10.64,5.09,22.84,8.8,10.1,3.07,21.5-3.73,25.28-4.05l19.85,59.81c-2.17.41-7.46,2.44-13.6,3.64l-9.25-21.2,3.71,21.97c-3.85.29-7.76.03-11.26-1.31-13.84-5.31-14.01-7.28-29.78-9.87-7.74-1.27-11.94.4-14.04,2.59L8.35,4.29Zm36.47,12.55l-6.73-1.3-2.24,6.48-6.48,2.24,1.3,6.73-4.49,5.18,4.49,5.18-1.3,6.73,6.48,2.24,2.24,6.48,6.73-1.3,5.18,4.49,5.18-4.49,6.73,1.3,2.24-6.48,6.48-2.24-1.3-6.73,2.13-2.46h-12.61v-9.53h0v-2.72h-9.01l10.86-10.86-5.52,1.07-5.18-4.49-5.18,4.49Zm-1.37,30.83h-2.18l8.91-17.85h2.18l-8.91,17.85Zm8.8-8.49c2.09,0,3.92,1.28,3.92,3.74,0,2.46-1.83,3.74-3.92,3.75-2.11,0-3.96-1.29-3.96-3.75,0-2.46,1.85-3.74,3.96-3.74Zm0,2.24c-1.07,0-1.52.72-1.52,1.5,0,.78.46,1.5,1.52,1.5,1.02,0,1.48-.72,1.48-1.5,0-.78-.46-1.5-1.48-1.5Zm-10.91-10.6c2.09,0,3.92,1.29,3.92,3.75,0,2.46-1.83,3.74-3.92,3.75-2.11,0-3.96-1.29-3.96-3.75,0-2.46,1.85-3.74,3.96-3.75Zm19.54.92h0v5.1h0s10.89,0,10.89,0v-5.44h-10.89v.34Zm12.92,4.43h0s0,0,0,0h0Zm-32.47-3.09c-1.07,0-1.52.72-1.52,1.5,0,.78.46,1.5,1.52,1.5,1.02,0,1.48-.72,1.48-1.5,0-.78-.46-1.5-1.48-1.5Zm21.05-16.11h0s-7.63,7.63-7.63,7.63h0,0s6.12,0,6.12,0v4.76h0v.34h10.89v-5.1h6.12l-11.23-11.91-4.27,4.27Z"/></svg>