<?xml version="1.0" encoding="UTF-8"?>
<svg id="Layer_1" data-name="Layer 1" xmlns="http://www.w3.org/2000/svg" width="128" height="128" viewBox="0 0 128 128">
  <defs>
    <style>
      .cls-1 {
        fill: #fff;
        fill-rule: evenodd;
        stroke-width: 0px;
      }
    </style>
  </defs>
  <path class="cls-1" d="m52.28,51.6c-.06.15-.18.28-.33.33-.98.34-2,.53-3.03.57-.74.04-1.47-.16-2.07-.58l-11.33-11.33,5.42-5.42,11.33,11.33c1.18,1.5.23,4.49.02,5.11ZM11,16.07l-3.16.25-2.14-2.14,1.98-1.43-1.86-1.86-.45-.98-1.03-1.03,2.22-2.22.44-.44,2.22-2.22,1.03,1.03.98.45,1.88,1.88,1.55-2.15,2.14,2.14-.27,3.42,23.15,23.14-5.42,5.42L11,16.07Zm12.53-.04l4.03-1.51,6.83,6.83-.04,5.5-10.83-10.83Zm3.68,17.98l-5.5.04-6.83-6.83,1.51-4.03,10.83,10.83Zm86.47-1.86c-4.84.58-9.38,1.61-13.71,2.96-6.87,2.15-13,5.24-18.53,8.99-3.8,2.58-7.28,5.48-10.45,8.63-2.14,2.13-4.13,4.38-6.01,6.7-1.9,2.35-3.69,4.76-5.32,7.28-2.49,3.83-4.66,7.82-6.43,12-1.8,4.25-3.22,8.62-4.2,13.09-1.52,6.87-2.08,13.88-1.48,20.85-1.57-6.97-2.02-14.14-1.35-21.3.45-4.8,1.43-9.54,2.87-14.17,1.45-4.63,3.38-9.13,5.8-13.38,1.61-2.83,3.43-5.55,5.49-8.1,2.04-2.53,4.31-4.9,6.76-7.09,3.6-3.22,7.59-6.07,11.94-8.44,3.15-1.72,6.47-3.19,9.98-4.38,7.52-2.55,15.74-3.83,24.65-3.64Zm-1.68,91.86h-31.93l-11.61-17.73c1.24-.11,2.46-.43,3.6-.93,1.49-.59,3.11-1.31,4.87-2.17,1.76-.86,3.58-1.77,5.47-2.75,1.89-.97,3.71-1.88,5.45-2.72,1.74-.84,3.34-1.54,4.79-2.09,1.11-.48,2.29-.76,3.5-.83,1.36.05,2.7.34,3.95.86,1.65.63,3.27,1.34,4.84,2.14,1.7.86,3.46,1.78,5.27,2.77,1.81.99,3.55,1.91,5.22,2.75s3.22,1.54,4.64,2.12c1.14.51,2.36.8,3.6.86l-11.66,17.74Zm-39.99-23.32l1.52-3.07-14.34-8.51.96-1.66,14.39,7.96,1.83-3.98-10.44-6.15.96-1.71,15.26,8.36,1.37-4.13-10.75-6.4,1.01-1.71,10.04,5.54,5.32-.35v-10.93h-2.89v-7.46c.7-.66,1.47-1.26,2.28-1.79,1.05-.62,2.23-.97,3.45-1.03v-6.45h-6.28l-4.92-2.92h8.31v-2.57c.4-.32.84-.57,1.32-.76.51-.2,1.04-.37,1.57-.5.51-.13,1.03-.23,1.55-.3.49-.07.92-.12,1.29-.15v-6.85h2.89v6.85c.44.03.93.09,1.47.18.54.08,1.07.2,1.6.35.49.14.98.32,1.44.53.38.17.74.39,1.07.65v2.57h2.84v2.92h-5.62v6.45c.62.05,1.24.18,1.83.38.49.18.96.4,1.39.68.41.26.81.55,1.19.86.37.3.78.6,1.22.91v7.45h-2.94v10.93h3.04l2.89,5.79h5.83l5.02,9.87c-2.98-.64-5.9-1.51-8.74-2.59-2.52-.99-4.74-1.93-6.67-2.82-1.93-.89-3.58-1.65-4.95-2.27-1.08-.55-2.26-.86-3.47-.93-.86.05-1.71.23-2.51.55-1.03.37-2.2.85-3.52,1.44-1.32.59-2.74,1.24-4.26,1.96-1.52.72-3.07,1.41-4.66,2.07-1.59.65-3.16,1.23-4.71,1.74-1.45.48-2.94.82-4.46,1.01Z"/>
</svg>