<?xml version="1.0" encoding="UTF-8"?><svg id="Layer_1" xmlns="http://www.w3.org/2000/svg" viewBox="0 0 18.71 17.53"><defs><style>.cls-1{fill:#fff;}.cls-2{fill:#232323;}</style></defs><polygon class="cls-1" points="9.36 12.43 4.51 16.12 6.49 10.48 1.63 7.18 7.43 7.18 9.38 1.64 10.97 7.18 17.1 7.18 12.32 10.48 14.15 16.14 9.36 12.43"/><path class="cls-2" d="m9.33,3.28l1.05,3.67.21.72h4.91l-3.15,2.18-.61.42.23.71,1.22,3.78-3.21-2.49-.61-.47-.61.47-3.21,2.45,1.3-3.71.26-.73-.64-.43-3.2-2.17h4.52l.24-.67,1.32-3.73M9.43,0l-2.36,6.68H0l5.89,4-2.41,6.85,5.87-4.47,5.77,4.47-2.21-6.85,5.79-4h-7.37L9.43,0h0Z"/></svg>