<svg xmlns="http://www.w3.org/2000/svg" width="800" height="800" viewBox="0 0 800 800">
  <defs>
    <style>
      .cls-1 {
        fill: #fff;
        fill-rule: evenodd;
      }
    </style>
  </defs>
  <path id="wasp" class="cls-1" d="M119.165,288.353c-14.55,7.891-25.818,43.764-19.9,51.346,4.985,6.385,31.47,4.7,46.02-3.192s20.51-25.083,13.3-38.372S133.714,280.465,119.165,288.353Zm-26.79,10.7a17.782,17.782,0,0,1-1.675-1.573c-23.144-25.686-26.649-49.219-19.624-70.067,6.813-20.22,24.416-38.146,44.474-53.185a9.879,9.879,0,1,1,12.322,15.445c-15.562,13.187-29.478,28.1-34.307,44.779a36.912,36.912,0,0,0,.8,23.255,94.418,94.418,0,0,1,12.014-18.731c17.183-21.258,46.828-43.745,82.7-64.334a9.879,9.879,0,1,1,10.21,16.916c-26.8,17-49.571,34.993-65.343,52.121-8.521,9.252-15.116,17.958-18.321,26.112a48.872,48.872,0,0,1,7.771-5.313c36.4-19.738,66.942-16.135,84.974,17.107s5.724,76.255-30.674,95.993S84.416,408.464,71.947,392.49C61.764,379.443,72.707,333.122,92.375,299.049Zm87.457,116.029c18.864-11.459,37.993-22.444,50.353-50.1,27.763-10.845,62.315-15.985,78.159,3.2,13.98,16.923,14.332,41.585,3.3,64.472-5.768,11.966-40.007,38.01-47.318,43-20.709,14.138-67.186,22.673-78.77-1.342C178.371,459.414,181.8,440.329,179.832,415.078Zm99.54-92.407C324.06,220.54,390.859,66.952,490.774,22.616c13.081-5.805,31.28,30.54,36.506,50.754,10.381,40.162-31.23,86.681-47.209,103.032C395.63,232.71,279.372,322.671,279.372,322.671Zm49.561,14.811C435.711,261.671,637.085,90.848,758.277,130.893c57.027,18.845-25.983,161.876-43.084,172.413-157.252,96.89-324.028,82.581-366.276,71.5C347.1,358.576,343.453,350.6,328.933,337.482ZM121.068,695.907c-6.506,11.051-8.8,22.6-5,34.862C81.133,725.034,46.508,710.4,23,682.009,60.791,691.869,90.724,696,121.068,695.907Zm105.554-138.6c-1.346-11.636,1.655-21.034,10.531-26.805,12.8-8.322,35.372-11.9,58.989-24.924,21.818-12.036,30.134-43.208,68.5-44.923,12.846-.573,26.012,1.772,33.339,7.988,0,0,20.429,13.322,38.6,46.638-55.2,30.1-129.838,35.769-177.263,39.853C247,556.2,236.022,556.88,226.622,557.311Zm215.4,136.223-1.106.188c-62.231,10.5-135.494-17.427-180.73-34.112-14.7-5.424-27-10.457-36.554-14.588,6.17-18.359,8.072-33.454,8.04-46.173a417.95,417.95,0,0,0,44.412,8.778c54.062,7.727,129-2.062,180.005-41.353a271.961,271.961,0,0,1,6.642,39.246A138.592,138.592,0,0,1,442.027,693.534Zm-242.045,77.1a196.777,196.777,0,0,1-20.648-11.362c-14.913-9.484-24.86-16.044-32.84-30.29-3.018-5.388-1.433-24.648,2.579-25.58,18.471-4.29,41.054-12.674,57.109-29.04a367.072,367.072,0,0,0,46.873,36.713c32.691,21.694,80.151,39.346,127.126,39.909C332.245,777.827,268.1,787.525,199.982,770.638Z"/>
</svg>
