<?xml version="1.0" encoding="UTF-8"?><svg id="Layer_1" xmlns="http://www.w3.org/2000/svg" viewBox="0 0 800 800"><defs><style>.cls-1{fill:#fff;fill-rule:evenodd;}</style></defs><path id="halloween_pumpkin" class="cls-1" d="m536.23,260.8c.67-10.22,46.99-45.03,115.79-10.97s104.55,100.41,111.49,208.2c4.35,67.54-27.61,124.94-57.22,155.78-1.93,1.94-5.07,1.96-7.01.02-1.4-1.39-1.85-3.49-1.12-5.33,18.39-47.94,22.41-95.8,17.75-140.42-6.75-64.56-38.37-124.43-77.89-153.22-50.07-36.49-103.11-33.92-101.78-54.05Zm-54.76-63.57s56.49,3.54,55.05,17.55-29.32,18.29-29.32,18.29c0,0-10.91-1.05-21.91-10.85-8.76-7.81-3.82-25-3.82-25h0Zm-248.28,13.43c-4.89-.52,54.14-29.9,81.85-29.9s51.23,10.48,49.06,17.23-54.32,19.25-65.81,17.62c-29.89-4.22-60.21-4.43-65.1-4.95Zm54.45,37.36c5.19,28.33-62.8,23.59-126.93,83.69-57.62,53.99-79.85,170.77-39.94,275.4.94,2.41-.25,5.13-2.66,6.07-1.64.64-3.5.31-4.82-.86-37.33-37.16-74.64-127.27-75.98-161.4-4.37-110.94,36.5-174.29,115.08-209.32,78.58-35.03,133.31-4.09,135.24,6.42h0Zm52.37,19.21s11.36-13.35,7.33-17.73-24.5,1.5-26.92-9c16.73-6.1,21.2-5.75,38.02-12.4,17.7-7,30.8-27.43,38.87-40.57s17.44-45.59,33.09-60.43c34.01-32.25,40.15-52.17,40.15-52.17,10.9-5.94,48.74,16.65,42.16,30.27l-37.93,37.66s-21.79,22.77-22.6,43.79,3.97,32.47,12.04,47.36,36.02,34.75,27.95,43.51-38.38-10.29-68.24-20.8-46,16.64-75.05,29.78-8.88-19.28-8.88-19.28h0Zm158.33,30.81c7.75-6.73,65.86-11.11,111.23,31.39,43.38,40.64,106.01,171.38,54.36,272.28s-144.6,113.68-152.99,104.57c-17.52-19.02,76.74-65.45,62.59-213.9-17.29-181.39-88.06-183.17-75.19-194.34h0Zm-334.28,334.9c-21.02-30.58-25.23-56.53-29.43-112.98s12.33-115.4,43-153.09c48.7-59.86,103.56-76.35,127.74-68.65s19.97,28.23,3.15,59.02-24.83,75.7-32.19,120.6c-7.36,44.91,7.56,122.77,12.82,153.56s13.05,67.11-32.14,70.96-72.2-39.23-92.95-69.42h0Zm148.07-131.62c.95-74.41,41.64-213.07,99.46-214.35s104.33,74.51,117.6,136.09,8.39,176.83-39.81,245.05c-57.96,82.02-131.44,60.77-145.35,26.7-10.1-24.72-32.84-119.07-31.89-193.48Z"/></svg>