<?xml version="1.0" encoding="UTF-8"?><svg id="Layer_1" xmlns="http://www.w3.org/2000/svg" viewBox="0 0 687.13 705.55"><defs><style>.cls-1{fill:#fff;}</style></defs><path class="cls-1" d="m684.95,304.35c-10.25-32.55-56.11-62.57-60.55-75.99s-2.45-71.37-14.58-90.67-59.39-46.08-114.3-31.42c-35.52,9.48-84.88,102.46-115.32,166.96,23.85-75.11,54.51-183.81,41.89-211.28-19.78-43.05-82.29-70.03-114.84-59.78s-62.57,56.11-75.99,60.55-71.37,2.45-90.67,14.58c-19.3,12.13-46.08,59.39-31.42,114.3,8.82,33.05,94.51,79.82,161.35,111.83-73.15-31.2-171.96-69.21-199.19-59.7C26.61,259.34-6.15,319.03.98,352.4c7.12,33.37,49.94,67.59,53.09,81.37s-4.31,71.29,5.94,91.64c10.25,20.36,54.76,51.49,110.81,42.08,36.61-6.14,100.98-98.47,141.22-161.76-20.99,36.19-58.73,101.43-69.05,120.5-34.82,64.39-130.69,126.57-130.69,126.57l32.5,57.52s83.09-88.43,111.57-143.93c28.19-54.93,51.46-106.41,66.23-140.44-12.55,72.46-28.56,185.93-11.11,212.34,26.11,39.53,92.01,56.66,122.62,41.56,30.6-15.09,53.27-65,65.86-71.43s70.17-13.3,87.39-28.24c17.22-14.93,29.95-61.26,7.08-113.29-9.52-21.66-53.04-47.23-100.6-69.72,56.04,17.49,112.06,30.88,131.32,22.03,43.05-19.78,70.03-82.29,59.78-114.84Z"/></svg>