<?xml version="1.0" encoding="UTF-8"?><svg id="Layer_1" xmlns="http://www.w3.org/2000/svg" viewBox="0 0 269.91 237.15"><defs><style>.cls-1{fill:#fff;}</style></defs><path class="cls-1" d="m266.47,212.14L148.8,8.34c-6.42-11.12-22.46-11.12-28.88,0L2.26,212.14c-6.42,11.12,1.6,25.01,14.44,25.01h235.33c12.84,0,20.86-13.89,14.44-25.01ZM124.86,50.03h19.01c2.9,0,5.21,2.41,5.08,5.31l-4.78,109.83c-.12,2.72-2.36,4.86-5.08,4.86h-7.31c-2.68,0-4.91-2.09-5.07-4.77l-6.92-109.83c-.18-2.93,2.14-5.4,5.07-5.4Zm9.51,164.61c-9.44,0-17.09-7.65-17.09-17.09s7.65-17.09,17.09-17.09,17.09,7.65,17.09,17.09-7.65,17.09-17.09,17.09Z"/></svg>