<?xml version="1.0" encoding="UTF-8"?><svg id="Layer_1" xmlns="http://www.w3.org/2000/svg" viewBox="0 0 62.51 58.65"><defs><style>.cls-1{fill:#fff;}</style></defs><polygon class="cls-1" points="36.1 0 36.1 7.24 23.38 7.24 23.38 7.19 18.29 7.19 18.29 7.24 18.29 12.33 18.29 17.46 23.38 17.46 23.38 12.33 36.1 12.33 36.1 48.72 48.99 53.56 23.38 53.56 23.38 48.43 18.29 48.43 18.29 53.56 18.29 58.65 18.29 58.7 23.38 58.7 23.38 58.65 62.51 58.65 62.51 53.56 62.51 9.93 36.1 0"/><polygon class="cls-1" points="28.29 30.33 12.11 30.33 9.59 30.31 14.51 25.56 10.59 21.84 0 32.84 10.59 43.84 14.87 40.56 9.58 35.41 28.29 35.41 28.29 30.33"/></svg>