<?xml version="1.0" encoding="UTF-8"?><svg id="Layer_1" xmlns="http://www.w3.org/2000/svg" viewBox="0 0 102.33 100.97"><defs><style>.cls-1{fill:#fff;}</style></defs><path class="cls-1" d="m40.68,42.88h0c-16.04,0-29.04,13.01-29.04,29.05s13.01,29.04,29.05,29.04,29.04-13.01,29.04-29.04-13-29.04-29.04-29.04h0Zm0,46.54h0c-9.67,0-17.5-7.84-17.5-17.5s7.84-17.5,17.5-17.5,17.5,7.83,17.5,17.5-7.83,17.5-17.5,17.51h0Z"/><path class="cls-1" d="m48.52,60.3h0c-.37-.25-.76-.49-1.16-.7-1.21-.66-2.51-1.13-3.85-1.4-1.86-.38-3.78-.38-5.65,0-1.35.27-2.65.75-3.85,1.4-.4.22-.78.45-1.16.7-5.12,3.47-7.37,9.88-5.54,15.78.13.44.29.87.47,1.29,1.42,3.36,4.1,6.03,7.46,7.46.42.18.85.33,1.29.47,2.71.84,5.62.84,8.33,0,.44-.14.87-.29,1.29-.47,3.36-1.42,6.03-4.1,7.46-7.46.18-.42.33-.85.47-1.29.28-.89.46-1.81.56-2.73.05-.47.07-.95.07-1.43,0-4.66-2.31-9.01-6.17-11.62h-.01Z"/><polygon class="cls-1" points="65.02 43.13 64.69 42.87 64.56 43 65.02 43.13"/><path class="cls-1" d="m53.02,38.24l-11.34-9.01V1.53h-12.26l-1.28,31.88c-6.2,3.34-12.05,7.32-17.44,11.86C7.39,48.35,0,61.89,0,61.89l5.47,3.41s7.96-15.86,16.63-20.94c8.02-4.37,17.27-5.89,26.27-4.33l6.21,1.78h0s4.14,1.19,4.14,1.19l.13-.13-5.83-4.63Z"/><polygon class="cls-1" points="102.33 28.59 92.02 15.06 81.7 1.53 71.39 15.06 61.08 28.59 72.17 28.59 72.17 70.05 91.24 70.05 91.24 28.59 102.33 28.59"/></svg>