<svg width="70" height="78" viewBox="0 0 70 78" fill="none" xmlns="http://www.w3.org/2000/svg">
<g clip-path="url(#clip0_4389_41682)">
<path d="M48.0398 10.9992L32 2.07031L32.0799 20.0701L48.0398 10.9992Z" fill="white"/>
<path d="M55.3946 13.7299L50.9293 19.3261C55.7144 22.3802 59.6109 26.9211 61.8413 32.6095C67.4592 46.9375 60.3961 63.1119 46.0682 68.7299C31.7402 74.3479 15.575 67.2811 9.95709 52.9532C4.33913 38.6252 11.4022 22.4507 25.7302 16.8328C29.5566 15.3324 33.516 14.7467 37.3771 14.9513L34.5773 7.81062C30.7564 7.95536 26.8923 8.72933 23.1311 10.2041C5.13503 17.2603 -3.7371 37.5598 3.31912 55.5559C10.3753 73.552 30.6841 82.4204 48.6802 75.3642C66.6763 68.308 75.5448 47.9992 68.4886 30.0031C65.7836 23.1045 61.1252 17.5518 55.4039 13.7263L55.3946 13.7299Z" fill="white"/>
<path d="M52 42L27.25 58.4545L27.25 25.5455L52 42Z" fill="white"/>
</g>
<defs>
<clipPath id="clip0_4389_41682">
<rect width="69.99" height="77.95" fill="white"/>
</clipPath>
</defs>
</svg>
