<?xml version="1.0" encoding="UTF-8"?><svg id="Layer_1" xmlns="http://www.w3.org/2000/svg" viewBox="0 0 34 41"><defs><style>.cls-1{fill:#fff;}</style></defs><path class="cls-1" d="m16.12,1.45c4.46,0,8.49,1.81,11.41,4.73l-3.52,3.59c-2.01-2.04-4.8-3.3-7.89-3.3-6.12,0-11.09,4.96-11.09,11.09,0,6.12,4.96,11.09,11.09,11.09,6.12,0,11.09-4.96,11.09-11.09,0-.11,0-.22,0-.33l4.33-4.4c.46,1.49.71,3.08.71,4.73,0,11.54-16.12,22.92-16.12,22.92C16.12,40.48,0,29.11,0,17.57,0,8.67,7.22,1.45,16.12,1.45Zm12.3,5.71c1.08,1.28,1.97,2.73,2.61,4.3l-4.01,4.08c-.33-1.77-1.08-3.4-2.14-4.77l3.54-3.62Z"/><path class="cls-1" d="m6.73,16.79l3.96-3.84,5.64,6.14,13.09-13.18,3.56,3.8-16.65,16.93-9.6-9.85Z"/></svg>