<?xml version="1.0" encoding="UTF-8"?><svg id="Layer_1" xmlns="http://www.w3.org/2000/svg" viewBox="0 0 351.12 313.6"><defs><style>.cls-1{fill:#fff;}</style></defs><polygon class="cls-1" points="240.72 113.09 221.93 131.06 231.47 140.61 232.73 141.86 232.73 141.86 237.16 137.29 240.41 133.92 244.96 129.22 251.15 122.82 303.95 68.21 299.97 64.23 295.99 60.24 295.99 60.24 295.99 60.24 240.72 113.09"/><path class="cls-1" d="m254.94,127l-10.44,10.8c4.67,7.59,13.63,23.02,17.76,36,5.73,18,4.12,40.03,4.12,40.03l-19.4,4.05s-1.47-29.02-3.31-39.31c-1.63-9.11-11.77-27.73-14.06-31.87-.3-.53-.47-.84-.47-.84l-15.08-15.08-1.91-1.91-15.08,15.55h0s15.01,22.7,20.74,40.7c5.73,18,4.12,40.03,4.12,40.03l-19.4,4.05s-1.47-29.02-3.31-39.31-14.53-32.71-14.53-32.71l-4.76-4.76-14.16-14.16-19.82-13.58,18.72-7.91,13.24,9.83,32.96-31.62c-14.21-5.97-29.82-9.27-46.2-9.27-65.94,0-119.39,53.45-119.39,119.39,0,0-4.37,48.23,119.39,48.23s119.39-48.23,119.39-48.23c0-29.88-10.99-57.19-29.13-78.13Z"/><polygon class="cls-1" points="184.62 149.17 208.21 124.84 219.52 113.17 228.32 104.1 236.07 96.1 261.8 69.56 258.61 66.38 253.84 61.6 216.42 97.5 173.82 138.36 184.62 149.17"/></svg>