<?xml version="1.0" encoding="UTF-8"?><svg id="Layer_1" xmlns="http://www.w3.org/2000/svg" viewBox="0 0 21.99 19.93"><defs><style>.cls-1{fill:#fff;}.cls-2{fill:#181818;}</style></defs><path class="cls-2" d="m21.98,2.16v-.51s-.02-.38-.02-.38l-.28-.26-.79-.75-.27-.25h-.37s-.52.02-.52.02h-.37s-.26.27-.26.27l-.76.78-.27.27v.38s.01.13.01.13l-2.07,2.12-.21-.1-.93-1.33-.14-.14-.27-.25h-.37s-.52.02-.52.02h-.37s-.26.27-.26.27l-.51.52-.26.27v.38s.01.51.01.51v.19s-.57-.68-.57-.68l-.69-.82-.69.82-.45.53v-.06s0-.51,0-.51v-.38s-.26-.27-.26-.27l-.51-.52-.26-.26h-.37s-.52-.02-.52-.02h-.37s-.27.25-.27.25l-.13.13-.93,1.34-.22.1-1.69-1.72h0s-.39-.4-.39-.4v-.13s0-.38,0-.38l-.27-.27-.76-.78L2.61.02h-.37S1.72,0,1.72,0h-.37s-.27.25-.27.25l-.79.75L.02,1.27v.38s-.02.51-.02.51v.38s.26.27.26.27l.76.78.26.26h.37s.15,0,.15,0l2.07,2.11-.16.3-.15.14h-.15s-.37,0-.37,0l-.27.26-.52.5-.27.26v.38s-.02.51-.02.51v.38s.26.27.26.27l.51.52.26.26h.37s.52.02.52.02h.37s.27-.25.27-.25l.53-.5.27-.26v-.38s0-.13,0-.13l.11-.11.04.02.51.52-1.23,1.46-.49.58.49.58,1.66,1.97-3.55,3.62-.19.2-.05.27-.24,1.28v.05s.27.77.27.77l.07.07.08.08.11.1.79.23h.02s1.29-.28,1.29-.28l.27-.06.19-.19,3.3-3.36,1.47,1.74.27.32h.84l.27-.32,1.52-1.8,3.35,3.43.19.19.27.06,1.29.28.08.02.74-.25.13-.12.4-.94h0s-.23-1.28-.23-1.28l-.05-.27-.19-.2-3.61-3.69,1.61-1.91.49-.58-.49-.58-1.17-1.39.57-.58.05-.02.12.11v.13s0,.38,0,.38l.28.26.53.5.27.25h.37s.52-.02.52-.02h.37s.26-.27.26-.27l.51-.52.26-.27v-.38s-.02-.51-.02-.51v-.38s-.28-.26-.28-.26l-.1-.1-1.41-.89-.1-.19,1.97-2.01.1-.1h.15s.37,0,.37,0l.26-.27.76-.78.26-.27v-.38Zm-1.67.79h-.01s-.45,0-.45,0h0s-.05,0-.05,0h0s-.35.37-.35.37l-2.43,2.49.54,1.01.53.5h.52s.52.49.52.49v.25s0,.25,0,.25l-.51.52h-.5s-.02,0-.02,0l-.53-.5v-.51s-.31-.29-.31-.29l-.17-.16-.32-.3h-.04s0,0,0,0l-.74.26-1.29,1.32.85,1.01.85,1.01-1.85,2.19-.3.36.51.49,1.84,1.88,1.85,1.89.23,1.28-.08.08-.05.05h0s-.04.04-.04.04l-.09.08-.97-.21-.31-.07-3.61-3.69-.47-.41-2.13,2.52h0l-2.1-2.48-4,4.06-1.29.28-.06-.06-.19-.18h0s.08-.46.08-.46l.15-.82,3.73-3.8.39-.42-2.18-2.58,1.76-2.08-1.23-1.26-.7-.25h0s-.06-.02-.06-.02h0s-.78.75-.78.75v.51s-.11.1-.11.1l-.43.41h-.52s-.51-.53-.51-.53v-.51s.51-.48.51-.48l.03-.02h.52s.01,0,.01,0l.51-.49.53-1.01-.91-.92-1.88-1.92h-.52s-.76-.78-.76-.78v-.38s0-.13,0-.13l.4-.39.38-.37h.52s.31.32.31.32l.46.47v.51s0,0,0,0l.36.36.6.61h0l1.84,1.87.42-.2.62-.29.52-.5v-.13s0-.38,0-.38l.2-.19.32-.31h.34s.18,0,.18,0l.51.52v.34s0,.17,0,.17l-.52.5h-.52s-.33.31-.33.31l-.45.43.08.26.16.5,1.09,1.12h0l2.54-3,1.83,2.16.77.91,1.16-1.18.1-.33.14-.44h0s0,0,0,0h0s0,0,0,0h0s-.79-.75-.79-.75h-.52s-.53-.49-.53-.49v-.51s.5-.52.5-.52h.52s.53.49.53.49v.51s.37.34.37.34l.17.16,1.04.49,2.79-2.85v-.2s0-.31,0-.31l.76-.78h.52s.41.38.41.38l.38.36v.17s0,.34,0,.34l-.76.78Z"/><polygon class="cls-1" points="21.07 1.66 20.68 1.29 20.28 .91 19.76 .92 19 1.7 19.01 2 19.01 2.21 16.22 5.06 15.18 4.57 15.01 4.41 14.65 4.07 14.64 3.56 14.12 3.06 13.6 3.07 13.09 3.59 13.1 4.1 13.63 4.6 14.15 4.59 14.93 5.34 14.93 5.34 14.94 5.34 14.94 5.34 14.94 5.34 14.94 5.34 14.94 5.34 14.8 5.77 14.69 6.1 13.54 7.28 12.76 6.36 10.94 4.2 8.39 7.21 8.39 7.21 7.3 6.09 7.14 5.59 7.06 5.32 7.51 4.89 7.85 4.57 8.36 4.58 8.89 4.08 8.89 3.91 8.9 3.57 8.39 3.05 8.21 3.05 7.87 3.04 7.55 3.35 7.35 3.54 7.34 3.93 7.34 4.05 6.81 4.55 6.19 4.85 5.77 5.05 3.93 3.17 3.93 3.17 3.34 2.56 2.98 2.2 2.98 2.2 2.99 1.69 2.53 1.23 2.22 .92 1.71 .91 1.32 1.27 .92 1.66 .92 1.79 .91 2.17 1.67 2.94 2.19 2.95 4.08 4.87 4.98 5.8 4.45 6.81 3.94 7.3 3.93 7.31 3.41 7.3 3.38 7.32 2.88 7.8 2.87 8.31 3.38 8.83 3.9 8.83 4.33 8.43 4.43 8.33 4.43 7.82 5.22 7.08 5.22 7.07 5.28 7.1 5.28 7.1 5.99 7.34 7.22 8.6 5.45 10.68 7.64 13.26 7.25 13.68 3.52 17.49 3.36 18.31 3.28 18.77 3.29 18.77 3.48 18.96 3.54 19.02 4.83 18.74 8.83 14.68 10.93 17.16 10.94 17.16 13.07 14.64 13.53 15.06 17.14 18.75 17.46 18.81 18.43 19.02 18.52 18.94 18.56 18.9 18.56 18.9 18.61 18.85 18.69 18.77 18.46 17.5 16.61 15.6 14.77 13.72 14.26 13.23 14.56 12.87 16.42 10.68 15.56 9.68 14.71 8.67 16 7.35 16.74 7.09 16.74 7.09 16.78 7.09 17.1 7.39 17.26 7.55 17.57 7.83 17.58 8.34 18.1 8.84 18.12 8.84 18.62 8.83 19.13 8.31 19.12 8.06 19.12 7.8 18.59 7.31 18.08 7.32 17.55 6.82 17.01 5.81 19.44 3.32 19.8 2.96 19.8 2.96 19.85 2.96 19.85 2.96 20.3 2.95 20.32 2.95 21.08 2.17 21.07 1.83 21.07 1.66"/></svg>