<?xml version="1.0" encoding="UTF-8"?><svg id="Layer_1" xmlns="http://www.w3.org/2000/svg" viewBox="0 0 37.93 37.85"><defs><style>.cls-1{fill:#fff;}</style></defs><path class="cls-1" d="m3.69,24.66h14.38v1.22c0,1.38-1.12,2.49-2.49,2.49H6.18c-1.38,0-2.49-1.12-2.49-2.49v-1.22h0Z" transform="translate(21.94 .07) rotate(45)"/><rect class="cls-1" x="4.45" y="27.12" width="3.96" height="7.68" transform="translate(23.78 4.52) rotate(45)"/><path class="cls-1" d="m-.75,33.55h5.48v.98c0,1.51-1.23,2.74-2.74,2.74h0c-1.51,0-2.74-1.23-2.74-2.74v-.98h0Z" transform="translate(25.62 8.96) rotate(45)"/><polygon class="cls-1" points="15.28 27.42 9.98 22.11 27.92 4.17 37.4 0 33.22 9.48 15.28 27.42"/><path class="cls-1" d="m20,24.66h14.38v1.22c0,1.38-1.12,2.49-2.49,2.49h-9.39c-1.38,0-2.49-1.12-2.49-2.49v-1.22h0Z" transform="translate(-10.79 26.99) rotate(-45)"/><rect class="cls-1" x="29.66" y="27.12" width="3.96" height="7.68" transform="translate(-12.63 31.44) rotate(-45)"/><path class="cls-1" d="m33.34,33.55h5.48v.98c0,1.51-1.23,2.74-2.74,2.74h0c-1.51,0-2.74-1.23-2.74-2.74v-.98h0Z" transform="translate(-14.47 35.88) rotate(-45)"/><g><polygon class="cls-1" points="10.15 4.17 .68 0 4.85 9.48 13.22 17.85 18.52 12.54 10.15 4.17"/><rect class="cls-1" x="20.09" y="20.9" width="7.5" height="4.53" transform="translate(-9.4 23.64) rotate(-45)"/></g></svg>