<?xml version="1.0" encoding="UTF-8"?><svg id="Layer_1" xmlns="http://www.w3.org/2000/svg" viewBox="0 0 50.35 40.03"><defs><style>.cls-1,.cls-2{fill:#fff;}.cls-2{fill-rule:evenodd;}</style></defs><g><rect class="cls-1" x="21.39" y="29.44" width="5.68" height="3.14"/><rect class="cls-1" x="21.39" y="33.48" width="5.68" height="6.03"/><rect class="cls-1" x="39.56" y="29.44" width="5.68" height="3.14"/><rect class="cls-1" x="27.89" y="34.76" width="10.75" height="2.46"/><polygon class="cls-2" points="38.64 33.69 27.89 33.69 27.89 28.62 23.39 28.62 24.23 25.66 42.6 25.66 43.38 28.62 38.64 28.62 38.64 33.69"/><rect class="cls-1" x="39.56" y="33.48" width="5.68" height="6.03"/><polygon class="cls-2" points="26.46 24.9 40.49 24.9 40.49 23.34 43.38 22.41 43.38 21.95 50.35 19.62 49.99 18.62 42.96 20.84 42.4 20.23 39.39 20.8 39.03 19.9 35.71 19.9 35.46 18.62 31.5 18.62 31.07 19.9 29 19.9 26.46 24.9"/></g><g><path class="cls-1" d="m4.77,26.69l.03.05c.42-.1.85-.17,1.27-.29,1.36-.42,2.68-.95,3.96-1.57.91-.41,1.82-.81,2.74-1.21.6-.27,1.28-.26,1.88.02.44.19.88.38,1.31.59,1.63.82,3.33,1.5,5.08,2.03.47.13.94.25,1.44.38-.03-.07-.04-.09-.05-.12-.59-1.11-1.17-2.22-1.75-3.33-.04-.08-.13-.13-.22-.11-.61,0-1.22,0-1.83,0-.1.01-.2-.05-.22-.14-.31-.71-.63-1.42-.94-2.13-.02-.09-.12-.15-.21-.14-.31,0-.63,0-.95,0v-1.81h1.18v-.21c0-.73-.01-1.46,0-2.19.03-.25-.09-.5-.3-.64-.34-.28-.72-.51-1.13-.68-.22-.07-.45-.11-.68-.16v-2.44h.2c.54,0,1.08,0,1.62,0,.09,0,.17-.02.25-.07.6-.34,1.19-.69,1.78-1.04.04-.02.08-.06.12-.08v-.03h-3.06c0-.07,0-.13,0-.19,0-.63,0-.65-.61-.85-.48-.15-.98-.25-1.5-.38v-2.48h-.91v2.53c-.13.02-.25.03-.36.04-.57.05-1.12.21-1.62.49-.1.05-.16.15-.14.26,0,.19,0,.38,0,.59h-3.08l-.03.05s.05.01.07.03c.55.36,1.09.73,1.64,1.09.07.04.14.05.22.05.5,0,.99,0,1.49,0h.59v2.47c-.75.07-1.46.41-1.99.95-.07.07-.1.16-.11.26,0,.82,0,1.64,0,2.46v.2h1.2v1.79c-.07.01-.13.03-.19.04-.52.06-1.03.11-1.55.2-.19.03-.39,0-.56-.11-.57-.33-1.15-.64-1.72-.96-.56-.31-1.13-.62-1.71-.94l-.36.63c.07.05.12.08.18.12,1.12.67,2.23,1.34,3.35,2.01q.39.24.26.67c-.11.36-.22.72-.34,1.09l-5.64-3.09-.35.65,3.86,2.27-.68,1.46L.35,21.8l-.35.63,5.31,3.15-.53,1.1Z"/><path class="cls-1" d="m18.31,26.16c-1.14-.56-2.31-1.04-3.51-1.44-.71-.25-1.49-.24-2.2.02-.48.18-.97.33-1.44.53-1.78.78-3.55,1.58-5.32,2.36-1.09.53-2.23.93-3.41,1.19.04.05.07.1.11.15,1.48,1.82,2.95,3.64,4.43,5.46.23.28.44.58.7.84.11.11.16.26.15.41,0,.24,0,.47,0,.72h11.79c0-.32,0-.63,0-.94,0-.1.04-.2.1-.29.28-.35.57-.7.85-1.05v-5.45h1.95l.16-.49c-1.45-.66-2.89-1.33-4.34-2.01Z"/></g><polygon class="cls-2" points="41.32 18.86 47.05 15.27 41.03 14.8 47.36 8.83 39.79 10.72 40.4 0 32.36 10.51 23 5.52 26.19 13.26 18.6 13.59 23.92 18.84 19.44 19.56 26.46 22.37 28.06 19.1 26.83 17.53 30.14 17.22 30.18 14.25 32.44 16.56 34.71 12.93 34.27 17.06 36.65 15.06 35.87 17.87 38.31 17.41 37.59 18.62 41.32 18.86"/></svg>