<?xml version="1.0" encoding="UTF-8"?><svg id="Layer_1" xmlns="http://www.w3.org/2000/svg" viewBox="0 0 53.53 42.71"><defs><style>.cls-1,.cls-2{fill:#fff;}.cls-2{fill-rule:evenodd;}</style></defs><path id="score_icon" class="cls-2" d="m26.96,5.18l3.99,8.05,8.92,1.29-6.46,6.27,1.52,8.85-7.98-4.18-7.98,4.18,1.52-8.85-6.46-6.27,8.92-1.29,3.99-8.05Z"/><path class="cls-1" d="m46.18,39.2s-7.57,2.07-12.44-.36c-4.87-2.43-5.23-6.85-5.23-6.85,0,0,3.51-3.42,8.83-1.08,5.31,2.34,8.83,8.29,8.83,8.29h0Z"/><path class="cls-1" d="m52.45,25.27s-4.73,4.91-9.44,5.26-6.94-2.79-6.94-2.79c0,0,1.1-4.11,6.1-4.73s10.27,2.26,10.27,2.26Z"/><path class="cls-1" d="m53.53,13.23s-1.54,5.31-4.79,7.35c-3.25,2.03-6.04.62-6.04.62,0,0-.77-3.37,2.6-5.71s8.23-2.26,8.23-2.26h0Z"/><path class="cls-1" d="m46.57,1.34s1.93,5.19.52,8.76c-1.41,3.57-4.49,4.09-4.49,4.09,0,0-2.62-2.25-1.31-6.13s5.28-6.72,5.28-6.72Z"/><path class="cls-1" d="m7.03,39.2s7.57,2.07,12.44-.36c4.87-2.43,5.23-6.85,5.23-6.85,0,0-3.51-3.42-8.83-1.08-5.31,2.34-8.83,8.29-8.83,8.29h0Z"/><path class="cls-1" d="m1.08,25.59s4.73,4.91,9.44,5.26,6.94-2.79,6.94-2.79c0,0-1.1-4.11-6.1-4.73s-10.27,2.26-10.27,2.26Z"/><path class="cls-1" d="m0,13.55s1.54,5.31,4.79,7.35c3.25,2.03,6.04.62,6.04.62,0,0,.77-3.37-2.6-5.71S0,13.54,0,13.54h0Z"/><path class="cls-1" d="m6.96,1.65s-1.93,5.19-.52,8.76c1.41,3.57,4.49,4.09,4.49,4.09,0,0,2.62-2.25,1.31-6.13S6.96,1.65,6.96,1.65Z"/></svg>