<?xml version="1.0" encoding="UTF-8"?><svg id="Layer_1" xmlns="http://www.w3.org/2000/svg" viewBox="0 0 30 17.02"><defs><style>.cls-1{fill:#fff;}</style></defs><path class="cls-1" d="m29.07,4.26v-1.01h-8.05v-1.53h.93v.61h8.05v2.87h-8.05v.3h-.81l.41,2.32,5.97,1.13v.26c.24.12.47.28.68.49.4.41.67.94.78,1.6l.03.25c.11,1.22-.49,2.13-1.05,2.69-.3.3-.61.51-.84.66-.12.07-.22.13-.3.17-.04.02-.07.04-.1.05,0,0,0,0-.01,0l-3.31,1.8-.21.11H3.72l-.12-.03.25-.9h19.11l3.34-1.82s2.08-.94,1.77-2.83c-.16-.97-.76-1.42-1.43-1.6v-.12s-5.89-1.11-5.89-1.11l-.54-3.03-1.27-1.01h2.08v-.3h8.05ZM10.23,0h5.83l.11.03,3.7.88v.82h1.15v.93h-2.08v-1.01l-2.99-.71h-4.79v3.33l-.54.71h-6.51l-2.35,1.21-.45,1.62,1.07,2.91c-.67.42-1.17,1.06-1.17,2.06,0,2.59,2.64,3.32,2.64,3.32q-.25.9-.25.9h0s0,0,0,0c0,0,0,0-.01,0,0,0-.02,0-.04-.01-.03,0-.07-.02-.11-.04-.09-.03-.22-.08-.37-.15-.3-.13-.7-.34-1.1-.65-.77-.59-1.58-1.57-1.68-3.06v-.31c-.01-1.05.4-1.82.98-2.38l-.94-2.55.64-2.3.36-.19,2.55-1.32h6.28l.07-.09V0Zm-2.53,13.55l.73,1.82h-2.54l.73-1.82h1.09Zm7.53,0l.73,1.82h-2.54l.73-1.82h1.09Zm5.81,0l.73,1.82h-2.54l.73-1.82h1.09Z"/></svg>