<?xml version="1.0" encoding="UTF-8"?><svg id="Layer_1" xmlns="http://www.w3.org/2000/svg" viewBox="0 0 30 17.02"><defs><style>.cls-1{fill:#fff;}</style></defs><path class="cls-1" d="m18.94,1.64v1.01h2.08v.61h8.05v1.01h-8.05v.3h-2.08l1.27,1.01.54,3.03,5.88,1.11v.12c.67.18,1.28.63,1.44,1.6.31,1.89-1.74,2.82-1.77,2.83l-3.34,1.82H3.84s-2.64-.73-2.64-3.32c0-1.01.49-1.64,1.17-2.06l-1.07-2.91.45-1.62,2.35-1.21h6.51l.54-.71V.93h4.79l2.99.71ZM5.88,15.36h2.54l-.73-1.82h-1.09l-.73,1.82Zm8.26-1.82l-.73,1.82h2.54l-.73-1.82h-1.09Zm5.08,1.82h2.54l-.73-1.82h-1.09l-.73,1.82Z"/></svg>