<?xml version="1.0" encoding="UTF-8"?><svg id="Layer_1" xmlns="http://www.w3.org/2000/svg" viewBox="0 0 77.48 47.48"><defs><style>.cls-1{fill:#fff;}</style></defs><ellipse class="cls-1" cx="39.29" cy="11.81" rx="11.75" ry="11.81"/><g><path class="cls-1" d="m25.01,9.32c.21-1.55.66-3.01,1.29-4.35-1.13-.65-2.39-1.1-3.75-1.28-5.69-.78-10.94,3.24-11.71,8.96s3.22,10.99,8.91,11.77c3.46.47,6.75-.83,8.97-3.21-2.83-3.1-4.32-7.4-3.71-11.9Z"/><path class="cls-1" d="m58.62,2.53c-2.37-.32-4.65.19-6.58,1.3,1.61,2.74,2.36,6.03,1.91,9.43-.4,2.93-1.63,5.54-3.43,7.62,1.46,1.24,3.27,2.1,5.3,2.37,5.7.78,10.94-3.23,11.71-8.96.77-5.72-3.22-10.99-8.91-11.77Z"/></g><path class="cls-1" d="m16.53,47.19s-.71-6.99,3.14-13.42,10.86-8.88,10.86-8.88l8.21,10.76,8.39-10.85s10.08,4.79,11.53,10.09c1.84,6.73,1.44,12.39,1.44,12.39l-43.57-.08Z"/><path class="cls-1" d="m62.68,44.06l13.66.26s.18-6.51-.92-10.98-9.66-8.46-9.66-8.46l-5.93,7.68c.67.86,1.19,1.76,1.44,2.68.93,3.42,1.29,6.56,1.42,8.83Z"/><path class="cls-1" d="m14.41,43.27l-13.66-.34s.1-6.51,1.39-10.93c1.29-4.42,10.02-8.02,10.02-8.02l5.59,7.93c-.71.83-1.26,1.71-1.55,2.61-1.08,3.38-1.57,6.5-1.8,8.76Z"/></svg>