<svg xmlns="http://www.w3.org/2000/svg" width="44" height="57" viewBox="0 0 44 57">
  <defs>
    <style>
      .cls-1 {
        fill: #fff;
        fill-rule: evenodd;
      }
    </style>
  </defs>
  <path class="cls-1" d="M0.869,21.932V37.553s0,19.457,21.178,19.457S43.224,37.553,43.224,37.553V21.932H0.869ZM25.63,46.28H18.462l1.119-9.3a4.368,4.368,0,0,1-1.98-3.649,4.445,4.445,0,0,1,8.889,0,4.368,4.368,0,0,1-1.98,3.649ZM11.892,18.271l-5.7-.1C6.3,11.886,9.726,0,21.953,0A14.475,14.475,0,0,1,32.562,4.1C37.891,9.392,37.9,17.876,37.9,18.235L32.2,18.2a19.2,19.2,0,0,0-1.438-6.735,8.856,8.856,0,0,0-8.811-5.843C12.278,5.623,11.9,17.755,11.892,18.271Z"/>
</svg>
