<?xml version="1.0" encoding="UTF-8"?><svg id="Layer_1" xmlns="http://www.w3.org/2000/svg" viewBox="0 0 49.17 71.23"><defs><style>.cls-1{fill:#d1d1d1;}.cls-2{fill:#7faeff;}.cls-3{fill:#33363a;}</style></defs><path class="cls-1" d="m41.21,38.69v-19.4c0-6.14-4.99-11.13-11.13-11.13h-10.99c-6.14,0-11.13,4.99-11.13,11.13v19.4l-7.96,7.96,24.58,24.58,24.58-24.58-7.96-7.96ZM12.69,19.29c0-3.53,2.87-6.4,6.4-6.4h10.99c3.53,0,6.4,2.87,6.4,6.4v14.66l-11.89-11.89-11.89,11.89v-14.66ZM3.86,46.96l20.72-20.72,20.72,20.72-20.72,20.72L3.86,46.96Z"/><g><rect class="cls-3" x="11.43" y="33.81" width="26.3" height="26.3" transform="translate(-26 31.14) rotate(-45)"/><path class="cls-2" d="m24.58,30.48l16.48,16.48-16.48,16.48-16.48-16.48,16.48-16.48m0-4.24L3.86,46.96l20.72,20.72,20.72-20.72-20.72-20.72h0Z"/></g></svg>