<?xml version="1.0" encoding="UTF-8"?>
<svg id="Layer_4" data-name="Layer 4" xmlns="http://www.w3.org/2000/svg" width="30" height="30" xmlns:xlink="http://www.w3.org/1999/xlink" viewBox="0 0 30 30">
  <defs>
    <style>
      .cls-1 {
        fill: url(#linear-gradient-2);
      }

      .cls-2 {
        fill: #fff5b0;
        opacity: .53;
      }

      .cls-3, .cls-4 {
        fill: #4f2a07;
      }

      .cls-3, .cls-5 {
        opacity: .46;
      }

      .cls-6 {
        opacity: .47;
      }

      .cls-7 {
        fill: #bf874c;
      }

      .cls-8 {
        fill: #965114;
        opacity: .57;
      }

      .cls-9 {
        fill: #603813;
      }

      .cls-4 {
        opacity: .64;
      }

      .cls-10 {
        fill: #a67c52;
      }

      .cls-5 {
        fill: #a6611e;
      }

      .cls-11 {
        fill: #a66f38;
        opacity: .25;
      }

      .cls-12 {
        fill: none;
        stroke: #a67c52;
        stroke-linecap: round;
        stroke-linejoin: round;
      }

      .cls-13 {
        fill: url(#linear-gradient);
      }

      .cls-14 {
        fill: #a6713c;
      }
    </style>
    <linearGradient id="linear-gradient" x1="11.46" y1="7.48" x2="27.62" y2="24.88" gradientUnits="userSpaceOnUse">
      <stop offset="0" stop-color="#f2c785"/>
      <stop offset=".22" stop-color="#edc588"/>
      <stop offset="1" stop-color="#c69c6d"/>
    </linearGradient>
    <linearGradient id="linear-gradient-2" x1="4.42" y1="6.72" x2="10.37" y2="13.12" xlink:href="#linear-gradient"/>
  </defs>
  <polygon class="cls-9" points="1.49 6.02 3.71 17.47 8.68 25.58 22.99 29.37 25.93 25.96 28.04 8.16 22.85 3.87 5.04 4 1.49 6.02"/>
  <g>
    <path class="cls-13" d="M2.99,3.41c.13.27,2.35,13.02,2.35,13.02l3.71,6.55,12.88,3.79,2.65-3.41,1.89-17.8-4.67-4.29-16.03.13-2.78,2.02Z"/>
    <path class="cls-12" d="M2.99,3.41c.13.27,2.35,13.02,2.35,13.02l3.71,6.55,12.88,3.79,2.65-3.41,1.89-17.8-4.67-4.29-16.03.13-2.78,2.02Z"/>
    <g class="cls-6">
      <path class="cls-10" d="M21.41,2.27l4.01,3.68-1.81,17.01-2.06,2.65-11.83-3.48-3.43-6.05c-1.38-7.94-1.94-11.02-2.19-12.25l1.99-1.45,15.32-.12M21.8,1.26l-16.03.13-2.78,2.02c.13.27,2.35,13.02,2.35,13.02l3.71,6.55,12.88,3.79,2.65-3.41,1.89-17.8-4.67-4.29h0Z"/>
    </g>
  </g>
  <polygon class="cls-11" points="9.58 2.08 14.47 1.3 5.6 16.82 5.28 3.51 6.75 1.46 9.58 2.08"/>
  <polygon class="cls-5" points="11.93 1.23 6.38 17.8 5.47 16.16 3.51 3.84 4.99 1.78 11.93 1.23"/>
  <polygon class="cls-9" points="26.76 9.3 23.95 10.74 26.61 13.22 26.76 9.3"/>
  <polygon class="cls-9" points="16.32 26.82 15.51 23.06 11.75 25.42 16.32 26.82"/>
  <path class="cls-8" d="M14.47,14.27c0,1.22-1.85,2.09-3.65,2.09s-4.7,1.22-4.7,0,1.4-8.64,2.61-7.3c2.35,2.61,5.74,3.99,5.74,5.22Z"/>
  <polygon class="cls-2" points="3.51 3.84 7.82 5.27 7.69 7.36 3.51 3.84"/>
  <polygon class="cls-3" points="5.77 1.39 2.99 3.67 7.43 4.36 5.77 1.39"/>
  <g>
    <path class="cls-1" d="M5.84,15.83c-.21-.03-.38-.18-.43-.39L2.93,4.06c-.04-.17.02-.35.15-.48.09-.09.21-.13.34-.13.05,0,.1,0,.15.02l6.97,2.18c.14.04.25.15.31.28.06.13.05.29,0,.42l-4.49,9.21c-.08.17-.26.28-.45.28-.02,0-.04,0-.06,0Z"/>
    <path class="cls-14" d="M3.42,3.95l6.97,2.18-4.49,9.21L3.42,3.95M3.42,2.95c-.25,0-.49.09-.68.26-.26.24-.38.6-.3.95l2.48,11.39c.09.42.43.73.86.78.04,0,.08,0,.12,0,.38,0,.73-.22.9-.56l4.49-9.21c.13-.26.13-.57.02-.83-.12-.27-.34-.47-.62-.56L3.72,3c-.1-.03-.2-.05-.3-.05h0Z"/>
  </g>
  <polygon class="cls-4" points="10.98 6.72 7.13 18.98 5.83 16.76 10.98 6.72"/>
  <g>
    <path class="cls-7" d="M13,9.76c.61,1.77,2.34,2.38,3.87,2.93,1.21.43,2.35.83,2.66,1.68.31.84-.37,1.87-1.18,2.34-.24.14-.5.25-.77.35l1.58,1.48c.07-.04.14-.07.2-.11,1.51-.89,2.75-2.85,2.05-4.75-.64-1.73-2.35-2.34-3.86-2.88-1.46-.52-2.37-.89-2.65-1.69-.26-.76.26-1.69.89-2.39l-1.95-.76c-.91,1.25-1.23,2.61-.83,3.79Z"/>
    <path class="cls-7" d="M15.94,3.87l1.19,1.62c.69-.6,1.37-1.25,1.86-2.12.27-.49.44-1.05.49-1.61-.02,0-.03,0-.05,0l-1.97-.05c-.04.25-.11.49-.22.69-.3.54-.78,1.01-1.3,1.47Z"/>
    <path class="cls-7" d="M16.4,19.36l-.5-1.95c-.37.05-.74.08-1.13.12h-.1c-2.09.2-4.31.51-6.36,1.2l.83,1.82c1.79-.57,3.79-.85,5.81-1.03.46-.04.95-.09,1.44-.16Z"/>
  </g>
</svg>