<svg width="40" height="40" viewBox="0 0 40 40" fill="none" xmlns="http://www.w3.org/2000/svg">
<g clip-path="url(#clip0_754_8741)">
<path d="M24.9866 12.1792L15.6641 27.9642H7.39765L7.04876 27.731C6.3825 27.2865 5.38278 26.612 4.55011 26.0325C4.13569 25.744 3.75156 25.4712 3.46848 25.26C3.33033 25.157 3.19632 25.0543 3.09066 24.9647C3.04277 24.9241 2.96808 24.8589 2.89601 24.7823C2.86432 24.7486 2.79177 24.6691 2.7209 24.5585C2.68576 24.5036 2.62305 24.3988 2.57408 24.2558C2.53768 24.1494 2.47858 23.9318 2.5101 23.6564V23.6538C2.51134 23.6263 2.51246 23.5795 2.51347 23.5108C2.51546 23.375 2.5158 23.1899 2.51481 22.9809C2.51286 22.5649 2.50632 22.0801 2.50068 21.7608L2.48923 21.1414L4.4181 19.3988V17.9308L0 17.4144V13.9459H14.4942L15.3159 13.0285H17.5014V12.1792H24.9866Z" fill="white"/>
<path d="M30.8438 15.4419L40.0068 15.4897L39.9854 19.5327L33.4492 19.4985L33.8809 22.3491L29.5078 23.9175L29.3809 23.9185L29.668 24.939L29.0244 25.1245H29.9658L33.0352 28.5112H35.1016V32.4175H30.9395V34.3159L20.2178 34.4194L20.5596 31.6392L20.624 31.1138L16.6201 25.1919L18.3047 22.0503L18.5264 21.9888V17.4214L19.5107 17.4038L19.4561 17.3315L20.9316 14.5376L28.8613 14.0591L30.8438 15.4419Z" fill="white"/>
<path d="M28.0657 11.0261L14.6002 34.1648L11.1543 32.191L24.6804 9.01758L28.0657 11.0261Z" fill="white"/>
</g>
<defs>
<clipPath id="clip0_754_8741">
<rect width="40" height="26" fill="white" transform="translate(0 9)"/>
</clipPath>
</defs>
</svg>
