<svg width="40" height="40" viewBox="0 0 40 40" fill="none" xmlns="http://www.w3.org/2000/svg">
<path d="M28.4619 15.6035L30.4033 16.957L38.6211 17L38.6133 18.3066L31.8447 18.2705L32.3477 21.5918L29.2559 22.7012L27.5723 22.7246L27.9727 24.1514L21.4746 26.0254L22.5703 27.5625H24.2324L27.9727 31.6855H29.5596V33.1104L21.7773 33.1846L21.9277 31.9541L22.5703 31.6855L18.5 26.5L20.5 23L22.3926 22.4834C22.3542 22.1259 22.3537 21.7001 22.1885 21.7246C21.9683 21.7574 22.018 21.7564 21.3486 21.7246L25 15.5L28.4619 15.6035ZM26.1914 11.6572L14.0938 32.4434L13.0391 31.8398L25.1357 11.0527L26.1914 11.6572ZM27.9873 26.6416H29.3506L32.4199 30.0283H33.7217V31.1982H28.4268L28.4512 30.0283H28.9932L25.0264 25.6504L26.6885 25.2383L27.9873 26.6416ZM14.873 26.7441H7.81836C6.49598 25.862 3.85945 24.0716 3.87891 23.958C3.90631 23.8493 3.89032 22.5304 3.87891 21.8848L5.79688 20.1514V19.166H14.1201L14.3213 18.4189H11.1055L10.3867 17.3994L1.37891 16.3457V15.4629H15.1133L15.9346 14.5449H18.8809V13.6963H22.5791L14.873 26.7441Z" fill="white"/>
</svg>
