<?xml version="1.0" encoding="UTF-8"?><svg id="Layer_1" xmlns="http://www.w3.org/2000/svg" viewBox="0 0 40 17.07"><defs><style>.cls-1{fill:#fff;}</style></defs><path class="cls-1" d="m37.63,3.1h0s-.27.48-.27.48h-13.11l-.23-.3-.54-.07-.61-.82-2.75-.26v-.45l-2.29.04v.41h-.57v-1.05l-1.6.12-2.02-.04v.53h-3.21l-.19.45-1.07-.45-.73,1.16.15,1.05.38.45h.99l.08.3,1.99,1.24v.6l-7.07.45v.26h-1.91l-2.02,3.59v1.09h1.45l-.08.75.27.53,3.83,2.95h22.13l3.17-3.1v-.93l-.65-.97-.15-1.09-2.41-.19-3.94-3.63h-1.87v-.71l1.3-.07.19-.41h13.11l.15.53h1.49v-2.4h-1.37ZM11.37,15.62h-2.68l.42-1.16h1.64l.62,1.16Zm3.1,0h-1.31l.35-.58h.61l.35.58Zm4.36,0h-2.68l.42-1.16h1.64l.61,1.16Zm3.14,0h-1.31l.35-.58h.61l.35.58Zm4.51,0h-2.68l.42-1.16h1.64l.61,1.16Zm-20.12-1.8v1.38l-2.06-1.64,1.03-.56,1.03.82Zm23.37.04l-.95,1.17v-1.22l.48-.22.48.26Zm10.29-7.37h-3.24l-.15-.53h-10.72l3.09,2.85,2.87.23.11.8.12.86.52.78.17.25v1.66l-.3.29-3.17,3.1-.29.29H6.13l-4.1-3.16-.18-.14-.1-.2-.37-.73H0v-2.35l.13-.23,2.3-4.1h1.5v-.2l5.77-.36-.21-.13-.24-.15h-.77l-.3-.35-.38-.45-.19-.22-.04-.29-.2-1.41.19-.31,1.17-1.88.78.33.16.07.06-.14h2.87V.13l2.99.06,2.63-.19v.71l2.87-.05v.55l1.85.18.44.04.27.35.36.49.12.02.41.06.18.23h12.03l.32-.48h.96s1.97,0,1.97,0v4.4Z"/></svg>