<?xml version="1.0" encoding="UTF-8"?><svg id="Layer_1" xmlns="http://www.w3.org/2000/svg" viewBox="0 0 38 15"><defs><style>.cls-1{fill:#fff;}</style></defs><path class="cls-1" d="m36.62,2.02l-.27.49h-13.11l-.23-.3-.54-.07-.61-.82-2.76-.26v-.45l-2.29.04v.41h-.57V0l-1.6.11-2.02-.04v.53h-3.21l-.19.45-1.07-.45-.73,1.16.15,1.05.38.45h.99l.08.3,1.99,1.24v.6l-7.07.45v.26h-1.91l-2.02,3.59v1.09h1.45l-.08.75.27.53,3.83,2.95h22.13l3.17-3.1v-.93l-.65-.97-.15-1.09-2.41-.19-3.94-3.63h-1.87v-.71l1.3-.07.19-.41h13.11l.15.53h1.49v-2.4h-1.38ZM5.35,14.14l-2.06-1.65,1.03-.56,1.03.82v1.38h0Zm2.33.41l.42-1.16h1.64l.61,1.16h-2.68Zm4.47,0l.35-.58h.61l.35.58h-1.31Zm2.98,0l.42-1.16h1.64l.61,1.16h-2.68Zm12.62-1.8l.48-.22.48.26-.95,1.18v-1.22Zm-4.55.63h1.64l.61,1.16h-2.68l.42-1.16Zm-3.56,1.16l.35-.58h.61l.35.58h-1.31Z"/></svg>