<svg xmlns="http://www.w3.org/2000/svg" width="100" height="100" viewBox="0 0 100 100">
  <defs>
    <style>
      .cls-1 {
        fill: #fff;
      }
    </style>
  </defs>
  <g id="Layer_7" data-name="Layer 7">
    <g>
      <path class="cls-1" d="M81.321,47.84505V87.86359a.27328.27328,0,0,1-.273.273H12.1994a.27328.27328,0,0,1-.273-.273V19.01621a.27329.27329,0,0,1,.273-.273H52.20416l8.77642-8.77642H12.1994a9.06036,9.06036,0,0,0-9.04946,9.04946V87.86359A9.06036,9.06036,0,0,0,12.1994,96.913H81.048a9.06035,9.06035,0,0,0,9.04946-9.04945V39.06871Z"/>
      <g>
        <path class="cls-1" d="M68.89481,16.00938,36.59207,48.31205l-.00337-.01676-3.179,15.9697a1.931,1.931,0,0,0,2.26237,2.26237l15.94659-3.156.00643-.02647L83.92755,31.0422Z"/>
        <rect class="cls-1" x="78.3413" y="4.52678" width="12.87838" height="21.25956" transform="translate(14.11433 64.38811) rotate(-45)"/>
      </g>
    </g>
  </g>
</svg>
