<svg xmlns="http://www.w3.org/2000/svg" width="100" height="100" viewBox="0 0 100 100">
  <defs>
    <style>
      .cls-1 {
        fill: #fff;
      }
    </style>
  </defs>
  <g id="Layer_7" data-name="Layer 7">
    <path class="cls-1" d="M50.00047,1.69577A48.30423,48.30423,0,1,0,98.30435,50.00088,48.35993,48.35993,0,0,0,50.00047,1.69577Zm0,92.48358A44.16284,44.16284,0,0,1,7.1061,39.4384l6.15212,2.3979,3.78135,7.56224s-1.031,13.40627.68752,14.43761c1.7188,1.0311,9.969,6.5312,13.40616,10.31249,3.43759,3.78124,11.68782,17.875,12.03158,16.84363.34376-1.0311,3.09337-3.78129,2.40585-7.56259-.68705-3.78094-3.09336-17.18721,2.75055-20.281,5.84344-3.09378,14.78119-15.12507,14.78119-15.12507S35.25836,32.55491,33.19581,34.27376,20.47717,45.27366,18.75837,44.5862s-4.81263-7.56224-4.12511-8.59358c.68775-1.0314,16.5-15.46871,20.96886-15.12483,4.46888.34358,8.594-3.43766,8.93728-5.844.23969-1.67477-.35318-6.17531-.736-8.75975a43.95267,43.95267,0,0,1,23.13879,2.94l6.4542,3.346c.03485.0216.06828.04409.10266.06581L60.00858,23.61769l8.59352,5.50015s4.46935-5.50015,5.50016-6.18761c1.03128-.68776.34376,7.90611-1.7188,7.90611S61.38362,35.3051,64.82122,41.49242c3.4376,6.18756,17.87456,8.25,19.25007,11.68742,1.37456,3.43765-5.84392,19.59353-.34423,14.78119,4.0752-3.56539,8.3623-10.22155,10.43145-17.15319A44.22189,44.22189,0,0,1,50.00047,94.17935Z"/>
  </g>
</svg>
