<?xml version="1.0" encoding="UTF-8"?><svg id="Layer_1" xmlns="http://www.w3.org/2000/svg" viewBox="0 0 37.61 38.01"><defs><style>.cls-1{fill:#fff;}</style></defs><path id="Union_44" class="cls-1" d="m9.05,38.01c-1.5,0-2.71-1.22-2.71-2.71s1.22-2.71,2.71-2.71h1.82c-1.43-1.2-1.61-3.33-.41-4.76.64-.76,1.59-1.2,2.58-1.2h4.09c-.51-.51-.79-1.2-.79-1.91v-1.34c0-.21.02-.42.07-.62-2.53-1.05-4.67-2.86-6.12-5.17-2.45-.76-4.67-2.12-6.47-3.94C.58,10.12.08,3.93.06,3.67l-.06-.85h6.61l-.1-1.23C6.66.34,7.67,0,8.72,0h20.67c.96-.08,1.81.63,1.91,1.59l-.08,1.23h6.4l-.06.84c-.02.26-.51,6.46-3.77,9.97-1.74,1.77-3.88,3.1-6.25,3.87-2.12,3.46-4.5,4.77-5.86,5.21.05.22.08.44.08.66v1.34c0,.72-.28,1.4-.79,1.91h4.09c1.87,0,3.38,1.51,3.38,3.38,0,.99-.44,1.94-1.2,2.58h1.82c1.5,0,2.71,1.22,2.71,2.71s-1.22,2.71-2.71,2.71H9.05Zm-3.71-25.34c1.04,1.09,2.28,1.97,3.65,2.61-.88-1.88-1.5-3.88-1.84-5.94l-.41-4.93H2.07c.25,1.76,1.03,5.84,3.27,8.25Zm25.51-4.32c-.44,2.37-1.15,4.67-2.12,6.88,1.32-.63,2.52-1.5,3.54-2.56,2.24-2.41,3.03-6.49,3.28-8.25h-4.44l-.26,3.93Z"/></svg>