<svg xmlns="http://www.w3.org/2000/svg" width="100" height="100" viewBox="0 0 100 100">
  <defs>
    <style>
      .cls-1 {
        fill: #fff;
      }
    </style>
  </defs>
  <g id="Layer_7" data-name="Layer 7">
    <g>
      <g>
        <path class="cls-1" d="M17.39124,27.20459v-2.4743a5.52664,5.52664,0,0,1,.17553-1.36066H2.73914v5.19562H17.56677A5.52664,5.52664,0,0,1,17.39124,27.20459Z"/>
        <path class="cls-1" d="M35.47668,23.36963a5.52616,5.52616,0,0,1,.17554,1.36066v2.4743a5.52616,5.52616,0,0,1-.17554,1.36066H97.26086V23.36963Z"/>
      </g>
      <path class="cls-1" d="M30.11731,34.73877H22.9259a7.5428,7.5428,0,0,1-7.53418-7.53418V24.73A7.5428,7.5428,0,0,1,22.9259,17.1958h7.19141A7.543,7.543,0,0,1,37.65247,24.73v2.47461A7.543,7.543,0,0,1,30.11731,34.73877ZM22.9259,21.1958A3.53758,3.53758,0,0,0,19.39172,24.73v2.47461a3.53758,3.53758,0,0,0,3.53418,3.53418h7.19141a3.53842,3.53842,0,0,0,3.53516-3.53418V24.73a3.53842,3.53842,0,0,0-3.53516-3.53418Z"/>
      <g>
        <path class="cls-1" d="M34.47827,51.23718V48.76294a5.53234,5.53234,0,0,1,.17542-1.36072H2.73914V52.5979H34.65381A5.52584,5.52584,0,0,1,34.47827,51.23718Z"/>
        <path class="cls-1" d="M52.5636,47.40222a5.5214,5.5214,0,0,1,.17554,1.36072v2.47424a5.52631,5.52631,0,0,1-.17554,1.36072H97.26086V47.40222Z"/>
      </g>
      <path class="cls-1" d="M47.20422,58.772h-7.1914a7.543,7.543,0,0,1-7.53418-7.53515V48.76318A7.543,7.543,0,0,1,40.01282,41.228h7.1914a7.54321,7.54321,0,0,1,7.53516,7.53515v2.47364A7.54321,7.54321,0,0,1,47.20422,58.772ZM40.01282,45.228a3.53841,3.53841,0,0,0-3.53418,3.53515v2.47364A3.53841,3.53841,0,0,0,40.01282,54.772h7.1914a3.53925,3.53925,0,0,0,3.53516-3.53515V48.76318A3.53925,3.53925,0,0,0,47.20422,45.228Z"/>
      <g>
        <path class="cls-1" d="M83.99841,71.43481a5.53211,5.53211,0,0,1,.17554,1.36072v2.47425a5.52656,5.52656,0,0,1-.17554,1.36071H97.26086V71.43481Z"/>
        <path class="cls-1" d="M65.913,75.26978V72.79553a5.53211,5.53211,0,0,1,.17554-1.36072H2.73914v5.19568H66.0885A5.527,5.527,0,0,1,65.913,75.26978Z"/>
      </g>
      <path class="cls-1" d="M78.63977,82.8042H71.44739A7.54279,7.54279,0,0,1,63.91321,75.27V72.79541a7.54279,7.54279,0,0,1,7.53418-7.53418h7.19238A7.54279,7.54279,0,0,1,86.174,72.79541V75.27A7.54279,7.54279,0,0,1,78.63977,82.8042Zm-7.19238-13.543a3.53758,3.53758,0,0,0-3.53418,3.53418V75.27a3.53758,3.53758,0,0,0,3.53418,3.53418h7.19238A3.53758,3.53758,0,0,0,82.174,75.27V72.79541a3.53758,3.53758,0,0,0-3.53418-3.53418Z"/>
    </g>
  </g>
</svg>
