<svg xmlns="http://www.w3.org/2000/svg" width="100" height="100" viewBox="0 0 100 100">
  <defs>
    <style>
      .cls-1 {
        fill: #fff;
      }
    </style>
  </defs>
  <g id="Layer_7" data-name="Layer 7">
    <g>
      <g>
        <rect class="cls-1" x="25.1013" y="43.76712" width="7.82609" height="17.50052" rx="3.91304"/>
        <rect class="cls-1" x="11.11087" y="50.61495" width="7.82609" height="10.65269" rx="3.91304"/>
        <rect class="cls-1" x="81.06304" y="13.65895" width="7.82609" height="47.6087" rx="3.91304"/>
        <rect class="cls-1" x="39.09174" y="37.00678" width="7.82609" height="24.26086" rx="3.91304"/>
        <rect class="cls-1" x="53.08217" y="31.78939" width="7.82609" height="29.47826" rx="3.91304"/>
        <rect class="cls-1" x="67.07261" y="22.63669" width="7.82609" height="38.63095" rx="3.80032"/>
      </g>
      <path class="cls-1" d="M98.71735,76.0692H82.16376a5.44193,5.44193,0,0,0-5.42115-5.0758H69.86566a5.44092,5.44092,0,0,0-5.42016,5.0758H1.28265v5.19568H64.4455a5.441,5.441,0,0,0,5.42016,5.07617h6.87695a5.4419,5.4419,0,0,0,5.42115-5.07617H98.71735ZM78.18207,80.90258a1.44058,1.44058,0,0,1-1.43946,1.43847H69.86566a1.44036,1.44036,0,0,1-1.43847-1.43847V76.43187a1.44037,1.44037,0,0,1,1.43847-1.43847h6.87695a1.44059,1.44059,0,0,1,1.43946,1.43847Z"/>
    </g>
  </g>
</svg>
