<svg xmlns="http://www.w3.org/2000/svg" width="95" height="69" viewBox="0 0 95 69">
  <defs>
    <style>
      .cls-1 {
        fill: #fff;
        fill-rule: evenodd;
      }
    </style>
  </defs>
  <path class="cls-1" d="M16.062,68.963H0.784V44.08H16.062V68.963Zm26.051,0H26.835V33.79H42.113V68.963Zm26.051,0H52.886V37.932H68.164v31.03Zm26.051,0H78.936v-41H94.215v41ZM86.6,2.115a8.366,8.366,0,0,0-8.394,8.2l-11.168,4.77a8.452,8.452,0,0,0-13.177.208L42.868,9.85C42.88,9.669,42.9,9.489,42.9,9.3a8.423,8.423,0,0,0-16.845,0,8.289,8.289,0,0,0,.388,2.509L13.962,19.733a8.335,8.335,0,1,0,2.883,6.284,8.3,8.3,0,0,0-.192-1.763l12.892-8.183a8.444,8.444,0,0,0,11.33-1.344l11.232,5.559c0,0.032,0,.063,0,0.1a8.423,8.423,0,0,0,16.845,0c0-.139-0.014-0.273-0.021-0.41L79.8,15.329A8.372,8.372,0,1,0,86.6,2.115Z"/>
</svg>
