<svg xmlns="http://www.w3.org/2000/svg" width="100" height="100" viewBox="0 0 100 100">
  <defs>
    <style>
      .cls-1 {
        fill: #fff;
      }
    </style>
  </defs>
  <g id="Layer_7" data-name="Layer 7">
    <g>
      <path class="cls-1" d="M96.061,4.144H3.939A2.46084,2.46084,0,0,0,1.47823,6.60474V68.444A2.46089,2.46089,0,0,0,3.939,70.90485H96.061A2.46079,2.46079,0,0,0,98.52168,68.444V6.60474A2.46074,2.46074,0,0,0,96.061,4.144ZM94.6086,66.58966H5.39131V8.45917H94.6086Z"/>
      <circle class="cls-1" cx="73.71735" cy="24.23637" r="7.04348"/>
      <polygon class="cls-1" points="62.012 35.389 50.868 48.823 34.36 18.954 11.698 59.959 41.63 59.959 57.022 59.959 82.394 59.959 62.012 35.389"/>
      <path class="cls-1" d="M98.71735,85.58417H82.16376a5.44194,5.44194,0,0,0-5.42115-5.07581H69.86566a5.44093,5.44093,0,0,0-5.42016,5.07581H1.28265v5.19568H64.4455A5.441,5.441,0,0,0,69.86566,95.856h6.87695a5.44191,5.44191,0,0,0,5.42115-5.07617H98.71735ZM78.18207,90.41754A1.44059,1.44059,0,0,1,76.74261,91.856H69.86566a1.44037,1.44037,0,0,1-1.43847-1.43848v-4.4707a1.44037,1.44037,0,0,1,1.43847-1.43848h6.87695a1.44059,1.44059,0,0,1,1.43946,1.43848Z"/>
    </g>
  </g>
</svg>
