<?xml version="1.0" encoding="UTF-8"?><svg id="Layer_1" xmlns="http://www.w3.org/2000/svg" viewBox="0 0 89.31 81.61"><defs><style>.cls-1{fill:#fff;}.cls-2{fill:none;}</style></defs><circle class="cls-2" cx="64.24" cy="24.61" r="4.83" transform="translate(33.42 86.11) rotate(-84.35)"/><circle class="cls-2" cx="64.24" cy="41.78" r="4.83" transform="translate(-2.8 4.66) rotate(-4.07)"/><circle class="cls-2" cx="55.65" cy="33.2" r="4.83"/><circle class="cls-2" cx="72.83" cy="33.2" r="4.83" transform="translate(-2.17 5.25) rotate(-4.07)"/><path class="cls-1" d="m87.75,37.52c-4.29-26.77-22.27-26.36-22.27-26.36-2.67-.12-5.45-.18-8.33-.17-4.31.02-8.41.19-12.27.47-4.01-.29-8.25-.46-12.72-.47-2.87,0-5.65.05-8.33.17,0,0-17.98-.41-22.27,26.36-4.29,26.77,1.23,30.96,5.31,32.8s11.55-5.21,11.55-5.21c0,0,7.87-8.99,9.6-9.91,1.74-.92,3.17-.41,3.17-.41h26.94s1.43-.51,3.17.41c1.74.92,9.6,9.91,9.6,9.91,0,0,7.46,7.05,11.55,5.21,4.09-1.84,9.6-6.03,5.31-32.8Zm-52.95-1.26h-7.12v7.12h-6.13v-7.12h-7.12v-6.13h7.12v-7.12h6.13v7.12h7.12v6.13Zm29.43-16.48c2.67,0,4.83,2.16,4.83,4.83s-2.16,4.83-4.83,4.83-4.83-2.16-4.83-4.83,2.16-4.83,4.83-4.83Zm-8.59,18.24c-2.67,0-4.83-2.16-4.83-4.83s2.16-4.83,4.83-4.83,4.83,2.16,4.83,4.83-2.16,4.83-4.83,4.83Zm8.59,8.59c-2.67,0-4.83-2.16-4.83-4.83s2.16-4.83,4.83-4.83,4.83,2.16,4.83,4.83-2.16,4.83-4.83,4.83Zm8.59-8.59c-2.67,0-4.83-2.16-4.83-4.83s2.16-4.83,4.83-4.83,4.83,2.16,4.83,4.83-2.16,4.83-4.83,4.83Z"/></svg>