<?xml version="1.0" encoding="UTF-8"?><svg id="Layer_1" xmlns="http://www.w3.org/2000/svg" xmlns:xlink="http://www.w3.org/1999/xlink" viewBox="0 0 89.31 81.61"><defs><style>.cls-1{fill:#fff;}.cls-2{fill:#cacbcb;}.cls-3{clip-path:url(#clippath);}.cls-4{fill:none;}</style><clipPath id="clippath"><rect class="cls-4" width="47.89" height="81.61"/></clipPath></defs><g id="Group_3180"><path class="cls-1" d="m89.31,33.14v-9.89h-6.09c-.37-1.56-.93-3.04-1.66-4.42l4.19-4.19-6.99-6.99-4.03,4.03c-1.41-.85-2.95-1.51-4.57-1.96v-5.63h-9.89v5.63c-1.63.45-3.16,1.11-4.57,1.96l-4.03-4.03-6.99,6.99,4.19,4.19c-.74,1.38-1.29,2.86-1.66,4.42h-6.09v9.89h6.41c.44,1.4,1.06,2.72,1.8,3.96l-4.65,4.65,6.99,6.99,4.81-4.81c1.19.64,2.47,1.14,3.8,1.5v6.87h9.89v-6.87c1.33-.37,2.6-.87,3.8-1.5l4.81,4.81,6.99-6.99-4.65-4.65c.74-1.24,1.36-2.55,1.8-3.96h6.42Zm-24.11,2.6c-4.51,0-8.16-3.65-8.16-8.16s3.65-8.16,8.16-8.16,8.16,3.65,8.16,8.16-3.65,8.16-8.16,8.16Z"/></g><g class="cls-3"><g><rect class="cls-4" x="16.32" y="3.73" width="15.26" height="3.9"/><polygon class="cls-2" points="41.33 46.43 41.33 46.43 41.33 46.43 41.33 46.43"/><path class="cls-1" d="m41.33,46.43v18.32H6.56V12.6h34.15c1.86-2.68,4.15-5.03,6.78-6.95C46.4,2.28,43.27,0,39.73,0H8.16C3.65,0,0,3.65,0,8.16H0v65.29c0,4.51,3.65,8.16,8.16,8.16h31.57c4.51,0,8.16-3.65,8.16-8.16h0v-20.6c-2.51-1.78-4.72-3.95-6.56-6.42ZM16.32,3.73h15.26v3.9h-15.26v-3.9Zm7.86,73.63c-2.32,0-4.21-1.88-4.21-4.21s1.88-4.21,4.21-4.21,4.21,1.88,4.21,4.21-1.88,4.21-4.21,4.21Z"/></g></g></svg>