<svg xmlns="http://www.w3.org/2000/svg" width="100" height="100" viewBox="0 0 100 100">
  <defs>
    <style>
      .cls-1 {
        fill: #fff;
      }
    </style>
  </defs>
  <g id="Layer_7" data-name="Layer 7">
    <path class="cls-1" d="M96.45335,38.31364,64.85758,6.71786a4.38071,4.38071,0,0,0-6.19525,0L39.044,26.3362a4.38069,4.38069,0,0,0,0,6.19524l7.80645,7.80639L2.26357,84.92472v9.6405l14.59617-.50332V89.1818H21.854l.58148-.58149V83.91576H27.12L45.89944,65.13631l4.05913,4.05919L62.83331,56.32076l7.80646,7.80646a4.38083,4.38083,0,0,0,6.19525,0L96.45335,44.50888A4.38069,4.38069,0,0,0,96.45335,38.31364ZM75.94981,34.33077a5.61118,5.61118,0,1,1,0-7.9354A5.61112,5.61112,0,0,1,75.94981,34.33077Z"/>
  </g>
</svg>
