<svg xmlns="http://www.w3.org/2000/svg" width="100" height="100" viewBox="0 0 100 100">
  <defs>
    <style>
      .cls-1 {
        fill: #fff;
        fill-rule: evenodd;
      }
    </style>
  </defs>
  <g id="Layer_7" data-name="Layer 7">
    <g>
      <path class="cls-1" d="M98.8439,51.9755c0-10.95978-7.63852-18.91968-13.56064-20.62038C79.68808,15.25238,66.00485,3.86957,49.99987,3.86957c-16.00191,0-29.68361,11.37936-35.28032,27.47814C8.80484,33.02919,1.1561,40.99624,1.1561,51.9755c0,12.31445,10.26881,22.3074,16.28109,22.44022V41.85936h5.26365a36.69,36.69,0,0,0-.55886-4.96928C25.63456,20.90241,36.78048,9.206,49.99987,9.206c13.19079,0,24.31729,11.64525,27.83542,27.57935a36.201,36.201,0,0,0-.58082,5.074h5.30808v29.182l-11.70732,17.561H55.427V87.57969a2.30318,2.30318,0,0,0-2.30336-2.30348H41.44951a2.30362,2.30362,0,0,0-2.30387,2.30348V93.827a2.30356,2.30356,0,0,0,2.30387,2.30342H53.12363a2.30292,2.30292,0,0,0,2.30285-2.29716H73.65461L87.981,72.34365A25.65182,25.65182,0,0,0,98.8439,51.9755Z"/>
      <path class="cls-1" d="M26.0136,41.85936H22.8643V74.422h3.1493a2.27772,2.27772,0,0,0,2.27782-2.27788V44.13724A2.27772,2.27772,0,0,0,26.0136,41.85936Z"/>
      <path class="cls-1" d="M77.13544,74.422V41.85936H73.98665a2.27815,2.27815,0,0,0-2.27832,2.27788V72.1441A2.27815,2.27815,0,0,0,73.98665,74.422Z"/>
    </g>
  </g>
</svg>
