<?xml version="1.0" encoding="UTF-8"?><svg id="Layer_1" xmlns="http://www.w3.org/2000/svg" viewBox="0 0 78.01 77"><defs><style>.cls-1{fill:#fff;fill-rule:evenodd;}</style></defs><path class="cls-1" d="m10.64,1.44c.21-.14.44-.26.67-.36,1.83-.59,3.75-.84,5.66-.75,1.57.1,3.12.42,4.6.94,2.64.89,5,2.47,6.83,4.57,1.14,1.24,2.05,2.68,2.69,4.24.44,1.22.73,2.49,1.09,3.74.34,1.53.42,3.11.24,4.67-.16,2.39.49,4.77,1.83,6.76.51.69,1.1,1.33,1.75,1.9,2,1.93,4.03,3.83,6.04,5.74,1.26,1.19,2.49,2.41,3.77,3.58,2.01,1.85,4.07,3.65,6.07,5.5,1.73,1.61,3.41,3.28,5.13,4.9,2.48,2.33,4.97,4.64,7.46,6.97s4.92,4.64,7.43,6.92c1.1.88,2.03,1.95,2.75,3.16.99,1.79,1.29,3.89.84,5.88-.27,1.26-.79,2.45-1.54,3.5-1.06,1.47-2.56,2.56-4.28,3.1-.97.35-2,.52-3.03.5-1.93,0-3.79-.75-5.18-2.09-2.31-2.39-4.5-4.89-6.75-7.34-1.06-1.15-2.15-2.28-3.21-3.43-2.22-2.42-4.44-4.84-6.66-7.27-2.37-2.6-4.75-5.2-7.12-7.8-2.01-2.19-4.04-4.36-6.05-6.55-1.28-1.4-2.51-2.84-3.81-4.22-1.03-1.14-2.12-2.22-3.28-3.23-.95-.82-2.12-1.34-3.37-1.48-.35-.04-.68-.21-1.03-.23-.95-.06-1.9-.04-2.85-.09-1.46-.02-2.92-.13-4.37-.33-2.22-.45-4.32-1.38-6.15-2.73-2.33-1.67-4.18-3.92-5.35-6.53C.49,21.49,0,19.21,0,16.9c-.05-1.78.23-3.55.84-5.22.25-.63.29-.64.76-.17,2.07,2.09,4.13,4.18,6.2,6.27,1.17,1.18,2.41,2.31,3.49,3.57.72.84,1.87,1.15,2.91.8.64-.13,1.27-.33,1.92-.47,1.06-.23,2.13-.44,3.2-.64.56-.06,1.02-.49,1.11-1.04.42-2.08.87-4.17,1.22-6.26.08-.51-.06-1.04-.37-1.45-1.67-1.78-3.44-3.48-5.16-5.22-1.82-1.84-3.61-3.7-5.48-5.63Zm59.6,66.67c.05-1.78-1.36-3.27-3.14-3.32-1.78-.05-3.27,1.36-3.32,3.14,0,.05,0,.11,0,.16.03,1.74,1.39,3.18,3.12,3.31,1.8.04,3.29-1.38,3.33-3.18,0-.04,0-.08,0-.11h0Zm-57.29,8.89c-2.35-.11-4.62-.87-6.57-2.18-1.83-1.33-3.18-3.23-3.83-5.4-.71-2.06-.71-4.31.02-6.37.6-1.62,1.71-3,3.16-3.93,1.39-1,2.74-2.06,4.12-3.08,2.37-1.75,4.76-3.47,7.11-5.24,1.71-1.29,3.38-2.63,5.05-3.98,1.21-.97,2.4-1.97,3.57-2.99.5-.43.93-.94,1.38-1.42.15-.24.46-.31.7-.17.08.05.14.11.18.19,1.46,1.63,2.92,3.26,4.4,4.88.88.97,1.8,1.91,2.69,2.87.25.27.44.61.72.85.5.44.29.75-.07,1.16-1.52,1.76-3.02,3.53-4.5,5.32-.88,1.07-1.75,2.15-2.57,3.26-1.23,1.66-2.41,3.35-3.62,5.03-1.09,1.52-2.19,3.04-3.29,4.55-.87,1.2-1.75,2.39-2.6,3.61-.75,1.06-1.81,1.86-3.04,2.29-.99.31-2,.56-3.02.75Zm13.03-19.78c-.22-.4-.5-.75-.85-1.05-.44-.2-.97-.07-1.26.32-3.57,3.62-7.14,7.24-10.72,10.86-.46.41-.5,1.11-.09,1.56.02.02.03.04.05.05.31.43.92.53,1.36.22.1-.07.19-.17.26-.27,3.6-3.63,7.18-7.26,10.77-10.89.19-.25.35-.52.49-.8Zm-3.3-3.34c-.15-.34-.37-.65-.65-.89-.36-.1-.75-.08-1.1.05-.23.12-.42.29-.57.49-3.41,3.45-6.83,6.9-10.24,10.35-.11.11-.21.23-.31.35-.39.42-.37,1.08.05,1.47.02.02.03.03.05.05.4.39,1.04.39,1.43-.01.03-.03.05-.06.08-.09,3.55-3.59,7.09-7.18,10.63-10.78.24-.31.46-.63.64-.98h0ZM78.01,2.8c-.06.17-.11.32-.18.46-1.07,2.14-2.17,4.26-3.19,6.41-.6.99-1.37,1.86-2.29,2.56-.77.75-1.59,1.44-2.36,2.19-.33.34-.77.53-1.24.56-.76.06-1.51.17-2.25.33-.26.09-.48.25-.65.46-4.73,4.77-9.45,9.55-14.17,14.32-1.2,1.21-2.4,2.41-3.58,3.64-.14.24-.45.32-.69.18-.07-.04-.13-.1-.18-.17-.92-.9-1.87-1.78-2.81-2.66-.31-.29-.08-.47.12-.67,1.47-1.49,2.95-2.98,4.42-4.47,4.5-4.55,9.02-9.09,13.49-13.68.36-.46.56-1.01.59-1.59.02-1.19.5-2.33,1.33-3.19.91-.89,1.77-1.83,2.55-2.83.77-.78,1.7-1.38,2.72-1.78,1.82-.99,3.67-1.92,5.52-2.86.13-.05.28-.04.4.04.76.78,1.51,1.58,2.26,2.39.08.11.14.22.19.34Z"/></svg>