<svg xmlns="http://www.w3.org/2000/svg" width="113" height="113" viewBox="0 0 113 113">
  <defs>
    <style>
      .cls-1 {
        fill: #fff;
        fill-rule: evenodd;
      }
    </style>
  </defs>
  <path class="cls-1" d="M29.634,19.434a4.545,4.545,0,0,1,.674-0.357,15.789,15.789,0,0,1,5.664-.746,16.871,16.871,0,0,1,4.6.945A15.567,15.567,0,0,1,47.4,23.85a13.927,13.927,0,0,1,2.686,4.239c0.444,1.217.727,2.492,1.092,3.738a13.875,13.875,0,0,1,.241,4.665,10.8,10.8,0,0,0,1.835,6.761A12.479,12.479,0,0,0,55,45.155c2,1.927,4.028,3.828,6.043,5.741,1.257,1.194,2.494,2.409,3.772,3.581,2.013,1.847,4.072,3.645,6.075,5.5,1.734,1.607,3.408,3.279,5.129,4.9,2.477,2.333,4.973,4.645,7.46,6.966s4.922,4.645,7.431,6.915a11.663,11.663,0,0,1,2.748,3.164,8.334,8.334,0,0,1,.839,5.884,9.315,9.315,0,0,1-1.543,3.5,8.38,8.38,0,0,1-4.284,3.1,8.239,8.239,0,0,1-3.028.5,7.475,7.475,0,0,1-5.178-2.089c-2.306-2.394-4.5-4.894-6.754-7.341-1.06-1.152-2.147-2.279-3.207-3.432q-3.336-3.629-6.656-7.273-3.562-3.9-7.12-7.8c-2.01-2.19-4.041-4.36-6.05-6.551-1.28-1.4-2.512-2.839-3.811-4.219a38.124,38.124,0,0,0-3.279-3.229,6.262,6.262,0,0,0-3.371-1.48c-0.346-.036-0.681-0.213-1.026-0.233-0.947-.055-1.9-0.038-2.846-0.091a35.51,35.51,0,0,1-4.368-.325,15.618,15.618,0,0,1-6.149-2.727,16.206,16.206,0,0,1-5.355-6.534A15.481,15.481,0,0,1,19,34.894a13.994,13.994,0,0,1,.843-5.221c0.249-.627.293-0.636,0.756-0.169q3.1,3.131,6.2,6.266c1.17,1.184,2.408,2.31,3.489,3.57a2.7,2.7,0,0,0,2.915.8c0.643-.13,1.273-0.33,1.915-0.467q1.593-.341,3.2-0.639a1.253,1.253,0,0,0,1.11-1.045c0.42-2.085.869-4.165,1.218-6.262a1.928,1.928,0,0,0-.37-1.449c-1.675-1.781-3.441-3.475-5.157-5.218C33.3,23.221,31.511,21.364,29.634,19.434Zm59.6,66.674a3.23,3.23,0,1,0-6.458-.021A3.388,3.388,0,0,0,85.9,89.4,3.257,3.257,0,0,0,89.235,86.108ZM31.945,95a12.854,12.854,0,0,1-6.565-2.18,10.388,10.388,0,0,1-3.83-5.4,9.642,9.642,0,0,1,.024-6.37,8,8,0,0,1,3.157-3.932c1.392-1,2.743-2.059,4.123-3.078,2.368-1.749,4.76-3.466,7.111-5.238,1.711-1.289,3.382-2.632,5.051-3.976q1.814-1.461,3.569-2.994c0.5-.432.929-0.939,1.383-1.419a0.508,0.508,0,0,1,.878.022q2.185,2.451,4.4,4.875c0.885,0.968,1.8,1.908,2.692,2.869,0.252,0.271.44,0.609,0.715,0.851,0.5,0.443.291,0.747-.067,1.16q-2.28,2.634-4.5,5.322c-0.883,1.067-1.747,2.151-2.57,3.263-1.229,1.66-2.412,3.353-3.619,5.029q-1.641,2.28-3.291,4.554c-0.869,1.2-1.752,2.393-2.6,3.607a6.178,6.178,0,0,1-3.042,2.285A26.926,26.926,0,0,1,31.945,95ZM44.977,75.217a3.881,3.881,0,0,0-.845-1.047,1.035,1.035,0,0,0-1.263.321Q37.514,79.925,32.148,85.35a1.106,1.106,0,0,0-.038,1.616,0.972,0.972,0,0,0,1.613-.057q5.393-5.438,10.768-10.894A4.653,4.653,0,0,0,44.977,75.217Zm-3.3-3.344a2.515,2.515,0,0,0-.654-0.892,1.792,1.792,0,0,0-1.1.048,1.629,1.629,0,0,0-.57.491q-5.12,5.171-10.236,10.346a3.418,3.418,0,0,0-.31.352,1.04,1.04,0,0,0,.1,1.516,1.014,1.014,0,0,0,1.509-.1q5.319-5.385,10.629-10.78A5.887,5.887,0,0,0,41.682,71.873ZM97,20.8c-0.064.168-.107,0.319-0.175,0.457-1.065,2.137-2.168,4.255-3.188,6.414a9.4,9.4,0,0,1-2.285,2.564c-0.768.752-1.593,1.445-2.364,2.193a1.87,1.87,0,0,1-1.239.559,17.415,17.415,0,0,0-2.248.329,1.513,1.513,0,0,0-.655.463Q77.757,40.937,70.679,48.1c-1.2,1.211-2.4,2.413-3.583,3.642a0.507,0.507,0,0,1-.868.015c-0.924-.9-1.869-1.78-2.812-2.661-0.315-.295-0.082-0.474.115-0.673q2.211-2.233,4.421-4.468c4.5-4.552,9.017-9.093,13.486-13.678a2.786,2.786,0,0,0,.588-1.59A4.688,4.688,0,0,1,83.359,25.5a28.569,28.569,0,0,0,2.552-2.83,7.89,7.89,0,0,1,2.722-1.782C90.456,19.9,92.3,18.97,94.15,18.03a0.43,0.43,0,0,1,.4.042c0.764,0.784,1.513,1.584,2.258,2.386A1.736,1.736,0,0,1,97,20.8Z"/>
</svg>
