<?xml version="1.0" encoding="UTF-8"?><svg id="Layer_1" xmlns="http://www.w3.org/2000/svg" xmlns:xlink="http://www.w3.org/1999/xlink" viewBox="0 0 45 45"><defs><style>.cls-1{fill:#fff;}.cls-2{clip-path:url(#clippath);}.cls-3{fill:none;}.cls-4{fill:#404040;}</style><clipPath id="clippath"><rect class="cls-3" y="0" width="45" height="45"/></clipPath></defs><g class="cls-2"><g><path class="cls-3" d="m22.51,5.77c-9.24,0-16.73,7.49-16.73,16.73s7.49,16.73,16.73,16.73c9.23-.01,16.72-7.49,16.73-16.73h0c0-9.24-7.49-16.73-16.73-16.73Z"/><path class="cls-1" d="m22.5,1.15C10.72,1.17,1.17,10.72,1.16,22.5c0,11.79,9.55,21.35,21.34,21.35,11.79,0,21.34-9.56,21.34-21.34,0-11.79-9.55-21.35-21.34-21.35Zm0,39.23c-9.87-.01-17.87-8.01-17.88-17.88C4.62,12.62,12.63,4.62,22.5,4.62s17.88,8.01,17.88,17.88-8.01,17.88-17.88,17.88Z"/><path class="cls-4" d="m22.51,4.62C12.63,4.62,4.62,12.62,4.62,22.5c.01,9.87,8.01,17.87,17.88,17.88,9.87,0,17.88-8.01,17.88-17.88S32.38,4.62,22.51,4.62Zm0,34.61c-9.24,0-16.73-7.49-16.73-16.73S13.27,5.77,22.51,5.77s16.73,7.49,16.73,16.73h0c-.01,9.24-7.49,16.72-16.73,16.73Z"/><path class="cls-4" d="m22.51,0C10.08,0,.01,10.07.01,22.5s10.07,22.5,22.49,22.5,22.49-10.07,22.49-22.5C44.99,10.08,34.92.01,22.51,0ZM1.16,22.5C1.18,10.72,10.72,1.17,22.51,1.15c11.79,0,21.34,9.56,21.34,21.35,0,11.79-9.56,21.35-21.34,21.34-11.79,0-21.34-9.56-21.34-21.35Z"/></g></g></svg>