<?xml version="1.0" encoding="UTF-8"?><svg id="Layer_1" xmlns="http://www.w3.org/2000/svg" viewBox="0 0 45 45"><defs><style>.cls-1{fill:#fff;}.cls-2{fill:#636363;}.cls-2,.cls-3{fill-rule:evenodd;}.cls-4{fill:none;}</style></defs><circle class="cls-4" cx="22.5" cy="22.5" r="18.5"/><path class="cls-2" d="m22.5,0C10.08,0,0,10.08,0,22.5s10.08,22.5,22.5,22.5,22.5-10.08,22.5-22.5S34.92,0,22.5,0Zm0,44c-11.87,0-21.5-9.63-21.5-21.5S10.63,1,22.5,1s21.5,9.63,21.5,21.5-9.63,21.5-21.5,21.5Z"/><path class="cls-3" d="m22.5,3.46C11.99,3.46,3.46,11.99,3.46,22.5s8.53,19.04,19.04,19.04,19.04-8.53,19.04-19.04S33.01,3.46,22.5,3.46Zm0,37.54c-10.21,0-18.5-8.29-18.5-18.5S12.29,4,22.5,4s18.5,8.29,18.5,18.5-8.29,18.5-18.5,18.5Z"/><path class="cls-2" d="m22.5,2.52C11.45,2.52,2.48,11.48,2.48,22.52s8.97,20,20.02,20,20.02-8.96,20.02-20S33.55,2.52,22.5,2.52Zm0,39.02c-10.51,0-19.04-8.53-19.04-19.04S11.99,3.46,22.5,3.46s19.04,8.53,19.04,19.04-8.53,19.04-19.04,19.04Z"/><path class="cls-1" d="m22.5,1C10.63,1,1,10.63,1,22.5s9.63,21.5,21.5,21.5,21.5-9.63,21.5-21.5S34.37,1,22.5,1Zm0,42.5c-11.59,0-21-9.41-21-21S10.91,1.5,22.5,1.5s21,9.41,21,21-9.41,21-21,21Z"/><path class="cls-1" d="m22.5,1.5C10.91,1.5,1.5,10.91,1.5,22.5s9.41,21,21,21,21-9.41,21-21S34.09,1.5,22.5,1.5Zm0,41.5c-11.31,0-20.5-9.19-20.5-20.5S11.19,2,22.5,2s20.5,9.19,20.5,20.5-9.19,20.5-20.5,20.5Z"/><path class="cls-1" d="m22.5,2C11.19,2,2,11.19,2,22.5s9.19,20.5,20.5,20.5,20.5-9.19,20.5-20.5S33.81,2,22.5,2Zm0,40.52c-11.05,0-20.02-8.96-20.02-20S11.45,2.52,22.5,2.52s20.02,8.96,20.02,20-8.97,20-20.02,20Z"/></svg>