<?xml version="1.0" encoding="UTF-8"?><svg id="Layer_1" xmlns="http://www.w3.org/2000/svg" viewBox="0 0 36.89 17.02"><defs><style>.cls-1{fill:#fff;}</style></defs><path class="cls-1" d="m23.76,7.45h-2.21v-2.46h-2.46v-2.46h-.98v2.46h-.98l-1.72,4.17h-2.21v-.52l1.96-.22v-1.47h-3.93l-.12.49h-2.82v.49h2.7l-.25.98.49-.05v.3h-2.7l-1.47,2.95H1.66l1.47,3.93h28.24l3.68-5.4h-5.16v-.3l.49.05-.25-.98h2.7v-.49h-2.82l-.12-.49h-3.93v1.47l1.96.22v.52h-1.72l-.98.74h-1.47v-3.93Zm-3.7-3.43h2.46v2.46h2.21v3.93h.18l.09-.07v-2.88h5.66l.12.49h3.03v1.72h3.07l-5,7.34H2.46L.26,11.15h6.2l1.12-2.24h-.26v-2.43h3.03l.12-.49h5.19l.81-1.96h.66V1.57h2.92v2.46Z"/></svg>