<svg width="48" height="48" viewBox="0 0 48 48" fill="none" xmlns="http://www.w3.org/2000/svg">
<rect opacity="0.5" x="3" y="3" width="42" height="42" rx="21" fill="#2B2B2B"/>
<path d="M24 5C20.2422 5 16.5687 6.11433 13.4442 8.20208C10.3196 10.2898 7.88435 13.2572 6.44629 16.729C5.00822 20.2008 4.63196 24.0211 5.36508 27.7067C6.0982 31.3924 7.90777 34.7778 10.565 37.435C13.2222 40.0922 16.6076 41.9018 20.2933 42.6349C23.9789 43.368 27.7992 42.9918 31.271 41.5537C34.7428 40.1156 37.7102 37.6804 39.7979 34.5558C41.8857 31.4313 43 27.7578 43 24C43 18.9609 40.9982 14.1282 37.435 10.565C33.8718 7.00178 29.0391 5 24 5ZM24 41C20.6377 41 17.3509 40.003 14.5553 38.135C11.7597 36.267 9.58074 33.612 8.29405 30.5056C7.00736 27.3993 6.6707 23.9811 7.32665 20.6835C7.9826 17.3858 9.60169 14.3567 11.9792 11.9792C14.3567 9.60169 17.3858 7.9826 20.6835 7.32665C23.9811 6.6707 27.3993 7.00736 30.5056 8.29405C33.612 9.58074 36.267 11.7597 38.135 14.5553C40.003 17.3509 41 20.6377 41 24C41 28.5087 39.2089 32.8327 36.0208 36.0208C32.8327 39.2089 28.5087 41 24 41Z" fill="white"/>
<path d="M29.21 23.77C28.5159 23.4149 27.77 23.1719 27 23.05V22.92C28.0375 22.7763 28.9906 22.2697 29.69 21.49C30.3279 20.7073 30.6585 19.7189 30.62 18.71C30.6834 17.9906 30.5447 17.2679 30.2196 16.623C29.8946 15.9782 29.396 15.4369 28.78 15.06C27.1199 14.2664 25.2874 13.902 23.45 14H18V33H24.7C26.4239 33.0961 28.1286 32.5984 29.53 31.59C30.1202 31.1106 30.5883 30.4981 30.896 29.8028C31.2037 29.1075 31.3421 28.3492 31.3 27.59C31.3336 26.7541 31.1401 25.9247 30.74 25.19C30.3769 24.5796 29.8457 24.0867 29.21 23.77ZM20.41 16.05H23.55C24.7658 15.9655 25.9826 16.1999 27.08 16.73C27.4543 16.9706 27.7551 17.3099 27.9492 17.7103C28.1432 18.1108 28.2231 18.5571 28.18 19C28.2111 19.4316 28.1455 19.8647 27.9881 20.2678C27.8307 20.6708 27.5854 21.0337 27.27 21.33C26.2733 21.9516 25.0989 22.2259 23.93 22.11H20.41V16.05ZM27.76 30C26.7619 30.7719 25.505 31.13 24.25 31H20.41V24.09H24.06C25.3487 23.9585 26.6429 24.2803 27.72 25C28.0513 25.3053 28.3123 25.6789 28.485 26.095C28.6576 26.5112 28.7378 26.9598 28.72 27.41C28.7446 27.8843 28.6722 28.3587 28.5071 28.804C28.3421 29.2494 28.0878 29.6563 27.76 30Z" fill="white"/>
</svg>
