<svg width="48" height="48" viewBox="0 0 48 48" fill="none" xmlns="http://www.w3.org/2000/svg">
<rect opacity="0.5" x="3" y="3" width="42" height="42" rx="21" fill="#2B2B2B"/>
<path d="M24 5C20.2422 5 16.5687 6.11433 13.4442 8.20208C10.3196 10.2898 7.88435 13.2572 6.44629 16.729C5.00822 20.2008 4.63196 24.0211 5.36508 27.7067C6.0982 31.3924 7.90777 34.7778 10.565 37.435C13.2222 40.0922 16.6076 41.9018 20.2933 42.6349C23.9789 43.368 27.7992 42.9918 31.271 41.5537C34.7428 40.1156 37.7102 37.6804 39.7979 34.5558C41.8857 31.4313 43 27.7578 43 24C43 18.9609 40.9982 14.1282 37.435 10.565C33.8718 7.00178 29.0391 5 24 5ZM24 41C20.6377 41 17.3509 40.003 14.5553 38.135C11.7597 36.267 9.58074 33.612 8.29405 30.5056C7.00736 27.3993 6.6707 23.9811 7.32665 20.6835C7.9826 17.3858 9.60169 14.3567 11.9792 11.9792C14.3567 9.60169 17.3858 7.9826 20.6835 7.32665C23.9811 6.6707 27.3993 7.00736 30.5056 8.29405C33.612 9.58074 36.267 11.7597 38.135 14.5553C40.003 17.3509 41 20.6377 41 24C41 28.5087 39.2089 32.8327 36.0208 36.0208C32.8327 39.2089 28.5087 41 24 41Z" fill="white"/>
<path d="M24 35L33.53 18.5H14.47L24 35Z" fill="white"/>
</svg>
