<svg width="48" height="48" viewBox="0 0 48 48" fill="none" xmlns="http://www.w3.org/2000/svg">
<path opacity="0.5" d="M38.56 13.86C37.8369 13.7092 37.0983 13.6455 36.36 13.67C35.8296 13.67 35.3209 13.4593 34.9458 13.0842C34.5707 12.7091 34.36 12.2004 34.36 11.67C34.3846 10.9317 34.3208 10.1931 34.17 9.47C33.6902 7.02891 32.3592 4.8375 30.4142 3.28629C28.4692 1.73508 26.0367 0.924854 23.55 0.999999C20.8925 1.1208 18.3835 2.26026 16.5438 4.18188C14.7041 6.1035 13.675 8.65972 13.67 11.32V11.6C13.678 11.8676 13.6322 12.1342 13.5353 12.3838C13.4384 12.6334 13.2924 12.861 13.1059 13.0532C12.9193 13.2453 12.6961 13.398 12.4495 13.5022C12.2028 13.6065 11.9378 13.6601 11.67 13.66C10.9284 13.6359 10.1866 13.6997 9.46001 13.85C7.02251 14.3317 4.83478 15.6621 3.28578 17.6047C1.73677 19.5474 0.926848 21.9764 1.00001 24.46C1.1233 27.1158 2.26385 29.6223 4.18521 31.4598C6.10657 33.2974 8.66138 34.3252 11.32 34.33H11.6C11.8677 34.322 12.1342 34.3678 12.3838 34.4647C12.6334 34.5616 12.8611 34.7076 13.0532 34.8941C13.2453 35.0807 13.398 35.3039 13.5022 35.5505C13.6065 35.7972 13.6601 36.0622 13.66 36.33C13.6355 37.0683 13.6992 37.8069 13.85 38.53C14.3293 40.9676 15.6574 43.1563 17.5982 44.7071C19.5389 46.2579 21.9667 47.0703 24.45 47C27.1075 46.8792 29.6165 45.7397 31.4562 43.8181C33.2959 41.8965 34.325 39.3403 34.33 36.68V36.4C34.3217 36.1272 34.3693 35.8556 34.4699 35.6019C34.5705 35.3483 34.7219 35.1178 34.9149 34.9249C35.1078 34.7319 35.3383 34.5804 35.5919 34.4799C35.8456 34.3793 36.1172 34.3317 36.39 34.34H36.67C39.3344 34.3399 41.8959 33.3114 43.8205 31.4688C45.745 29.6262 46.8841 27.1119 47 24.45C47.0692 21.9727 46.2599 19.5507 44.7153 17.6126C43.1707 15.6745 40.9903 14.3453 38.56 13.86Z" fill="#2B2B2B"/>
<path d="M24 17.67C25.2544 17.672 26.4811 17.3018 27.5251 16.6064C28.569 15.9109 29.3831 14.9215 29.8645 13.7632C30.3459 12.6048 30.4729 11.3298 30.2294 10.0993C29.9859 8.86877 29.3829 7.73816 28.4966 6.85049C27.6103 5.96283 26.4807 5.35801 25.2506 5.11256C24.0205 4.86712 22.7452 4.99209 21.5861 5.47165C20.4271 5.95122 19.4363 6.76383 18.7392 7.80665C18.0421 8.84947 17.67 10.0756 17.67 11.33C17.6687 12.1621 17.8315 12.9863 18.149 13.7555C18.4665 14.5246 18.9326 15.2236 19.5205 15.8125C20.1084 16.4013 20.8067 16.8685 21.5753 17.1872C22.344 17.5059 23.1679 17.67 24 17.67ZM24 7.67L27.18 13.17H20.82L24 7.67Z" fill="white"/>
<path d="M24 30.33C22.7456 30.328 21.5189 30.6982 20.475 31.3936C19.431 32.0891 18.6169 33.0785 18.1355 34.2369C17.6541 35.3952 17.5271 36.6702 17.7706 37.9007C18.0141 39.1312 18.6171 40.2618 19.5034 41.1495C20.3897 42.0372 21.5193 42.642 22.7494 42.8874C23.9796 43.1329 25.2548 43.0079 26.4139 42.5283C27.573 42.0488 28.5637 41.2362 29.2608 40.1934C29.9579 39.1505 30.33 37.9244 30.33 36.67C30.3313 35.8379 30.1686 35.0137 29.851 34.2445C29.5335 33.4754 29.0674 32.7764 28.4795 32.1875C27.8916 31.5987 27.1933 31.1315 26.4247 30.8128C25.6561 30.4941 24.8321 30.33 24 30.33ZM24 40.33L20.82 34.83H27.18L24 40.33Z" fill="white"/>
<path d="M36.67 17.67C35.418 17.67 34.1942 18.0412 33.1532 18.7368C32.1123 19.4323 31.3009 20.421 30.8218 21.5776C30.3427 22.7343 30.2174 24.007 30.4616 25.2349C30.7059 26.4628 31.3087 27.5907 32.194 28.476C33.0793 29.3613 34.2072 29.9641 35.4351 30.2084C36.663 30.4526 37.9357 30.3273 39.0924 29.8482C40.249 29.3691 41.2377 28.5577 41.9332 27.5168C42.6287 26.4758 43 25.252 43 24C43 22.3212 42.3331 20.7111 41.146 19.524C39.9589 18.3369 38.3488 17.67 36.67 17.67ZM34.83 27.18V20.82L40.33 24L34.83 27.18Z" fill="white"/>
<path d="M11.33 17.67C10.0785 17.672 8.85563 18.0449 7.81598 18.7417C6.77634 19.4384 5.96656 20.4277 5.48899 21.5845C5.01142 22.7414 4.88749 24.0138 5.13286 25.241C5.37824 26.4683 5.9819 27.5952 6.86756 28.4795C7.75322 29.3638 8.88114 29.9657 10.1088 30.2091C11.3364 30.4525 12.6086 30.3266 13.7647 29.8472C14.9208 29.3678 15.9088 28.5565 16.6039 27.5157C17.299 26.475 17.67 25.2515 17.67 24C17.67 23.1679 17.506 22.3439 17.1872 21.5753C16.8685 20.8067 16.4013 20.1084 15.8125 19.5205C15.2236 18.9325 14.5246 18.4665 13.7555 18.149C12.9863 17.8314 12.1621 17.6687 11.33 17.67ZM13.17 27.18L7.67001 24L13.17 20.82V27.18Z" fill="white"/>
</svg>
