<svg width="48" height="48" viewBox="0 0 48 48" fill="none" xmlns="http://www.w3.org/2000/svg">
<path opacity="0.5" d="M35 3H13C7.47715 3 3 7.47715 3 13V35C3 40.5228 7.47715 45 13 45H35C40.5228 45 45 40.5228 45 35V13C45 7.47715 40.5228 3 35 3Z" fill="#2B2B2B"/>
<path d="M35 5H13C10.8783 5 8.84344 5.84285 7.34315 7.34315C5.84285 8.84344 5 10.8783 5 13V35C5 37.1217 5.84285 39.1566 7.34315 40.6569C8.84344 42.1571 10.8783 43 13 43H35C37.1217 43 39.1566 42.1571 40.6569 40.6569C42.1571 39.1566 43 37.1217 43 35V13C43 10.8783 42.1571 8.84344 40.6569 7.34315C39.1566 5.84285 37.1217 5 35 5ZM41 35C41 36.5913 40.3679 38.1174 39.2426 39.2426C38.1174 40.3679 36.5913 41 35 41H13C11.4087 41 9.88258 40.3679 8.75736 39.2426C7.63214 38.1174 7 36.5913 7 35V13C7 11.4087 7.63214 9.88258 8.75736 8.75736C9.88258 7.63214 11.4087 7 13 7H35C36.5913 7 38.1174 7.63214 39.2426 8.75736C40.3679 9.88258 41 11.4087 41 13V35Z" fill="white"/>
<path d="M12 24H16V35H32V24H36L24 12L12 24ZM27 30H21V24H27V30Z" fill="white"/>
</svg>
