<svg width="48" height="48" viewBox="0 0 48 48" fill="none" xmlns="http://www.w3.org/2000/svg">
<rect opacity="0.5" x="3" y="3" width="42" height="42" rx="21" fill="#2B2B2B"/>
<path d="M24 5C20.2422 5 16.5687 6.11433 13.4442 8.20208C10.3196 10.2898 7.88436 13.2572 6.4463 16.729C5.00823 20.2008 4.63197 24.0211 5.36509 27.7067C6.09821 31.3924 7.90778 34.7778 10.565 37.435C13.2222 40.0922 16.6077 41.9018 20.2933 42.6349C23.9789 43.368 27.7992 42.9918 31.271 41.5537C34.7428 40.1156 37.7102 37.6804 39.7979 34.5558C41.8857 31.4313 43 27.7578 43 24C43 18.9609 40.9982 14.1282 37.435 10.565C33.8718 7.00178 29.0391 5 24 5ZM24 41C19.4913 41 15.1673 39.2089 11.9792 36.0208C8.79108 32.8327 7.00001 28.5087 7.00001 24C7.00001 20.6377 7.99704 17.3509 9.86503 14.5553C11.733 11.7597 14.388 9.58074 17.4944 8.29405C20.6007 7.00736 24.0189 6.6707 27.3165 7.32665C30.6142 7.9826 33.6433 9.60169 36.0208 11.9792C38.3983 14.3567 40.0174 17.3858 40.6734 20.6835C41.3293 23.9811 40.9926 27.3993 39.706 30.5056C38.4193 33.612 36.2403 36.267 33.4447 38.135C30.6491 40.003 27.3623 41 24 41Z" fill="white"/>
<path d="M37 24.81L41 24L37 23.19C36.8079 20.0198 35.462 17.0296 33.2162 14.7838C30.9704 12.538 27.9802 11.1921 24.81 11L24 7L23.19 11C20.0198 11.1921 17.0296 12.538 14.7838 14.7838C12.538 17.0296 11.1921 20.0198 11 23.19L7 24L11 24.81C11.1921 27.9802 12.538 30.9704 14.7838 33.2162C17.0296 35.462 20.0198 36.8079 23.19 37L24 41L24.81 37C27.9802 36.8079 30.9704 35.462 33.2162 33.2162C35.462 30.9704 36.8079 27.9802 37 24.81ZM12 24C12 21.6266 12.7038 19.3065 14.0224 17.3332C15.3409 15.3598 17.2151 13.8217 19.4078 12.9134C21.6005 12.0052 24.0133 11.7676 26.3411 12.2306C28.6689 12.6936 30.8071 13.8365 32.4853 15.5147C34.1635 17.1929 35.3064 19.3311 35.7694 21.6589C36.2324 23.9867 35.9948 26.3995 35.0866 28.5922C34.1783 30.7849 32.6402 32.6591 30.6668 33.9776C28.6935 35.2962 26.3734 36 24 36C20.8174 36 17.7652 34.7357 15.5147 32.4853C13.2643 30.2348 12 27.1826 12 24Z" fill="white"/>
<path d="M23.07 17H20.32V30H28.35V27.72H23.07V17Z" fill="white"/>
</svg>
