<svg width="48" height="48" viewBox="0 0 48 48" fill="none" xmlns="http://www.w3.org/2000/svg">
<path d="M39 11H9C7.4087 11 5.88258 11.6321 4.75736 12.7574C3.63214 13.8826 3 15.4087 3 17V24C3 27.713 4.475 31.274 7.1005 33.8995C9.72601 36.525 13.287 38 17 38H31C34.713 38 38.274 36.525 40.8995 33.8995C43.525 31.274 45 27.713 45 24V17C45 15.4087 44.3679 13.8826 43.2426 12.7574C42.1174 11.6321 40.5913 11 39 11Z" fill="white"/>
<path d="M39 13H9C7.93913 13 6.92172 13.4214 6.17157 14.1716C5.42143 14.9217 5 15.9391 5 17V24C5 27.1826 6.26428 30.2348 8.51472 32.4853C10.7652 34.7357 13.8174 36 17 36H31C34.1826 36 37.2348 34.7357 39.4853 32.4853C41.7357 30.2348 43 27.1826 43 24V17C43 15.9391 42.5786 14.9217 41.8284 14.1716C41.0783 13.4214 40.0609 13 39 13ZM41 24C41 30 37 34 31 34H17C11 34 7 30 7 24V17C7 15.9 7 15 9 15H39C41 15 41 15.9 41 17V24Z" fill="#2B2B2B"/>
<path d="M23.41 18H20.66V31H28.69V28.72H23.41V18Z" fill="#2B2B2B"/>
</svg>
