<svg width="48" height="48" viewBox="0 0 48 48" fill="none" xmlns="http://www.w3.org/2000/svg">
<path opacity="0.5" d="M31 5H17C13.287 5 9.72601 6.475 7.1005 9.1005C4.475 11.726 3 15.287 3 19V37C3 38.5913 3.63214 40.1174 4.75736 41.2426C5.88258 42.3679 7.4087 43 9 43H39C40.5913 43 42.1174 42.3679 43.2426 41.2426C44.3679 40.1174 45 38.5913 45 37V19C45 15.287 43.525 11.726 40.8995 9.1005C38.274 6.475 34.713 5 31 5Z" fill="#2B2B2B"/>
<path d="M31 7H17C13.8174 7 10.7652 8.26428 8.51472 10.5147C6.26428 12.7652 5 15.8174 5 19V37C5 38.0609 5.42143 39.0783 6.17157 39.8284C6.92172 40.5786 7.93913 41 9 41H39C40.0609 41 41.0783 40.5786 41.8284 39.8284C42.5786 39.0783 43 38.0609 43 37V19C43 15.8174 41.7357 12.7652 39.4853 10.5147C37.2348 8.26428 34.1826 7 31 7ZM41 37C40.9825 37.5249 40.7662 38.0235 40.3949 38.3949C40.0235 38.7662 39.5249 38.9825 39 39H9C8.47512 38.9825 7.9765 38.7662 7.60514 38.3949C7.23379 38.0235 7.01747 37.5249 7 37V19C7 13 11 9 17 9H31C32.3237 8.96129 33.6414 9.19348 34.8722 9.68232C36.1029 10.1712 37.2208 10.9064 38.1572 11.8428C39.0936 12.7792 39.8288 13.8971 40.3177 15.1278C40.8065 16.3586 41.0387 17.6763 41 19V37Z" fill="white"/>
<path d="M23.64 19.78V18H14.3V20.28H20.36L14.14 29.22V31H23.8V28.72H17.41L23.64 19.78Z" fill="white"/>
<path d="M28.63 18H25.88V31H33.91V28.72H28.63V18Z" fill="white"/>
</svg>
