<svg width="48" height="48" viewBox="0 0 48 48" fill="none" xmlns="http://www.w3.org/2000/svg">
<path opacity="0.5" d="M31 5H17C13.287 5 9.72601 6.475 7.1005 9.1005C4.475 11.726 3 15.287 3 19V37C3 38.5913 3.63214 40.1174 4.75736 41.2426C5.88258 42.3679 7.4087 43 9 43H39C40.5913 43 42.1174 42.3679 43.2426 41.2426C44.3679 40.1174 45 38.5913 45 37V19C45 15.287 43.525 11.726 40.8995 9.1005C38.274 6.475 34.713 5 31 5Z" fill="#2B2B2B"/>
<path d="M31 7H17C13.8174 7 10.7652 8.26428 8.51472 10.5147C6.26428 12.7652 5 15.8174 5 19V37C5 38.0609 5.42143 39.0783 6.17157 39.8284C6.92172 40.5786 7.93913 41 9 41H39C40.0609 41 41.0783 40.5786 41.8284 39.8284C42.5786 39.0783 43 38.0609 43 37V19C43 15.8174 41.7357 12.7652 39.4853 10.5147C37.2348 8.26428 34.1826 7 31 7ZM41 37C40.9825 37.5249 40.7662 38.0235 40.3949 38.3949C40.0235 38.7662 39.5249 38.9825 39 39H9C8.47512 38.9825 7.9765 38.7662 7.60514 38.3949C7.23379 38.0235 7.01747 37.5249 7 37V19C7 13 11 9 17 9H31C37 9 41 13 41 19V37Z" fill="white"/>
<path d="M22.79 19.78V18H13.45V20.28H19.51L13.28 29.22V31H22.95V28.72H16.56L22.79 19.78Z" fill="white"/>
<path d="M32.77 24.58C33.1436 24.2709 33.4471 23.8857 33.66 23.45C33.8973 22.9685 34.014 22.4366 34 21.9C34.0331 21.3516 33.9362 20.8031 33.7173 20.2991C33.4983 19.7952 33.1635 19.3501 32.74 19C31.5693 18.258 30.1929 17.9078 28.81 18H25V31H27.74V26H29.22L32.31 31H35.4L31.58 25.34C32.0072 25.1381 32.4071 24.8827 32.77 24.58ZM30.62 23.32C30.0335 23.6714 29.3512 23.8288 28.67 23.77H27.77V20.26H28.61C29.2995 20.2095 29.99 20.3441 30.61 20.65C30.8244 20.7986 30.9945 21.0028 31.1019 21.2405C31.2094 21.4783 31.2502 21.7408 31.22 22C31.231 22.2517 31.1824 22.5025 31.0781 22.7319C30.9738 22.9612 30.8169 23.1628 30.62 23.32Z" fill="white"/>
</svg>
