<svg width="48" height="48" viewBox="0 0 48 48" fill="none" xmlns="http://www.w3.org/2000/svg">
<path d="M39 11H9C7.4087 11 5.88258 11.6321 4.75736 12.7574C3.63214 13.8826 3 15.4087 3 17V24C3 27.713 4.475 31.274 7.1005 33.8995C9.72601 36.525 13.287 38 17 38H31C34.713 38 38.274 36.525 40.8995 33.8995C43.525 31.274 45 27.713 45 24V17C45 15.4087 44.3679 13.8826 43.2426 12.7574C42.1174 11.6321 40.5913 11 39 11Z" fill="white"/>
<path d="M39 13H9C7.93913 13 6.92172 13.4214 6.17157 14.1716C5.42143 14.9217 5 15.9391 5 17V24C5 27.1826 6.26428 30.2348 8.51472 32.4853C10.7652 34.7357 13.8174 36 17 36H31C34.1826 36 37.2348 34.7357 39.4853 32.4853C41.7357 30.2348 43 27.1826 43 24V17C43 15.9391 42.5786 14.9217 41.8284 14.1716C41.0783 13.4214 40.0609 13 39 13ZM41 24C41 30 37 34 31 34H17C11 34 7 30 7 24V17C7 15.9 7 15 9 15H39C41 15 41 15.9 41 17V24Z" fill="#2B2B2B"/>
<path d="M27.15 24.58C27.5092 24.2669 27.7987 23.8819 28 23.45C28.2373 22.9685 28.354 22.4366 28.34 21.9C28.3791 21.3538 28.288 20.8061 28.0742 20.3019C27.8603 19.7978 27.5299 19.3516 27.11 19C25.9435 18.2569 24.5699 17.9065 23.19 18H19.4V31H22.15V26H23.63L26.72 31H29.78L26 25.34C26.4133 25.1352 26.7995 24.8799 27.15 24.58ZM25 23.32C24.3983 23.6792 23.6976 23.8368 23 23.77H22.11V20.26H23C23.6895 20.2095 24.38 20.3441 25 20.65C25.2116 20.8003 25.3783 21.0053 25.4822 21.2432C25.5862 21.481 25.6234 21.7426 25.59 22C25.6022 22.2509 25.5551 22.5011 25.4526 22.7304C25.3501 22.9598 25.195 23.1617 25 23.32Z" fill="#2B2B2B"/>
</svg>
