<svg width="48" height="48" viewBox="0 0 48 48" fill="none" xmlns="http://www.w3.org/2000/svg">
<path d="M35 3H13C7.47715 3 3 7.47715 3 13V35C3 40.5228 7.47715 45 13 45H35C40.5228 45 45 40.5228 45 35V13C45 7.47715 40.5228 3 35 3Z" fill="white"/>
<path d="M35 5H13C10.8783 5 8.84344 5.84285 7.34315 7.34315C5.84285 8.84344 5 10.8783 5 13V35C5 37.1217 5.84285 39.1566 7.34315 40.6569C8.84344 42.1571 10.8783 43 13 43H35C37.1217 43 39.1566 42.1571 40.6569 40.6569C42.1571 39.1566 43 37.1217 43 35V13C43 10.8783 42.1571 8.84344 40.6569 7.34315C39.1566 5.84285 37.1217 5 35 5ZM41 35C41 39 39 41 35 41H13C9 41 7 39 7 35V13C7 9 9 7 13 7H35C39 7 41 9 41 13V35Z" fill="#2B2B2B"/>
<path d="M24 11C21.4288 11 18.9154 11.7624 16.7776 13.1909C14.6397 14.6194 12.9735 16.6497 11.9896 19.0251C11.0056 21.4006 10.7482 24.0144 11.2498 26.5362C11.7514 29.0579 12.9895 31.3743 14.8076 33.1924C16.6257 35.0105 18.9421 36.2486 21.4638 36.7502C23.9856 37.2518 26.5994 36.9944 28.9749 36.0104C31.3503 35.0265 33.3806 33.3603 34.8091 31.2224C36.2376 29.0846 37 26.5712 37 24C37 20.5522 35.6304 17.2456 33.1924 14.8076C30.7544 12.3696 27.4478 11 24 11ZM24 35C21.8244 35 19.6977 34.3549 17.8887 33.1462C16.0798 31.9375 14.6699 30.2195 13.8373 28.2095C13.0048 26.1995 12.7869 23.9878 13.2114 21.854C13.6358 19.7202 14.6834 17.7602 16.2218 16.2218C17.7602 14.6834 19.7202 13.6358 21.854 13.2114C23.9878 12.7869 26.1995 13.0048 28.2095 13.8373C30.2195 14.6699 31.9375 16.0798 33.1462 17.8887C34.3549 19.6977 35 21.8244 35 24C35 26.9174 33.8411 29.7153 31.7782 31.7782C29.7153 33.8411 26.9174 35 24 35Z" fill="#2B2B2B"/>
</svg>
