<svg width="48" height="48" viewBox="0 0 48 48" fill="none" xmlns="http://www.w3.org/2000/svg">
<path d="M24 45C35.598 45 45 35.598 45 24C45 12.402 35.598 3 24 3C12.402 3 3 12.402 3 24C3 35.598 12.402 45 24 45Z" fill="white"/>
<path d="M5 24C5 27.7578 6.11433 31.4313 8.20208 34.5558C10.2898 37.6804 13.2572 40.1156 16.729 41.5537C20.2008 42.9918 24.0211 43.368 27.7067 42.6349C31.3924 41.9018 34.7778 40.0922 37.435 37.435C40.0922 34.7778 41.9018 31.3924 42.6349 27.7067C43.368 24.0211 42.9918 20.2008 41.5537 16.729C40.1156 13.2572 37.6804 10.2898 34.5558 8.20208C31.4313 6.11433 27.7578 5 24 5C18.9609 5 14.1282 7.00178 10.565 10.565C7.00178 14.1282 5 18.9609 5 24ZM7 24C7 20.6377 7.99703 17.3509 9.86502 14.5553C11.733 11.7597 14.388 9.58074 17.4944 8.29405C20.6007 7.00736 24.0189 6.6707 27.3165 7.32665C30.6142 7.9826 33.6433 9.60169 36.0208 11.9792C38.3983 14.3567 40.0174 17.3858 40.6734 20.6835C41.3293 23.9811 40.9926 27.3993 39.706 30.5056C38.4193 33.612 36.2403 36.267 33.4447 38.135C30.6491 40.003 27.3623 41 24 41C19.4913 41 15.1673 39.2089 11.9792 36.0208C8.79107 32.8327 7 28.5087 7 24Z" fill="#2B2B2B"/>
<path d="M33 22H15V26H33V22Z" fill="#2B2B2B"/>
<path d="M26 33V15H22V33H26Z" fill="#2B2B2B"/>
</svg>
