<svg width="48" height="48" viewBox="0 0 48 48" fill="none" xmlns="http://www.w3.org/2000/svg">
<path d="M24 45C35.598 45 45 35.598 45 24C45 12.402 35.598 3 24 3C12.402 3 3 12.402 3 24C3 35.598 12.402 45 24 45Z" fill="white"/>
<path d="M24 5C20.2422 5 16.5687 6.11433 13.4442 8.20208C10.3196 10.2898 7.88436 13.2572 6.4463 16.729C5.00823 20.2008 4.63197 24.0211 5.36509 27.7067C6.09821 31.3924 7.90778 34.7778 10.565 37.435C13.2222 40.0922 16.6077 41.9018 20.2933 42.6349C23.9789 43.368 27.7992 42.9918 31.271 41.5537C34.7428 40.1156 37.7102 37.6804 39.7979 34.5558C41.8857 31.4313 43 27.7578 43 24C43 18.9609 40.9982 14.1282 37.435 10.565C33.8718 7.00178 29.0391 5 24 5ZM24 41C20.6377 41 17.351 40.003 14.5553 38.135C11.7597 36.267 9.58075 33.612 8.29406 30.5056C7.00737 27.3993 6.67071 23.9811 7.32666 20.6835C7.98261 17.3858 9.6017 14.3567 11.9792 11.9792C14.3567 9.60169 17.3858 7.9826 20.6835 7.32665C23.9811 6.6707 27.3993 7.00736 30.5056 8.29405C33.612 9.58074 36.267 11.7597 38.135 14.5553C40.003 17.3509 41 20.6377 41 24C41 28.5087 39.2089 32.8327 36.0208 36.0208C32.8327 39.2089 28.5087 41 24 41Z" fill="#2B2B2B"/>
<path d="M24 23.34L19.08 14H16.47L22.8 25.74V33H25.2V25.63L31.53 14H28.95L24 23.34Z" fill="#2B2B2B"/>
</svg>
