<?xml version="1.0" encoding="UTF-8"?><svg id="Layer_1" xmlns="http://www.w3.org/2000/svg" viewBox="0 0 36 36"><defs><style>.cls-1{fill:#fff;}</style></defs><path class="cls-1" d="m33.89,19.19l.38.69-7.47,3.58-2.01,2.89s-.31.31-1.19.82-1.76.63-1.76.63H5.62l-.31-.75.56-2.2-2.32-1.35v-.85h22.44l7.91-3.45Z"/><path class="cls-1" d="m9.36,14.05s.72,1.5.49,3.67c-.28,2.66-1.28,3.67-1.28,3.67h8.99s.53-.76.4-3.67c-.16-3.49-1.28-3.67-1.28-3.67h-7.31Z"/><path class="cls-1" d="m10.81,8.16s.55.99.37,2.42c-.21,1.75-.97,2.42-.97,2.42h6.8s.4-.5.3-2.42c-.12-2.3-.97-2.42-.97-2.42h-5.53Z"/><path class="cls-1" d="m19,16.53s.42.98.37,2.42c-.06,1.8-.43,2.42-.43,2.42h6.25s.4-.5.3-2.42c-.12-2.3-.97-2.42-.97-2.42h-5.53Z"/><path class="cls-1" d="m19.88,12s.38.69.26,1.7c-.15,1.23-.68,1.7-.68,1.7h4.78s.28-.35.21-1.7c-.09-1.62-.68-1.7-.68-1.7h-3.89Z"/><polygon class="cls-1" points="1.67 21.39 7.72 21.39 7.72 15.14 5.46 15.14 1.67 21.39"/><path class="cls-1" d="m4.69,5.91c.19-.13,9.59-2.07,9.59-2.07v3.44l-9.59-1.37Z"/></svg>