<?xml version="1.0" encoding="UTF-8"?>
<svg id="Layer_1" data-name="Layer 1" xmlns="http://www.w3.org/2000/svg" viewBox="0 0 36 36">
  <defs>
    <style>
      .cls-1 {
        fill: #fff;
        stroke-width: 0px;
      }
    </style>
  </defs>
  <path class="cls-1" d="m33.32,13.43h-.22c-.34.05-.65.15-1.01.27-.63.21-1.59.52-2.94.52-.19,0-.38,0-.58-.02-.98-.06-1.75-.36-2.56-.67-.01,0-.03-.01-.04-.02.23-.16.43-.31.61-.46,1.03-.88,1.14-1.75,1.03-2.36.4-.41.72-.88.89-1.38.25-.72.17-1.46-.2-2.05.06-.59-.1-1.17-.46-1.63-.5-.63-1.26-.96-2.29-.96-.8,0-1.67.19-1.84.22h-.04s-.04.02-.04.02c-3.6.96-8.01,2.28-9.98,3.44-1.15-1.34-2.82-2.09-4.73-2.09-.43,0-.79.04-1.01.07-.82.03-3.44.26-5.68,2.18C-.23,10.6.05,13.77.6,15.31l.65,1.81,1.18-.37c.1.2.19.39.29.56l-.32.47.18.84c.08.38.29.86.69,1.3-.99.95-1.64,1.93-1.74,2.09l-1.16,1.79,1.87,1.04,1.14.64-1.62,1.65,2.49,1.22,3.24,1.59,1.46.72,1-1.29c.35-.45,2.13-2.77,2.64-3.71.12-.21.28-.56.54-1.29.24.02.48.04.73.04h.13c.3,0,.6-.01.91-.02.47.58.82,1.13.99,1.55.44,1.08.89,3.1,1.03,3.79l.32,1.61h1.64c.4,0,1.79-.12,3-1.65.43-.55.78-1.06,1.01-1.41,1.48.59,2.57.88,2.61.89l1.41.38.79-1.22c.4-.62,1.28-2.2.78-3.65-.22-.63-.55-1.76-.56-1.77l-.05-.15c.54.11,1.11.16,1.72.16.1,0,.2,0,.3,0,4.11-.11,5.91-3.05,5.88-5.92-.03-2.62-1.29-3.55-2.45-3.55Z"/>
</svg>