<?xml version="1.0" encoding="UTF-8"?><svg id="Layer_1" xmlns="http://www.w3.org/2000/svg" viewBox="0 0 36 36"><defs><style>.cls-1{fill:#fff;}</style></defs><path class="cls-1" d="m33.3,15.43c-.53.06-2.15.94-4.87.77-2.73-.18-4.05-1.67-6.25-1.41-1.32.16-2.04.78-2.4,1.26-.24.32-.33.57-.33.57,0,0-.02.02-.05.06-.03-.02-.05-.03-.08-.05-.72-.39-1.78-.15-2.71-.01.15-.22.29-.43.43-.61.74-.93,3.02-1.69,3.02-1.69,0,0,3.83-1.62,5.21-2.79s-1.69-.58-1.69-.58c0,0,2.63-1.16,3.01-2.29.38-1.12-2.28.13-2.28.13,0,0,1.78-.93,1.98-1.7.19-.77-2.15-.25-2.15-.25,0,0-8.6,2.3-9.84,3.48s.23,2.59.23,2.59c0,0,.05,1.94.32,3.51-.71-.39-1.68-1.14-2.52-1.17l1.24-.63s.53-1.58-.96-4.27-4.53-2.02-4.53-2.02c0,0-2.53-.04-4.57,1.7-2.04,1.74-1.04,4.6-1.04,4.6,0,0,.53-.17,1.22-.37.14,1.31,1.4,3.11,1.4,3.11l-.57.83s.18.84,1.63.84c1.07,0,3.22-.84,4.27-1.28-.18.55-.31,1.13-.26,1.59,0,.08.02.15.03.23-.85,0-2.86.05-4.1.69-1.61.82-2.9,2.83-2.9,2.83l2.77,1.55s.68-1.78,1.14-2.02c.87-.45,1.84-.61,2.46-.67-.43.7-.95,1.44-1.41,1.78-1,.74-3.05,2.82-3.05,2.82l3.24,1.59s2.01-2.6,2.47-3.45c.28-.51.7-1.82.99-2.77.54.3,1.24.49,2.14.47.61,0,1.23-.02,1.82-.06.49.53,1.51,1.72,1.97,2.83.61,1.5,1.14,4.16,1.14,4.16,0,0,.72.01,1.43-.89.71-.9,1.15-1.67,1.15-1.67,0,0-.98-2.52-1.76-3.7-.26-.39-.63-.87-1.01-1.33l.12-.06,1.86,1.17s1.36,2.91,2.83,3.5,2.53.87,2.53.87c0,0,.8-1.23.57-1.91s-.58-1.85-.58-1.85c0,0-1.97-.71-2.71-1.49-.74-.78-1.66-2.11-1.66-2.11,0,0-.87.11-1.63.05.21-1.08.3-1.87.08-2.46,1.46-.21,3.63.05,5.23,1.65,1.32,1.32,2.59,1.85,4.53,1.8,5.03-.13,3.99-5.53,3.47-5.47h-.02Z"/></svg>