<?xml version="1.0" encoding="UTF-8"?><svg id="Layer_1" xmlns="http://www.w3.org/2000/svg" viewBox="0 0 36 36"><defs><style>.cls-1{fill:#fff;}</style></defs><path class="cls-1" d="m35.4,19.37l-.38-.69-.46-.85-.89.39-7.11,3.11c.15-.49.26-1.25.2-2.43-.11-2.02-.76-2.84-1.29-3.17.17-.39.3-1.02.24-2.08-.12-2.31-1.25-2.64-1.59-2.69h-.07s-.07-.01-.07-.01h-5.39c0-.14,0-.27-.01-.42-.16-2.94-1.48-3.35-1.88-3.41h-.07s-.07-.01-.07-.01h-.99V2.54l-1.27.26L1.89,5.84l7.63,1.79.57,1.03h0s.37.74.25,1.78c-.15,1.27-.62,1.76-.64,1.78l-.87.77h-.94l.28.58.22.5h-2.71s-.59,0-.59,0l-.31.51-3.8,6.25-.97,1.6h2.7v1.65l.52.31,1.63.95-.37,1.42-.09.34.14.33.31.75.27.65h17.08c.11-.03,1.11-.18,2.13-.77.95-.54,1.35-.92,1.42-.99l.07-.07.05-.08,1.85-2.66,7.22-3.46,1-.48-.53-.98Zm-16.1-5.8c-.09.76-.36,1.06-.37,1.07l-.21.15c-.19-.53-.42-.91-.66-1.17.2-.27.48-.88.51-2.17l.58,1.06s.21.43.14,1.07Z"/></svg>