<svg width="147" height="147" viewBox="0 0 147 147" fill="none" xmlns="http://www.w3.org/2000/svg">
<path d="M0 0H146.189V146.189H0V0Z" fill="url(#paint0_linear_3608_30014)"/>
<path d="M0 0H146.189V146.189H0V0Z" fill="#184972"/>
<path d="M146.191 146.188L0.00276184 146.188L0.00274906 -0.00116215L146.191 -0.00117493L146.191 146.188Z" fill="url(#paint1_linear_3608_30014)" fill-opacity="0.56"/>
<path d="M146 66C146 102.451 113.317 132 73 132C32.6832 132 0 102.451 0 66C0 29.5492 32.6832 0 73 0C113.317 0 146 29.5492 146 66Z" fill="url(#paint2_radial_3608_30014)" fill-opacity="0.86"/>
<defs>
<linearGradient id="paint0_linear_3608_30014" x1="27.6958" y1="-3.39826e-07" x2="118.493" y2="146.189" gradientUnits="userSpaceOnUse">
<stop stop-color="#184972" stop-opacity="0"/>
<stop offset="0.675313" stop-color="#DBE3E9" stop-opacity="0.514704"/>
<stop offset="1" stop-color="white" stop-opacity="0.61"/>
</linearGradient>
<linearGradient id="paint1_linear_3608_30014" x1="118.496" y1="146.188" x2="27.6985" y2="-0.00114792" gradientUnits="userSpaceOnUse">
<stop stop-color="#75185E"/>
<stop offset="0.5" stop-color="#9E2BA8"/>
<stop offset="0.675313" stop-color="#C33BDE"/>
<stop offset="0.8125" stop-color="#D034DE"/>
<stop offset="1" stop-color="#A22BB4"/>
</linearGradient>
<radialGradient id="paint2_radial_3608_30014" cx="0" cy="0" r="1" gradientUnits="userSpaceOnUse" gradientTransform="translate(73 66) rotate(90) scale(66 73)">
<stop stop-color="#BFDAFF" stop-opacity="0.35"/>
<stop offset="0.548077" stop-color="#BFDAFF" stop-opacity="0.18"/>
<stop offset="1" stop-color="#BFDAFF" stop-opacity="0"/>
</radialGradient>
</defs>
</svg>
