<?xml version="1.0" encoding="UTF-8"?><svg id="Layer_1" xmlns="http://www.w3.org/2000/svg" viewBox="0 0 21.22 21.53"><defs><style>.cls-1{fill:#fff;fill-rule:evenodd;}</style></defs><path d="m19.27,0h-1.65l-1.32,1.31.05,2.21-.83.83h-.71l-.83-.83.05-2.21-.3-.3h.01L12.72,0h-1.67s-1.76,2.62-1.76,2.62l-.17.25v1.92c-.12-.32-.24-.6-.36-.83-.51-1-1.05-1.85-1.52-2.46-.23-.3-.46-.56-.66-.76-.1-.1-.21-.2-.33-.28-.08-.05-.32-.22-.68-.26-.41-.05-.73.08-.87.14-.15.07-.26.15-.33.2-.13.1-.25.22-.33.32-.18.2-.39.47-.59.78-.42.62-.93,1.5-1.42,2.53C1.16,5.96.04,10.7.04,10.7v8.2l1.66,2.71,7.47-.09,1.55-2.69v-8.24s-.31-1.45-.75-3.06l2.02,2.02.04,9.84,1.44,2.13h3.17l1.68-2.08.02-9.89,2.87-2.86v-3.82L19.27,0Z"/><path class="cls-1" d="m1.93,19.9l.49.72h6.02l.45-.72H1.93Z"/><path class="cls-1" d="m1.11,11.58h0v.3l.03,2.16h8.35l-.03-2.16v-.39h0c0-5.23-3.64-10.34-4.3-10.42-.43-.06-3.97,5.36-4.05,10.51Z"/><path class="cls-1" d="m9.51,15.62H1.16v3.11l.27.44h7.92l.21-.44v-.39l-.04-2.71h-.01Z"/><path class="cls-1" d="m14.36,20.53h1.71l1.16-1.43v-1.43h-4.29v1.43l.98,1.43h.46-.02Zm-1.43-3.58h4.29v-.72h-4.3v.72h0Zm0-1.43h4.3v-.72h-4.3v.72h0Zm0-1.43h4.3v-.72h-4.3v.72h0Zm0-1.43h4.29l.03-3.52,2.86-2.86v-3.09l-1.47-2.19h-.71l-.72.71.05,2.21-1.43,1.43h-1.54l-1.43-1.43.05-2.21-.72-.72h-.72l-1.46,2.18v3.09l2.87,2.87.04,3.52h0Z"/></svg>