<?xml version="1.0" encoding="UTF-8"?><svg id="Layer_1" xmlns="http://www.w3.org/2000/svg" viewBox="0 0 21.12 23.08"><defs><style>.cls-1{fill:#fff;}</style></defs><path d="m13.5,10.75v-3.36l4.42.05L10.54,0,3.05,7.44l4.52-.05v3.33L0,7.61v11.12l10.18,4.19.38.16.38-.16,10.18-4.19V7.61l-7.62,3.14Z"/><g><path class="cls-1" d="m15.5,6.42l-3-.03v4.53h-3.94v-4.53l-3.07.03L10.53,1.42l4.97,5Z"/><path class="cls-1" d="m1,9.11l9.56,3.94,9.56-3.94v3.94l-9.56,3.94L1,13.05v-3.94Z"/><path class="cls-1" d="m1,14.13l9.56,3.94,9.56-3.94v3.94l-9.56,3.94-9.56-3.94v-3.94Z"/></g></svg>