<svg xmlns="http://www.w3.org/2000/svg" viewBox="0 0 718.79 718.79"><defs><radialGradient id="a" cx="359.39" cy="359.39" r="359.39" fx="359.39" fy="359.39" gradientUnits="userSpaceOnUse"><stop offset="0" stop-color="#fff"/><stop offset="1" stop-color="#fff" stop-opacity="0"/></radialGradient></defs><path fill="url(#a)" d="M359.39 0C160.91 0 0 160.91 0 359.39s160.91 359.39 359.39 359.39 359.39-160.91 359.39-359.39S557.88 0 359.39 0Zm0 528.91c-93.62 0-169.52-75.9-169.52-169.52s75.9-169.52 169.52-169.52 169.52 75.9 169.52 169.52-75.9 169.52-169.52 169.52Z"/><path fill="#fff" d="M359.83 193.87c44.1 0 85.55 17.17 116.73 48.35 31.18 31.18 48.35 72.64 48.35 116.73s-17.17 85.55-48.35 116.73c-31.18 31.18-72.64 48.35-116.73 48.35s-85.55-17.17-116.73-48.35-48.35-72.64-48.35-116.73 17.17-85.55 48.35-116.73 72.64-48.35 116.73-48.35m0-4c-93.38 0-169.09 75.7-169.09 169.09s75.7 169.09 169.09 169.09 169.09-75.7 169.09-169.09-75.7-169.09-169.09-169.09Z"/></svg>