<?xml version="1.0" encoding="UTF-8"?><svg id="Layer_1" xmlns="http://www.w3.org/2000/svg" viewBox="0 0 26 26"><defs><style>.cls-1{fill:#fff;fill-rule:evenodd;}</style></defs><path class="cls-1" d="m5.43,25.88l9.02-8.47,2.13,1.57c.43.24.94-.06,1.44-.47l.17.16-2.75,2.85c.13.29.48.5.89.08.73-.81,1.39-1.68,2-2.58l.07.07c.06.06.15.06.21,0l.18-.17.07.07s.08.03.11,0h.01s.01-.02.01-.02c.03-.03.03-.08,0-.11l-.07-.07.17-.18c.06-.06.06-.15,0-.21l-.07-.07c.9-.6,1.77-1.27,2.58-2,.42-.41.21-.76-.08-.89l-2.85,2.75-.16-.17c.41-.51.72-1.02.47-1.44l-1.57-2.13,8.47-9.02c.77-.77-2.22-2.94-2.88-2.92-.04.02-.08.04-.11.06l-.74.53-9.26,6.78c-1.92-1.55-3.94-2.96-6.05-4.25l2.06-4.02.11-.21c-.03-.08-.06-.15-.1-.23-.15-.25-.37-.47-.61-.63-.29-.21-.59-.39-.91-.56l-3.22,2.41.17,1.47-.95-.82-.16.18-.18.16.82.95-1.47-.17L0,7.38c.16.32.35.62.56.91.16.25.38.46.63.61.07.04.15.07.23.1l.21-.11,4.02-2.06c1.29,2.1,2.7,4.12,4.25,6.05l-6.78,9.26-.53.74s-.05.07-.06.11c-.03.67,2.15,3.66,2.92,2.88h0Z"/></svg>