<?xml version="1.0" encoding="UTF-8"?><svg id="Layer_1" xmlns="http://www.w3.org/2000/svg" viewBox="0 0 28.18 28.18"><defs><style>.cls-1{fill:#fff;}</style></defs><path class="cls-1" d="m9.03.29c.36.19.71.4,1.04.64h0c.3.21.58.47.79.78l.09.14v.02s.02.02.02.02c.06.11.11.23.16.36l.15.41-.2.39-.11.21h0s-1.64,3.19-1.64,3.19c1.64,1.04,3.23,2.16,4.76,3.35l8.64-6.33h0s.74-.54.74-.54h.01s.01-.02.01-.02c.07-.05.17-.1.27-.15l.17-.07h.19s.11,0,.11,0c.26.01.5.1.64.16.2.08.41.19.62.31.42.24.88.57,1.29.93.4.35.82.77,1.08,1.22.13.22.27.52.29.87.03.38-.09.78-.39,1.1h0s-7.9,8.42-7.9,8.42l.97,1.31,1.64-1.59.61.27c.34.15.75.48.88,1.03.14.6-.14,1.13-.5,1.49h-.01s-.02.03-.02.03c-.69.62-1.42,1.2-2.18,1.74-.02.08-.05.15-.09.22-.03.21-.11.41-.24.57l-.07.08h-.01s-.01.02-.01.02h0c-.18.18-.41.29-.65.31-.07.04-.14.06-.22.08-.54.75-1.11,1.48-1.73,2.18v.02s-.03.01-.03.01c-.36.37-.88.64-1.49.5-.55-.13-.88-.53-1.03-.88l-.27-.62.47-.48,1.12-1.16-1.31-.97-8.42,7.9h0c-.32.3-.72.41-1.09.39-.35-.02-.65-.16-.87-.29-.45-.26-.88-.68-1.22-1.08-.36-.41-.69-.87-.93-1.29-.12-.21-.23-.42-.31-.62-.07-.17-.17-.46-.16-.76v-.18s.08-.17.08-.17c.05-.11.1-.2.15-.27h0s0-.03,0-.03l.53-.74h0s6.33-8.66,6.33-8.66c-1.2-1.53-2.32-3.12-3.35-4.76l-3.19,1.64h0s-.21.11-.21.11l-.39.21-.41-.15c-.13-.05-.25-.1-.36-.16h-.02s-.02-.02-.02-.02c-.37-.22-.7-.53-.95-.91-.23-.32-.44-.66-.62-1.01l-.29-.56.38-.5,2.4-3.2.13-.18-.07-.08.72-.66.15-.13.13-.14.66-.72.08.07.18-.13,3.72-2.79.56.29Zm-3.67,3.3l.17,1.47-.95-.82-.16.18-.18.16.82.95-1.47-.17-2.4,3.2c.16.32.35.62.56.91.16.25.38.46.63.61.07.04.15.07.23.1l.21-.11,4.02-2.06c1.29,2.1,2.7,4.12,4.25,6.05l-6.78,9.26-.53.74s-.04.07-.06.11c-.03.67,2.15,3.65,2.92,2.88h0s9.03-8.47,9.03-8.47l2.13,1.57c.43.24.94-.06,1.44-.47l.17.16-2.75,2.85c.13.29.48.5.88.08.73-.81,1.39-1.68,2-2.58l.07.07c.06.06.15.06.21,0l.18-.17.07.07s.09.03.11,0l.02-.02s.03-.08,0-.11l-.07-.07.17-.18c.06-.06.06-.15,0-.21l-.07-.07c.9-.6,1.77-1.28,2.58-2,.42-.41.21-.76-.08-.89l-2.85,2.75-.16-.17c.41-.51.72-1.02.47-1.44l-1.57-2.13,8.47-9.03c.77-.77-2.22-2.94-2.88-2.92-.04.02-.08.04-.11.06l-.74.53-9.26,6.78c-1.92-1.55-3.94-2.96-6.05-4.25l2.06-4.02.11-.21c-.03-.08-.06-.15-.1-.23-.15-.25-.37-.47-.62-.63-.29-.21-.59-.4-.91-.56l-3.22,2.41Z"/></svg>