<?xml version="1.0" encoding="UTF-8"?><svg id="Layer_1" xmlns="http://www.w3.org/2000/svg" viewBox="0 0 59.24 46.37"><defs><style>.cls-1{fill:#fff;}.cls-2{fill:#903f40;}</style></defs><path class="cls-1" d="m27.36,31.63c.02-1.99.39-3.94,1.09-5.8l.02-.06.03-.06s.02-.04.03-.07c.05-.13.1-.26.16-.39,2.15-5.25,6.71-8.96,12.11-10.09L30.18,2.62l-14.57,17.23,11.9,14.07s-.01-.08-.01-.13c-.09-.71-.14-1.43-.14-2.17Z"/><g id="Group_27"><path id="Path_23" class="cls-1" d="m44.84,17.62c-5.7.02-10.83,3.49-12.96,8.78-.04.07-.06.14-.09.22,0,.06-.05.13-.09.21-.58,1.55-.89,3.19-.91,4.84,0,.64.04,1.27.13,1.9,0,.27.09.56.14.82.44,2.31,1.46,4.46,2.97,6.26.43.53.9,1.02,1.41,1.46.06.07.13.12.21.17.04.05.08.1.14.13l.1.09c5.98,4.93,14.83,4.08,19.77-1.9,4.93-5.98,4.08-14.83-1.9-19.77-2.51-2.07-5.67-3.21-8.92-3.21Zm1.19,26.11l-.12-.11c-.73-.77-1.23-1.73-1.41-2.78,0-.23-.1-.45-.14-.69-.28.1-.38.22-.49.69-.41-.53-.72-1.12-.93-1.76-.18-.64-.29-1.27-.43-1.91-.23.12-.41.53-.52,1.17-1.17-1.52-1.5-3.52-.9-5.34.72-1.78,2.23-3.12,4.08-3.64-.26-.26-.49-.53-.75-.78-.87-.83-1.91-1.46-3.06-1.83-1.32-.4-2.72-.53-4.09-.36-.9.1-1.77.27-2.66.41l.62-.44c.95-.63,1.96-1.16,3.02-1.57.95-.38,1.94-.65,2.95-.8,1.07-.16,2.17-.16,3.24,0,1.97.31,3.83,1.08,5.43,2.26.23.16.23.18.06.4-.31.36-.67.68-1.08.92-.21-.31-.44-.6-.69-.87-.59-.65-1.39-1.07-2.26-1.2-.85-.15-1.73-.15-2.58,0l-2.02.41c-.05.02-.1.05-.14.09,1.12.29,2.29.29,3.41,0-.12.85,0,1.61.91,1.93.54.2,1.16.06,1.56-.36.18.2.26.47.23.73,0,.19.06.25.24.26.44.06.88,0,1.3-.15.39-.17.76-.36,1.16-.5.62-.22.84.18.79.7v.18c.23-.14.47-.26.71-.37.11-.05.24-.05.35,0,.34.19.66.4.97.64.93.65,1.38,1.78,1.17,2.89-.01.13-.03.25-.06.38-.6-.89-1.52-1.53-2.57-1.77-1.06-.32-2.14-.53-3.24-.64-1.5-.21-3.01.24-4.16,1.23-.69.52-1.27,1.17-1.72,1.91-.42.73-.57,1.6-.41,2.43v.12c.26-1.23,1.05-2.28,2.16-2.86-.05.18-.13.36-.18.53-.32.86-.49,1.76-.49,2.68.01,1.17.36,2.32,1,3.29.01-.1.01-.21,0-.31.03-1.3.35-2.58.94-3.74.64-1.36,1.78-2.43,3.18-2.98.78-.3,1.61-.4,2.44-.3.53.05,1.06.15,1.58.3.75.17,1.31.81,1.38,1.58.21-.39.44-.76.62-1.16.33-.72.49-1.51.44-2.3-.07-.81-.4-1.57-.96-2.16-.71-.74-1.6-1.29-2.58-1.61-.15-.05-.28-.13-.39-.24-1.09-1.14-2.35-2.11-3.74-2.85-1.11-.58-2.3-1.02-3.53-1.29-1.31-.28-2.65-.36-3.97-.22-1.03.1-2.04.34-3,.71,4.95-4.51,12.61-4.15,17.12.8,4.51,4.95,4.15,12.61-.8,17.12-1.93,1.76-4.38,2.85-6.98,3.1h0Z"/></g><g><path class="cls-1" d="m16.68,14.2s-3.68-2.63-6.42-4.95S4.62.99,4.62.99c0,0-2.35,6.37,1.19,9.85,3.58,3.52,7.57,4.8,9.31,5.21l1.54-1.82v-.05Z"/><polygon class="cls-1" points="15.61 19.85 15.67 19.91 15.67 19.91 15.61 19.85"/><path class="cls-1" d="m14.28,17.06c-1.17-.5-3.03-1.34-4.68-2.24-2.67-1.46-5.38-3.65-5.38-3.65,0,0-1,4.72,6.34,7.78.55.23,1.11.41,1.65.56l1.25-1.47.82-.97Z"/><path class="cls-1" d="m12.7,20.76c-.63-.11-1.29-.25-1.93-.45-2.63-.81-5.89-2.59-5.89-2.59,0,0,1.21,4.23,5.84,5.18,1.1.23,2.54.13,3.72-.02l-1.01-1.22-.74-.89Z"/><path class="cls-1" d="m11.1,23.7c-3.11-.28-4.85-.95-4.85-.95,0,0,.77,3.42,5.25,3.29,1.85-.05,3.52-.74,4.54-1.26l-1.02-1.24c-1.08.16-2.48.28-3.92.15Z"/><path class="cls-1" d="m13.22,26.78c-2.53.74-4.76.29-4.76.29,0,0,3.52,2.72,5.54,1.6,1.22-.68,2.41-1.77,3.17-2.53l-.69-.84c-.75.46-1.88,1.06-3.26,1.46Z"/><path class="cls-1" d="m15.45,28.83c-1.23.82-3.53,1.46-3.53,1.46,0,0,3.54,1.01,5.04-.48.73-.73,1.22-1.48,1.53-2.06l-.91-1.1c-.44.58-1.28,1.61-2.13,2.18Z"/><polygon class="cls-1" points="15.67 19.91 15.66 19.8 15.61 19.85 15.67 19.91"/></g><g><path class="cls-2" d="m46.16,17.69s-.07-.01-.1-.01c.03,0,.07.01.1.01h0Z"/><path class="cls-1" d="m44.83,14.8h0c.99,0,1.97.09,2.93.26,1.87-.79,4.17-2.09,6.32-4.21,3.54-3.48,1.19-9.85,1.19-9.85,0,0-2.91,5.92-5.64,8.25s-6.42,4.95-6.42,4.95v.05s.52.6.52.6c.36-.02.71-.04,1.08-.04h0Z"/><path class="cls-1" d="m55.68,11.17s-2.71,2.19-5.38,3.65c-.35.19-.72.38-1.08.57,1.28.35,2.52.85,3.69,1.49,3.38-2.75,2.77-5.71,2.77-5.71Z"/></g></svg>