<?xml version="1.0" encoding="UTF-8"?><svg id="Layer_1" xmlns="http://www.w3.org/2000/svg" viewBox="0 0 59.24 46.37"><defs><style>.cls-1{fill:#fff;}.cls-2{fill:#662020;}</style></defs><polygon class="cls-1" points="16.43 24.65 16.43 14.41 4.82 9.86 4.82 13.29 13.5 16.91 13.5 23.41 16.43 24.65"/><rect class="cls-1" x="24.69" y="5.6" width="3.74" height="3.74" transform="translate(13.06 -16.59) rotate(45)"/><rect class="cls-1" x="30.75" y="5.6" width="3.74" height="3.74" transform="translate(14.84 -20.88) rotate(45)"/><g><path class="cls-1" d="m42.7,11.13h0c.94,0,1.87.08,2.79.23l13.71-5.51v-3.43l-21.11,8.23v1.11c1.49-.41,3.03-.63,4.6-.64h0Z"/><path class="cls-1" d="m21.08,23.41v-12.75L-.03,2.43v3.43l18.18,7.3v12.13l7.1,2.84c.04-.99.16-1.98.36-2.94l-4.53-1.77Z"/><path class="cls-1" d="m26.38,22.53l.02-.04s.03-.07.05-.1c.04-.13.1-.26.16-.39,1.31-3.2,3.51-5.92,6.37-7.86,1.06-.72,2.19-1.32,3.37-1.78v-1.22h-13.51v11.1l3.22,1.22c.1-.3.2-.6.31-.9v-.04Z"/><path class="cls-1" d="m54.31,13.29v-3.43l-5.81,2.27c1.37.48,2.68,1.14,3.9,1.95l1.91-.8Z"/><path class="cls-2" d="m50.41,15.02s-.07-.04-.11-.06h0s.07.04.11.06Z"/></g><path class="cls-1" d="m56.48,21.96s0,0,0-.01c-.27-.52-.57-1.02-.91-1.51-.78-1.15-1.74-2.21-2.87-3.14-.67-.56-1.39-1.05-2.14-1.48-.03-.02-.07-.04-.11-.06-1.41-.78-2.93-1.34-4.51-1.64-.92-.18-1.87-.27-2.82-.27-.46,0-.91.03-1.36.07-1.06.1-2.09.31-3.09.62-.27.08-.53.18-.8.28-.3.11-.6.24-.9.37-3.47,1.57-6.29,4.42-7.78,8.09-.03.06-.05.12-.07.18,0,.02-.02.04-.02.05,0,.07-.06.14-.09.22-.08.21-.15.42-.22.63-.03.08-.05.16-.07.24-.17.55-.31,1.11-.42,1.68-.07.37-.12.74-.16,1.11-.06.51-.09,1.02-.1,1.54,0,0,0,0,0,0,0,.08,0,.16,0,.24,0,.6.05,1.2.14,1.8,0,.13.02.27.05.41.03.16.07.32.1.47.47,2.48,1.57,4.79,3.19,6.73.18.22.37.43.56.64.3.33.62.64.96.93.05.05.1.09.15.14.02.02.04.03.07.05.02.03.04.05.06.07,0,0,0,0,0,0,0,0,0,0,0,0,.02.02.05.04.08.06l.09.08h.01c.19.17.38.32.58.46.06.05.13.09.19.14.13.1.26.19.4.28.08.05.16.1.23.15.12.08.25.16.37.24.08.05.17.1.25.15.12.07.25.14.37.21.08.05.17.09.25.14.13.07.26.13.39.19.08.04.16.08.25.12.14.07.29.13.43.19.07.03.14.06.21.09.21.09.43.17.65.25.01,0,.03,0,.04.01.21.07.41.14.62.2.08.02.15.04.23.06.15.04.29.08.44.12.09.02.18.04.26.06.14.03.27.06.41.09.09.02.18.04.28.05.14.02.27.05.41.07.09.01.18.03.28.04.14.02.28.04.42.05.09,0,.17.02.26.03.15.01.31.02.46.03.07,0,.14.01.22.01.23.01.45.02.68.02.26,0,.51,0,.77-.02.08,0,.17-.01.25-.02.17-.01.35-.02.52-.04.1-.01.2-.02.3-.04.16-.02.31-.04.47-.06.11-.02.21-.03.32-.05.15-.03.3-.05.45-.09.11-.02.21-.05.32-.07.15-.03.29-.07.44-.11.1-.03.21-.05.31-.08.15-.04.3-.09.45-.14.1-.03.2-.06.3-.1.16-.05.32-.11.48-.17.08-.03.17-.06.25-.09.22-.09.45-.18.67-.29.02,0,.03-.01.05-.02.23-.11.47-.22.7-.34.08-.04.15-.09.23-.13.15-.08.3-.17.45-.26.09-.05.18-.11.27-.16.14-.08.27-.17.4-.26.09-.06.18-.12.27-.19.13-.09.25-.18.38-.27.09-.07.18-.14.27-.21.12-.1.25-.2.37-.3.09-.07.17-.14.26-.22.12-.11.24-.22.36-.33.08-.07.16-.14.23-.22.13-.13.26-.26.38-.39.06-.07.13-.13.19-.2.18-.2.36-.4.54-.61,0,0,0,0,0,0,3.97-4.81,4.45-11.36,1.74-16.56Zm-.47,8.83c-.03.24-.08.48-.13.73-.07.37-.16.74-.27,1.11-.65,2.21-1.89,4.27-3.72,5.94-.57.52-1.18.98-1.83,1.39-.53.33-1.08.63-1.65.88-.32.14-.64.27-.97.38-.2.07-.4.13-.61.19-.79.24-1.61.4-2.45.48h0s-.13-.13-.13-.13c-.2-.21-.38-.42-.54-.66-.35-.5-.62-1.05-.8-1.63-.07-.23-.13-.46-.17-.7,0-.06,0-.12-.02-.18-.03-.18-.1-.37-.13-.56-.02,0-.04.02-.06.02-.01,0-.03.01-.04.02,0,0-.02,0-.02.01-.02.01-.04.02-.06.03-.01,0-.02.02-.03.02-.01.01-.03.02-.04.03,0,0-.01.01-.02.02-.02.02-.05.05-.06.08-.02.03-.04.07-.06.11-.02.06-.05.12-.07.2-.02.06-.03.12-.05.19h0c-.33-.43-.6-.89-.81-1.39-.07-.16-.13-.33-.19-.5,0-.02-.01-.04-.02-.06-.19-.66-.3-1.33-.45-1.99h0c-.09.05-.18.14-.25.27-.03.04-.05.09-.07.15-.05.12-.1.27-.15.44-.03.12-.06.25-.08.39-.78-1.02-1.22-2.24-1.27-3.49-.03-.75.07-1.51.31-2.24.78-1.91,2.4-3.35,4.38-3.91-.14-.14-.27-.28-.4-.42-.13-.14-.26-.28-.4-.41-.36-.35-.76-.67-1.18-.94-.12-.08-.23-.15-.35-.22-.18-.11-.37-.21-.56-.3-.24-.12-.48-.23-.74-.33-.15-.06-.3-.11-.46-.16h0c-.16-.05-.32-.09-.48-.13-.05-.01-.09-.02-.14-.03-.04,0-.07-.02-.11-.03-.09-.02-.19-.04-.28-.06-.03,0-.07-.01-.1-.02-.16-.03-.32-.06-.48-.08-.04,0-.08-.01-.12-.02-.13-.02-.26-.03-.39-.04-.04,0-.09,0-.13-.01-.16-.01-.33-.02-.49-.03-.02,0-.04,0-.06,0-.11,0-.22,0-.32,0-.03,0-.05,0-.08,0-.1,0-.19,0-.29,0-.04,0-.08,0-.13,0-.06,0-.13,0-.19,0-.2.01-.4.03-.61.06-.96.1-1.9.29-2.85.44h.02s.64-.48.64-.48c1.02-.68,2.11-1.24,3.25-1.68.3-.12.61-.23.92-.33.11-.04.22-.07.33-.1.23-.07.47-.13.7-.19.22-.05.44-.1.66-.14.18-.03.37-.07.55-.1.04,0,.09-.01.13-.02.53-.08,1.07-.12,1.61-.12.18,0,.36,0,.54.01.36.02.72.05,1.07.1.04,0,.08.01.13.02.14.02.28.05.41.07.97.18,1.92.47,2.83.87.25.11.49.22.73.34.65.33,1.27.71,1.87,1.14.22.16.24.19.11.38-.01.02-.02.03-.04.05-.27.32-.58.6-.92.83-.08.05-.15.11-.23.15-.23-.33-.47-.64-.74-.94-.08-.09-.16-.17-.25-.25-.09-.08-.18-.15-.27-.23-.08-.06-.16-.12-.25-.17-.5-.33-1.06-.55-1.66-.64-.03,0-.07,0-.1-.02-.35-.06-.71-.09-1.07-.1-.52-.01-1.05.02-1.57.11-.01,0-.02,0-.04,0h0s-2.16.44-2.16.44c0,0-.02.01-.03.02-.04.02-.09.05-.12.08.11.03.22.05.33.07.15.03.3.06.45.08.03,0,.07,0,.1.01.13.02.25.03.38.04.03,0,.05,0,.08,0,.16.01.32.02.49.02s.32,0,.48-.02c.37-.02.73-.08,1.09-.16.09-.02.17-.04.26-.06-.05.38-.06.75.02,1.07,0,.03.02.06.02.09.05.16.12.3.22.43.13.18.32.32.57.43.04.02.09.04.14.06h0c.07.02.13.04.2.06.01,0,.03,0,.04,0,.06.01.13.02.19.03.01,0,.02,0,.04,0,.06,0,.12,0,.17,0,.01,0,.03,0,.04,0,.07,0,.13-.02.19-.03.02,0,.03,0,.04-.01.05-.01.1-.03.15-.05.02,0,.03-.01.05-.02.06-.02.12-.05.18-.08,0,0,.02-.01.03-.02.05-.03.1-.06.14-.09.01-.01.03-.02.04-.03.05-.04.1-.09.15-.14.05.05.09.11.12.17.07.12.11.26.12.39,0,.07,0,.15,0,.22,0,.13.03.2.09.24.04.02.09.03.16.04.11.01.22.02.34.02,0,0,.02,0,.02,0,.11,0,.21,0,.32-.02.03,0,.06,0,.09-.01.08-.01.16-.02.23-.04.03,0,.06-.01.09-.02.1-.03.2-.06.3-.09,0,0,0,0,0,0,.11-.05.22-.1.34-.15.3-.14.59-.27.91-.38.06-.02.11-.03.16-.04.01,0,.02,0,.04,0,.05,0,.09-.01.14-.01,0,0,0,0,0,0,0,0,0,0,0,0,.04,0,.08,0,.12.01,0,0,.02,0,.02,0,.04.01.07.02.1.04,0,0,.01,0,.02.01.03.02.05.04.08.06,0,0,0,0,0,0,.02.03.05.06.06.09,0,0,0,.01.01.02.02.03.03.07.05.11,0,0,0,.01,0,.02.01.04.02.07.03.11,0,0,0,.01,0,.02,0,.04,0,.09,0,.13,0,0,0,.02,0,.03,0,.05,0,.1,0,.15v.2c.1-.06.21-.12.31-.17.04-.02.08-.04.13-.07.11-.05.22-.11.33-.15.06-.03.12-.04.19-.04s.13.01.19.04c.36.2.71.43,1.04.68.37.26.68.6.9.98.04.06.07.13.1.19.19.39.3.83.31,1.27,0,.22-.01.45-.06.67,0,.03,0,.05-.01.08-.01.11-.03.22-.06.33-.26-.39-.58-.73-.94-1.02-.2-.16-.4-.3-.62-.42-.12-.07-.25-.13-.38-.19-.26-.12-.53-.21-.82-.27-.45-.14-.91-.25-1.37-.35-.43-.09-.86-.18-1.3-.24-.27-.04-.54-.07-.81-.1,0,0,0,0,0,0-.12-.02-.23-.03-.35-.04-.04,0-.07,0-.11,0-.08,0-.17,0-.25,0-.05,0-.09,0-.14,0-.03,0-.07,0-.1,0-.06,0-.12,0-.18,0-.03,0-.06,0-.1,0-.07,0-.14.01-.21.02-.02,0-.04,0-.07,0-.09.01-.18.03-.27.04-.02,0-.04,0-.06.01-.07.01-.14.03-.22.05-.03,0-.06.02-.09.02-.06.02-.12.03-.18.05-.03,0-.06.02-.1.03-.06.02-.12.04-.17.06-.03.01-.06.02-.09.03-.06.02-.13.05-.19.07-.02,0-.05.02-.07.03-.09.04-.17.07-.25.11-.01,0-.02.01-.03.02-.07.03-.14.07-.21.11-.03.01-.05.03-.08.05-.05.03-.11.06-.16.09-.03.02-.06.04-.09.06-.05.03-.1.06-.15.1-.03.02-.06.04-.09.06-.05.04-.1.08-.16.11-.02.02-.05.04-.07.05-.07.06-.15.12-.22.18-.1.08-.21.16-.3.24-.61.51-1.13,1.12-1.54,1.81-.16.27-.28.56-.36.86-.07.25-.12.5-.14.75-.03.33,0,.67.06,1v.13h0c.03-.15.07-.3.12-.45,0-.01,0-.02.01-.04.04-.13.09-.26.15-.38.04-.1.09-.21.14-.31.42-.8,1.08-1.47,1.9-1.9-.01.05-.03.1-.05.14-.05.14-.1.29-.15.43-.3.79-.47,1.62-.51,2.46,0,.14-.01.27,0,.41,0,.34.03.68.09,1.01.15.9.48,1.76.99,2.53,0-.03,0-.06,0-.09,0-.06,0-.11,0-.17,0-.03,0-.05,0-.08,0-.35.04-.7.08-1.04.14-1.03.45-2.04.92-2.97.69-1.46,1.91-2.61,3.41-3.2,0,0,0,0,0,0,.09-.04.19-.07.28-.1.03,0,.06-.02.09-.03.07-.02.14-.04.21-.06.03,0,.06-.02.09-.02.09-.02.18-.04.27-.06,0,0,.01,0,.02,0,.1-.02.2-.03.29-.05.03,0,.06,0,.09-.01.07,0,.14-.01.22-.02.03,0,.06,0,.09,0,.09,0,.18,0,.28,0,0,0,.02,0,.02,0h0c.06,0,.11,0,.17,0,.05,0,.11,0,.16,0,.07,0,.15.01.22.02.04,0,.07,0,.11,0,.57.06,1.14.17,1.69.32.81.19,1.41.87,1.48,1.69.03-.06.06-.11.09-.17.08-.15.17-.3.25-.45.11-.2.22-.41.32-.62.31-.68.48-1.41.48-2.15,0-.11,0-.21,0-.32-.05-.62-.26-1.22-.59-1.74-.13-.2-.28-.4-.44-.57-.77-.8-1.72-1.39-2.77-1.73-.08-.03-.15-.06-.22-.11-.03-.02-.07-.04-.1-.07-.03-.03-.06-.05-.09-.08-.35-.37-.72-.72-1.1-1.05-.81-.7-1.68-1.32-2.62-1.85-.1-.06-.19-.11-.29-.17-.81-.43-1.66-.77-2.53-1.05-.41-.13-.83-.24-1.26-.33-.12-.03-.24-.04-.36-.07-.09-.02-.19-.04-.28-.05-.06-.01-.12-.02-.19-.03-.16-.02-.32-.05-.48-.06-.06,0-.12-.01-.18-.02-.21-.02-.43-.04-.65-.05-.01,0-.03,0-.04,0-.2-.01-.4-.01-.61-.02-.07,0-.13,0-.2,0-.07,0-.14,0-.2,0-.09,0-.17,0-.26,0-.06,0-.13,0-.19,0-.21.01-.42.03-.63.05,0,0,0,0,0,0-.2.02-.41.05-.61.07-.07.01-.14.02-.22.03-.76.13-1.51.33-2.24.6-.05.02-.11.04-.16.06,0,0,0,0,0,0,.16-.15.32-.29.49-.42.06-.05.11-.09.17-.13.11-.09.22-.18.34-.26.07-.05.14-.1.21-.15.1-.07.21-.15.31-.22.08-.05.15-.1.23-.15.1-.07.2-.13.31-.19.08-.05.16-.09.24-.14.1-.06.2-.12.3-.17,0,0,.01,0,.02-.01.08-.04.15-.08.23-.12.1-.05.2-.1.31-.15.09-.04.17-.08.26-.12.1-.05.2-.09.31-.13.09-.04.18-.07.26-.11.1-.04.21-.08.31-.12,0,0,0,0,.01,0,.08-.03.17-.06.25-.09.11-.04.21-.07.32-.1.09-.03.18-.06.27-.08.11-.03.21-.06.32-.09.09-.02.18-.05.27-.07.11-.03.22-.05.33-.07.09-.02.18-.04.27-.06.11-.02.22-.04.34-.06.09-.01.18-.03.26-.04.07,0,.13-.02.2-.03.05,0,.1-.01.15-.02.08,0,.17-.02.25-.03.13-.01.25-.02.38-.03.07,0,.15-.01.22-.02.15,0,.31,0,.46-.01.05,0,.1,0,.14,0,0,0,0,0,0,0,0,0,0,0,0,0,.05,0,.09,0,.14,0,.17,0,.33,0,.5.01.08,0,.16.01.24.02.14,0,.27.02.41.03.09,0,.18.02.26.03.13.01.25.03.38.05.09.01.19.03.28.05.12.02.24.04.36.06.1.02.19.04.28.06.12.03.23.05.35.08.1.02.19.05.29.08.11.03.23.06.34.1.1.03.19.06.29.09.11.04.22.07.33.11.09.03.19.07.28.11.02,0,.04.01.06.02.09.03.18.07.27.11.09.04.19.08.28.12.11.05.21.1.32.15.09.04.18.09.27.13.1.05.21.11.31.16.09.05.18.1.27.15.1.06.21.12.31.18.09.05.17.1.26.16.1.07.2.14.3.2.08.06.16.11.25.17.1.07.2.15.3.23.08.06.15.12.23.18.1.08.21.17.31.26.07.06.14.12.21.18.11.1.22.21.33.31.05.05.11.1.16.16.16.16.32.33.48.5.76.83,1.38,1.73,1.89,2.68,1.31,2.47,1.76,5.25,1.37,7.93Z"/></svg>