<?xml version="1.0" encoding="UTF-8"?><svg id="Layer_1" xmlns="http://www.w3.org/2000/svg" viewBox="0 0 59.24 66.67"><defs><style>.cls-1{fill:#fff;}</style></defs><g id="Group_3490"><path class="cls-1" d="m49.12,7.43h-1.48v4.57c0,2.86-2.32,5.18-5.18,5.18s-5.18-2.32-5.18-5.18v-4.57h-15.3v4.57c0,2.86-2.32,5.18-5.18,5.18s-5.18-2.32-5.18-5.18v-4.57h-1.48C4.53,7.43,0,11.96,0,17.55v39c0,5.59,4.53,10.12,10.12,10.12h39c5.59,0,10.12-4.53,10.12-10.12V17.55c0-5.59-4.53-10.12-10.12-10.12Zm5.43,54.79H4.69V23.23h49.86v39Z"/><path class="cls-1" d="m16.71,0c-1.38,0-2.51,1.13-2.51,2.51v9.52c0,1.38,1.13,2.51,2.51,2.51s2.51-1.13,2.51-2.51V2.51c0-1.38-1.13-2.51-2.51-2.51Z"/><path class="cls-1" d="m42.52,0c-1.38,0-2.51,1.13-2.51,2.51v9.52c0,1.38,1.13,2.51,2.51,2.51s2.51-1.13,2.51-2.51V2.51c0-1.38-1.13-2.51-2.51-2.51Z"/><g><polygon class="cls-1" points="22.74 34.99 13.26 34.99 13.26 49.22 22.75 49.22 17.04 42.11 22.74 34.99"/><polygon class="cls-1" points="36.02 34.99 41.72 42.11 36.02 49.22 46.03 49.22 46.03 34.99 36.02 34.99"/><polygon class="cls-1" points="33.46 34.99 32.66 33.99 29.38 29.9 26.11 33.99 25.31 34.99 19.6 42.11 25.31 49.22 26.11 50.22 29.38 54.31 32.66 50.22 33.46 49.22 39.16 42.11 33.46 34.99"/></g></g></svg>