<?xml version="1.0" encoding="UTF-8"?><svg id="Layer_1" xmlns="http://www.w3.org/2000/svg" viewBox="0 0 64.17 64.17"><defs><style>.cls-1{fill:#fff;}</style></defs><path class="cls-1" d="m32.09,0C14.37,0,0,14.37,0,32.09s14.37,32.09,32.09,32.09,32.09-14.37,32.09-32.09S49.81,0,32.09,0Zm21.43,50.21c-1.17-8.34-8.29-12.96-14.1-17.22,0,0-3.72,2.42-7.63,2.42s-7.63-2.42-7.63-2.42c-5.61,4.19-12.14,9.22-13.45,17.29-4.18-4.91-6.72-11.26-6.72-18.2,0-15.49,12.6-28.09,28.09-28.09s28.09,12.6,28.09,28.09c0,6.9-2.51,13.23-6.65,18.12Z"/><path class="cls-1" d="m32.09,9c-6.38,0-11.54,5.17-11.54,11.54s5.17,11.54,11.54,11.54,11.54-5.17,11.54-11.54-5.17-11.54-11.54-11.54Z"/></svg>