<?xml version="1.0" encoding="UTF-8"?><svg id="Layer_1" xmlns="http://www.w3.org/2000/svg" viewBox="0 0 80.02 49.7"><defs><style>.cls-1{fill:#fff;}</style></defs><path class="cls-1" d="m76.3,0H3.72C1.66,0,0,1.66,0,3.72v42.26c0,2.05,1.66,3.72,3.72,3.72h72.59c2.05,0,3.72-1.66,3.72-3.72V3.72c0-2.05-1.66-3.72-3.72-3.72ZM23.28,8.32c4.93,0,8.93,4,8.93,8.93s-4,8.93-8.93,8.93-8.94-4-8.94-8.93,4-8.93,8.94-8.93Zm14.8,33H8.87s-.65-11.48,14.61-11.35c15.26.13,14.61,11.35,14.61,11.35Zm21.88-13.83h-17.31c-1.46,0-2.64-1.18-2.64-2.64s1.18-2.64,2.64-2.64h17.31c1.46,0,2.64,1.18,2.64,2.64s-1.18,2.64-2.64,2.64Zm5.22-11.54h-22.53c-1.46,0-2.64-1.18-2.64-2.64s1.18-2.64,2.64-2.64h22.53c1.46,0,2.64,1.18,2.64,2.64s-1.18,2.64-2.64,2.64Z"/></svg>