<svg width="54" height="54" xmlns="http://www.w3.org/2000/svg"><defs><linearGradient id="a" x1="70.630814" y1="47.603439" x2="10.97158" y2="19.431021" gradientUnits="userSpaceOnUse"><stop offset="0" stop-color="#fff"/><stop offset="0.17751" stop-color="#fff" stop-opacity="0.76266"/><stop offset="0.49654" stop-color="#fff" stop-opacity="0.35634"/><stop offset="0.71818" stop-color="#fff" stop-opacity="0.09981"/><stop offset="0.82196" stop-color="#fff" stop-opacity="0"/></linearGradient><linearGradient id="b" x1="48.445221" y1="38.05537" x2="-10.74179" y2="7.5434699" gradientUnits="userSpaceOnUse"><stop offset="0" stop-color="#fff"/><stop offset="0.10897" stop-color="#fff" stop-opacity="0.83841"/><stop offset="0.29442" stop-color="#fff" stop-opacity="0.58701"/><stop offset="0.47161" stop-color="#fff" stop-opacity="0.37739"/><stop offset="0.63551" stop-color="#fff" stop-opacity="0.21402"/><stop offset="0.78326" stop-color="#fff" stop-opacity="0.09674"/><stop offset="0.90968" stop-color="#fff" stop-opacity="0.0254"/><stop offset="1" stop-color="#fff" stop-opacity="0"/></linearGradient><linearGradient id="c" x1="37.627468" y1="4.3361902" x2="35.304722" y2="45.81403" gradientUnits="userSpaceOnUse"><stop offset="0" stop-color="#fff"/><stop offset="0.21596" stop-color="#fff" stop-opacity="0.76266"/><stop offset="0.6041" stop-color="#fff" stop-opacity="0.35634"/><stop offset="0.87374" stop-color="#fff" stop-opacity="0.09981"/><stop offset="1" stop-color="#fff" stop-opacity="0"/></linearGradient><linearGradient id="d" x1="76.255814" y1="16.08507" x2="41.972591" y2="23.92124" gradientUnits="userSpaceOnUse"><stop offset="0" stop-color="#fff"/><stop offset="0.04468" stop-color="#fff" stop-opacity="0.83413"/><stop offset="0.09908" stop-color="#fff" stop-opacity="0.66097"/><stop offset="0.1592" stop-color="#fff" stop-opacity="0.50253"/><stop offset="0.22366" stop-color="#fff" stop-opacity="0.3662"/><stop offset="0.29357" stop-color="#fff" stop-opacity="0.25182"/><stop offset="0.37087" stop-color="#fff" stop-opacity="0.15899"/><stop offset="0.45868" stop-color="#fff" stop-opacity="0.08756"/><stop offset="0.56318" stop-color="#fff" stop-opacity="0.03738"/><stop offset="0.70067" stop-color="#fff" stop-opacity="0.00834"/><stop offset="1" stop-color="#fff" stop-opacity="0"/></linearGradient></defs><path d="M 27,0.12994 V 8 A 19.00012,19.00012 0 1 1 20.42053,9.1756 L 17.69519,1.79242 A 26.87018,26.87018 0 1 0 27,0.12994 Z" fill="url(#a)" transform="matrix(-1 0 0 1 54 0)"/><path d="M 27,0.12994 V 8 A 19.00012,19.00012 0 1 1 20.42053,9.1756 L 17.69519,1.79242 A 26.87018,26.87018 0 1 0 27,0.12994 Z" fill="url(#b)" transform="matrix(-1 0 0 1 54 0)"/><path d="M 27,0.12994 V 8 a 19,19 0 0 1 0,38 c -10.4231,0 -14.74048,7.87006 0,7.87006 A 26.87006,26.87006 0 1 0 27,0.12994 Z" fill="url(#c)" transform="matrix(-1 0 0 1 54 0)"/><path d="M 27,0.12994 V 8 a 19,19 0 0 1 0,38 c -10.4231,0 -14.74048,7.87006 0,7.87006 A 26.87006,26.87006 0 1 0 27,0.12994 Z" fill="url(#d)" transform="matrix(-1 0 0 1 54 0)"/></svg>