<svg width="42" height="48" viewBox="0 0 42 48" fill="none" xmlns="http://www.w3.org/2000/svg">
<path d="M20.7535 3.46484L38.507 13.7148V34.2148L20.7535 44.4648L3 34.2148V13.7148L20.7535 3.46484Z" fill="#8F8F8F"/>
<path d="M20.7539 3.46387L3 13.7139V34.2139L20.7539 44.4639L38.5078 34.2139V13.7139L20.7539 3.46387ZM41.5078 35.9463L20.7539 47.9277L0 35.9463V11.9814L20.7539 0L41.5078 11.9814V35.9463Z" fill="#583410"/>
<path d="M20.7535 3.46484L38.507 13.7148V34.2148L20.7535 44.4648L3 34.2148V13.7148L20.7535 3.46484Z" fill="black"/>
<path d="M38.5078 13.7148V34.2148L20.7539 44.4648L3 34.2148V13.7148L20.7539 3.46484L38.5078 13.7148ZM8 16.6016V31.3271L20.7539 38.6914L33.5078 31.3271V16.6016L20.7539 9.2373L8 16.6016Z" fill="#8F8F8F"/>
</svg>
