<?xml version="1.0" encoding="UTF-8"?><svg id="Layer_1" xmlns="http://www.w3.org/2000/svg" viewBox="0 0 62.61 71.52"><defs><style>.cls-1{fill:#fff;}.cls-2{fill:none;}</style></defs><g><rect class="cls-2" x="4.96" y="25.61" width="52.7" height="41.22"/><path class="cls-1" d="m51.91,8.91h-1.57v4.83c0,3.03-2.45,5.48-5.48,5.48s-5.48-2.45-5.48-5.48v-4.83h-16.17v4.83c0,3.03-2.45,5.48-5.48,5.48s-5.48-2.45-5.48-5.48v-4.83h-1.56C4.79,8.91,0,13.7,0,19.61v41.22c0,5.91,4.79,10.7,10.7,10.7h41.22c5.91,0,10.7-4.79,10.7-10.7V19.61c0-5.91-4.79-10.7-10.7-10.7Zm5.74,57.91H4.96V25.61h52.7v41.22Z"/></g><rect class="cls-1" x="13.96" y="0" width="7.42" height="17.48" rx="3.71" ry="3.71"/><rect class="cls-1" x="41.23" y="0" width="7.42" height="17.48" rx="3.71" ry="3.71"/><polygon class="cls-1" points="31.3 30.39 36.45 40.81 47.95 42.48 39.63 50.59 41.59 62.05 31.3 56.64 21.02 62.05 22.98 50.59 14.66 42.48 26.16 40.81 31.3 30.39"/></svg>