<?xml version="1.0" encoding="UTF-8"?><svg id="Layer_1" xmlns="http://www.w3.org/2000/svg" viewBox="0 0 74.74 80.35"><defs><style>.cls-1{fill:#fff;}</style></defs><path class="cls-1" d="m17.41,28.61h12.39v27.13h-12.39c-3.53,0-6.39-2.86-6.39-6.39v-14.35c0-3.53,2.86-6.39,6.39-6.39Z" transform="translate(-13.32 9.65) rotate(-20.22)"/><path class="cls-1" d="m6.12,41.01h3.39v12.78h-3.39c-2.16,0-3.91-1.75-3.91-3.91v-4.96c0-2.16,1.75-3.91,3.91-3.91Z" transform="translate(-16.02 4.95) rotate(-20.22)"/><polygon class="cls-1" points="68.23 52.57 36.18 50.83 26.8 25.37 49.91 2.82 68.23 52.57"/><rect class="cls-1" x="60.69" y="-.2" width="4.3" height="53.02" transform="translate(-5.22 23.34) rotate(-20.22)"/><path class="cls-1" d="m64.44,16.23l5.32,14.44s5.21-2.47,2.73-9.21-8.05-5.24-8.05-5.24Z"/><polygon class="cls-1" points="40.43 77.11 31.62 80.35 23.24 57.59 30.34 54.97 40.43 77.11"/></svg>