<svg xmlns="http://www.w3.org/2000/svg" width="104" height="104" viewBox="0 0 104 104">
  <defs>
    <style>
      .cls-1 {
        fill: #fff;
        fill-rule: evenodd;
      }
    </style>
  </defs>
  <path class="cls-1" d="M32.742,62.2A28.269,28.269,0,0,0,34.71,72.809,29.022,29.022,0,0,0,53.528,90.064a27.507,27.507,0,0,0,6.383,1.274c0.733,0.042.909,0.379,0.554,1.011a3.46,3.46,0,0,1-.6.743q-3.571,3.518-7.153,7.025c-0.283.278-.531,0.593-0.83,0.851a1.055,1.055,0,0,1-1.683-.077q-6.974-7.008-13.945-14.016-8.876-8.907-17.761-17.806-6.756-6.777-13.5-13.562-1.959-1.966-3.932-3.918A0.635,0.635,0,0,0,.8,51.371c-0.668-.088-0.587-0.58-0.538-1.016a0.851,0.851,0,0,1,.319-0.427c0.15-.134.362-0.2,0.5-0.341q9.225-9.112,18.441-18.233,8.616-8.52,17.234-17.039,6.627-6.549,13.25-13.1c0.282-.28.405-0.73,0.706-0.976A1.745,1.745,0,0,1,51.662,0a0.722,0.722,0,0,1,.417.3c0.13,0.149.186,0.365,0.324,0.5q3.988,4.023,7.989,8.034,6.812,6.847,13.622,13.7,7.218,7.24,14.451,14.466,6.239,6.253,12.47,12.514c0.173,0.174.356,0.337,0.536,0.5a1.223,1.223,0,0,1,.006,1.958q-4.037,3.967-8.061,7.946a7.1,7.1,0,0,1-.776.819,1.3,1.3,0,0,1-.9.285,1.04,1.04,0,0,1-.435-0.746c-0.2-1.206-.322-2.424-0.514-3.631a26.38,26.38,0,0,0-2.88-8.165,28.28,28.28,0,0,0-6.424-8.115,29.329,29.329,0,0,0-6.751-4.425,32.8,32.8,0,0,0-7.478-2.423,17.158,17.158,0,0,0-2.423-.267,30.6,30.6,0,0,0-11.617,1.184A28.992,28.992,0,0,0,36.225,48.439,29.022,29.022,0,0,0,32.742,62.2Zm3.8,0.529a23.645,23.645,0,0,1,1.53-8.567,24.978,24.978,0,0,1,7.587-10.78,34.14,34.14,0,0,1,2.843-2.155c0.474-.325,1.089-0.441,1.585-0.741,3.36-2.035,7.1-2.715,10.93-3.065a20.576,20.576,0,0,1,5.471.457,24.845,24.845,0,0,1,14.14,7.779,25.157,25.157,0,0,1,4.325,6.379A24.6,24.6,0,0,1,87.41,64.031,21.381,21.381,0,0,1,86.1,70.6c-0.422,1.106-.857,2.21-1.337,3.293a16.432,16.432,0,0,1-.925,1.615A1.558,1.558,0,0,0,84.19,77.8c1.164,1.1,2.3,2.238,3.43,3.371q3.785,3.78,7.557,7.572,3.391,3.415,6.762,6.849c0.41,0.416.8,0.847,1.213,1.264,1.211,1.233,1.036,3.969-.02,5.19a4.8,4.8,0,0,1-4,1.943,4.254,4.254,0,0,1-2.86-1.333q-3.977-3.912-7.92-7.858Q83.63,90.1,78.921,85.4c-0.468-.467-0.927-0.942-1.4-1.4a1.022,1.022,0,0,0-1.559-.163,24.456,24.456,0,0,1-5.082,2.6,26.563,26.563,0,0,1-7.227,1.606,24.22,24.22,0,0,1-9.4-1.194,25.285,25.285,0,0,1-12.112-8.3,23.948,23.948,0,0,1-5.118-11.053c-0.269-1.57-.425-3.16-0.632-4.741Zm6.728-.013a17.162,17.162,0,0,0,3.4,10.869,19.015,19.015,0,0,0,18.6,7.515,17.955,17.955,0,0,0,9.344-4.558A18.548,18.548,0,0,0,80.63,60.927,18.517,18.517,0,0,0,76.454,50.9,18.977,18.977,0,0,0,72.3,47.172a18.693,18.693,0,0,0-5.748-2.482,18.352,18.352,0,0,0-8.759-.085,19.332,19.332,0,0,0-8.368,4.325,17.912,17.912,0,0,0-5.767,9.751A28.38,28.38,0,0,0,43.274,62.717Zm34.279-1.242a7.1,7.1,0,0,1-.359,1.394,1.673,1.673,0,0,1-1.855,1.1,2.056,2.056,0,0,1-1.6-1.512,3.142,3.142,0,0,1-.117-1,8.957,8.957,0,0,0-2.517-6.011,9.805,9.805,0,0,0-7.183-3.365,2.45,2.45,0,0,1-1.909-.958,1.4,1.4,0,0,1,.035-1.86,2.859,2.859,0,0,1,2.78-.885,14.2,14.2,0,0,1,9.55,5.209A15.247,15.247,0,0,1,77.554,61.475Z"/>
</svg>
