<svg xmlns="http://www.w3.org/2000/svg" width="32" height="32"><path fill-opacity=".5" d="M24.035 28.228 16 24.004l-8.035 4.224L9.5 19.282 3 12.946l8.983-1.306L16 3.5l4.017 8.14L29 12.946l-6.5 6.336 1.535 8.946Z"/><path fill-rule="evenodd" fill="#B0B0B0" d="M25.709 30.48 16 25.376 6.291 30.48l1.855-10.811-7.855-7.656 10.855-1.577L16 .6l4.854 9.836 10.855 1.577-7.855 7.656 1.855 10.811Zm-2.317-3.125L16 23.469l-7.392 3.886 1.412-8.231-5.98-5.829 8.264-1.201L16 4.605l3.696 7.489 8.264 1.201-5.98 5.829 1.412 8.231Z"/></svg>