<?xml version="1.0" encoding="UTF-8"?><svg id="Layer_1" xmlns="http://www.w3.org/2000/svg" viewBox="0 0 60 90"><defs><style>.cls-1{fill:#fff;}.cls-2{opacity:.5;}</style></defs><g class="cls-2"><path d="m24,20h5v2h-5v-2Z"/><path d="m31,20h5v2h-5v-2Z"/><path d="m21,41h8v2h-8v-2Z"/><path d="m31,41h8v2h-8v-2Z"/><path d="m18,62h11v2h-11v-2Z"/><path d="m31,62h11v2h-11v-2Z"/><path d="m14,84h32v2H14v-2Z"/></g><path class="cls-1" d="m29,82v-20h-11v-2h11v-19h-8v-2h8v-19h-5v-2h12v2h-5v19h8v2h-8v19h11v2h-11v20h15v2H14v-2h15Z"/></svg>