<svg xmlns="http://www.w3.org/2000/svg" width="44" height="51"><path d="M 39.959 27.667 L 34.6 31.233 L 36.539 32.197 C 36.539 32.197 33.164 36.239 29.587 37.753 C 28.271 38.381 26.843 38.737 25.387 38.8 L 24.943 20.544 L 32.443 18.853 L 32.443 16.33 L 24.823 15.589 L 24.776 13.642 C 27.039 12.378 28.162 9.745 27.509 7.237 C 26.855 4.728 24.591 2.978 21.999 2.978 C 19.406 2.978 17.142 4.728 16.488 7.237 C 15.835 9.745 16.958 12.378 19.221 13.642 L 19.173 15.589 L 11.553 16.33 L 11.553 18.854 L 19.053 20.545 L 18.61 38.8 C 17.154 38.737 15.726 38.381 14.41 37.753 C 10.833 36.24 7.458 32.197 7.458 32.197 L 9.397 31.233 L 4.037 27.667 L 3 34.139 L 4.92 33.459 C 6.262 35.942 7.884 38.262 9.756 40.374 C 12.692 43.265 22 48.022 22 48.022 C 22 48.022 31.306 43.265 34.247 40.374 C 36.118 38.262 37.739 35.942 39.08 33.459 L 41 34.139 L 39.959 27.667 Z" fill-rule="evenodd" fill="#FFF" vector-effect="non-scaling-stroke" stroke-width="6" stroke="#FFF" stroke-linejoin="round" stroke-linecap="round" stroke-miterlimit="3"/></svg>