<?xml version="1.0" encoding="UTF-8"?><svg id="Layer_1" xmlns="http://www.w3.org/2000/svg" viewBox="0 0 51 43"><defs><style>.cls-1{fill:#fff;fill-rule:evenodd;}</style></defs><path class="cls-1" d="m45.87,14.91h-9.95v-3.34h-1.02v3.34h-7.69v-7.23l-2.2-2.68-2.2,2.68v7.23h-7.69v-3.34h-1.02v3.34H4.13s-1.13.44-1.13,1.91.86,3.23,3.01,3.94c2.15.71,13.77,4.27,13.77,4.27,0,0,1.61.22,2.1.82.48.6.75,1.91.75,1.91l.54,8.49s-5.27,1.32-5.7,1.75c-.43.44-.59,1.59-.21,1.86.37.27,1.51,0,1.51,0h12.48s1.13.27,1.51,0c.37-.27.21-1.42-.21-1.86-.43-.44-5.7-1.75-5.7-1.75l.54-8.49s.27-1.32.75-1.91c.48-.6,2.1-.82,2.1-.82,0,0,11.62-3.56,13.77-4.27,2.15-.71,3.01-2.46,3.01-3.94s-1.13-1.91-1.13-1.91h-.02Z"/></svg>