<svg xmlns="http://www.w3.org/2000/svg" width="105" height="46"><path d="M 97.859 10.243 L 97.191 11.49 L 64.243 11.49 L 63.663 10.724 L 62.318 10.538 L 60.776 8.416 L 53.901 7.749 L 53.901 6.59 L 48.137 6.688 L 48.137 7.749 L 46.654 7.749 L 46.654 5.058 L 42.617 3.614 L 37.53 5.254 L 37.53 6.59 L 29.458 6.59 L 28.976 7.749 L 26.286 6.59 L 24.469 7.857 L 24.852 10.547 L 25.834 11.696 L 28.328 11.696 L 28.515 12.462 L 33.514 15.635 L 33.514 17.176 L 15.738 18.325 L 15.738 18.993 L 10.916 18.993 L 5.829 28.225 L 5.829 31.004 L 9.473 31.004 L 9.286 32.968 L 9.954 34.313 L 19.568 41.905 L 75.193 41.905 L 83.196 33.881 L 83.196 31.475 L 81.527 28.981 L 81.144 26.192 L 75.094 25.711 L 65.195 16.391 L 60.491 16.391 L 60.491 14.564 L 63.761 14.377 L 64.243 13.317 L 97.191 13.317 L 97.574 14.662 L 101.325 14.662 L 101.325 10.243 L 97.859 10.243 Z M 19.293 39.646 L 14.108 35.413 L 16.701 33.98 L 19.293 36.091 L 19.293 39.646 Z M 25.186 40.697 L 26.246 37.751 L 30.371 37.751 L 31.913 40.697 L 25.186 40.697 Z M 36.43 40.697 L 37.295 39.214 L 38.827 39.214 L 39.691 40.697 L 36.43 40.697 Z M 43.924 40.697 L 44.974 37.751 L 49.109 37.751 L 50.641 40.697 L 43.924 40.697 Z M 75.625 36.091 L 76.823 35.512 L 78.021 36.189 L 75.625 39.214 L 75.625 36.091 Z M 64.144 37.721 L 68.269 37.721 L 69.811 40.667 L 63.084 40.667 L 64.144 37.721 Z M 55.207 40.667 L 56.072 39.184 L 57.663 39.184 L 58.527 40.667 L 55.207 40.667 Z" fill="#FFF"/></svg>