<svg xmlns="http://www.w3.org/2000/svg" width="105" height="46"><path d="M 97.14 7.24 L 96.46 8.51 L 66.19 8.51 L 65.76 7.93 L 64.42 7.74 L 62.81 5.52 L 57.13 4.97 L 57.13 3.47 L 49.79 3.59 L 49.79 2.84 L 42.74 0.32 L 34.5 2.96 L 34.5 3.52 L 27.28 3.52 L 27.19 3.74 L 25.72 3.11 L 20.96 6.37 L 21.74 11.8 L 24.16 14.7 L 26.2 14.7 L 26.25 14.74 L 12.29 15.64 L 12.29 16.14 L 8.63 16.14 L 2.22 27.76 L 2.22 34.37 L 5.91 34.37 L 7.04 36.63 L 18.16 45.42 L 20.61 45.42 L 21.91 45.42 L 73.24 45.42 L 75.55 45.42 L 77.09 45.42 L 86.97 35.54 L 86.97 30.96 L 85.18 28.24 L 84.56 23.68 L 77.04 23.08 L 69.91 16.37 L 95.99 16.37 L 96.38 17.74 L 105 17.74 L 105 7.24 L 97.14 7.24 L 97.14 7.24 Z" fill="#FFF"/></svg>