<?xml version="1.0" encoding="UTF-8"?><svg id="Layer_1" xmlns="http://www.w3.org/2000/svg" viewBox="0 0 51 43"><defs><style>.cls-1{fill:#fff;}</style></defs><path class="cls-1" d="m22.79,7.68v7.23h-7.69v-3.34h-1.02v3.34H4.13s-1.13.45-1.13,1.91.86,3.23,3.01,3.94c2.15.71,13.77,4.27,13.77,4.27.03,0,1.61.22,2.1.82.48.6.75,1.89.75,1.91l.54,8.49s-5.27,1.32-5.7,1.75-.59,1.59-.21,1.86c.37.27,1.51,0,1.51,0h12.48s1.13.27,1.51,0c.37-.27.21-1.42-.21-1.86-.43-.43-5.65-1.74-5.7-1.75l.54-8.49s.27-1.32.75-1.91c.48-.6,2.1-.82,2.1-.82.05-.01,11.62-3.56,13.77-4.27,2.15-.71,3.01-2.46,3.01-3.94s-1.13-1.91-1.13-1.91h-9.96v-3.34h-1.02v3.34h-7.69v-7.23l-2.21-2.68-2.21,2.68h0Zm-3.42,20.32l-.24-.03-.23-.07h-.03s-.05-.02-.1-.03c-.09-.03-.21-.07-.37-.12-.32-.1-.78-.24-1.35-.41-1.12-.35-2.64-.81-4.23-1.3-3.16-.97-6.64-2.05-7.75-2.42C1.56,22.46,0,19.46,0,16.83,0,15.24.64,14.03,1.4,13.24c.36-.37.71-.63,1-.8.14-.09.27-.15.38-.21.05-.03.1-.05.15-.07.02,0,.04-.02.06-.03,0,0,.02,0,.03-.01h0s.06.15,1.02,2.61l-1.01-2.62.52-.2h7.51v-3.34h7.02v3.34h1.69v-5.3L25,.28l5.21,6.33v5.31h1.69v-3.34h7.02v3.34h6.23l.56-.29,1.25.48-1.08,2.8c.72-1.87,1.08-2.8,1.09-2.8h0s.02,0,.03.01c.02,0,.04.02.06.03.04.02.09.04.15.07.11.05.24.12.38.21.28.17.64.43,1,.8.76.79,1.4,1.99,1.4,3.59,0,2.63-1.56,5.63-5.07,6.79-1.11.37-4.59,1.45-7.75,2.42-1.59.49-3.11.96-4.23,1.3-.56.17-1.02.31-1.35.41-.16.05-.29.09-.37.12-.04.01-.08.02-.1.03h-.03l-.23.07-.23.03h-.01s-.06,0-.1.02c-.04,0-.08.02-.12.03-.02.06-.03.12-.05.17l-.37,5.76c.11.03.23.06.35.1.7.2,1.46.42,2.08.62.31.1.63.22.92.34.14.06.32.14.5.24.11.06.41.22.71.5l.13.13h0c.85.89,1.14,2.01,1.23,2.73.05.41.07.94-.05,1.49-.1.48-.39,1.46-1.35,2.17h0c-.77.57-1.59.66-1.91.68-.41.03-.79,0-1.05-.02-.23-.02-.44-.06-.6-.09h-11.89c-.16.03-.37.06-.6.09-.26.03-.64.05-1.05.02-.32-.03-1.14-.12-1.91-.68-.97-.7-1.27-1.69-1.37-2.18-.11-.56-.1-1.08-.05-1.5.09-.71.39-1.85,1.25-2.72l.13-.13c.31-.28.61-.44.72-.5.18-.1.36-.18.5-.24.29-.12.61-.23.92-.34.62-.21,1.38-.43,2.08-.62.12-.03.23-.06.35-.1l-.37-5.76s-.03-.11-.05-.17c-.04,0-.09-.02-.12-.03-.05,0-.08-.02-.1-.02h0l-.03.02Z"/></svg>