<svg xmlns="http://www.w3.org/2000/svg" width="55" height="51" viewBox="0 0 55 51">
  <defs>
    <style>
      .cls-1 {
        fill: #fff;
        fill-rule: evenodd;
      }
    </style>
  </defs>
  <path class="cls-1" d="M32.1,34.666L31.07,36l-1.014,1.3-0.042-.033-4.831,6.225a8.208,8.208,0,0,1,2.091-.261,8.515,8.515,0,0,1,1.514.132l22.149-28.54-1.154-2.869L36.266,29.32l-1.3-1.014-2.418.253-3.42,1.651-1.035,1.33L30.8,33.651ZM19.1,38.124a3.584,3.584,0,0,0,.108.767,5.976,5.976,0,0,0,.281.9l-2.9,3.73a8.677,8.677,0,0,1,3.323,1.871c0.22,0.182.358,0.3,0.463,0.371l7.247-9.338-1.325.165L22.33,33.506q-0.771.937-1.414,1.761l-0.663.852-9.783-7.531-1.23,1.6,9.882,7.607A1.558,1.558,0,0,0,19.1,38.124ZM52.423,20.593c-0.291-.924-0.812-2.468-0.812-2.468-0.03-.088-0.06-0.166-0.09-0.252L31.167,44.223a11.041,11.041,0,0,1,1.635,1.17,1.09,1.09,0,0,0,1.837,0,8.052,8.052,0,0,1,5.527-2.163,8.168,8.168,0,0,1,2.177.285l4.587-5.894c1.483-1.978,2.372-3.334,3.52-4.918q0.7-1.12,1.343-2.329a19.344,19.344,0,0,0,1.081-2.4,10.814,10.814,0,0,0,.587-2.319,4.9,4.9,0,0,0-.138-2.072Q52.86,21.98,52.423,20.593Zm-25.826,7L16.636,29l5.3-5.231-10.709-.6,8.646-4.23-9.09-9.626,15.927,3.534,4.87-12.142,3.136,9.827,6.525-8.327L41.289,14l3.779-1.421L41.486,17.7l-3.841,1.356L37.5,15.073l-3.361,2.333-2.4-2.775-0.3,3.985-5.018-1.623,3.69,3.542H26.282l2.961,2.031-2.666,1.511,2.534,0.87ZM53.062,45.356a6,6,0,0,0-4.173,1.675,3.106,3.106,0,0,1-4.551,0,6.033,6.033,0,0,0-8.343,0,3.1,3.1,0,0,1-4.549,0,6.035,6.035,0,0,0-8.345,0,3.1,3.1,0,0,1-4.549,0,6.035,6.035,0,0,0-8.345,0,3.1,3.1,0,0,1-4.549,0,6,6,0,0,0-4.172-1.675,1.489,1.489,0,1,0,0,2.977,3.069,3.069,0,0,1,2.274.992,6.035,6.035,0,0,0,8.345,0,3.1,3.1,0,0,1,4.549,0,6.034,6.034,0,0,0,8.344,0,3.105,3.105,0,0,1,4.55,0,6.033,6.033,0,0,0,8.344,0,3.1,3.1,0,0,1,4.548,0,6.036,6.036,0,0,0,8.346,0,3.073,3.073,0,0,1,2.276-.992A1.489,1.489,0,1,0,53.062,45.356Z"/>
</svg>
