<svg width="248" height="226" viewBox="0 0 248 226" fill="none" xmlns="http://www.w3.org/2000/svg">
<path d="M122 81.477C122.017 81.4768 169.005 81.0058 195 111.175C170.5 142.48 122 141.48 122 141.48V141.5H0V81.5004H122V81.477Z" fill="white"/>
<path d="M175.5 62.5L233.097 44.3262L202.974 93.9258L247.5 123L197.026 134.068L224.971 185.849L182.062 161.004L169.281 208.498L153.207 174.773L108.856 225.497L107.528 156.88L34.8574 195.914L67.4502 149.466H130.047V149.13C130.244 149.115 130.444 149.103 130.647 149.087C135.89 148.666 143.145 147.761 151.235 145.81C167.234 141.951 187.507 133.754 201.347 116.071L205.396 110.896L201.107 105.919C186.57 89.0476 166.486 81.0506 150.698 77.2051C134.811 73.3353 122.332 73.4387 121.966 73.4424L119.648 73.4658H74.249L29.5 21L99.999 47.667L107.671 9.23828L137.5 44.3262L169.281 0L175.5 62.5ZM122.047 81.4424C122.064 81.4422 169.052 80.9711 195.047 111.141C170.552 142.438 122.068 141.446 122.047 141.445V141.466H73.0645L89.4092 118.173L47.0957 112.567L84.666 85.6797L81.0723 81.4658H122.047V81.4424Z" fill="white"/>
</svg>
