<?xml version="1.0" encoding="UTF-8"?>
<svg id="Layer_1" xmlns="http://www.w3.org/2000/svg" xmlns:xlink="http://www.w3.org/1999/xlink" viewBox="0 0 117.09 73.7">
<defs>
<style>.cls-1{fill:url(#linear-gradient-2);}.cls-2{fill:url(#linear-gradient-6);}.cls-3{clip-path:url(#clippath-2);}.cls-4{clip-path:url(#clippath-1);}.cls-5{fill:url(#linear-gradient-5);}.cls-6{clip-path:url(#clippath);}.cls-7{fill:url(#linear-gradient-7);}.cls-8{fill:url(#linear-gradient-3);}.cls-9{fill:url(#linear-gradient);}.cls-10{fill:url(#linear-gradient-4);}.cls-11{fill:url(#linear-gradient-8);}
</style>
<linearGradient id="linear-gradient" x1="59.06" y1="70.5" x2="57.96" y2="-.68" gradientUnits="userSpaceOnUse">
<stop offset=".2" stop-color="#a7a7b4"/>
<stop offset=".68" stop-color="#dbdbe1"/>
<stop offset="1" stop-color="#f9fafb"/>
</linearGradient>
<clipPath id="clippath">
<path class="cls-9" d="m53.32,20.91c.67-1.32,1.41-2.6,2.22-3.84.4-.61.82-1.2,1.27-1.76,1.85-2.4,4.39-4.18,7.28-5.1-.32,1-.63,1.96-.95,2.95-.44,1.36-.89,2.76-1.4,4.36,1.57-.76,2.88-1.39,4.1-1.99.73-.36,1.45-.7,2.15-1.04.1.15.21.31.32.46-.35.54-.69,1.09-1.05,1.62-.46.65-.84,1.35-1.14,2.08-.22.52-.29,1.09-.22,1.66.1.57.34,1.12.68,1.59.19.28.42.56.67.87s.56.63.9.98c.84.89,1.62,1.83,2.35,2.81.74.98,1.45,1.99,2.19,2.98.49.66.99,1.31,1.51,1.94.37.44.74.88,1.12,1.33,1.1,1.34,2.35,2.54,3.72,3.58.65.47,1.32.91,2.01,1.34s1.38.83,2.08,1.23c1.41.8,2.83,1.58,4.21,2.42.47.27.89.61,1.24,1.01.84,1.02.49,2.06-1.01,3.26-.07.05-.14.1-.22.15-.08.04-.15.09-.21.15-.52.54-1.08,1.04-1.67,1.49-.55.43-1.13.81-1.74,1.14-1.15.64-2.39,1.08-3.68,1.31-1.99.34-4.02.28-5.98-.17-.69-.15-1.4-.33-2.11-.55-.92-.28-1.85-.5-2.8-.67-.94-.18-1.9-.33-2.84-.5-1.49-.3-3-.46-4.51-.48-1.13-.02-2.25.21-3.29.66-.49.23-.95.51-1.37.85-1.59,1.43-2.91,3.13-3.9,5.03-.25-.56-.5-1.1-.75-1.65-.37-.82-.74-1.63-1.13-2.47s-.79-1.72-1.22-2.67c-.6.68-1.2,1.31-1.77,1.94-.57.6-1.09,1.25-1.55,1.94-.43.68-.81,1.4-1.12,2.14-.34.77-.67,1.58-1.07,2.44-1.37-2.1-2.47-4.36-3.27-6.74-.76-2.4-1.05-4.92-.84-7.43l-2.68,2.99c-.23-.72-.43-1.44-.59-2.15-.33-1.39-.51-2.81-.54-4.23-.03-1.39.13-2.78.47-4.14.58-2.21,1.62-4.27,3.04-6.06l-1.99.2c-.35.03-.72.07-1.09.11l-.3.03c.42-.57.86-1.1,1.3-1.61,2.98-3.45,6.98-5.86,11.43-6.87.74-.18,1.5-.32,2.28-.44.12,1.08.24,2.04.35,2.99.03.19.05.38.07.57.34-.68.69-1.35,1.03-2.02M12.63,8.5c-1.87,0-3.39,1.52-3.39,3.39v49.9c0,1.87,1.52,3.4,3.39,3.4h46.71c-4.53-1.14-8.69-3.42-12.1-6.61-.43-.61-.57-1.39-.36-2.11.58-1.85,1.39-3.63,2.16-5.57,2.01,2.71,3.73,5.02,5.73,7.71,2.55-9.19,4.34-10.57,10.91-9.01-6.49,4.04-4.34,9.78-3.26,15.59h42.03c1.87,0,3.39-1.53,3.39-3.4V11.9c0-1.87-1.52-3.39-3.39-3.39H12.63Z"/>
</clipPath>
<linearGradient id="linear-gradient-2" x1="58.43" y1="68.64" x2="58.66" y2="3.83" xlink:href="#linear-gradient"/>
<linearGradient id="linear-gradient-3" x1="66.22" y1="34.32" x2="66.71" y2="30.94" xlink:href="#linear-gradient"/>
<linearGradient id="linear-gradient-4" x1="66.22" y1="34.32" x2="66.71" y2="30.94" xlink:href="#linear-gradient"/>
<clipPath id="clippath-1">
<path class="cls-10" d="m68.55,34.27c-1.36-1.21-2.55-2.27-4.12-3.65.16,3.79.25,3.86,4.12,3.65"/>
</clipPath>
<linearGradient id="linear-gradient-5" x1="66.49" y1="32.58" x2="66.79" y2="13.1" xlink:href="#linear-gradient"/>
<linearGradient id="linear-gradient-6" x1="58.34" y1="70.69" x2="58.76" y2=".43" xlink:href="#linear-gradient"/>
<linearGradient id="linear-gradient-7" x1="58.34" y1="70.69" x2="58.76" y2=".43" xlink:href="#linear-gradient"/>
<clipPath id="clippath-2">
<path class="cls-7" d="m5.02,61.71V11.81c0-4.2,3.41-7.61,7.61-7.61h91.83c4.2,0,7.61,3.41,7.61,7.62v49.9c0,4.2-3.41,7.61-7.61,7.61H12.63c-4.2,0-7.61-3.41-7.61-7.61M10.8,0C4.84,0,0,4.84,0,10.8v52.1c0,5.96,4.84,10.8,10.8,10.8h95.48c5.96,0,10.8-4.84,10.8-10.8V10.8c0-5.96-4.83-10.79-10.8-10.8H10.8Z"/>
</clipPath>
<linearGradient id="linear-gradient-8" x1="58.8" y1="71" x2="58.28" y2=".45" xlink:href="#linear-gradient"/>
</defs>
<g id="Group_104">
<g>
<path class="cls-9" d="m53.32,20.91c.67-1.32,1.41-2.6,2.22-3.84.4-.61.82-1.2,1.27-1.76,1.85-2.4,4.39-4.18,7.28-5.1-.32,1-.63,1.96-.95,2.95-.44,1.36-.89,2.76-1.4,4.36,1.57-.76,2.88-1.39,4.1-1.99.73-.36,1.45-.7,2.15-1.04.1.15.21.31.32.46-.35.54-.69,1.09-1.05,1.62-.46.65-.84,1.35-1.14,2.08-.22.52-.29,1.09-.22,1.66.1.57.34,1.12.68,1.59.19.28.42.56.67.87s.56.63.9.98c.84.89,1.62,1.83,2.35,2.81.74.98,1.45,1.99,2.19,2.98.49.66.99,1.31,1.51,1.94.37.44.74.88,1.12,1.33,1.1,1.34,2.35,2.54,3.72,3.58.65.47,1.32.91,2.01,1.34s1.38.83,2.08,1.23c1.41.8,2.83,1.58,4.21,2.42.47.27.89.61,1.24,1.01.84,1.02.49,2.06-1.01,3.26-.07.05-.14.1-.22.15-.08.04-.15.09-.21.15-.52.54-1.08,1.04-1.67,1.49-.55.43-1.13.81-1.74,1.14-1.15.64-2.39,1.08-3.68,1.31-1.99.34-4.02.28-5.98-.17-.69-.15-1.4-.33-2.11-.55-.92-.28-1.85-.5-2.8-.67-.94-.18-1.9-.33-2.84-.5-1.49-.3-3-.46-4.51-.48-1.13-.02-2.25.21-3.29.66-.49.23-.95.51-1.37.85-1.59,1.43-2.91,3.13-3.9,5.03-.25-.56-.5-1.1-.75-1.65-.37-.82-.74-1.63-1.13-2.47s-.79-1.72-1.22-2.67c-.6.68-1.2,1.31-1.77,1.94-.57.6-1.09,1.25-1.55,1.94-.43.68-.81,1.4-1.12,2.14-.34.77-.67,1.58-1.07,2.44-1.37-2.1-2.47-4.36-3.27-6.74-.76-2.4-1.05-4.92-.84-7.43l-2.68,2.99c-.23-.72-.43-1.44-.59-2.15-.33-1.39-.51-2.81-.54-4.23-.03-1.39.13-2.78.47-4.14.58-2.21,1.62-4.27,3.04-6.06l-1.99.2c-.35.03-.72.07-1.09.11l-.3.03c.42-.57.86-1.1,1.3-1.61,2.98-3.45,6.98-5.86,11.43-6.87.74-.18,1.5-.32,2.28-.44.12,1.08.24,2.04.35,2.99.03.19.05.38.07.57.34-.68.69-1.35,1.03-2.02M12.63,8.5c-1.87,0-3.39,1.52-3.39,3.39v49.9c0,1.87,1.52,3.4,3.39,3.4h46.71c-4.53-1.14-8.69-3.42-12.1-6.61-.43-.61-.57-1.39-.36-2.11.58-1.85,1.39-3.63,2.16-5.57,2.01,2.71,3.73,5.02,5.73,7.71,2.55-9.19,4.34-10.57,10.91-9.01-6.49,4.04-4.34,9.78-3.26,15.59h42.03c1.87,0,3.39-1.53,3.39-3.4V11.9c0-1.87-1.52-3.39-3.39-3.39H12.63Z"/>
<g class="cls-6">
<g id="Group_103">
</g>
</g>
</g>
</g>
<g id="Group_106">
<g>
<path class="cls-8" d="m68.55,34.27c-1.36-1.21-2.55-2.27-4.12-3.65.16,3.79.25,3.86,4.12,3.65"/>
<g class="cls-4">
<g id="Group_105">
</g>
</g>
</g>
</g>
<g id="Group_108">
<g>
<path class="cls-2" d="m5.02,61.71V11.81c0-4.2,3.41-7.61,7.61-7.61h91.83c4.2,0,7.61,3.41,7.61,7.62v49.9c0,4.2-3.41,7.61-7.61,7.61H12.63c-4.2,0-7.61-3.41-7.61-7.61M10.8,0C4.84,0,0,4.84,0,10.8v52.1c0,5.96,4.84,10.8,10.8,10.8h95.48c5.96,0,10.8-4.84,10.8-10.8V10.8c0-5.96-4.83-10.79-10.8-10.8H10.8Z"/>
<g class="cls-3">
<g id="Group_107">
</g>
</g>
</g>
</g>
</svg>