<?xml version="1.0" encoding="UTF-8"?><svg id="Layer_2" xmlns="http://www.w3.org/2000/svg" xmlns:xlink="http://www.w3.org/1999/xlink" viewBox="0 0 106.63 119.39"><defs><style>.cls-1{fill:url(#linear-gradient-4);}.cls-1,.cls-2,.cls-3,.cls-4,.cls-5,.cls-6,.cls-7,.cls-8{fill-rule:evenodd;}.cls-2{fill:url(#linear-gradient-2);}.cls-3{fill:url(#linear-gradient);}.cls-4{fill:url(#linear-gradient-6);}.cls-5{fill:url(#linear-gradient-5);}.cls-6{fill:#4a2900;}.cls-7{fill:url(#linear-gradient-3);}.cls-8{fill:#75512b;}</style><linearGradient id="linear-gradient" x1="53.13" y1="-4.58" x2="53.13" y2="110.47" gradientTransform="translate(0 120.47) scale(1 -1)" gradientUnits="userSpaceOnUse"><stop offset="0" stop-color="#916c35"/><stop offset=".28" stop-color="#a06d2d"/><stop offset=".29" stop-color="#a16d2d"/><stop offset=".38" stop-color="#ad7c32"/><stop offset=".55" stop-color="#cda43f"/><stop offset=".72" stop-color="#f0cf4d"/><stop offset=".73" stop-color="#f2d356"/><stop offset=".78" stop-color="#f8dc6c"/><stop offset=".84" stop-color="#fce37b"/><stop offset=".91" stop-color="#fee784"/><stop offset="1" stop-color="#ffe887"/></linearGradient><linearGradient id="linear-gradient-2" x1="63.05" y1="15.29" x2="63.05" y2="120.47" gradientTransform="translate(0 120.47) scale(1 -1)" gradientUnits="userSpaceOnUse"><stop offset="0" stop-color="#966f21"/><stop offset=".57" stop-color="#f9f2a2"/><stop offset="1" stop-color="#fdf6ba"/></linearGradient><linearGradient id="linear-gradient-3" x1="41.03" y1="15.29" x2="41.03" y2="120.47" xlink:href="#linear-gradient-2"/><linearGradient id="linear-gradient-4" x1="26.54" y1="15.29" x2="26.54" y2="120.47" xlink:href="#linear-gradient-2"/><linearGradient id="linear-gradient-5" x1="44.42" y1="15.29" x2="44.42" y2="120.47" xlink:href="#linear-gradient-2"/><linearGradient id="linear-gradient-6" x1="50.65" y1="15.29" x2="50.65" y2="120.47" xlink:href="#linear-gradient-2"/></defs><g id="Layer_5"><path class="cls-6" d="M71.37,116.49c-1.57,2.75-5.07,3.72-7.82,2.15l-43.22-24.58c-2.75-1.57-3.72-5.07-2.15-7.82L52.69,25.57c1.57-2.75,5.07-3.72,7.82-2.15l43.22,24.58c2.75,1.57,3.72,5.07,2.15,7.82l-34.5,60.67Z"/><path class="cls-8" d="M57.85,90.29c-1.08,2.98-4.38,4.51-7.35,3.43L3.78,76.71c-2.98-1.08-4.51-4.38-3.43-7.35L24.22,3.78C25.3,.8,28.59-.74,31.57,.35l46.72,17c2.98,1.08,4.51,4.38,3.43,7.35l-23.87,65.58Z"/><path class="cls-6" d="M57.85,94.29c-1.08,2.98-4.38,4.51-7.35,3.43L3.78,80.71c-2.98-1.08-4.51-4.38-3.43-7.35L24.22,7.78c1.08-2.98,4.38-4.51,7.35-3.43l46.72,17c2.98,1.08,4.51,4.38,3.43,7.35l-23.87,65.58Zm-6.95-70.42l-11.68,15.26-18.12-6.41,10.9,15.84-11.68,15.26,18.42-5.47,10.9,15.84,.48-19.22,18.42-5.47-18.12-6.41,.48-19.22Z"/><path class="cls-3" d="M105.5,52.04l-34.5,60.14c-1.57,2.73-5.05,3.67-7.77,2.11,0,0,0,0,0,0h0s-42.83-24.61-42.83-24.61c-.18-.11-.36-.22-.54-.35l34.35,12.5c2.98,1.08,6.27-.45,7.35-3.43h0s23.53-64.66,23.53-64.66l18.31,10.52c2.73,1.57,3.67,5.05,2.11,7.78Zm-47.66,38.25c-1.08,2.98-4.38,4.51-7.35,3.43L3.78,76.71c-2.98-1.08-4.51-4.38-3.43-7.35L24.22,3.78C25.3,.8,28.59-.74,31.57,.35l46.72,17c2.98,1.08,4.51,4.38,3.43,7.35l-23.87,65.58Zm-6.95-68.42l-11.68,15.26-18.12-6.41,10.9,15.84-11.68,15.26,18.42-5.47,10.9,15.84,.48-19.22,18.42-5.47-18.12-6.41,.48-19.22Z"/><g><path class="cls-2" d="M61.55,98.4c-1.08,2.98-4.38,4.51-7.35,3.43l-34.35-12.5c.17,.13,.35,.24,.53,.35l13.51,7.76,20.31,7.39c2.98,1.08,6.27-.45,7.35-3.43h0s23.53-64.66,23.53-64.66l18.31,10.52c1.31,.75,2.26,1.98,2.66,3.44,.68-2.5-.41-5.14-2.66-6.44l-18.31-10.52-23.53,64.66h0Z"/><path class="cls-7" d="M.35,72.36L24.22,6.78c1.08-2.98,4.38-4.51,7.35-3.43l46.72,17c1.75,.64,3.09,2.09,3.57,3.89,.78-2.88-.77-5.87-3.57-6.89L31.57,.35c-2.98-1.08-6.27,.45-7.35,3.43L.35,69.36c-.41,1.11-.45,2.32-.14,3.46,.04-.15,.09-.31,.14-.46Z"/><polygon class="cls-1" points="23.82 34.67 21.09 33.71 30.9 47.97 31.99 46.55 23.82 34.67"/><polygon class="cls-5" points="38.73 59.34 49.63 75.18 50.11 55.96 68.53 50.49 63.92 48.86 50.11 52.96 49.63 72.18 38.73 56.34 23.28 60.92 20.31 64.8 38.73 59.34"/><polygon class="cls-4" points="50.81 24.96 50.41 41.08 50.48 41.11 50.89 24.86 50.81 24.96"/></g></g></svg>