<?xml version="1.0" encoding="UTF-8"?><svg id="Layer_1" xmlns="http://www.w3.org/2000/svg" xmlns:xlink="http://www.w3.org/1999/xlink" viewBox="0 0 105.23 104.81"><defs><style>.cls-1{fill:url(#linear-gradient-2);}.cls-2{fill:url(#linear-gradient-6);}.cls-3{fill:url(#linear-gradient-5);}.cls-4{fill:url(#linear-gradient-3);}.cls-5{fill:url(#linear-gradient);}.cls-6{fill:url(#linear-gradient-4);}</style><linearGradient id="linear-gradient" x1="35.52" y1="75.76" x2="35.52" y2="31.64" gradientUnits="userSpaceOnUse"><stop offset="0" stop-color="#a7a7b4"/><stop offset=".6" stop-color="#dbdbe1"/><stop offset="1" stop-color="#f9fafb"/></linearGradient><linearGradient id="linear-gradient-2" x1="54.87" y1="79.39" x2="54.87" y2="66.65" xlink:href="#linear-gradient"/><linearGradient id="linear-gradient-3" x1="58.5" y1="83.03" x2="58.5" y2="70.29" xlink:href="#linear-gradient"/><linearGradient id="linear-gradient-4" x1="62.14" y1="86.66" x2="62.14" y2="73.92" xlink:href="#linear-gradient"/><linearGradient id="linear-gradient-5" x1="66.68" y1="92.11" x2="66.68" y2="77.57" xlink:href="#linear-gradient"/><linearGradient id="linear-gradient-6" x1="66.68" y1="58.93" x2="66.68" y2="18.63" xlink:href="#linear-gradient"/></defs><polygon class="cls-5" points="48.73 55.83 48.74 41.29 40.89 33.43 31.62 31.64 29.8 33.43 29.8 37.08 35.54 42.54 35.54 49.82 31.62 53.71 24.36 53.71 18.89 47.98 15.24 47.98 13.43 49.82 15.24 59.06 23.1 66.91 37.66 66.91 46.69 75.76 57.6 64.86 48.73 55.83"/><polygon class="cls-1" points="59.41 66.65 48.5 77.57 50.32 79.39 61.25 68.49 59.41 66.65"/><polygon class="cls-4" points="63.04 70.29 52.13 81.2 53.97 83.03 64.88 72.12 63.04 70.29"/><polygon class="cls-6" points="66.69 73.92 55.76 84.82 57.6 86.66 68.51 75.76 66.69 73.92"/><polygon class="cls-3" points="59.41 88.47 63.04 92.11 70.32 92.11 70.32 92.11 73.95 88.47 73.95 81.19 70.32 77.57 59.41 88.47"/><path class="cls-2" d="m87.64,18.63h-41.93l-4.48,4.48v8.84l1.62.31,7.86,7.85v14.54s4.19,4.28,4.19,4.28h32.73l4.48-4.48v-31.35l-4.48-4.48Zm-7.48,24.26h-9.37v9.37h-8.22v-9.37h-9.37v-8.22h9.37v-9.37h8.22v9.37h9.37v8.22Z"/></svg>