<?xml version="1.0" encoding="UTF-8"?><svg id="Layer_1" xmlns="http://www.w3.org/2000/svg" xmlns:xlink="http://www.w3.org/1999/xlink" viewBox="0 0 105.23 104.81"><defs><style>.cls-1{fill:url(#linear-gradient-2);}.cls-2{fill:url(#linear-gradient);}</style><linearGradient id="linear-gradient" x1="45.61" y1="90.89" x2="45.61" y2="38.09" gradientUnits="userSpaceOnUse"><stop offset=".2" stop-color="#a7a7b4"/><stop offset=".68" stop-color="#dbdbe1"/><stop offset="1" stop-color="#f9fafb"/></linearGradient><linearGradient id="linear-gradient-2" x1="52.51" y1="114.53" x2="52.51" y2="35.6" gradientUnits="userSpaceOnUse"><stop offset=".2" stop-color="#a7a7b4"/><stop offset=".68" stop-color="#dbdbe1"/><stop offset="1" stop-color="#f9fafb"/></linearGradient></defs><path class="cls-2" d="m27.91,65.46l.07.13c1.16-.26,2.33-.48,3.48-.8,3.72-1.15,7.35-2.59,10.84-4.31,2.49-1.13,5-2.21,7.5-3.31,1.64-.74,3.52-.72,5.14.06,1.2.53,2.4,1.04,3.58,1.61,4.47,2.26,9.13,4.12,13.92,5.57,1.28.36,2.58.68,3.95,1.05-.08-.18-.1-.26-.14-.33-1.61-3.03-3.21-6.07-4.8-9.11-.11-.22-.35-.35-.59-.31-1.67,0-3.35,0-5.02.01-.27.04-.54-.13-.62-.39-.85-1.95-1.73-3.88-2.58-5.83-.07-.25-.32-.42-.58-.38-.86.02-1.73,0-2.6,0v-4.96h3.25v-.58c0-2-.04-4,.02-5.99.09-.69-.24-1.38-.83-1.74-.93-.78-1.97-1.41-3.09-1.87-.6-.19-1.23-.3-1.86-.45v-6.69h.56c1.48,0,2.95,0,4.43,0,.24,0,.48-.07.69-.18,1.63-.94,3.26-1.89,4.88-2.84.12-.07.23-.15.34-.23l-.03-.09h-8.36c0-.2-.02-.36-.02-.52,0-1.73,0-1.78-1.68-2.32-1.32-.42-2.68-.69-4.11-1.05v-6.79h-2.5v6.93c-.37.04-.68.08-.98.12-1.55.13-3.06.59-4.43,1.34-.27.13-.43.41-.4.71.03.52,0,1.04,0,1.61h-8.45l-.08.13c.06.02.13.04.18.07,1.5,1,3,2,4.5,2.99.18.1.39.15.6.14,1.36.01,2.72,0,4.09,0h1.62v6.76c-2.07.2-4,1.12-5.46,2.61-.18.2-.29.45-.3.72-.02,2.24-.01,4.49-.01,6.73v.54h3.28v4.91c-.19.04-.35.08-.51.1-1.41.18-2.83.31-4.24.54-.53.09-1.07-.03-1.52-.31-1.56-.89-3.15-1.75-4.72-2.62-1.55-.85-3.09-1.71-4.68-2.58l-.97,1.73c.19.12.34.22.49.32,3.06,1.84,6.12,3.67,9.19,5.51q1.08.65.72,1.84c-.3.99-.61,1.98-.93,3l-15.46-8.46-.96,1.77,10.57,6.23-1.86,4.01-14.62-8.08-.97,1.73,14.55,8.64-1.46,3.02Z"/><path class="cls-1" d="m65.01,64c-3.11-1.53-6.33-2.85-9.62-3.95-1.95-.67-4.08-.66-6.02.04-1.32.49-2.67.9-3.96,1.46-4.87,2.13-9.72,4.32-14.59,6.46-2.97,1.46-6.12,2.56-9.36,3.27.1.14.19.28.29.4,4.05,4.99,8.1,9.97,12.14,14.96.63.78,1.21,1.59,1.91,2.31.3.3.45.71.4,1.13-.02.65,0,1.3,0,1.96h32.31c0-.88-.02-1.73.01-2.58.01-.28.11-.56.28-.78.78-.96,14.75-17.82,14.75-17.82,0,0-14.59-5.01-18.55-6.85Z"/></svg>