<?xml version="1.0" encoding="UTF-8"?><svg id="Layer_1" xmlns="http://www.w3.org/2000/svg" xmlns:xlink="http://www.w3.org/1999/xlink" viewBox="0 0 113 59"><defs><style>.cls-1{fill:url(#linear-gradient-2);}.cls-2{fill:url(#linear-gradient-6);}.cls-3{fill:url(#linear-gradient-11);}.cls-4{fill:url(#linear-gradient-10);}.cls-5{fill:url(#linear-gradient-5);}.cls-6{clip-path:url(#clippath);}.cls-7{fill:none;}.cls-8{fill:url(#linear-gradient-7);}.cls-9{fill:url(#linear-gradient-9);}.cls-10{fill:url(#linear-gradient-3);}.cls-11{fill:url(#linear-gradient);}.cls-12{fill:url(#linear-gradient-4);}.cls-13{fill:url(#linear-gradient-8);}</style><clipPath id="clippath"><rect class="cls-7" y="0" width="112.38" height="59"/></clipPath><linearGradient id="linear-gradient" x1="21.27" y1="44.28" x2="21.27" y2="10.53" gradientTransform="translate(0 59.89) scale(1 -1)" gradientUnits="userSpaceOnUse"><stop offset="0" stop-color="#fff"/><stop offset="1" stop-color="#999"/></linearGradient><linearGradient id="linear-gradient-2" x1="19.11" y1="33.78" x2="19.11" y2="22.72" gradientTransform="translate(0 59.89) scale(1 -1)" gradientUnits="userSpaceOnUse"><stop offset="0" stop-color="#fff"/><stop offset="1" stop-color="#999"/></linearGradient><linearGradient id="linear-gradient-3" x1="21.19" y1="23.09" x2="21.19" y2="13.6" gradientTransform="translate(0 59.89) scale(1 -1)" gradientUnits="userSpaceOnUse"><stop offset="0" stop-color="#fff"/><stop offset="1" stop-color="#999"/></linearGradient><linearGradient id="linear-gradient-4" x1="56.19" y1="57.53" x2="56.19" y2=".89" gradientTransform="translate(0 59.89) scale(1 -1)" gradientUnits="userSpaceOnUse"><stop offset="0" stop-color="#fff"/><stop offset="1" stop-color="#999"/></linearGradient><linearGradient id="linear-gradient-5" x1="56.3" y1="41.02" x2="56.3" y2="9.16" gradientTransform="translate(0 59.89) scale(1 -1)" gradientUnits="userSpaceOnUse"><stop offset="0" stop-color="#fff"/><stop offset="1" stop-color="#999"/></linearGradient><linearGradient id="linear-gradient-6" x1="91.12" y1="44.28" x2="91.12" y2="10.3" gradientTransform="translate(0 59.89) scale(1 -1)" gradientUnits="userSpaceOnUse"><stop offset="0" stop-color="#fff"/><stop offset="1" stop-color="#999"/></linearGradient><linearGradient id="linear-gradient-7" x1="93.27" y1="33.78" x2="93.27" y2="22.72" gradientTransform="translate(0 59.89) scale(1 -1)" gradientUnits="userSpaceOnUse"><stop offset="0" stop-color="#fff"/><stop offset="1" stop-color="#999"/></linearGradient><linearGradient id="linear-gradient-8" x1="91.19" y1="23.09" x2="91.19" y2="13.6" gradientTransform="translate(0 59.89) scale(1 -1)" gradientUnits="userSpaceOnUse"><stop offset="0" stop-color="#fff"/><stop offset="1" stop-color="#999"/></linearGradient><linearGradient id="linear-gradient-9" x1="49.27" y1="53" x2="49.29" y2="43.01" gradientTransform="translate(0 59.89) scale(1 -1)" gradientUnits="userSpaceOnUse"><stop offset="0" stop-color="#fff"/><stop offset="1" stop-color="#999"/></linearGradient><linearGradient id="linear-gradient-10" x1="63.28" y1="52.83" x2="62.95" y2="43.17" gradientTransform="translate(0 59.89) scale(1 -1)" gradientUnits="userSpaceOnUse"><stop offset="0" stop-color="#fff"/><stop offset="1" stop-color="#999"/></linearGradient><linearGradient id="linear-gradient-11" x1="56.26" y1="59.83" x2="56.13" y2="49.97" gradientTransform="translate(0 59.89) scale(1 -1)" gradientUnits="userSpaceOnUse"><stop offset="0" stop-color="#fff"/><stop offset="1" stop-color="#999"/></linearGradient></defs><g class="cls-6"><g><path class="cls-11" d="m32.28,49.36v-25.15L10.25,15.61v6.48l16.47,6.85v18.08l5.56,2.34Z"/><path class="cls-1" d="m24.62,30.41l-11.01-4.3v6.48l11.01,4.58v-6.76Z"/><path class="cls-10" d="m24.62,39.53l-6.85-2.73v6.48l6.85,3.01v-6.76Z"/><path class="cls-12" d="m72.33,17.92v28.9l-16.14,6.27-16.14-6.27v-28.9L0,2.35v6.48l34.49,13.81v27.72l21.7,8.64,21.7-8.64v-27.72l34.49-13.81V2.35l-40.05,15.56Z"/><path class="cls-5" d="m70.09,18.87h-27.58v26.38l13.68,5.48,13.9-5.51v-26.35Z"/><path class="cls-2" d="m80.1,49.59v-25.38l22.03-8.6v6.48l-16.47,6.85v18.31l-5.56,2.34Z"/><path class="cls-8" d="m87.76,30.41l11.02-4.3v6.48l-11.02,4.58v-6.76Z"/><path class="cls-13" d="m87.76,39.53l6.85-2.73v6.48l-6.85,3.01v-6.76Z"/><path class="cls-9" d="m54.29,11.89l-5.01-5-5.01,5,5.01,5,5.01-5Z"/><path class="cls-4" d="m68.12,11.89l-5.01-5-5.01,5,5.01,5,5.01-5Z"/><path class="cls-3" d="m61.21,4.99L56.2,0l-5.01,5,5.01,5,5.01-5Z"/></g></g></svg>