<svg width="106" height="105" viewBox="0 0 106 105" fill="none" xmlns="http://www.w3.org/2000/svg">
<path d="M25 84.1045L25 17.1445L70.3945 26.6396L70.3945 93.5986L25 84.1045ZM65.2998 69.043C65.2944 68.98 64.7203 62.4046 61.7383 60.3457C58.7419 58.2769 49.4949 56.49 50.8447 54.835C52.6444 52.6429 56.3389 50.4768 56.6836 41.9199C56.7697 39.8071 54.7118 33.4777 46.8525 33.4775C38.9933 33.4775 37.7481 40.1851 37.748 43.9795C37.748 50.7582 43.3779 53.2562 43.3779 54.2246C43.3771 55.1916 40.4215 56.0009 40.4141 56.0029C40.4141 56.0029 34.8619 55.8885 32.708 57.7812C30.5543 59.6741 30.9297 65.1279 30.9297 65.1279L65.2998 72.0068L65.2998 69.043Z" fill="url(#paint0_linear_3736_33383)"/>
<path d="M25.0049 17.1465L25.0078 17.1455L25.2031 17.1865L25.0049 17.1465ZM75.1768 83.4971L75.1768 22.7568L32.1133 13.751L32.1133 10L78.998 19.252L79 44.8652L79 84.0439L75.1768 83.4971Z" fill="url(#paint1_linear_3736_33383)"/>
<defs>
<linearGradient id="paint0_linear_3736_33383" x1="47.6973" y1="17.1445" x2="47.6973" y2="93.5986" gradientUnits="userSpaceOnUse">
<stop stop-color="white"/>
<stop offset="1" stop-color="#9A9AAD"/>
</linearGradient>
<linearGradient id="paint1_linear_3736_33383" x1="52.0024" y1="10" x2="52.0024" y2="84.0439" gradientUnits="userSpaceOnUse">
<stop stop-color="white"/>
<stop offset="1" stop-color="#9A9AAD"/>
</linearGradient>
</defs>
</svg>
