<?xml version="1.0" encoding="UTF-8"?><svg id="Layer_1" xmlns="http://www.w3.org/2000/svg" xmlns:xlink="http://www.w3.org/1999/xlink" viewBox="0 0 105.23 104.81"><defs><style>.cls-1{fill:url(#linear-gradient);}</style><linearGradient id="linear-gradient" x1="55.78" y1="74.8" x2="55.78" y2="35.86" gradientUnits="userSpaceOnUse"><stop offset="0" stop-color="#a7a7b4"/><stop offset=".26" stop-color="#bfc0ca"/><stop offset=".75" stop-color="#eaebef"/><stop offset="1" stop-color="#fbfcfe"/></linearGradient></defs><path class="cls-1" d="m100.87,42.61l-.68,1.27h-33.55l-.59-.78-1.37-.2-1.56-2.15-7.04-.68v-1.17l-5.87.1v1.08h-1.47v-2.74l-4.11-1.47-5.18,1.66v1.37h-8.22l-.49,1.17-2.74-1.17-1.86,1.27.39,2.74.98,1.17h2.54l.2.78,5.09,3.23v1.57l-18.1,1.17v.68h-4.89l-5.18,9.39v2.84h3.72l-.2,1.96.69,1.37,9.78,7.73h56.64l8.12-8.12v-2.45l-1.66-2.54-.39-2.84-6.16-.49-10.08-9.49h-4.79v-1.86l3.33-.2.49-1.08h33.55l.39,1.37h3.82v-4.5h-3.52Zm-80.02,29.93l-5.28-4.3,2.64-1.47,2.64,2.15v3.62Zm5.97,1.08l1.08-3.03h4.21l1.57,3.03h-6.85Zm11.45,0l.88-1.52h1.57l.88,1.52h-3.33Zm7.63,0l1.08-3.03h4.21l1.57,3.03h-6.85Zm32.28-4.7l1.22-.59,1.22.68-2.45,3.08v-3.18Zm-11.64,1.66h4.21l1.57,3.03h-6.85l1.08-3.03Zm-9.1,3.03l.88-1.52h1.56l.88,1.52h-3.33Z"/></svg>