<?xml version="1.0" encoding="UTF-8"?><svg id="Layer_1" xmlns="http://www.w3.org/2000/svg" xmlns:xlink="http://www.w3.org/1999/xlink" viewBox="0 0 105.23 104.81"><defs><style>.cls-1{fill:url(#linear-gradient-2);}.cls-2{fill:url(#linear-gradient-3);}.cls-3{fill:url(#linear-gradient);}</style><linearGradient id="linear-gradient" x1="52.78" y1="130.88" x2="52.78" y2="34.89" gradientUnits="userSpaceOnUse"><stop offset=".2" stop-color="#a7a7b4"/><stop offset=".68" stop-color="#dbdbe1"/><stop offset="1" stop-color="#f9fafb"/></linearGradient><linearGradient id="linear-gradient-2" x1="-6439.78" y1="2530.51" x2="-6439.78" y2="2509.28" gradientTransform="translate(44891.01 -14246.75) scale(6.96 5.69)" gradientUnits="userSpaceOnUse"><stop offset=".55" stop-color="#a7a7b4"/><stop offset=".82" stop-color="#dbdbe1"/><stop offset="1" stop-color="#f9fafb"/></linearGradient><linearGradient id="linear-gradient-3" x1="-5008.8" y1="1443.26" x2="-5002.45" y2="1497.86" gradientTransform="translate(15070.11 -2547.79) scale(3 1.74)" gradientUnits="userSpaceOnUse"><stop offset=".45" stop-color="#a7a7b4"/><stop offset=".78" stop-color="#dbdbe1"/><stop offset="1" stop-color="#f9fafb"/></linearGradient></defs><g id="Group_78"><g id="Group_11"><path id="Path_20" class="cls-3" d="m52.78,12.03c-21.32,0-38.61,17.29-38.61,38.61s17.29,38.61,38.61,38.61,38.61-17.29,38.61-38.61h0c0-21.32-17.29-38.61-38.61-38.61Zm9.75,70.5c-.35-1.05-.78-2.07-1.29-3.06-.69-1.37-1.63-2.6-2.43-3.95-1.28-2.07-1.75-4.53-1.32-6.92.13-1.43,1.4-2.48,2.83-2.35,0,0,.02,0,.03,0l.66.14,5.26,1.43.51.17c.8.12,1.35.85,1.24,1.65,0,.01,0,.02,0,.04h0c0,1,.37,1.32,1.34,1.12l1-.2c.98-.22,1.94-.55,2.86-.97,1.7-1.02,2.72-2.88,2.66-4.86.04-.48.04-.95,0-1.43h-.23l-.6.63c-.66.66-1.29,1.4-2,2-.82.8-2.07.95-3.06.37-1.09-.63-2.14-1.31-3.15-2.06-2.57-2.01-5.53-3.46-8.69-4.26-.28-.06-.56-.15-.83-.26-.65-.24-1.16-.74-1.43-1.37-.57-1.59-2.33-2.41-3.92-1.84-.01,0-.02,0-.03.01h-.26c-1.05.49-1.94,1.26-2.57,2.23-.92,1.12-.94,1.12-1.86,0-2.03-2.17-2.92-5.17-2.4-8.09.43-1.91,1.26-3.72,2.43-5.29.89-1.26,1.77-2.55,2.69-3.8l-.4-.29c-1.62-1.44-3.6-2.43-5.72-2.86-1.72-.43-3.52-.43-5.23,0-2.14.61-4.1,1.73-5.72,3.26-2.08,1.99-3.6,4.5-4.4,7.26-.17.57-.26,1.14-.4,1.72l.2.14,6.41-3.8.14.14c-.26.43-.51.86-.74,1.32-.8,1.43-1.72,2.86-2.37,4.35-.75,1.81-1.15,3.76-1.17,5.72-.14,2.43.31,4.85,1.32,7.06,1.36,2.84,3.37,5.32,5.86,7.24,3.01,2.34,6.28,4.32,9.75,5.89,1.77.81,3.43,1.84,4.95,3.06.76.63,1.45,1.34,2.06,2.12h-1.83c-1.66,0-3.31-.14-4.95-.4-1.71-1.74-3.63-3.26-5.72-4.52-2.29-1.52-4.63-3-6.75-4.72-4.62-3.48-7.29-8.97-7.18-14.76v-5.12c-.3.14-.58.3-.86.49-2.71,2.02-4.61,4.94-5.38,8.24-1.02-2.51-1.72-5.15-2.09-7.84.43-1.23.86-2.46,1.34-3.66,1.28-3.1,3.01-5.99,5.15-8.58,1.9-2.39,4.29-4.34,7.01-5.72,1.26-.6,2.6-1.03,3.92-1.57l.6-.31v-.26l-7.09,1.66v-.2c1.03-.57,2.03-1.23,3.09-1.69,1.12-.47,2.28-.84,3.46-1.12,1.14-.26,2.32-.31,3.46-.49-4.49-.74-9.1-.32-13.38,1.2.3-.3.63-.56,1-.77,2.35-1.31,4.87-2.27,7.49-2.86l1.63-.6c-4.25-.38-8.53.24-12.5,1.83.29-.46.63-.86.94-1.32s.83-.34,1.2-.51c2.96-1.31,6.09-2.21,9.29-2.66,3.24-.5,6.51-.65,9.78-.46h.57v-.29c-2.12-.37-4.26-.8-6.41-1.12-3.15-.36-6.34-.36-9.5,0h-.14c1.76-1.55,3.67-2.91,5.72-4.06,1.37.02,2.74.15,4.09.37,2.87.52,5.68,1.31,8.41,2.35l1.32.46c-1.59-2.83-4.17-4.98-7.24-6.03.87-.29,1.76-.51,2.66-.69,2.47.51,4.73,1.75,6.49,3.55.98,1.07,1.72,2.35,2.14,3.75.11.32.27.63.46.92h.17v-.29c0-1.09-.26-2.17-.74-3.15-.74-2.06-1.97-3.91-3.57-5.41l-.26-.17h1.66c1.45,1.32,2.49,3.03,3,4.92.26.89.46,1.8.69,2.69.31,1.14,1,2.15,1.94,2.86l2.29,1.77,10.04,7.72c.17.11.35.2.54.26l.17-.17c-.52-.89-1.12-1.72-1.8-2.49-1.54-1.52-3.17-2.86-4.86-4.38-2.85-2.18-4.81-5.32-5.52-8.84-.02-.42-.12-.83-.31-1.2-.74-1.03-1.46-2.06-2.2-3.06,18.34,1.73,31.8,18,30.07,36.33-1.27,13.45-10.53,24.81-23.46,28.76l-.03-.06Z"/><path id="Path_21" class="cls-1" d="m79.75,43.4c-1.09-.57-2.14-1.2-3.26-1.74-.37-.19-.77-.34-1.17-.46-.72.26-1.42.57-2.09.94-.86.51-.83,1.2,0,1.89.83.69.92.86,1.32,1.32.44.44.68,1.04.69,1.66.02,2.39-1.29,4.59-3.4,5.72-1.08.52-2.23.91-3.4,1.14-1.72.43-3.49.71-5.23,1.09-.83.2-1.65.45-2.46.74-.17.12-.32.28-.43.46.17.11.35.18.54.23h1.72l9.9-.89c2-.2,2.37,0,3.32,1.74,0,0,.17.23.29.23.12-.03.23-.12.29-.23.06-.18.11-.36.14-.54.34-2.14.69-4.29,1-6.46.11-1.25.46-2.46,1.03-3.57.51-.86.94-1.74,1.43-2.57.17-.31.14-.51-.2-.69Z"/><path id="Path_22" class="cls-2" d="m62.9,40.77c-.77-.91-.89-2.19-.31-3.23.03-.32-.09-.63-.31-.86-.22-.29-.52-.5-.86-.6-.41-.16-.85-.23-1.29-.2-1.28-.05-2.57.05-3.83.29-.48.1-.94.24-1.4.4l-.57.2c0,.17.17.49.34.6s.63-.2,1.03,0c1.77,1.35,3.69,2.49,5.72,3.4.5.03.99.03,1.49,0Z"/></g></g></svg>