<?xml version="1.0" encoding="UTF-8"?><svg id="Layer_1" xmlns="http://www.w3.org/2000/svg" xmlns:xlink="http://www.w3.org/1999/xlink" viewBox="0 0 105.23 104.81"><defs><style>.cls-1{fill:url(#linear-gradient-2);}.cls-2{fill:url(#linear-gradient-6);}.cls-3{fill:url(#linear-gradient-11);}.cls-4{fill:url(#linear-gradient-10);}.cls-5{fill:url(#linear-gradient-5);}.cls-6{fill:url(#linear-gradient-7);}.cls-7{fill:url(#linear-gradient-9);}.cls-8{fill:url(#linear-gradient-3);}.cls-9{fill:url(#linear-gradient);}.cls-10{fill:url(#linear-gradient-4);}.cls-11{fill:url(#linear-gradient-8);}</style><linearGradient id="linear-gradient" x1="25.4" y1="81.22" x2="25.4" y2="74.22" gradientUnits="userSpaceOnUse"><stop offset=".2" stop-color="#a7a7b4"/><stop offset=".68" stop-color="#dbdbe1"/><stop offset="1" stop-color="#f9fafb"/></linearGradient><linearGradient id="linear-gradient-2" x1="13.31" y1="68.85" x2="13.31" y2="61.29" xlink:href="#linear-gradient"/><linearGradient id="linear-gradient-3" x1="13.38" y1="64.33" x2="13.38" y2="51.06" xlink:href="#linear-gradient"/><linearGradient id="linear-gradient-4" x1="18.86" y1="51.37" x2="18.86" y2="37.13" xlink:href="#linear-gradient"/><linearGradient id="linear-gradient-5" x1="31.02" y1="37.85" x2="31.02" y2="27.98" xlink:href="#linear-gradient"/><linearGradient id="linear-gradient-6" x1="80.16" y1="81.22" x2="80.16" y2="74.22" xlink:href="#linear-gradient"/><linearGradient id="linear-gradient-7" x1="92.24" y1="68.85" x2="92.24" y2="61.29" xlink:href="#linear-gradient"/><linearGradient id="linear-gradient-8" x1="92.17" y1="64.33" x2="92.17" y2="51.06" xlink:href="#linear-gradient"/><linearGradient id="linear-gradient-9" x1="86.69" y1="51.37" x2="86.69" y2="37.13" xlink:href="#linear-gradient"/><linearGradient id="linear-gradient-10" x1="74.53" y1="37.85" x2="74.53" y2="27.98" xlink:href="#linear-gradient"/><linearGradient id="linear-gradient-11" x1="52.78" y1="84.35" x2="52.78" y2="39.75" xlink:href="#linear-gradient"/></defs><path class="cls-9" d="m25.13,70.38c-8.76-.13-11.72,5.12-11.72,5.12,0,0,3.77,5.66,11.45,6.06,7.68.4,12.53-4.72,12.53-4.72,0,0-3.5-6.33-12.26-6.47Z"/><path class="cls-1" d="m26.47,67.31s-2.62-6.99-12.3-9.09C4.49,56.12.16,60.6.16,60.6c0,0,3.05,6.39,11.48,8.52,8.43,2.12,14.82-1.8,14.82-1.8Z"/><path class="cls-8" d="m21.79,58.59s2.11-7.16-4.36-14.66c-6.47-7.5-12.62-6.52-12.62-6.52,0,0-1.4,6.95,4.05,13.71,5.46,6.77,12.93,7.47,12.93,7.47Z"/><path class="cls-10" d="m20.85,45.21s5.27-4.81,3.34-13.04c-1.93-8.23-7.68-9.73-7.68-9.73,0,0-4.56,4.9-3.14,12.18,1.42,7.29,7.48,10.59,7.48,10.59Z"/><path class="cls-5" d="m34.82,27.39c2.15-5.06-.21-9.6-.21-9.6,0,0-5.23.77-7.45,6.62-2.22,5.85.69,9.16.69,9.16,0,0,4.83-1.12,6.98-6.18Z"/><path class="cls-2" d="m80.43,70.38c-8.76.13-12.26,6.47-12.26,6.47,0,0,4.85,5.12,12.53,4.72,7.68-.4,11.45-6.06,11.45-6.06,0,0-2.96-5.25-11.72-5.12Z"/><path class="cls-6" d="m91.39,58.22c-9.68,2.1-12.3,9.09-12.3,9.09,0,0,6.39,3.93,14.82,1.8,8.43-2.12,11.48-8.52,11.48-8.52,0,0-4.33-4.48-14.01-2.38Z"/><path class="cls-11" d="m88.12,43.93c-6.47,7.5-4.36,14.66-4.36,14.66,0,0,7.47-.71,12.93-7.47s4.05-13.71,4.05-13.71c0,0-6.15-.98-12.62,6.52Z"/><path class="cls-7" d="m84.7,45.21s6.07-3.3,7.48-10.59c1.42-7.29-3.14-12.18-3.14-12.18,0,0-5.75,1.5-7.68,9.73-1.93,8.23,3.34,13.04,3.34,13.04Z"/><path class="cls-4" d="m77.71,33.57s2.91-3.31.69-9.16c-2.22-5.85-7.45-6.62-7.45-6.62,0,0-2.36,4.54-.21,9.6,2.15,5.06,6.98,6.18,6.98,6.18Z"/><polygon class="cls-3" points="52.78 16.93 22.62 52.6 52.78 88.27 82.94 52.6 52.78 16.93"/></svg>