<?xml version="1.0" encoding="UTF-8"?><svg id="Layer_1" xmlns="http://www.w3.org/2000/svg" xmlns:xlink="http://www.w3.org/1999/xlink" viewBox="0 0 105.23 104.81"><defs><style>.cls-1{fill:url(#linear-gradient-2);}.cls-2{fill:url(#linear-gradient-6);}.cls-3{fill:url(#linear-gradient-5);}.cls-4{fill:url(#linear-gradient-7);}.cls-5{fill:url(#linear-gradient-3);}.cls-6{fill:url(#linear-gradient);}.cls-7{fill:url(#linear-gradient-4);}.cls-8{fill:url(#linear-gradient-8);}</style><linearGradient id="linear-gradient" x1="53.27" y1="91.7" x2="51.88" y2="13.04" gradientUnits="userSpaceOnUse"><stop offset=".2" stop-color="#a7a7b4"/><stop offset=".67" stop-color="#d6d6dc"/><stop offset=".75" stop-color="#dbdbe1"/></linearGradient><linearGradient id="linear-gradient-2" x1="39.05" y1="84.46" x2="37.91" y2="13.03" xlink:href="#linear-gradient"/><linearGradient id="linear-gradient-3" x1="66.68" y1="80.9" x2="67.26" y2="12.98" xlink:href="#linear-gradient"/><linearGradient id="linear-gradient-4" x1="34.77" y1="88.42" x2="34.97" y2="21.31" xlink:href="#linear-gradient"/><linearGradient id="linear-gradient-5" x1="52.46" y1="88.88" x2="51.97" y2="22.34" gradientUnits="userSpaceOnUse"><stop offset=".2" stop-color="#a7a7b4"/><stop offset=".47" stop-color="#c2c2cb"/><stop offset=".48" stop-color="#c3c3cc"/><stop offset=".67" stop-color="#d6d6dc"/><stop offset=".75" stop-color="#dbdbe1"/></linearGradient><linearGradient id="linear-gradient-6" x1="68.33" y1="88.06" x2="69.42" y2="21.81" xlink:href="#linear-gradient"/><linearGradient id="linear-gradient-7" x1="35.23" y1="88.57" x2="34.31" y2="23.63" xlink:href="#linear-gradient"/><linearGradient id="linear-gradient-8" x1="52.75" y1="87.95" x2="50.57" y2="20.68" gradientUnits="userSpaceOnUse"><stop offset=".2" stop-color="#a7a7b4"/><stop offset=".61" stop-color="#d0d0d7"/><stop offset=".67" stop-color="#d6d6dc"/><stop offset=".75" stop-color="#dbdbe1"/><stop offset=".89" stop-color="#dbdbe1"/></linearGradient></defs><g><path class="cls-6" d="m74.64,21.28h-1.67v5.16c0,3.23-2.62,5.85-5.85,5.85s-5.85-2.62-5.85-5.85v-5.16h-17.28v5.16c0,3.23-2.62,5.85-5.85,5.85s-5.85-2.62-5.85-5.85v-5.16h-1.67c-6.31,0-11.43,5.12-11.43,11.43v44.04c0,6.31,5.12,11.43,11.43,11.43h44.04c6.31,0,11.43-5.12,11.43-11.43v-44.04c0-6.31-5.12-11.43-11.43-11.43Zm6.13,61.88H24.46v-44.04h56.31v44.04Z"/><rect class="cls-1" x="34.08" y="11.75" width="7.93" height="18.68" rx="3.71" ry="3.71"/><rect class="cls-5" x="63.22" y="11.75" width="7.93" height="18.68" rx="3.71" ry="3.71"/></g><rect class="cls-7" x="28.8" y="43.12" width="12.17" height="12.17"/><rect class="cls-3" x="46.09" y="43.12" width="12.17" height="12.17"/><rect class="cls-2" x="62.88" y="43.12" width="12.17" height="12.17"/><rect class="cls-4" x="28.8" y="58.34" width="12.17" height="12.17"/><rect class="cls-8" x="45.9" y="58.15" width="12.17" height="12.17"/></svg>