<?xml version="1.0" encoding="UTF-8"?><svg id="Layer_1" xmlns="http://www.w3.org/2000/svg" xmlns:xlink="http://www.w3.org/1999/xlink" viewBox="0 0 105.23 104.81"><defs><style>.cls-1{fill:url(#linear-gradient);}</style><linearGradient id="linear-gradient" x1="52.78" y1="123.7" x2="52.78" y2="22.77" gradientUnits="userSpaceOnUse"><stop offset=".2" stop-color="#a7a7b4"/><stop offset=".67" stop-color="#d6d6dc"/><stop offset=".72" stop-color="#dbdbe1"/><stop offset="1" stop-color="#f9fafb"/></linearGradient></defs><g id="Group_27"><path id="Path_23" class="cls-1" d="m52.79,14.31c-16.03.07-30.43,9.82-36.44,24.69-.1.19-.18.4-.24.61,0,.18-.15.36-.24.58-1.64,4.35-2.5,8.96-2.55,13.6,0,1.79.12,3.57.36,5.34,0,.76.24,1.58.39,2.31,1.23,6.49,4.11,12.55,8.35,17.61,1.2,1.48,2.53,2.86,3.98,4.1.17.19.37.35.58.49.1.15.24.28.39.36l.27.24c16.82,13.87,41.7,11.48,55.57-5.34,13.87-16.82,11.48-41.7-5.34-55.57-7.06-5.82-15.93-9.01-25.08-9.02Zm3.34,73.39l-.33-.3c-2.06-2.15-3.45-4.87-3.98-7.8,0-.64-.27-1.28-.39-1.94-.79.27-1.06.61-1.37,1.94-1.15-1.49-2.04-3.16-2.61-4.95-.52-1.79-.82-3.58-1.21-5.37-.64.33-1.15,1.49-1.46,3.28-3.28-4.27-4.22-9.89-2.52-15,2.04-5,6.28-8.78,11.48-10.23-.73-.73-1.37-1.49-2.1-2.19-2.44-2.34-5.38-4.1-8.59-5.13-3.72-1.14-7.64-1.48-11.51-1-2.52.27-4.98.76-7.47,1.15l1.73-1.25c2.66-1.78,5.51-3.25,8.5-4.4,2.67-1.06,5.45-1.82,8.29-2.25,3.02-.46,6.09-.46,9.11,0,5.53.86,10.77,3.04,15.27,6.35.64.46.64.52.18,1.12-.86,1.03-1.89,1.9-3.04,2.58-.59-.86-1.24-1.69-1.94-2.46-1.66-1.83-3.9-3.02-6.35-3.37-2.4-.42-4.86-.42-7.26,0l-5.68,1.15c-.14.06-.27.14-.39.24,3.15.82,6.45.82,9.6,0-.33,2.4,0,4.52,2.55,5.44,1.53.57,3.25.18,4.37-1,.49.57.73,1.32.64,2.06,0,.55.18.7.67.73,1.23.16,2.48.01,3.64-.43,1.09-.49,2.13-1,3.25-1.4,1.73-.61,2.37.52,2.22,1.97v.52c.64-.39,1.31-.74,2-1.03.31-.14.66-.14.97,0,.96.53,1.87,1.13,2.73,1.79,2.61,1.83,3.89,5.02,3.28,8.14-.03.36-.09.71-.18,1.06-1.69-2.52-4.27-4.3-7.23-4.98-2.97-.89-6.02-1.49-9.11-1.79-4.21-.59-8.48.68-11.69,3.46-1.94,1.47-3.58,3.29-4.83,5.37-1.19,2.07-1.6,4.49-1.15,6.83v.33c.72-3.45,2.95-6.4,6.07-8.05-.15.52-.36,1-.52,1.49-.91,2.41-1.38,4.96-1.37,7.53.03,3.29,1.01,6.51,2.82,9.26.03-.29.03-.59,0-.88.09-3.65,1-7.24,2.64-10.51,1.8-3.83,4.99-6.82,8.93-8.38,2.18-.84,4.54-1.13,6.86-.85,1.5.15,2.98.43,4.43.85,2.11.49,3.68,2.27,3.89,4.43.58-1.09,1.25-2.13,1.73-3.25.94-2.02,1.37-4.24,1.25-6.47-.18-2.27-1.14-4.42-2.7-6.07-2.01-2.09-4.5-3.64-7.26-4.52-.41-.14-.78-.37-1.09-.67-3.05-3.22-6.6-5.92-10.51-8.02-3.13-1.64-6.47-2.86-9.93-3.61-3.67-.79-7.44-1-11.17-.61-2.89.27-5.74.95-8.44,2,13.91-12.67,35.46-11.67,48.13,2.24,12.67,13.91,11.67,35.46-2.24,48.13-5.43,4.95-12.32,8.01-19.63,8.73v-.03Z"/></g></svg>