<?xml version="1.0" encoding="UTF-8"?><svg id="Layer_1" xmlns="http://www.w3.org/2000/svg" viewBox="0 0 37.01 36.5"><defs><style>.cls-1{fill:#282828;}.cls-2{fill:#e55158;}</style></defs><g><rect class="cls-2" x="3.92" y="-.1" width="3" height="10.26" transform="translate(-1.97 5.31) rotate(-45.01)"/><path class="cls-1" d="m2.86.71l6.9,6.9-1.77,1.77L1.09,2.47l1.77-1.77M2.86,0l-.35.35-1.77,1.77-.35.35.35.35,6.9,6.9.35.35.35-.35,1.77-1.77.35-.35-.35-.35L3.21.35,2.86,0h0Z"/></g><g><rect class="cls-2" x="26.84" y="3.54" width="10.26" height="3" transform="translate(5.8 24.08) rotate(-45)"/><path class="cls-1" d="m34.54.71l1.77,1.77-6.9,6.9-1.77-1.77,6.9-6.9M34.54,0l-.35.35-6.9,6.9-.35.35.35.35,1.77,1.77.35.35.35-.35,6.9-6.9.35-.35-.35-.35-1.77-1.77L34.54,0h0Z"/></g><g><rect class="cls-2" x=".3" y="29.96" width="10.26" height="3" transform="translate(-20.66 13.05) rotate(-45)"/><path class="cls-1" d="m7.99,27.12l1.77,1.77-6.9,6.9-1.77-1.77,6.9-6.9m0-.71l-.35.35-6.9,6.9-.35.35.35.35,1.77,1.77.35.35.35-.35,6.9-6.9.35-.35-.35-.35-1.77-1.77-.35-.35h0Z"/></g><g><rect class="cls-2" x="30.46" y="26.32" width="3" height="10.26" transform="translate(-12.88 31.81) rotate(-44.99)"/><path class="cls-1" d="m29.4,27.12l6.9,6.9-1.77,1.77-6.9-6.9,1.77-1.77m0-.71l-.35.35-1.77,1.77-.35.35.35.35,6.9,6.9.35.35.35-.35,1.77-1.77.35-.35-.35-.35-6.9-6.9-.35-.35h0Z"/></g></svg>