<?xml version="1.0" encoding="UTF-8"?><svg id="Layer_1" xmlns="http://www.w3.org/2000/svg" viewBox="0 0 39.53 39.52"><defs><style>.cls-1{fill:none;}.cls-2{fill:#f15758;}</style></defs><g id="Path_2132"><path class="cls-1" d="m20.1,0c10.91.19,19.61,9.18,19.42,20.1-.19,10.91-9.18,19.61-20.1,19.42C8.51,39.33-.18,30.34,0,19.43S9.19-.18,20.1,0h0Z"/><path class="cls-2" d="m20.05,3c-4.48-.08-8.71,1.6-11.93,4.71-3.22,3.11-5.03,7.29-5.11,11.77s1.6,8.71,4.71,11.93c3.11,3.22,7.29,5.03,11.77,5.11s8.71-1.6,11.93-4.71c3.22-3.11,5.03-7.29,5.11-11.77s-1.6-8.71-4.71-11.93c-3.11-3.22-7.29-5.03-11.77-5.11M20.1,0c10.91.19,19.61,9.18,19.42,20.09-.19,10.91-9.18,19.61-20.1,19.42C8.51,39.34-.18,30.34,0,19.43.19,8.51,9.19-.18,20.1,0Z"/></g></svg>