<?xml version="1.0" encoding="UTF-8"?><svg id="Layer_1" xmlns="http://www.w3.org/2000/svg" viewBox="0 0 45.1 45.1"><defs><style>.cls-1{fill:#fff;}.cls-2{fill:#404040;}</style></defs><polygon class="cls-1" points="42.1 24.21 42.1 19.22 37.11 21.69 42.1 24.21"/><polygon class="cls-1" points="25.05 3 20.06 3 22.53 8 25.05 3"/><polygon class="cls-1" points="3 19.22 3 24.21 8 21.74 3 19.22"/><polygon class="cls-1" points="20.06 42.1 25.04 42.1 22.57 37.1 20.06 42.1"/><g id="Ellipse_157"><circle class="cls-1" cx="22.44" cy="22.54" r="5.26"/><path class="cls-2" d="m22.44,29.83c-4.01,0-7.28-3.26-7.28-7.28s3.26-7.28,7.28-7.28,7.28,3.26,7.28,7.28-3.26,7.28-7.28,7.28Zm0-12.55c-2.91,0-5.28,2.37-5.28,5.28s2.37,5.28,5.28,5.28,5.28-2.37,5.28-5.28-2.37-5.28-5.28-5.28Z"/></g></svg>