<?xml version="1.0" encoding="UTF-8"?><svg id="Layer_1" xmlns="http://www.w3.org/2000/svg" viewBox="0 0 45.1 45.1"><defs><style>.cls-1{fill:#fff;}.cls-2{fill:none;}.cls-3{fill:#404040;}</style></defs><polygon class="cls-1" points="42.1 24.21 42.1 19.22 37.11 21.69 42.1 24.21"/><polygon class="cls-1" points="25.05 3 20.06 3 22.53 8 25.05 3"/><polygon class="cls-1" points="3 19.22 3 24.21 8 21.74 3 19.22"/><polygon class="cls-1" points="20.06 42.1 25.04 42.1 22.57 37.1 20.06 42.1"/><g id="Ellipse_157"><circle class="cls-1" cx="22.44" cy="22.54" r="5.26"/><path class="cls-3" d="m22.44,29.83c-4.01,0-7.28-3.26-7.28-7.28s3.26-7.28,7.28-7.28,7.28,3.26,7.28,7.28-3.26,7.28-7.28,7.28Zm0-12.55c-2.91,0-5.28,2.37-5.28,5.28s2.37,5.28,5.28,5.28,5.28-2.37,5.28-5.28-2.37-5.28-5.28-5.28Z"/></g><g><path class="cls-2" d="m22.44,5.8c-9.25,0-16.76,7.5-16.76,16.76s7.5,16.76,16.76,16.76c9.25-.01,16.74-7.51,16.76-16.75h0c0-9.26-7.5-16.76-16.76-16.76Z"/><path class="cls-1" d="m22.44,1.18C10.64,1.19,1.07,10.75,1.06,22.55c0,11.81,9.57,21.38,21.38,21.38s21.38-9.57,21.38-21.38S34.24,1.18,22.44,1.18Zm0,39.29h0c-9.89-.01-17.9-8.02-17.91-17.91C4.53,12.66,12.55,4.64,22.44,4.64s17.91,8.02,17.91,17.91-8.02,17.91-17.91,17.91Z"/><path class="cls-3" d="m22.44.02C9.99.02-.1,10.11-.1,22.55s10.09,22.53,22.53,22.53,22.53-10.09,22.53-22.53C44.96,10.12,34.88.04,22.44.02Zm0,43.91c-11.81,0-21.38-9.57-21.38-21.38C1.07,10.75,10.64,1.19,22.44,1.18c11.81,0,21.38,9.57,21.38,21.38s-9.57,21.38-21.38,21.38Z"/><path class="cls-3" d="m22.44,4.64C12.55,4.64,4.53,12.66,4.53,22.55c.01,9.89,8.02,17.9,17.91,17.91h0c9.89,0,17.91-8.02,17.91-17.91S32.33,4.64,22.44,4.64Zm16.76,17.91c-.01,9.25-7.51,16.74-16.76,16.75-9.25,0-16.76-7.5-16.76-16.76S13.18,5.8,22.44,5.8s16.76,7.5,16.76,16.76h0Z"/></g></svg>