<?xml version="1.0" encoding="UTF-8"?><svg id="Layer_1" xmlns="http://www.w3.org/2000/svg" viewBox="0 0 45.1 45.1"><defs><style>.cls-1{fill:#fff;}.cls-2{fill:#404040;}</style></defs><polygon class="cls-1" points="42.21 25.98 42.21 19.12 35.34 22.52 42.21 25.98"/><path class="cls-2" d="m28.85,22.5l16.26,8.19V14.46l-16.26,8.04Zm13.36,3.48l-6.87-3.46,6.87-3.4v6.85Z"/><polygon class="cls-1" points="2.89 25.98 9.76 22.52 2.89 19.12 2.89 25.98"/><path class="cls-2" d="m0,14.46v16.23l16.26-8.19L0,14.46Zm2.9,4.67l6.87,3.4-6.87,3.46v-6.85Z"/><polygon class="cls-1" points="20.02 42.21 26.88 42.21 23.48 35.34 20.02 42.21"/><path class="cls-2" d="m23.51,28.85l-8.19,16.26h16.23l-8.04-16.26Zm3.37,13.36h-6.85l3.46-6.87,3.4,6.87Z"/><polygon class="cls-1" points="20.02 2.89 23.48 9.76 26.88 2.89 20.02 2.89"/><path class="cls-2" d="m15.32,0l8.19,16.26L31.55,0H15.32Zm11.56,2.9l-3.4,6.87-3.46-6.87h6.85Z"/></svg>