<?xml version="1.0" encoding="UTF-8"?><svg id="Layer_1" xmlns="http://www.w3.org/2000/svg" viewBox="0 0 43.1 43.1"><defs><style>.cls-1{fill:#fff;}.cls-2{fill:#414141;}</style></defs><polygon class="cls-1" points="41.1 23.21 41.1 18.22 36.11 20.69 41.1 23.21"/><path class="cls-2" d="m31.63,20.68l11.48,5.78v-11.45l-11.48,5.67Zm9.48,2.53l-5-2.52,5-2.47v4.99Z"/><polygon class="cls-1" points="24.05 2 19.06 2 21.53 7 24.05 2"/><path class="cls-2" d="m15.84,0l5.68,11.48L27.29,0h-11.45Zm8.21,2l-2.52,5-2.47-5h4.99Z"/><polygon class="cls-1" points="2 18.22 2 23.21 7 20.74 2 18.22"/><path class="cls-2" d="m0,14.98v11.45l11.48-5.67L0,14.98Zm2,3.25l5,2.52-5,2.47v-4.99Z"/><polygon class="cls-1" points="19.06 41.1 24.04 41.1 21.57 36.1 19.06 41.1"/><path class="cls-2" d="m21.59,31.63l-5.78,11.48h11.45l-5.67-11.48Zm2.45,9.48h-4.99l2.52-5,2.47,5Z"/></svg>