<?xml version="1.0" encoding="UTF-8"?><svg id="Layer_1" xmlns="http://www.w3.org/2000/svg" viewBox="0 0 36.78 36.86"><defs><style>.cls-1{fill:#282828;}.cls-2{fill:#e55158;}</style></defs><g><rect class="cls-2" x="3.84" y=".7" width="2.2" height="8.68" transform="translate(-2.11 4.97) rotate(-45)"/><path class="cls-1" d="m2.65,1.55l5.79,5.79-1.2,1.2L1.46,2.75l1.2-1.2m0-.71l-.35.35-1.2,1.2-.35.35.35.35,5.79,5.79.35.35.35-.35,1.2-1.2.35-.35-.35-.35L3.01,1.2l-.35-.35h0Z"/></g><g><rect class="cls-2" x="27.48" y="3.94" width="8.68" height="2.2" transform="translate(5.76 23.98) rotate(-45)"/><path class="cls-1" d="m34.12,1.55l1.2,1.2-5.79,5.79-1.2-1.2,5.79-5.79m0-.71l-.35.35-5.79,5.79-.35.35.35.35,1.2,1.2.35.35.35-.35,5.79-5.79.35-.35-.35-.35-1.2-1.2-.35-.35h0Z"/></g><g><rect class="cls-2" x=".69" y="30.73" width="8.68" height="2.2" transform="translate(-21.04 12.88) rotate(-45)"/><path class="cls-1" d="m7.32,28.35l1.2,1.2-5.79,5.79-1.2-1.2,5.79-5.79m0-.71l-.35.35-5.79,5.79-.35.35.35.35,1.2,1.2.35.35.35-.35,5.79-5.79.35-.35-.35-.35-1.2-1.2-.35-.35h0Z"/></g><g><rect class="cls-2" x="30.73" y="27.41" width="2.2" height="8.68" transform="translate(-13.13 31.82) rotate(-45.02)"/><path class="cls-1" d="m29.53,28.27l5.79,5.79-1.2,1.2-5.79-5.79,1.2-1.2m0-.71l-.35.35-1.2,1.2-.35.35.35.35,5.79,5.79.35.35.35-.35,1.2-1.2.35-.35-.35-.35-5.79-5.79-.35-.35h0Z"/></g></svg>