<?xml version="1.0" encoding="UTF-8"?><svg id="Layer_1" xmlns="http://www.w3.org/2000/svg" viewBox="0 0 45.11 28.11"><defs><style>.cls-1{fill:#fff;}.cls-2{fill:#404040;}</style></defs><path class="cls-2" d="m17.35,10.6V0H0v10.62h17.01v-.02h.34Zm-3.21-3.18H3.21V3.21h10.93v4.21Z"/><rect class="cls-1" x="3.21" y="3.21" width="10.93" height="4.21"/><path class="cls-2" d="m45.11,0h-17.35v10.6h.11v.02h17.24V0Zm-3.21,7.41h-10.93V3.21h10.93v4.21Z"/><rect class="cls-1" x="30.97" y="3.21" width="10.93" height="4.21"/><path class="cls-2" d="m27.76,10.6h-10.41v.02h-.34v17.49h10.85V10.62h-.11v-.02Zm-3.1,14.3h-4.44v-11.09h4.44v11.09Z"/><rect class="cls-2" x="17.01" y="10.6" width=".34" height=".02"/><rect class="cls-2" x="27.76" y="10.6" width=".11" height=".02"/><rect class="cls-1" x="20.22" y="13.81" width="4.44" height="11.09"/></svg>