<?xml version="1.0" encoding="UTF-8"?><svg id="Layer_1" xmlns="http://www.w3.org/2000/svg" viewBox="0 0 45.07 45.07"><defs><style>.cls-1{fill:#fff;}.cls-2{fill:none;}.cls-3{fill:#404040;}</style></defs><polygon class="cls-1" points="42.08 24.17 42.08 19.18 37.09 21.65 42.08 24.17"/><polygon class="cls-1" points="25.03 2.96 20.04 2.96 22.51 7.96 25.03 2.96"/><polygon class="cls-1" points="2.98 19.18 2.98 24.17 7.98 21.7 2.98 19.18"/><polygon class="cls-1" points="20.04 42.06 25.02 42.06 22.55 37.06 20.04 42.06"/><g><path class="cls-2" d="m22.53,5.78c-9.25,0-16.76,7.5-16.76,16.76s7.5,16.76,16.76,16.76c9.25-.01,16.74-7.51,16.76-16.75h0c0-9.26-7.5-16.76-16.76-16.76Z"/><path class="cls-1" d="m22.53,1.16C10.73,1.17,1.17,10.73,1.16,22.53c0,11.81,9.57,21.38,21.38,21.38s21.38-9.57,21.38-21.38S34.34,1.16,22.53,1.16Zm0,39.29h0c-9.89-.01-17.9-8.02-17.91-17.91C4.62,12.64,12.64,4.62,22.53,4.62s17.91,8.02,17.91,17.91-8.02,17.91-17.91,17.91Z"/><path class="cls-3" d="m22.53,0C10.09,0,0,10.09,0,22.53s10.09,22.53,22.53,22.53,22.53-10.09,22.53-22.53C45.05,10.09,34.97.01,22.53,0Zm0,43.91c-11.81,0-21.38-9.57-21.38-21.38C1.17,10.73,10.73,1.17,22.53,1.16c11.81,0,21.38,9.57,21.38,21.38s-9.57,21.38-21.38,21.38Z"/><path class="cls-3" d="m22.53,4.62C12.64,4.62,4.62,12.64,4.62,22.53c.01,9.89,8.02,17.9,17.91,17.91h0c9.89,0,17.91-8.02,17.91-17.91S32.43,4.62,22.53,4.62Zm16.76,17.91c-.01,9.25-7.51,16.74-16.76,16.75-9.25,0-16.76-7.5-16.76-16.76S13.28,5.78,22.53,5.78s16.76,7.5,16.76,16.76h0Z"/></g></svg>