<?xml version="1.0" encoding="UTF-8"?><svg id="Layer_1" xmlns="http://www.w3.org/2000/svg" viewBox="0 0 45.07 45.07"><defs><style>.cls-1{fill:#fff;}.cls-2{fill:none;}.cls-3{fill:#404040;}</style></defs><path class="cls-2" d="m22.53,5.78c-9.25,0-16.76,7.5-16.76,16.76s7.5,16.76,16.76,16.76c9.25,0,16.74-7.51,16.76-16.75h0c0-9.26-7.5-16.76-16.76-16.76h0Z"/><path class="cls-1" d="m22.53,1.16C10.73,1.17,1.17,10.73,1.16,22.53c0,11.81,9.57,21.38,21.38,21.38s21.38-9.57,21.38-21.38S34.34,1.16,22.53,1.16Zm0,39.29h0c-9.89,0-17.9-8.02-17.91-17.91,0-9.9,8.02-17.92,17.91-17.92s17.91,8.02,17.91,17.91-8.02,17.91-17.91,17.91h0Z"/><path class="cls-3" d="m22.53,0C10.09,0,0,10.09,0,22.53s10.09,22.53,22.53,22.53,22.53-10.09,22.53-22.53C45.05,10.09,34.97,0,22.53,0Zm0,43.91c-11.81,0-21.38-9.57-21.38-21.38C1.17,10.73,10.73,1.17,22.53,1.16c11.81,0,21.38,9.57,21.38,21.38s-9.57,21.38-21.38,21.38h0Z"/><path class="cls-3" d="m22.53,4.62C12.64,4.62,4.62,12.64,4.62,22.53c.01,9.89,8.02,17.9,17.91,17.91h0c9.89,0,17.91-8.02,17.91-17.91S32.43,4.62,22.53,4.62Zm16.76,17.91c0,9.25-7.51,16.74-16.76,16.75-9.25,0-16.76-7.5-16.76-16.76S13.28,5.78,22.53,5.78s16.76,7.5,16.76,16.76h0Z"/></svg>