<?xml version="1.0" encoding="UTF-8"?><svg id="Layer_1" xmlns="http://www.w3.org/2000/svg" viewBox="0 0 45.1 45.1"><defs><style>.cls-1{fill:#fff;}.cls-2{fill:#404040;}</style></defs><polygon class="cls-1" points="42.1 24.21 42.1 19.22 37.11 21.69 42.1 24.21"/><polygon class="cls-1" points="25.05 3 20.06 3 22.53 8 25.05 3"/><polygon class="cls-1" points="3 19.22 3 24.21 8 21.74 3 19.22"/><polygon class="cls-1" points="20.06 42.1 25.04 42.1 22.57 37.1 20.06 42.1"/><g id="Group_2272"><g id="Rectangle_2811-2"><rect class="cls-1" x="7.65" y="3.26" width="5.3" height="13.77" transform="translate(-4.16 10.25) rotate(-45)"/><path class="cls-2" d="m13.29,20.27L.17,7.14,7.3.01l13.12,13.12-7.13,7.13ZM3,7.14l10.29,10.29,4.3-4.3L7.3,2.84,3,7.14Z"/></g><g id="Rectangle_2814"><rect class="cls-1" x="27.75" y="7.41" width="13.97" height="5.59" transform="translate(2.96 27.55) rotate(-45)"/><path class="cls-2" d="m31.77,20.5l-7.34-7.34L37.7-.09l7.34,7.34-13.26,13.26Zm-4.51-7.34l4.51,4.51,10.43-10.43-4.51-4.51-10.43,10.43Z"/></g><g id="Rectangle_2812-2"><rect class="cls-1" x="32.36" y="27.97" width="5.3" height="13.77" transform="translate(-14.39 34.96) rotate(-45)"/><path class="cls-2" d="m38,44.98l-13.12-13.12,7.13-7.13,13.12,13.12-7.13,7.13Zm-10.29-13.12l10.29,10.29,4.3-4.3-10.29-10.29-4.3,4.3Z"/></g><g id="Rectangle_2813-2"><rect class="cls-1" x="3.06" y="32.1" width="13.97" height="5.59" transform="translate(-21.73 17.32) rotate(-45)"/><path class="cls-2" d="m7.08,45.19L-.25,37.86l13.26-13.26,7.34,7.34-13.26,13.26Zm-4.51-7.34l4.51,4.51,10.43-10.43-4.51-4.51-10.43,10.43Z"/></g></g></svg>