<?xml version="1.0" encoding="UTF-8"?><svg id="Layer_1" xmlns="http://www.w3.org/2000/svg" viewBox="0 0 59.1 65.08"><defs><style>.cls-1{fill:#fff;}.cls-2{fill:none;}</style></defs><path class="cls-2" d="m23.01,3.05c-.38-.16-.94.19-1.34.51-1.89,1.54-2.84,7.05-3.19,12.47l7.52-4.29c-.47-3.98-1.68-8.12-2.99-8.69Z"/><path class="cls-1" d="m17.04,16.85l1.44-.82c.36-5.42,1.3-10.93,3.19-12.47.4-.32.96-.67,1.34-.51,1.32.57,2.53,4.71,2.99,8.69l2.81-1.6c-.51-3.4-1.74-8.6-4.62-9.84-.97-.42-2.53-.6-4.42.94-4.89,3.97-4.5,20.48-4.44,22.34,0,0-.08,1.37,1.47,1.37,0,0,.01,0,.02,0-.07-2.34-.01-5.23.21-8.1Z"/><path class="cls-1" d="m56.13,37.55c-.71-1.91-4.27-5.93-7.42-7.69,3.47,10.31.19,13.78.19,13.78l-5.46,1.93c.25,4.83.92,10.14,4.33,10.57,2.21.28,3.47-4.11,3.47-4.11,0,0,1.12,15.94,5.09,12.59,2.54-2.15,4.76-13.63-.2-27.07Z"/><path class="cls-2" d="m35.18,43.05l-19.26,7.74c-.65.26-.96.99-.7,1.64.26.65.99.96,1.64.7l19.26-7.74c.65-.26.96-.99.7-1.64-.26-.65-.99-.96-1.64-.7Z"/><path class="cls-2" d="m31.87,12.01c-2.72,1.33-1.7,8.98,2.28,17.08,2.8,5.7,6.31,10.1,9.09,11.74-.07-1.17-.19-2.12-.4-2.69,0,0-3.45-2.48-5.87-7.24,0,0,3.01-3.61,8.96-2.1-.54-1.47-1.18-2.99-1.94-4.53-3.97-8.1-9.4-13.59-12.11-12.26Z"/><path class="cls-1" d="m36.96,30.9c2.42,4.76,5.87,7.24,5.87,7.24.22.58.33,1.52.4,2.69,1.17.69,2.22.91,3.02.51,2.2-1.08,1.95-6.3-.34-12.55-5.95-1.5-8.96,2.1-8.96,2.1Z"/><path class="cls-1" d="m34.14,29.09c-3.97-8.1-4.99-15.75-2.28-17.08,2.72-1.33,8.14,4.15,12.11,12.26.76,1.54,1.4,3.07,1.94,4.53.55.14,1.11.3,1.71.54.35.14.72.32,1.09.53-.65-1.94-1.55-4.12-2.75-6.58-7.15-14.58-14.3-14.78-14.3-14.78l-2.86,1.63c.18,1.23.28,2.24.31,2.72l-2.99.22c-.03-.44-.08-.89-.13-1.34l-7.52,4.29c-.17,2.67-.21,5.31-.14,7.45,0,0-.16,1.45-1.51,1.46,0,.09,0,.18,0,.26,0,0-.16,1.47-1.53,1.47-1.55,0-1.47-1.37-1.47-1.37-.02-.69-.09-3.37.08-6.68l-11.42,6.51s-5.77,5.46.23,19.32c5.23,12.1,14.36,10.42,14.36,10.42l26.36-9.32c-.09-1.72-.13-3.38-.21-4.74-2.78-1.65-6.29-6.04-9.09-11.74Zm1.97,16.31l-19.26,7.74c-.65.26-1.38-.05-1.64-.7-.26-.65.05-1.38.7-1.64l19.26-7.74c.65-.26,1.38.05,1.64.7.26.65-.05,1.38-.7,1.64Z"/><path class="cls-1" d="m18.34,23.48c-.07-2.14-.03-4.78.14-7.45l-1.44.82c-.22,2.86-.28,5.76-.21,8.1,1.35-.02,1.51-1.46,1.51-1.46Z"/><path class="cls-1" d="m26.14,13.07l2.99-.22c-.04-.48-.13-1.48-.31-2.72l-2.81,1.6c.05.45.1.9.13,1.34Z"/><path class="cls-1" d="m48.72,29.86c-.37-.21-.74-.39-1.09-.53-.6-.23-1.16-.4-1.71-.54,2.28,6.25,2.53,11.47.34,12.55-.8.39-1.85.18-3.02-.51.09,1.36.12,3.02.21,4.74l5.46-1.93s3.29-3.47-.19-13.78Z"/></svg>