<svg width="31" height="27" viewBox="0 0 31 27" fill="none" xmlns="http://www.w3.org/2000/svg">
<path d="M18.1836 8.43945H27.0566L24.7979 10.0791L25.8516 12.6846H30.9355L26.8223 15.6719L28.3936 20.5078L24.2822 17.5186L21.7344 19.3691L22.6201 22.0938L20.3027 20.4102L20.1689 20.5078L20.1729 20.4941L18.0068 22.0674L19.5781 26.9033L15.4658 23.915L11.3096 26.9033L12.9238 22.0674L10.7627 20.498L10.7666 20.5078L10.6055 20.3906L8.2627 22.0938L9.15723 19.3379L6.6543 17.5186L2.54199 20.5078L4.11328 15.6719L0 12.6846H5.08398L6.125 10.1094L3.82617 8.43945H12.7002L15.4414 0L18.1836 8.43945ZM12.4082 19.0811H13.8945L14.5225 17.5449L12.4082 19.0811ZM17.0361 19.0811H18.4727L16.4473 17.6094L17.0361 19.0811ZM21.1367 17.5283L21.7402 15.6719L20.1602 14.5244L21.1367 17.5283ZM9.19531 15.6719L9.77148 17.4463L10.7041 14.5752L9.19531 15.6719ZM8.22461 12.6846H9.66895L7.62305 11.1973L8.22461 12.6846ZM21.2129 12.6846H22.7109L23.334 11.1426L21.2129 12.6846Z" fill="black" fill-opacity="0.5"/>
<path d="M15.4512 3.08301L17.5007 9.39114L15.4513 12.211L15.4512 3.08301Z" fill="url(#paint0_linear_4709_43721)"/>
<path d="M15.4512 3.08301L13.3957 9.39111L15.4512 12.2106V3.08301Z" fill="url(#paint1_linear_4709_43721)"/>
<path d="M6.76953 9.40137L13.4023 9.39522L15.4502 12.2081L6.76953 9.40137Z" fill="url(#paint2_linear_4709_43721)"/>
<path d="M6.7701 9.40172L12.138 13.3008L15.4508 12.2085L6.7701 9.40172Z" fill="url(#paint3_linear_4709_43721)"/>
<path d="M10.116 19.6131L12.1342 13.2949L15.4501 12.2086L10.116 19.6131Z" fill="url(#paint4_linear_4709_43721)"/>
<path d="M10.1172 19.6133L15.4684 15.6913L15.4512 12.2088L10.1172 19.6133Z" fill="url(#paint5_linear_4709_43721)"/>
<path d="M24.1289 9.40137L17.4962 9.39522L15.4508 12.2081L24.1289 9.40137Z" fill="url(#paint6_linear_4709_43721)"/>
<path d="M24.1281 9.40193L18.7602 13.301L15.45 12.2087L24.1281 9.40193Z" fill="url(#paint7_linear_4709_43721)"/>
<path d="M20.7827 19.6134L18.7645 13.2951L15.4512 12.2089L20.7827 19.6134Z" fill="url(#paint8_linear_4709_43721)"/>
<path d="M20.7812 19.6133L15.4301 15.6913L15.4499 12.2088L20.7812 19.6133Z" fill="url(#paint9_linear_4709_43721)"/>
<path d="M6.63086 10.8799L7.51982 13.616L6.6309 14.8391L6.63086 10.8799Z" fill="url(#paint10_linear_4709_43721)"/>
<path d="M6.63086 10.8799L5.73932 13.616L6.63086 14.8389V10.8799Z" fill="url(#paint11_linear_4709_43721)"/>
<path d="M2.86523 13.6201L5.74214 13.6175L6.63045 14.8375L2.86523 13.6201Z" fill="url(#paint12_linear_4709_43721)"/>
<path d="M2.86464 13.62L5.19293 15.3112L6.62985 14.8374L2.86464 13.62Z" fill="url(#paint13_linear_4709_43721)"/>
<path d="M4.31529 18.0495L5.19067 15.3091L6.62892 14.8379L4.31529 18.0495Z" fill="url(#paint14_linear_4709_43721)"/>
<path d="M4.31641 18.0498L6.63745 16.3487L6.63001 14.8381L4.31641 18.0498Z" fill="url(#paint15_linear_4709_43721)"/>
<path d="M10.3945 13.6201L7.51762 13.6175L6.63046 14.8375L10.3945 13.6201Z" fill="url(#paint16_linear_4709_43721)"/>
<path d="M10.3931 13.6207L8.06478 15.3119L6.62899 14.8381L10.3931 13.6207Z" fill="url(#paint17_linear_4709_43721)"/>
<path d="M8.94176 18.0501L8.06638 15.3096L6.62928 14.8384L8.94176 18.0501Z" fill="url(#paint18_linear_4709_43721)"/>
<path d="M8.94141 18.0498L6.62036 16.3487L6.62894 14.8381L8.94141 18.0498Z" fill="url(#paint19_linear_4709_43721)"/>
<path d="M24.2754 10.8799L25.1644 13.616L24.2754 14.8391L24.2754 10.8799Z" fill="url(#paint20_linear_4709_43721)"/>
<path d="M24.2754 10.8799L23.3838 13.616L24.2754 14.8389V10.8799Z" fill="url(#paint21_linear_4709_43721)"/>
<path d="M20.5098 13.6201L23.3867 13.6175L24.275 14.8375L20.5098 13.6201Z" fill="url(#paint22_linear_4709_43721)"/>
<path d="M20.5092 13.62L22.8375 15.3112L24.2744 14.8374L20.5092 13.62Z" fill="url(#paint23_linear_4709_43721)"/>
<path d="M21.9618 18.0495L22.8372 15.3091L24.2754 14.8379L21.9618 18.0495Z" fill="url(#paint24_linear_4709_43721)"/>
<path d="M21.9609 18.0498L24.282 16.3487L24.2745 14.8381L21.9609 18.0498Z" fill="url(#paint25_linear_4709_43721)"/>
<path d="M28.0391 13.6201L25.1622 13.6175L24.275 14.8375L28.0391 13.6201Z" fill="url(#paint26_linear_4709_43721)"/>
<path d="M28.0396 13.6207L25.7113 15.3119L24.2755 14.8381L28.0396 13.6207Z" fill="url(#paint27_linear_4709_43721)"/>
<path d="M26.5882 18.0501L25.7129 15.3096L24.2758 14.8384L26.5882 18.0501Z" fill="url(#paint28_linear_4709_43721)"/>
<path d="M26.5879 18.0498L24.2668 16.3487L24.2754 14.8381L26.5879 18.0498Z" fill="url(#paint29_linear_4709_43721)"/>
<path d="M15.4512 17.3291L16.3401 20.0652L15.4512 21.2883L15.4512 17.3291Z" fill="url(#paint30_linear_4709_43721)"/>
<path d="M15.4512 17.3291L14.5596 20.0652L15.4512 21.2881V17.3291Z" fill="url(#paint31_linear_4709_43721)"/>
<path d="M11.6855 20.0703L14.5625 20.0676L15.4508 21.2877L11.6855 20.0703Z" fill="url(#paint32_linear_4709_43721)"/>
<path d="M11.6849 20.0702L14.0132 21.7614L15.4502 21.2876L11.6849 20.0702Z" fill="url(#paint33_linear_4709_43721)"/>
<path d="M13.1376 24.4997L14.0129 21.7592L15.4512 21.2881L13.1376 24.4997Z" fill="url(#paint34_linear_4709_43721)"/>
<path d="M13.1367 24.499L15.4578 22.7979L15.4503 21.2874L13.1367 24.499Z" fill="url(#paint35_linear_4709_43721)"/>
<path d="M19.2168 20.0703L16.3399 20.0676L15.4527 21.2877L19.2168 20.0703Z" fill="url(#paint36_linear_4709_43721)"/>
<path d="M19.2153 20.0699L16.887 21.7611L15.4513 21.2873L19.2153 20.0699Z" fill="url(#paint37_linear_4709_43721)"/>
<path d="M17.764 24.4993L16.8886 21.7588L15.4515 21.2877L17.764 24.4993Z" fill="url(#paint38_linear_4709_43721)"/>
<path d="M17.7637 24.499L15.4426 22.7979L15.4512 21.2874L17.7637 24.499Z" fill="url(#paint39_linear_4709_43721)"/>
<defs>
<linearGradient id="paint0_linear_4709_43721" x1="15.4512" y1="7.35801" x2="17.5067" y2="7.84489" gradientUnits="userSpaceOnUse">
<stop stop-color="#D3DDFC"/>
<stop offset="1" stop-color="#AEB8D9"/>
</linearGradient>
<linearGradient id="paint1_linear_4709_43721" x1="15.4335" y1="7.45968" x2="13.3957" y2="7.74406" gradientUnits="userSpaceOnUse">
<stop stop-color="#677DC7"/>
<stop offset="1" stop-color="#889BDD"/>
</linearGradient>
<linearGradient id="paint2_linear_4709_43721" x1="15.5034" y1="12.2258" x2="6.76773" y2="9.24899" gradientUnits="userSpaceOnUse">
<stop stop-color="white"/>
<stop offset="1" stop-color="#BAC6EB"/>
</linearGradient>
<linearGradient id="paint3_linear_4709_43721" x1="6.8569" y1="9.65688" x2="15.4508" y2="12.3857" gradientUnits="userSpaceOnUse">
<stop stop-color="#344690"/>
<stop offset="1" stop-color="#6B86DD"/>
</linearGradient>
<linearGradient id="paint4_linear_4709_43721" x1="15.4501" y1="12.0314" x2="10.4532" y2="17.4713" gradientUnits="userSpaceOnUse">
<stop stop-color="#BECDFA"/>
<stop offset="1" stop-color="#7488CD"/>
</linearGradient>
<linearGradient id="paint5_linear_4709_43721" x1="16.3147" y1="14.5444" x2="10.9755" y2="18.4828" gradientUnits="userSpaceOnUse">
<stop stop-color="#9BABDD"/>
<stop offset="1" stop-color="#3852A4"/>
</linearGradient>
<linearGradient id="paint6_linear_4709_43721" x1="19.0912" y1="10.7838" x2="19.936" y2="8.84776" gradientUnits="userSpaceOnUse">
<stop stop-color="#F5F7FF"/>
<stop offset="1" stop-color="#BACBFF"/>
</linearGradient>
<linearGradient id="paint7_linear_4709_43721" x1="23.6186" y1="10.0292" x2="17.913" y2="12.9529" gradientUnits="userSpaceOnUse">
<stop stop-color="#5B75CD"/>
<stop offset="1" stop-color="#AAB8E5"/>
</linearGradient>
<linearGradient id="paint8_linear_4709_43721" x1="16.8865" y1="12.6519" x2="21.5112" y2="20.0054" gradientUnits="userSpaceOnUse">
<stop stop-color="white"/>
<stop offset="1" stop-color="#AEB8D9"/>
</linearGradient>
<linearGradient id="paint9_linear_4709_43721" x1="20.7657" y1="20.0585" x2="15.2372" y2="13.0593" gradientUnits="userSpaceOnUse">
<stop stop-color="#263368"/>
<stop offset="1" stop-color="#7C8DC7"/>
</linearGradient>
<linearGradient id="paint10_linear_4709_43721" x1="6.63089" y1="12.7341" x2="7.52243" y2="12.9453" gradientUnits="userSpaceOnUse">
<stop stop-color="#D3DDFC"/>
<stop offset="1" stop-color="#AEB8D9"/>
</linearGradient>
<linearGradient id="paint11_linear_4709_43721" x1="6.62318" y1="12.7782" x2="5.7393" y2="12.9016" gradientUnits="userSpaceOnUse">
<stop stop-color="#677DC7"/>
<stop offset="1" stop-color="#889BDD"/>
</linearGradient>
<linearGradient id="paint12_linear_4709_43721" x1="6.6535" y1="14.8452" x2="2.86445" y2="13.554" gradientUnits="userSpaceOnUse">
<stop stop-color="white"/>
<stop offset="1" stop-color="#BAC6EB"/>
</linearGradient>
<linearGradient id="paint13_linear_4709_43721" x1="2.90228" y1="13.7307" x2="6.62985" y2="14.9143" gradientUnits="userSpaceOnUse">
<stop stop-color="#344690"/>
<stop offset="1" stop-color="#6B86DD"/>
</linearGradient>
<linearGradient id="paint14_linear_4709_43721" x1="6.62893" y1="14.761" x2="4.46157" y2="17.1206" gradientUnits="userSpaceOnUse">
<stop stop-color="#BECDFA"/>
<stop offset="1" stop-color="#7488CD"/>
</linearGradient>
<linearGradient id="paint15_linear_4709_43721" x1="7.00454" y1="15.8512" x2="4.6887" y2="17.5594" gradientUnits="userSpaceOnUse">
<stop stop-color="#9BABDD"/>
<stop offset="1" stop-color="#3852A4"/>
</linearGradient>
<linearGradient id="paint16_linear_4709_43721" x1="8.20947" y1="14.2198" x2="8.57587" y2="13.38" gradientUnits="userSpaceOnUse">
<stop stop-color="#F5F7FF"/>
<stop offset="1" stop-color="#BACBFF"/>
</linearGradient>
<linearGradient id="paint17_linear_4709_43721" x1="10.1721" y1="13.8927" x2="7.6973" y2="15.1609" gradientUnits="userSpaceOnUse">
<stop stop-color="#5B75CD"/>
<stop offset="1" stop-color="#AAB8E5"/>
</linearGradient>
<linearGradient id="paint18_linear_4709_43721" x1="7.25181" y1="15.0306" x2="9.25778" y2="18.2202" gradientUnits="userSpaceOnUse">
<stop stop-color="white"/>
<stop offset="1" stop-color="#AEB8D9"/>
</linearGradient>
<linearGradient id="paint19_linear_4709_43721" x1="8.93465" y1="18.2429" x2="6.53671" y2="15.2071" gradientUnits="userSpaceOnUse">
<stop stop-color="#263368"/>
<stop offset="1" stop-color="#7C8DC7"/>
</linearGradient>
<linearGradient id="paint20_linear_4709_43721" x1="24.2754" y1="12.7341" x2="25.167" y2="12.9453" gradientUnits="userSpaceOnUse">
<stop stop-color="#D3DDFC"/>
<stop offset="1" stop-color="#AEB8D9"/>
</linearGradient>
<linearGradient id="paint21_linear_4709_43721" x1="24.2677" y1="12.7782" x2="23.3838" y2="12.9016" gradientUnits="userSpaceOnUse">
<stop stop-color="#677DC7"/>
<stop offset="1" stop-color="#889BDD"/>
</linearGradient>
<linearGradient id="paint22_linear_4709_43721" x1="24.298" y1="14.8452" x2="20.509" y2="13.554" gradientUnits="userSpaceOnUse">
<stop stop-color="white"/>
<stop offset="1" stop-color="#BAC6EB"/>
</linearGradient>
<linearGradient id="paint23_linear_4709_43721" x1="20.5468" y1="13.7307" x2="24.2744" y2="14.9143" gradientUnits="userSpaceOnUse">
<stop stop-color="#344690"/>
<stop offset="1" stop-color="#6B86DD"/>
</linearGradient>
<linearGradient id="paint24_linear_4709_43721" x1="24.2754" y1="14.761" x2="22.108" y2="17.1206" gradientUnits="userSpaceOnUse">
<stop stop-color="#BECDFA"/>
<stop offset="1" stop-color="#7488CD"/>
</linearGradient>
<linearGradient id="paint25_linear_4709_43721" x1="24.6491" y1="15.8512" x2="22.3332" y2="17.5594" gradientUnits="userSpaceOnUse">
<stop stop-color="#9BABDD"/>
<stop offset="1" stop-color="#3852A4"/>
</linearGradient>
<linearGradient id="paint26_linear_4709_43721" x1="25.854" y1="14.2198" x2="26.2204" y2="13.38" gradientUnits="userSpaceOnUse">
<stop stop-color="#F5F7FF"/>
<stop offset="1" stop-color="#BACBFF"/>
</linearGradient>
<linearGradient id="paint27_linear_4709_43721" x1="27.8186" y1="13.8927" x2="25.3438" y2="15.1609" gradientUnits="userSpaceOnUse">
<stop stop-color="#5B75CD"/>
<stop offset="1" stop-color="#AAB8E5"/>
</linearGradient>
<linearGradient id="paint28_linear_4709_43721" x1="24.8983" y1="15.0306" x2="26.9043" y2="18.2202" gradientUnits="userSpaceOnUse">
<stop stop-color="white"/>
<stop offset="1" stop-color="#AEB8D9"/>
</linearGradient>
<linearGradient id="paint29_linear_4709_43721" x1="26.5811" y1="18.2429" x2="24.1832" y2="15.2071" gradientUnits="userSpaceOnUse">
<stop stop-color="#263368"/>
<stop offset="1" stop-color="#7C8DC7"/>
</linearGradient>
<linearGradient id="paint30_linear_4709_43721" x1="15.4512" y1="19.1834" x2="16.3427" y2="19.3945" gradientUnits="userSpaceOnUse">
<stop stop-color="#D3DDFC"/>
<stop offset="1" stop-color="#AEB8D9"/>
</linearGradient>
<linearGradient id="paint31_linear_4709_43721" x1="15.4435" y1="19.2275" x2="14.5596" y2="19.3508" gradientUnits="userSpaceOnUse">
<stop stop-color="#677DC7"/>
<stop offset="1" stop-color="#889BDD"/>
</linearGradient>
<linearGradient id="paint32_linear_4709_43721" x1="15.4738" y1="21.2954" x2="11.6848" y2="20.0042" gradientUnits="userSpaceOnUse">
<stop stop-color="white"/>
<stop offset="1" stop-color="#BAC6EB"/>
</linearGradient>
<linearGradient id="paint33_linear_4709_43721" x1="11.7226" y1="20.1809" x2="15.4502" y2="21.3645" gradientUnits="userSpaceOnUse">
<stop stop-color="#344690"/>
<stop offset="1" stop-color="#6B86DD"/>
</linearGradient>
<linearGradient id="paint34_linear_4709_43721" x1="15.4512" y1="21.2112" x2="13.2838" y2="23.5708" gradientUnits="userSpaceOnUse">
<stop stop-color="#BECDFA"/>
<stop offset="1" stop-color="#7488CD"/>
</linearGradient>
<linearGradient id="paint35_linear_4709_43721" x1="15.8249" y1="22.3004" x2="13.509" y2="24.0087" gradientUnits="userSpaceOnUse">
<stop stop-color="#9BABDD"/>
<stop offset="1" stop-color="#3852A4"/>
</linearGradient>
<linearGradient id="paint36_linear_4709_43721" x1="17.0317" y1="20.6699" x2="17.3981" y2="19.8302" gradientUnits="userSpaceOnUse">
<stop stop-color="#F5F7FF"/>
<stop offset="1" stop-color="#BACBFF"/>
</linearGradient>
<linearGradient id="paint37_linear_4709_43721" x1="18.9944" y1="20.342" x2="16.5196" y2="21.6101" gradientUnits="userSpaceOnUse">
<stop stop-color="#5B75CD"/>
<stop offset="1" stop-color="#AAB8E5"/>
</linearGradient>
<linearGradient id="paint38_linear_4709_43721" x1="16.0741" y1="21.4798" x2="18.08" y2="24.6694" gradientUnits="userSpaceOnUse">
<stop stop-color="white"/>
<stop offset="1" stop-color="#AEB8D9"/>
</linearGradient>
<linearGradient id="paint39_linear_4709_43721" x1="17.7569" y1="24.6921" x2="15.359" y2="21.6563" gradientUnits="userSpaceOnUse">
<stop stop-color="#263368"/>
<stop offset="1" stop-color="#7C8DC7"/>
</linearGradient>
</defs>
</svg>
