<?xml version="1.0" encoding="UTF-8"?><svg id="Layer_1" xmlns="http://www.w3.org/2000/svg" viewBox="0 0 53.27 33.27"><defs><style>.cls-1{fill:#fff;}</style></defs><g id="Group_2663"><path id="Path_2628" class="cls-1" d="m26.64,33.27c8.39,0,15.62-2.85,18.89-6.94H7.75c3.27,4.09,10.49,6.94,18.89,6.94"/><rect id="Rectangle_3140" class="cls-1" x="6.07" y="22.68" width="41.12" height="2.21"/><path id="Path_2629" class="cls-1" d="m53.27,11.84c0-6.54-11.93-11.84-26.64-11.84S0,5.3,0,11.84c0,2.82,2.22,5.4,5.89,7.43v1.79h41.49v-1.79c3.69-2.03,5.89-4.61,5.89-7.43m-26.64,6.12c-2.03-.12-3.58-1.85-3.47-3.87-.11-2.03,1.44-3.76,3.47-3.87,2.03.12,3.58,1.85,3.47,3.87.11,2.03-1.44,3.76-3.47,3.87"/></g></svg>