<?xml version="1.0" encoding="UTF-8"?><svg id="Layer_1" xmlns="http://www.w3.org/2000/svg" viewBox="0 0 55 50"><defs><style>.cls-1{fill:#fff;}</style></defs><polygon class="cls-1" points="34.62 28.91 40.44 27.6 42.79 24.46 36.02 26.53 34.62 28.91"/><polygon class="cls-1" points="12.32 24.46 14.67 27.6 20.48 28.91 19.09 26.53 12.32 24.46"/><path class="cls-1" d="m55.16,4.02l-9.21,5.18C41.78,3.92,35.39.46,28.2.25c-.23,0-.47-.02-.7-.02s-.45.01-.67.02c-7.21.2-13.61,3.67-17.79,8.96L-.15,4.02l2.64,5.3,4.67,2.65s0,.02-.01.02c-.17.3-.34.6-.5.91,0,0,0,.02-.01.02l-4.22-2.23,3.13,4.66s0,.01,0,.02c-.99,2.6-1.54,5.41-1.54,8.35,0,12.96,10.54,23.5,23.5,23.5s23.13-10.18,23.48-22.83c0-.22.02-.44.02-.67,0-.24-.01-.47-.02-.7-.08-2.71-.62-5.31-1.55-7.72l3.06-4.57-4.14,2.18s-.02-.04-.03-.05c-.15-.29-.31-.59-.48-.87,0,0,0-.01-.01-.02l4.82-2.66,2.5-5.3Zm-27.66-.79c6.36,0,12.06,2.92,15.82,7.48l-5.82,3.28-6.27,10.67-1.32-1.81s.28-1.88.7-1.95,1.25.63,1.25.63c0,0,.77-1.53.35-1.88-.5-.28-1.04-.47-1.61-.56-.69-.42-1.5-.59-2.3-.49-.81.19-1.51.69-1.95,1.39l-2.38,4.67-6.55-10.67-5.77-3.26c3.76-4.57,9.46-7.5,15.83-7.5Zm20.5,20.5c0,11.3-9.2,20.5-20.5,20.5S7,35.03,7,23.73c0-1.47.16-2.91.46-4.3l1.17,1.82,9.91,4.05-1.79-3.22-8.93-4.01c.13-.44.27-.87.43-1.29l7.64,3.69-2.16-3.83-4.41-2.32c.15-.28.3-.56.46-.83l4.94,2.81,12.89,23.49,12.48-23.49,5.13-2.83c.16.27.31.54.46.82l-4.47,2.36-2.16,3.83,7.71-3.72c.16.45.32.9.45,1.37l-8.84,3.97-1.79,3.22,9.91-4.05,1.09-1.7c.28,1.35.43,2.75.43,4.18Z"/></svg>