<?xml version="1.0" encoding="UTF-8"?><svg id="Layer_1" xmlns="http://www.w3.org/2000/svg" viewBox="0 0 65.66 67.66"><defs><style>.cls-1{fill:#303030;}.cls-2{fill:#ffcd05;}</style></defs><g><polygon class="cls-2" points="36.49 60.33 36.25 59.92 32.83 54 32.83 54 32.83 54 30.31 58.36 29.41 59.92 29.41 59.92 29.18 60.33 27.69 62.91 25.52 66.66 32.83 66.66 32.83 66.66 40.14 66.66 37.98 62.91 36.49 60.33"/><path class="cls-1" d="m32.83,54l3.42,5.92.24.41,1.49,2.58,2.16,3.75h-14.62l2.16-3.75,1.49-2.58.24-.41h0l.9-1.56,2.52-4.36h0s0,0,0,0m0-2l-.87,1.5-2.52,4.36-.9,1.56-.24.41-1.49,2.58-2.16,3.75-.87,1.5h18.09l-.87-1.5-2.16-3.75-1.49-2.58-.24-.41-3.42-5.92-.87-1.5h0Z"/></g><g><polygon class="cls-2" points="29.18 7.33 29.41 7.74 32.83 13.66 32.83 13.66 32.83 13.66 35.35 9.3 36.25 7.74 36.25 7.74 36.49 7.33 37.98 4.75 40.14 1 32.83 1 32.83 1 25.52 1 27.68 4.75 29.18 7.33"/><path class="cls-1" d="m40.14,1l-2.16,3.75-1.49,2.58-.24.41h0l-.9,1.56-2.52,4.36h0s0,0,0,0l-3.42-5.92-.24-.41-1.49-2.58-2.16-3.75h14.62m1.73-1h-18.09l.87,1.5,2.16,3.75,1.49,2.58.24.41,3.42,5.92.87,1.5.87-1.5,2.52-4.36.9-1.56.24-.41,1.49-2.58,2.16-3.75.87-1.5h0Z"/></g><g><path class="cls-2" d="m40.04,13.31c6.19,2.2,11.09,7.14,13.24,13.35l.05-.03,4.34-2.51c-2.68-6.94-8.19-12.47-15.1-15.2l-2.53,4.39Z"/><path class="cls-1" d="m42.57,8.92c6.91,2.73,12.42,8.27,15.1,15.2l-4.34,2.51-.05.03c-2.15-6.22-7.05-11.16-13.24-13.35l2.53-4.39m-.43-1.25l-.43.75-2.53,4.39-.6,1.04,1.13.4c5.87,2.08,10.59,6.84,12.63,12.74l.4,1.15,1.05-.61.05-.03,4.34-2.51.74-.43-.31-.8c-2.78-7.19-8.49-12.94-15.67-15.77l-.8-.32h0Z"/></g><g><path class="cls-2" d="m12.38,26.66c2.15-6.22,7.05-11.16,13.24-13.35l-2.53-4.39c-6.91,2.73-12.42,8.27-15.1,15.2l4.34,2.51.05.03Z"/><path class="cls-1" d="m23.09,8.92l2.53,4.39c-6.19,2.2-11.09,7.14-13.24,13.35l-.05-.03-4.34-2.51c2.68-6.94,8.19-12.47,15.1-15.2m.43-1.25l-.8.32c-7.17,2.83-12.88,8.58-15.67,15.77l-.31.8.74.43,4.34,2.51.05.03,1.05.61.4-1.15c2.03-5.89,6.75-10.65,12.63-12.74l1.13-.4-.6-1.04-2.53-4.39-.43-.75h0Z"/></g><g><path class="cls-2" d="m53.21,40.96c-2.2,6.16-7.11,11.03-13.29,13.18l.11.2,2.42,4.19c6.9-2.68,12.41-8.16,15.14-15.04l-4.26-2.46-.13-.07Z"/><path class="cls-1" d="m53.21,40.96l.13.07,4.26,2.46c-2.73,6.88-8.24,12.35-15.14,15.04l-2.42-4.19-.11-.2c6.18-2.15,11.09-7.02,13.29-13.18m-.54-1.47l-.4,1.13c-2.08,5.83-6.82,10.53-12.68,12.57l-1.14.4.6,1.05.11.2,2.42,4.19.43.74.8-.31c7.15-2.78,12.88-8.47,15.71-15.6l.32-.8-.75-.43-4.26-2.46-.12-.07-1.04-.6h0Z"/></g><g><path class="cls-2" d="m25.63,54.33l.11-.2c-6.18-2.15-11.09-7.02-13.29-13.18l-.13.07-4.26,2.46c2.73,6.88,8.24,12.35,15.14,15.04l2.42-4.19Z"/><path class="cls-1" d="m12.46,40.96c2.2,6.16,7.11,11.03,13.29,13.18l-.11.2-2.42,4.19c-6.9-2.68-12.41-8.16-15.14-15.04l4.26-2.46.13-.07m.54-1.47l-1.04.6-.13.07-4.26,2.46-.75.43.32.8c2.83,7.13,8.55,12.82,15.71,15.6l.8.31.43-.74,2.42-4.19.11-.2.6-1.05-1.14-.4c-5.85-2.04-10.59-6.73-12.68-12.57l-.4-1.13h0Z"/></g><g><polygon class="cls-2" points="58.33 30.18 57.92 30.41 52 33.83 52 33.83 52 33.83 56.36 36.35 57.92 37.25 57.92 37.25 58.33 37.49 60.91 38.98 64.66 41.14 64.66 33.83 64.66 33.83 64.66 26.52 60.91 28.69 58.33 30.18"/><path class="cls-1" d="m64.66,26.52v14.62l-3.75-2.16-2.58-1.49-.41-.24h0s-1.56-.9-1.56-.9l-4.36-2.52,5.92-3.42.41-.24,2.58-1.49,3.75-2.16m1-1.73l-1.5.87-3.75,2.16-2.58,1.49-.41.24-5.92,3.42-1.5.87,1.5.87,4.36,2.52,1.56.9.41.24,2.58,1.49,3.75,2.16,1.5.87v-18.09h0Z"/></g><g><polygon class="cls-2" points="7.33 37.49 7.74 37.25 13.66 33.83 13.66 33.83 13.66 33.83 9.3 31.31 7.74 30.41 7.74 30.41 7.33 30.18 4.75 28.69 1 26.52 1 33.83 1 33.83 1 41.14 4.75 38.98 7.33 37.49"/><path class="cls-1" d="m1,26.52l3.75,2.16,2.58,1.49.41.24h0s1.56.9,1.56.9l4.36,2.52h0,0l-5.92,3.42-.41.24-2.58,1.49-3.75,2.16v-14.62m-1-1.73v18.09l1.5-.87,3.75-2.16,2.58-1.49.41-.24,5.92-3.42,1.5-.87-1.5-.87-4.36-2.52-1.56-.9-.41-.24-2.58-1.49-3.75-2.16-1.5-.87h0Z"/></g></svg>