<?xml version="1.0" encoding="UTF-8"?><svg id="Layer_1" xmlns="http://www.w3.org/2000/svg" viewBox="0 0 22.79 22.7"><defs><style>.cls-1{fill:#18351a;}.cls-2{fill:#5fbb4b;}</style></defs><path class="cls-2" d="m19.33,2.93l-7.94-1.2-7.94,1.2s0,9.56,0,9.85c0,5.7,7.94,8.58,7.94,8.58,0,0,7.95-2.87,7.94-8.58,0-.29,0-9.85,0-9.85Z"/><path class="cls-1" d="m11.39,1.74l7.94,1.2s0,9.56,0,9.85c0,5.7-7.94,8.58-7.94,8.58,0,0-7.95-2.87-7.94-8.58,0-.29,0-9.85,0-9.85l7.94-1.2m0-1.01l-.15.02L3.31,1.94l-.85.13v.86s0,9.56,0,9.85c-.01,6.33,8.25,9.39,8.6,9.52l.16.06h.18c.39,0,3.87-1.38,6.31-3.82,1.75-1.75,2.63-3.69,2.63-5.76,0-.29,0-9.85,0-9.85v-.86l-.85-.13-7.94-1.2-.15-.02h0Z"/></svg>