<svg xmlns="http://www.w3.org/2000/svg" width="52" height="52" viewBox="0 0 52 52">
  <defs>
    <style>
      .cls-1 {
        fill: #fff;
        fill-rule: evenodd;
      }
    </style>
  </defs>
  <path class="cls-1" d="M14.955,51.653L29.846,37.6l3.513,2.614c0.71,0.406,1.541-.1,2.388-0.779L36.024,39.7l-4.539,4.738a0.813,0.813,0,0,0,1.465.135,38.739,38.739,0,0,0,3.3-4.278L36.36,40.4a0.244,0.244,0,0,0,.346,0l0,0,0.3-.285,0.113,0.115a0.133,0.133,0,0,0,.189,0l0,0,0.02-.021,0.021-.02a0.135,0.135,0,0,0,0-.19l0,0-0.115-.114,0.283-.3a0.247,0.247,0,0,0,0-.348l0,0-0.109-.108a38.6,38.6,0,0,0,4.257-3.319,0.82,0.82,0,0,0-.134-1.472L36.818,38.9l-0.268-.278c0.678-.851,1.179-1.686.775-2.4l-2.6-3.531,6.767-7.241-6.854.044s-4.694-2.335-4.728-2.31l-2.636,1.937-0.005-.005a96.839,96.839,0,0,0-9.982-7.041l3.4-6.657,0.186-.352a2.625,2.625,0,0,0-.171-0.376,3.2,3.2,0,0,0-1.017-1.046,11.246,11.246,0,0,0-1.5-.929l-5.306,3.991,0.284,2.438L11.6,13.789l-0.274.295-0.293.276,1.349,1.57-2.426-.285L5.989,20.978a11.315,11.315,0,0,0,.925,1.506,3.2,3.2,0,0,0,1.041,1.022,2.594,2.594,0,0,0,.374.172l0.351-.187L15.3,20.07A97.342,97.342,0,0,0,22.309,30.1l0.005,0.005L11.128,45.464l-0.878,1.223a1.058,1.058,0,0,0-.105.187C10.1,47.977,13.688,52.934,14.955,51.653ZM41.012,23.536s-7.186,2.44-11.266-3.583c-2.053-3.032-2.184-6.658-2.789-9.5a10.115,10.115,0,0,1,.548-5.5s0.029,5.134,4.339,5.805c2.406,0.375-.633-5.953-2.31-7.864A9.458,9.458,0,0,0,25.18.139a8.589,8.589,0,0,1,6.548,1.448c2.708,1.981,6.479,9.634,9.679,8.715,0.85-.244-0.191-1.342-1.184-2.593a7.558,7.558,0,0,1-1.305-2.9,9.971,9.971,0,0,0,4.1,2.838c1.2,0.4,2.992,2.288,3.734,4.21,1.579,4.088-1.592,9.587-1.592,9.587a4.891,4.891,0,0,1-3.508-.587,55.4,55.4,0,0,1-5.538-4.308,21.435,21.435,0,0,0,1.662,3.761A11.159,11.159,0,0,0,41.012,23.536Z"/>
</svg>
