<svg width="52" height="52"><path d=" M 30.585 33.838 L 29.604 35.109 L 28.639 36.346 L 28.599 36.315 L 23.999 42.243 C 24.649 42.075 25.318 41.991 25.99 41.994 C 26.473 41.993 26.955 42.035 27.431 42.12 L 48.522 14.943 L 47.423 12.212 L 34.552 28.748 L 33.314 27.782 L 31.012 28.023 L 27.755 29.595 L 26.769 30.862 L 29.347 32.872 L 30.585 33.838 Z  M 18.206 37.131 C 18.214 37.378 18.248 37.622 18.309 37.861 C 18.375 38.154 18.465 38.44 18.577 38.718 L 15.815 42.27 C 16.989 42.622 18.07 43.231 18.979 44.052 C 19.189 44.225 19.32 44.337 19.42 44.405 L 26.321 35.513 L 25.059 35.67 L 21.282 32.734 Q 20.548 33.626 19.935 34.411 L 19.304 35.222 L 9.989 28.051 L 8.817 29.574 L 18.227 36.818 C 18.209 36.921 18.202 37.026 18.206 37.131 Z  M 49.937 20.438 C 49.66 19.558 49.164 18.088 49.164 18.088 C 49.135 18.004 49.107 17.93 49.078 17.848 L 29.697 42.939 C 30.248 43.262 30.769 43.635 31.253 44.053 C 31.444 44.351 31.774 44.532 32.128 44.532 C 32.482 44.532 32.812 44.351 33.003 44.053 C 34.431 42.721 36.313 41.984 38.266 41.993 C 38.966 41.99 39.663 42.081 40.339 42.264 L 44.706 36.652 C 46.119 34.769 46.965 33.477 48.058 31.969 Q 48.725 30.903 49.337 29.751 C 49.732 29.014 50.076 28.25 50.366 27.466 C 50.634 26.753 50.821 26.012 50.925 25.258 C 51.023 24.598 50.978 23.926 50.794 23.285 Q 50.353 21.758 49.937 20.438 Z  M 25.345 27.103 L 15.86 28.443 L 20.907 23.462 L 10.709 22.891 L 18.942 18.863 L 10.287 9.697 L 25.453 13.062 L 30.09 1.5 L 33.076 10.857 L 39.289 2.928 L 39.335 14.16 L 42.933 12.807 L 39.523 17.683 L 35.865 18.974 L 35.727 15.181 L 32.527 17.403 L 30.241 14.761 L 29.956 18.555 L 25.177 17.01 L 28.691 20.382 L 25.045 20.382 L 27.865 22.316 L 25.326 23.755 L 27.739 24.584 L 25.345 27.103 Z  M 50.545 44.017 C 49.064 44.014 47.64 44.586 46.572 45.612 C 46.012 46.215 45.227 46.557 44.405 46.557 C 43.583 46.557 42.798 46.215 42.238 45.612 C 40.017 43.486 36.515 43.486 34.294 45.612 C 33.735 46.216 32.95 46.559 32.128 46.559 C 31.306 46.559 30.521 46.216 29.962 45.612 C 27.74 43.486 24.238 43.486 22.016 45.612 C 21.457 46.216 20.672 46.559 19.85 46.559 C 19.028 46.559 18.243 46.216 17.684 45.612 C 15.462 43.486 11.96 43.486 9.738 45.612 C 9.179 46.216 8.394 46.559 7.572 46.559 C 6.75 46.559 5.965 46.216 5.406 45.612 C 4.339 44.586 2.915 44.014 1.434 44.017 C 0.919 44.004 0.437 44.271 0.175 44.715 C -0.086 45.159 -0.086 45.71 0.175 46.154 C 0.437 46.598 0.919 46.866 1.434 46.852 C 2.256 46.848 3.042 47.191 3.599 47.797 C 5.821 49.923 9.323 49.923 11.545 47.797 C 12.104 47.194 12.889 46.851 13.711 46.851 C 14.533 46.851 15.318 47.194 15.877 47.797 C 18.099 49.923 21.601 49.923 23.822 47.797 C 24.382 47.195 25.167 46.852 25.989 46.852 C 26.811 46.852 27.596 47.195 28.155 47.797 C 30.376 49.924 33.879 49.924 36.1 47.797 C 36.659 47.194 37.444 46.851 38.266 46.851 C 39.088 46.851 39.872 47.194 40.431 47.797 C 42.653 49.923 46.156 49.923 48.378 47.797 C 48.936 47.191 49.722 46.848 50.545 46.852 C 51.061 46.866 51.542 46.598 51.804 46.154 C 52.065 45.71 52.065 45.159 51.804 44.715 C 51.542 44.271 51.061 44.004 50.545 44.017 Z " fill-rule="evenodd" fill="#FFF"/></svg>