<?xml version="1.0" encoding="UTF-8"?><svg id="Layer_1" xmlns="http://www.w3.org/2000/svg" viewBox="0 0 319.3 181.8"><defs><style>.cls-1{fill:#fff;}</style></defs><path class="cls-1" d="m39.09,83.86l36.88-46.49s12.03,10.49,22.27,11.53,49.08-5.15,49.08-5.15l-19.96,18.98s-16.83,13.16-.1,28.43c8.71,7.96,29.45-.26,29.45-.26l16.24-10.3s6.26-5.22,7.83-5.22,5.52,4.7,5.52,4.7l54.03,47.61s6.15,9.91-2.12,17.22c-5.86,5.18-14.43,0-14.43,0,0,0,2.87,7.04-3.13,12-9.48,7.83-16.17,0-16.17,0,0,0,3.39,7.04-3.39,12.26-6.01,4.62-14.35.26-14.35.26,0,0-.12,9.91-9.13,12-9.01,2.09-13.25-5.22-13.25-5.22l6.62-9.34s5.32-11.99-4.49-20.98c-7.04-6.46-14.67-3.52-14.67-3.52,0,0,2.4-7.73-4.7-14.48-6.03-5.74-16.04-1.96-16.04-1.96,0,0,4.11-8.22-5.48-15.64-6.25-4.84-12.13-.69-12.13-.69,0,0,2.75-9.5-8.02-16.34-12.33-7.83-23.87,7.04-23.87,7.04l-8.26,9.99-34.23-26.42Z"/><path class="cls-1" d="m165.65,37.89l-37.57,37.3s-4.17,11.22,10.43,12.52c14.61,1.3,28.7-14.87,28.7-14.87,0,0,7.04-6.26,13.04-5.74,6,.52,13.72,7.3,13.72,7.3l40.8,37.03,46.7-36.78-33.88-48.12-20.12,12.91s-6.78,3.13-12.26,3.39-32.3-8.61-32.3-8.61c0,0-5.26-1.3-8.91-1.3s-8.35,4.96-8.35,4.96Z"/><rect class="cls-1" x="72.22" y="105.85" width="37.3" height="19.04" rx="9.52" ry="9.52" transform="translate(-55.99 114.94) rotate(-51.6)"/><rect class="cls-1" x="91.79" y="122.53" width="37.3" height="19.04" rx="9.52" ry="9.52" transform="translate(-61.65 136.59) rotate(-51.6)"/><rect class="cls-1" x="111.87" y="139.21" width="37.3" height="19.04" rx="9.52" ry="9.52" transform="translate(-67.11 158.66) rotate(-51.6)"/><rect class="cls-1" x="131.34" y="155.89" width="37.3" height="19.04" rx="9.52" ry="9.52" transform="translate(-72.8 180.23) rotate(-51.6)"/><rect class="cls-1" x="246.24" y="26.13" width="78.26" height="27.39" transform="translate(152.42 -215.81) rotate(54.58)"/><rect class="cls-1" x=".64" y="30.52" width="78.26" height="27.39" transform="translate(99.13 40.51) rotate(128.4)"/></svg>