<?xml version="1.0" encoding="UTF-8"?><svg id="Layer_1" xmlns="http://www.w3.org/2000/svg" viewBox="0 0 22.79 22.7"><defs><style>.cls-1{fill:#362712;}.cls-2{fill:#fed864;}</style></defs><polygon class="cls-2" points="19.83 11.35 12.96 4.5 10.47 6.99 13.07 9.59 3.46 9.59 3.46 13.11 13.07 13.11 10.47 15.71 12.96 18.2 19.83 11.35"/><path class="cls-1" d="m12.96,4.5l6.86,6.85-6.86,6.85-2.49-2.49,2.6-2.6H3.46v-3.52h9.62l-2.6-2.6,2.49-2.49m0-1.41l-.71.71-2.49,2.49-.71.71.71.71.89.89H2.46v5.52h8.2l-.89.89-.71.71.71.71,2.49,2.49.71.71.71-.71,6.86-6.85.71-.71-.71-.71-6.86-6.85-.71-.71h0Z"/></svg>