<?xml version="1.0" encoding="UTF-8"?><svg id="Layer_1" xmlns="http://www.w3.org/2000/svg" viewBox="0 0 151 151"><defs><style>.cls-1{fill:#fff;}.cls-2{fill:none;}</style></defs><g><circle class="cls-2" cx="75.5" cy="75.5" r="63.12"/><g><path d="m75.5,0C33.88,0,0,33.88,0,75.5s33.88,75.5,75.5,75.5,75.5-33.88,75.5-75.5S117.15,0,75.5,0Zm0,147.91C35.58,147.91,3.09,115.45,3.09,75.5S35.58,3.09,75.5,3.09s72.41,32.49,72.41,72.41-32.49,72.41-72.41,72.41Z"/><path d="m75.5,9.28C38.99,9.28,9.28,38.99,9.28,75.5s29.7,66.22,66.22,66.22,66.22-29.7,66.22-66.22S112.01,9.28,75.5,9.28Zm0,129.34c-34.81,0-63.12-28.31-63.12-63.12S40.69,12.38,75.5,12.38s63.12,28.31,63.12,63.12-28.31,63.12-63.12,63.12Z"/></g></g><path class="cls-1" d="m75.5,3.09C35.58,3.09,3.09,35.55,3.09,75.5s32.49,72.41,72.41,72.41,72.41-32.49,72.41-72.41S115.42,3.09,75.5,3.09Zm0,138.62c-36.51,0-66.22-29.7-66.22-66.22S38.99,9.28,75.5,9.28s66.22,29.7,66.22,66.22-29.7,66.22-66.22,66.22Z"/></svg>