<?xml version="1.0" encoding="UTF-8"?><svg id="Layer_1" xmlns="http://www.w3.org/2000/svg" viewBox="0 0 105 95"><defs><style>.cls-1{fill:#fff;}</style></defs><g><path d="m104.52,67.48l-2-4.28-1.41-2.33-1.15-1.87-2.16.33-6.42.95c-6.25-4.5-15.78-7.29-27.7-8.04l-1.76-.11c.08-6.32-.65-14.21-3.06-21.42l-1.9-4.76-.29-.59v-.07l-.03-.1-.03-.1-3.21-6.37-1.47-2.92-.03.03-.05.02-.61-1.21-4.55-9.03-.46-.89-.85-.49-1.11-.62-1.51-.87-.06.03-.79-.54-2.39-1.38-1.54-.85-1.57.79-16.9,8.53-1.6.82-.16,1.81-.26,2.69-.31,3.48-.05.49-.1.95.02.04.36.72.05.09,4.55,9.03.23.46.36.36.26.26-.19.1,1.47,2.92,3.05,6.07.13.26v.07l.07.07.16.33.2.39c2.45,5.06,6,9.54,9.79,13.27-13.95,3.05-21.91,9.32-21.91,17.36v.26l-7.11,1.05-8.02,1.21,6.61,4.73,2.52,1.81,1.08.76,1.31-.2,7.43-1.08c6.55,6.73,20.89,11.03,37.43,11.03,1.54,0,3.08-.03,4.65-.13l1.24,2.4.92,1.77h11.56l-2.42-4.76-.33-.66c15.78-2.86,25.7-9.78,25.7-18.19,0-.98-.16-1.94-.43-2.86l2.42-.36,4.33-.68Z"/><path d="m57.5,22.63l1.18,3.07,1.96,3.94s.13.23.16.33l.03.05.17.31c5.01,10.31,16.6,17.1,19.97,17.1.43,0,.85-.07,1.24-.2.65-.23,1.57-.79,2.13-2.1,1.11-2.63,1.9-12.11-.52-20.65l-1.74-4.76-.16-.3v-.1l-.13-.2-2.03-4.07-1.47-2.92h-.07l-.06.03-2.56-5.08-.46-.89-.85-.49-.72-.39-1.43-.82-.06-.06h.02s-.03,0-.03,0l-.04-.03-1.51-.85-1.54-.85-1.57.79-10.71,5.42-1.64.82-.16,1.81-.16,1.71.08.19-.14,1.55-.07.79-.1.95.43.85,2.56,5.07Z"/></g><g><path class="cls-1" d="m59.62,66.01c-.46.33-1.11.43-1.83.43-1.02,0-2.16-.23-3.21-.43-1.15-.23-2.19-.72-5.44-2.17-7.3,1.15-12.08,3.28-12.08,6.43,0,4.2,9.14,7.58,20.4,7.58s20.4-3.38,20.4-7.58c0-3.68-7.04-6.76-16.37-7.45l-.03.03c-.39.98-1.21,2.72-1.83,3.15Zm5.83,4.17c0,1.58-3.24,2.86-7.24,2.86s-7.24-1.28-7.24-2.86,3.24-2.86,7.24-2.86,7.24,1.28,7.24,2.86Z"/><path class="cls-1" d="m90.66,63.71c-5.53-4.46-14.87-7.42-27.01-8.21l-.03.03c.23,1.48-.16,2.49-.39,3.97,13.29.89,22.89,5.65,22.89,11.13,0,6.11-12.71,11.06-28.29,11.06s-28.26-4.96-28.26-11.06c0-4.4,5.01-7.91,14.51-9.68-1.44-1.08-2.95-2.36-4.72-3.97-12.9,2.59-20.33,7.88-20.33,14.38,0,1.02.23,2.04.65,2.99l-10.51,1.58,2.52,1.81,9.2-1.35c4.98,6.5,19.25,11.23,36.15,11.23,2.26,0,4.45-.1,6.58-.26l2.19,4.33h4.22l-2.39-4.73c15.85-1.97,27.41-8.21,27.41-15.63-.03-2.04-.82-3.94-2.16-5.45l6.97-1.02-1.41-2.33-7.79,1.18Z"/><path class="cls-1" d="m57.03,62.76c.1,0,.2-.03.26-.03,1.24-.46,3.8-20.68-3.11-35.32l-.33-.66s0-.03-.03-.07c-.03-.03-.03-.07-.03-.07l-3.21-6.37.03-.03-23.41,11.85,3.05,6.07c.07.13.13.26.2.39.07.13.2.39.2.39l.16.33c6.91,14.25,23.31,23.5,26.23,23.5Z"/><polygon class="cls-1" points="43.94 7.05 43.53 6.82 41.22 8.37 22.39 17.89 20.53 18.82 20.52 18.9 25.08 27.93 48.49 16.08 43.94 7.05"/><path class="cls-1" d="m63.85,28.41c.03.1.13.26.13.26l.1.23c4.49,9.26,15.13,15.26,17.03,15.26h.16c.82-.3,2.46-13.43-2.03-22.95l-.23-.43v-.1l-1.78-3.52h-.02s-14.83,7.53-14.83,7.53l-.3.16,1.58,3.16.16-.09-.14.13.04.08c.07.1.1.2.13.26Z"/><polygon class="cls-1" points="75.43 13.62 73.12 9.05 71.57 9.78 59.58 15.84 58.23 16.45 60.59 21.13 75.43 13.62"/><polygon class="cls-1" points="67.08 5.27 57.67 10.02 57.46 12.44 69.22 6.48 67.08 5.27"/><polygon class="cls-1" points="35.81 3.19 21.02 10.33 21.45 14.47 40.13 5.27 35.81 3.19"/></g></svg>