<?xml version="1.0" encoding="UTF-8"?><svg id="Layer_1" xmlns="http://www.w3.org/2000/svg" viewBox="0 0 120 89"><defs><style>.cls-1{fill:#fff;}</style></defs><path d="m88.35,53.85l31.05-9.92-20.18,29.95,17.07,4.12-28.31,10.78-16.62-4.4,4.45-7.09-6.82.06-.4-3.39-3.59,4.5-.75-.97,1.18,5.56-5.7-3.87.99,2.53-5.4-.43,2.55,3.4-16.64,3.62L5.91,70.96l21.85-4.03L.82,46.34l35.32,5.05L38.37.3l25.52,45.42,29.34-37.07-4.87,45.19h0Zm-25.04-.96L41.75,14.5l-1.8,41.47-24.53-3.5,21.93,16.76-18.84,3.48,23.23,11.41,9.18-2-4.14-5.52,7.87.63-3.38-8.6,8.16,5.54-2.74-12.89,8.33,10.72,6.41-8.04,1.09,9.37,10.54-.1-5.44,8.68,10.13,2.68,15.04-5.73-10.11-2.44,16.96-25.18-25.93,8.29,4.04-37.53-24.45,30.88h.01Z"/><path class="cls-1" d="m63.31,52.88L41.75,14.5l-1.8,41.47-24.53-3.5,21.93,16.76-18.84,3.48,23.23,11.41,9.18-2-4.14-5.52,7.87.63-3.38-8.6,8.16,5.54-2.74-12.89,8.33,10.72,6.41-8.04,1.09,9.37,10.54-.1-5.44,8.68,10.13,2.68,15.04-5.73-10.11-2.44,16.96-25.18-25.93,8.29,4.04-37.53-24.45,30.88h.01Z"/></svg>