<svg xmlns="http://www.w3.org/2000/svg" width="62" height="39" viewBox="0 0 62 39">
  <defs>
    <style>
      .cls-1 {
        fill: #fff;
        fill-rule: evenodd;
      }
    </style>
  </defs>
  <path class="cls-1" d="M59.981,19.491l-0.389.729H40.531L40.2,19.771l-0.778-.112L38.53,18.426l-4-.392V17.361l-3.334.056v0.616H30.361V16.465l-2.334.172-2.945-.06v0.785H20.414l-0.278.672-1.556-.672L17.524,19.1l0.222,1.569L18.3,21.344h1.445l0.111,0.448,2.89,1.849v0.9l-10.281.672V25.6H9.688l-2.945,5.38v1.625H8.855L8.744,33.729l0.389,0.785,5.557,4.427H46.866l4.612-4.651v-1.4l-0.945-1.457-0.222-1.625-3.5-.28L41.087,24.09H38.364V23.025l1.889-.112,0.278-.616H59.592l0.222,0.785h2.167v-3.59h-2ZM14.523,37.652l-3-2.466,1.5-.841,1.5,1.233v2.073Zm3.39,0.616,0.611-1.737h2.39L21.8,38.268h-3.89Zm6.5,0,0.5-.869H25.8l0.5,0.869H24.415Zm4.335,0,0.611-1.737H31.75l0.889,1.737H28.75Zm18.339-2.69,0.695-.336,0.695,0.392L47.088,37.4V35.578Zm-6.613.953h2.39l0.889,1.737h-3.89Zm-5.168,1.737,0.5-.869H36.7l0.5,0.869H35.307ZM13.4,22.954l-8.445,1.2,4.494-4.472-9.08-.513L7.7,15.555l-7.707-8.23,13.5,3.021L17.622-.035l2.659,8.4,5.532-7.119,0.041,10.085,3.2-1.215L26.02,14.5l-3.257,1.159L22.641,12.25l-2.85,1.995-2.035-2.373L17.5,15.279l-4.254-1.388,3.129,3.028H13.13l2.51,1.736-2.26,1.292,2.148,0.744Z"/>
</svg>
