<?xml version="1.0" encoding="UTF-8"?><svg id="Layer_1" xmlns="http://www.w3.org/2000/svg" viewBox="0 0 30.04 36.52"><defs><style>.cls-1{fill:#fff;}</style></defs><path class="cls-1" d="m25.43,10.69l-2.22,2.03c2.35,2.2,3.83,5.31,3.83,8.77,0,6.63-5.39,12.02-12.02,12.02S3,28.12,3,21.5s5.39-12.02,12.02-12.02v-.08h1.74v-4.81h3V0h-9.65v4.58h2.9v2.04C5.68,7.61,0,13.9,0,21.5c0,8.28,6.74,15.02,15.02,15.02s15.02-6.74,15.02-15.02c0-4.24-1.77-8.07-4.61-10.8Z"/><polygon class="cls-1" points="13.79 22.42 16.16 23.33 22.13 13.9 13.01 19.94 13.79 22.42"/></svg>