<?xml version="1.0" encoding="UTF-8"?><svg id="Layer_1" xmlns="http://www.w3.org/2000/svg" viewBox="0 0 30 22.98"><defs><style>.cls-1{fill:#fff;}</style></defs><path class="cls-1" d="m15,7.29v5.1h-2.27v.22l-3.93-.44v-.52l1.82-.08v-1.06h-.33v-.92l-2.83-.2,3.56-2.33-.34-.61,6.14-3.71-.27-.4-6.5,3.77-.33-.64-2.36,1.49-.21-.33-1.94,1.12.39.97-1.52,1.03.6,1.43.89-.58v1.16l1.52-.06v.57l-5.19.59v.36H.83v2.83h1.7v1.42h2.36c-.06.23-.1.46-.1.71,0,1.49,1.21,2.69,2.69,2.69,1.49,0,2.69-1.21,2.69-2.69,0-.25-.03-.48-.1-.71h1.51v-1.42h3.4v1.42h6.24v-1.98h2.55v.09c-1.14.31-1.98,1.36-1.98,2.6,0,1.49,1.21,2.69,2.69,2.69,1.49,0,2.69-1.21,2.69-2.69,0-.46-.12-.9-.32-1.28h2.31v-2.27h-.85v-2.83l-7.09-1.68v-2.86h-6.24Zm7.06,2.2l7.09,1.68v2.66h.85v3.92h-2.01c.02.15.03.3.03.45,0,1.88-1.48,3.42-3.34,3.52h-.18c-1.9,0-3.45-1.51-3.52-3.4h-6.81v-1.42h-1.75v1.42h-1.42c-.06,1.89-1.61,3.4-3.52,3.4-1.9,0-3.45-1.51-3.52-3.4H1.7v-1.42H0v-4.49h1.08v-.27l2.95-.33-.98-2.33,1.53-1.04-.41-1.02,3.25-1.88.19.31,2.42-1.53.34.67,6.42-3.72,1.19,1.76-6.2,3.74.33.58-2.15,1.4,1.14.08v.86h.33v1.95l.46.05v-.13h2.27v-5.1h7.89v3.03Z"/></svg>