<?xml version="1.0" encoding="UTF-8"?><svg id="Layer_1" xmlns="http://www.w3.org/2000/svg" viewBox="0 0 30 22.98"><defs><style>.cls-1{fill:#fff;}</style></defs><path class="cls-1" d="m16.82,2.76l-6.14,3.71.34.61-3.56,2.33,2.83.2v.92h.33v1.06l-1.82.08v.52l3.93.44v-.22h2.27v-5.1h6.24v2.86l7.09,1.68v2.83h.85v2.27h-2.31c.2.38.32.81.32,1.28,0,1.49-1.21,2.69-2.69,2.69-1.49,0-2.69-1.21-2.69-2.69,0-1.24.84-2.29,1.98-2.6v-.09h-2.55v1.98h-6.24v-1.42h-3.4v1.42h-1.51c.06.23.1.46.1.71,0,1.49-1.21,2.69-2.69,2.69-1.49,0-2.69-1.21-2.69-2.69,0-.25.03-.48.1-.71h-2.36v-1.42H.83v-2.83h1.08v-.36l5.19-.59v-.57l-1.52.06v-1.16l-.89.58-.6-1.43,1.52-1.03-.39-.97,1.94-1.12.21.33,2.36-1.49.33.64,6.5-3.77.27.4Z"/></svg>