<?xml version="1.0" encoding="UTF-8"?><svg id="Layer_1" xmlns="http://www.w3.org/2000/svg" viewBox="0 0 30 15.27"><defs><style>.cls-1{fill:#fff;}</style></defs><path class="cls-1" d="m21.23,3.69l7.08,1.68v2.83h.85v2.27h-2.3c.2.38.32.81.32,1.27,0,1.49-1.2,2.69-2.69,2.69s-2.69-1.2-2.69-2.69c0-1.24.84-2.29,1.98-2.6v-.09h-2.55v1.98h-6.23v-1.42h-3.4v1.42h-1.51c.06.23.09.46.09.71,0,1.49-1.2,2.69-2.69,2.69s-2.69-1.2-2.69-2.69c0-.25.03-.48.09-.71h-2.36v-1.42H.84V3.1h13.03v2.83h1.13V.84h6.23v2.85Z"/></svg>