<?xml version="1.0" encoding="UTF-8"?><svg id="Layer_1" xmlns="http://www.w3.org/2000/svg" viewBox="0 0 30 15.27"><defs><style>.cls-1{fill:#fff;}</style></defs><path class="cls-1" d="m15,.84v5.1h-1.13v-2.83H.84v6.51h1.7v1.42h2.36c-.06.23-.09.46-.09.71,0,1.49,1.2,2.69,2.69,2.69s2.69-1.2,2.69-2.69c0-.25-.03-.48-.09-.71h1.51v-1.42h3.4v1.42h6.23v-1.98h2.55v.09c-1.14.31-1.98,1.36-1.98,2.6,0,1.49,1.2,2.69,2.69,2.69s2.69-1.2,2.69-2.69c0-.46-.12-.9-.32-1.27h2.3v-2.27h-.85v-2.83l-7.08-1.68V.84h-6.23Zm7.07,2.19l7.08,1.68v2.66h.85v3.94h-2.01c.02.14.03.29.03.44,0,1.89-1.48,3.43-3.35,3.52h-.18c-1.91,0-3.46-1.51-3.52-3.39h-6.8v-1.42h-1.72v1.42h-1.42c-.07,1.83-1.52,3.3-3.34,3.39h-.18c-1.91,0-3.46-1.51-3.52-3.39H1.7v-1.42H0V2.27h14.16V0h7.91v3.03Z"/></svg>