<?xml version="1.0" encoding="UTF-8"?><svg id="Layer_1" xmlns="http://www.w3.org/2000/svg" viewBox="0 0 80.02 62.53"><defs><style>.cls-1{fill:#fff;fill-rule:evenodd;}</style></defs><path class="cls-1" d="m77.97,17.71h-18.1v-5.97h-1.86v5.97h-13.99V4.79l-4.01-4.79-4.01,4.79v12.91h-13.99v-5.97h-1.86v5.97H2.05s-2.05.78-2.05,3.42,1.57,5.77,5.48,7.04,25.04,7.63,25.04,7.63c0,0,2.93.39,3.82,1.47.88,1.08,1.37,3.42,1.37,3.42l.98,15.16s-9.59,2.35-10.37,3.13-1.08,2.84-.39,3.33c.68.49,2.74,0,2.74,0h22.7s2.05.49,2.74,0c.68-.49.39-2.54-.39-3.33-.78-.78-10.37-3.13-10.37-3.13l.98-15.16s.49-2.35,1.37-3.42c.88-1.08,3.82-1.47,3.82-1.47,0,0,21.13-6.36,25.04-7.63,3.91-1.27,5.48-4.4,5.48-7.04s-2.05-3.42-2.05-3.42Z"/></svg>