<svg width="81" height="63" viewBox="0 0 81 63" fill="none" xmlns="http://www.w3.org/2000/svg">
<path d="M53.5215 8.28906L70.5166 9.4541L70.4941 11.5176L55.7979 11.4395L58.4609 21.7529L46.9121 25.2168H40.6543L41.9766 29.876L20.6592 35.9561L24.2529 40.9414H29.7061L41.9766 54.3174H47.1816V58.9385L21.6504 59.1816L22.1465 55.1875L24.2529 54.3174L10 33.4727L13.3398 27.3105L25.8779 23.9033L24.6025 21.7988C24.6025 21.7988 18.3328 21.9042 16.1289 21.7988L16.458 12.6709H22.2627L20.999 8.12988L24.6025 3H45L53.5215 8.28906ZM43.0615 38.1279H47.5381L57.6094 49.9199H61.8818V53.9932H44.5049L44.585 49.9199H46.3652L33.3467 34.6758L38.8018 33.2402L43.0615 38.1279Z" fill="white"/>
</svg>
