<?xml version="1.0" encoding="UTF-8"?><svg id="Layer_1" xmlns="http://www.w3.org/2000/svg" xmlns:xlink="http://www.w3.org/1999/xlink" viewBox="0 0 290.9 278.26"><defs><style>.cls-1{fill:#eeba5f;isolation:isolate;}.cls-2{fill:url(#linear-gradient);}</style><linearGradient id="linear-gradient" x1="144.64" y1="271.46" x2="148.23" y2="-5.37" gradientTransform="translate(0 277.89) scale(1 -1)" gradientUnits="userSpaceOnUse"><stop offset=".39" stop-color="#efa90b"/><stop offset=".82" stop-color="#c46f04"/></linearGradient></defs><polygon class="cls-2" points="146.44 13.16 180.2 106.41 281.16 105.68 205.92 174.62 228.79 270.93 146.44 212.19 64.08 270.93 91.09 172.82 10.71 107.68 112 107.32 146.44 13.16"/><path class="cls-1" d="m57.55,278.26l29.19-106.08L0,101.87l109.33-.38L146.45,0l36.41,100.56,108.05-.79-80.85,74.09,24.71,104.02-88.33-63-88.87,63.39h-.02Zm88.87-74.3l74.22,52.94-20.45-86.07,67.67-62.01-91.24.66-30.23-83.5-30.85,84.37-90.59.32,71.9,58.27-24.1,87.58,73.67-52.55h0Z"/></svg>