<?xml version="1.0" encoding="UTF-8"?><svg id="Layer_1" xmlns="http://www.w3.org/2000/svg" viewBox="0 0 78.18 90.98"><defs><style>.cls-1{fill:#fff;fill-rule:evenodd;}</style></defs><path class="cls-1" d="m78.18,67.13c-.75.92-1.44,1.78-2.13,2.64-4.69,5.78-9.39,11.57-14.07,17.36-.19.26-.3.58-.32.9-.04.97-.01,1.95-.01,2.96H24.55c0-.76-.02-1.51,0-2.25.05-.48-.12-.96-.46-1.3-.8-.82-1.47-1.76-2.19-2.65-4.65-5.72-9.3-11.45-13.94-17.17-.11-.14-.21-.3-.33-.46,3.72-.81,7.33-2.07,10.74-3.75,5.59-2.45,11.15-4.97,16.75-7.41,1.48-.64,3.03-1.11,4.54-1.67,2.23-.81,4.67-.82,6.91-.05,3.78,1.26,7.47,2.78,11.04,4.54,4.62,2.15,9.22,4.31,13.86,6.41,1.84.87,3.79,1.48,5.79,1.81.26.04.52.06.91.11Zm-63.16-6.66l1.68-3.47L0,47.09l1.11-1.99,16.78,9.28,2.14-4.6-12.14-7.15,1.1-2.03,17.75,9.71c.36-1.17.72-2.3,1.06-3.44q.42-1.37-.82-2.12c-3.52-2.11-7.03-4.22-10.55-6.32-.17-.1-.34-.22-.57-.36l1.12-1.98c1.82,1,3.59,1.98,5.37,2.96,1.81,1,3.63,1.99,5.42,3.01.52.33,1.14.46,1.75.36,1.62-.26,3.24-.42,4.87-.62.19-.02.37-.07.58-.12v-5.64h-3.77v-.62c0-2.58-.01-5.15.01-7.73.02-.31.14-.6.34-.82,1.67-1.7,3.89-2.76,6.26-2.99v-7.76h-1.86c-1.56,0-3.13,0-4.69,0-.24,0-.48-.05-.69-.16-1.73-1.13-3.45-2.29-5.17-3.43-.07-.03-.14-.06-.21-.08l.09-.15h9.7c0-.65.02-1.25,0-1.84-.04-.34.15-.67.46-.82,1.57-.86,3.3-1.38,5.09-1.54.35-.05.71-.08,1.13-.14V0h2.88v7.8c1.64.41,3.21.72,4.72,1.2,1.94.62,1.92.68,1.93,2.67,0,.18.02.37.03.6h9.6l.03.1c-.13.09-.25.18-.39.26-1.87,1.09-3.73,2.19-5.61,3.26-.24.13-.51.21-.79.21-1.7.02-3.39,0-5.09,0h-.64v7.68c.72.17,1.44.3,2.13.51,1.29.53,2.48,1.26,3.55,2.15.69.42,1.06,1.2.96,2-.06,2.29-.02,4.59-.02,6.88v.67h-3.73v5.7c1.01,0,2,.02,2.99,0,.3-.04.58.15.66.44.98,2.23,1.99,4.45,2.97,6.69.09.31.39.5.71.45,1.92-.02,3.84,0,5.76-.01.28-.05.56.1.68.35,1.83,3.49,3.66,6.98,5.51,10.47.04.08.07.17.16.38-1.57-.42-3.06-.79-4.53-1.2-5.5-1.67-10.85-3.81-15.99-6.4-1.35-.65-2.74-1.24-4.11-1.85-1.86-.89-4.02-.91-5.9-.06-2.87,1.26-5.75,2.5-8.61,3.8-4.01,1.97-8.18,3.63-12.45,4.95-1.31.36-2.66.61-3.99.92l-.08-.15Z"/></svg>