<?xml version="1.0" encoding="UTF-8"?><svg id="Layer_1" xmlns="http://www.w3.org/2000/svg" xmlns:xlink="http://www.w3.org/1999/xlink" viewBox="0 0 294.76 278.26"><defs><style>.cls-1{fill:#78cfe2;}.cls-2{fill:url(#linear-gradient);}</style><linearGradient id="linear-gradient" x1="146.57" y1="6.43" x2="150.16" y2="283.26" gradientUnits="userSpaceOnUse"><stop offset=".39" stop-color="#5bcaea"/><stop offset=".82" stop-color="#1aa7c5"/></linearGradient></defs><polygon class="cls-2" points="148.37 13.16 182.13 106.41 283.09 105.68 207.85 174.62 230.72 270.93 148.37 212.19 66.01 270.93 93.02 172.82 12.64 107.68 113.93 107.32 148.37 13.16"/><path class="cls-1" d="m58.31,281.95l29.58-107.49L0,103.22l110.78-.39L148.39,0l36.89,101.89,109.48-.8-81.92,75.07,25.04,105.4-89.5-63.84-90.05,64.23Zm90.05-75.29l75.2,53.64-20.72-87.21,68.57-62.83-92.45.67-30.63-84.61-31.26,85.49-91.79.32,72.85,59.04-24.42,88.74,74.65-53.25Z"/></svg>