<?xml version="1.0" encoding="UTF-8"?><svg id="Layer_1" xmlns="http://www.w3.org/2000/svg" viewBox="0 0 95.75 67.52"><defs><style>.cls-1{fill:#fff;fill-rule:evenodd;}</style></defs><path class="cls-1" d="m0,67.52v-17.96l20.99-.02v-8h-3.98v3.98H0v-6.4l3.54-3.54h3.48v-2.93h0l3.54-7.09h14.44v-4.04h-7.98v-3.55l7.08-14.43h7.52l.23-1.97c4.4-1.79,9.34-1.75,13.71.12l.23,1.85h7.08l6.12,3.36,8-2.11,1.71,1.72L94.75,0l1,3.78-26.09,7.78-.37,1.74-9.27,2.81-.05,5.38h-6.96v4.04h14.46l3.54,7.09v2.92h3.45l3.54,3.55v6.4h-16.98v-3.97h-4.04v8h21.02s0,17.99,0,17.99h-17.73l-3.54-6.96H20.99l-3.54,6.96H0Z"/></svg>