<svg xmlns="http://www.w3.org/2000/svg" width="113" height="113"><path d="M92.145,75.926c-0.746.923-1.437,1.782-2.132,2.638q-7.041,8.674-14.073,17.355a1.629,1.629,0,0,0-.316.9c-0.04.972-.015,1.948-0.015,2.958H38.517c0-.76-0.02-1.507.007-2.252a1.581,1.581,0,0,0-.462-1.3c-0.8-.821-1.471-1.758-2.194-2.649q-6.972-8.584-13.943-17.17c-0.115-.141-0.214-0.3-0.331-0.457A46.778,46.778,0,0,0,32.336,72.2c5.593-2.448,11.155-4.968,16.75-7.411,1.477-.645,3.032-1.108,4.544-1.674a10.363,10.363,0,0,1,6.909-.05A88.3,88.3,0,0,1,71.58,67.6c4.616,2.147,9.224,4.313,13.863,6.409a21.92,21.92,0,0,0,5.794,1.811C91.5,75.863,91.759,75.883,92.145,75.926ZM28.985,69.269L30.666,65.8l-16.7-9.92,1.11-1.991,16.784,9.282L34,58.57,21.862,51.423l1.1-2.035,17.753,9.708c0.363-1.171.718-2.3,1.065-3.441,0.419-1.373.416-1.372-.824-2.115q-5.273-3.161-10.545-6.324c-0.175-.105-0.345-0.22-0.568-0.363l1.117-1.984c1.818,1,3.593,1.983,5.368,2.964,1.81,1,3.627,1.988,5.422,3.013a2.509,2.509,0,0,0,1.75.361c1.615-.257,3.245-0.415,4.869-0.617,0.186-.023.368-0.073,0.584-0.118V44.83H45.186V44.21c0-2.575-.011-5.151.015-7.726a1.312,1.312,0,0,1,.344-0.821,10.137,10.137,0,0,1,6.263-2.994V24.906H49.952c-1.564,0-3.127.006-4.691-.007a1.336,1.336,0,0,1-.689-0.159c-1.731-1.132-3.448-2.287-5.171-3.432a1.007,1.007,0,0,0-.211-0.08l0.088-.145h9.7c0-.65.023-1.248-0.008-1.843a0.806,0.806,0,0,1,.456-0.815,12.855,12.855,0,0,1,5.087-1.537c0.353-.047.708-0.085,1.13-0.136V8.794h2.875v7.8c1.639,0.409,3.207.716,4.719,1.2,1.941,0.621,1.921.682,1.932,2.666,0,0.183.017,0.367,0.028,0.6h9.6l0.03,0.1c-0.129.088-.254,0.184-0.388,0.262-1.866,1.092-3.73,2.188-5.605,3.263a1.694,1.694,0,0,1-.791.209c-1.7.018-3.391,0.009-5.086,0.009H62.319v7.682c0.719,0.171,1.437.3,2.13,0.515A13.746,13.746,0,0,1,68,35.252a2.041,2.041,0,0,1,.958,2c-0.062,2.292-.021,4.586-0.021,6.88V44.8H65.211v5.7c1.006,0,2,.017,2.99-0.009a0.6,0.6,0,0,1,.663.439c0.979,2.234,1.992,4.452,2.966,6.688a0.639,0.639,0,0,0,.706.453c1.921-.019,3.843-0.005,5.764-0.013a0.633,0.633,0,0,1,.679.353q2.739,5.241,5.508,10.465c0.043,0.081.071,0.17,0.158,0.379-1.573-.416-3.059-0.785-4.531-1.2a99.23,99.23,0,0,1-15.987-6.4c-1.353-.652-2.739-1.236-4.112-1.845a7.02,7.02,0,0,0-5.9-.064c-2.871,1.261-5.752,2.5-8.606,3.8A85.466,85.466,0,0,1,33.059,68.5c-1.314.365-2.659,0.613-3.991,0.915Z" fill="#fff" fill-rule="evenodd"/></svg>