<?xml version="1.0" encoding="UTF-8"?><svg id="Layer_1" xmlns="http://www.w3.org/2000/svg" xmlns:xlink="http://www.w3.org/1999/xlink" viewBox="0 0 339.91 237.73"><defs><style>.cls-1{fill:url(#linear-gradient-2);}.cls-2{fill:url(#linear-gradient-17);}.cls-3{fill:url(#linear-gradient-43);}.cls-4{fill:url(#linear-gradient-15);}.cls-5{fill:url(#linear-gradient-18);}.cls-6{fill:url(#linear-gradient-40);}.cls-7{fill:url(#linear-gradient-28);}.cls-8{fill:url(#linear-gradient-14);}.cls-9{fill:url(#linear-gradient-36);}.cls-10{fill:url(#linear-gradient-20);}.cls-11{fill:url(#linear-gradient-6);}.cls-12{fill:url(#radial-gradient-5);}.cls-13{fill:url(#radial-gradient-4);}.cls-14{fill:#b1d3ef;}.cls-15{fill:url(#linear-gradient-35);}.cls-16{fill:url(#linear-gradient-32);}.cls-17{fill:url(#linear-gradient-11);}.cls-18{fill:url(#linear-gradient-39);}.cls-19{fill:url(#linear-gradient-10);}.cls-20{fill:url(#radial-gradient);}.cls-21{fill:url(#linear-gradient-37);}.cls-22{fill:url(#linear-gradient-16);}.cls-23{fill:url(#linear-gradient-31);}.cls-24{fill:url(#linear-gradient-41);}.cls-25{fill:url(#linear-gradient-21);}.cls-26{fill:url(#linear-gradient-25);}.cls-27{fill:#cea85b;}.cls-28{fill:url(#linear-gradient-5);}.cls-29{fill:url(#linear-gradient-45);}.cls-30{fill:url(#radial-gradient-2);}.cls-31{fill:url(#linear-gradient-34);}.cls-32{fill:none;}.cls-33{fill:url(#radial-gradient-3);}.cls-34{fill:url(#linear-gradient-7);}.cls-35{fill:url(#linear-gradient-24);}.cls-36{fill:url(#linear-gradient-9);}.cls-37{fill:url(#linear-gradient-22);}.cls-38{fill:url(#linear-gradient-42);}.cls-39{fill:url(#linear-gradient-3);}.cls-40{fill:url(#linear-gradient);}.cls-41{fill:url(#linear-gradient-27);}.cls-42{fill:url(#linear-gradient-33);}.cls-43{fill:url(#linear-gradient-38);}.cls-44{fill:url(#linear-gradient-29);}.cls-45{fill:url(#linear-gradient-30);}.cls-46{fill:url(#linear-gradient-23);}.cls-47{fill:url(#linear-gradient-19);}.cls-48{fill:url(#linear-gradient-4);}.cls-49{fill:#091530;}.cls-50{fill:url(#linear-gradient-8);}.cls-51{fill:url(#linear-gradient-44);}.cls-52{fill:url(#linear-gradient-12);}.cls-53{fill:url(#linear-gradient-13);}.cls-54{fill:url(#linear-gradient-26);}</style><linearGradient id="linear-gradient" x1="17.68" y1="95.33" x2="17.74" y2="95.33" gradientTransform="translate(0 237.89) scale(1 -1)" gradientUnits="userSpaceOnUse"><stop offset="0" stop-color="#edac20"/><stop offset=".07" stop-color="#f2b93f"/><stop offset=".14" stop-color="#f6c45b"/><stop offset=".23" stop-color="#facd71"/><stop offset=".32" stop-color="#fdd481"/><stop offset=".42" stop-color="#fed78a"/><stop offset=".57" stop-color="#ffd98d"/><stop offset=".68" stop-color="#fcd68a"/><stop offset=".77" stop-color="#f5ce80"/><stop offset=".84" stop-color="#e8c070"/><stop offset=".9" stop-color="#d6ad5a"/><stop offset=".97" stop-color="#bf953d"/><stop offset="1" stop-color="#b2872d"/></linearGradient><linearGradient id="linear-gradient-2" x1="19.4" y1="96.71" x2="19.58" y2="96.71" gradientTransform="translate(0 237.89) scale(1 -1)" gradientUnits="userSpaceOnUse"><stop offset="0" stop-color="#edac20"/><stop offset=".07" stop-color="#f2b93f"/><stop offset=".14" stop-color="#f6c45b"/><stop offset=".23" stop-color="#facd71"/><stop offset=".32" stop-color="#fdd481"/><stop offset=".42" stop-color="#fed78a"/><stop offset=".57" stop-color="#ffd98d"/><stop offset=".68" stop-color="#fcd68a"/><stop offset=".77" stop-color="#f5ce80"/><stop offset=".84" stop-color="#e8c070"/><stop offset=".9" stop-color="#d6ad5a"/><stop offset=".97" stop-color="#bf953d"/><stop offset="1" stop-color="#b2872d"/></linearGradient><linearGradient id="linear-gradient-3" x1="18.42" y1="95.98" x2="18.58" y2="95.98" gradientTransform="translate(0 237.89) scale(1 -1)" gradientUnits="userSpaceOnUse"><stop offset="0" stop-color="#edac20"/><stop offset=".07" stop-color="#f2b93f"/><stop offset=".14" stop-color="#f6c45b"/><stop offset=".23" stop-color="#facd71"/><stop offset=".32" stop-color="#fdd481"/><stop offset=".42" stop-color="#fed78a"/><stop offset=".57" stop-color="#ffd98d"/><stop offset=".68" stop-color="#fcd68a"/><stop offset=".77" stop-color="#f5ce80"/><stop offset=".84" stop-color="#e8c070"/><stop offset=".9" stop-color="#d6ad5a"/><stop offset=".97" stop-color="#bf953d"/><stop offset="1" stop-color="#b2872d"/></linearGradient><linearGradient id="linear-gradient-4" x1="18.86" y1="96.33" x2="19.05" y2="96.33" gradientTransform="translate(0 237.89) scale(1 -1)" gradientUnits="userSpaceOnUse"><stop offset="0" stop-color="#edac20"/><stop offset=".07" stop-color="#f2b93f"/><stop offset=".14" stop-color="#f6c45b"/><stop offset=".23" stop-color="#facd71"/><stop offset=".32" stop-color="#fdd481"/><stop offset=".42" stop-color="#fed78a"/><stop offset=".57" stop-color="#ffd98d"/><stop offset=".68" stop-color="#fcd68a"/><stop offset=".77" stop-color="#f5ce80"/><stop offset=".84" stop-color="#e8c070"/><stop offset=".9" stop-color="#d6ad5a"/><stop offset=".97" stop-color="#bf953d"/><stop offset="1" stop-color="#b2872d"/></linearGradient><linearGradient id="linear-gradient-5" x1="18.04" y1="95.66" x2="18.16" y2="95.66" gradientTransform="translate(0 237.89) scale(1 -1)" gradientUnits="userSpaceOnUse"><stop offset="0" stop-color="#edac20"/><stop offset=".07" stop-color="#f2b93f"/><stop offset=".14" stop-color="#f6c45b"/><stop offset=".23" stop-color="#facd71"/><stop offset=".32" stop-color="#fdd481"/><stop offset=".42" stop-color="#fed78a"/><stop offset=".57" stop-color="#ffd98d"/><stop offset=".68" stop-color="#fcd68a"/><stop offset=".77" stop-color="#f5ce80"/><stop offset=".84" stop-color="#e8c070"/><stop offset=".9" stop-color="#d6ad5a"/><stop offset=".97" stop-color="#bf953d"/><stop offset="1" stop-color="#b2872d"/></linearGradient><linearGradient id="linear-gradient-6" x1="23.54" y1="99.13" x2="23.73" y2="99.13" gradientTransform="translate(0 237.89) scale(1 -1)" gradientUnits="userSpaceOnUse"><stop offset="0" stop-color="#edac20"/><stop offset=".07" stop-color="#f2b93f"/><stop offset=".14" stop-color="#f6c45b"/><stop offset=".23" stop-color="#facd71"/><stop offset=".32" stop-color="#fdd481"/><stop offset=".42" stop-color="#fed78a"/><stop offset=".57" stop-color="#ffd98d"/><stop offset=".68" stop-color="#fcd68a"/><stop offset=".77" stop-color="#f5ce80"/><stop offset=".84" stop-color="#e8c070"/><stop offset=".9" stop-color="#d6ad5a"/><stop offset=".97" stop-color="#bf953d"/><stop offset="1" stop-color="#b2872d"/></linearGradient><linearGradient id="linear-gradient-7" x1="24.49" y1="99.62" x2="24.86" y2="99.62" gradientTransform="translate(0 237.89) scale(1 -1)" gradientUnits="userSpaceOnUse"><stop offset="0" stop-color="#edac20"/><stop offset=".07" stop-color="#f2b93f"/><stop offset=".14" stop-color="#f6c45b"/><stop offset=".23" stop-color="#facd71"/><stop offset=".32" stop-color="#fdd481"/><stop offset=".42" stop-color="#fed78a"/><stop offset=".57" stop-color="#ffd98d"/><stop offset=".68" stop-color="#fcd68a"/><stop offset=".77" stop-color="#f5ce80"/><stop offset=".84" stop-color="#e8c070"/><stop offset=".9" stop-color="#d6ad5a"/><stop offset=".97" stop-color="#bf953d"/><stop offset="1" stop-color="#b2872d"/></linearGradient><linearGradient id="linear-gradient-8" x1="22.38" y1="98.57" x2="22.67" y2="98.57" gradientTransform="translate(0 237.89) scale(1 -1)" gradientUnits="userSpaceOnUse"><stop offset="0" stop-color="#edac20"/><stop offset=".07" stop-color="#f2b93f"/><stop offset=".14" stop-color="#f6c45b"/><stop offset=".23" stop-color="#facd71"/><stop offset=".32" stop-color="#fdd481"/><stop offset=".42" stop-color="#fed78a"/><stop offset=".57" stop-color="#ffd98d"/><stop offset=".68" stop-color="#fcd68a"/><stop offset=".77" stop-color="#f5ce80"/><stop offset=".84" stop-color="#e8c070"/><stop offset=".9" stop-color="#d6ad5a"/><stop offset=".97" stop-color="#bf953d"/><stop offset="1" stop-color="#b2872d"/></linearGradient><linearGradient id="linear-gradient-9" x1="21.54" y1="98.1" x2="21.85" y2="98.1" gradientTransform="translate(0 237.89) scale(1 -1)" gradientUnits="userSpaceOnUse"><stop offset="0" stop-color="#edac20"/><stop offset=".07" stop-color="#f2b93f"/><stop offset=".14" stop-color="#f6c45b"/><stop offset=".23" stop-color="#facd71"/><stop offset=".32" stop-color="#fdd481"/><stop offset=".42" stop-color="#fed78a"/><stop offset=".57" stop-color="#ffd98d"/><stop offset=".68" stop-color="#fcd68a"/><stop offset=".77" stop-color="#f5ce80"/><stop offset=".84" stop-color="#e8c070"/><stop offset=".9" stop-color="#d6ad5a"/><stop offset=".97" stop-color="#bf953d"/><stop offset="1" stop-color="#b2872d"/></linearGradient><linearGradient id="linear-gradient-10" x1="20.15" y1="97.22" x2="20.34" y2="97.22" gradientTransform="translate(0 237.89) scale(1 -1)" gradientUnits="userSpaceOnUse"><stop offset="0" stop-color="#edac20"/><stop offset=".07" stop-color="#f2b93f"/><stop offset=".14" stop-color="#f6c45b"/><stop offset=".23" stop-color="#facd71"/><stop offset=".32" stop-color="#fdd481"/><stop offset=".42" stop-color="#fed78a"/><stop offset=".57" stop-color="#ffd98d"/><stop offset=".68" stop-color="#fcd68a"/><stop offset=".77" stop-color="#f5ce80"/><stop offset=".84" stop-color="#e8c070"/><stop offset=".9" stop-color="#d6ad5a"/><stop offset=".97" stop-color="#bf953d"/><stop offset="1" stop-color="#b2872d"/></linearGradient><linearGradient id="linear-gradient-11" x1="20.81" y1="97.66" x2="21.08" y2="97.66" gradientTransform="translate(0 237.89) scale(1 -1)" gradientUnits="userSpaceOnUse"><stop offset="0" stop-color="#edac20"/><stop offset=".07" stop-color="#f2b93f"/><stop offset=".14" stop-color="#f6c45b"/><stop offset=".23" stop-color="#facd71"/><stop offset=".32" stop-color="#fdd481"/><stop offset=".42" stop-color="#fed78a"/><stop offset=".57" stop-color="#ffd98d"/><stop offset=".68" stop-color="#fcd68a"/><stop offset=".77" stop-color="#f5ce80"/><stop offset=".84" stop-color="#e8c070"/><stop offset=".9" stop-color="#d6ad5a"/><stop offset=".97" stop-color="#bf953d"/><stop offset="1" stop-color="#b2872d"/></linearGradient><linearGradient id="linear-gradient-12" x1="17.42" y1="95.11" x2="17.5" y2="95.11" gradientTransform="translate(0 237.89) scale(1 -1)" gradientUnits="userSpaceOnUse"><stop offset="0" stop-color="#edac20"/><stop offset=".07" stop-color="#f2b93f"/><stop offset=".14" stop-color="#f6c45b"/><stop offset=".23" stop-color="#facd71"/><stop offset=".32" stop-color="#fdd481"/><stop offset=".42" stop-color="#fed78a"/><stop offset=".57" stop-color="#ffd98d"/><stop offset=".68" stop-color="#fcd68a"/><stop offset=".77" stop-color="#f5ce80"/><stop offset=".84" stop-color="#e8c070"/><stop offset=".9" stop-color="#d6ad5a"/><stop offset=".97" stop-color="#bf953d"/><stop offset="1" stop-color="#b2872d"/></linearGradient><linearGradient id="linear-gradient-13" x1="17.17" y1="94.85" x2="17.19" y2="94.85" gradientTransform="translate(0 237.89) scale(1 -1)" gradientUnits="userSpaceOnUse"><stop offset="0" stop-color="#edac20"/><stop offset=".07" stop-color="#f2b93f"/><stop offset=".14" stop-color="#f6c45b"/><stop offset=".23" stop-color="#facd71"/><stop offset=".32" stop-color="#fdd481"/><stop offset=".42" stop-color="#fed78a"/><stop offset=".57" stop-color="#ffd98d"/><stop offset=".68" stop-color="#fcd68a"/><stop offset=".77" stop-color="#f5ce80"/><stop offset=".84" stop-color="#e8c070"/><stop offset=".9" stop-color="#d6ad5a"/><stop offset=".97" stop-color="#bf953d"/><stop offset="1" stop-color="#b2872d"/></linearGradient><linearGradient id="linear-gradient-14" x1="17.26" y1="94.95" x2="17.31" y2="94.95" gradientTransform="translate(0 237.89) scale(1 -1)" gradientUnits="userSpaceOnUse"><stop offset="0" stop-color="#edac20"/><stop offset=".07" stop-color="#f2b93f"/><stop offset=".14" stop-color="#f6c45b"/><stop offset=".23" stop-color="#facd71"/><stop offset=".32" stop-color="#fdd481"/><stop offset=".42" stop-color="#fed78a"/><stop offset=".57" stop-color="#ffd98d"/><stop offset=".68" stop-color="#fcd68a"/><stop offset=".77" stop-color="#f5ce80"/><stop offset=".84" stop-color="#e8c070"/><stop offset=".9" stop-color="#d6ad5a"/><stop offset=".97" stop-color="#bf953d"/><stop offset="1" stop-color="#b2872d"/></linearGradient><linearGradient id="linear-gradient-15" x1="25.52" y1="100.07" x2="25.94" y2="100.07" gradientTransform="translate(0 237.89) scale(1 -1)" gradientUnits="userSpaceOnUse"><stop offset="0" stop-color="#edac20"/><stop offset=".07" stop-color="#f2b93f"/><stop offset=".14" stop-color="#f6c45b"/><stop offset=".23" stop-color="#facd71"/><stop offset=".32" stop-color="#fdd481"/><stop offset=".42" stop-color="#fed78a"/><stop offset=".57" stop-color="#ffd98d"/><stop offset=".68" stop-color="#fcd68a"/><stop offset=".77" stop-color="#f5ce80"/><stop offset=".84" stop-color="#e8c070"/><stop offset=".9" stop-color="#d6ad5a"/><stop offset=".97" stop-color="#bf953d"/><stop offset="1" stop-color="#b2872d"/></linearGradient><linearGradient id="linear-gradient-16" x1="171.17" y1="200.17" x2="171.17" y2="49.31" gradientUnits="userSpaceOnUse"><stop offset="0" stop-color="#802104"/><stop offset=".35" stop-color="#a73211"/><stop offset=".78" stop-color="#d24620"/><stop offset="1" stop-color="#e34e26"/></linearGradient><linearGradient id="linear-gradient-17" x1="55.5" y1="188.57" x2="125.67" y2="188.57" gradientUnits="userSpaceOnUse"><stop offset="0" stop-color="#213669"/><stop offset="1" stop-color="#4967b0"/></linearGradient><linearGradient id="linear-gradient-18" x1="55.5" y1="181.9" x2="125.67" y2="181.9" gradientUnits="userSpaceOnUse"><stop offset="0" stop-color="#3a7fbd"/><stop offset="1" stop-color="#dcf1fa"/></linearGradient><linearGradient id="linear-gradient-19" x1="16.74" y1="152.66" x2="93.71" y2="152.66" xlink:href="#linear-gradient-17"/><linearGradient id="linear-gradient-20" x1="697.84" y1="858.06" x2="768.02" y2="858.06" gradientTransform="translate(-584.82 -859.41) rotate(11.47) scale(1.13 1)" xlink:href="#linear-gradient-18"/><linearGradient id="linear-gradient-21" x1="54.6" y1="65.22" x2="88.32" y2="65.22" xlink:href="#linear-gradient-17"/><linearGradient id="linear-gradient-22" x1="3789.76" y1="2869.75" x2="3859.94" y2="2869.75" gradientTransform="translate(1940.99 -4209.57) rotate(75.91) scale(.96 .99)" xlink:href="#linear-gradient-18"/><linearGradient id="linear-gradient-23" x1="93.52" y1="61.64" x2="121.14" y2="20.75" gradientUnits="userSpaceOnUse"><stop offset="0" stop-color="#213669"/><stop offset="1" stop-color="#89bde6"/></linearGradient><linearGradient id="linear-gradient-24" x1="1357.55" y1="-4151.09" x2="1409.53" y2="-4151.09" gradientTransform="translate(3521.5 2696.36) rotate(-70.11) scale(.96 .99)" gradientUnits="userSpaceOnUse"><stop offset="0" stop-color="#3a7fbd"/><stop offset="1" stop-color="#fffffc"/></linearGradient><linearGradient id="linear-gradient-25" x1="215.73" x2="285.91" xlink:href="#linear-gradient-17"/><linearGradient id="linear-gradient-26" x1="7763.02" y1="181.9" x2="7833.19" y2="181.9" gradientTransform="translate(8048.93) rotate(-180) scale(1 -1)" xlink:href="#linear-gradient-18"/><linearGradient id="linear-gradient-27" x1="247.69" y1="152.66" x2="324.66" y2="152.66" xlink:href="#linear-gradient-17"/><linearGradient id="linear-gradient-28" x1="7378.59" y1="-674.77" x2="7448.77" y2="-674.77" gradientTransform="translate(8633.74 -859.41) rotate(168.53) scale(1.13 -1)" xlink:href="#linear-gradient-18"/><linearGradient id="linear-gradient-29" x1="253.09" y1="65.22" x2="286.8" y2="65.22" xlink:href="#linear-gradient-17"/><linearGradient id="linear-gradient-30" x1="5734.58" y1="-4664.4" x2="5804.76" y2="-4664.4" gradientTransform="translate(6107.94 -4209.57) rotate(104.09) scale(.96 -.99)" xlink:href="#linear-gradient-18"/><linearGradient id="linear-gradient-31" x1="220.6" y1="41.41" x2="248.11" y2="41.41" xlink:href="#linear-gradient-17"/><linearGradient id="linear-gradient-32" x1="4075.14" y1="3153.42" x2="4127.12" y2="3153.42" gradientTransform="translate(4527.42 2696.36) rotate(-109.89) scale(.96 -.99)" xlink:href="#linear-gradient-18"/><linearGradient id="linear-gradient-33" x1="19653.97" y1="1502.23" x2="19580.17" y2="1428.43" gradientTransform="translate(13005.92 14975.48) rotate(-135)" xlink:href="#linear-gradient-17"/><linearGradient id="linear-gradient-34" x1="13194.22" y1="11966.41" x2="13262.14" y2="11877.83" gradientTransform="translate(13436.99 12089.67) rotate(-180)" gradientUnits="userSpaceOnUse"><stop offset="0" stop-color="#6289c6"/><stop offset=".34" stop-color="#5b7ebf"/><stop offset="1" stop-color="#516eb4"/></linearGradient><linearGradient id="linear-gradient-35" x1="212.23" y1="11966.41" x2="280.15" y2="11877.83" gradientTransform="translate(-113.59 12089.67) scale(1 -1)" gradientUnits="userSpaceOnUse"><stop offset="0" stop-color="#76bbe7"/><stop offset=".62" stop-color="#6496ce"/><stop offset="1" stop-color="#5d86c4"/></linearGradient><linearGradient id="linear-gradient-36" x1="169.53" y1="110" x2="143.83" y2="86.64" gradientUnits="userSpaceOnUse"><stop offset="0" stop-color="#c7d6ed"/><stop offset=".55" stop-color="#e1eaf6"/><stop offset="1" stop-color="#f2f8fc"/></linearGradient><linearGradient id="linear-gradient-37" x1="13279.17" y1="126.8" x2="13324.25" y2="77.41" gradientTransform="translate(13488.81) rotate(-180) scale(1 -1)" gradientUnits="userSpaceOnUse"><stop offset="0" stop-color="#aa92c3"/><stop offset=".34" stop-color="#847eb4"/><stop offset=".78" stop-color="#5967a2"/><stop offset="1" stop-color="#495f9c"/></linearGradient><linearGradient id="linear-gradient-38" x1="13264.99" y1="12369.68" x2="13239.29" y2="12346.32" gradientTransform="translate(13437.6 12500) rotate(-180)" gradientUnits="userSpaceOnUse"><stop offset="0" stop-color="#6054a2"/><stop offset="1" stop-color="#6e58a4"/></linearGradient><linearGradient id="linear-gradient-39" x1="183.7" y1="12386.48" x2="228.78" y2="12337.09" gradientTransform="translate(-51.21 12500) scale(1 -1)" gradientUnits="userSpaceOnUse"><stop offset="0" stop-color="#aa92c3"/><stop offset=".49" stop-color="#9586be"/><stop offset="1" stop-color="#857dba"/></linearGradient><linearGradient id="linear-gradient-40" x1="98.63" y1="117.06" x2="166.55" y2="28.48" gradientUnits="userSpaceOnUse"><stop offset="0" stop-color="#96c5e9"/><stop offset=".41" stop-color="#a4d2ef"/><stop offset="1" stop-color="#b5e1f8"/></linearGradient><linearGradient id="linear-gradient-41" x1="13307.81" y1="117.06" x2="13375.73" y2="28.48" gradientTransform="translate(13550.58) rotate(-180) scale(1 -1)" gradientUnits="userSpaceOnUse"><stop offset="0" stop-color="#76bbe7"/><stop offset=".49" stop-color="#8ad6f4"/><stop offset=".61" stop-color="#7ec1e7"/><stop offset=".86" stop-color="#6696cd"/><stop offset="1" stop-color="#5d86c4"/></linearGradient><linearGradient id="linear-gradient-42" x1="27.47" y1="105.44" x2="78.59" y2="105.44" xlink:href="#linear-gradient-17"/><linearGradient id="linear-gradient-43" x1="2224.2" y1="2504.94" x2="2294.37" y2="2504.94" gradientTransform="translate(237.78 -3472.48) rotate(48.44) scale(1.13 1)" xlink:href="#linear-gradient-18"/><linearGradient id="linear-gradient-44" x1="262.81" y1="105.44" x2="313.94" y2="105.44" xlink:href="#linear-gradient-17"/><linearGradient id="linear-gradient-45" x1="6746.75" y1="-3262.13" x2="6816.92" y2="-3262.13" gradientTransform="translate(7811.14 -3472.48) rotate(131.56) scale(1.13 -1)" xlink:href="#linear-gradient-18"/><radialGradient id="radial-gradient" cx="1901.78" cy="2758.79" fx="1901.78" fy="2758.79" r="50.43" gradientTransform="translate(-2444.3 -238.99) scale(1.37 .11)" gradientUnits="userSpaceOnUse"><stop offset="0" stop-color="#fff"/><stop offset=".1" stop-color="#fff" stop-opacity=".97"/><stop offset=".25" stop-color="#fff" stop-opacity=".9"/><stop offset=".42" stop-color="#fff" stop-opacity=".78"/><stop offset=".61" stop-color="#fff" stop-opacity=".62"/><stop offset=".81" stop-color="#fff" stop-opacity=".41"/><stop offset=".99" stop-color="#fff" stop-opacity=".2"/></radialGradient><radialGradient id="radial-gradient-2" cx="-4107.93" cy="6908.27" fx="-4107.93" fy="6908.27" r="50.43" gradientTransform="translate(1052.18 3632.74) rotate(90.01) scale(.86 .13) skewX(-.46)" gradientUnits="userSpaceOnUse"><stop offset="0" stop-color="#fff" stop-opacity=".4"/><stop offset=".26" stop-color="#fff" stop-opacity=".37"/><stop offset=".62" stop-color="#fff" stop-opacity=".3"/><stop offset=".99" stop-color="#fff" stop-opacity=".2"/></radialGradient><radialGradient id="radial-gradient-3" cx="6989.39" cy="11380.78" fx="6989.39" fy="11380.78" r="50.43" gradientTransform="translate(6277.56 1530.65) rotate(179.99) scale(.86 .13) skewX(.45)" xlink:href="#radial-gradient-2"/><radialGradient id="radial-gradient-4" cx="1405.43" cy="10248.64" fx="1405.43" fy="10248.64" r="50.43" gradientTransform="translate(1362.47 -1625.37) rotate(90) scale(1.21 .12)" xlink:href="#radial-gradient"/><radialGradient id="radial-gradient-5" cx="2044.62" cy="2005.05" fx="2044.62" fy="2005.05" r="23.53" gradientTransform="translate(-2733.73 -2751.29) scale(1.41)" gradientUnits="userSpaceOnUse"><stop offset="0" stop-color="#fff" stop-opacity=".8"/><stop offset=".1" stop-color="#fff" stop-opacity=".77"/><stop offset=".25" stop-color="#fff" stop-opacity=".7"/><stop offset=".42" stop-color="#fff" stop-opacity=".58"/><stop offset=".61" stop-color="#fff" stop-opacity=".42"/><stop offset=".81" stop-color="#fff" stop-opacity=".21"/><stop offset=".99" stop-color="#fff" stop-opacity="0"/></radialGradient></defs><path class="cls-32" d="m23.68,152.13c-.61-.66-1.18-1.31-1.7-1.93.52.62,1.09,1.27,1.7,1.93Z"/><path class="cls-32" d="m21.98,150.2c-.52-.62-.99-1.22-1.43-1.79.43.57.91,1.17,1.43,1.79Z"/><path class="cls-32" d="m19.58,141.12c.18-.13.38-.26.58-.39-.2.13-.4.26-.58.39Z"/><path class="cls-32" d="m18.91,146.08c-.3-.46-.57-.88-.79-1.24.22.37.49.78.79,1.24Z"/><path class="cls-32" d="m17.5,142.74c.05-.05.12-.1.18-.16-.07.06-.13.11-.18.16Z"/><path class="cls-32" d="m18.16,142.18c.08-.07.17-.14.26-.21-.09.07-.18.14-.26.21Z"/><path class="cls-32" d="m18.58,141.85c.09-.07.18-.14.28-.21-.1.07-.19.14-.28.21Z"/><path class="cls-32" d="m17.74,142.52c.09-.08.19-.16.3-.25-.11.09-.21.18-.3.25Z"/><path class="cls-32" d="m19.05,141.5c.11-.08.23-.17.35-.25-.12.09-.24.17-.35.25Z"/><path class="cls-32" d="m17.19,143.03s.04-.04.07-.07c-.03.03-.05.05-.07.07Z"/><path class="cls-32" d="m17.14,143.08s.01,0,.03-.03c-.02.02-.03.03-.03.03Z"/><path class="cls-32" d="m17.31,142.91s.07-.07.11-.1c-.04.04-.08.07-.11.1Z"/><path class="cls-32" d="m22.67,139.25c.28-.15.57-.3.87-.44-.3.15-.59.3-.87.44Z"/><path class="cls-32" d="m20.34,140.61c.15-.1.31-.2.48-.3-.17.1-.32.2-.48.3Z"/><path class="cls-32" d="m24.86,138.19c.22-.1.44-.19.66-.29-.23.09-.44.19-.66.29Z"/><path class="cls-32" d="m23.73,138.71c.25-.12.5-.24.76-.36-.26.12-.51.24-.76.36Z"/><path class="cls-32" d="m21.08,140.15c.15-.09.31-.18.46-.28-.16.09-.31.18-.46.28Z"/><path class="cls-32" d="m21.85,139.7c.17-.1.35-.2.53-.3-.18.1-.36.2-.53.3Z"/><path class="cls-40" d="m17.68,142.58s.04-.03.06-.05c-.02.02-.04.04-.06.05Z"/><path class="cls-1" d="m19.4,141.24c.06-.04.11-.08.17-.12-.06.04-.12.08-.17.12Z"/><path class="cls-39" d="m18.42,141.97s.11-.08.16-.13c-.06.04-.11.08-.16.13Z"/><path class="cls-48" d="m18.86,141.63c.06-.05.12-.09.19-.14-.06.05-.13.09-.19.14Z"/><path class="cls-28" d="m18.04,142.27s.07-.06.11-.09c-.04.03-.08.06-.11.09Z"/><path class="cls-11" d="m23.54,138.8c.06-.03.13-.06.19-.09-.06.03-.13.06-.19.09Z"/><path class="cls-34" d="m24.49,138.35c.12-.06.25-.11.37-.17-.12.06-.25.11-.37.17Z"/><path class="cls-50" d="m22.38,139.4c.1-.05.19-.1.29-.16-.1.05-.19.1-.29.16Z"/><path class="cls-36" d="m21.54,139.87c.1-.06.2-.12.3-.17-.1.06-.2.12-.3.17Z"/><path class="cls-19" d="m20.15,140.73c.06-.04.12-.08.18-.12-.06.04-.12.08-.18.12Z"/><path class="cls-17" d="m20.81,140.31c.09-.05.18-.11.27-.16-.09.05-.18.11-.27.16Z"/><path class="cls-52" d="m17.42,142.81s.05-.04.07-.07c-.03.02-.05.04-.07.07Z"/><path class="cls-53" d="m17.17,143.05l.02-.02-.02.02Z"/><path class="cls-8" d="m17.26,142.96s.03-.03.05-.05c-.02.02-.04.03-.05.05Z"/><path class="cls-4" d="m25.52,137.9c.14-.06.28-.12.42-.17-.14.06-.28.11-.42.17Z"/><rect class="cls-22" x="50.54" y="49.31" width="241.27" height="150.86"/><g><g><path class="cls-2" d="m55.5,187.16s8.67-15.38,34.3-14.98c25.63.39,35.88,18.92,35.88,18.92,0,0-14.19,14.98-36.66,13.8-22.47-1.18-33.51-17.74-33.51-17.74Z"/><path class="cls-49" d="m88.83,172.18c.32,0,.64,0,.96,0,25.63.39,35.88,18.92,35.88,18.92,0,0-13.14,13.86-34.14,13.86-.83,0-1.67-.02-2.52-.07-22.47-1.18-33.51-17.74-33.51-17.74,0,0,8.46-14.99,33.33-14.99m0-3.6h0c-26.67,0-36.09,16.13-36.47,16.82l-1.09,1.93,1.23,1.84c.49.74,12.32,18.08,36.32,19.34.9.05,1.81.07,2.71.07,22.3,0,36.18-14.38,36.76-14.99l1.81-1.92-1.28-2.31c-.46-.83-11.58-20.36-38.97-20.78-.34,0-.68,0-1.02,0h0Z"/></g><path class="cls-5" d="m55.5,187.16s8.67-15.38,34.3-14.98c25.63.39,35.88,18.92,35.88,18.92,0,0-15.97,1.18-35.09,0-19.12-1.18-35.09-3.94-35.09-3.94Z"/></g><g><g><path class="cls-47" d="m16.74,143.58s12.67-13.12,40.98-6.97c28.32,6.15,35.99,26.61,35.99,26.61,0,0-18.71,11.49-43.37,5.28-24.66-6.21-33.6-24.92-33.6-24.92Z"/><path class="cls-49" d="m43.27,134.97c4.27,0,9.08.47,14.46,1.64,28.32,6.15,35.99,26.61,35.99,26.61,0,0-11.59,7.12-28.56,7.12-4.59,0-9.56-.52-14.81-1.84-24.66-6.21-33.6-24.92-33.6-24.92,0,0,8.32-8.61,26.53-8.61m0-3.6h0c-19.52,0-28.74,9.31-29.12,9.71l-1.74,1.8,1.08,2.26c.39.83,9.97,20.31,35.98,26.86,5.14,1.29,10.42,1.95,15.69,1.95,17.78,0,29.93-7.34,30.44-7.65l2.53-1.55-1.04-2.78c-.34-.91-8.71-22.38-38.6-28.87-5.26-1.14-10.38-1.72-15.22-1.72h0Z"/></g><path class="cls-10" d="m16.74,143.58s12.67-13.12,40.98-6.97c28.32,6.15,35.99,26.61,35.99,26.61,0,0-17.93-2.43-38.88-7.89-20.95-5.46-38.09-11.75-38.09-11.75Z"/></g><g><g><path class="cls-25" d="m64.6,31.91s16.83,4.4,22.48,28.48c5.64,24.08-9.78,38.15-9.78,38.15,0,0-17.75-9.66-21.89-30.98-4.14-21.32,9.2-35.65,9.2-35.65Z"/><path class="cls-49" d="m64.6,31.91s16.83,4.4,22.48,28.48c5.64,24.08-9.78,38.15-9.78,38.15,0,0-17.75-9.66-21.89-30.98-4.14-21.32,9.2-35.65,9.2-35.65m-1.17-4.03l-1.47,1.58c-.6.64-14.54,15.94-10.1,38.79,4.41,22.72,22.92,33.03,23.71,33.46l2.26,1.23,1.9-1.73c.69-.63,16.92-15.79,10.86-41.63-6.07-25.9-24.3-30.94-25.07-31.15l-2.08-.54h0Z"/></g><path class="cls-37" d="m64.6,31.91s16.83,4.4,22.48,28.48c5.64,24.08-9.78,38.15-9.78,38.15,0,0-4.89-14.66-8.24-32.84-3.35-18.18-4.45-33.79-4.45-33.79Z"/></g><g><g><path class="cls-46" d="m97.75,64.5s-8.52-9.67-2.01-26.8c6.5-17.12,21.8-19.38,21.8-19.38,0,0,6.9,13.29.62,28.09-6.28,14.81-20.41,18.09-20.41,18.09Z"/><path class="cls-49" d="m117.54,18.32s6.9,13.29.62,28.09c-6.28,14.81-20.41,18.09-20.41,18.09,0,0-8.52-9.67-2.01-26.8,6.5-17.12,21.8-19.38,21.8-19.38m2.01-3.94l-2.54.37c-.71.1-17.47,2.78-24.65,21.67-7.19,18.94,2.27,30,2.68,30.46l1.42,1.62,2.1-.49c.65-.15,15.99-3.88,22.91-20.19,6.87-16.18-.43-30.56-.74-31.16l-1.18-2.28h0Z"/></g><path class="cls-35" d="m97.75,64.5s-8.52-9.67-2.01-26.8c6.5-17.12,21.8-19.38,21.8-19.38,0,0-3.07,11.03-8.53,23.58-5.47,12.56-11.26,22.6-11.26,22.6Z"/></g><g><g><path class="cls-26" d="m285.91,187.16s-8.67-15.38-34.3-14.98c-25.63.39-35.88,18.92-35.88,18.92,0,0,14.19,14.98,36.66,13.8,22.47-1.18,33.51-17.74,33.51-17.74Z"/><path class="cls-49" d="m252.57,172.18c24.88,0,33.33,14.99,33.33,14.99,0,0-11.04,16.56-33.51,17.74-.85.04-1.69.07-2.52.07-21,0-34.14-13.86-34.14-13.86,0,0,10.25-18.53,35.88-18.92.33,0,.65,0,.96,0m0-3.6c-.34,0-.68,0-1.02,0-27.4.42-38.51,19.95-38.97,20.78l-1.28,2.31,1.81,1.92c.58.61,14.46,14.99,36.76,14.99.9,0,1.81-.02,2.71-.07,24-1.26,35.83-18.6,36.32-19.34l1.23-1.84-1.09-1.93c-.39-.69-9.8-16.82-36.47-16.82h0Z"/></g><path class="cls-54" d="m285.91,187.16s-8.67-15.38-34.3-14.98c-25.63.39-35.88,18.92-35.88,18.92,0,0,15.97,1.18,35.09,0,19.12-1.18,35.09-3.94,35.09-3.94Z"/></g><g><g><path class="cls-41" d="m324.66,143.58s-12.67-13.12-40.98-6.97c-28.32,6.15-35.99,26.61-35.99,26.61,0,0,18.71,11.49,43.37,5.28,24.66-6.21,33.6-24.92,33.6-24.92Z"/><path class="cls-49" d="m298.13,134.97c18.21,0,26.53,8.61,26.53,8.61,0,0-8.94,18.71-33.6,24.92-5.25,1.32-10.23,1.84-14.81,1.84-16.96,0-28.56-7.12-28.56-7.12,0,0,7.67-20.46,35.99-26.61,5.38-1.17,10.19-1.64,14.46-1.64m0-3.6c-4.84,0-9.96.58-15.22,1.72-29.89,6.49-38.26,27.96-38.6,28.87l-1.04,2.78,2.53,1.55c.51.31,12.67,7.65,30.44,7.65,5.27,0,10.55-.66,15.69-1.95,26.01-6.55,35.58-26.04,35.98-26.86l1.08-2.26-1.74-1.8c-.38-.4-9.6-9.71-29.12-9.71h0Z"/></g><path class="cls-7" d="m324.66,143.58s-12.67-13.12-40.98-6.97c-28.32,6.15-35.99,26.61-35.99,26.61,0,0,17.93-2.43,38.88-7.89,20.95-5.46,38.09-11.75,38.09-11.75Z"/></g><g><g><path class="cls-44" d="m276.8,31.91s-16.83,4.4-22.48,28.48c-5.64,24.08,9.78,38.15,9.78,38.15,0,0,17.75-9.66,21.89-30.98,4.14-21.32-9.2-35.65-9.2-35.65Z"/><path class="cls-49" d="m276.8,31.91s13.34,14.33,9.2,35.65c-4.14,21.32-21.89,30.98-21.89,30.98,0,0-15.42-14.07-9.78-38.15s22.48-28.48,22.48-28.48m1.17-4.03l-2.08.54c-.77.2-19.01,5.25-25.07,31.15-6.05,25.84,10.17,41,10.86,41.63l1.9,1.73,2.26-1.23c.79-.43,19.29-10.74,23.71-33.46,4.44-22.86-9.5-38.15-10.1-38.79l-1.47-1.58h0Z"/></g><path class="cls-45" d="m276.8,31.91s-16.83,4.4-22.48,28.48c-5.64,24.08,9.78,38.15,9.78,38.15,0,0,4.89-14.66,8.24-32.84,3.35-18.18,4.45-33.79,4.45-33.79Z"/></g><g><g><path class="cls-23" d="m243.65,64.5s8.52-9.67,2.01-26.8c-6.5-17.12-21.8-19.38-21.8-19.38,0,0-6.9,13.29-.62,28.09,6.28,14.81,20.41,18.09,20.41,18.09Z"/><path class="cls-49" d="m223.86,18.32s15.3,2.26,21.8,19.38c6.5,17.12-2.01,26.8-2.01,26.8,0,0-14.13-3.28-20.41-18.09-6.28-14.81.62-28.09.62-28.09m-2.01-3.94l-1.18,2.28c-.31.6-7.61,14.98-.74,31.16,6.92,16.31,22.26,20.04,22.91,20.19l2.1.49,1.42-1.62c.41-.46,9.87-11.52,2.68-30.46-7.17-18.89-23.94-21.56-24.65-21.67l-2.54-.37h0Z"/></g><path class="cls-16" d="m243.65,64.5s8.52-9.67,2.01-26.8c-6.5-17.12-21.8-19.38-21.8-19.38,0,0,3.07,11.03,8.53,23.58,5.47,12.56,11.26,22.6,11.26,22.6Z"/></g><polygon class="cls-27" points="258.95 120.16 236.46 120.16 170.7 41.08 170.7 15.79 258.95 120.16"/><g><polygon class="cls-14" points="170.1 15.79 258.35 120.16 170.1 224.53 81.85 120.16 170.1 15.79"/><path class="cls-49" d="m170.1,15.79l88.25,104.37-88.25,104.37-88.25-104.37L170.1,15.79m0-5.58l-2.75,3.26-88.25,104.37-1.97,2.33,1.97,2.33,88.25,104.37,2.75,3.26,2.75-3.26,88.25-104.37,1.97-2.33-1.97-2.33L172.85,13.46l-2.75-3.26h0Z"/></g><polygon class="cls-42" points="170.7 15.79 258.95 120.16 170.7 120.16 82.45 120.16 170.7 15.79"/><polygon class="cls-31" points="258.95 120.16 235.99 120.16 170.7 199.24 170.7 224.53 258.95 120.16"/><polygon class="cls-15" points="82.45 120.16 105.42 120.16 170.7 199.24 170.7 224.53 82.45 120.16"/><g><polygon class="cls-9" points="112.34 120.16 170.96 120.16 170.96 49.15 112.34 120.16"/><polygon class="cls-21" points="229.79 120.16 171.17 120.16 171.17 49.15 229.79 120.16"/><polygon class="cls-43" points="229.79 120.16 171.17 120.16 171.17 191.17 229.79 120.16"/><polygon class="cls-18" points="112.34 120.16 170.96 120.16 170.96 191.17 112.34 120.16"/></g><polygon class="cls-6" points="82.45 120.16 105.42 120.16 170.7 41.08 170.7 15.79 82.45 120.16"/><polygon class="cls-24" points="258.95 120.16 235.99 120.16 170.7 41.08 170.7 15.79 258.95 120.16"/><g><g><path class="cls-38" d="m27.94,74.51s18.01-2.86,36.94,19.08c18.93,21.94,12.75,42.9,12.75,42.9,0,0-21.86-2.07-37.83-21.86-15.97-19.8-11.86-40.12-11.86-40.12Z"/><path class="cls-49" d="m30.1,74.39c5.33,0,19.76,1.8,34.77,19.2,18.93,21.94,12.75,42.9,12.75,42.9,0,0-21.86-2.07-37.83-21.86-15.97-19.8-11.86-40.12-11.86-40.12,0,0,.77-.12,2.16-.12m0-3.6h0c-1.6,0-2.55.14-2.73.17l-2.47.39-.5,2.45c-.18.9-4.25,22.22,12.59,43.1,16.73,20.74,39.34,23.1,40.29,23.19l2.96.28.84-2.85c.27-.93,6.5-23.12-13.48-46.28-15.92-18.46-31.53-20.45-37.5-20.45h0Z"/></g><path class="cls-3" d="m27.94,74.51s18.01-2.86,36.94,19.08c18.93,21.94,12.75,42.9,12.75,42.9,0,0-12.86-12.72-26.32-29.68-13.46-16.96-23.37-32.3-23.37-32.3Z"/></g><g><g><path class="cls-51" d="m313.46,74.51s-18.01-2.86-36.94,19.08c-18.93,21.94-12.75,42.9-12.75,42.9,0,0,21.86-2.07,37.83-21.86,15.97-19.8,11.86-40.12,11.86-40.12Z"/><path class="cls-49" d="m311.3,74.39c1.39,0,2.16.12,2.16.12,0,0,4.11,20.32-11.86,40.12-15.97,19.8-37.83,21.86-37.83,21.86,0,0-6.18-20.96,12.75-42.9,15.01-17.4,29.44-19.2,34.77-19.2m0-3.6c-5.97,0-21.58,1.99-37.5,20.45-19.98,23.16-13.75,45.34-13.48,46.28l.84,2.85,2.96-.28c.95-.09,23.56-2.45,40.29-23.19,16.84-20.87,12.77-42.2,12.59-43.1l-.5-2.45-2.47-.39c-.18-.03-1.13-.17-2.73-.17h0Z"/></g><path class="cls-29" d="m313.46,74.51s-18.01-2.86-36.94,19.08c-18.93,21.94-12.75,42.9-12.75,42.9,0,0,12.86-12.72,26.32-29.68,13.46-16.96,23.37-32.3,23.37-32.3Z"/></g><g><ellipse class="cls-20" cx="159.35" cy="68.78" rx="84.47" ry="2.41"/><ellipse class="cls-30" cx="156.81" cy="68.78" rx="2.8" ry="52.83" transform="translate(-6.66 119.74) rotate(-41)"/><ellipse class="cls-33" cx="153.72" cy="71.19" rx="53.38" ry="2.77" transform="translate(-11.28 109.56) rotate(-37.94)"/><ellipse class="cls-13" cx="156.81" cy="74.19" rx="2.54" ry="74.61"/><ellipse class="cls-12" cx="156.81" cy="68.78" rx="30.05" ry="36"/></g></svg>