<svg xmlns="http://www.w3.org/2000/svg" viewBox="0 0 232.38 262.11"><path fill="#fff" d="M9.69 94.48C-.47 97.1 0 116.02 0 116.02l27.7 93.77s11.25 40.6 71.17 50.68c59.91 10.08 68.79-29.73 68.79-29.73l63.18-133.77s5.02-12.5-3.01-19.42c-10.47-9.03-20.29 2.92-20.29 2.92l-30.33 61.64s-2.87 4.14-4.84 1.14c-.82-1.25.86-5.94.86-5.94l35.3-80.49s6.36-10.59-5.91-19.67c-11.97-8.86-19.56 3.99-19.56 3.99l-36.73 81.66s-1.85 2.78-4.91.2c-3.36-2.83-1.48-6.09-1.48-6.09l40.33-89.68s3.08-9.98-5.34-16.25c-12.86-9.58-20.41 4.68-20.41 4.68l-38.08 84.67s-.62 5.95-5.79 4.02c-3.87-1.44-1.53-7.31-1.53-7.31l31.37-80.46s2.21-12.19-7.15-15.57c-13.48-4.86-17.69 9.21-17.69 9.21L62.5 135.09s-3.93 8.82-8.69 9.95c-5.34 1.27-26.46-45.63-26.46-45.63s-4.03-8.44-17.66-4.93Z"/></svg>