<svg width="119" height="121" viewBox="0 0 119 121" fill="none" xmlns="http://www.w3.org/2000/svg">
<rect x="75.1875" y="108.82" width="45" height="16.6367" transform="rotate(-45 75.1875 108.82)" fill="white"/>
<path d="M95.6868 82.9999L79.1868 99.4999L70.687 93.5C69.687 93.1667 67.287 90.9 65.6868 88.5C64.0867 86.1 63.6869 83.8333 63.687 82.9999L61.1868 54C61.1868 54 61.1868 48 66.687 48C72.1872 48 72.687 52.5 72.687 52.5L74.187 73C74.187 73 73.8872 76.5 76.687 76.5C78.687 76.5 78.687 73 78.687 73C78.0204 65.3333 76.887 51.9 75.687 49.5C74.487 47.1 71.8537 45.5 70.687 44.9999L61.1868 9C60.6868 6.99998 60.8868 2.59994 65.6868 0.999939C70.4868 -0.600061 73.3535 3.33327 74.1868 5.49994L88.187 47L89.687 73L95.6868 82.9999Z" fill="white"/>
<rect width="45" height="16.6367" transform="matrix(-0.707107 -0.707107 -0.707107 0.707107 43.584 108.82)" fill="white"/>
<path d="M23.0837 82.9999L39.5837 99.4999L48.0835 93.5C49.0835 93.1667 51.4835 90.9 53.0837 88.5C54.6838 86.1 55.0836 83.8333 55.0835 82.9999L57.5837 54C57.5837 54 57.5837 48 52.0835 48C46.5833 48 46.0835 52.5 46.0835 52.5L44.5835 73C44.5835 73 44.8834 76.5 42.0835 76.5C40.0835 76.5 40.0835 73 40.0835 73C40.7501 65.3333 41.8835 51.9 43.0835 49.5C44.2835 47.1 46.9168 45.5 48.0835 44.9999L57.5837 9C58.0837 6.99998 57.8837 2.59994 53.0837 0.999939C48.2837 -0.600061 45.417 3.33327 44.5837 5.49994L30.5835 47L29.0835 73L23.0837 82.9999Z" fill="white"/>
</svg>
