<svg xmlns="http://www.w3.org/2000/svg" viewBox="0 0 318.27 119.97"><path d="M0 31.56C0 21.43 3.88 13.63 11.65 8.18S29.08 0 40.65 0C54.64 0 66.7 2.92 76.84 8.76v18.01c-9.81-6.61-21.37-9.8-34.7-9.58-15.31 0-22.97 4.68-22.97 14.05 0 4.52 2.26 8.29 6.77 11.32 4.52 3.03 10.02 5.54 16.53 7.52 6.5 1.98 13 4.24 19.5 6.78 6.5 2.53 12.01 6.36 16.53 11.48 4.52 5.12 6.77 11.48 6.77 19.09 0 11.35-4.1 19.64-12.31 24.87s-18.7 7.79-31.48 7.68c-15.43 0-29.08-3.36-40.98-10.08V91.39c11.79 7.6 25.01 11.4 39.66 11.4 17.29 0 25.94-4.79 25.94-14.38 0-4.19-1.63-7.77-4.87-10.74C57.98 74.7 53.9 72.44 49 70.9c-4.9-1.54-10.22-3.39-15.95-5.54-5.73-2.15-11.05-4.41-15.95-6.78-4.9-2.37-8.98-5.87-12.23-10.49C1.62 43.46 0 37.95 0 31.56Z" fill="#fff"/><path d="M100.72 82.29c-2.59-7.05-3.88-14.49-3.88-22.31s1.29-15.26 3.88-22.31a62.35 62.35 0 0 1 11.15-19.09c4.85-5.67 11.24-10.19 19.17-13.55 7.93-3.36 16.8-5.04 26.6-5.04s18.65 1.68 26.52 5.04c7.87 3.36 14.27 7.88 19.17 13.55 4.9 5.68 8.65 12.04 11.24 19.09 2.59 7.05 3.88 14.49 3.88 22.31s-1.3 15.26-3.88 22.31a61.415 61.415 0 0 1-11.24 19.09c-4.9 5.68-11.29 10.19-19.17 13.55-7.88 3.36-16.72 5.04-26.52 5.04s-18.67-1.68-26.6-5.04c-7.93-3.36-14.32-7.87-19.17-13.55a61.718 61.718 0 0 1-11.15-19.09Zm87.75 7.77c7.21-8.15 10.82-18.18 10.82-30.07s-3.61-21.92-10.82-30.07c-7.22-8.15-17.49-12.23-30.82-12.23s-23.47 4.08-30.74 12.23S116 48.1 116 59.99s3.64 21.92 10.91 30.07c7.27 8.15 17.52 12.23 30.74 12.23s23.6-4.07 30.82-12.23Z" fill="#fff"/><path d="M233 31.56c0-10.13 3.88-17.93 11.65-23.38S262.08 0 273.65 0c13.99 0 26.05 2.92 36.19 8.76v18.01c-9.81-6.61-21.37-9.8-34.7-9.58-15.31 0-22.97 4.68-22.97 14.05 0 4.52 2.26 8.29 6.77 11.32 4.52 3.03 10.02 5.54 16.53 7.52 6.5 1.98 13 4.24 19.5 6.78 6.5 2.53 12.01 6.36 16.53 11.48 4.52 5.12 6.77 11.48 6.77 19.09 0 11.35-4.1 19.64-12.31 24.87s-18.7 7.79-31.48 7.68c-15.43 0-29.08-3.36-40.98-10.08V91.39c11.79 7.6 25.01 11.4 39.66 11.4 17.29 0 25.94-4.79 25.94-14.38 0-4.19-1.63-7.77-4.87-10.74-3.25-2.97-7.33-5.23-12.23-6.77-4.9-1.54-10.22-3.39-15.95-5.54-5.73-2.15-11.05-4.41-15.95-6.78-4.9-2.37-8.98-5.87-12.23-10.49-3.25-4.63-4.87-10.13-4.87-16.53Z" fill="#fff"/></svg>