<?xml version="1.0" encoding="UTF-8"?><svg id="Layer_1" xmlns="http://www.w3.org/2000/svg" viewBox="0 0 112.52 221.35"><defs><style>.cls-1{fill:#fff;}.cls-2{fill:none;}</style></defs><polygon class="cls-1" points="13.3 136.87 0 133.87 0 82.04 13.3 79.04 13.3 136.87"/><polygon class="cls-1" points="92.03 56.35 90.3 0 74.65 0 72.92 56.35 66.97 56.35 66.97 65.22 72.65 65.22 92.3 65.22 97.98 65.22 97.98 56.35 92.03 56.35"/><g><path class="cls-2" d="m98.24,179.75h-61.83c-2.31,0-4.17,1.87-4.17,4.17s1.87,4.17,4.17,4.17h61.83c2.31,0,4.17-1.87,4.17-4.17s-1.87-4.17-4.17-4.17Z"/><path class="cls-2" d="m98.24,196.97h-61.83c-2.31,0-4.17,1.87-4.17,4.17s1.87,4.17,4.17,4.17h61.83c2.31,0,4.17-1.87,4.17-4.17s-1.87-4.17-4.17-4.17Z"/><rect class="cls-2" x="33.87" y="82.04" width="66.91" height="38.35" rx="6.65" ry="6.65"/><path class="cls-2" d="m98.24,162.53h-61.83c-2.31,0-4.17,1.87-4.17,4.17s1.87,4.17,4.17,4.17h61.83c2.31,0,4.17-1.87,4.17-4.17s-1.87-4.17-4.17-4.17Z"/><path class="cls-1" d="m102.55,69.13H32.11c-5.51,0-9.98,4.47-9.98,9.98v132.26c0,5.51,4.47,9.98,9.98,9.98h70.43c5.51,0,9.98-4.47,9.98-9.98V79.11c0-5.51-4.47-9.98-9.98-9.98Zm-68.67,19.57c0-3.67,2.98-6.65,6.65-6.65h53.61c3.67,0,6.65,2.98,6.65,6.65v25.04c0,3.67-2.98,6.65-6.65,6.65h-53.61c-3.67,0-6.65-2.98-6.65-6.65v-25.04Zm66.16,53.18v.85c0,1.93-1.56,3.49-3.49,3.49h-13.27v-8.09h13.01c2.07,0,3.75,1.68,3.75,3.75Zm-20.32.95c0,6.84-5.55,12.39-12.39,12.39s-12.39-5.55-12.39-12.39,5.55-12.39,12.39-12.39,12.39,5.55,12.39,12.39Zm-28.34-4.7v8.09h-13.27c-1.93,0-3.49-1.56-3.49-3.49v-.85c0-2.07,1.68-3.75,3.75-3.75h13.01Zm46.86,67.18h-61.83c-2.31,0-4.17-1.87-4.17-4.17s1.87-4.17,4.17-4.17h61.83c2.31,0,4.17,1.87,4.17,4.17s-1.87,4.17-4.17,4.17Zm0-17.22h-61.83c-2.31,0-4.17-1.87-4.17-4.17s1.87-4.17,4.17-4.17h61.83c2.31,0,4.17,1.87,4.17,4.17s-1.87,4.17-4.17,4.17Zm0-17.22h-61.83c-2.31,0-4.17-1.87-4.17-4.17s1.87-4.17,4.17-4.17h61.83c2.31,0,4.17,1.87,4.17,4.17s-1.87,4.17-4.17,4.17Z"/></g></svg>