<svg xmlns="http://www.w3.org/2000/svg" viewBox="0 0 208.98 273.66"><path fill="#fff" d="M.02 155.57v73.37s-.59 17.02 4.11 22.89 21.13 8.8 21.13 8.8l103.3 12.91s41.67 2.35 49.89-15.26-1.17-24.07 0-26.41 13.5-9.29 15.26-17.26c1.76-7.98 1.17-14.43 0-20.3-1.17-5.87 7.63-5.28 9.98-18.2 2.55-14.05-5-12.78-4.7-17.61.59-9.39 10.04-2.35 9.98-28.93-.02-9.83-21.56-17.43-55.98-13.33-34.41 4.11-40.28 6.14-43.22-1.04s22.89-44.74 24.65-64.11C136.2 31.73 131.5-1.14 112.13.03 92.76 1.2 96.28 28.79 85.72 46.99 75.15 65.18 15.28 113.9 10 123.29S.02 155.57.02 155.57Z"/></svg>