<svg xmlns="http://www.w3.org/2000/svg" viewBox="0 0 237.35 228.72"><path fill="#fff" fill-rule="evenodd" d="m53.64 168.14 8.16 8.14h16.29l8.13-8.14-24.42-24.45-8.16 8.14v16.32Zm12.21-28.51 24.42 24.45 4.12-4.09-24.42-24.48-4.12 4.12Zm8.13-8.13 24.45 24.45 4.08-4.12-24.43-24.44-4.11 4.12Zm8.16-8.17 24.42 24.49 4.12-4.13-24.46-24.45-4.08 4.09Zm8.13-8.14 24.42 24.44 20.22-19.88 32.58.03 17.59-17.61 4.02-20.76-4.02-4.09h-8.16l-12.25 12.86h-16.29l-8.73-8.78V65.14l12.85-12.26V44.7l-4.12-4.05-20.71 4.05-17.59 17.61v32.62l-19.81 20.25Z"/><path d="m239.88 170.8-5.56-22.36-5.56-22.36-20.06 11.33-20.05 11.33 18.95 8.16c-15.14 33.29-48.7 56.5-87.59 56.5s-72.49-23.24-87.62-56.56l-14.03 6.04c17.47 38.76 56.44 65.83 101.65 65.83s84.14-27.04 101.62-65.77l18.24 7.85Z" fill="#fff"/><path d="M222.71 68.21C205.79 28.17 166.14 0 120.01 0S34.21 28.2 17.29 68.26L0 60.82l5.56 22.36 5.56 22.36 20.05-11.33 20.05-11.33-19.88-8.56c14.57-34.63 48.82-59.01 88.67-59.01s74.07 24.35 88.65 58.94l14.04-6.04Z" fill="#fff"/></svg>