<?xml version="1.0" encoding="UTF-8"?><svg id="Layer_4" xmlns="http://www.w3.org/2000/svg" xmlns:xlink="http://www.w3.org/1999/xlink" viewBox="0 0 30 30"><defs><style>.cls-1{fill:url(#linear-gradient-2);}.cls-2{fill:#a6713c;}.cls-3{fill:#a66f38;opacity:.25;}.cls-3,.cls-4,.cls-5,.cls-6,.cls-7,.cls-8{isolation:isolate;}.cls-4{fill:#a6611e;}.cls-4,.cls-6{opacity:.46;}.cls-9{fill:#bf874c;}.cls-10,.cls-11{fill:#a67c52;}.cls-5{fill:#fff5b0;opacity:.53;}.cls-12{fill:#603813;}.cls-6,.cls-8{fill:#4f2a07;}.cls-11{opacity:.4;}.cls-13{fill:#ed4720;}.cls-7{fill:#965114;opacity:.57;}.cls-14{fill:url(#linear-gradient-3);}.cls-15{fill:url(#linear-gradient);}.cls-8{opacity:.64;}.cls-16{fill:url(#linear-gradient-4);}</style><linearGradient id="linear-gradient" x1="11.85" y1="18.94" x2="28.01" y2="1.54" gradientTransform="translate(3.27 32.65) rotate(-10.8) scale(1 -1)" gradientUnits="userSpaceOnUse"><stop offset="0" stop-color="#f2c785"/><stop offset=".22" stop-color="#edc588"/><stop offset="1" stop-color="#c69c6d"/></linearGradient><linearGradient id="linear-gradient-2" x1="5.65" y1="13.18" x2="21.81" y2="-4.22" xlink:href="#linear-gradient"/><linearGradient id="linear-gradient-3" x1="11.85" y1="18.94" x2="28.01" y2="1.54" xlink:href="#linear-gradient"/><linearGradient id="linear-gradient-4" x1="5.84" y1="22.33" x2="12.72" y2="14.93" gradientTransform="translate(3.27 32.65) rotate(-10.8) scale(1 -1)" gradientUnits="userSpaceOnUse"><stop offset="0" stop-color="#f2c785"/><stop offset=".22" stop-color="#edc588"/><stop offset="1" stop-color="#c69c6d"/></linearGradient></defs><polygon class="cls-10" points="15.47 28.36 16.83 28.51 17.87 27.6 18.43 28.64 19.9 28.8 18.43 25.33 15.47 28.36"/><polygon class="cls-10" points="26.87 14.71 26.77 13.67 25.03 12.68 26.6 11.47 26.5 10.21 23.13 12.09 26.87 14.71"/><polygon class="cls-3" points="8.5 6.88 13.15 5.2 7.35 22.1 4.54 9.09 5.6 6.8 8.5 6.88"/><polygon class="cls-4" points="10.64 5.6 8.3 22.92 7.1 21.48 2.86 9.75 3.93 7.45 10.64 5.6"/><g><path class="cls-15" d="m25.13,11.99l-.35-4.28-4.63-2.86h0s-15.03,2.98-15.03,2.98l-1.68,1.8c.48,1.16,1.6,4.08,4.45,11.62l4.5,5.3,4.55.45,1.43-1.3.76,1.51,5.52.54,1.53-2.99-.94-11.43-1.01-.64.9-.7Z"/><polygon class="cls-1" points="18.25 26.38 17.03 27.51 17.03 27.51 18.25 26.38"/><path class="cls-10" d="m27.22,24.97l-1.96,3.85-6.23-.61h0l.22.52,5.96.58s.1,0,.14,0c.15-.03.28-.12.35-.26l1.96-3.85c.04-.08.06-.18.05-.27l-.88-10.6-.53-.33.91,10.97Z"/><polygon class="cls-10" points="2.27 9.43 2.28 9.43 2.27 9.42 2.27 9.43"/><polygon class="cls-10" points="17.03 27.51 16.54 27.97 11.89 27.51 16.54 27.97 17.03 27.51 17.03 27.51"/><polygon class="cls-10" points="19.03 28.21 19.03 28.21 18.91 27.94 19.03 28.21"/><path class="cls-14" d="m18.8,27.68l6.16.6,1.74-3.42-.93-11.21-.53-.34.94,11.43-1.53,2.99-5.52-.54-.76-1.51-1.43,1.3-4.55-.45-4.5-5.3c-2.84-7.54-3.97-10.46-4.45-11.62l1.68-1.8,15.03-2.99h0s4.63,2.87,4.63,2.87l.35,4.28.47-.37-.35-4.2-5.01-3.1-15.37,3.06-2.02,2.15c.35.84,1.38,3.47,4.59,11.98l4.68,5.52,4.89.48,1.22-1.13.55,1.31Z"/><path class="cls-11" d="m18.8,27.68l6.16.6,1.74-3.42-.93-11.21-.53-.34-1.01-.64-1.02.07,2.09,1.24.89,10.76-1.53,2.99-5.52-.54-.76-1.51-1.43,1.3-4.55-.45-4.5-5.3c-2.84-7.54-3.97-10.46-4.45-11.62l1.68-1.8,15.03-2.99h0s4.63,2.87,4.63,2.87l.29,3.52-1.86,1.53,1.02-.07.9-.7.47-.37-.35-4.2-5.01-3.1-15.37,3.06-2.02,2.15c.35.84,1.38,3.47,4.59,11.98l4.68,5.52,4.89.48,1.22-1.13.55,1.31Z"/><polygon class="cls-10" points="20.35 3.8 20.35 3.79 4.62 6.92 2.27 9.42 2.28 9.43 4.63 6.93 20.35 3.8"/><polygon class="cls-10" points="19.03 28.21 25.25 28.82 19.03 28.21 19.03 28.21"/><polygon class="cls-10" points="26.71 24.87 24.96 28.29 18.8 27.68 18.91 27.94 19.03 28.21 25.25 28.82 27.22 24.97 26.31 14 25.78 13.67 26.71 24.87"/><path class="cls-10" d="m26.24,7.09c-.01-.16-.1-.3-.23-.38l-5.39-3.34c-.11-.07-.27-.08-.36-.07l-15.72,3.13c-.1.02-.2.07-.27.15l-2.31,2.46c-.14.11-.21.3-.17.48.01.07.04.13.07.18.32.69,2.96,7.64,4.69,12.24.02.05.05.1.09.15l4.87,5.74c.08.1.2.16.33.17l4.21.41.49-.45h0l.49-.46-4.89-.48-4.68-5.52C4.25,13,3.21,10.37,2.86,9.53l2.02-2.15,15.37-3.06,5.01,3.1.35,4.2.47-.37.47-.37-.31-3.8Z"/><polygon class="cls-12" points="18.8 27.68 18.8 27.68 18.25 26.38 18.8 27.68"/><polygon class="cls-12" points="18.91 27.94 18.8 27.68 18.8 27.68 18.91 27.94"/></g><path class="cls-7" d="m15.58,17.94c.23,1.2-1.43,2.4-3.19,2.74s-4.39,2.08-4.62.88-.24-8.75,1.2-7.66c2.8,2.12,6.39,2.84,6.62,4.05h0Z"/><polygon class="cls-5" points="2.86 9.75 7.36 10.34 7.63 12.42 2.86 9.75"/><polygon class="cls-6" points="4.62 6.92 2.32 9.68 6.81 9.52 4.62 6.92"/><g><path class="cls-16" d="m7.4,21.09c-.21,0-.41-.11-.5-.3L2.33,10.07c-.07-.16-.05-.35.06-.5.07-.11,3.75-8.2,3.92-8.25.14-.05.4-.06.48.06s2.58,9.48,2.56,9.62l-1.5,9.73c-.05.18-.2.32-.39.36h-.06s-.01,0-.01,0Z"/><path class="cls-2" d="m2.8,9.87L6.27,1.55l.38-.15,2.49,9.51-1.77,9.68L2.8,9.87m-.81-.6c-.21.28-.26.66-.12.99l4.57,10.72c.17.4.56.64.99.61l.12-.02c.37-.07.68-.35.78-.72l1.96-9.86c.08-.28.02-.82-.13-1.05-.17-.24-3.31-9.2-3.31-9.2,0,0-.53-.82-1.04.18-.25.51-3.67,8.14-3.83,8.34Z"/></g><polygon class="cls-8" points="10.32 10.8 9.25 23.94 7.56 22 10.32 10.8"/><g><path class="cls-9" d="m13.29,13.78c.93,1.62,2.74,1.9,4.35,2.15,1.27.2,2.46.38,2.93,1.15.46.77-.01,1.91-.72,2.52-.21.18-.44.34-.69.49l1.83,1.16c.06-.05.12-.09.18-.15,1.32-1.16,2.17-3.31,1.12-5.05-.95-1.58-2.75-1.86-4.33-2.11-1.53-.24-2.49-.43-2.92-1.16-.4-.7-.06-1.71.43-2.51l-2.06-.38c-.66,1.4-.72,2.79-.11,3.88h0Z"/><path class="cls-9" d="m18.43,22.58l-.86-1.82c-.35.12-.71.22-1.09.33l-.1.02c-2.02.59-4.14,1.31-6.02,2.37l1.16,1.63c1.65-.9,3.56-1.54,5.51-2.1.44-.13.92-.27,1.38-.43h0Z"/></g><polygon class="cls-13" points="14.99 7.69 17.36 8.36 16 11.16 17.78 11.18 18.85 9.08 21.09 9.85 22.01 8.55 19.5 7.77 20.63 5.67 19.28 5.09 18.22 7.24 15.68 5.96 14.99 7.69"/></svg>