<?xml version="1.0" encoding="UTF-8"?><svg id="Layer_4" xmlns="http://www.w3.org/2000/svg" xmlns:xlink="http://www.w3.org/1999/xlink" viewBox="0 0 30 30"><defs><style>.cls-1{fill:url(#linear-gradient-2);}.cls-2{fill:#fce5d3;}.cls-3{fill:url(#linear-gradient-5);}.cls-4{fill:none;}.cls-5{fill:url(#linear-gradient-3);}.cls-6{fill:url(#linear-gradient);}.cls-7{fill:url(#linear-gradient-4);}</style><linearGradient id="linear-gradient" x1="-3284.72" y1="627.5" x2="-3284.72" y2="626.48" gradientTransform="translate(98556.8 18824.84) scale(30 -30)" gradientUnits="userSpaceOnUse"><stop offset="0" stop-color="#ccaa56"/><stop offset="1" stop-color="#ba530d"/></linearGradient><linearGradient id="linear-gradient-2" x1="15.33" y1="30.67" x2="14.91" y2="3.64" gradientTransform="translate(0 29.89) scale(1 -1)" gradientUnits="userSpaceOnUse"><stop offset="0" stop-color="#a66b2b"/><stop offset="1" stop-color="#382213"/></linearGradient><linearGradient id="linear-gradient-3" x1="15.3" y1="29.03" x2="14.93" y2="4.81" gradientTransform="translate(0 29.89) scale(1 -1)" xlink:href="#linear-gradient"/><linearGradient id="linear-gradient-4" x1="15.27" y1="27.44" x2="14.95" y2="6.28" xlink:href="#linear-gradient-2"/><linearGradient id="linear-gradient-5" x1="15.06" y1="19.85" x2="15.12" y2="9.73" gradientTransform="translate(0 29.89) scale(1 -1)" xlink:href="#linear-gradient"/></defs><g id="Group_27"><circle id="Ellipse_6" class="cls-6" cx="15.09" cy="15" r="15"/></g><g id="Group_27-2"><g id="Ellipse_6-2"><circle class="cls-1" cx="15.09" cy="14.98" r="13.52"/></g></g><g id="Group_27-2-2"><g id="Ellipse_6-2-2"><circle class="cls-5" cx="15.09" cy="14.98" r="12.12"/></g></g><g id="Group_27-2-3"><g id="Ellipse_6-2-3"><circle class="cls-7" cx="15.09" cy="14.79" r="10.58"/></g></g><g><path class="cls-4" d="m18.26,13.29c-.5-.27-2.38.1-2.58.23-.2.13-.23.85,0,1.5.23.65,1.96,1.53,2.97,1.18,1.02-.36.79-2.25-.39-2.91h0Z"/><path class="cls-4" d="m13.69,17.87s-.29.64.21.43,1.16-.69,1.16-.69c0,0,.76.85,1.02.48.25-.38-1.02-2.72-1.02-2.72,0,0-1.38,2.5-1.38,2.5Z"/><path class="cls-4" d="m14.2,15.02c.23-.65.2-1.38,0-1.5-.2-.14-2.09-.5-2.58-.23-1.18.66-1.4,2.55-.39,2.91s2.74-.52,2.97-1.18h0Z"/><path class="cls-3" d="m20.16,15.91c-.07-.36-.29-.52-.29-.52h0s.33-2.41-.15-4.09c-.49-1.7-1.75-3.08-4.4-3.07-2.68,0-4.46,1.03-5.02,3.21-.66,2.56-.06,4.25-.06,4.25,0,0-.36.68,0,1.6.36.91,1.27.97,1.27.97,0,0,.46.02.68.22.23.21.59,1.57.59,1.57,0,0,.27.08.67.17l.1-.92.25.99c.38.08.83.15,1.24.18.22.02.44,0,.67-.02l.11-.77.38.7c.58-.1,1.03-.25,1.03-.25v-.85s-.13-.44.26-.82c.39-.38,1.08-.26,1.08-.26,0,0,1.04-.23,1.27-.68.23-.46.39-1.27.32-1.63v.02Zm-8.93.29c-1.01-.36-.79-2.25.39-2.91.5-.27,2.38.09,2.58.23.2.13.23.85,0,1.5-.23.65-1.96,1.53-2.97,1.18h0Zm4.85,1.88c-.26.38-1.02-.48-1.02-.48,0,0-.66.48-1.16.69-.5.21-.21-.43-.21-.43l1.38-2.5s1.27,2.34,1.02,2.72Zm2.57-1.89c-1.01.36-2.74-.52-2.97-1.18-.23-.65-.2-1.38,0-1.5.2-.13,2.09-.5,2.58-.23,1.18.66,1.4,2.55.39,2.91h0Z"/></g><ellipse class="cls-2" cx="12.49" cy="10.43" rx="1.33" ry=".76" transform="translate(-3.77 9.79) rotate(-37.63)"/></svg>