<?xml version="1.0" encoding="UTF-8"?><svg id="Layer_1" xmlns="http://www.w3.org/2000/svg" viewBox="0 0 1024 1017.78"><defs><style>.cls-1{fill:#fff;}</style></defs><polygon class="cls-1" points="304.57 273.26 663.07 741.96 717.99 741.96 363.5 273.26 304.57 273.26"/><path class="cls-1" d="m512,0C230.95,0,3.11,227.84,3.11,508.89s227.84,508.89,508.89,508.89,508.89-227.84,508.89-508.89S793.05,0,512,0Zm123.72,801.28l-156.21-204.24-178.74,204.24h-99.17l231.59-264.7L188.83,217.06h204.51l141.2,186.68,163.31-186.68h99.11l-216.52,247.47,254.72,336.75h-199.45Z"/><path class="cls-1" d="m717.99,741.96h-54.92l-358.5-468.7h58.93l354.49,468.7Z"/></svg>