<?xml version="1.0" encoding="UTF-8"?><svg id="Layer_1" xmlns="http://www.w3.org/2000/svg" xmlns:xlink="http://www.w3.org/1999/xlink" viewBox="0 0 149.52 149.2"><defs><style>.cls-1{fill:url(#radial-gradient);}.cls-2{fill:url(#radial-gradient-2);}</style><radialGradient id="radial-gradient" cx="-150.27" cy="-147.63" fx="-237.71" fy="-147.63" r="264.45" gradientTransform="translate(0 -54.25) scale(1 1.54)" gradientUnits="userSpaceOnUse"><stop offset="0" stop-color="#fff" stop-opacity="0"/><stop offset=".47" stop-color="#fff" stop-opacity="0"/><stop offset=".64" stop-color="#fff" stop-opacity=".03"/><stop offset=".76" stop-color="#fff" stop-opacity=".08"/><stop offset=".79" stop-color="#fff" stop-opacity=".1"/><stop offset=".83" stop-color="#fff" stop-opacity=".06"/><stop offset=".9" stop-color="#fff" stop-opacity=".01"/><stop offset=".97" stop-color="#fff" stop-opacity="0"/></radialGradient><radialGradient id="radial-gradient-2" cx="201.2" cy="97.39" fx="201.2" fy="97.39" r="95.89" gradientTransform="translate(-73.01 -6.44) scale(.73 .83)" gradientUnits="userSpaceOnUse"><stop offset="0" stop-color="#fff" stop-opacity="0"/><stop offset=".08" stop-color="#fff" stop-opacity=".28"/><stop offset=".16" stop-color="#fff" stop-opacity=".54"/><stop offset=".24" stop-color="#fff" stop-opacity=".74"/><stop offset=".3" stop-color="#fff" stop-opacity=".88"/><stop offset=".35" stop-color="#fff" stop-opacity=".97"/><stop offset=".39" stop-color="#fff"/></radialGradient></defs><path class="cls-1" d="m-205.34-626.75c-14.69,0-29.12,1.29-43.23,3.76C-106.43-598.18,2.67-452.89,2.67-277.34S-106.43,43.49-248.57,68.31c14.11,2.46,28.54,3.76,43.23,3.76,162.63,0,294.47-156.43,294.47-349.41S-42.71-626.75-205.34-626.75Z"/><path class="cls-2" d="m0,74.53s40.98,2.43,55.08,17.43c18.64,19.81,19.6,57.24,19.6,57.24,0,0,5.59-42.52,20.98-56.25,13.6-12.13,53.7-18.42,53.7-18.42,0,0-43.77-4.3-56.05-18.75C77.52,37.17,74.68,0,74.68,0c0,0,.64,38.2-16.54,54.72C39.89,72.28,0,74.53,0,74.53Z"/></svg>